solid 
facet normal 1.000000e+00 0.000000e+00 0.000000e+00
 outer loop
  vertex 2.782564e-01 4.578195e-01 -1.716909e-01
  vertex 2.782564e-01 7.289097e-01 -1.716909e-01
  vertex 2.782564e-01 4.578195e-01 1.212318e-01
 endloop
endfacet
facet normal 0.000000e+00 -0.000000e+00 -1.000000e+00
 outer loop
  vertex 2.782564e-01 7.289097e-01 -1.716909e-01
  vertex 2.782564e-01 4.578195e-01 -1.716909e-01
  vertex -4.130769e-02 4.578195e-01 -1.716909e-01
 endloop
endfacet
facet normal 0.000000e+00 -1.000000e+00 0.000000e+00
 outer loop
  vertex 2.782564e-01 4.578195e-01 -1.716909e-01
  vertex 2.782564e-01 4.578195e-01 1.212318e-01
  vertex -4.130769e-02 4.578195e-01 -1.716909e-01
 endloop
endfacet
facet normal 0.000000e+00 1.000000e+00 0.000000e+00
 outer loop
  vertex -7.500000e-01 -1.000000e+00 -1.000000e+00
  vertex -1.000000e+00 -1.000000e+00 -1.000000e+00
  vertex -1.000000e+00 -1.000000e+00 -7.500000e-01
 endloop
endfacet
facet normal 0.000000e+00 0.000000e+00 1.000000e+00
 outer loop
  vertex -1.000000e+00 -1.000000e+00 -1.000000e+00
  vertex -7.500000e-01 -1.000000e+00 -1.000000e+00
  vertex -1.000000e+00 -7.500000e-01 -1.000000e+00
 endloop
endfacet
facet normal 1.000000e+00 0.000000e+00 0.000000e+00
 outer loop
  vertex -1.000000e+00 -1.000000e+00 -1.000000e+00
  vertex -1.000000e+00 -7.500000e-01 -1.000000e+00
  vertex -1.000000e+00 -1.000000e+00 -7.500000e-01
 endloop
endfacet
facet normal 0.000000e+00 0.000000e+00 -1.000000e+00
 outer loop
  vertex -7.500000e-01 -1.000000e+00 1.000000e+00
  vertex -1.000000e+00 -1.000000e+00 1.000000e+00
  vertex -1.000000e+00 -6.355451e-01 1.000000e+00
 endloop
endfacet
facet normal -0.000000e+00 1.000000e+00 0.000000e+00
 outer loop
  vertex -1.000000e+00 -1.000000e+00 1.000000e+00
  vertex -7.500000e-01 -1.000000e+00 1.000000e+00
  vertex -1.000000e+00 -1.000000e+00 7.500000e-01
 endloop
endfacet
facet normal 1.000000e+00 -0.000000e+00 0.000000e+00
 outer loop
  vertex -1.000000e+00 -1.000000e+00 1.000000e+00
  vertex -1.000000e+00 -1.000000e+00 7.500000e-01
  vertex -1.000000e+00 -6.355451e-01 1.000000e+00
 endloop
endfacet
facet normal 1.000000e+00 0.000000e+00 -0.000000e+00
 outer loop
  vertex -1.000000e+00 1.000000e+00 -1.000000e+00
  vertex -1.000000e+00 1.000000e+00 -5.858455e-01
  vertex -1.000000e+00 7.500000e-01 -1.000000e+00
 endloop
endfacet
facet normal 0.000000e+00 -1.000000e+00 0.000000e+00
 outer loop
  vertex -1.000000e+00 1.000000e+00 -5.858455e-01
  vertex -1.000000e+00 1.000000e+00 -1.000000e+00
  vertex -7.500000e-01 1.000000e+00 -1.000000e+00
 endloop
endfacet
facet normal -0.000000e+00 0.000000e+00 1.000000e+00
 outer loop
  vertex -1.000000e+00 1.000000e+00 -1.000000e+00
  vertex -1.000000e+00 7.500000e-01 -1.000000e+00
  vertex -7.500000e-01 1.000000e+00 -1.000000e+00
 endloop
endfacet
facet normal -1.000000e+00 0.000000e+00 0.000000e+00
 outer loop
  vertex 1.000000e+00 -7.500000e-01 -1.000000e+00
  vertex 1.000000e+00 -1.000000e+00 -1.000000e+00
  vertex 1.000000e+00 -1.000000e+00 -7.500000e-01
 endloop
endfacet
facet normal 0.000000e+00 -0.000000e+00 1.000000e+00
 outer loop
  vertex 1.000000e+00 -1.000000e+00 -1.000000e+00
  vertex 1.000000e+00 -7.500000e-01 -1.000000e+00
  vertex 7.500000e-01 -1.000000e+00 -1.000000e+00
 endloop
endfacet
facet normal 0.000000e+00 1.000000e+00 -0.000000e+00
 outer loop
  vertex 1.000000e+00 -1.000000e+00 -1.000000e+00
  vertex 7.500000e-01 -1.000000e+00 -1.000000e+00
  vertex 1.000000e+00 -1.000000e+00 -7.500000e-01
 endloop
endfacet
facet normal 0.000000e+00 -0.000000e+00 -1.000000e+00
 outer loop
  vertex 1.000000e+00 -7.500000e-01 1.000000e+00
  vertex 1.000000e+00 -1.000000e+00 1.000000e+00
  vertex 7.500000e-01 -1.000000e+00 1.000000e+00
 endloop
endfacet
facet normal -1.000000e+00 0.000000e+00 0.000000e+00
 outer loop
  vertex 1.000000e+00 -1.000000e+00 1.000000e+00
  vertex 1.000000e+00 -7.500000e-01 1.000000e+00
  vertex 1.000000e+00 -1.000000e+00 7.500000e-01
 endloop
endfacet
facet normal 0.000000e+00 1.000000e+00 0.000000e+00
 outer loop
  vertex 1.000000e+00 -1.000000e+00 1.000000e+00
  vertex 1.000000e+00 -1.000000e+00 7.500000e-01
  vertex 7.500000e-01 -1.000000e+00 1.000000e+00
 endloop
endfacet
facet normal 0.000000e+00 0.000000e+00 1.000000e+00
 outer loop
  vertex 1.000000e+00 1.000000e+00 -1.000000e+00
  vertex 7.500000e-01 1.000000e+00 -1.000000e+00
  vertex 1.000000e+00 7.500000e-01 -1.000000e+00
 endloop
endfacet
facet normal 0.000000e+00 -1.000000e+00 0.000000e+00
 outer loop
  vertex 7.500000e-01 1.000000e+00 -1.000000e+00
  vertex 1.000000e+00 1.000000e+00 -1.000000e+00
  vertex 1.000000e+00 1.000000e+00 -7.500000e-01
 endloop
endfacet
facet normal -1.000000e+00 0.000000e+00 0.000000e+00
 outer loop
  vertex 1.000000e+00 1.000000e+00 -1.000000e+00
  vertex 1.000000e+00 7.500000e-01 -1.000000e+00
  vertex 1.000000e+00 1.000000e+00 -7.500000e-01
 endloop
endfacet
facet normal -0.000000e+00 -1.000000e+00 -0.000000e+00
 outer loop
  vertex 1.000000e+00 1.000000e+00 1.000000e+00
  vertex 6.391282e-01 1.000000e+00 1.000000e+00
  vertex 1.000000e+00 1.000000e+00 7.500000e-01
 endloop
endfacet
facet normal 0.000000e+00 0.000000e+00 -1.000000e+00
 outer loop
  vertex 6.391282e-01 1.000000e+00 1.000000e+00
  vertex 1.000000e+00 1.000000e+00 1.000000e+00
  vertex 1.000000e+00 7.500000e-01 1.000000e+00
 endloop
endfacet
facet normal -1.000000e+00 -0.000000e+00 -0.000000e+00
 outer loop
  vertex 1.000000e+00 1.000000e+00 1.000000e+00
  vertex 1.000000e+00 1.000000e+00 7.500000e-01
  vertex 1.000000e+00 7.500000e-01 1.000000e+00
 endloop
endfacet
facet normal 0.000000e+00 0.000000e+00 -1.000000e+00
 outer loop
  vertex 2.782564e-01 7.289097e-01 1.000000e+00
  vertex 2.782564e-01 1.000000e+00 1.000000e+00
  vertex 6.391282e-01 1.000000e+00 1.000000e+00
 endloop
endfacet
facet normal 1.000000e+00 0.000000e+00 0.000000e+00
 outer loop
  vertex 2.782564e-01 1.000000e+00 1.000000e+00
  vertex 2.782564e-01 7.289097e-01 1.000000e+00
  vertex 2.782564e-01 1.000000e+00 7.070773e-01
 endloop
endfacet
facet normal 0.000000e+00 -1.000000e+00 0.000000e+00
 outer loop
  vertex 2.782564e-01 1.000000e+00 1.000000e+00
  vertex 2.782564e-01 1.000000e+00 7.070773e-01
  vertex 6.391282e-01 1.000000e+00 1.000000e+00
 endloop
endfacet
facet normal 1.000000e+00 0.000000e+00 0.000000e+00
 outer loop
  vertex 2.782564e-01 7.289097e-01 -1.716909e-01
  vertex 2.782564e-01 1.000000e+00 -1.716909e-01
  vertex 2.782564e-01 1.000000e+00 1.212318e-01
 endloop
endfacet
facet normal -0.000000e+00 -0.000000e+00 -1.000000e+00
 outer loop
  vertex 2.782564e-01 1.000000e+00 -1.716909e-01
  vertex 2.782564e-01 7.289097e-01 -1.716909e-01
  vertex -4.130769e-02 1.000000e+00 -1.716909e-01
 endloop
endfacet
facet normal 0.000000e+00 -1.000000e+00 0.000000e+00
 outer loop
  vertex 2.782564e-01 1.000000e+00 -1.716909e-01
  vertex 6.499429e-01 1.000000e+00 1.250000e-01
  vertex 2.782564e-01 1.000000e+00 1.212318e-01
 endloop
endfacet
facet normal -0.000000e+00 -1.000000e+00 0.000000e+00
 outer loop
  vertex 2.782564e-01 1.000000e+00 -1.716909e-01
  vertex -4.130769e-02 1.000000e+00 -1.716909e-01
  vertex 1.106907e-01 1.000000e+00 -5.792953e-01
 endloop
endfacet
facet normal 0.000000e+00 -1.000000e+00 -0.000000e+00
 outer loop
  vertex 2.782564e-01 1.000000e+00 -1.716909e-01
  vertex 1.106907e-01 1.000000e+00 -5.792953e-01
  vertex 5.443039e-01 1.000000e+00 -5.443039e-01
 endloop
endfacet
facet normal 0.000000e+00 -1.000000e+00 0.000000e+00
 outer loop
  vertex 2.782564e-01 1.000000e+00 -1.716909e-01
  vertex 5.443039e-01 1.000000e+00 -5.443039e-01
  vertex 6.499429e-01 1.000000e+00 1.250000e-01
 endloop
endfacet
facet normal 1.000000e+00 0.000000e+00 0.000000e+00
 outer loop
  vertex 2.782564e-01 7.289097e-01 1.000000e+00
  vertex 2.782564e-01 4.578195e-01 1.000000e+00
  vertex 2.782564e-01 4.578195e-01 7.070773e-01
 endloop
endfacet
facet normal 0.000000e+00 0.000000e+00 -1.000000e+00
 outer loop
  vertex 2.782564e-01 4.578195e-01 1.000000e+00
  vertex 2.782564e-01 7.289097e-01 1.000000e+00
  vertex 6.463724e-01 6.250000e-01 1.000000e+00
 endloop
endfacet
facet normal -0.000000e+00 -1.000000e+00 -0.000000e+00
 outer loop
  vertex 2.782564e-01 4.578195e-01 1.000000e+00
  vertex -4.130769e-02 4.578195e-01 1.000000e+00
  vertex 2.782564e-01 4.578195e-01 7.070773e-01
 endloop
endfacet
facet normal 0.000000e+00 0.000000e+00 -1.000000e+00
 outer loop
  vertex -4.130769e-02 4.578195e-01 1.000000e+00
  vertex 2.782564e-01 4.578195e-01 1.000000e+00
  vertex 1.184744e-01 -2.671480e-01 1.000000e+00
 endloop
endfacet
facet normal 0.000000e+00 0.000000e+00 -1.000000e+00
 outer loop
  vertex 1.184744e-01 -2.671480e-01 1.000000e+00
  vertex 2.782564e-01 4.578195e-01 1.000000e+00
  vertex 5.107291e-01 2.649108e-02 1.000000e+00
 endloop
endfacet
facet normal 0.000000e+00 0.000000e+00 -1.000000e+00
 outer loop
  vertex 2.782564e-01 4.578195e-01 1.000000e+00
  vertex 6.463724e-01 6.250000e-01 1.000000e+00
  vertex 5.107291e-01 2.649108e-02 1.000000e+00
 endloop
endfacet
facet normal 0.000000e+00 0.000000e+00 -1.000000e+00
 outer loop
  vertex -1.000000e+00 4.578195e-01 -1.716909e-01
  vertex -1.000000e+00 7.289097e-01 -1.716909e-01
  vertex -6.804359e-01 4.578195e-01 -1.716909e-01
 endloop
endfacet
facet normal 1.000000e+00 0.000000e+00 0.000000e+00
 outer loop
  vertex -1.000000e+00 7.289097e-01 -1.716909e-01
  vertex -1.000000e+00 4.578195e-01 -1.716909e-01
  vertex -1.000000e+00 5.744462e-01 -5.809804e-01
 endloop
endfacet
facet normal 0.000000e+00 -1.000000e+00 0.000000e+00
 outer loop
  vertex -1.000000e+00 4.578195e-01 1.212318e-01
  vertex -1.000000e+00 4.578195e-01 -1.716909e-01
  vertex -6.804359e-01 4.578195e-01 -1.716909e-01
 endloop
endfacet
facet normal 1.000000e+00 0.000000e+00 -0.000000e+00
 outer loop
  vertex -1.000000e+00 4.578195e-01 -1.716909e-01
  vertex -1.000000e+00 4.578195e-01 1.212318e-01
  vertex -1.000000e+00 5.372724e-02 -2.522957e-02
 endloop
endfacet
facet normal 1.000000e+00 0.000000e+00 0.000000e+00
 outer loop
  vertex -1.000000e+00 5.744462e-01 -5.809804e-01
  vertex -1.000000e+00 4.578195e-01 -1.716909e-01
  vertex -1.000000e+00 9.191982e-02 -5.227432e-01
 endloop
endfacet
facet normal 1.000000e+00 0.000000e+00 0.000000e+00
 outer loop
  vertex -1.000000e+00 4.578195e-01 -1.716909e-01
  vertex -1.000000e+00 5.372724e-02 -2.522957e-02
  vertex -1.000000e+00 9.191982e-02 -5.227432e-01
 endloop
endfacet
facet normal 1.000000e+00 0.000000e+00 0.000000e+00
 outer loop
  vertex -1.000000e+00 4.578195e-01 1.000000e+00
  vertex -1.000000e+00 9.336460e-02 1.000000e+00
  vertex -1.000000e+00 4.578195e-01 7.070773e-01
 endloop
endfacet
facet normal 0.000000e+00 0.000000e+00 -1.000000e+00
 outer loop
  vertex -1.000000e+00 9.336460e-02 1.000000e+00
  vertex -1.000000e+00 4.578195e-01 1.000000e+00
  vertex -6.804359e-01 4.578195e-01 1.000000e+00
 endloop
endfacet
facet normal 0.000000e+00 -1.000000e+00 0.000000e+00
 outer loop
  vertex -1.000000e+00 4.578195e-01 1.000000e+00
  vertex -1.000000e+00 4.578195e-01 7.070773e-01
  vertex -6.804359e-01 4.578195e-01 1.000000e+00
 endloop
endfacet
facet normal 1.000000e+00 0.000000e+00 -0.000000e+00
 outer loop
  vertex -1.000000e+00 1.000000e+00 -5.858455e-01
  vertex -1.000000e+00 1.000000e+00 -1.716909e-01
  vertex -1.000000e+00 7.289097e-01 -1.716909e-01
 endloop
endfacet
facet normal 0.000000e+00 -1.000000e+00 0.000000e+00
 outer loop
  vertex -1.000000e+00 1.000000e+00 -1.716909e-01
  vertex -1.000000e+00 1.000000e+00 -5.858455e-01
  vertex -6.804359e-01 1.000000e+00 -1.716909e-01
 endloop
endfacet
facet normal 0.000000e+00 0.000000e+00 -1.000000e+00
 outer loop
  vertex -1.000000e+00 1.000000e+00 -1.716909e-01
  vertex -6.804359e-01 1.000000e+00 -1.716909e-01
  vertex -1.000000e+00 7.289097e-01 -1.716909e-01
 endloop
endfacet
facet normal -1.000000e+00 0.000000e+00 0.000000e+00
 outer loop
  vertex 1.000000e+00 0.000000e+00 -1.000000e+00
  vertex 1.000000e+00 -2.500000e-01 -1.000000e+00
  vertex 1.000000e+00 1.332268e-16 -5.595238e-01
 endloop
endfacet
facet normal 0.000000e+00 -0.000000e+00 1.000000e+00
 outer loop
  vertex 1.000000e+00 -2.500000e-01 -1.000000e+00
  vertex 1.000000e+00 0.000000e+00 -1.000000e+00
  vertex 6.926578e-01 -2.784691e-01 -1.000000e+00
 endloop
endfacet
facet normal -1.000000e+00 0.000000e+00 0.000000e+00
 outer loop
  vertex 1.000000e+00 2.500000e-01 -1.000000e+00
  vertex 1.000000e+00 0.000000e+00 -1.000000e+00
  vertex 1.000000e+00 1.332268e-16 -5.595238e-01
 endloop
endfacet
facet normal 0.000000e+00 -0.000000e+00 1.000000e+00
 outer loop
  vertex 1.000000e+00 0.000000e+00 -1.000000e+00
  vertex 1.000000e+00 2.500000e-01 -1.000000e+00
  vertex 6.926578e-01 2.784691e-01 -1.000000e+00
 endloop
endfacet
facet normal 0.000000e+00 0.000000e+00 1.000000e+00
 outer loop
  vertex 1.000000e+00 0.000000e+00 -1.000000e+00
  vertex 5.595238e-01 0.000000e+00 -1.000000e+00
  vertex 6.926578e-01 -2.784691e-01 -1.000000e+00
 endloop
endfacet
facet normal 0.000000e+00 0.000000e+00 1.000000e+00
 outer loop
  vertex 1.000000e+00 0.000000e+00 -1.000000e+00
  vertex 6.926578e-01 2.784691e-01 -1.000000e+00
  vertex 5.595238e-01 0.000000e+00 -1.000000e+00
 endloop
endfacet
facet normal 0.000000e+00 1.000000e+00 -0.000000e+00
 outer loop
  vertex 0.000000e+00 -1.000000e+00 -1.000000e+00
  vertex -2.500000e-01 -1.000000e+00 -1.000000e+00
  vertex 0.000000e+00 -1.000000e+00 -5.595238e-01
 endloop
endfacet
facet normal 0.000000e+00 -0.000000e+00 1.000000e+00
 outer loop
  vertex -2.500000e-01 -1.000000e+00 -1.000000e+00
  vertex 0.000000e+00 -1.000000e+00 -1.000000e+00
  vertex -2.784691e-01 -6.926578e-01 -1.000000e+00
 endloop
endfacet
facet normal 0.000000e+00 0.000000e+00 1.000000e+00
 outer loop
  vertex 0.000000e+00 -1.000000e+00 -1.000000e+00
  vertex 2.500000e-01 -1.000000e+00 -1.000000e+00
  vertex 0.000000e+00 -5.595238e-01 -1.000000e+00
 endloop
endfacet
facet normal 0.000000e+00 1.000000e+00 -0.000000e+00
 outer loop
  vertex 2.500000e-01 -1.000000e+00 -1.000000e+00
  vertex 0.000000e+00 -1.000000e+00 -1.000000e+00
  vertex 2.784691e-01 -1.000000e+00 -6.926578e-01
 endloop
endfacet
facet normal 0.000000e+00 1.000000e+00 0.000000e+00
 outer loop
  vertex 0.000000e+00 -1.000000e+00 -1.000000e+00
  vertex 0.000000e+00 -1.000000e+00 -5.595238e-01
  vertex 2.784691e-01 -1.000000e+00 -6.926578e-01
 endloop
endfacet
facet normal 0.000000e+00 -0.000000e+00 1.000000e+00
 outer loop
  vertex 0.000000e+00 -1.000000e+00 -1.000000e+00
  vertex 0.000000e+00 -5.595238e-01 -1.000000e+00
  vertex -2.784691e-01 -6.926578e-01 -1.000000e+00
 endloop
endfacet
facet normal -0.000000e+00 1.000000e+00 0.000000e+00
 outer loop
  vertex -2.500000e-01 -1.000000e+00 1.000000e+00
  vertex 0.000000e+00 -1.000000e+00 1.000000e+00
  vertex -2.784691e-01 -1.000000e+00 6.926578e-01
 endloop
endfacet
facet normal 0.000000e+00 0.000000e+00 -1.000000e+00
 outer loop
  vertex 0.000000e+00 -1.000000e+00 1.000000e+00
  vertex -2.500000e-01 -1.000000e+00 1.000000e+00
  vertex 1.250000e-01 -6.442054e-01 1.000000e+00
 endloop
endfacet
facet normal -0.000000e+00 1.000000e+00 0.000000e+00
 outer loop
  vertex 0.000000e+00 -1.000000e+00 1.000000e+00
  vertex 2.500000e-01 -1.000000e+00 1.000000e+00
  vertex 2.784691e-01 -1.000000e+00 6.926578e-01
 endloop
endfacet
facet normal 0.000000e+00 0.000000e+00 -1.000000e+00
 outer loop
  vertex 2.500000e-01 -1.000000e+00 1.000000e+00
  vertex 0.000000e+00 -1.000000e+00 1.000000e+00
  vertex 1.250000e-01 -6.442054e-01 1.000000e+00
 endloop
endfacet
facet normal 0.000000e+00 1.000000e+00 0.000000e+00
 outer loop
  vertex -1.332268e-16 -1.000000e+00 5.595238e-01
  vertex 0.000000e+00 -1.000000e+00 1.000000e+00
  vertex 2.784691e-01 -1.000000e+00 6.926578e-01
 endloop
endfacet
facet normal 0.000000e+00 1.000000e+00 0.000000e+00
 outer loop
  vertex 0.000000e+00 -1.000000e+00 1.000000e+00
  vertex -1.332268e-16 -1.000000e+00 5.595238e-01
  vertex -2.784691e-01 -1.000000e+00 6.926578e-01
 endloop
endfacet
facet normal 0.000000e+00 1.000000e+00 0.000000e+00
 outer loop
  vertex -1.000000e+00 -1.000000e+00 -2.500000e-01
  vertex -1.000000e+00 -1.000000e+00 0.000000e+00
  vertex -5.595238e-01 -1.000000e+00 0.000000e+00
 endloop
endfacet
facet normal 1.000000e+00 0.000000e+00 0.000000e+00
 outer loop
  vertex -1.000000e+00 -1.000000e+00 0.000000e+00
  vertex -1.000000e+00 -1.000000e+00 -2.500000e-01
  vertex -1.000000e+00 -6.807584e-01 -3.098703e-01
 endloop
endfacet
facet normal 0.000000e+00 1.000000e+00 0.000000e+00
 outer loop
  vertex -1.000000e+00 -1.000000e+00 0.000000e+00
  vertex -1.000000e+00 -1.000000e+00 2.500000e-01
  vertex -5.595238e-01 -1.000000e+00 0.000000e+00
 endloop
endfacet
facet normal 1.000000e+00 -0.000000e+00 0.000000e+00
 outer loop
  vertex -1.000000e+00 -1.000000e+00 2.500000e-01
  vertex -1.000000e+00 -1.000000e+00 0.000000e+00
  vertex -1.000000e+00 -6.905047e-01 2.829352e-01
 endloop
endfacet
facet normal 1.000000e+00 -0.000000e+00 0.000000e+00
 outer loop
  vertex -1.000000e+00 -1.000000e+00 0.000000e+00
  vertex -1.000000e+00 -5.816028e-01 -8.633808e-03
  vertex -1.000000e+00 -6.905047e-01 2.829352e-01
 endloop
endfacet
facet normal 1.000000e+00 0.000000e+00 0.000000e+00
 outer loop
  vertex -1.000000e+00 -1.000000e+00 0.000000e+00
  vertex -1.000000e+00 -6.807584e-01 -3.098703e-01
  vertex -1.000000e+00 -5.816028e-01 -8.633808e-03
 endloop
endfacet
facet normal -1.000000e+00 0.000000e+00 0.000000e+00
 outer loop
  vertex 1.000000e+00 -2.500000e-01 1.000000e+00
  vertex 1.000000e+00 0.000000e+00 1.000000e+00
  vertex 1.000000e+00 -1.332268e-16 5.595238e-01
 endloop
endfacet
facet normal 0.000000e+00 -0.000000e+00 -1.000000e+00
 outer loop
  vertex 1.000000e+00 0.000000e+00 1.000000e+00
  vertex 1.000000e+00 -2.500000e-01 1.000000e+00
  vertex 6.803485e-01 -2.445009e-01 1.000000e+00
 endloop
endfacet
facet normal -1.000000e+00 0.000000e+00 -0.000000e+00
 outer loop
  vertex 1.000000e+00 0.000000e+00 1.000000e+00
  vertex 1.000000e+00 2.500000e-01 1.000000e+00
  vertex 1.000000e+00 -1.332268e-16 5.595238e-01
 endloop
endfacet
facet normal 0.000000e+00 -0.000000e+00 -1.000000e+00
 outer loop
  vertex 1.000000e+00 2.500000e-01 1.000000e+00
  vertex 1.000000e+00 0.000000e+00 1.000000e+00
  vertex 5.107291e-01 2.649108e-02 1.000000e+00
 endloop
endfacet
facet normal -0.000000e+00 0.000000e+00 -1.000000e+00
 outer loop
  vertex 1.000000e+00 0.000000e+00 1.000000e+00
  vertex 6.803485e-01 -2.445009e-01 1.000000e+00
  vertex 5.107291e-01 2.649108e-02 1.000000e+00
 endloop
endfacet
facet normal -1.000000e+00 0.000000e+00 0.000000e+00
 outer loop
  vertex 1.000000e+00 -1.000000e+00 -2.500000e-01
  vertex 1.000000e+00 -1.000000e+00 0.000000e+00
  vertex 1.000000e+00 -5.595238e-01 0.000000e+00
 endloop
endfacet
facet normal 0.000000e+00 1.000000e+00 0.000000e+00
 outer loop
  vertex 1.000000e+00 -1.000000e+00 0.000000e+00
  vertex 1.000000e+00 -1.000000e+00 -2.500000e-01
  vertex 6.926578e-01 -1.000000e+00 -2.784691e-01
 endloop
endfacet
facet normal -1.000000e+00 0.000000e+00 0.000000e+00
 outer loop
  vertex 1.000000e+00 -1.000000e+00 0.000000e+00
  vertex 1.000000e+00 -1.000000e+00 2.500000e-01
  vertex 1.000000e+00 -5.595238e-01 0.000000e+00
 endloop
endfacet
facet normal 0.000000e+00 1.000000e+00 0.000000e+00
 outer loop
  vertex 1.000000e+00 -1.000000e+00 2.500000e-01
  vertex 1.000000e+00 -1.000000e+00 0.000000e+00
  vertex 6.926578e-01 -1.000000e+00 2.784691e-01
 endloop
endfacet
facet normal 0.000000e+00 1.000000e+00 0.000000e+00
 outer loop
  vertex 1.000000e+00 -1.000000e+00 0.000000e+00
  vertex 5.595238e-01 -1.000000e+00 0.000000e+00
  vertex 6.926578e-01 -1.000000e+00 2.784691e-01
 endloop
endfacet
facet normal 0.000000e+00 1.000000e+00 0.000000e+00
 outer loop
  vertex 1.000000e+00 -1.000000e+00 0.000000e+00
  vertex 6.926578e-01 -1.000000e+00 -2.784691e-01
  vertex 5.595238e-01 -1.000000e+00 0.000000e+00
 endloop
endfacet
facet normal -1.000000e+00 0.000000e+00 -0.000000e+00
 outer loop
  vertex 1.000000e+00 1.000000e+00 2.500000e-01
  vertex 1.000000e+00 1.000000e+00 0.000000e+00
  vertex 1.000000e+00 5.595238e-01 0.000000e+00
 endloop
endfacet
facet normal 0.000000e+00 -1.000000e+00 0.000000e+00
 outer loop
  vertex 1.000000e+00 1.000000e+00 0.000000e+00
  vertex 1.000000e+00 1.000000e+00 2.500000e-01
  vertex 6.499429e-01 1.000000e+00 1.250000e-01
 endloop
endfacet
facet normal -1.000000e+00 -0.000000e+00 -0.000000e+00
 outer loop
  vertex 1.000000e+00 1.000000e+00 0.000000e+00
  vertex 1.000000e+00 1.000000e+00 -2.500000e-01
  vertex 1.000000e+00 5.595238e-01 0.000000e+00
 endloop
endfacet
facet normal 0.000000e+00 -1.000000e+00 0.000000e+00
 outer loop
  vertex 1.000000e+00 1.000000e+00 -2.500000e-01
  vertex 1.000000e+00 1.000000e+00 0.000000e+00
  vertex 6.499429e-01 1.000000e+00 1.250000e-01
 endloop
endfacet
facet normal 0.000000e+00 0.000000e+00 1.000000e+00
 outer loop
  vertex -1.000000e+00 2.500000e-01 -1.000000e+00
  vertex -1.000000e+00 0.000000e+00 -1.000000e+00
  vertex -5.595238e-01 0.000000e+00 -1.000000e+00
 endloop
endfacet
facet normal 1.000000e+00 0.000000e+00 0.000000e+00
 outer loop
  vertex -1.000000e+00 0.000000e+00 -1.000000e+00
  vertex -1.000000e+00 2.500000e-01 -1.000000e+00
  vertex -1.000000e+00 3.135990e-01 -7.141257e-01
 endloop
endfacet
facet normal -0.000000e+00 0.000000e+00 1.000000e+00
 outer loop
  vertex -1.000000e+00 0.000000e+00 -1.000000e+00
  vertex -1.000000e+00 -2.500000e-01 -1.000000e+00
  vertex -5.595238e-01 0.000000e+00 -1.000000e+00
 endloop
endfacet
facet normal 1.000000e+00 0.000000e+00 0.000000e+00
 outer loop
  vertex -1.000000e+00 -2.500000e-01 -1.000000e+00
  vertex -1.000000e+00 0.000000e+00 -1.000000e+00
  vertex -1.000000e+00 -2.119478e-01 -6.661529e-01
 endloop
endfacet
facet normal 1.000000e+00 0.000000e+00 -0.000000e+00
 outer loop
  vertex -1.000000e+00 0.000000e+00 -1.000000e+00
  vertex -1.000000e+00 9.191982e-02 -5.227432e-01
  vertex -1.000000e+00 -2.119478e-01 -6.661529e-01
 endloop
endfacet
facet normal 1.000000e+00 0.000000e+00 0.000000e+00
 outer loop
  vertex -1.000000e+00 0.000000e+00 -1.000000e+00
  vertex -1.000000e+00 3.135990e-01 -7.141257e-01
  vertex -1.000000e+00 9.191982e-02 -5.227432e-01
 endloop
endfacet
facet normal 0.000000e+00 0.000000e+00 1.000000e+00
 outer loop
  vertex 2.500000e-01 1.000000e+00 -1.000000e+00
  vertex 0.000000e+00 1.000000e+00 -1.000000e+00
  vertex 1.332268e-16 5.595238e-01 -1.000000e+00
 endloop
endfacet
facet normal 0.000000e+00 -1.000000e+00 0.000000e+00
 outer loop
  vertex 0.000000e+00 1.000000e+00 -1.000000e+00
  vertex 2.500000e-01 1.000000e+00 -1.000000e+00
  vertex 1.106907e-01 1.000000e+00 -5.792953e-01
 endloop
endfacet
facet normal 0.000000e+00 0.000000e+00 1.000000e+00
 outer loop
  vertex 0.000000e+00 1.000000e+00 -1.000000e+00
  vertex -2.500000e-01 1.000000e+00 -1.000000e+00
  vertex 1.332268e-16 5.595238e-01 -1.000000e+00
 endloop
endfacet
facet normal 0.000000e+00 -1.000000e+00 0.000000e+00
 outer loop
  vertex -2.500000e-01 1.000000e+00 -1.000000e+00
  vertex 0.000000e+00 1.000000e+00 -1.000000e+00
  vertex -1.250000e-01 1.000000e+00 -7.421974e-01
 endloop
endfacet
facet normal 0.000000e+00 -1.000000e+00 0.000000e+00
 outer loop
  vertex 0.000000e+00 1.000000e+00 -1.000000e+00
  vertex 1.106907e-01 1.000000e+00 -5.792953e-01
  vertex -1.250000e-01 1.000000e+00 -7.421974e-01
 endloop
endfacet
facet normal 0.000000e+00 0.000000e+00 -1.000000e+00
 outer loop
  vertex 2.782564e-01 7.289097e-01 1.000000e+00
  vertex 6.391282e-01 1.000000e+00 1.000000e+00
  vertex 6.463724e-01 6.250000e-01 1.000000e+00
 endloop
endfacet
facet normal 1.000000e+00 0.000000e+00 0.000000e+00
 outer loop
  vertex 2.782564e-01 7.289097e-01 1.000000e+00
  vertex 2.782564e-01 4.578195e-01 7.070773e-01
  vertex 2.782564e-01 1.000000e+00 7.070773e-01
 endloop
endfacet
facet normal 1.000000e+00 -0.000000e+00 0.000000e+00
 outer loop
  vertex 2.782564e-01 4.578195e-01 4.141545e-01
  vertex 2.782564e-01 1.000000e+00 1.212318e-01
  vertex 2.782564e-01 1.000000e+00 4.141545e-01
 endloop
endfacet
facet normal 1.000000e+00 0.000000e+00 0.000000e+00
 outer loop
  vertex 2.782564e-01 1.000000e+00 7.070773e-01
  vertex 2.782564e-01 4.578195e-01 4.141545e-01
  vertex 2.782564e-01 1.000000e+00 4.141545e-01
 endloop
endfacet
facet normal 1.000000e+00 0.000000e+00 0.000000e+00
 outer loop
  vertex 2.782564e-01 1.000000e+00 1.212318e-01
  vertex 2.782564e-01 4.578195e-01 4.141545e-01
  vertex 2.782564e-01 4.578195e-01 1.212318e-01
 endloop
endfacet
facet normal 0.000000e+00 -1.000000e+00 0.000000e+00
 outer loop
  vertex 2.782564e-01 4.578195e-01 1.212318e-01
  vertex 2.782564e-01 4.578195e-01 4.141545e-01
  vertex -2.010897e-01 4.578195e-01 1.373835e-01
 endloop
endfacet
facet normal 1.000000e+00 0.000000e+00 0.000000e+00
 outer loop
  vertex 2.782564e-01 4.578195e-01 4.141545e-01
  vertex 2.782564e-01 1.000000e+00 7.070773e-01
  vertex 2.782564e-01 4.578195e-01 7.070773e-01
 endloop
endfacet
facet normal 0.000000e+00 -1.000000e+00 0.000000e+00
 outer loop
  vertex 2.782564e-01 4.578195e-01 4.141545e-01
  vertex 2.782564e-01 4.578195e-01 7.070773e-01
  vertex -6.683854e-02 4.578195e-01 5.606159e-01
 endloop
endfacet
facet normal -0.000000e+00 -1.000000e+00 0.000000e+00
 outer loop
  vertex 2.782564e-01 4.578195e-01 4.141545e-01
  vertex -6.683854e-02 4.578195e-01 5.606159e-01
  vertex -2.010897e-01 4.578195e-01 1.373835e-01
 endloop
endfacet
facet normal 0.000000e+00 -1.000000e+00 0.000000e+00
 outer loop
  vertex -1.000000e+00 4.578195e-01 4.141545e-01
  vertex -1.000000e+00 4.578195e-01 1.212318e-01
  vertex -4.119335e-01 4.578195e-01 4.141545e-01
 endloop
endfacet
facet normal 1.000000e+00 0.000000e+00 -0.000000e+00
 outer loop
  vertex -1.000000e+00 4.578195e-01 1.212318e-01
  vertex -1.000000e+00 4.578195e-01 4.141545e-01
  vertex -1.000000e+00 1.704089e-01 2.729703e-01
 endloop
endfacet
facet normal 0.000000e+00 -1.000000e+00 0.000000e+00
 outer loop
  vertex -1.000000e+00 4.578195e-01 7.070773e-01
  vertex -1.000000e+00 4.578195e-01 4.141545e-01
  vertex -4.119335e-01 4.578195e-01 4.141545e-01
 endloop
endfacet
facet normal 1.000000e+00 0.000000e+00 -0.000000e+00
 outer loop
  vertex -1.000000e+00 4.578195e-01 4.141545e-01
  vertex -1.000000e+00 4.578195e-01 7.070773e-01
  vertex -1.000000e+00 4.618236e-02 5.681068e-01
 endloop
endfacet
facet normal 1.000000e+00 0.000000e+00 0.000000e+00
 outer loop
  vertex -1.000000e+00 4.578195e-01 4.141545e-01
  vertex -1.000000e+00 4.618236e-02 5.681068e-01
  vertex -1.000000e+00 1.704089e-01 2.729703e-01
 endloop
endfacet
facet normal -0.000000e+00 -0.000000e+00 -1.000000e+00
 outer loop
  vertex -3.608718e-01 1.000000e+00 -1.716909e-01
  vertex -3.608718e-01 4.578195e-01 -1.716909e-01
  vertex -6.804359e-01 1.000000e+00 -1.716909e-01
 endloop
endfacet
facet normal -0.000000e+00 0.000000e+00 -1.000000e+00
 outer loop
  vertex -4.130769e-02 1.000000e+00 -1.716909e-01
  vertex -3.608718e-01 4.578195e-01 -1.716909e-01
  vertex -3.608718e-01 1.000000e+00 -1.716909e-01
 endloop
endfacet
facet normal 0.000000e+00 0.000000e+00 -1.000000e+00
 outer loop
  vertex -3.608718e-01 4.578195e-01 -1.716909e-01
  vertex -4.130769e-02 1.000000e+00 -1.716909e-01
  vertex -4.130769e-02 4.578195e-01 -1.716909e-01
 endloop
endfacet
facet normal 0.000000e+00 -1.000000e+00 0.000000e+00
 outer loop
  vertex -3.608718e-01 4.578195e-01 -1.716909e-01
  vertex -4.130769e-02 4.578195e-01 -1.716909e-01
  vertex -2.010897e-01 4.578195e-01 1.373835e-01
 endloop
endfacet
facet normal 0.000000e+00 0.000000e+00 -1.000000e+00
 outer loop
  vertex -6.804359e-01 1.000000e+00 -1.716909e-01
  vertex -3.608718e-01 4.578195e-01 -1.716909e-01
  vertex -6.804359e-01 4.578195e-01 -1.716909e-01
 endloop
endfacet
facet normal 0.000000e+00 -1.000000e+00 0.000000e+00
 outer loop
  vertex -6.804359e-01 4.578195e-01 -1.716909e-01
  vertex -3.608718e-01 4.578195e-01 -1.716909e-01
  vertex -2.010897e-01 4.578195e-01 1.373835e-01
 endloop
endfacet
facet normal 1.000000e+00 -0.000000e+00 0.000000e+00
 outer loop
  vertex 2.782564e-01 4.578195e-01 1.212318e-01
  vertex 2.782564e-01 7.289097e-01 -1.716909e-01
  vertex 2.782564e-01 1.000000e+00 1.212318e-01
 endloop
endfacet
facet normal -0.000000e+00 0.000000e+00 -1.000000e+00
 outer loop
  vertex 2.782564e-01 7.289097e-01 -1.716909e-01
  vertex -4.130769e-02 4.578195e-01 -1.716909e-01
  vertex -4.130769e-02 1.000000e+00 -1.716909e-01
 endloop
endfacet
facet normal -0.000000e+00 -1.000000e+00 0.000000e+00
 outer loop
  vertex -3.608718e-01 1.000000e+00 -1.716909e-01
  vertex -6.804359e-01 1.000000e+00 -1.716909e-01
  vertex -5.206538e-01 1.000000e+00 -5.706919e-01
 endloop
endfacet
facet normal -0.000000e+00 -1.000000e+00 0.000000e+00
 outer loop
  vertex -4.130769e-02 1.000000e+00 -1.716909e-01
  vertex -3.608718e-01 1.000000e+00 -1.716909e-01
  vertex -1.250000e-01 1.000000e+00 -7.421974e-01
 endloop
endfacet
facet normal 0.000000e+00 -1.000000e+00 -0.000000e+00
 outer loop
  vertex -3.608718e-01 1.000000e+00 -1.716909e-01
  vertex -5.206538e-01 1.000000e+00 -5.706919e-01
  vertex -1.250000e-01 1.000000e+00 -7.421974e-01
 endloop
endfacet
facet normal 0.000000e+00 0.000000e+00 -1.000000e+00
 outer loop
  vertex -1.000000e+00 -2.710903e-01 1.000000e+00
  vertex -1.000000e+00 9.336460e-02 1.000000e+00
  vertex -4.402203e-01 -4.230499e-01 1.000000e+00
 endloop
endfacet
facet normal 1.000000e+00 0.000000e+00 0.000000e+00
 outer loop
  vertex -1.000000e+00 9.336460e-02 1.000000e+00
  vertex -1.000000e+00 -2.710903e-01 1.000000e+00
  vertex -1.000000e+00 4.618236e-02 5.681068e-01
 endloop
endfacet
facet normal 0.000000e+00 0.000000e+00 -1.000000e+00
 outer loop
  vertex -1.000000e+00 -6.355451e-01 1.000000e+00
  vertex -1.000000e+00 -2.710903e-01 1.000000e+00
  vertex -4.402203e-01 -4.230499e-01 1.000000e+00
 endloop
endfacet
facet normal 1.000000e+00 0.000000e+00 0.000000e+00
 outer loop
  vertex -1.000000e+00 -2.710903e-01 1.000000e+00
  vertex -1.000000e+00 -6.355451e-01 1.000000e+00
  vertex -1.000000e+00 -5.716238e-01 5.705798e-01
 endloop
endfacet
facet normal 1.000000e+00 0.000000e+00 0.000000e+00
 outer loop
  vertex -1.000000e+00 4.618236e-02 5.681068e-01
  vertex -1.000000e+00 -2.710903e-01 1.000000e+00
  vertex -1.000000e+00 -5.716238e-01 5.705798e-01
 endloop
endfacet
facet normal 1.000000e+00 0.000000e+00 0.000000e+00
 outer loop
  vertex -1.000000e+00 1.000000e+00 -5.858455e-01
  vertex -1.000000e+00 7.289097e-01 -1.716909e-01
  vertex -1.000000e+00 5.744462e-01 -5.809804e-01
 endloop
endfacet
facet normal 0.000000e+00 -1.000000e+00 -0.000000e+00
 outer loop
  vertex -6.804359e-01 1.000000e+00 -1.716909e-01
  vertex -1.000000e+00 1.000000e+00 -5.858455e-01
  vertex -5.206538e-01 1.000000e+00 -5.706919e-01
 endloop
endfacet
facet normal 1.000000e+00 0.000000e+00 -0.000000e+00
 outer loop
  vertex -1.000000e+00 7.500000e-01 -1.000000e+00
  vertex -1.000000e+00 1.000000e+00 -5.858455e-01
  vertex -1.000000e+00 5.744462e-01 -5.809804e-01
 endloop
endfacet
facet normal 0.000000e+00 -1.000000e+00 0.000000e+00
 outer loop
  vertex -1.000000e+00 1.000000e+00 -5.858455e-01
  vertex -7.500000e-01 1.000000e+00 -1.000000e+00
  vertex -5.206538e-01 1.000000e+00 -5.706919e-01
 endloop
endfacet
facet normal -0.000000e+00 -1.000000e+00 0.000000e+00
 outer loop
  vertex 1.000000e+00 1.000000e+00 7.500000e-01
  vertex 6.391282e-01 1.000000e+00 1.000000e+00
  vertex 6.450020e-01 1.000000e+00 6.240109e-01
 endloop
endfacet
facet normal 0.000000e+00 -1.000000e+00 -0.000000e+00
 outer loop
  vertex 6.391282e-01 1.000000e+00 1.000000e+00
  vertex 2.782564e-01 1.000000e+00 7.070773e-01
  vertex 6.450020e-01 1.000000e+00 6.240109e-01
 endloop
endfacet
facet normal 0.000000e+00 0.000000e+00 -1.000000e+00
 outer loop
  vertex 6.391282e-01 1.000000e+00 1.000000e+00
  vertex 1.000000e+00 7.500000e-01 1.000000e+00
  vertex 6.463724e-01 6.250000e-01 1.000000e+00
 endloop
endfacet
facet normal 0.000000e+00 0.000000e+00 -1.000000e+00
 outer loop
  vertex -3.608718e-01 4.578195e-01 1.000000e+00
  vertex -4.130769e-02 4.578195e-01 1.000000e+00
  vertex -2.584510e-01 4.584918e-03 1.000000e+00
 endloop
endfacet
facet normal -0.000000e+00 -1.000000e+00 0.000000e+00
 outer loop
  vertex -4.130769e-02 4.578195e-01 1.000000e+00
  vertex -3.608718e-01 4.578195e-01 1.000000e+00
  vertex -6.683854e-02 4.578195e-01 5.606159e-01
 endloop
endfacet
facet normal -0.000000e+00 -1.000000e+00 0.000000e+00
 outer loop
  vertex -3.608718e-01 4.578195e-01 1.000000e+00
  vertex -6.804359e-01 4.578195e-01 1.000000e+00
  vertex -4.119335e-01 4.578195e-01 4.141545e-01
 endloop
endfacet
facet normal 0.000000e+00 0.000000e+00 -1.000000e+00
 outer loop
  vertex -6.804359e-01 4.578195e-01 1.000000e+00
  vertex -3.608718e-01 4.578195e-01 1.000000e+00
  vertex -2.584510e-01 4.584918e-03 1.000000e+00
 endloop
endfacet
facet normal 0.000000e+00 -1.000000e+00 -0.000000e+00
 outer loop
  vertex -3.608718e-01 4.578195e-01 1.000000e+00
  vertex -4.119335e-01 4.578195e-01 4.141545e-01
  vertex -6.683854e-02 4.578195e-01 5.606159e-01
 endloop
endfacet
facet normal 0.000000e+00 -1.000000e+00 0.000000e+00
 outer loop
  vertex 2.782564e-01 1.000000e+00 4.141545e-01
  vertex 2.782564e-01 1.000000e+00 1.212318e-01
  vertex 6.499429e-01 1.000000e+00 1.250000e-01
 endloop
endfacet
facet normal 0.000000e+00 -1.000000e+00 0.000000e+00
 outer loop
  vertex 2.782564e-01 1.000000e+00 7.070773e-01
  vertex 2.782564e-01 1.000000e+00 4.141545e-01
  vertex 6.450020e-01 1.000000e+00 6.240109e-01
 endloop
endfacet
facet normal 0.000000e+00 -1.000000e+00 0.000000e+00
 outer loop
  vertex 2.782564e-01 1.000000e+00 4.141545e-01
  vertex 6.499429e-01 1.000000e+00 1.250000e-01
  vertex 6.450020e-01 1.000000e+00 6.240109e-01
 endloop
endfacet
facet normal 0.000000e+00 0.000000e+00 -1.000000e+00
 outer loop
  vertex -1.000000e+00 7.289097e-01 -1.716909e-01
  vertex -6.804359e-01 1.000000e+00 -1.716909e-01
  vertex -6.804359e-01 4.578195e-01 -1.716909e-01
 endloop
endfacet
facet normal -1.000000e+00 0.000000e+00 0.000000e+00
 outer loop
  vertex 1.000000e+00 -5.000000e-01 -1.000000e+00
  vertex 1.000000e+00 -7.500000e-01 -1.000000e+00
  vertex 1.000000e+00 -6.250000e-01 -6.845238e-01
 endloop
endfacet
facet normal 0.000000e+00 -0.000000e+00 1.000000e+00
 outer loop
  vertex 1.000000e+00 -7.500000e-01 -1.000000e+00
  vertex 1.000000e+00 -5.000000e-01 -1.000000e+00
  vertex 6.628788e-01 -6.628788e-01 -1.000000e+00
 endloop
endfacet
facet normal 0.000000e+00 -0.000000e+00 1.000000e+00
 outer loop
  vertex 1.000000e+00 -5.000000e-01 -1.000000e+00
  vertex 1.000000e+00 -2.500000e-01 -1.000000e+00
  vertex 6.926578e-01 -2.784691e-01 -1.000000e+00
 endloop
endfacet
facet normal -1.000000e+00 0.000000e+00 0.000000e+00
 outer loop
  vertex 1.000000e+00 -2.500000e-01 -1.000000e+00
  vertex 1.000000e+00 -5.000000e-01 -1.000000e+00
  vertex 1.000000e+00 -6.250000e-01 -6.845238e-01
 endloop
endfacet
facet normal 0.000000e+00 0.000000e+00 1.000000e+00
 outer loop
  vertex 6.926578e-01 -2.784691e-01 -1.000000e+00
  vertex 6.628788e-01 -6.628788e-01 -1.000000e+00
  vertex 1.000000e+00 -5.000000e-01 -1.000000e+00
 endloop
endfacet
facet normal 0.000000e+00 0.000000e+00 1.000000e+00
 outer loop
  vertex -7.500000e-01 -1.000000e+00 -1.000000e+00
  vertex -5.000000e-01 -1.000000e+00 -1.000000e+00
  vertex -6.845238e-01 -6.250000e-01 -1.000000e+00
 endloop
endfacet
facet normal 0.000000e+00 1.000000e+00 0.000000e+00
 outer loop
  vertex -5.000000e-01 -1.000000e+00 -1.000000e+00
  vertex -7.500000e-01 -1.000000e+00 -1.000000e+00
  vertex -6.845238e-01 -1.000000e+00 -6.250000e-01
 endloop
endfacet
facet normal 0.000000e+00 1.000000e+00 0.000000e+00
 outer loop
  vertex -2.500000e-01 -1.000000e+00 -1.000000e+00
  vertex -5.000000e-01 -1.000000e+00 -1.000000e+00
  vertex -4.166667e-01 -1.000000e+00 -4.166667e-01
 endloop
endfacet
facet normal 0.000000e+00 0.000000e+00 1.000000e+00
 outer loop
  vertex -5.000000e-01 -1.000000e+00 -1.000000e+00
  vertex -2.500000e-01 -1.000000e+00 -1.000000e+00
  vertex -2.784691e-01 -6.926578e-01 -1.000000e+00
 endloop
endfacet
facet normal 0.000000e+00 1.000000e+00 0.000000e+00
 outer loop
  vertex -4.166667e-01 -1.000000e+00 -4.166667e-01
  vertex -5.000000e-01 -1.000000e+00 -1.000000e+00
  vertex -6.845238e-01 -1.000000e+00 -6.250000e-01
 endloop
endfacet
facet normal 0.000000e+00 -0.000000e+00 1.000000e+00
 outer loop
  vertex -5.000000e-01 -1.000000e+00 -1.000000e+00
  vertex -2.784691e-01 -6.926578e-01 -1.000000e+00
  vertex -6.845238e-01 -6.250000e-01 -1.000000e+00
 endloop
endfacet
facet normal 0.000000e+00 0.000000e+00 -1.000000e+00
 outer loop
  vertex -5.000000e-01 -1.000000e+00 1.000000e+00
  vertex -7.500000e-01 -1.000000e+00 1.000000e+00
  vertex -4.402203e-01 -4.230499e-01 1.000000e+00
 endloop
endfacet
facet normal -0.000000e+00 1.000000e+00 0.000000e+00
 outer loop
  vertex -7.500000e-01 -1.000000e+00 1.000000e+00
  vertex -5.000000e-01 -1.000000e+00 1.000000e+00
  vertex -6.109265e-01 -1.000000e+00 6.865343e-01
 endloop
endfacet
facet normal 0.000000e+00 0.000000e+00 -1.000000e+00
 outer loop
  vertex -2.500000e-01 -1.000000e+00 1.000000e+00
  vertex -5.000000e-01 -1.000000e+00 1.000000e+00
  vertex -4.402203e-01 -4.230499e-01 1.000000e+00
 endloop
endfacet
facet normal -0.000000e+00 1.000000e+00 0.000000e+00
 outer loop
  vertex -5.000000e-01 -1.000000e+00 1.000000e+00
  vertex -2.500000e-01 -1.000000e+00 1.000000e+00
  vertex -2.784691e-01 -1.000000e+00 6.926578e-01
 endloop
endfacet
facet normal 0.000000e+00 1.000000e+00 0.000000e+00
 outer loop
  vertex -5.000000e-01 -1.000000e+00 1.000000e+00
  vertex -2.784691e-01 -1.000000e+00 6.926578e-01
  vertex -6.109265e-01 -1.000000e+00 6.865343e-01
 endloop
endfacet
facet normal 0.000000e+00 1.000000e+00 0.000000e+00
 outer loop
  vertex -1.000000e+00 -1.000000e+00 -7.500000e-01
  vertex -1.000000e+00 -1.000000e+00 -5.000000e-01
  vertex -6.845238e-01 -1.000000e+00 -6.250000e-01
 endloop
endfacet
facet normal 1.000000e+00 0.000000e+00 0.000000e+00
 outer loop
  vertex -1.000000e+00 -1.000000e+00 -5.000000e-01
  vertex -1.000000e+00 -1.000000e+00 -7.500000e-01
  vertex -1.000000e+00 -6.451418e-01 -6.250000e-01
 endloop
endfacet
facet normal -0.000000e+00 1.000000e+00 0.000000e+00
 outer loop
  vertex -1.000000e+00 -1.000000e+00 -5.000000e-01
  vertex -1.000000e+00 -1.000000e+00 -2.500000e-01
  vertex -6.845238e-01 -1.000000e+00 -6.250000e-01
 endloop
endfacet
facet normal 1.000000e+00 0.000000e+00 0.000000e+00
 outer loop
  vertex -1.000000e+00 -1.000000e+00 -2.500000e-01
  vertex -1.000000e+00 -1.000000e+00 -5.000000e-01
  vertex -1.000000e+00 -6.807584e-01 -3.098703e-01
 endloop
endfacet
facet normal 1.000000e+00 -0.000000e+00 0.000000e+00
 outer loop
  vertex -1.000000e+00 -1.000000e+00 -5.000000e-01
  vertex -1.000000e+00 -6.451418e-01 -6.250000e-01
  vertex -1.000000e+00 -6.807584e-01 -3.098703e-01
 endloop
endfacet
facet normal 0.000000e+00 -0.000000e+00 -1.000000e+00
 outer loop
  vertex 1.000000e+00 -5.000000e-01 1.000000e+00
  vertex 1.000000e+00 -7.500000e-01 1.000000e+00
  vertex 5.225319e-01 -5.225319e-01 1.000000e+00
 endloop
endfacet
facet normal -1.000000e+00 0.000000e+00 0.000000e+00
 outer loop
  vertex 1.000000e+00 -7.500000e-01 1.000000e+00
  vertex 1.000000e+00 -5.000000e-01 1.000000e+00
  vertex 1.000000e+00 -6.250000e-01 6.845238e-01
 endloop
endfacet
facet normal -0.000000e+00 -0.000000e+00 -1.000000e+00
 outer loop
  vertex 1.000000e+00 -2.500000e-01 1.000000e+00
  vertex 1.000000e+00 -5.000000e-01 1.000000e+00
  vertex 6.803485e-01 -2.445009e-01 1.000000e+00
 endloop
endfacet
facet normal -1.000000e+00 0.000000e+00 -0.000000e+00
 outer loop
  vertex 1.000000e+00 -5.000000e-01 1.000000e+00
  vertex 1.000000e+00 -2.500000e-01 1.000000e+00
  vertex 1.000000e+00 -6.250000e-01 6.845238e-01
 endloop
endfacet
facet normal -0.000000e+00 0.000000e+00 -1.000000e+00
 outer loop
  vertex 1.000000e+00 -5.000000e-01 1.000000e+00
  vertex 5.225319e-01 -5.225319e-01 1.000000e+00
  vertex 6.803485e-01 -2.445009e-01 1.000000e+00
 endloop
endfacet
facet normal 0.000000e+00 1.000000e+00 0.000000e+00
 outer loop
  vertex 1.000000e+00 -1.000000e+00 -5.000000e-01
  vertex 1.000000e+00 -1.000000e+00 -7.500000e-01
  vertex 6.628788e-01 -1.000000e+00 -6.628788e-01
 endloop
endfacet
facet normal -1.000000e+00 0.000000e+00 0.000000e+00
 outer loop
  vertex 1.000000e+00 -1.000000e+00 -7.500000e-01
  vertex 1.000000e+00 -1.000000e+00 -5.000000e-01
  vertex 1.000000e+00 -6.250000e-01 -6.845238e-01
 endloop
endfacet
facet normal -1.000000e+00 0.000000e+00 0.000000e+00
 outer loop
  vertex 1.000000e+00 -1.000000e+00 -5.000000e-01
  vertex 1.000000e+00 -1.000000e+00 -2.500000e-01
  vertex 1.000000e+00 -4.166667e-01 -4.166667e-01
 endloop
endfacet
facet normal 0.000000e+00 1.000000e+00 0.000000e+00
 outer loop
  vertex 1.000000e+00 -1.000000e+00 -2.500000e-01
  vertex 1.000000e+00 -1.000000e+00 -5.000000e-01
  vertex 6.926578e-01 -1.000000e+00 -2.784691e-01
 endloop
endfacet
facet normal -1.000000e+00 0.000000e+00 0.000000e+00
 outer loop
  vertex 1.000000e+00 -1.000000e+00 -5.000000e-01
  vertex 1.000000e+00 -4.166667e-01 -4.166667e-01
  vertex 1.000000e+00 -6.250000e-01 -6.845238e-01
 endloop
endfacet
facet normal 0.000000e+00 1.000000e+00 0.000000e+00
 outer loop
  vertex 1.000000e+00 -1.000000e+00 -5.000000e-01
  vertex 6.628788e-01 -1.000000e+00 -6.628788e-01
  vertex 6.926578e-01 -1.000000e+00 -2.784691e-01
 endloop
endfacet
facet normal 0.000000e+00 -1.000000e+00 0.000000e+00
 outer loop
  vertex 1.000000e+00 1.000000e+00 5.000000e-01
  vertex 1.000000e+00 1.000000e+00 7.500000e-01
  vertex 6.450020e-01 1.000000e+00 6.240109e-01
 endloop
endfacet
facet normal -1.000000e+00 0.000000e+00 -0.000000e+00
 outer loop
  vertex 1.000000e+00 1.000000e+00 7.500000e-01
  vertex 1.000000e+00 1.000000e+00 5.000000e-01
  vertex 1.000000e+00 6.084020e-01 6.868950e-01
 endloop
endfacet
facet normal -0.000000e+00 -1.000000e+00 0.000000e+00
 outer loop
  vertex 1.000000e+00 1.000000e+00 2.500000e-01
  vertex 1.000000e+00 1.000000e+00 5.000000e-01
  vertex 6.499429e-01 1.000000e+00 1.250000e-01
 endloop
endfacet
facet normal -1.000000e+00 0.000000e+00 -0.000000e+00
 outer loop
  vertex 1.000000e+00 1.000000e+00 5.000000e-01
  vertex 1.000000e+00 1.000000e+00 2.500000e-01
  vertex 1.000000e+00 7.202381e-01 3.750000e-01
 endloop
endfacet
facet normal 0.000000e+00 -1.000000e+00 0.000000e+00
 outer loop
  vertex 6.499429e-01 1.000000e+00 1.250000e-01
  vertex 1.000000e+00 1.000000e+00 5.000000e-01
  vertex 6.450020e-01 1.000000e+00 6.240109e-01
 endloop
endfacet
facet normal -1.000000e+00 -0.000000e+00 0.000000e+00
 outer loop
  vertex 1.000000e+00 1.000000e+00 5.000000e-01
  vertex 1.000000e+00 7.202381e-01 3.750000e-01
  vertex 1.000000e+00 6.084020e-01 6.868950e-01
 endloop
endfacet
facet normal 1.000000e+00 0.000000e+00 0.000000e+00
 outer loop
  vertex -1.000000e+00 5.000000e-01 -1.000000e+00
  vertex -1.000000e+00 7.500000e-01 -1.000000e+00
  vertex -1.000000e+00 5.744462e-01 -5.809804e-01
 endloop
endfacet
facet normal 0.000000e+00 0.000000e+00 1.000000e+00
 outer loop
  vertex -1.000000e+00 7.500000e-01 -1.000000e+00
  vertex -1.000000e+00 5.000000e-01 -1.000000e+00
  vertex -6.250000e-01 6.845238e-01 -1.000000e+00
 endloop
endfacet
facet normal 0.000000e+00 0.000000e+00 1.000000e+00
 outer loop
  vertex -1.000000e+00 5.000000e-01 -1.000000e+00
  vertex -1.000000e+00 2.500000e-01 -1.000000e+00
  vertex -4.166667e-01 4.166667e-01 -1.000000e+00
 endloop
endfacet
facet normal 1.000000e+00 0.000000e+00 0.000000e+00
 outer loop
  vertex -1.000000e+00 2.500000e-01 -1.000000e+00
  vertex -1.000000e+00 5.000000e-01 -1.000000e+00
  vertex -1.000000e+00 3.135990e-01 -7.141257e-01
 endloop
endfacet
facet normal -0.000000e+00 0.000000e+00 1.000000e+00
 outer loop
  vertex -1.000000e+00 5.000000e-01 -1.000000e+00
  vertex -4.166667e-01 4.166667e-01 -1.000000e+00
  vertex -6.250000e-01 6.845238e-01 -1.000000e+00
 endloop
endfacet
facet normal 1.000000e+00 0.000000e+00 -0.000000e+00
 outer loop
  vertex -1.000000e+00 5.000000e-01 -1.000000e+00
  vertex -1.000000e+00 5.744462e-01 -5.809804e-01
  vertex -1.000000e+00 3.135990e-01 -7.141257e-01
 endloop
endfacet
facet normal 0.000000e+00 -1.000000e+00 0.000000e+00
 outer loop
  vertex 5.000000e-01 1.000000e+00 -1.000000e+00
  vertex 7.500000e-01 1.000000e+00 -1.000000e+00
  vertex 5.443039e-01 1.000000e+00 -5.443039e-01
 endloop
endfacet
facet normal 0.000000e+00 0.000000e+00 1.000000e+00
 outer loop
  vertex 7.500000e-01 1.000000e+00 -1.000000e+00
  vertex 5.000000e-01 1.000000e+00 -1.000000e+00
  vertex 6.250000e-01 6.845238e-01 -1.000000e+00
 endloop
endfacet
facet normal 0.000000e+00 -1.000000e+00 0.000000e+00
 outer loop
  vertex 2.500000e-01 1.000000e+00 -1.000000e+00
  vertex 5.000000e-01 1.000000e+00 -1.000000e+00
  vertex 5.443039e-01 1.000000e+00 -5.443039e-01
 endloop
endfacet
facet normal 0.000000e+00 0.000000e+00 1.000000e+00
 outer loop
  vertex 5.000000e-01 1.000000e+00 -1.000000e+00
  vertex 2.500000e-01 1.000000e+00 -1.000000e+00
  vertex 6.250000e-01 6.845238e-01 -1.000000e+00
 endloop
endfacet
facet normal 0.000000e+00 -1.000000e+00 0.000000e+00
 outer loop
  vertex -4.130769e-02 4.578195e-01 -1.716909e-01
  vertex 2.782564e-01 4.578195e-01 1.212318e-01
  vertex -2.010897e-01 4.578195e-01 1.373835e-01
 endloop
endfacet
facet normal 0.000000e+00 -1.000000e+00 0.000000e+00
 outer loop
  vertex -1.000000e+00 4.578195e-01 1.212318e-01
  vertex -6.804359e-01 4.578195e-01 -1.716909e-01
  vertex -4.119335e-01 4.578195e-01 4.141545e-01
 endloop
endfacet
facet normal 1.000000e+00 0.000000e+00 0.000000e+00
 outer loop
  vertex -1.000000e+00 4.578195e-01 1.212318e-01
  vertex -1.000000e+00 1.704089e-01 2.729703e-01
  vertex -1.000000e+00 5.372724e-02 -2.522957e-02
 endloop
endfacet
facet normal 1.000000e+00 0.000000e+00 0.000000e+00
 outer loop
  vertex -1.000000e+00 4.578195e-01 7.070773e-01
  vertex -1.000000e+00 9.336460e-02 1.000000e+00
  vertex -1.000000e+00 4.618236e-02 5.681068e-01
 endloop
endfacet
facet normal 0.000000e+00 0.000000e+00 -1.000000e+00
 outer loop
  vertex -1.000000e+00 9.336460e-02 1.000000e+00
  vertex -6.804359e-01 4.578195e-01 1.000000e+00
  vertex -2.584510e-01 4.584918e-03 1.000000e+00
 endloop
endfacet
facet normal 0.000000e+00 0.000000e+00 -1.000000e+00
 outer loop
  vertex -4.402203e-01 -4.230499e-01 1.000000e+00
  vertex -1.000000e+00 9.336460e-02 1.000000e+00
  vertex -2.584510e-01 4.584918e-03 1.000000e+00
 endloop
endfacet
facet normal -0.000000e+00 -1.000000e+00 0.000000e+00
 outer loop
  vertex 2.782564e-01 4.578195e-01 7.070773e-01
  vertex -4.130769e-02 4.578195e-01 1.000000e+00
  vertex -6.683854e-02 4.578195e-01 5.606159e-01
 endloop
endfacet
facet normal 0.000000e+00 -0.000000e+00 -1.000000e+00
 outer loop
  vertex -4.130769e-02 4.578195e-01 1.000000e+00
  vertex 1.184744e-01 -2.671480e-01 1.000000e+00
  vertex -2.584510e-01 4.584918e-03 1.000000e+00
 endloop
endfacet
facet normal -1.000000e+00 0.000000e+00 0.000000e+00
 outer loop
  vertex 1.000000e+00 -7.500000e-01 -1.000000e+00
  vertex 1.000000e+00 -1.000000e+00 -7.500000e-01
  vertex 1.000000e+00 -6.250000e-01 -6.845238e-01
 endloop
endfacet
facet normal 0.000000e+00 -0.000000e+00 1.000000e+00
 outer loop
  vertex 7.500000e-01 -1.000000e+00 -1.000000e+00
  vertex 1.000000e+00 -7.500000e-01 -1.000000e+00
  vertex 6.628788e-01 -6.628788e-01 -1.000000e+00
 endloop
endfacet
facet normal 0.000000e+00 1.000000e+00 -0.000000e+00
 outer loop
  vertex -7.500000e-01 -1.000000e+00 -1.000000e+00
  vertex -1.000000e+00 -1.000000e+00 -7.500000e-01
  vertex -6.845238e-01 -1.000000e+00 -6.250000e-01
 endloop
endfacet
facet normal 0.000000e+00 -0.000000e+00 1.000000e+00
 outer loop
  vertex -7.500000e-01 -1.000000e+00 -1.000000e+00
  vertex -6.845238e-01 -6.250000e-01 -1.000000e+00
  vertex -1.000000e+00 -7.500000e-01 -1.000000e+00
 endloop
endfacet
facet normal 0.000000e+00 0.000000e+00 -1.000000e+00
 outer loop
  vertex -7.500000e-01 -1.000000e+00 1.000000e+00
  vertex -1.000000e+00 -6.355451e-01 1.000000e+00
  vertex -4.402203e-01 -4.230499e-01 1.000000e+00
 endloop
endfacet
facet normal 0.000000e+00 1.000000e+00 0.000000e+00
 outer loop
  vertex -7.500000e-01 -1.000000e+00 1.000000e+00
  vertex -6.109265e-01 -1.000000e+00 6.865343e-01
  vertex -1.000000e+00 -1.000000e+00 7.500000e-01
 endloop
endfacet
facet normal 1.000000e+00 -0.000000e+00 0.000000e+00
 outer loop
  vertex -1.000000e+00 -1.000000e+00 -7.500000e-01
  vertex -1.000000e+00 -7.500000e-01 -1.000000e+00
  vertex -1.000000e+00 -6.451418e-01 -6.250000e-01
 endloop
endfacet
facet normal -0.000000e+00 0.000000e+00 -1.000000e+00
 outer loop
  vertex 1.000000e+00 -7.500000e-01 1.000000e+00
  vertex 7.500000e-01 -1.000000e+00 1.000000e+00
  vertex 5.225319e-01 -5.225319e-01 1.000000e+00
 endloop
endfacet
facet normal -1.000000e+00 0.000000e+00 0.000000e+00
 outer loop
  vertex 1.000000e+00 -1.000000e+00 7.500000e-01
  vertex 1.000000e+00 -7.500000e-01 1.000000e+00
  vertex 1.000000e+00 -6.250000e-01 6.845238e-01
 endloop
endfacet
facet normal 0.000000e+00 1.000000e+00 0.000000e+00
 outer loop
  vertex 1.000000e+00 -1.000000e+00 -7.500000e-01
  vertex 7.500000e-01 -1.000000e+00 -1.000000e+00
  vertex 6.628788e-01 -1.000000e+00 -6.628788e-01
 endloop
endfacet
facet normal -1.000000e+00 0.000000e+00 -0.000000e+00
 outer loop
  vertex 1.000000e+00 7.500000e-01 1.000000e+00
  vertex 1.000000e+00 1.000000e+00 7.500000e-01
  vertex 1.000000e+00 6.084020e-01 6.868950e-01
 endloop
endfacet
facet normal -0.000000e+00 0.000000e+00 1.000000e+00
 outer loop
  vertex -1.000000e+00 7.500000e-01 -1.000000e+00
  vertex -6.250000e-01 6.845238e-01 -1.000000e+00
  vertex -7.500000e-01 1.000000e+00 -1.000000e+00
 endloop
endfacet
facet normal 0.000000e+00 0.000000e+00 1.000000e+00
 outer loop
  vertex 1.000000e+00 7.500000e-01 -1.000000e+00
  vertex 7.500000e-01 1.000000e+00 -1.000000e+00
  vertex 6.250000e-01 6.845238e-01 -1.000000e+00
 endloop
endfacet
facet normal 0.000000e+00 -1.000000e+00 0.000000e+00
 outer loop
  vertex 7.500000e-01 1.000000e+00 -1.000000e+00
  vertex 1.000000e+00 1.000000e+00 -7.500000e-01
  vertex 5.443039e-01 1.000000e+00 -5.443039e-01
 endloop
endfacet
facet normal -1.000000e+00 0.000000e+00 0.000000e+00
 outer loop
  vertex 1.000000e+00 5.000000e-01 -1.000000e+00
  vertex 1.000000e+00 2.500000e-01 -1.000000e+00
  vertex 1.000000e+00 6.250000e-01 -6.845238e-01
 endloop
endfacet
facet normal 0.000000e+00 -0.000000e+00 1.000000e+00
 outer loop
  vertex 1.000000e+00 2.500000e-01 -1.000000e+00
  vertex 1.000000e+00 5.000000e-01 -1.000000e+00
  vertex 6.926578e-01 2.784691e-01 -1.000000e+00
 endloop
endfacet
facet normal -1.000000e+00 0.000000e+00 0.000000e+00
 outer loop
  vertex 1.000000e+00 7.500000e-01 -1.000000e+00
  vertex 1.000000e+00 5.000000e-01 -1.000000e+00
  vertex 1.000000e+00 6.250000e-01 -6.845238e-01
 endloop
endfacet
facet normal 0.000000e+00 -0.000000e+00 1.000000e+00
 outer loop
  vertex 1.000000e+00 5.000000e-01 -1.000000e+00
  vertex 1.000000e+00 7.500000e-01 -1.000000e+00
  vertex 6.250000e-01 6.845238e-01 -1.000000e+00
 endloop
endfacet
facet normal 0.000000e+00 0.000000e+00 1.000000e+00
 outer loop
  vertex 1.000000e+00 5.000000e-01 -1.000000e+00
  vertex 6.250000e-01 6.845238e-01 -1.000000e+00
  vertex 6.926578e-01 2.784691e-01 -1.000000e+00
 endloop
endfacet
facet normal 0.000000e+00 1.000000e+00 0.000000e+00
 outer loop
  vertex 5.000000e-01 -1.000000e+00 -1.000000e+00
  vertex 2.500000e-01 -1.000000e+00 -1.000000e+00
  vertex 2.784691e-01 -1.000000e+00 -6.926578e-01
 endloop
endfacet
facet normal 0.000000e+00 0.000000e+00 1.000000e+00
 outer loop
  vertex 2.500000e-01 -1.000000e+00 -1.000000e+00
  vertex 5.000000e-01 -1.000000e+00 -1.000000e+00
  vertex 6.628788e-01 -6.628788e-01 -1.000000e+00
 endloop
endfacet
facet normal 0.000000e+00 1.000000e+00 0.000000e+00
 outer loop
  vertex 7.500000e-01 -1.000000e+00 -1.000000e+00
  vertex 5.000000e-01 -1.000000e+00 -1.000000e+00
  vertex 6.628788e-01 -1.000000e+00 -6.628788e-01
 endloop
endfacet
facet normal 0.000000e+00 0.000000e+00 1.000000e+00
 outer loop
  vertex 5.000000e-01 -1.000000e+00 -1.000000e+00
  vertex 7.500000e-01 -1.000000e+00 -1.000000e+00
  vertex 6.628788e-01 -6.628788e-01 -1.000000e+00
 endloop
endfacet
facet normal 0.000000e+00 1.000000e+00 0.000000e+00
 outer loop
  vertex 6.628788e-01 -1.000000e+00 -6.628788e-01
  vertex 5.000000e-01 -1.000000e+00 -1.000000e+00
  vertex 2.784691e-01 -1.000000e+00 -6.926578e-01
 endloop
endfacet
facet normal -0.000000e+00 1.000000e+00 0.000000e+00
 outer loop
  vertex 2.500000e-01 -1.000000e+00 1.000000e+00
  vertex 5.000000e-01 -1.000000e+00 1.000000e+00
  vertex 2.784691e-01 -1.000000e+00 6.926578e-01
 endloop
endfacet
facet normal 0.000000e+00 0.000000e+00 -1.000000e+00
 outer loop
  vertex 5.000000e-01 -1.000000e+00 1.000000e+00
  vertex 2.500000e-01 -1.000000e+00 1.000000e+00
  vertex 1.250000e-01 -6.442054e-01 1.000000e+00
 endloop
endfacet
facet normal 0.000000e+00 0.000000e+00 -1.000000e+00
 outer loop
  vertex 7.500000e-01 -1.000000e+00 1.000000e+00
  vertex 5.000000e-01 -1.000000e+00 1.000000e+00
  vertex 5.225319e-01 -5.225319e-01 1.000000e+00
 endloop
endfacet
facet normal -0.000000e+00 1.000000e+00 0.000000e+00
 outer loop
  vertex 5.000000e-01 -1.000000e+00 1.000000e+00
  vertex 7.500000e-01 -1.000000e+00 1.000000e+00
  vertex 6.845238e-01 -1.000000e+00 6.250000e-01
 endloop
endfacet
facet normal 0.000000e+00 0.000000e+00 -1.000000e+00
 outer loop
  vertex 5.225319e-01 -5.225319e-01 1.000000e+00
  vertex 5.000000e-01 -1.000000e+00 1.000000e+00
  vertex 1.250000e-01 -6.442054e-01 1.000000e+00
 endloop
endfacet
facet normal 0.000000e+00 1.000000e+00 0.000000e+00
 outer loop
  vertex 5.000000e-01 -1.000000e+00 1.000000e+00
  vertex 6.845238e-01 -1.000000e+00 6.250000e-01
  vertex 2.784691e-01 -1.000000e+00 6.926578e-01
 endloop
endfacet
facet normal 0.000000e+00 1.000000e+00 0.000000e+00
 outer loop
  vertex -1.000000e+00 -1.000000e+00 2.500000e-01
  vertex -1.000000e+00 -1.000000e+00 5.000000e-01
  vertex -4.166667e-01 -1.000000e+00 4.166667e-01
 endloop
endfacet
facet normal 1.000000e+00 0.000000e+00 0.000000e+00
 outer loop
  vertex -1.000000e+00 -1.000000e+00 5.000000e-01
  vertex -1.000000e+00 -1.000000e+00 2.500000e-01
  vertex -1.000000e+00 -6.905047e-01 2.829352e-01
 endloop
endfacet
facet normal 1.000000e+00 0.000000e+00 0.000000e+00
 outer loop
  vertex -1.000000e+00 -1.000000e+00 7.500000e-01
  vertex -1.000000e+00 -1.000000e+00 5.000000e-01
  vertex -1.000000e+00 -5.716238e-01 5.705798e-01
 endloop
endfacet
facet normal 0.000000e+00 1.000000e+00 0.000000e+00
 outer loop
  vertex -1.000000e+00 -1.000000e+00 5.000000e-01
  vertex -1.000000e+00 -1.000000e+00 7.500000e-01
  vertex -6.109265e-01 -1.000000e+00 6.865343e-01
 endloop
endfacet
facet normal 0.000000e+00 1.000000e+00 0.000000e+00
 outer loop
  vertex -4.166667e-01 -1.000000e+00 4.166667e-01
  vertex -1.000000e+00 -1.000000e+00 5.000000e-01
  vertex -6.109265e-01 -1.000000e+00 6.865343e-01
 endloop
endfacet
facet normal 1.000000e+00 0.000000e+00 0.000000e+00
 outer loop
  vertex -1.000000e+00 -5.716238e-01 5.705798e-01
  vertex -1.000000e+00 -1.000000e+00 5.000000e-01
  vertex -1.000000e+00 -6.905047e-01 2.829352e-01
 endloop
endfacet
facet normal -0.000000e+00 -0.000000e+00 -1.000000e+00
 outer loop
  vertex 1.000000e+00 5.000000e-01 1.000000e+00
  vertex 1.000000e+00 2.500000e-01 1.000000e+00
  vertex 6.463724e-01 6.250000e-01 1.000000e+00
 endloop
endfacet
facet normal -1.000000e+00 0.000000e+00 0.000000e+00
 outer loop
  vertex 1.000000e+00 2.500000e-01 1.000000e+00
  vertex 1.000000e+00 5.000000e-01 1.000000e+00
  vertex 1.000000e+00 6.084020e-01 6.868950e-01
 endloop
endfacet
facet normal 0.000000e+00 -0.000000e+00 -1.000000e+00
 outer loop
  vertex 1.000000e+00 7.500000e-01 1.000000e+00
  vertex 1.000000e+00 5.000000e-01 1.000000e+00
  vertex 6.463724e-01 6.250000e-01 1.000000e+00
 endloop
endfacet
facet normal -1.000000e+00 0.000000e+00 0.000000e+00
 outer loop
  vertex 1.000000e+00 5.000000e-01 1.000000e+00
  vertex 1.000000e+00 7.500000e-01 1.000000e+00
  vertex 1.000000e+00 6.084020e-01 6.868950e-01
 endloop
endfacet
facet normal -1.000000e+00 0.000000e+00 0.000000e+00
 outer loop
  vertex 1.000000e+00 -1.000000e+00 2.500000e-01
  vertex 1.000000e+00 -1.000000e+00 5.000000e-01
  vertex 1.000000e+00 -4.166667e-01 4.166667e-01
 endloop
endfacet
facet normal 0.000000e+00 1.000000e+00 0.000000e+00
 outer loop
  vertex 1.000000e+00 -1.000000e+00 5.000000e-01
  vertex 1.000000e+00 -1.000000e+00 2.500000e-01
  vertex 6.926578e-01 -1.000000e+00 2.784691e-01
 endloop
endfacet
facet normal 0.000000e+00 1.000000e+00 0.000000e+00
 outer loop
  vertex 1.000000e+00 -1.000000e+00 7.500000e-01
  vertex 1.000000e+00 -1.000000e+00 5.000000e-01
  vertex 6.845238e-01 -1.000000e+00 6.250000e-01
 endloop
endfacet
facet normal -1.000000e+00 0.000000e+00 0.000000e+00
 outer loop
  vertex 1.000000e+00 -1.000000e+00 5.000000e-01
  vertex 1.000000e+00 -1.000000e+00 7.500000e-01
  vertex 1.000000e+00 -6.250000e-01 6.845238e-01
 endloop
endfacet
facet normal -1.000000e+00 0.000000e+00 0.000000e+00
 outer loop
  vertex 1.000000e+00 -4.166667e-01 4.166667e-01
  vertex 1.000000e+00 -1.000000e+00 5.000000e-01
  vertex 1.000000e+00 -6.250000e-01 6.845238e-01
 endloop
endfacet
facet normal 0.000000e+00 1.000000e+00 0.000000e+00
 outer loop
  vertex 6.845238e-01 -1.000000e+00 6.250000e-01
  vertex 1.000000e+00 -1.000000e+00 5.000000e-01
  vertex 6.926578e-01 -1.000000e+00 2.784691e-01
 endloop
endfacet
facet normal -1.000000e+00 0.000000e+00 -0.000000e+00
 outer loop
  vertex 1.000000e+00 1.000000e+00 -2.500000e-01
  vertex 1.000000e+00 1.000000e+00 -5.000000e-01
  vertex 1.000000e+00 4.166667e-01 -4.166667e-01
 endloop
endfacet
facet normal -0.000000e+00 -1.000000e+00 0.000000e+00
 outer loop
  vertex 1.000000e+00 1.000000e+00 -5.000000e-01
  vertex 1.000000e+00 1.000000e+00 -2.500000e-01
  vertex 5.443039e-01 1.000000e+00 -5.443039e-01
 endloop
endfacet
facet normal 0.000000e+00 -1.000000e+00 0.000000e+00
 outer loop
  vertex 1.000000e+00 1.000000e+00 -7.500000e-01
  vertex 1.000000e+00 1.000000e+00 -5.000000e-01
  vertex 5.443039e-01 1.000000e+00 -5.443039e-01
 endloop
endfacet
facet normal -1.000000e+00 0.000000e+00 -0.000000e+00
 outer loop
  vertex 1.000000e+00 1.000000e+00 -5.000000e-01
  vertex 1.000000e+00 1.000000e+00 -7.500000e-01
  vertex 1.000000e+00 6.250000e-01 -6.845238e-01
 endloop
endfacet
facet normal -1.000000e+00 0.000000e+00 0.000000e+00
 outer loop
  vertex 1.000000e+00 4.166667e-01 -4.166667e-01
  vertex 1.000000e+00 1.000000e+00 -5.000000e-01
  vertex 1.000000e+00 6.250000e-01 -6.845238e-01
 endloop
endfacet
facet normal 0.000000e+00 0.000000e+00 1.000000e+00
 outer loop
  vertex -1.000000e+00 -5.000000e-01 -1.000000e+00
  vertex -1.000000e+00 -7.500000e-01 -1.000000e+00
  vertex -6.845238e-01 -6.250000e-01 -1.000000e+00
 endloop
endfacet
facet normal 1.000000e+00 0.000000e+00 0.000000e+00
 outer loop
  vertex -1.000000e+00 -7.500000e-01 -1.000000e+00
  vertex -1.000000e+00 -5.000000e-01 -1.000000e+00
  vertex -1.000000e+00 -6.451418e-01 -6.250000e-01
 endloop
endfacet
facet normal 0.000000e+00 0.000000e+00 1.000000e+00
 outer loop
  vertex -1.000000e+00 -2.500000e-01 -1.000000e+00
  vertex -1.000000e+00 -5.000000e-01 -1.000000e+00
  vertex -6.845238e-01 -6.250000e-01 -1.000000e+00
 endloop
endfacet
facet normal 1.000000e+00 0.000000e+00 0.000000e+00
 outer loop
  vertex -1.000000e+00 -5.000000e-01 -1.000000e+00
  vertex -1.000000e+00 -2.500000e-01 -1.000000e+00
  vertex -1.000000e+00 -2.119478e-01 -6.661529e-01
 endloop
endfacet
facet normal 1.000000e+00 0.000000e+00 -0.000000e+00
 outer loop
  vertex -1.000000e+00 -5.000000e-01 -1.000000e+00
  vertex -1.000000e+00 -2.119478e-01 -6.661529e-01
  vertex -1.000000e+00 -6.451418e-01 -6.250000e-01
 endloop
endfacet
facet normal 0.000000e+00 -1.000000e+00 0.000000e+00
 outer loop
  vertex -7.500000e-01 1.000000e+00 -1.000000e+00
  vertex -5.000000e-01 1.000000e+00 -1.000000e+00
  vertex -5.206538e-01 1.000000e+00 -5.706919e-01
 endloop
endfacet
facet normal 0.000000e+00 0.000000e+00 1.000000e+00
 outer loop
  vertex -5.000000e-01 1.000000e+00 -1.000000e+00
  vertex -7.500000e-01 1.000000e+00 -1.000000e+00
  vertex -6.250000e-01 6.845238e-01 -1.000000e+00
 endloop
endfacet
facet normal 0.000000e+00 0.000000e+00 1.000000e+00
 outer loop
  vertex -2.500000e-01 1.000000e+00 -1.000000e+00
  vertex -5.000000e-01 1.000000e+00 -1.000000e+00
  vertex -6.250000e-01 6.845238e-01 -1.000000e+00
 endloop
endfacet
facet normal 0.000000e+00 -1.000000e+00 0.000000e+00
 outer loop
  vertex -5.000000e-01 1.000000e+00 -1.000000e+00
  vertex -2.500000e-01 1.000000e+00 -1.000000e+00
  vertex -1.250000e-01 1.000000e+00 -7.421974e-01
 endloop
endfacet
facet normal 0.000000e+00 -1.000000e+00 0.000000e+00
 outer loop
  vertex -5.206538e-01 1.000000e+00 -5.706919e-01
  vertex -5.000000e-01 1.000000e+00 -1.000000e+00
  vertex -1.250000e-01 1.000000e+00 -7.421974e-01
 endloop
endfacet
facet normal 0.000000e+00 -1.000000e+00 -0.000000e+00
 outer loop
  vertex -6.804359e-01 4.578195e-01 1.000000e+00
  vertex -1.000000e+00 4.578195e-01 7.070773e-01
  vertex -4.119335e-01 4.578195e-01 4.141545e-01
 endloop
endfacet
facet normal 0.000000e+00 -1.000000e+00 -0.000000e+00
 outer loop
  vertex -4.119335e-01 4.578195e-01 4.141545e-01
  vertex -6.804359e-01 4.578195e-01 -1.716909e-01
  vertex -2.010897e-01 4.578195e-01 1.373835e-01
 endloop
endfacet
facet normal -0.000000e+00 -1.000000e+00 0.000000e+00
 outer loop
  vertex 1.106907e-01 1.000000e+00 -5.792953e-01
  vertex -4.130769e-02 1.000000e+00 -1.716909e-01
  vertex -1.250000e-01 1.000000e+00 -7.421974e-01
 endloop
endfacet
facet normal 1.000000e+00 0.000000e+00 0.000000e+00
 outer loop
  vertex -1.000000e+00 -6.355451e-01 1.000000e+00
  vertex -1.000000e+00 -1.000000e+00 7.500000e-01
  vertex -1.000000e+00 -5.716238e-01 5.705798e-01
 endloop
endfacet
facet normal -1.000000e+00 0.000000e+00 0.000000e+00
 outer loop
  vertex 1.000000e+00 -2.500000e-01 -1.000000e+00
  vertex 1.000000e+00 -4.166667e-01 -4.166667e-01
  vertex 1.000000e+00 1.332268e-16 -5.595238e-01
 endloop
endfacet
facet normal -1.000000e+00 0.000000e+00 -0.000000e+00
 outer loop
  vertex 1.000000e+00 -4.166667e-01 -4.166667e-01
  vertex 1.000000e+00 -2.500000e-01 -1.000000e+00
  vertex 1.000000e+00 -6.250000e-01 -6.845238e-01
 endloop
endfacet
facet normal 0.000000e+00 1.000000e+00 -0.000000e+00
 outer loop
  vertex -2.500000e-01 -1.000000e+00 -1.000000e+00
  vertex -4.166667e-01 -1.000000e+00 -4.166667e-01
  vertex 0.000000e+00 -1.000000e+00 -5.595238e-01
 endloop
endfacet
facet normal 0.000000e+00 0.000000e+00 -1.000000e+00
 outer loop
  vertex -2.500000e-01 -1.000000e+00 1.000000e+00
  vertex -4.402203e-01 -4.230499e-01 1.000000e+00
  vertex 1.250000e-01 -6.442054e-01 1.000000e+00
 endloop
endfacet
facet normal 0.000000e+00 1.000000e+00 0.000000e+00
 outer loop
  vertex -4.166667e-01 -1.000000e+00 -4.166667e-01
  vertex -1.000000e+00 -1.000000e+00 -2.500000e-01
  vertex -5.595238e-01 -1.000000e+00 0.000000e+00
 endloop
endfacet
facet normal 0.000000e+00 1.000000e+00 0.000000e+00
 outer loop
  vertex -1.000000e+00 -1.000000e+00 -2.500000e-01
  vertex -4.166667e-01 -1.000000e+00 -4.166667e-01
  vertex -6.845238e-01 -1.000000e+00 -6.250000e-01
 endloop
endfacet
facet normal -1.000000e+00 0.000000e+00 0.000000e+00
 outer loop
  vertex 1.000000e+00 -4.166667e-01 4.166667e-01
  vertex 1.000000e+00 -2.500000e-01 1.000000e+00
  vertex 1.000000e+00 -1.332268e-16 5.595238e-01
 endloop
endfacet
facet normal -1.000000e+00 0.000000e+00 0.000000e+00
 outer loop
  vertex 1.000000e+00 -2.500000e-01 1.000000e+00
  vertex 1.000000e+00 -4.166667e-01 4.166667e-01
  vertex 1.000000e+00 -6.250000e-01 6.845238e-01
 endloop
endfacet
facet normal -1.000000e+00 0.000000e+00 0.000000e+00
 outer loop
  vertex 1.000000e+00 -4.166667e-01 -4.166667e-01
  vertex 1.000000e+00 -1.000000e+00 -2.500000e-01
  vertex 1.000000e+00 -5.595238e-01 0.000000e+00
 endloop
endfacet
facet normal -1.000000e+00 -0.000000e+00 0.000000e+00
 outer loop
  vertex 1.000000e+00 1.000000e+00 2.500000e-01
  vertex 1.000000e+00 5.595238e-01 0.000000e+00
  vertex 1.000000e+00 7.202381e-01 3.750000e-01
 endloop
endfacet
facet normal 0.000000e+00 0.000000e+00 1.000000e+00
 outer loop
  vertex -4.166667e-01 4.166667e-01 -1.000000e+00
  vertex -1.000000e+00 2.500000e-01 -1.000000e+00
  vertex -5.595238e-01 0.000000e+00 -1.000000e+00
 endloop
endfacet
facet normal 0.000000e+00 0.000000e+00 1.000000e+00
 outer loop
  vertex 4.166667e-01 4.166667e-01 -1.000000e+00
  vertex 2.500000e-01 1.000000e+00 -1.000000e+00
  vertex 1.332268e-16 5.595238e-01 -1.000000e+00
 endloop
endfacet
facet normal 0.000000e+00 0.000000e+00 1.000000e+00
 outer loop
  vertex 2.500000e-01 1.000000e+00 -1.000000e+00
  vertex 4.166667e-01 4.166667e-01 -1.000000e+00
  vertex 6.250000e-01 6.845238e-01 -1.000000e+00
 endloop
endfacet
facet normal 0.000000e+00 -1.000000e+00 0.000000e+00
 outer loop
  vertex 2.500000e-01 1.000000e+00 -1.000000e+00
  vertex 5.443039e-01 1.000000e+00 -5.443039e-01
  vertex 1.106907e-01 1.000000e+00 -5.792953e-01
 endloop
endfacet
facet normal -1.000000e+00 0.000000e+00 0.000000e+00
 outer loop
  vertex 1.000000e+00 -1.000000e+00 2.500000e-01
  vertex 1.000000e+00 -4.166667e-01 4.166667e-01
  vertex 1.000000e+00 -5.595238e-01 0.000000e+00
 endloop
endfacet
facet normal -1.000000e+00 0.000000e+00 -0.000000e+00
 outer loop
  vertex 1.000000e+00 2.500000e-01 1.000000e+00
  vertex 1.000000e+00 4.166667e-01 4.166667e-01
  vertex 1.000000e+00 -1.332268e-16 5.595238e-01
 endloop
endfacet
facet normal -1.000000e+00 0.000000e+00 0.000000e+00
 outer loop
  vertex 1.000000e+00 2.500000e-01 1.000000e+00
  vertex 1.000000e+00 6.084020e-01 6.868950e-01
  vertex 1.000000e+00 4.166667e-01 4.166667e-01
 endloop
endfacet
facet normal -0.000000e+00 0.000000e+00 -1.000000e+00
 outer loop
  vertex 1.000000e+00 2.500000e-01 1.000000e+00
  vertex 5.107291e-01 2.649108e-02 1.000000e+00
  vertex 6.463724e-01 6.250000e-01 1.000000e+00
 endloop
endfacet
facet normal -0.000000e+00 1.000000e+00 0.000000e+00
 outer loop
  vertex -1.000000e+00 -1.000000e+00 2.500000e-01
  vertex -4.166667e-01 -1.000000e+00 4.166667e-01
  vertex -5.595238e-01 -1.000000e+00 0.000000e+00
 endloop
endfacet
facet normal 0.000000e+00 1.000000e+00 0.000000e+00
 outer loop
  vertex 7.500000e-01 -1.000000e+00 1.000000e+00
  vertex 1.000000e+00 -1.000000e+00 7.500000e-01
  vertex 6.845238e-01 -1.000000e+00 6.250000e-01
 endloop
endfacet
facet normal 0.000000e+00 -0.000000e+00 1.000000e+00
 outer loop
  vertex 2.500000e-01 -1.000000e+00 -1.000000e+00
  vertex 4.166667e-01 -4.166667e-01 -1.000000e+00
  vertex 0.000000e+00 -5.595238e-01 -1.000000e+00
 endloop
endfacet
facet normal 0.000000e+00 0.000000e+00 1.000000e+00
 outer loop
  vertex 4.166667e-01 -4.166667e-01 -1.000000e+00
  vertex 2.500000e-01 -1.000000e+00 -1.000000e+00
  vertex 6.628788e-01 -6.628788e-01 -1.000000e+00
 endloop
endfacet
facet normal -1.000000e+00 0.000000e+00 0.000000e+00
 outer loop
  vertex 1.000000e+00 4.166667e-01 -4.166667e-01
  vertex 1.000000e+00 2.500000e-01 -1.000000e+00
  vertex 1.000000e+00 1.332268e-16 -5.595238e-01
 endloop
endfacet
facet normal -1.000000e+00 0.000000e+00 0.000000e+00
 outer loop
  vertex 1.000000e+00 2.500000e-01 -1.000000e+00
  vertex 1.000000e+00 4.166667e-01 -4.166667e-01
  vertex 1.000000e+00 6.250000e-01 -6.845238e-01
 endloop
endfacet
facet normal -1.000000e+00 0.000000e+00 0.000000e+00
 outer loop
  vertex 1.000000e+00 7.500000e-01 -1.000000e+00
  vertex 1.000000e+00 6.250000e-01 -6.845238e-01
  vertex 1.000000e+00 1.000000e+00 -7.500000e-01
 endloop
endfacet
facet normal -1.000000e+00 -0.000000e+00 0.000000e+00
 outer loop
  vertex 1.000000e+00 1.000000e+00 -2.500000e-01
  vertex 1.000000e+00 4.166667e-01 -4.166667e-01
  vertex 1.000000e+00 5.595238e-01 0.000000e+00
 endloop
endfacet
facet normal 0.000000e+00 -1.000000e+00 0.000000e+00
 outer loop
  vertex 5.443039e-01 1.000000e+00 -5.443039e-01
  vertex 1.000000e+00 1.000000e+00 -2.500000e-01
  vertex 6.499429e-01 1.000000e+00 1.250000e-01
 endloop
endfacet
facet normal -0.000000e+00 0.000000e+00 1.000000e+00
 outer loop
  vertex -1.000000e+00 -2.500000e-01 -1.000000e+00
  vertex -4.166667e-01 -4.166667e-01 -1.000000e+00
  vertex -5.595238e-01 0.000000e+00 -1.000000e+00
 endloop
endfacet
facet normal 0.000000e+00 0.000000e+00 1.000000e+00
 outer loop
  vertex -4.166667e-01 -4.166667e-01 -1.000000e+00
  vertex -1.000000e+00 -2.500000e-01 -1.000000e+00
  vertex -6.845238e-01 -6.250000e-01 -1.000000e+00
 endloop
endfacet
facet normal 0.000000e+00 0.000000e+00 1.000000e+00
 outer loop
  vertex -2.500000e-01 1.000000e+00 -1.000000e+00
  vertex -4.166667e-01 4.166667e-01 -1.000000e+00
  vertex 1.332268e-16 5.595238e-01 -1.000000e+00
 endloop
endfacet
facet normal 0.000000e+00 -0.000000e+00 1.000000e+00
 outer loop
  vertex -4.166667e-01 4.166667e-01 -1.000000e+00
  vertex -2.500000e-01 1.000000e+00 -1.000000e+00
  vertex -6.250000e-01 6.845238e-01 -1.000000e+00
 endloop
endfacet
facet normal 0.000000e+00 0.000000e+00 1.000000e+00
 outer loop
  vertex 0.000000e+00 0.000000e+00 -1.000000e+00
  vertex 4.166667e-01 4.166667e-01 -1.000000e+00
  vertex 1.332268e-16 5.595238e-01 -1.000000e+00
 endloop
endfacet
facet normal 0.000000e+00 0.000000e+00 1.000000e+00
 outer loop
  vertex 4.166667e-01 4.166667e-01 -1.000000e+00
  vertex 0.000000e+00 0.000000e+00 -1.000000e+00
  vertex 5.595238e-01 0.000000e+00 -1.000000e+00
 endloop
endfacet
facet normal -0.000000e+00 0.000000e+00 1.000000e+00
 outer loop
  vertex -4.166667e-01 4.166667e-01 -1.000000e+00
  vertex 0.000000e+00 0.000000e+00 -1.000000e+00
  vertex 1.332268e-16 5.595238e-01 -1.000000e+00
 endloop
endfacet
facet normal 0.000000e+00 0.000000e+00 1.000000e+00
 outer loop
  vertex 0.000000e+00 0.000000e+00 -1.000000e+00
  vertex -4.166667e-01 4.166667e-01 -1.000000e+00
  vertex -5.595238e-01 0.000000e+00 -1.000000e+00
 endloop
endfacet
facet normal 0.000000e+00 0.000000e+00 1.000000e+00
 outer loop
  vertex 4.166667e-01 -4.166667e-01 -1.000000e+00
  vertex 0.000000e+00 0.000000e+00 -1.000000e+00
  vertex 0.000000e+00 -5.595238e-01 -1.000000e+00
 endloop
endfacet
facet normal -0.000000e+00 0.000000e+00 1.000000e+00
 outer loop
  vertex 0.000000e+00 0.000000e+00 -1.000000e+00
  vertex 4.166667e-01 -4.166667e-01 -1.000000e+00
  vertex 5.595238e-01 0.000000e+00 -1.000000e+00
 endloop
endfacet
facet normal 0.000000e+00 0.000000e+00 1.000000e+00
 outer loop
  vertex 0.000000e+00 0.000000e+00 -1.000000e+00
  vertex -4.166667e-01 -4.166667e-01 -1.000000e+00
  vertex 0.000000e+00 -5.595238e-01 -1.000000e+00
 endloop
endfacet
facet normal 0.000000e+00 -0.000000e+00 1.000000e+00
 outer loop
  vertex -4.166667e-01 -4.166667e-01 -1.000000e+00
  vertex 0.000000e+00 0.000000e+00 -1.000000e+00
  vertex -5.595238e-01 0.000000e+00 -1.000000e+00
 endloop
endfacet
facet normal 0.000000e+00 0.000000e+00 1.000000e+00
 outer loop
  vertex 4.166667e-01 4.166667e-01 -1.000000e+00
  vertex 5.595238e-01 0.000000e+00 -1.000000e+00
  vertex 6.926578e-01 2.784691e-01 -1.000000e+00
 endloop
endfacet
facet normal 0.000000e+00 0.000000e+00 1.000000e+00
 outer loop
  vertex 6.250000e-01 6.845238e-01 -1.000000e+00
  vertex 4.166667e-01 4.166667e-01 -1.000000e+00
  vertex 6.926578e-01 2.784691e-01 -1.000000e+00
 endloop
endfacet
facet normal -0.000000e+00 1.000000e+00 0.000000e+00
 outer loop
  vertex -4.166667e-01 -1.000000e+00 -4.166667e-01
  vertex 0.000000e+00 -1.000000e+00 0.000000e+00
  vertex 0.000000e+00 -1.000000e+00 -5.595238e-01
 endloop
endfacet
facet normal 0.000000e+00 1.000000e+00 0.000000e+00
 outer loop
  vertex 0.000000e+00 -1.000000e+00 0.000000e+00
  vertex -4.166667e-01 -1.000000e+00 -4.166667e-01
  vertex -5.595238e-01 -1.000000e+00 0.000000e+00
 endloop
endfacet
facet normal 0.000000e+00 1.000000e+00 0.000000e+00
 outer loop
  vertex 0.000000e+00 -1.000000e+00 0.000000e+00
  vertex -4.166667e-01 -1.000000e+00 4.166667e-01
  vertex -1.332268e-16 -1.000000e+00 5.595238e-01
 endloop
endfacet
facet normal 0.000000e+00 1.000000e+00 0.000000e+00
 outer loop
  vertex -4.166667e-01 -1.000000e+00 4.166667e-01
  vertex 0.000000e+00 -1.000000e+00 0.000000e+00
  vertex -5.595238e-01 -1.000000e+00 0.000000e+00
 endloop
endfacet
facet normal 0.000000e+00 1.000000e+00 -0.000000e+00
 outer loop
  vertex 4.166667e-01 -1.000000e+00 -4.166667e-01
  vertex 0.000000e+00 -1.000000e+00 0.000000e+00
  vertex 5.595238e-01 -1.000000e+00 0.000000e+00
 endloop
endfacet
facet normal 0.000000e+00 1.000000e+00 0.000000e+00
 outer loop
  vertex 0.000000e+00 -1.000000e+00 0.000000e+00
  vertex 4.166667e-01 -1.000000e+00 -4.166667e-01
  vertex 0.000000e+00 -1.000000e+00 -5.595238e-01
 endloop
endfacet
facet normal 0.000000e+00 1.000000e+00 0.000000e+00
 outer loop
  vertex 0.000000e+00 -1.000000e+00 0.000000e+00
  vertex 4.166667e-01 -1.000000e+00 4.166667e-01
  vertex 5.595238e-01 -1.000000e+00 0.000000e+00
 endloop
endfacet
facet normal 0.000000e+00 1.000000e+00 0.000000e+00
 outer loop
  vertex 4.166667e-01 -1.000000e+00 4.166667e-01
  vertex 0.000000e+00 -1.000000e+00 0.000000e+00
  vertex -1.332268e-16 -1.000000e+00 5.595238e-01
 endloop
endfacet
facet normal -1.000000e+00 0.000000e+00 0.000000e+00
 outer loop
  vertex 1.000000e+00 4.166667e-01 -4.166667e-01
  vertex 1.000000e+00 0.000000e+00 0.000000e+00
  vertex 1.000000e+00 5.595238e-01 0.000000e+00
 endloop
endfacet
facet normal -1.000000e+00 0.000000e+00 0.000000e+00
 outer loop
  vertex 1.000000e+00 0.000000e+00 0.000000e+00
  vertex 1.000000e+00 4.166667e-01 -4.166667e-01
  vertex 1.000000e+00 1.332268e-16 -5.595238e-01
 endloop
endfacet
facet normal -1.000000e+00 -0.000000e+00 0.000000e+00
 outer loop
  vertex 1.000000e+00 0.000000e+00 0.000000e+00
  vertex 1.000000e+00 -4.166667e-01 -4.166667e-01
  vertex 1.000000e+00 -5.595238e-01 0.000000e+00
 endloop
endfacet
facet normal -1.000000e+00 0.000000e+00 0.000000e+00
 outer loop
  vertex 1.000000e+00 -4.166667e-01 -4.166667e-01
  vertex 1.000000e+00 0.000000e+00 0.000000e+00
  vertex 1.000000e+00 1.332268e-16 -5.595238e-01
 endloop
endfacet
facet normal -1.000000e+00 0.000000e+00 0.000000e+00
 outer loop
  vertex 1.000000e+00 0.000000e+00 0.000000e+00
  vertex 1.000000e+00 -4.166667e-01 4.166667e-01
  vertex 1.000000e+00 -1.332268e-16 5.595238e-01
 endloop
endfacet
facet normal -1.000000e+00 0.000000e+00 -0.000000e+00
 outer loop
  vertex 1.000000e+00 -4.166667e-01 4.166667e-01
  vertex 1.000000e+00 0.000000e+00 0.000000e+00
  vertex 1.000000e+00 -5.595238e-01 0.000000e+00
 endloop
endfacet
facet normal -1.000000e+00 0.000000e+00 0.000000e+00
 outer loop
  vertex 1.000000e+00 0.000000e+00 0.000000e+00
  vertex 1.000000e+00 4.166667e-01 4.166667e-01
  vertex 1.000000e+00 5.595238e-01 0.000000e+00
 endloop
endfacet
facet normal -1.000000e+00 -0.000000e+00 0.000000e+00
 outer loop
  vertex 1.000000e+00 4.166667e-01 4.166667e-01
  vertex 1.000000e+00 0.000000e+00 0.000000e+00
  vertex 1.000000e+00 -1.332268e-16 5.595238e-01
 endloop
endfacet
facet normal 0.000000e+00 -1.000000e+00 0.000000e+00
 outer loop
  vertex -6.683854e-02 4.578195e-01 5.606159e-01
  vertex -4.119335e-01 4.578195e-01 4.141545e-01
  vertex -2.010897e-01 4.578195e-01 1.373835e-01
 endloop
endfacet
facet normal 1.000000e+00 0.000000e+00 0.000000e+00
 outer loop
  vertex -1.000000e+00 5.744462e-01 -5.809804e-01
  vertex -1.000000e+00 9.191982e-02 -5.227432e-01
  vertex -1.000000e+00 3.135990e-01 -7.141257e-01
 endloop
endfacet
facet normal -0.000000e+00 0.000000e+00 -1.000000e+00
 outer loop
  vertex 1.184744e-01 -2.671480e-01 1.000000e+00
  vertex -4.402203e-01 -4.230499e-01 1.000000e+00
  vertex -2.584510e-01 4.584918e-03 1.000000e+00
 endloop
endfacet
facet normal 0.000000e+00 0.000000e+00 -1.000000e+00
 outer loop
  vertex -4.402203e-01 -4.230499e-01 1.000000e+00
  vertex 1.184744e-01 -2.671480e-01 1.000000e+00
  vertex 1.250000e-01 -6.442054e-01 1.000000e+00
 endloop
endfacet
facet normal 0.000000e+00 0.000000e+00 -1.000000e+00
 outer loop
  vertex 5.225319e-01 -5.225319e-01 1.000000e+00
  vertex 1.184744e-01 -2.671480e-01 1.000000e+00
  vertex 6.803485e-01 -2.445009e-01 1.000000e+00
 endloop
endfacet
facet normal 0.000000e+00 0.000000e+00 -1.000000e+00
 outer loop
  vertex 1.184744e-01 -2.671480e-01 1.000000e+00
  vertex 5.225319e-01 -5.225319e-01 1.000000e+00
  vertex 1.250000e-01 -6.442054e-01 1.000000e+00
 endloop
endfacet
facet normal 0.000000e+00 0.000000e+00 -1.000000e+00
 outer loop
  vertex 1.184744e-01 -2.671480e-01 1.000000e+00
  vertex 5.107291e-01 2.649108e-02 1.000000e+00
  vertex 6.803485e-01 -2.445009e-01 1.000000e+00
 endloop
endfacet
facet normal 1.000000e+00 0.000000e+00 0.000000e+00
 outer loop
  vertex -1.000000e+00 -5.716238e-01 5.705798e-01
  vertex -1.000000e+00 -2.641614e-01 2.640597e-01
  vertex -1.000000e+00 4.618236e-02 5.681068e-01
 endloop
endfacet
facet normal 1.000000e+00 0.000000e+00 0.000000e+00
 outer loop
  vertex -1.000000e+00 -2.641614e-01 2.640597e-01
  vertex -1.000000e+00 -5.716238e-01 5.705798e-01
  vertex -1.000000e+00 -6.905047e-01 2.829352e-01
 endloop
endfacet
facet normal 1.000000e+00 0.000000e+00 0.000000e+00
 outer loop
  vertex -1.000000e+00 -2.641614e-01 2.640597e-01
  vertex -1.000000e+00 -5.816028e-01 -8.633808e-03
  vertex -1.000000e+00 5.372724e-02 -2.522957e-02
 endloop
endfacet
facet normal 1.000000e+00 0.000000e+00 -0.000000e+00
 outer loop
  vertex -1.000000e+00 -5.816028e-01 -8.633808e-03
  vertex -1.000000e+00 -2.641614e-01 2.640597e-01
  vertex -1.000000e+00 -6.905047e-01 2.829352e-01
 endloop
endfacet
facet normal 1.000000e+00 -0.000000e+00 0.000000e+00
 outer loop
  vertex -1.000000e+00 -2.641614e-01 2.640597e-01
  vertex -1.000000e+00 5.372724e-02 -2.522957e-02
  vertex -1.000000e+00 1.704089e-01 2.729703e-01
 endloop
endfacet
facet normal 1.000000e+00 0.000000e+00 0.000000e+00
 outer loop
  vertex -1.000000e+00 4.618236e-02 5.681068e-01
  vertex -1.000000e+00 -2.641614e-01 2.640597e-01
  vertex -1.000000e+00 1.704089e-01 2.729703e-01
 endloop
endfacet
facet normal 0.000000e+00 0.000000e+00 1.000000e+00
 outer loop
  vertex 5.595238e-01 0.000000e+00 -1.000000e+00
  vertex 4.166667e-01 -4.166667e-01 -1.000000e+00
  vertex 6.926578e-01 -2.784691e-01 -1.000000e+00
 endloop
endfacet
facet normal 0.000000e+00 0.000000e+00 1.000000e+00
 outer loop
  vertex 6.926578e-01 -2.784691e-01 -1.000000e+00
  vertex 4.166667e-01 -4.166667e-01 -1.000000e+00
  vertex 6.628788e-01 -6.628788e-01 -1.000000e+00
 endloop
endfacet
facet normal 0.000000e+00 0.000000e+00 1.000000e+00
 outer loop
  vertex 0.000000e+00 -5.595238e-01 -1.000000e+00
  vertex -4.166667e-01 -4.166667e-01 -1.000000e+00
  vertex -2.784691e-01 -6.926578e-01 -1.000000e+00
 endloop
endfacet
facet normal 0.000000e+00 0.000000e+00 1.000000e+00
 outer loop
  vertex -2.784691e-01 -6.926578e-01 -1.000000e+00
  vertex -4.166667e-01 -4.166667e-01 -1.000000e+00
  vertex -6.845238e-01 -6.250000e-01 -1.000000e+00
 endloop
endfacet
facet normal 0.000000e+00 1.000000e+00 0.000000e+00
 outer loop
  vertex -1.332268e-16 -1.000000e+00 5.595238e-01
  vertex -4.166667e-01 -1.000000e+00 4.166667e-01
  vertex -2.784691e-01 -1.000000e+00 6.926578e-01
 endloop
endfacet
facet normal 0.000000e+00 1.000000e+00 0.000000e+00
 outer loop
  vertex -2.784691e-01 -1.000000e+00 6.926578e-01
  vertex -4.166667e-01 -1.000000e+00 4.166667e-01
  vertex -6.109265e-01 -1.000000e+00 6.865343e-01
 endloop
endfacet
facet normal 0.000000e+00 1.000000e+00 0.000000e+00
 outer loop
  vertex 4.166667e-01 -1.000000e+00 -4.166667e-01
  vertex 5.595238e-01 -1.000000e+00 0.000000e+00
  vertex 6.926578e-01 -1.000000e+00 -2.784691e-01
 endloop
endfacet
facet normal -0.000000e+00 1.000000e+00 0.000000e+00
 outer loop
  vertex 0.000000e+00 -1.000000e+00 -5.595238e-01
  vertex 4.166667e-01 -1.000000e+00 -4.166667e-01
  vertex 2.784691e-01 -1.000000e+00 -6.926578e-01
 endloop
endfacet
facet normal 0.000000e+00 1.000000e+00 0.000000e+00
 outer loop
  vertex 4.166667e-01 -1.000000e+00 -4.166667e-01
  vertex 6.628788e-01 -1.000000e+00 -6.628788e-01
  vertex 2.784691e-01 -1.000000e+00 -6.926578e-01
 endloop
endfacet
facet normal 0.000000e+00 1.000000e+00 -0.000000e+00
 outer loop
  vertex 6.628788e-01 -1.000000e+00 -6.628788e-01
  vertex 4.166667e-01 -1.000000e+00 -4.166667e-01
  vertex 6.926578e-01 -1.000000e+00 -2.784691e-01
 endloop
endfacet
facet normal 0.000000e+00 1.000000e+00 -0.000000e+00
 outer loop
  vertex 5.595238e-01 -1.000000e+00 0.000000e+00
  vertex 4.166667e-01 -1.000000e+00 4.166667e-01
  vertex 6.926578e-01 -1.000000e+00 2.784691e-01
 endloop
endfacet
facet normal 0.000000e+00 1.000000e+00 0.000000e+00
 outer loop
  vertex 4.166667e-01 -1.000000e+00 4.166667e-01
  vertex -1.332268e-16 -1.000000e+00 5.595238e-01
  vertex 2.784691e-01 -1.000000e+00 6.926578e-01
 endloop
endfacet
facet normal 0.000000e+00 1.000000e+00 0.000000e+00
 outer loop
  vertex 6.845238e-01 -1.000000e+00 6.250000e-01
  vertex 4.166667e-01 -1.000000e+00 4.166667e-01
  vertex 2.784691e-01 -1.000000e+00 6.926578e-01
 endloop
endfacet
facet normal -0.000000e+00 1.000000e+00 0.000000e+00
 outer loop
  vertex 4.166667e-01 -1.000000e+00 4.166667e-01
  vertex 6.845238e-01 -1.000000e+00 6.250000e-01
  vertex 6.926578e-01 -1.000000e+00 2.784691e-01
 endloop
endfacet
facet normal -1.000000e+00 0.000000e+00 0.000000e+00
 outer loop
  vertex 1.000000e+00 5.595238e-01 0.000000e+00
  vertex 1.000000e+00 4.166667e-01 4.166667e-01
  vertex 1.000000e+00 7.202381e-01 3.750000e-01
 endloop
endfacet
facet normal -1.000000e+00 0.000000e+00 0.000000e+00
 outer loop
  vertex 1.000000e+00 4.166667e-01 4.166667e-01
  vertex 1.000000e+00 6.084020e-01 6.868950e-01
  vertex 1.000000e+00 7.202381e-01 3.750000e-01
 endloop
endfacet
facet normal 1.000000e+00 0.000000e+00 0.000000e+00
 outer loop
  vertex -1.000000e+00 9.191982e-02 -5.227432e-01
  vertex -1.000000e+00 -3.692265e-01 -3.692265e-01
  vertex -1.000000e+00 -2.119478e-01 -6.661529e-01
 endloop
endfacet
facet normal 1.000000e+00 -0.000000e+00 0.000000e+00
 outer loop
  vertex -1.000000e+00 -3.692265e-01 -3.692265e-01
  vertex -1.000000e+00 9.191982e-02 -5.227432e-01
  vertex -1.000000e+00 5.372724e-02 -2.522957e-02
 endloop
endfacet
facet normal 1.000000e+00 0.000000e+00 0.000000e+00
 outer loop
  vertex -1.000000e+00 -5.816028e-01 -8.633808e-03
  vertex -1.000000e+00 -3.692265e-01 -3.692265e-01
  vertex -1.000000e+00 5.372724e-02 -2.522957e-02
 endloop
endfacet
facet normal 1.000000e+00 0.000000e+00 0.000000e+00
 outer loop
  vertex -1.000000e+00 -3.692265e-01 -3.692265e-01
  vertex -1.000000e+00 -5.816028e-01 -8.633808e-03
  vertex -1.000000e+00 -6.807584e-01 -3.098703e-01
 endloop
endfacet
facet normal 1.000000e+00 0.000000e+00 0.000000e+00
 outer loop
  vertex -1.000000e+00 -3.692265e-01 -3.692265e-01
  vertex -1.000000e+00 -6.451418e-01 -6.250000e-01
  vertex -1.000000e+00 -2.119478e-01 -6.661529e-01
 endloop
endfacet
facet normal 1.000000e+00 0.000000e+00 0.000000e+00
 outer loop
  vertex -1.000000e+00 -3.692265e-01 -3.692265e-01
  vertex -1.000000e+00 -6.807584e-01 -3.098703e-01
  vertex -1.000000e+00 -6.451418e-01 -6.250000e-01
 endloop
endfacet
endsolid 
