solid 
facet normal -1.000000e+00 0.000000e+00 0.000000e+00
 outer loop
  vertex -8.511779e-01 3.341719e-01 -3.710312e-01
  vertex -8.511779e-01 1.122292e-01 -3.710312e-01
  vertex -8.511779e-01 3.054269e-01 -1.788553e-01
 endloop
endfacet
facet normal 0.000000e+00 0.000000e+00 -1.000000e+00
 outer loop
  vertex -8.511779e-01 1.122292e-01 -3.710312e-01
  vertex -8.511779e-01 3.341719e-01 -3.710312e-01
  vertex -6.197807e-01 1.122292e-01 -3.710312e-01
 endloop
endfacet
facet normal -1.000000e+00 0.000000e+00 0.000000e+00
 outer loop
  vertex -8.511779e-01 1.122292e-01 -3.710312e-01
  vertex -8.511779e-01 1.122292e-01 -1.996523e-01
  vertex -8.511779e-01 3.054269e-01 -1.788553e-01
 endloop
endfacet
facet normal 0.000000e+00 -1.000000e+00 0.000000e+00
 outer loop
  vertex -8.511779e-01 1.122292e-01 -1.996523e-01
  vertex -8.511779e-01 1.122292e-01 -3.710312e-01
  vertex -6.197807e-01 1.122292e-01 -3.710312e-01
 endloop
endfacet
facet normal 0.000000e+00 -1.000000e+00 0.000000e+00
 outer loop
  vertex 5.372055e-01 1.000000e+00 -1.000000e+00
  vertex 1.000000e+00 1.000000e+00 -1.000000e+00
  vertex 6.647005e-01 1.000000e+00 -6.898554e-01
 endloop
endfacet
facet normal 0.000000e+00 0.000000e+00 1.000000e+00
 outer loop
  vertex 1.000000e+00 1.000000e+00 -1.000000e+00
  vertex 5.372055e-01 1.000000e+00 -1.000000e+00
  vertex 6.485252e-01 6.528645e-01 -1.000000e+00
 endloop
endfacet
facet normal 0.000000e+00 -0.000000e+00 1.000000e+00
 outer loop
  vertex 1.000000e+00 5.561146e-01 -1.000000e+00
  vertex 1.000000e+00 1.000000e+00 -1.000000e+00
  vertex 6.485252e-01 6.528645e-01 -1.000000e+00
 endloop
endfacet
facet normal -1.000000e+00 0.000000e+00 0.000000e+00
 outer loop
  vertex 1.000000e+00 1.000000e+00 -1.000000e+00
  vertex 1.000000e+00 5.561146e-01 -1.000000e+00
  vertex 1.000000e+00 6.666542e-01 -6.855156e-01
 endloop
endfacet
facet normal 0.000000e+00 -1.000000e+00 0.000000e+00
 outer loop
  vertex 1.000000e+00 1.000000e+00 -1.000000e+00
  vertex 1.000000e+00 1.000000e+00 -6.855156e-01
  vertex 6.647005e-01 1.000000e+00 -6.898554e-01
 endloop
endfacet
facet normal -1.000000e+00 -0.000000e+00 -0.000000e+00
 outer loop
  vertex 1.000000e+00 1.000000e+00 -6.855156e-01
  vertex 1.000000e+00 1.000000e+00 -1.000000e+00
  vertex 1.000000e+00 6.666542e-01 -6.855156e-01
 endloop
endfacet
facet normal -1.000000e+00 0.000000e+00 0.000000e+00
 outer loop
  vertex 1.000000e+00 -1.000000e+00 0.000000e+00
  vertex 1.000000e+00 -1.000000e+00 1.000000e+00
  vertex 1.000000e+00 -4.885987e-01 3.153785e-01
 endloop
endfacet
facet normal 0.000000e+00 1.000000e+00 0.000000e+00
 outer loop
  vertex 1.000000e+00 -1.000000e+00 1.000000e+00
  vertex 1.000000e+00 -1.000000e+00 0.000000e+00
  vertex 5.000000e-01 -1.000000e+00 1.000000e+00
 endloop
endfacet
facet normal -1.000000e+00 0.000000e+00 0.000000e+00
 outer loop
  vertex 1.000000e+00 -4.885987e-01 3.153785e-01
  vertex 1.000000e+00 -1.000000e+00 1.000000e+00
  vertex 1.000000e+00 -4.438854e-01 1.000000e+00
 endloop
endfacet
facet normal 0.000000e+00 0.000000e+00 -1.000000e+00
 outer loop
  vertex 1.000000e+00 -1.000000e+00 1.000000e+00
  vertex 5.000000e-01 -1.000000e+00 1.000000e+00
  vertex 1.000000e+00 -4.438854e-01 1.000000e+00
 endloop
endfacet
facet normal 0.000000e+00 1.000000e+00 0.000000e+00
 outer loop
  vertex 1.000000e+00 -1.000000e+00 0.000000e+00
  vertex 1.000000e+00 -1.000000e+00 -1.000000e+00
  vertex 5.000000e-01 -1.000000e+00 -5.000000e-01
 endloop
endfacet
facet normal -1.000000e+00 0.000000e+00 0.000000e+00
 outer loop
  vertex 1.000000e+00 -1.000000e+00 -1.000000e+00
  vertex 1.000000e+00 -1.000000e+00 0.000000e+00
  vertex 1.000000e+00 -4.771867e-01 -2.853417e-01
 endloop
endfacet
facet normal 0.000000e+00 1.000000e+00 0.000000e+00
 outer loop
  vertex 1.000000e+00 -1.000000e+00 -1.000000e+00
  vertex 0.000000e+00 -1.000000e+00 -1.000000e+00
  vertex 5.000000e-01 -1.000000e+00 -5.000000e-01
 endloop
endfacet
facet normal 0.000000e+00 0.000000e+00 1.000000e+00
 outer loop
  vertex 0.000000e+00 -1.000000e+00 -1.000000e+00
  vertex 1.000000e+00 -1.000000e+00 -1.000000e+00
  vertex 3.772741e-01 -5.012583e-01 -1.000000e+00
 endloop
endfacet
facet normal -1.000000e+00 0.000000e+00 0.000000e+00
 outer loop
  vertex 1.000000e+00 -1.000000e+00 -1.000000e+00
  vertex 1.000000e+00 -4.771867e-01 -2.853417e-01
  vertex 1.000000e+00 -4.438854e-01 -1.000000e+00
 endloop
endfacet
facet normal 0.000000e+00 -0.000000e+00 1.000000e+00
 outer loop
  vertex 1.000000e+00 -1.000000e+00 -1.000000e+00
  vertex 1.000000e+00 -4.438854e-01 -1.000000e+00
  vertex 3.772741e-01 -5.012583e-01 -1.000000e+00
 endloop
endfacet
facet normal 0.000000e+00 0.000000e+00 -1.000000e+00
 outer loop
  vertex -1.000000e+00 1.000000e+00 1.000000e+00
  vertex -8.511779e-01 1.000000e+00 1.000000e+00
  vertex -8.511779e-01 7.780573e-01 1.000000e+00
 endloop
endfacet
facet normal 0.000000e+00 -1.000000e+00 0.000000e+00
 outer loop
  vertex -1.000000e+00 1.000000e+00 1.000000e+00
  vertex -8.511779e-01 1.000000e+00 8.286211e-01
  vertex -8.511779e-01 1.000000e+00 1.000000e+00
 endloop
endfacet
facet normal 0.000000e+00 0.000000e+00 -1.000000e+00
 outer loop
  vertex -1.000000e+00 1.000000e+00 1.000000e+00
  vertex -8.511779e-01 7.780573e-01 1.000000e+00
  vertex -1.000000e+00 7.780573e-01 1.000000e+00
 endloop
endfacet
facet normal 1.000000e+00 0.000000e+00 0.000000e+00
 outer loop
  vertex -1.000000e+00 1.000000e+00 1.000000e+00
  vertex -1.000000e+00 7.780573e-01 1.000000e+00
  vertex -1.000000e+00 1.000000e+00 8.286211e-01
 endloop
endfacet
facet normal 0.000000e+00 -1.000000e+00 0.000000e+00
 outer loop
  vertex -8.511779e-01 1.000000e+00 8.286211e-01
  vertex -1.000000e+00 1.000000e+00 1.000000e+00
  vertex -1.000000e+00 1.000000e+00 8.286211e-01
 endloop
endfacet
facet normal 1.000000e+00 0.000000e+00 0.000000e+00
 outer loop
  vertex -1.000000e+00 5.561146e-01 -1.000000e+00
  vertex -1.000000e+00 1.000000e+00 -1.000000e+00
  vertex -1.000000e+00 5.595009e-01 -7.196562e-01
 endloop
endfacet
facet normal 0.000000e+00 0.000000e+00 1.000000e+00
 outer loop
  vertex -1.000000e+00 1.000000e+00 -1.000000e+00
  vertex -1.000000e+00 5.561146e-01 -1.000000e+00
  vertex -6.405909e-01 6.681603e-01 -1.000000e+00
 endloop
endfacet
facet normal 0.000000e+00 -1.000000e+00 0.000000e+00
 outer loop
  vertex -1.000000e+00 1.000000e+00 -6.855156e-01
  vertex -1.000000e+00 1.000000e+00 -1.000000e+00
  vertex -6.197807e-01 1.000000e+00 -6.625415e-01
 endloop
endfacet
facet normal 1.000000e+00 0.000000e+00 -0.000000e+00
 outer loop
  vertex -1.000000e+00 1.000000e+00 -1.000000e+00
  vertex -1.000000e+00 1.000000e+00 -6.855156e-01
  vertex -1.000000e+00 5.595009e-01 -7.196562e-01
 endloop
endfacet
facet normal 0.000000e+00 -1.000000e+00 0.000000e+00
 outer loop
  vertex -1.000000e+00 1.000000e+00 -1.000000e+00
  vertex -4.627945e-01 1.000000e+00 -1.000000e+00
  vertex -6.197807e-01 1.000000e+00 -6.625415e-01
 endloop
endfacet
facet normal 0.000000e+00 0.000000e+00 1.000000e+00
 outer loop
  vertex -4.627945e-01 1.000000e+00 -1.000000e+00
  vertex -1.000000e+00 1.000000e+00 -1.000000e+00
  vertex -6.405909e-01 6.681603e-01 -1.000000e+00
 endloop
endfacet
facet normal 0.000000e+00 0.000000e+00 -1.000000e+00
 outer loop
  vertex -1.000000e+00 -1.000000e+00 1.000000e+00
  vertex -1.000000e+00 -4.438854e-01 1.000000e+00
  vertex -3.815290e-01 -5.089095e-01 1.000000e+00
 endloop
endfacet
facet normal 1.000000e+00 0.000000e+00 0.000000e+00
 outer loop
  vertex -1.000000e+00 -4.438854e-01 1.000000e+00
  vertex -1.000000e+00 -1.000000e+00 1.000000e+00
  vertex -1.000000e+00 -1.000000e+00 5.000000e-01
 endloop
endfacet
facet normal -0.000000e+00 1.000000e+00 0.000000e+00
 outer loop
  vertex -1.000000e+00 -1.000000e+00 1.000000e+00
  vertex 0.000000e+00 -1.000000e+00 1.000000e+00
  vertex -5.000000e-01 -1.000000e+00 5.000000e-01
 endloop
endfacet
facet normal 0.000000e+00 0.000000e+00 -1.000000e+00
 outer loop
  vertex 0.000000e+00 -1.000000e+00 1.000000e+00
  vertex -1.000000e+00 -1.000000e+00 1.000000e+00
  vertex -3.815290e-01 -5.089095e-01 1.000000e+00
 endloop
endfacet
facet normal 0.000000e+00 1.000000e+00 0.000000e+00
 outer loop
  vertex -1.000000e+00 -1.000000e+00 1.000000e+00
  vertex -5.000000e-01 -1.000000e+00 5.000000e-01
  vertex -1.000000e+00 -1.000000e+00 5.000000e-01
 endloop
endfacet
facet normal 1.000000e+00 0.000000e+00 0.000000e+00
 outer loop
  vertex -1.000000e+00 -1.000000e+00 0.000000e+00
  vertex -1.000000e+00 -1.000000e+00 -1.000000e+00
  vertex -1.000000e+00 -4.778227e-01 -3.642413e-01
 endloop
endfacet
facet normal 0.000000e+00 1.000000e+00 0.000000e+00
 outer loop
  vertex -1.000000e+00 -1.000000e+00 -1.000000e+00
  vertex -1.000000e+00 -1.000000e+00 0.000000e+00
  vertex -5.000000e-01 -1.000000e+00 -5.000000e-01
 endloop
endfacet
facet normal 1.000000e+00 0.000000e+00 0.000000e+00
 outer loop
  vertex -1.000000e+00 -1.000000e+00 -1.000000e+00
  vertex -1.000000e+00 -4.438854e-01 -1.000000e+00
  vertex -1.000000e+00 -4.778227e-01 -3.642413e-01
 endloop
endfacet
facet normal 0.000000e+00 0.000000e+00 1.000000e+00
 outer loop
  vertex -1.000000e+00 -4.438854e-01 -1.000000e+00
  vertex -1.000000e+00 -1.000000e+00 -1.000000e+00
  vertex -3.751996e-01 -4.975279e-01 -1.000000e+00
 endloop
endfacet
facet normal 0.000000e+00 0.000000e+00 1.000000e+00
 outer loop
  vertex -1.000000e+00 -1.000000e+00 -1.000000e+00
  vertex 0.000000e+00 -1.000000e+00 -1.000000e+00
  vertex -3.751996e-01 -4.975279e-01 -1.000000e+00
 endloop
endfacet
facet normal 0.000000e+00 1.000000e+00 0.000000e+00
 outer loop
  vertex 0.000000e+00 -1.000000e+00 -1.000000e+00
  vertex -1.000000e+00 -1.000000e+00 -1.000000e+00
  vertex -5.000000e-01 -1.000000e+00 -5.000000e-01
 endloop
endfacet
facet normal -1.000000e+00 0.000000e+00 0.000000e+00
 outer loop
  vertex -8.511779e-01 1.000000e+00 8.286211e-01
  vertex -8.511779e-01 7.780573e-01 1.000000e+00
  vertex -8.511779e-01 1.000000e+00 1.000000e+00
 endloop
endfacet
facet normal 0.000000e+00 0.000000e+00 -1.000000e+00
 outer loop
  vertex -1.000000e+00 3.341719e-01 1.000000e+00
  vertex -8.511779e-01 1.122292e-01 1.000000e+00
  vertex -1.000000e+00 1.122292e-01 1.000000e+00
 endloop
endfacet
facet normal 0.000000e+00 0.000000e+00 -1.000000e+00
 outer loop
  vertex -1.000000e+00 1.122292e-01 1.000000e+00
  vertex -8.511779e-01 1.122292e-01 1.000000e+00
  vertex -1.000000e+00 -1.658281e-01 1.000000e+00
 endloop
endfacet
facet normal 0.000000e+00 0.000000e+00 -1.000000e+00
 outer loop
  vertex -8.511779e-01 1.122292e-01 1.000000e+00
  vertex -1.000000e+00 3.341719e-01 1.000000e+00
  vertex -8.511779e-01 3.341719e-01 1.000000e+00
 endloop
endfacet
facet normal -1.000000e+00 0.000000e+00 0.000000e+00
 outer loop
  vertex -8.511779e-01 1.122292e-01 1.000000e+00
  vertex -8.511779e-01 3.341719e-01 1.000000e+00
  vertex -8.511779e-01 1.122292e-01 8.286211e-01
 endloop
endfacet
facet normal 0.000000e+00 -1.000000e+00 0.000000e+00
 outer loop
  vertex -8.511779e-01 1.122292e-01 1.000000e+00
  vertex -8.511779e-01 1.122292e-01 8.286211e-01
  vertex -6.011779e-01 1.122292e-01 1.000000e+00
 endloop
endfacet
facet normal 0.000000e+00 0.000000e+00 -1.000000e+00
 outer loop
  vertex -8.511779e-01 1.122292e-01 1.000000e+00
  vertex -6.011779e-01 1.122292e-01 1.000000e+00
  vertex -6.681018e-01 -2.608424e-01 1.000000e+00
 endloop
endfacet
facet normal 0.000000e+00 -0.000000e+00 -1.000000e+00
 outer loop
  vertex -8.511779e-01 1.122292e-01 1.000000e+00
  vertex -6.681018e-01 -2.608424e-01 1.000000e+00
  vertex -1.000000e+00 -1.658281e-01 1.000000e+00
 endloop
endfacet
facet normal -0.000000e+00 -1.000000e+00 0.000000e+00
 outer loop
  vertex -8.511779e-01 1.000000e+00 -3.710312e-01
  vertex -1.000000e+00 1.000000e+00 -2.827337e-02
  vertex -1.000000e+00 1.000000e+00 -3.710312e-01
 endloop
endfacet
facet normal 0.000000e+00 -1.000000e+00 0.000000e+00
 outer loop
  vertex -8.511779e-01 1.000000e+00 -3.710312e-01
  vertex -1.000000e+00 1.000000e+00 -3.710312e-01
  vertex -1.000000e+00 1.000000e+00 -6.855156e-01
 endloop
endfacet
facet normal 0.000000e+00 -1.000000e+00 0.000000e+00
 outer loop
  vertex -1.000000e+00 1.000000e+00 -2.827337e-02
  vertex -8.511779e-01 1.000000e+00 -3.710312e-01
  vertex -8.511779e-01 1.000000e+00 -2.827337e-02
 endloop
endfacet
facet normal -1.000000e+00 0.000000e+00 -0.000000e+00
 outer loop
  vertex -8.511779e-01 1.000000e+00 -2.827337e-02
  vertex -8.511779e-01 1.000000e+00 -3.710312e-01
  vertex -8.511779e-01 7.332533e-01 -1.416293e-01
 endloop
endfacet
facet normal -1.000000e+00 0.000000e+00 0.000000e+00
 outer loop
  vertex -8.511779e-01 7.332533e-01 -1.416293e-01
  vertex -8.511779e-01 1.000000e+00 -3.710312e-01
  vertex -8.511779e-01 7.780573e-01 -3.710312e-01
 endloop
endfacet
facet normal -0.000000e+00 -1.000000e+00 0.000000e+00
 outer loop
  vertex -3.883834e-01 1.000000e+00 -3.710312e-01
  vertex -8.511779e-01 1.000000e+00 -3.710312e-01
  vertex -6.197807e-01 1.000000e+00 -6.625415e-01
 endloop
endfacet
facet normal 0.000000e+00 0.000000e+00 -1.000000e+00
 outer loop
  vertex -8.511779e-01 1.000000e+00 -3.710312e-01
  vertex -3.883834e-01 1.000000e+00 -3.710312e-01
  vertex -6.304513e-01 6.670860e-01 -3.710312e-01
 endloop
endfacet
facet normal 0.000000e+00 -1.000000e+00 -0.000000e+00
 outer loop
  vertex -8.511779e-01 1.000000e+00 -3.710312e-01
  vertex -1.000000e+00 1.000000e+00 -6.855156e-01
  vertex -6.197807e-01 1.000000e+00 -6.625415e-01
 endloop
endfacet
facet normal 0.000000e+00 0.000000e+00 -1.000000e+00
 outer loop
  vertex -8.511779e-01 7.780573e-01 -3.710312e-01
  vertex -8.511779e-01 1.000000e+00 -3.710312e-01
  vertex -6.304513e-01 6.670860e-01 -3.710312e-01
 endloop
endfacet
facet normal 0.000000e+00 -1.000000e+00 0.000000e+00
 outer loop
  vertex 1.000000e+00 1.122292e-01 8.286211e-01
  vertex 1.000000e+00 1.122292e-01 1.000000e+00
  vertex 7.872055e-01 1.122292e-01 1.000000e+00
 endloop
endfacet
facet normal -1.000000e+00 -0.000000e+00 -0.000000e+00
 outer loop
  vertex 1.000000e+00 1.122292e-01 1.000000e+00
  vertex 1.000000e+00 1.122292e-01 8.286211e-01
  vertex 1.000000e+00 -1.658281e-01 1.000000e+00
 endloop
endfacet
facet normal -0.000000e+00 -0.000000e+00 -1.000000e+00
 outer loop
  vertex 1.000000e+00 1.122292e-01 1.000000e+00
  vertex 1.000000e+00 -1.658281e-01 1.000000e+00
  vertex 7.872055e-01 1.122292e-01 1.000000e+00
 endloop
endfacet
facet normal 0.000000e+00 -0.000000e+00 -1.000000e+00
 outer loop
  vertex 1.000000e+00 3.341719e-01 -3.710312e-01
  vertex 1.000000e+00 1.122292e-01 -3.710312e-01
  vertex 7.686028e-01 1.122292e-01 -3.710312e-01
 endloop
endfacet
facet normal -1.000000e+00 0.000000e+00 0.000000e+00
 outer loop
  vertex 1.000000e+00 1.122292e-01 -3.710312e-01
  vertex 1.000000e+00 3.341719e-01 -3.710312e-01
  vertex 1.000000e+00 2.232006e-01 -6.855156e-01
 endloop
endfacet
facet normal -1.000000e+00 -0.000000e+00 -0.000000e+00
 outer loop
  vertex 1.000000e+00 1.122292e-01 -1.996523e-01
  vertex 1.000000e+00 1.122292e-01 -3.710312e-01
  vertex 1.000000e+00 -8.752851e-02 -1.139628e-01
 endloop
endfacet
facet normal 0.000000e+00 -1.000000e+00 0.000000e+00
 outer loop
  vertex 1.000000e+00 1.122292e-01 -3.710312e-01
  vertex 1.000000e+00 1.122292e-01 -1.996523e-01
  vertex 7.990031e-01 1.122292e-01 -1.701713e-01
 endloop
endfacet
facet normal 0.000000e+00 -1.000000e+00 0.000000e+00
 outer loop
  vertex 7.686028e-01 1.122292e-01 -3.710312e-01
  vertex 1.000000e+00 1.122292e-01 -3.710312e-01
  vertex 7.990031e-01 1.122292e-01 -1.701713e-01
 endloop
endfacet
facet normal -1.000000e+00 -0.000000e+00 0.000000e+00
 outer loop
  vertex 1.000000e+00 1.122292e-01 -3.710312e-01
  vertex 1.000000e+00 -1.977962e-01 -6.572504e-01
  vertex 1.000000e+00 -8.752851e-02 -1.139628e-01
 endloop
endfacet
facet normal -1.000000e+00 0.000000e+00 -0.000000e+00
 outer loop
  vertex 1.000000e+00 1.122292e-01 -3.710312e-01
  vertex 1.000000e+00 2.232006e-01 -6.855156e-01
  vertex 1.000000e+00 -1.977962e-01 -6.572504e-01
 endloop
endfacet
facet normal -0.000000e+00 -0.000000e+00 -1.000000e+00
 outer loop
  vertex 1.000000e+00 1.000000e+00 -3.710312e-01
  vertex 1.000000e+00 7.780573e-01 -3.710312e-01
  vertex 7.686028e-01 1.000000e+00 -3.710312e-01
 endloop
endfacet
facet normal -1.000000e+00 0.000000e+00 0.000000e+00
 outer loop
  vertex 1.000000e+00 7.780573e-01 -3.710312e-01
  vertex 1.000000e+00 1.000000e+00 -3.710312e-01
  vertex 1.000000e+00 1.000000e+00 -6.855156e-01
 endloop
endfacet
facet normal -0.000000e+00 -1.000000e+00 -0.000000e+00
 outer loop
  vertex 1.000000e+00 1.000000e+00 -3.710312e-01
  vertex 7.686028e-01 1.000000e+00 -3.710312e-01
  vertex 1.000000e+00 1.000000e+00 -6.855156e-01
 endloop
endfacet
facet normal -1.000000e+00 0.000000e+00 0.000000e+00
 outer loop
  vertex 1.000000e+00 5.561146e-01 -1.000000e+00
  vertex 1.000000e+00 1.122292e-01 -1.000000e+00
  vertex 1.000000e+00 2.232006e-01 -6.855156e-01
 endloop
endfacet
facet normal 0.000000e+00 -0.000000e+00 1.000000e+00
 outer loop
  vertex 1.000000e+00 1.122292e-01 -1.000000e+00
  vertex 1.000000e+00 5.561146e-01 -1.000000e+00
  vertex 6.983806e-01 1.341924e-01 -1.000000e+00
 endloop
endfacet
facet normal 0.000000e+00 -0.000000e+00 1.000000e+00
 outer loop
  vertex 1.000000e+00 -4.438854e-01 -1.000000e+00
  vertex 1.000000e+00 1.122292e-01 -1.000000e+00
  vertex 6.603762e-01 -1.658281e-01 -1.000000e+00
 endloop
endfacet
facet normal -1.000000e+00 0.000000e+00 0.000000e+00
 outer loop
  vertex 1.000000e+00 1.122292e-01 -1.000000e+00
  vertex 1.000000e+00 -4.438854e-01 -1.000000e+00
  vertex 1.000000e+00 -1.977962e-01 -6.572504e-01
 endloop
endfacet
facet normal -1.000000e+00 -0.000000e+00 0.000000e+00
 outer loop
  vertex 1.000000e+00 2.232006e-01 -6.855156e-01
  vertex 1.000000e+00 1.122292e-01 -1.000000e+00
  vertex 1.000000e+00 -1.977962e-01 -6.572504e-01
 endloop
endfacet
facet normal 0.000000e+00 0.000000e+00 1.000000e+00
 outer loop
  vertex 6.603762e-01 -1.658281e-01 -1.000000e+00
  vertex 1.000000e+00 1.122292e-01 -1.000000e+00
  vertex 6.983806e-01 1.341924e-01 -1.000000e+00
 endloop
endfacet
facet normal 1.000000e+00 -0.000000e+00 0.000000e+00
 outer loop
  vertex -1.000000e+00 1.122292e-01 1.000000e+00
  vertex -1.000000e+00 2.151189e-01 7.126084e-01
  vertex -1.000000e+00 3.341719e-01 1.000000e+00
 endloop
endfacet
facet normal 1.000000e+00 0.000000e+00 0.000000e+00
 outer loop
  vertex -1.000000e+00 2.151189e-01 7.126084e-01
  vertex -1.000000e+00 1.122292e-01 1.000000e+00
  vertex -1.000000e+00 3.936980e-02 8.118017e-01
 endloop
endfacet
facet normal 1.000000e+00 0.000000e+00 0.000000e+00
 outer loop
  vertex -1.000000e+00 1.122292e-01 1.000000e+00
  vertex -1.000000e+00 -1.658281e-01 1.000000e+00
  vertex -1.000000e+00 3.936980e-02 8.118017e-01
 endloop
endfacet
facet normal 1.000000e+00 0.000000e+00 0.000000e+00
 outer loop
  vertex -1.000000e+00 1.000000e+00 -2.827337e-02
  vertex -1.000000e+00 7.743398e-01 -1.779160e-01
  vertex -1.000000e+00 1.000000e+00 -3.710312e-01
 endloop
endfacet
facet normal 1.000000e+00 0.000000e+00 0.000000e+00
 outer loop
  vertex -1.000000e+00 1.000000e+00 -3.710312e-01
  vertex -1.000000e+00 7.743398e-01 -1.779160e-01
  vertex -1.000000e+00 8.186880e-01 -3.544964e-01
 endloop
endfacet
facet normal 1.000000e+00 0.000000e+00 0.000000e+00
 outer loop
  vertex -1.000000e+00 1.000000e+00 -3.710312e-01
  vertex -1.000000e+00 7.643832e-01 -5.282734e-01
  vertex -1.000000e+00 1.000000e+00 -6.855156e-01
 endloop
endfacet
facet normal 1.000000e+00 0.000000e+00 0.000000e+00
 outer loop
  vertex -1.000000e+00 1.000000e+00 -3.710312e-01
  vertex -1.000000e+00 8.186880e-01 -3.544964e-01
  vertex -1.000000e+00 7.643832e-01 -5.282734e-01
 endloop
endfacet
facet normal 1.000000e+00 0.000000e+00 0.000000e+00
 outer loop
  vertex -1.000000e+00 -4.438854e-01 -1.000000e+00
  vertex -1.000000e+00 1.122292e-01 -1.000000e+00
  vertex -1.000000e+00 -1.658281e-01 -6.663719e-01
 endloop
endfacet
facet normal 0.000000e+00 0.000000e+00 1.000000e+00
 outer loop
  vertex -1.000000e+00 1.122292e-01 -1.000000e+00
  vertex -1.000000e+00 -4.438854e-01 -1.000000e+00
  vertex -4.057388e-01 -7.999249e-02 -1.000000e+00
 endloop
endfacet
facet normal 1.000000e+00 -0.000000e+00 0.000000e+00
 outer loop
  vertex -1.000000e+00 -1.658281e-01 -6.663719e-01
  vertex -1.000000e+00 1.122292e-01 -1.000000e+00
  vertex -1.000000e+00 5.843320e-02 -4.962565e-01
 endloop
endfacet
facet normal 0.000000e+00 0.000000e+00 1.000000e+00
 outer loop
  vertex -1.000000e+00 5.561146e-01 -1.000000e+00
  vertex -1.000000e+00 1.122292e-01 -1.000000e+00
  vertex -4.668644e-01 3.341719e-01 -1.000000e+00
 endloop
endfacet
facet normal 1.000000e+00 0.000000e+00 0.000000e+00
 outer loop
  vertex -1.000000e+00 1.122292e-01 -1.000000e+00
  vertex -1.000000e+00 5.561146e-01 -1.000000e+00
  vertex -1.000000e+00 5.595009e-01 -7.196562e-01
 endloop
endfacet
facet normal 1.000000e+00 0.000000e+00 -0.000000e+00
 outer loop
  vertex -1.000000e+00 1.122292e-01 -1.000000e+00
  vertex -1.000000e+00 3.341719e-01 -5.528299e-01
  vertex -1.000000e+00 5.843320e-02 -4.962565e-01
 endloop
endfacet
facet normal 1.000000e+00 0.000000e+00 0.000000e+00
 outer loop
  vertex -1.000000e+00 3.341719e-01 -5.528299e-01
  vertex -1.000000e+00 1.122292e-01 -1.000000e+00
  vertex -1.000000e+00 5.595009e-01 -7.196562e-01
 endloop
endfacet
facet normal 0.000000e+00 0.000000e+00 1.000000e+00
 outer loop
  vertex -4.668644e-01 3.341719e-01 -1.000000e+00
  vertex -1.000000e+00 1.122292e-01 -1.000000e+00
  vertex -4.057388e-01 -7.999249e-02 -1.000000e+00
 endloop
endfacet
facet normal 1.000000e+00 0.000000e+00 0.000000e+00
 outer loop
  vertex -1.000000e+00 -1.000000e+00 0.000000e+00
  vertex -1.000000e+00 -4.778227e-01 -3.642413e-01
  vertex -1.000000e+00 -3.307417e-01 -8.173990e-02
 endloop
endfacet
facet normal 0.000000e+00 1.000000e+00 0.000000e+00
 outer loop
  vertex 0.000000e+00 -1.000000e+00 0.000000e+00
  vertex -1.000000e+00 -1.000000e+00 0.000000e+00
  vertex -5.000000e-01 -1.000000e+00 5.000000e-01
 endloop
endfacet
facet normal -0.000000e+00 1.000000e+00 0.000000e+00
 outer loop
  vertex -1.000000e+00 -1.000000e+00 0.000000e+00
  vertex 0.000000e+00 -1.000000e+00 0.000000e+00
  vertex -5.000000e-01 -1.000000e+00 -5.000000e-01
 endloop
endfacet
facet normal 0.000000e+00 1.000000e+00 0.000000e+00
 outer loop
  vertex -5.000000e-01 -1.000000e+00 5.000000e-01
  vertex -1.000000e+00 -1.000000e+00 0.000000e+00
  vertex -1.000000e+00 -1.000000e+00 5.000000e-01
 endloop
endfacet
facet normal 1.000000e+00 0.000000e+00 0.000000e+00
 outer loop
  vertex -1.000000e+00 -1.000000e+00 0.000000e+00
  vertex -1.000000e+00 -6.096630e-01 2.732187e-01
  vertex -1.000000e+00 -1.000000e+00 5.000000e-01
 endloop
endfacet
facet normal 1.000000e+00 -0.000000e+00 0.000000e+00
 outer loop
  vertex -1.000000e+00 -1.000000e+00 0.000000e+00
  vertex -1.000000e+00 -3.307417e-01 -8.173990e-02
  vertex -1.000000e+00 -6.096630e-01 2.732187e-01
 endloop
endfacet
facet normal -1.000000e+00 0.000000e+00 0.000000e+00
 outer loop
  vertex -8.511779e-01 1.122292e-01 -2.827337e-02
  vertex -8.511779e-01 1.122292e-01 3.144844e-01
  vertex -8.511779e-01 3.045370e-01 1.431055e-01
 endloop
endfacet
facet normal 0.000000e+00 -1.000000e+00 0.000000e+00
 outer loop
  vertex -8.511779e-01 1.122292e-01 3.144844e-01
  vertex -8.511779e-01 1.122292e-01 -2.827337e-02
  vertex -4.741867e-01 1.122292e-01 1.909484e-01
 endloop
endfacet
facet normal -1.000000e+00 0.000000e+00 0.000000e+00
 outer loop
  vertex -8.511779e-01 1.122292e-01 3.144844e-01
  vertex -8.511779e-01 1.122292e-01 4.858633e-01
  vertex -8.511779e-01 3.611108e-01 4.001739e-01
 endloop
endfacet
facet normal 0.000000e+00 -1.000000e+00 0.000000e+00
 outer loop
  vertex -8.511779e-01 1.122292e-01 4.858633e-01
  vertex -8.511779e-01 1.122292e-01 3.144844e-01
  vertex -6.113390e-01 1.122292e-01 4.040382e-01
 endloop
endfacet
facet normal -1.000000e+00 0.000000e+00 0.000000e+00
 outer loop
  vertex -8.511779e-01 3.045370e-01 1.431055e-01
  vertex -8.511779e-01 1.122292e-01 3.144844e-01
  vertex -8.511779e-01 3.611108e-01 4.001739e-01
 endloop
endfacet
facet normal 0.000000e+00 -1.000000e+00 0.000000e+00
 outer loop
  vertex -8.511779e-01 1.122292e-01 3.144844e-01
  vertex -4.741867e-01 1.122292e-01 1.909484e-01
  vertex -6.113390e-01 1.122292e-01 4.040382e-01
 endloop
endfacet
facet normal -1.000000e+00 0.000000e+00 0.000000e+00
 outer loop
  vertex -8.511779e-01 1.122292e-01 -1.996523e-01
  vertex -8.511779e-01 1.122292e-01 -2.827337e-02
  vertex -8.511779e-01 3.054269e-01 -1.788553e-01
 endloop
endfacet
facet normal 0.000000e+00 -1.000000e+00 0.000000e+00
 outer loop
  vertex -8.511779e-01 1.122292e-01 -2.827337e-02
  vertex -8.511779e-01 1.122292e-01 -1.996523e-01
  vertex -5.658701e-01 1.122292e-01 -8.514840e-02
 endloop
endfacet
facet normal -1.000000e+00 0.000000e+00 0.000000e+00
 outer loop
  vertex -8.511779e-01 1.122292e-01 -2.827337e-02
  vertex -8.511779e-01 3.045370e-01 1.431055e-01
  vertex -8.511779e-01 4.059247e-01 4.496706e-03
 endloop
endfacet
facet normal -1.000000e+00 0.000000e+00 0.000000e+00
 outer loop
  vertex -8.511779e-01 1.122292e-01 -2.827337e-02
  vertex -8.511779e-01 4.059247e-01 4.496706e-03
  vertex -8.511779e-01 3.054269e-01 -1.788553e-01
 endloop
endfacet
facet normal 0.000000e+00 -1.000000e+00 0.000000e+00
 outer loop
  vertex -4.741867e-01 1.122292e-01 1.909484e-01
  vertex -8.511779e-01 1.122292e-01 -2.827337e-02
  vertex -5.658701e-01 1.122292e-01 -8.514840e-02
 endloop
endfacet
facet normal 1.000000e+00 -0.000000e+00 0.000000e+00
 outer loop
  vertex -1.000000e+00 -4.438854e-01 1.000000e+00
  vertex -1.000000e+00 -1.658281e-01 7.034539e-01
  vertex -1.000000e+00 -1.658281e-01 1.000000e+00
 endloop
endfacet
facet normal 1.000000e+00 0.000000e+00 0.000000e+00
 outer loop
  vertex -1.000000e+00 -1.658281e-01 7.034539e-01
  vertex -1.000000e+00 -4.438854e-01 1.000000e+00
  vertex -1.000000e+00 -6.096630e-01 2.732187e-01
 endloop
endfacet
facet normal 0.000000e+00 0.000000e+00 -1.000000e+00
 outer loop
  vertex -3.815290e-01 -5.089095e-01 1.000000e+00
  vertex -1.000000e+00 -4.438854e-01 1.000000e+00
  vertex -6.681018e-01 -2.608424e-01 1.000000e+00
 endloop
endfacet
facet normal 1.000000e+00 0.000000e+00 0.000000e+00
 outer loop
  vertex -1.000000e+00 -4.438854e-01 1.000000e+00
  vertex -1.000000e+00 -1.000000e+00 5.000000e-01
  vertex -1.000000e+00 -6.096630e-01 2.732187e-01
 endloop
endfacet
facet normal 0.000000e+00 0.000000e+00 -1.000000e+00
 outer loop
  vertex -1.000000e+00 -4.438854e-01 1.000000e+00
  vertex -1.000000e+00 -1.658281e-01 1.000000e+00
  vertex -6.681018e-01 -2.608424e-01 1.000000e+00
 endloop
endfacet
facet normal 1.000000e+00 0.000000e+00 0.000000e+00
 outer loop
  vertex -1.000000e+00 -4.778227e-01 -3.642413e-01
  vertex -1.000000e+00 -4.438854e-01 -1.000000e+00
  vertex -1.000000e+00 -1.658281e-01 -6.663719e-01
 endloop
endfacet
facet normal -0.000000e+00 0.000000e+00 1.000000e+00
 outer loop
  vertex -1.000000e+00 -4.438854e-01 -1.000000e+00
  vertex -3.751996e-01 -4.975279e-01 -1.000000e+00
  vertex -4.057388e-01 -7.999249e-02 -1.000000e+00
 endloop
endfacet
facet normal -1.000000e+00 0.000000e+00 -0.000000e+00
 outer loop
  vertex 1.000000e+00 1.122292e-01 3.144844e-01
  vertex 1.000000e+00 1.122292e-01 -2.827337e-02
  vertex 1.000000e+00 -2.592718e-01 1.926656e-02
 endloop
endfacet
facet normal 0.000000e+00 -1.000000e+00 0.000000e+00
 outer loop
  vertex 1.000000e+00 1.122292e-01 -2.827337e-02
  vertex 1.000000e+00 1.122292e-01 3.144844e-01
  vertex 7.673150e-01 1.122292e-01 3.555646e-01
 endloop
endfacet
facet normal -1.000000e+00 -0.000000e+00 -0.000000e+00
 outer loop
  vertex 1.000000e+00 1.122292e-01 4.858633e-01
  vertex 1.000000e+00 1.122292e-01 3.144844e-01
  vertex 1.000000e+00 -2.366866e-01 5.715528e-01
 endloop
endfacet
facet normal 0.000000e+00 -1.000000e+00 0.000000e+00
 outer loop
  vertex 1.000000e+00 1.122292e-01 3.144844e-01
  vertex 1.000000e+00 1.122292e-01 4.858633e-01
  vertex 7.673150e-01 1.122292e-01 3.555646e-01
 endloop
endfacet
facet normal -1.000000e+00 -0.000000e+00 0.000000e+00
 outer loop
  vertex 1.000000e+00 1.122292e-01 3.144844e-01
  vertex 1.000000e+00 -2.592718e-01 1.926656e-02
  vertex 1.000000e+00 -2.366866e-01 5.715528e-01
 endloop
endfacet
facet normal 1.000000e+00 0.000000e+00 -0.000000e+00
 outer loop
  vertex -1.000000e+00 -5.310959e-02 -2.378177e-01
  vertex -1.000000e+00 1.073930e-01 -1.266841e-01
  vertex -1.000000e+00 -1.658281e-01 1.907365e-01
 endloop
endfacet
facet normal 1.000000e+00 0.000000e+00 0.000000e+00
 outer loop
  vertex -1.000000e+00 -5.310959e-02 -2.378177e-01
  vertex -1.000000e+00 -1.658281e-01 1.907365e-01
  vertex -1.000000e+00 -3.307417e-01 -8.173990e-02
 endloop
endfacet
facet normal 1.000000e+00 0.000000e+00 0.000000e+00
 outer loop
  vertex -1.000000e+00 -1.658281e-01 1.907365e-01
  vertex -1.000000e+00 1.073930e-01 -1.266841e-01
  vertex -1.000000e+00 1.828805e-01 5.335323e-02
 endloop
endfacet
facet normal 1.000000e+00 -0.000000e+00 0.000000e+00
 outer loop
  vertex -1.000000e+00 -1.658281e-01 1.907365e-01
  vertex -1.000000e+00 1.828805e-01 5.335323e-02
  vertex -1.000000e+00 8.491138e-02 2.262281e-01
 endloop
endfacet
facet normal 1.000000e+00 0.000000e+00 -0.000000e+00
 outer loop
  vertex -1.000000e+00 -1.658281e-01 1.907365e-01
  vertex -1.000000e+00 8.491138e-02 2.262281e-01
  vertex -1.000000e+00 -1.707050e-01 4.470952e-01
 endloop
endfacet
facet normal 1.000000e+00 0.000000e+00 0.000000e+00
 outer loop
  vertex -1.000000e+00 -1.658281e-01 1.907365e-01
  vertex -1.000000e+00 -1.707050e-01 4.470952e-01
  vertex -1.000000e+00 -6.096630e-01 2.732187e-01
 endloop
endfacet
facet normal 1.000000e+00 0.000000e+00 0.000000e+00
 outer loop
  vertex -1.000000e+00 -1.658281e-01 1.907365e-01
  vertex -1.000000e+00 -6.096630e-01 2.732187e-01
  vertex -1.000000e+00 -3.307417e-01 -8.173990e-02
 endloop
endfacet
facet normal -1.000000e+00 0.000000e+00 0.000000e+00
 outer loop
  vertex -8.511779e-01 5.561146e-01 -3.710312e-01
  vertex -8.511779e-01 3.341719e-01 -3.710312e-01
  vertex -8.511779e-01 4.961415e-01 -1.416293e-01
 endloop
endfacet
facet normal 0.000000e+00 0.000000e+00 -1.000000e+00
 outer loop
  vertex -8.511779e-01 3.341719e-01 -3.710312e-01
  vertex -8.511779e-01 5.561146e-01 -3.710312e-01
  vertex -5.040821e-01 4.547992e-01 -3.710312e-01
 endloop
endfacet
facet normal -1.000000e+00 -0.000000e+00 0.000000e+00
 outer loop
  vertex -8.511779e-01 7.332533e-01 -1.416293e-01
  vertex -8.511779e-01 5.561146e-01 -3.710312e-01
  vertex -8.511779e-01 4.961415e-01 -1.416293e-01
 endloop
endfacet
facet normal -1.000000e+00 0.000000e+00 0.000000e+00
 outer loop
  vertex -8.511779e-01 5.561146e-01 -3.710312e-01
  vertex -8.511779e-01 7.332533e-01 -1.416293e-01
  vertex -8.511779e-01 7.780573e-01 -3.710312e-01
 endloop
endfacet
facet normal 0.000000e+00 0.000000e+00 -1.000000e+00
 outer loop
  vertex -8.511779e-01 5.561146e-01 -3.710312e-01
  vertex -8.511779e-01 7.780573e-01 -3.710312e-01
  vertex -6.304513e-01 6.670860e-01 -3.710312e-01
 endloop
endfacet
facet normal 0.000000e+00 0.000000e+00 -1.000000e+00
 outer loop
  vertex -5.040821e-01 4.547992e-01 -3.710312e-01
  vertex -8.511779e-01 5.561146e-01 -3.710312e-01
  vertex -6.304513e-01 6.670860e-01 -3.710312e-01
 endloop
endfacet
facet normal 1.000000e+00 -0.000000e+00 0.000000e+00
 outer loop
  vertex -1.000000e+00 -4.778227e-01 -3.642413e-01
  vertex -1.000000e+00 -1.658281e-01 -6.663719e-01
  vertex -1.000000e+00 -5.310959e-02 -2.378177e-01
 endloop
endfacet
facet normal 1.000000e+00 0.000000e+00 0.000000e+00
 outer loop
  vertex -1.000000e+00 -4.778227e-01 -3.642413e-01
  vertex -1.000000e+00 -5.310959e-02 -2.378177e-01
  vertex -1.000000e+00 -3.307417e-01 -8.173990e-02
 endloop
endfacet
facet normal 1.000000e+00 0.000000e+00 0.000000e+00
 outer loop
  vertex -1.000000e+00 -5.310959e-02 -2.378177e-01
  vertex -1.000000e+00 -1.658281e-01 -6.663719e-01
  vertex -1.000000e+00 5.843320e-02 -4.962565e-01
 endloop
endfacet
facet normal 1.000000e+00 0.000000e+00 0.000000e+00
 outer loop
  vertex -1.000000e+00 -5.310959e-02 -2.378177e-01
  vertex -1.000000e+00 5.843320e-02 -4.962565e-01
  vertex -1.000000e+00 9.990162e-02 -3.250682e-01
 endloop
endfacet
facet normal 1.000000e+00 -0.000000e+00 0.000000e+00
 outer loop
  vertex -1.000000e+00 -5.310959e-02 -2.378177e-01
  vertex -1.000000e+00 9.990162e-02 -3.250682e-01
  vertex -1.000000e+00 1.073930e-01 -1.266841e-01
 endloop
endfacet
facet normal -0.000000e+00 -1.000000e+00 -0.000000e+00
 outer loop
  vertex -8.511779e-01 1.000000e+00 3.144844e-01
  vertex -1.000000e+00 1.000000e+00 3.144844e-01
  vertex -8.511779e-01 1.000000e+00 -2.827337e-02
 endloop
endfacet
facet normal 0.000000e+00 -1.000000e+00 0.000000e+00
 outer loop
  vertex -1.000000e+00 1.000000e+00 3.144844e-01
  vertex -8.511779e-01 1.000000e+00 3.144844e-01
  vertex -8.511779e-01 1.000000e+00 4.858633e-01
 endloop
endfacet
facet normal 0.000000e+00 -1.000000e+00 0.000000e+00
 outer loop
  vertex -8.511779e-01 1.000000e+00 -2.827337e-02
  vertex -1.000000e+00 1.000000e+00 3.144844e-01
  vertex -1.000000e+00 1.000000e+00 -2.827337e-02
 endloop
endfacet
facet normal 1.000000e+00 0.000000e+00 -0.000000e+00
 outer loop
  vertex -1.000000e+00 1.000000e+00 -2.827337e-02
  vertex -1.000000e+00 1.000000e+00 3.144844e-01
  vertex -1.000000e+00 7.743398e-01 1.431055e-01
 endloop
endfacet
facet normal 1.000000e+00 0.000000e+00 -0.000000e+00
 outer loop
  vertex -1.000000e+00 7.743398e-01 1.431055e-01
  vertex -1.000000e+00 1.000000e+00 3.144844e-01
  vertex -1.000000e+00 7.386325e-01 4.243791e-01
 endloop
endfacet
facet normal 1.000000e+00 -0.000000e+00 0.000000e+00
 outer loop
  vertex -1.000000e+00 7.386325e-01 4.243791e-01
  vertex -1.000000e+00 1.000000e+00 3.144844e-01
  vertex -1.000000e+00 1.000000e+00 4.858633e-01
 endloop
endfacet
facet normal 0.000000e+00 -1.000000e+00 0.000000e+00
 outer loop
  vertex -1.000000e+00 1.000000e+00 3.144844e-01
  vertex -8.511779e-01 1.000000e+00 4.858633e-01
  vertex -1.000000e+00 1.000000e+00 4.858633e-01
 endloop
endfacet
facet normal -1.000000e+00 0.000000e+00 -0.000000e+00
 outer loop
  vertex -8.511779e-01 1.000000e+00 3.144844e-01
  vertex -8.511779e-01 1.000000e+00 -2.827337e-02
  vertex -8.511779e-01 8.076922e-01 1.431055e-01
 endloop
endfacet
facet normal -1.000000e+00 -0.000000e+00 0.000000e+00
 outer loop
  vertex -8.511779e-01 1.000000e+00 3.144844e-01
  vertex -8.511779e-01 8.076922e-01 1.431055e-01
  vertex -8.511779e-01 6.947808e-01 4.633915e-01
 endloop
endfacet
facet normal -1.000000e+00 0.000000e+00 0.000000e+00
 outer loop
  vertex -8.511779e-01 1.000000e+00 3.144844e-01
  vertex -8.511779e-01 6.947808e-01 4.633915e-01
  vertex -8.511779e-01 1.000000e+00 4.858633e-01
 endloop
endfacet
facet normal -0.000000e+00 0.000000e+00 1.000000e+00
 outer loop
  vertex -1.000000e+00 5.561146e-01 -1.000000e+00
  vertex -4.668644e-01 3.341719e-01 -1.000000e+00
  vertex -6.405909e-01 6.681603e-01 -1.000000e+00
 endloop
endfacet
facet normal -0.000000e+00 -1.000000e+00 0.000000e+00
 outer loop
  vertex 1.488221e-01 1.122292e-01 1.000000e+00
  vertex -3.511779e-01 1.122292e-01 1.000000e+00
  vertex -4.346440e-01 1.122292e-01 5.856887e-01
 endloop
endfacet
facet normal 0.000000e+00 -0.000000e+00 -1.000000e+00
 outer loop
  vertex -3.511779e-01 1.122292e-01 1.000000e+00
  vertex 1.488221e-01 1.122292e-01 1.000000e+00
  vertex -3.815290e-01 -5.089095e-01 1.000000e+00
 endloop
endfacet
facet normal 0.000000e+00 -1.000000e+00 -0.000000e+00
 outer loop
  vertex 1.488221e-01 1.122292e-01 1.000000e+00
  vertex -1.011779e-01 1.122292e-01 3.260336e-01
  vertex 3.616166e-01 1.122292e-01 5.377159e-01
 endloop
endfacet
facet normal 0.000000e+00 -1.000000e+00 0.000000e+00
 outer loop
  vertex -1.011779e-01 1.122292e-01 3.260336e-01
  vertex 1.488221e-01 1.122292e-01 1.000000e+00
  vertex -4.346440e-01 1.122292e-01 5.856887e-01
 endloop
endfacet
facet normal -0.000000e+00 -1.000000e+00 0.000000e+00
 outer loop
  vertex 5.744110e-01 1.122292e-01 1.000000e+00
  vertex 1.488221e-01 1.122292e-01 1.000000e+00
  vertex 3.616166e-01 1.122292e-01 5.377159e-01
 endloop
endfacet
facet normal 0.000000e+00 0.000000e+00 -1.000000e+00
 outer loop
  vertex 1.488221e-01 1.122292e-01 1.000000e+00
  vertex 5.744110e-01 1.122292e-01 1.000000e+00
  vertex 4.329810e-01 -4.369126e-01 1.000000e+00
 endloop
endfacet
facet normal 0.000000e+00 0.000000e+00 -1.000000e+00
 outer loop
  vertex -3.815290e-01 -5.089095e-01 1.000000e+00
  vertex 1.488221e-01 1.122292e-01 1.000000e+00
  vertex 4.329810e-01 -4.369126e-01 1.000000e+00
 endloop
endfacet
facet normal 1.000000e+00 0.000000e+00 0.000000e+00
 outer loop
  vertex -1.000000e+00 3.341719e-01 -5.528299e-01
  vertex -1.000000e+00 9.990162e-02 -3.250682e-01
  vertex -1.000000e+00 5.843320e-02 -4.962565e-01
 endloop
endfacet
facet normal 1.000000e+00 0.000000e+00 0.000000e+00
 outer loop
  vertex -1.000000e+00 3.341719e-01 -5.528299e-01
  vertex -1.000000e+00 5.553272e-01 -3.371295e-01
  vertex -1.000000e+00 3.815467e-01 -3.801785e-01
 endloop
endfacet
facet normal 1.000000e+00 -0.000000e+00 0.000000e+00
 outer loop
  vertex -1.000000e+00 3.341719e-01 -5.528299e-01
  vertex -1.000000e+00 5.595009e-01 -7.196562e-01
  vertex -1.000000e+00 5.553272e-01 -3.371295e-01
 endloop
endfacet
facet normal 1.000000e+00 0.000000e+00 -0.000000e+00
 outer loop
  vertex -1.000000e+00 3.341719e-01 -5.528299e-01
  vertex -1.000000e+00 3.815467e-01 -3.801785e-01
  vertex -1.000000e+00 9.990162e-02 -3.250682e-01
 endloop
endfacet
facet normal 0.000000e+00 -0.000000e+00 -1.000000e+00
 outer loop
  vertex 1.000000e+00 7.780573e-01 -3.710312e-01
  vertex 1.000000e+00 5.561146e-01 -3.710312e-01
  vertex 7.214862e-01 7.192777e-01 -3.710312e-01
 endloop
endfacet
facet normal -1.000000e+00 0.000000e+00 0.000000e+00
 outer loop
  vertex 1.000000e+00 5.561146e-01 -3.710312e-01
  vertex 1.000000e+00 7.780573e-01 -3.710312e-01
  vertex 1.000000e+00 6.666542e-01 -6.855156e-01
 endloop
endfacet
facet normal 0.000000e+00 -0.000000e+00 -1.000000e+00
 outer loop
  vertex 1.000000e+00 5.561146e-01 -3.710312e-01
  vertex 1.000000e+00 3.341719e-01 -3.710312e-01
  vertex 6.644383e-01 4.404041e-01 -3.710312e-01
 endloop
endfacet
facet normal -1.000000e+00 0.000000e+00 0.000000e+00
 outer loop
  vertex 1.000000e+00 3.341719e-01 -3.710312e-01
  vertex 1.000000e+00 5.561146e-01 -3.710312e-01
  vertex 1.000000e+00 6.666542e-01 -6.855156e-01
 endloop
endfacet
facet normal -0.000000e+00 0.000000e+00 -1.000000e+00
 outer loop
  vertex 1.000000e+00 5.561146e-01 -3.710312e-01
  vertex 6.644383e-01 4.404041e-01 -3.710312e-01
  vertex 7.214862e-01 7.192777e-01 -3.710312e-01
 endloop
endfacet
facet normal 1.000000e+00 0.000000e+00 0.000000e+00
 outer loop
  vertex -1.000000e+00 5.486795e-01 -2.827337e-02
  vertex -1.000000e+00 7.743398e-01 1.431055e-01
  vertex -1.000000e+00 6.080352e-01 1.278277e-01
 endloop
endfacet
facet normal 1.000000e+00 0.000000e+00 0.000000e+00
 outer loop
  vertex -1.000000e+00 7.743398e-01 1.431055e-01
  vertex -1.000000e+00 5.486795e-01 -2.827337e-02
  vertex -1.000000e+00 7.743398e-01 -1.779160e-01
 endloop
endfacet
facet normal 1.000000e+00 0.000000e+00 0.000000e+00
 outer loop
  vertex -1.000000e+00 5.553272e-01 -3.371295e-01
  vertex -1.000000e+00 5.486795e-01 -2.827337e-02
  vertex -1.000000e+00 4.391676e-01 -1.851301e-01
 endloop
endfacet
facet normal 1.000000e+00 0.000000e+00 0.000000e+00
 outer loop
  vertex -1.000000e+00 5.486795e-01 -2.827337e-02
  vertex -1.000000e+00 5.553272e-01 -3.371295e-01
  vertex -1.000000e+00 7.743398e-01 -1.779160e-01
 endloop
endfacet
facet normal 1.000000e+00 0.000000e+00 -0.000000e+00
 outer loop
  vertex -1.000000e+00 4.391676e-01 -1.851301e-01
  vertex -1.000000e+00 5.486795e-01 -2.827337e-02
  vertex -1.000000e+00 3.814221e-01 8.263788e-02
 endloop
endfacet
facet normal 1.000000e+00 0.000000e+00 -0.000000e+00
 outer loop
  vertex -1.000000e+00 5.486795e-01 -2.827337e-02
  vertex -1.000000e+00 6.080352e-01 1.278277e-01
  vertex -1.000000e+00 3.814221e-01 8.263788e-02
 endloop
endfacet
facet normal -1.000000e+00 0.000000e+00 0.000000e+00
 outer loop
  vertex -8.511779e-01 1.122292e-01 4.858633e-01
  vertex -8.511779e-01 1.122292e-01 6.572422e-01
  vertex -8.511779e-01 2.885629e-01 7.429317e-01
 endloop
endfacet
facet normal 0.000000e+00 -1.000000e+00 0.000000e+00
 outer loop
  vertex -8.511779e-01 1.122292e-01 6.572422e-01
  vertex -8.511779e-01 1.122292e-01 4.858633e-01
  vertex -6.113390e-01 1.122292e-01 4.040382e-01
 endloop
endfacet
facet normal -1.000000e+00 0.000000e+00 0.000000e+00
 outer loop
  vertex -8.511779e-01 1.122292e-01 6.572422e-01
  vertex -8.511779e-01 1.122292e-01 8.286211e-01
  vertex -8.511779e-01 2.885629e-01 7.429317e-01
 endloop
endfacet
facet normal 0.000000e+00 -1.000000e+00 0.000000e+00
 outer loop
  vertex -8.511779e-01 1.122292e-01 8.286211e-01
  vertex -8.511779e-01 1.122292e-01 6.572422e-01
  vertex -6.159083e-01 1.122292e-01 7.534540e-01
 endloop
endfacet
facet normal 0.000000e+00 -1.000000e+00 0.000000e+00
 outer loop
  vertex -8.511779e-01 1.122292e-01 6.572422e-01
  vertex -6.113390e-01 1.122292e-01 4.040382e-01
  vertex -6.159083e-01 1.122292e-01 7.534540e-01
 endloop
endfacet
facet normal 1.000000e+00 0.000000e+00 0.000000e+00
 outer loop
  vertex -1.000000e+00 2.590572e-01 -2.496058e-01
  vertex -1.000000e+00 1.828805e-01 5.335323e-02
  vertex -1.000000e+00 1.073930e-01 -1.266841e-01
 endloop
endfacet
facet normal 1.000000e+00 0.000000e+00 0.000000e+00
 outer loop
  vertex -1.000000e+00 1.828805e-01 5.335323e-02
  vertex -1.000000e+00 2.590572e-01 -2.496058e-01
  vertex -1.000000e+00 4.391676e-01 -1.851301e-01
 endloop
endfacet
facet normal 1.000000e+00 -0.000000e+00 0.000000e+00
 outer loop
  vertex -1.000000e+00 1.828805e-01 5.335323e-02
  vertex -1.000000e+00 4.391676e-01 -1.851301e-01
  vertex -1.000000e+00 3.814221e-01 8.263788e-02
 endloop
endfacet
facet normal 1.000000e+00 0.000000e+00 -0.000000e+00
 outer loop
  vertex -1.000000e+00 1.828805e-01 5.335323e-02
  vertex -1.000000e+00 2.812875e-01 2.565615e-01
  vertex -1.000000e+00 8.491138e-02 2.262281e-01
 endloop
endfacet
facet normal 1.000000e+00 0.000000e+00 0.000000e+00
 outer loop
  vertex -1.000000e+00 1.828805e-01 5.335323e-02
  vertex -1.000000e+00 3.814221e-01 8.263788e-02
  vertex -1.000000e+00 2.812875e-01 2.565615e-01
 endloop
endfacet
facet normal -1.000000e+00 -0.000000e+00 0.000000e+00
 outer loop
  vertex -8.511779e-01 1.000000e+00 -2.827337e-02
  vertex -8.511779e-01 7.332533e-01 -1.416293e-01
  vertex -8.511779e-01 8.076922e-01 1.431055e-01
 endloop
endfacet
facet normal 1.000000e+00 0.000000e+00 0.000000e+00
 outer loop
  vertex -1.000000e+00 1.000000e+00 -2.827337e-02
  vertex -1.000000e+00 7.743398e-01 1.431055e-01
  vertex -1.000000e+00 7.743398e-01 -1.779160e-01
 endloop
endfacet
facet normal -1.000000e+00 0.000000e+00 0.000000e+00
 outer loop
  vertex -8.511779e-01 3.611108e-01 4.001739e-01
  vertex -8.511779e-01 1.122292e-01 4.858633e-01
  vertex -8.511779e-01 2.885629e-01 7.429317e-01
 endloop
endfacet
facet normal -1.000000e+00 0.000000e+00 0.000000e+00
 outer loop
  vertex -8.511779e-01 4.961415e-01 -1.416293e-01
  vertex -8.511779e-01 3.341719e-01 -3.710312e-01
  vertex -8.511779e-01 3.054269e-01 -1.788553e-01
 endloop
endfacet
facet normal 0.000000e+00 0.000000e+00 -1.000000e+00
 outer loop
  vertex -8.511779e-01 3.341719e-01 -3.710312e-01
  vertex -5.040821e-01 4.547992e-01 -3.710312e-01
  vertex -6.197807e-01 1.122292e-01 -3.710312e-01
 endloop
endfacet
facet normal 1.000000e+00 0.000000e+00 0.000000e+00
 outer loop
  vertex -1.000000e+00 2.590572e-01 -2.496058e-01
  vertex -1.000000e+00 1.073930e-01 -1.266841e-01
  vertex -1.000000e+00 9.990162e-02 -3.250682e-01
 endloop
endfacet
facet normal 1.000000e+00 0.000000e+00 0.000000e+00
 outer loop
  vertex -1.000000e+00 2.590572e-01 -2.496058e-01
  vertex -1.000000e+00 9.990162e-02 -3.250682e-01
  vertex -1.000000e+00 3.815467e-01 -3.801785e-01
 endloop
endfacet
facet normal 1.000000e+00 -0.000000e+00 0.000000e+00
 outer loop
  vertex -1.000000e+00 2.590572e-01 -2.496058e-01
  vertex -1.000000e+00 3.815467e-01 -3.801785e-01
  vertex -1.000000e+00 4.391676e-01 -1.851301e-01
 endloop
endfacet
facet normal 1.000000e+00 0.000000e+00 0.000000e+00
 outer loop
  vertex -1.000000e+00 5.070292e-01 2.608255e-01
  vertex -1.000000e+00 4.741146e-01 5.510488e-01
  vertex -1.000000e+00 3.915891e-01 3.947114e-01
 endloop
endfacet
facet normal 1.000000e+00 0.000000e+00 0.000000e+00
 outer loop
  vertex -1.000000e+00 4.741146e-01 5.510488e-01
  vertex -1.000000e+00 5.070292e-01 2.608255e-01
  vertex -1.000000e+00 7.386325e-01 4.243791e-01
 endloop
endfacet
facet normal 1.000000e+00 0.000000e+00 0.000000e+00
 outer loop
  vertex -1.000000e+00 4.741146e-01 5.510488e-01
  vertex -1.000000e+00 2.151189e-01 7.126084e-01
  vertex -1.000000e+00 3.915891e-01 3.947114e-01
 endloop
endfacet
facet normal 1.000000e+00 -0.000000e+00 0.000000e+00
 outer loop
  vertex -1.000000e+00 2.151189e-01 7.126084e-01
  vertex -1.000000e+00 4.741146e-01 5.510488e-01
  vertex -1.000000e+00 4.451433e-01 7.883045e-01
 endloop
endfacet
facet normal 1.000000e+00 -0.000000e+00 0.000000e+00
 outer loop
  vertex -1.000000e+00 4.741146e-01 5.510488e-01
  vertex -1.000000e+00 7.386325e-01 4.243791e-01
  vertex -1.000000e+00 7.193499e-01 7.091341e-01
 endloop
endfacet
facet normal 1.000000e+00 0.000000e+00 -0.000000e+00
 outer loop
  vertex -1.000000e+00 4.741146e-01 5.510488e-01
  vertex -1.000000e+00 7.193499e-01 7.091341e-01
  vertex -1.000000e+00 4.451433e-01 7.883045e-01
 endloop
endfacet
facet normal 0.000000e+00 -1.000000e+00 0.000000e+00
 outer loop
  vertex -8.511779e-01 1.122292e-01 -1.996523e-01
  vertex -6.197807e-01 1.122292e-01 -3.710312e-01
  vertex -5.658701e-01 1.122292e-01 -8.514840e-02
 endloop
endfacet
facet normal -1.000000e+00 0.000000e+00 -0.000000e+00
 outer loop
  vertex -8.511779e-01 5.561146e-01 8.777261e-02
  vertex -8.511779e-01 7.332533e-01 -1.416293e-01
  vertex -8.511779e-01 4.961415e-01 -1.416293e-01
 endloop
endfacet
facet normal -1.000000e+00 0.000000e+00 0.000000e+00
 outer loop
  vertex -8.511779e-01 5.561146e-01 8.777261e-02
  vertex -8.511779e-01 8.076922e-01 1.431055e-01
  vertex -8.511779e-01 7.332533e-01 -1.416293e-01
 endloop
endfacet
facet normal -1.000000e+00 0.000000e+00 0.000000e+00
 outer loop
  vertex -8.511779e-01 5.561146e-01 8.777261e-02
  vertex -8.511779e-01 4.961415e-01 -1.416293e-01
  vertex -8.511779e-01 4.059247e-01 4.496706e-03
 endloop
endfacet
facet normal -1.000000e+00 0.000000e+00 0.000000e+00
 outer loop
  vertex -8.511779e-01 5.561146e-01 8.777261e-02
  vertex -8.511779e-01 4.585935e-01 2.439612e-01
  vertex -8.511779e-01 8.076922e-01 1.431055e-01
 endloop
endfacet
facet normal -1.000000e+00 0.000000e+00 -0.000000e+00
 outer loop
  vertex -8.511779e-01 4.585935e-01 2.439612e-01
  vertex -8.511779e-01 5.561146e-01 8.777261e-02
  vertex -8.511779e-01 4.059247e-01 4.496706e-03
 endloop
endfacet
facet normal 1.000000e+00 0.000000e+00 0.000000e+00
 outer loop
  vertex -1.000000e+00 7.743398e-01 1.431055e-01
  vertex -1.000000e+00 7.386325e-01 4.243791e-01
  vertex -1.000000e+00 6.080352e-01 1.278277e-01
 endloop
endfacet
facet normal 1.000000e+00 0.000000e+00 0.000000e+00
 outer loop
  vertex -1.000000e+00 1.261526e-01 4.206062e-01
  vertex -1.000000e+00 8.491138e-02 2.262281e-01
  vertex -1.000000e+00 2.812875e-01 2.565615e-01
 endloop
endfacet
facet normal 1.000000e+00 0.000000e+00 0.000000e+00
 outer loop
  vertex -1.000000e+00 1.261526e-01 4.206062e-01
  vertex -1.000000e+00 2.812875e-01 2.565615e-01
  vertex -1.000000e+00 3.915891e-01 3.947114e-01
 endloop
endfacet
facet normal 1.000000e+00 0.000000e+00 0.000000e+00
 outer loop
  vertex -1.000000e+00 1.261526e-01 4.206062e-01
  vertex -1.000000e+00 -1.707050e-01 4.470952e-01
  vertex -1.000000e+00 8.491138e-02 2.262281e-01
 endloop
endfacet
facet normal 1.000000e+00 -0.000000e+00 0.000000e+00
 outer loop
  vertex -1.000000e+00 1.261526e-01 4.206062e-01
  vertex -1.000000e+00 3.915891e-01 3.947114e-01
  vertex -1.000000e+00 2.151189e-01 7.126084e-01
 endloop
endfacet
facet normal 1.000000e+00 0.000000e+00 -0.000000e+00
 outer loop
  vertex -1.000000e+00 1.261526e-01 4.206062e-01
  vertex -1.000000e+00 2.151189e-01 7.126084e-01
  vertex -1.000000e+00 2.699223e-02 6.103722e-01
 endloop
endfacet
facet normal 1.000000e+00 0.000000e+00 0.000000e+00
 outer loop
  vertex -1.000000e+00 1.261526e-01 4.206062e-01
  vertex -1.000000e+00 2.699223e-02 6.103722e-01
  vertex -1.000000e+00 -1.707050e-01 4.470952e-01
 endloop
endfacet
facet normal 1.000000e+00 0.000000e+00 0.000000e+00
 outer loop
  vertex -1.000000e+00 6.080352e-01 1.278277e-01
  vertex -1.000000e+00 5.070292e-01 2.608255e-01
  vertex -1.000000e+00 3.814221e-01 8.263788e-02
 endloop
endfacet
facet normal 1.000000e+00 -0.000000e+00 0.000000e+00
 outer loop
  vertex -1.000000e+00 5.070292e-01 2.608255e-01
  vertex -1.000000e+00 6.080352e-01 1.278277e-01
  vertex -1.000000e+00 7.386325e-01 4.243791e-01
 endloop
endfacet
facet normal 1.000000e+00 0.000000e+00 0.000000e+00
 outer loop
  vertex -1.000000e+00 2.812875e-01 2.565615e-01
  vertex -1.000000e+00 5.070292e-01 2.608255e-01
  vertex -1.000000e+00 3.915891e-01 3.947114e-01
 endloop
endfacet
facet normal 1.000000e+00 0.000000e+00 0.000000e+00
 outer loop
  vertex -1.000000e+00 5.070292e-01 2.608255e-01
  vertex -1.000000e+00 2.812875e-01 2.565615e-01
  vertex -1.000000e+00 3.814221e-01 8.263788e-02
 endloop
endfacet
facet normal 1.000000e+00 0.000000e+00 0.000000e+00
 outer loop
  vertex -1.000000e+00 5.553272e-01 -3.371295e-01
  vertex -1.000000e+00 4.391676e-01 -1.851301e-01
  vertex -1.000000e+00 3.815467e-01 -3.801785e-01
 endloop
endfacet
facet normal 1.000000e+00 0.000000e+00 0.000000e+00
 outer loop
  vertex -1.000000e+00 7.743398e-01 -1.779160e-01
  vertex -1.000000e+00 5.553272e-01 -3.371295e-01
  vertex -1.000000e+00 8.186880e-01 -3.544964e-01
 endloop
endfacet
facet normal 1.000000e+00 0.000000e+00 0.000000e+00
 outer loop
  vertex -1.000000e+00 5.553272e-01 -3.371295e-01
  vertex -1.000000e+00 7.643832e-01 -5.282734e-01
  vertex -1.000000e+00 8.186880e-01 -3.544964e-01
 endloop
endfacet
facet normal 1.000000e+00 0.000000e+00 0.000000e+00
 outer loop
  vertex -1.000000e+00 5.553272e-01 -3.371295e-01
  vertex -1.000000e+00 5.595009e-01 -7.196562e-01
  vertex -1.000000e+00 7.643832e-01 -5.282734e-01
 endloop
endfacet
facet normal -1.000000e+00 -0.000000e+00 0.000000e+00
 outer loop
  vertex -8.511779e-01 4.961415e-01 -1.416293e-01
  vertex -8.511779e-01 3.054269e-01 -1.788553e-01
  vertex -8.511779e-01 4.059247e-01 4.496706e-03
 endloop
endfacet
facet normal -1.000000e+00 0.000000e+00 0.000000e+00
 outer loop
  vertex -8.511779e-01 4.585935e-01 2.439612e-01
  vertex -8.511779e-01 6.947808e-01 4.633915e-01
  vertex -8.511779e-01 8.076922e-01 1.431055e-01
 endloop
endfacet
facet normal -1.000000e+00 0.000000e+00 0.000000e+00
 outer loop
  vertex -8.511779e-01 3.045370e-01 1.431055e-01
  vertex -8.511779e-01 3.611108e-01 4.001739e-01
  vertex -8.511779e-01 4.585935e-01 2.439612e-01
 endloop
endfacet
facet normal -1.000000e+00 0.000000e+00 0.000000e+00
 outer loop
  vertex -8.511779e-01 3.045370e-01 1.431055e-01
  vertex -8.511779e-01 4.585935e-01 2.439612e-01
  vertex -8.511779e-01 4.059247e-01 4.496706e-03
 endloop
endfacet
facet normal -0.000000e+00 0.000000e+00 -1.000000e+00
 outer loop
  vertex -8.511779e-01 5.561146e-01 1.000000e+00
  vertex -1.000000e+00 3.341719e-01 1.000000e+00
  vertex -1.000000e+00 5.561146e-01 1.000000e+00
 endloop
endfacet
facet normal 0.000000e+00 0.000000e+00 -1.000000e+00
 outer loop
  vertex -1.000000e+00 7.780573e-01 1.000000e+00
  vertex -8.511779e-01 5.561146e-01 1.000000e+00
  vertex -1.000000e+00 5.561146e-01 1.000000e+00
 endloop
endfacet
facet normal 0.000000e+00 0.000000e+00 -1.000000e+00
 outer loop
  vertex -1.000000e+00 3.341719e-01 1.000000e+00
  vertex -8.511779e-01 5.561146e-01 1.000000e+00
  vertex -8.511779e-01 3.341719e-01 1.000000e+00
 endloop
endfacet
facet normal -1.000000e+00 -0.000000e+00 0.000000e+00
 outer loop
  vertex -8.511779e-01 5.561146e-01 1.000000e+00
  vertex -8.511779e-01 4.451433e-01 8.651424e-01
  vertex -8.511779e-01 3.341719e-01 1.000000e+00
 endloop
endfacet
facet normal -1.000000e+00 0.000000e+00 0.000000e+00
 outer loop
  vertex -8.511779e-01 4.451433e-01 8.651424e-01
  vertex -8.511779e-01 5.561146e-01 1.000000e+00
  vertex -8.511779e-01 6.439120e-01 8.146668e-01
 endloop
endfacet
facet normal 0.000000e+00 0.000000e+00 -1.000000e+00
 outer loop
  vertex -8.511779e-01 5.561146e-01 1.000000e+00
  vertex -1.000000e+00 7.780573e-01 1.000000e+00
  vertex -8.511779e-01 7.780573e-01 1.000000e+00
 endloop
endfacet
facet normal -1.000000e+00 0.000000e+00 0.000000e+00
 outer loop
  vertex -8.511779e-01 5.561146e-01 1.000000e+00
  vertex -8.511779e-01 7.780573e-01 1.000000e+00
  vertex -8.511779e-01 6.439120e-01 8.146668e-01
 endloop
endfacet
facet normal 1.000000e+00 0.000000e+00 0.000000e+00
 outer loop
  vertex -1.000000e+00 5.561146e-01 1.000000e+00
  vertex -1.000000e+00 3.341719e-01 1.000000e+00
  vertex -1.000000e+00 4.451433e-01 7.883045e-01
 endloop
endfacet
facet normal 1.000000e+00 0.000000e+00 0.000000e+00
 outer loop
  vertex -1.000000e+00 5.561146e-01 1.000000e+00
  vertex -1.000000e+00 4.451433e-01 7.883045e-01
  vertex -1.000000e+00 6.670860e-01 8.710405e-01
 endloop
endfacet
facet normal 1.000000e+00 0.000000e+00 0.000000e+00
 outer loop
  vertex -1.000000e+00 7.780573e-01 1.000000e+00
  vertex -1.000000e+00 5.561146e-01 1.000000e+00
  vertex -1.000000e+00 6.670860e-01 8.710405e-01
 endloop
endfacet
facet normal -1.000000e+00 0.000000e+00 0.000000e+00
 outer loop
  vertex -8.511779e-01 3.611108e-01 4.001739e-01
  vertex -8.511779e-01 5.132041e-01 5.095909e-01
  vertex -8.511779e-01 4.585935e-01 2.439612e-01
 endloop
endfacet
facet normal -1.000000e+00 0.000000e+00 0.000000e+00
 outer loop
  vertex -8.511779e-01 3.611108e-01 4.001739e-01
  vertex -8.511779e-01 4.783267e-01 6.936779e-01
  vertex -8.511779e-01 5.132041e-01 5.095909e-01
 endloop
endfacet
facet normal -1.000000e+00 0.000000e+00 0.000000e+00
 outer loop
  vertex -8.511779e-01 3.611108e-01 4.001739e-01
  vertex -8.511779e-01 2.885629e-01 7.429317e-01
  vertex -8.511779e-01 4.783267e-01 6.936779e-01
 endloop
endfacet
facet normal -1.000000e+00 -0.000000e+00 0.000000e+00
 outer loop
  vertex -8.511779e-01 6.947808e-01 4.633915e-01
  vertex -8.511779e-01 4.585935e-01 2.439612e-01
  vertex -8.511779e-01 5.132041e-01 5.095909e-01
 endloop
endfacet
facet normal -1.000000e+00 0.000000e+00 0.000000e+00
 outer loop
  vertex -8.511779e-01 6.947808e-01 4.633915e-01
  vertex -8.511779e-01 5.132041e-01 5.095909e-01
  vertex -8.511779e-01 7.866133e-01 6.560108e-01
 endloop
endfacet
facet normal -1.000000e+00 0.000000e+00 0.000000e+00
 outer loop
  vertex -8.511779e-01 6.947808e-01 4.633915e-01
  vertex -8.511779e-01 7.866133e-01 6.560108e-01
  vertex -8.511779e-01 1.000000e+00 4.858633e-01
 endloop
endfacet
facet normal -1.000000e+00 0.000000e+00 -0.000000e+00
 outer loop
  vertex 1.000000e+00 1.122292e-01 -2.827337e-02
  vertex 1.000000e+00 1.122292e-01 -1.996523e-01
  vertex 1.000000e+00 -8.752851e-02 -1.139628e-01
 endloop
endfacet
facet normal 0.000000e+00 -1.000000e+00 0.000000e+00
 outer loop
  vertex 1.000000e+00 1.122292e-01 -1.996523e-01
  vertex 1.000000e+00 1.122292e-01 -2.827337e-02
  vertex 7.990031e-01 1.122292e-01 -1.701713e-01
 endloop
endfacet
facet normal 0.000000e+00 -1.000000e+00 0.000000e+00
 outer loop
  vertex 1.000000e+00 1.122292e-01 -2.827337e-02
  vertex 6.469735e-01 1.122292e-01 -3.542745e-02
  vertex 7.990031e-01 1.122292e-01 -1.701713e-01
 endloop
endfacet
facet normal 0.000000e+00 -1.000000e+00 0.000000e+00
 outer loop
  vertex 6.469735e-01 1.122292e-01 -3.542745e-02
  vertex 1.000000e+00 1.122292e-01 -2.827337e-02
  vertex 7.673150e-01 1.122292e-01 3.555646e-01
 endloop
endfacet
facet normal -1.000000e+00 -0.000000e+00 0.000000e+00
 outer loop
  vertex 1.000000e+00 1.122292e-01 -2.827337e-02
  vertex 1.000000e+00 -8.752851e-02 -1.139628e-01
  vertex 1.000000e+00 -2.592718e-01 1.926656e-02
 endloop
endfacet
facet normal 0.000000e+00 -0.000000e+00 -1.000000e+00
 outer loop
  vertex 7.686028e-01 1.000000e+00 -3.710312e-01
  vertex 1.000000e+00 7.780573e-01 -3.710312e-01
  vertex 7.214862e-01 7.192777e-01 -3.710312e-01
 endloop
endfacet
facet normal -1.000000e+00 0.000000e+00 -0.000000e+00
 outer loop
  vertex 1.000000e+00 7.780573e-01 -3.710312e-01
  vertex 1.000000e+00 1.000000e+00 -6.855156e-01
  vertex 1.000000e+00 6.666542e-01 -6.855156e-01
 endloop
endfacet
facet normal 1.000000e+00 -0.000000e+00 0.000000e+00
 outer loop
  vertex -1.000000e+00 -1.658281e-01 7.034539e-01
  vertex -1.000000e+00 2.699223e-02 6.103722e-01
  vertex -1.000000e+00 3.936980e-02 8.118017e-01
 endloop
endfacet
facet normal 1.000000e+00 0.000000e+00 0.000000e+00
 outer loop
  vertex -1.000000e+00 2.699223e-02 6.103722e-01
  vertex -1.000000e+00 -1.658281e-01 7.034539e-01
  vertex -1.000000e+00 -1.707050e-01 4.470952e-01
 endloop
endfacet
facet normal 1.000000e+00 0.000000e+00 0.000000e+00
 outer loop
  vertex -1.000000e+00 -1.658281e-01 7.034539e-01
  vertex -1.000000e+00 3.936980e-02 8.118017e-01
  vertex -1.000000e+00 -1.658281e-01 1.000000e+00
 endloop
endfacet
facet normal 1.000000e+00 0.000000e+00 -0.000000e+00
 outer loop
  vertex -1.000000e+00 -1.707050e-01 4.470952e-01
  vertex -1.000000e+00 -1.658281e-01 7.034539e-01
  vertex -1.000000e+00 -6.096630e-01 2.732187e-01
 endloop
endfacet
facet normal 1.000000e+00 0.000000e+00 0.000000e+00
 outer loop
  vertex -1.000000e+00 3.341719e-01 1.000000e+00
  vertex -1.000000e+00 2.151189e-01 7.126084e-01
  vertex -1.000000e+00 4.451433e-01 7.883045e-01
 endloop
endfacet
facet normal 1.000000e+00 0.000000e+00 0.000000e+00
 outer loop
  vertex -1.000000e+00 2.151189e-01 7.126084e-01
  vertex -1.000000e+00 3.936980e-02 8.118017e-01
  vertex -1.000000e+00 2.699223e-02 6.103722e-01
 endloop
endfacet
facet normal -1.000000e+00 0.000000e+00 0.000000e+00
 outer loop
  vertex -8.511779e-01 3.341719e-01 1.000000e+00
  vertex -8.511779e-01 2.885629e-01 7.429317e-01
  vertex -8.511779e-01 1.122292e-01 8.286211e-01
 endloop
endfacet
facet normal -1.000000e+00 0.000000e+00 -0.000000e+00
 outer loop
  vertex -8.511779e-01 3.341719e-01 1.000000e+00
  vertex -8.511779e-01 4.451433e-01 8.651424e-01
  vertex -8.511779e-01 2.885629e-01 7.429317e-01
 endloop
endfacet
facet normal -1.000000e+00 0.000000e+00 0.000000e+00
 outer loop
  vertex -8.511779e-01 5.132041e-01 5.095909e-01
  vertex -8.511779e-01 4.783267e-01 6.936779e-01
  vertex -8.511779e-01 7.866133e-01 6.560108e-01
 endloop
endfacet
facet normal -1.000000e+00 0.000000e+00 0.000000e+00
 outer loop
  vertex -8.511779e-01 4.783267e-01 6.936779e-01
  vertex -8.511779e-01 2.885629e-01 7.429317e-01
  vertex -8.511779e-01 4.451433e-01 8.651424e-01
 endloop
endfacet
facet normal -1.000000e+00 0.000000e+00 0.000000e+00
 outer loop
  vertex -8.511779e-01 4.783267e-01 6.936779e-01
  vertex -8.511779e-01 4.451433e-01 8.651424e-01
  vertex -8.511779e-01 6.439120e-01 8.146668e-01
 endloop
endfacet
facet normal -1.000000e+00 0.000000e+00 0.000000e+00
 outer loop
  vertex -8.511779e-01 4.783267e-01 6.936779e-01
  vertex -8.511779e-01 6.439120e-01 8.146668e-01
  vertex -8.511779e-01 7.866133e-01 6.560108e-01
 endloop
endfacet
facet normal 1.000000e+00 0.000000e+00 -0.000000e+00
 outer loop
  vertex -1.000000e+00 7.386325e-01 4.243791e-01
  vertex -1.000000e+00 8.395309e-01 5.742419e-01
  vertex -1.000000e+00 7.193499e-01 7.091341e-01
 endloop
endfacet
facet normal 1.000000e+00 0.000000e+00 0.000000e+00
 outer loop
  vertex -1.000000e+00 8.395309e-01 5.742419e-01
  vertex -1.000000e+00 7.386325e-01 4.243791e-01
  vertex -1.000000e+00 1.000000e+00 4.858633e-01
 endloop
endfacet
facet normal 0.000000e+00 -1.000000e+00 0.000000e+00
 outer loop
  vertex 1.000000e+00 1.122292e-01 6.572422e-01
  vertex 1.000000e+00 1.122292e-01 8.286211e-01
  vertex 6.657637e-01 1.122292e-01 6.778315e-01
 endloop
endfacet
facet normal -1.000000e+00 0.000000e+00 -0.000000e+00
 outer loop
  vertex 1.000000e+00 1.122292e-01 8.286211e-01
  vertex 1.000000e+00 1.122292e-01 6.572422e-01
  vertex 1.000000e+00 -1.148305e-01 7.714827e-01
 endloop
endfacet
facet normal -1.000000e+00 0.000000e+00 -0.000000e+00
 outer loop
  vertex 1.000000e+00 1.122292e-01 6.572422e-01
  vertex 1.000000e+00 1.122292e-01 4.858633e-01
  vertex 1.000000e+00 -2.366866e-01 5.715528e-01
 endloop
endfacet
facet normal 0.000000e+00 -1.000000e+00 0.000000e+00
 outer loop
  vertex 1.000000e+00 1.122292e-01 4.858633e-01
  vertex 1.000000e+00 1.122292e-01 6.572422e-01
  vertex 8.129041e-01 1.122292e-01 5.470641e-01
 endloop
endfacet
facet normal -0.000000e+00 -1.000000e+00 0.000000e+00
 outer loop
  vertex 1.000000e+00 1.122292e-01 6.572422e-01
  vertex 6.657637e-01 1.122292e-01 6.778315e-01
  vertex 8.129041e-01 1.122292e-01 5.470641e-01
 endloop
endfacet
facet normal -1.000000e+00 -0.000000e+00 0.000000e+00
 outer loop
  vertex 1.000000e+00 1.122292e-01 6.572422e-01
  vertex 1.000000e+00 -2.366866e-01 5.715528e-01
  vertex 1.000000e+00 -1.148305e-01 7.714827e-01
 endloop
endfacet
facet normal 0.000000e+00 0.000000e+00 -1.000000e+00
 outer loop
  vertex 6.644383e-01 4.404041e-01 -3.710312e-01
  vertex 1.000000e+00 3.341719e-01 -3.710312e-01
  vertex 7.686028e-01 1.122292e-01 -3.710312e-01
 endloop
endfacet
facet normal -1.000000e+00 0.000000e+00 -0.000000e+00
 outer loop
  vertex 1.000000e+00 3.341719e-01 -3.710312e-01
  vertex 1.000000e+00 6.666542e-01 -6.855156e-01
  vertex 1.000000e+00 2.232006e-01 -6.855156e-01
 endloop
endfacet
facet normal 1.000000e+00 -0.000000e+00 0.000000e+00
 outer loop
  vertex -1.000000e+00 4.451433e-01 7.883045e-01
  vertex -1.000000e+00 7.193499e-01 7.091341e-01
  vertex -1.000000e+00 6.670860e-01 8.710405e-01
 endloop
endfacet
facet normal 0.000000e+00 -1.000000e+00 0.000000e+00
 outer loop
  vertex -6.011779e-01 1.122292e-01 1.000000e+00
  vertex -8.511779e-01 1.122292e-01 8.286211e-01
  vertex -6.159083e-01 1.122292e-01 7.534540e-01
 endloop
endfacet
facet normal -0.000000e+00 -1.000000e+00 0.000000e+00
 outer loop
  vertex 1.000000e+00 1.122292e-01 8.286211e-01
  vertex 7.872055e-01 1.122292e-01 1.000000e+00
  vertex 6.657637e-01 1.122292e-01 6.778315e-01
 endloop
endfacet
facet normal -1.000000e+00 -0.000000e+00 0.000000e+00
 outer loop
  vertex 1.000000e+00 1.122292e-01 8.286211e-01
  vertex 1.000000e+00 -1.148305e-01 7.714827e-01
  vertex 1.000000e+00 -1.658281e-01 1.000000e+00
 endloop
endfacet
facet normal 0.000000e+00 -1.000000e+00 0.000000e+00
 outer loop
  vertex 7.673150e-01 1.122292e-01 3.555646e-01
  vertex 1.000000e+00 1.122292e-01 4.858633e-01
  vertex 8.129041e-01 1.122292e-01 5.470641e-01
 endloop
endfacet
facet normal -0.000000e+00 -1.000000e+00 -0.000000e+00
 outer loop
  vertex -8.511779e-01 1.000000e+00 6.572422e-01
  vertex -1.000000e+00 1.000000e+00 6.572422e-01
  vertex -8.511779e-01 1.000000e+00 4.858633e-01
 endloop
endfacet
facet normal 0.000000e+00 -1.000000e+00 -0.000000e+00
 outer loop
  vertex -8.511779e-01 1.000000e+00 8.286211e-01
  vertex -1.000000e+00 1.000000e+00 6.572422e-01
  vertex -8.511779e-01 1.000000e+00 6.572422e-01
 endloop
endfacet
facet normal 1.000000e+00 0.000000e+00 0.000000e+00
 outer loop
  vertex -1.000000e+00 1.000000e+00 6.572422e-01
  vertex -1.000000e+00 7.193499e-01 7.091341e-01
  vertex -1.000000e+00 8.395309e-01 5.742419e-01
 endloop
endfacet
facet normal 1.000000e+00 -0.000000e+00 0.000000e+00
 outer loop
  vertex -1.000000e+00 7.193499e-01 7.091341e-01
  vertex -1.000000e+00 1.000000e+00 6.572422e-01
  vertex -1.000000e+00 1.000000e+00 8.286211e-01
 endloop
endfacet
facet normal 1.000000e+00 0.000000e+00 0.000000e+00
 outer loop
  vertex -1.000000e+00 1.000000e+00 6.572422e-01
  vertex -1.000000e+00 8.395309e-01 5.742419e-01
  vertex -1.000000e+00 1.000000e+00 4.858633e-01
 endloop
endfacet
facet normal 0.000000e+00 -1.000000e+00 0.000000e+00
 outer loop
  vertex -1.000000e+00 1.000000e+00 6.572422e-01
  vertex -1.000000e+00 1.000000e+00 4.858633e-01
  vertex -8.511779e-01 1.000000e+00 4.858633e-01
 endloop
endfacet
facet normal 0.000000e+00 -1.000000e+00 0.000000e+00
 outer loop
  vertex -1.000000e+00 1.000000e+00 6.572422e-01
  vertex -8.511779e-01 1.000000e+00 8.286211e-01
  vertex -1.000000e+00 1.000000e+00 8.286211e-01
 endloop
endfacet
facet normal -1.000000e+00 0.000000e+00 0.000000e+00
 outer loop
  vertex -8.511779e-01 7.866133e-01 6.560108e-01
  vertex -8.511779e-01 1.000000e+00 6.572422e-01
  vertex -8.511779e-01 1.000000e+00 4.858633e-01
 endloop
endfacet
facet normal -1.000000e+00 0.000000e+00 -0.000000e+00
 outer loop
  vertex -8.511779e-01 1.000000e+00 8.286211e-01
  vertex -8.511779e-01 1.000000e+00 6.572422e-01
  vertex -8.511779e-01 7.866133e-01 6.560108e-01
 endloop
endfacet
facet normal 1.000000e+00 0.000000e+00 0.000000e+00
 outer loop
  vertex -1.000000e+00 6.670860e-01 8.710405e-01
  vertex -1.000000e+00 7.193499e-01 7.091341e-01
  vertex -1.000000e+00 1.000000e+00 8.286211e-01
 endloop
endfacet
facet normal -1.000000e+00 0.000000e+00 -0.000000e+00
 outer loop
  vertex -8.511779e-01 7.780573e-01 1.000000e+00
  vertex -8.511779e-01 7.866133e-01 6.560108e-01
  vertex -8.511779e-01 6.439120e-01 8.146668e-01
 endloop
endfacet
facet normal -1.000000e+00 0.000000e+00 0.000000e+00
 outer loop
  vertex -8.511779e-01 7.780573e-01 1.000000e+00
  vertex -8.511779e-01 1.000000e+00 8.286211e-01
  vertex -8.511779e-01 7.866133e-01 6.560108e-01
 endloop
endfacet
facet normal 1.000000e+00 0.000000e+00 0.000000e+00
 outer loop
  vertex -1.000000e+00 7.780573e-01 1.000000e+00
  vertex -1.000000e+00 6.670860e-01 8.710405e-01
  vertex -1.000000e+00 1.000000e+00 8.286211e-01
 endloop
endfacet
facet normal -0.000000e+00 1.000000e+00 0.000000e+00
 outer loop
  vertex 0.000000e+00 -1.000000e+00 0.000000e+00
  vertex 1.000000e+00 -1.000000e+00 0.000000e+00
  vertex 5.000000e-01 -1.000000e+00 -5.000000e-01
 endloop
endfacet
facet normal 0.000000e+00 1.000000e+00 0.000000e+00
 outer loop
  vertex 1.000000e+00 -1.000000e+00 0.000000e+00
  vertex 0.000000e+00 -1.000000e+00 0.000000e+00
  vertex 5.000000e-01 -1.000000e+00 1.000000e+00
 endloop
endfacet
facet normal -1.000000e+00 0.000000e+00 0.000000e+00
 outer loop
  vertex 1.000000e+00 -4.771867e-01 -2.853417e-01
  vertex 1.000000e+00 -1.000000e+00 0.000000e+00
  vertex 1.000000e+00 -4.885987e-01 3.153785e-01
 endloop
endfacet
facet normal 0.000000e+00 0.000000e+00 -1.000000e+00
 outer loop
  vertex 7.441103e-02 1.122292e-01 -3.710312e-01
  vertex -3.883834e-01 1.122292e-01 -3.710312e-01
  vertex -1.569862e-01 5.561146e-01 -3.710312e-01
 endloop
endfacet
facet normal 0.000000e+00 -1.000000e+00 0.000000e+00
 outer loop
  vertex -3.883834e-01 1.122292e-01 -3.710312e-01
  vertex 7.441103e-02 1.122292e-01 -3.710312e-01
  vertex -4.466543e-02 1.122292e-01 -3.037865e-02
 endloop
endfacet
facet normal 0.000000e+00 0.000000e+00 -1.000000e+00
 outer loop
  vertex 7.441103e-02 1.122292e-01 -3.710312e-01
  vertex -1.569862e-01 5.561146e-01 -3.710312e-01
  vertex 3.320260e-01 5.561146e-01 -3.710312e-01
 endloop
endfacet
facet normal 0.000000e+00 -1.000000e+00 0.000000e+00
 outer loop
  vertex 7.441103e-02 1.122292e-01 -3.710312e-01
  vertex 5.372055e-01 1.122292e-01 -3.710312e-01
  vertex 3.058083e-01 1.122292e-01 5.559528e-02
 endloop
endfacet
facet normal 0.000000e+00 0.000000e+00 -1.000000e+00
 outer loop
  vertex 5.372055e-01 1.122292e-01 -3.710312e-01
  vertex 7.441103e-02 1.122292e-01 -3.710312e-01
  vertex 3.320260e-01 5.561146e-01 -3.710312e-01
 endloop
endfacet
facet normal 0.000000e+00 -1.000000e+00 0.000000e+00
 outer loop
  vertex 7.441103e-02 1.122292e-01 -3.710312e-01
  vertex 3.058083e-01 1.122292e-01 5.559528e-02
  vertex -4.466543e-02 1.122292e-01 -3.037865e-02
 endloop
endfacet
facet normal 0.000000e+00 -1.000000e+00 0.000000e+00
 outer loop
  vertex 7.441103e-02 1.000000e+00 -3.710312e-01
  vertex 7.441103e-02 1.000000e+00 -1.000000e+00
  vertex 6.647005e-01 1.000000e+00 -6.898554e-01
 endloop
endfacet
facet normal 0.000000e+00 -1.000000e+00 0.000000e+00
 outer loop
  vertex 7.441103e-02 1.000000e+00 -1.000000e+00
  vertex 7.441103e-02 1.000000e+00 -3.710312e-01
  vertex -2.680384e-01 1.000000e+00 -7.041548e-01
 endloop
endfacet
facet normal -0.000000e+00 -1.000000e+00 0.000000e+00
 outer loop
  vertex 7.441103e-02 1.000000e+00 -3.710312e-01
  vertex -3.883834e-01 1.000000e+00 -3.710312e-01
  vertex -2.680384e-01 1.000000e+00 -7.041548e-01
 endloop
endfacet
facet normal 0.000000e+00 0.000000e+00 -1.000000e+00
 outer loop
  vertex -3.883834e-01 1.000000e+00 -3.710312e-01
  vertex 7.441103e-02 1.000000e+00 -3.710312e-01
  vertex -3.661206e-01 7.293493e-01 -3.710312e-01
 endloop
endfacet
facet normal 0.000000e+00 0.000000e+00 -1.000000e+00
 outer loop
  vertex 7.441103e-02 1.000000e+00 -3.710312e-01
  vertex 5.372055e-01 1.000000e+00 -3.710312e-01
  vertex 3.320260e-01 5.561146e-01 -3.710312e-01
 endloop
endfacet
facet normal -0.000000e+00 -1.000000e+00 -0.000000e+00
 outer loop
  vertex 5.372055e-01 1.000000e+00 -3.710312e-01
  vertex 7.441103e-02 1.000000e+00 -3.710312e-01
  vertex 6.647005e-01 1.000000e+00 -6.898554e-01
 endloop
endfacet
facet normal 0.000000e+00 -0.000000e+00 -1.000000e+00
 outer loop
  vertex 7.441103e-02 1.000000e+00 -3.710312e-01
  vertex 3.320260e-01 5.561146e-01 -3.710312e-01
  vertex -1.569862e-01 5.561146e-01 -3.710312e-01
 endloop
endfacet
facet normal 0.000000e+00 0.000000e+00 -1.000000e+00
 outer loop
  vertex 7.441103e-02 1.000000e+00 -3.710312e-01
  vertex -1.569862e-01 5.561146e-01 -3.710312e-01
  vertex -3.661206e-01 7.293493e-01 -3.710312e-01
 endloop
endfacet
facet normal 0.000000e+00 -1.000000e+00 0.000000e+00
 outer loop
  vertex 7.441103e-02 1.000000e+00 -1.000000e+00
  vertex 5.372055e-01 1.000000e+00 -1.000000e+00
  vertex 6.647005e-01 1.000000e+00 -6.898554e-01
 endloop
endfacet
facet normal 0.000000e+00 0.000000e+00 1.000000e+00
 outer loop
  vertex 5.372055e-01 1.000000e+00 -1.000000e+00
  vertex 7.441103e-02 1.000000e+00 -1.000000e+00
  vertex 6.485252e-01 6.528645e-01 -1.000000e+00
 endloop
endfacet
facet normal 0.000000e+00 -1.000000e+00 0.000000e+00
 outer loop
  vertex -4.627945e-01 1.000000e+00 -1.000000e+00
  vertex 7.441103e-02 1.000000e+00 -1.000000e+00
  vertex -2.680384e-01 1.000000e+00 -7.041548e-01
 endloop
endfacet
facet normal 0.000000e+00 0.000000e+00 1.000000e+00
 outer loop
  vertex 7.441103e-02 1.000000e+00 -1.000000e+00
  vertex -4.627945e-01 1.000000e+00 -1.000000e+00
  vertex -2.374199e-01 6.656959e-01 -1.000000e+00
 endloop
endfacet
facet normal 0.000000e+00 0.000000e+00 1.000000e+00
 outer loop
  vertex 7.441103e-02 1.000000e+00 -1.000000e+00
  vertex 4.715220e-01 3.341719e-01 -1.000000e+00
  vertex 6.485252e-01 6.528645e-01 -1.000000e+00
 endloop
endfacet
facet normal 0.000000e+00 0.000000e+00 1.000000e+00
 outer loop
  vertex 7.441103e-02 1.000000e+00 -1.000000e+00
  vertex -2.374199e-01 6.656959e-01 -1.000000e+00
  vertex 4.715220e-01 3.341719e-01 -1.000000e+00
 endloop
endfacet
facet normal 0.000000e+00 1.000000e+00 0.000000e+00
 outer loop
  vertex 0.000000e+00 -1.000000e+00 -1.000000e+00
  vertex 0.000000e+00 -1.000000e+00 0.000000e+00
  vertex 5.000000e-01 -1.000000e+00 -5.000000e-01
 endloop
endfacet
facet normal 0.000000e+00 1.000000e+00 0.000000e+00
 outer loop
  vertex 0.000000e+00 -1.000000e+00 0.000000e+00
  vertex 0.000000e+00 -1.000000e+00 -1.000000e+00
  vertex -5.000000e-01 -1.000000e+00 -5.000000e-01
 endloop
endfacet
facet normal 0.000000e+00 0.000000e+00 1.000000e+00
 outer loop
  vertex -3.751996e-01 -4.975279e-01 -1.000000e+00
  vertex 0.000000e+00 -1.000000e+00 -1.000000e+00
  vertex 3.772741e-01 -5.012583e-01 -1.000000e+00
 endloop
endfacet
facet normal 0.000000e+00 0.000000e+00 1.000000e+00
 outer loop
  vertex 4.963435e-03 1.199524e-03 -1.000000e+00
  vertex -4.668644e-01 3.341719e-01 -1.000000e+00
  vertex -4.057388e-01 -7.999249e-02 -1.000000e+00
 endloop
endfacet
facet normal -0.000000e+00 0.000000e+00 1.000000e+00
 outer loop
  vertex -4.668644e-01 3.341719e-01 -1.000000e+00
  vertex 4.963435e-03 1.199524e-03 -1.000000e+00
  vertex -2.374199e-01 6.656959e-01 -1.000000e+00
 endloop
endfacet
facet normal 0.000000e+00 0.000000e+00 1.000000e+00
 outer loop
  vertex 4.963435e-03 1.199524e-03 -1.000000e+00
  vertex -3.751996e-01 -4.975279e-01 -1.000000e+00
  vertex 3.772741e-01 -5.012583e-01 -1.000000e+00
 endloop
endfacet
facet normal 0.000000e+00 -0.000000e+00 1.000000e+00
 outer loop
  vertex -3.751996e-01 -4.975279e-01 -1.000000e+00
  vertex 4.963435e-03 1.199524e-03 -1.000000e+00
  vertex -4.057388e-01 -7.999249e-02 -1.000000e+00
 endloop
endfacet
facet normal 0.000000e+00 0.000000e+00 1.000000e+00
 outer loop
  vertex 4.715220e-01 3.341719e-01 -1.000000e+00
  vertex 4.963435e-03 1.199524e-03 -1.000000e+00
  vertex 6.603762e-01 -1.658281e-01 -1.000000e+00
 endloop
endfacet
facet normal 0.000000e+00 -0.000000e+00 1.000000e+00
 outer loop
  vertex 4.963435e-03 1.199524e-03 -1.000000e+00
  vertex 4.715220e-01 3.341719e-01 -1.000000e+00
  vertex -2.374199e-01 6.656959e-01 -1.000000e+00
 endloop
endfacet
facet normal 0.000000e+00 0.000000e+00 1.000000e+00
 outer loop
  vertex 4.963435e-03 1.199524e-03 -1.000000e+00
  vertex 3.772741e-01 -5.012583e-01 -1.000000e+00
  vertex 6.603762e-01 -1.658281e-01 -1.000000e+00
 endloop
endfacet
facet normal 0.000000e+00 0.000000e+00 -1.000000e+00
 outer loop
  vertex -1.569862e-01 5.561146e-01 -3.710312e-01
  vertex -3.883834e-01 1.122292e-01 -3.710312e-01
  vertex -5.040821e-01 4.547992e-01 -3.710312e-01
 endloop
endfacet
facet normal 0.000000e+00 0.000000e+00 -1.000000e+00
 outer loop
  vertex -3.883834e-01 1.122292e-01 -3.710312e-01
  vertex -6.197807e-01 1.122292e-01 -3.710312e-01
  vertex -5.040821e-01 4.547992e-01 -3.710312e-01
 endloop
endfacet
facet normal 0.000000e+00 -1.000000e+00 0.000000e+00
 outer loop
  vertex -3.883834e-01 1.122292e-01 -3.710312e-01
  vertex -5.658701e-01 1.122292e-01 -8.514840e-02
  vertex -6.197807e-01 1.122292e-01 -3.710312e-01
 endloop
endfacet
facet normal 0.000000e+00 -1.000000e+00 0.000000e+00
 outer loop
  vertex -3.883834e-01 1.122292e-01 -3.710312e-01
  vertex -4.466543e-02 1.122292e-01 -3.037865e-02
  vertex -5.658701e-01 1.122292e-01 -8.514840e-02
 endloop
endfacet
facet normal 0.000000e+00 -1.000000e+00 -0.000000e+00
 outer loop
  vertex -3.883834e-01 1.000000e+00 -3.710312e-01
  vertex -6.197807e-01 1.000000e+00 -6.625415e-01
  vertex -2.680384e-01 1.000000e+00 -7.041548e-01
 endloop
endfacet
facet normal 0.000000e+00 -0.000000e+00 -1.000000e+00
 outer loop
  vertex -3.883834e-01 1.000000e+00 -3.710312e-01
  vertex -3.661206e-01 7.293493e-01 -3.710312e-01
  vertex -6.304513e-01 6.670860e-01 -3.710312e-01
 endloop
endfacet
facet normal 0.000000e+00 0.000000e+00 -1.000000e+00
 outer loop
  vertex 3.320260e-01 5.561146e-01 -3.710312e-01
  vertex 5.372055e-01 1.000000e+00 -3.710312e-01
  vertex 7.214862e-01 7.192777e-01 -3.710312e-01
 endloop
endfacet
facet normal -0.000000e+00 -1.000000e+00 0.000000e+00
 outer loop
  vertex 7.686028e-01 1.000000e+00 -3.710312e-01
  vertex 5.372055e-01 1.000000e+00 -3.710312e-01
  vertex 6.647005e-01 1.000000e+00 -6.898554e-01
 endloop
endfacet
facet normal 0.000000e+00 0.000000e+00 -1.000000e+00
 outer loop
  vertex 5.372055e-01 1.000000e+00 -3.710312e-01
  vertex 7.686028e-01 1.000000e+00 -3.710312e-01
  vertex 7.214862e-01 7.192777e-01 -3.710312e-01
 endloop
endfacet
facet normal 1.000000e+00 0.000000e+00 0.000000e+00
 outer loop
  vertex -1.000000e+00 1.000000e+00 -6.855156e-01
  vertex -1.000000e+00 7.643832e-01 -5.282734e-01
  vertex -1.000000e+00 5.595009e-01 -7.196562e-01
 endloop
endfacet
facet normal 0.000000e+00 0.000000e+00 1.000000e+00
 outer loop
  vertex -6.405909e-01 6.681603e-01 -1.000000e+00
  vertex -4.668644e-01 3.341719e-01 -1.000000e+00
  vertex -2.374199e-01 6.656959e-01 -1.000000e+00
 endloop
endfacet
facet normal 0.000000e+00 -1.000000e+00 0.000000e+00
 outer loop
  vertex -4.346440e-01 1.122292e-01 5.856887e-01
  vertex -3.511779e-01 1.122292e-01 1.000000e+00
  vertex -6.159083e-01 1.122292e-01 7.534540e-01
 endloop
endfacet
facet normal -0.000000e+00 -1.000000e+00 0.000000e+00
 outer loop
  vertex -3.511779e-01 1.122292e-01 1.000000e+00
  vertex -6.011779e-01 1.122292e-01 1.000000e+00
  vertex -6.159083e-01 1.122292e-01 7.534540e-01
 endloop
endfacet
facet normal 0.000000e+00 -0.000000e+00 -1.000000e+00
 outer loop
  vertex -6.011779e-01 1.122292e-01 1.000000e+00
  vertex -3.511779e-01 1.122292e-01 1.000000e+00
  vertex -6.681018e-01 -2.608424e-01 1.000000e+00
 endloop
endfacet
facet normal 0.000000e+00 0.000000e+00 -1.000000e+00
 outer loop
  vertex -3.511779e-01 1.122292e-01 1.000000e+00
  vertex -3.815290e-01 -5.089095e-01 1.000000e+00
  vertex -6.681018e-01 -2.608424e-01 1.000000e+00
 endloop
endfacet
facet normal 0.000000e+00 -1.000000e+00 0.000000e+00
 outer loop
  vertex 3.616166e-01 1.122292e-01 5.377159e-01
  vertex -1.011779e-01 1.122292e-01 3.260336e-01
  vertex 3.058083e-01 1.122292e-01 5.559528e-02
 endloop
endfacet
facet normal -0.000000e+00 -1.000000e+00 0.000000e+00
 outer loop
  vertex -1.011779e-01 1.122292e-01 3.260336e-01
  vertex -4.346440e-01 1.122292e-01 5.856887e-01
  vertex -4.741867e-01 1.122292e-01 1.909484e-01
 endloop
endfacet
facet normal 0.000000e+00 -1.000000e+00 -0.000000e+00
 outer loop
  vertex -1.011779e-01 1.122292e-01 3.260336e-01
  vertex -4.741867e-01 1.122292e-01 1.909484e-01
  vertex -4.466543e-02 1.122292e-01 -3.037865e-02
 endloop
endfacet
facet normal -0.000000e+00 -1.000000e+00 0.000000e+00
 outer loop
  vertex 3.058083e-01 1.122292e-01 5.559528e-02
  vertex -1.011779e-01 1.122292e-01 3.260336e-01
  vertex -4.466543e-02 1.122292e-01 -3.037865e-02
 endloop
endfacet
facet normal 0.000000e+00 1.000000e+00 0.000000e+00
 outer loop
  vertex 0.000000e+00 -1.000000e+00 1.000000e+00
  vertex 0.000000e+00 -1.000000e+00 0.000000e+00
  vertex -5.000000e-01 -1.000000e+00 5.000000e-01
 endloop
endfacet
facet normal 0.000000e+00 1.000000e+00 0.000000e+00
 outer loop
  vertex 0.000000e+00 -1.000000e+00 0.000000e+00
  vertex 0.000000e+00 -1.000000e+00 1.000000e+00
  vertex 5.000000e-01 -1.000000e+00 1.000000e+00
 endloop
endfacet
facet normal 0.000000e+00 0.000000e+00 -1.000000e+00
 outer loop
  vertex 0.000000e+00 -1.000000e+00 1.000000e+00
  vertex -3.815290e-01 -5.089095e-01 1.000000e+00
  vertex 4.329810e-01 -4.369126e-01 1.000000e+00
 endloop
endfacet
facet normal 0.000000e+00 0.000000e+00 -1.000000e+00
 outer loop
  vertex 5.000000e-01 -1.000000e+00 1.000000e+00
  vertex 0.000000e+00 -1.000000e+00 1.000000e+00
  vertex 4.329810e-01 -4.369126e-01 1.000000e+00
 endloop
endfacet
facet normal -0.000000e+00 0.000000e+00 -1.000000e+00
 outer loop
  vertex -1.569862e-01 5.561146e-01 -3.710312e-01
  vertex -5.040821e-01 4.547992e-01 -3.710312e-01
  vertex -3.661206e-01 7.293493e-01 -3.710312e-01
 endloop
endfacet
facet normal 0.000000e+00 -1.000000e+00 -0.000000e+00
 outer loop
  vertex 5.744110e-01 1.122292e-01 1.000000e+00
  vertex 3.616166e-01 1.122292e-01 5.377159e-01
  vertex 6.657637e-01 1.122292e-01 6.778315e-01
 endloop
endfacet
facet normal -0.000000e+00 -1.000000e+00 0.000000e+00
 outer loop
  vertex 7.872055e-01 1.122292e-01 1.000000e+00
  vertex 5.744110e-01 1.122292e-01 1.000000e+00
  vertex 6.657637e-01 1.122292e-01 6.778315e-01
 endloop
endfacet
facet normal 0.000000e+00 0.000000e+00 -1.000000e+00
 outer loop
  vertex 5.744110e-01 1.122292e-01 1.000000e+00
  vertex 7.872055e-01 1.122292e-01 1.000000e+00
  vertex 7.190456e-01 -2.326215e-01 1.000000e+00
 endloop
endfacet
facet normal 0.000000e+00 0.000000e+00 -1.000000e+00
 outer loop
  vertex 4.329810e-01 -4.369126e-01 1.000000e+00
  vertex 5.744110e-01 1.122292e-01 1.000000e+00
  vertex 7.190456e-01 -2.326215e-01 1.000000e+00
 endloop
endfacet
facet normal 0.000000e+00 -1.000000e+00 -0.000000e+00
 outer loop
  vertex 3.616166e-01 1.122292e-01 5.377159e-01
  vertex 3.058083e-01 1.122292e-01 5.559528e-02
  vertex 5.462831e-01 1.122292e-01 2.720493e-01
 endloop
endfacet
facet normal 0.000000e+00 -1.000000e+00 0.000000e+00
 outer loop
  vertex 3.616166e-01 1.122292e-01 5.377159e-01
  vertex 5.462831e-01 1.122292e-01 2.720493e-01
  vertex 5.699975e-01 1.122292e-01 4.855480e-01
 endloop
endfacet
facet normal 0.000000e+00 -1.000000e+00 0.000000e+00
 outer loop
  vertex 6.657637e-01 1.122292e-01 6.778315e-01
  vertex 3.616166e-01 1.122292e-01 5.377159e-01
  vertex 5.699975e-01 1.122292e-01 4.855480e-01
 endloop
endfacet
facet normal 0.000000e+00 -1.000000e+00 0.000000e+00
 outer loop
  vertex 3.058083e-01 1.122292e-01 5.559528e-02
  vertex 5.372055e-01 1.122292e-01 -3.710312e-01
  vertex 6.469735e-01 1.122292e-01 -3.542745e-02
 endloop
endfacet
facet normal 0.000000e+00 -1.000000e+00 -0.000000e+00
 outer loop
  vertex 6.469735e-01 1.122292e-01 -3.542745e-02
  vertex 5.372055e-01 1.122292e-01 -3.710312e-01
  vertex 7.990031e-01 1.122292e-01 -1.701713e-01
 endloop
endfacet
facet normal 0.000000e+00 0.000000e+00 -1.000000e+00
 outer loop
  vertex 5.372055e-01 1.122292e-01 -3.710312e-01
  vertex 3.320260e-01 5.561146e-01 -3.710312e-01
  vertex 6.644383e-01 4.404041e-01 -3.710312e-01
 endloop
endfacet
facet normal 0.000000e+00 0.000000e+00 -1.000000e+00
 outer loop
  vertex 5.372055e-01 1.122292e-01 -3.710312e-01
  vertex 6.644383e-01 4.404041e-01 -3.710312e-01
  vertex 7.686028e-01 1.122292e-01 -3.710312e-01
 endloop
endfacet
facet normal 0.000000e+00 -1.000000e+00 0.000000e+00
 outer loop
  vertex 5.372055e-01 1.122292e-01 -3.710312e-01
  vertex 7.686028e-01 1.122292e-01 -3.710312e-01
  vertex 7.990031e-01 1.122292e-01 -1.701713e-01
 endloop
endfacet
facet normal 0.000000e+00 -1.000000e+00 0.000000e+00
 outer loop
  vertex -4.741867e-01 1.122292e-01 1.909484e-01
  vertex -4.346440e-01 1.122292e-01 5.856887e-01
  vertex -6.113390e-01 1.122292e-01 4.040382e-01
 endloop
endfacet
facet normal -0.000000e+00 -1.000000e+00 0.000000e+00
 outer loop
  vertex -4.346440e-01 1.122292e-01 5.856887e-01
  vertex -6.159083e-01 1.122292e-01 7.534540e-01
  vertex -6.113390e-01 1.122292e-01 4.040382e-01
 endloop
endfacet
facet normal -1.000000e+00 0.000000e+00 0.000000e+00
 outer loop
  vertex 1.000000e+00 5.561146e-01 -1.000000e+00
  vertex 1.000000e+00 2.232006e-01 -6.855156e-01
  vertex 1.000000e+00 6.666542e-01 -6.855156e-01
 endloop
endfacet
facet normal 0.000000e+00 0.000000e+00 1.000000e+00
 outer loop
  vertex 1.000000e+00 5.561146e-01 -1.000000e+00
  vertex 6.485252e-01 6.528645e-01 -1.000000e+00
  vertex 6.983806e-01 1.341924e-01 -1.000000e+00
 endloop
endfacet
facet normal 0.000000e+00 -1.000000e+00 -0.000000e+00
 outer loop
  vertex -4.741867e-01 1.122292e-01 1.909484e-01
  vertex -5.658701e-01 1.122292e-01 -8.514840e-02
  vertex -4.466543e-02 1.122292e-01 -3.037865e-02
 endloop
endfacet
facet normal 0.000000e+00 -1.000000e+00 0.000000e+00
 outer loop
  vertex 3.058083e-01 1.122292e-01 5.559528e-02
  vertex 6.469735e-01 1.122292e-01 -3.542745e-02
  vertex 5.462831e-01 1.122292e-01 2.720493e-01
 endloop
endfacet
facet normal -1.000000e+00 0.000000e+00 0.000000e+00
 outer loop
  vertex 1.000000e+00 -4.438854e-01 -1.000000e+00
  vertex 1.000000e+00 -4.771867e-01 -2.853417e-01
  vertex 1.000000e+00 -1.977962e-01 -6.572504e-01
 endloop
endfacet
facet normal 0.000000e+00 0.000000e+00 1.000000e+00
 outer loop
  vertex 3.772741e-01 -5.012583e-01 -1.000000e+00
  vertex 1.000000e+00 -4.438854e-01 -1.000000e+00
  vertex 6.603762e-01 -1.658281e-01 -1.000000e+00
 endloop
endfacet
facet normal 0.000000e+00 -1.000000e+00 0.000000e+00
 outer loop
  vertex 5.462831e-01 1.122292e-01 2.720493e-01
  vertex 6.469735e-01 1.122292e-01 -3.542745e-02
  vertex 7.673150e-01 1.122292e-01 3.555646e-01
 endloop
endfacet
facet normal 0.000000e+00 0.000000e+00 -1.000000e+00
 outer loop
  vertex 6.644383e-01 4.404041e-01 -3.710312e-01
  vertex 3.320260e-01 5.561146e-01 -3.710312e-01
  vertex 7.214862e-01 7.192777e-01 -3.710312e-01
 endloop
endfacet
facet normal 0.000000e+00 -1.000000e+00 0.000000e+00
 outer loop
  vertex -6.197807e-01 1.000000e+00 -6.625415e-01
  vertex -4.627945e-01 1.000000e+00 -1.000000e+00
  vertex -2.680384e-01 1.000000e+00 -7.041548e-01
 endloop
endfacet
facet normal 0.000000e+00 0.000000e+00 1.000000e+00
 outer loop
  vertex -4.627945e-01 1.000000e+00 -1.000000e+00
  vertex -6.405909e-01 6.681603e-01 -1.000000e+00
  vertex -2.374199e-01 6.656959e-01 -1.000000e+00
 endloop
endfacet
facet normal 0.000000e+00 0.000000e+00 -1.000000e+00
 outer loop
  vertex -5.040821e-01 4.547992e-01 -3.710312e-01
  vertex -6.304513e-01 6.670860e-01 -3.710312e-01
  vertex -3.661206e-01 7.293493e-01 -3.710312e-01
 endloop
endfacet
facet normal -1.000000e+00 0.000000e+00 0.000000e+00
 outer loop
  vertex 1.000000e+00 -4.771867e-01 -2.853417e-01
  vertex 1.000000e+00 -4.885987e-01 3.153785e-01
  vertex 1.000000e+00 -2.592718e-01 1.926656e-02
 endloop
endfacet
facet normal -1.000000e+00 0.000000e+00 0.000000e+00
 outer loop
  vertex 1.000000e+00 -4.771867e-01 -2.853417e-01
  vertex 1.000000e+00 -2.592718e-01 1.926656e-02
  vertex 1.000000e+00 -8.752851e-02 -1.139628e-01
 endloop
endfacet
facet normal -1.000000e+00 0.000000e+00 0.000000e+00
 outer loop
  vertex 1.000000e+00 -4.771867e-01 -2.853417e-01
  vertex 1.000000e+00 -8.752851e-02 -1.139628e-01
  vertex 1.000000e+00 -1.977962e-01 -6.572504e-01
 endloop
endfacet
facet normal 0.000000e+00 -1.000000e+00 -0.000000e+00
 outer loop
  vertex 5.699975e-01 1.122292e-01 4.855480e-01
  vertex 5.462831e-01 1.122292e-01 2.720493e-01
  vertex 7.673150e-01 1.122292e-01 3.555646e-01
 endloop
endfacet
facet normal -1.000000e+00 0.000000e+00 0.000000e+00
 outer loop
  vertex 1.000000e+00 -4.885987e-01 3.153785e-01
  vertex 1.000000e+00 -4.438854e-01 1.000000e+00
  vertex 1.000000e+00 -2.366866e-01 5.715528e-01
 endloop
endfacet
facet normal -1.000000e+00 0.000000e+00 0.000000e+00
 outer loop
  vertex 1.000000e+00 -2.592718e-01 1.926656e-02
  vertex 1.000000e+00 -4.885987e-01 3.153785e-01
  vertex 1.000000e+00 -2.366866e-01 5.715528e-01
 endloop
endfacet
facet normal 0.000000e+00 0.000000e+00 -1.000000e+00
 outer loop
  vertex 7.190456e-01 -2.326215e-01 1.000000e+00
  vertex 7.872055e-01 1.122292e-01 1.000000e+00
  vertex 1.000000e+00 -1.658281e-01 1.000000e+00
 endloop
endfacet
facet normal -0.000000e+00 0.000000e+00 -1.000000e+00
 outer loop
  vertex 1.000000e+00 -4.438854e-01 1.000000e+00
  vertex 5.000000e-01 -1.000000e+00 1.000000e+00
  vertex 4.329810e-01 -4.369126e-01 1.000000e+00
 endloop
endfacet
facet normal 0.000000e+00 -1.000000e+00 -0.000000e+00
 outer loop
  vertex 6.657637e-01 1.122292e-01 6.778315e-01
  vertex 5.699975e-01 1.122292e-01 4.855480e-01
  vertex 8.129041e-01 1.122292e-01 5.470641e-01
 endloop
endfacet
facet normal 0.000000e+00 0.000000e+00 -1.000000e+00
 outer loop
  vertex 1.000000e+00 -4.438854e-01 1.000000e+00
  vertex 4.329810e-01 -4.369126e-01 1.000000e+00
  vertex 7.190456e-01 -2.326215e-01 1.000000e+00
 endloop
endfacet
facet normal -1.000000e+00 0.000000e+00 0.000000e+00
 outer loop
  vertex 1.000000e+00 -2.366866e-01 5.715528e-01
  vertex 1.000000e+00 -4.438854e-01 1.000000e+00
  vertex 1.000000e+00 -1.148305e-01 7.714827e-01
 endloop
endfacet
facet normal 0.000000e+00 0.000000e+00 -1.000000e+00
 outer loop
  vertex 1.000000e+00 -4.438854e-01 1.000000e+00
  vertex 7.190456e-01 -2.326215e-01 1.000000e+00
  vertex 1.000000e+00 -1.658281e-01 1.000000e+00
 endloop
endfacet
facet normal -1.000000e+00 0.000000e+00 0.000000e+00
 outer loop
  vertex 1.000000e+00 -4.438854e-01 1.000000e+00
  vertex 1.000000e+00 -1.658281e-01 1.000000e+00
  vertex 1.000000e+00 -1.148305e-01 7.714827e-01
 endloop
endfacet
facet normal 0.000000e+00 0.000000e+00 1.000000e+00
 outer loop
  vertex 4.715220e-01 3.341719e-01 -1.000000e+00
  vertex 6.603762e-01 -1.658281e-01 -1.000000e+00
  vertex 6.983806e-01 1.341924e-01 -1.000000e+00
 endloop
endfacet
facet normal -0.000000e+00 0.000000e+00 1.000000e+00
 outer loop
  vertex 4.715220e-01 3.341719e-01 -1.000000e+00
  vertex 6.983806e-01 1.341924e-01 -1.000000e+00
  vertex 6.485252e-01 6.528645e-01 -1.000000e+00
 endloop
endfacet
facet normal -0.000000e+00 -1.000000e+00 0.000000e+00
 outer loop
  vertex 1.000000e+00 1.000000e+00 -6.855156e-01
  vertex 7.686028e-01 1.000000e+00 -3.710312e-01
  vertex 6.647005e-01 1.000000e+00 -6.898554e-01
 endloop
endfacet
facet normal 0.000000e+00 -1.000000e+00 0.000000e+00
 outer loop
  vertex 5.699975e-01 1.122292e-01 4.855480e-01
  vertex 7.673150e-01 1.122292e-01 3.555646e-01
  vertex 8.129041e-01 1.122292e-01 5.470641e-01
 endloop
endfacet
endsolid 
