solid 
facet normal 0.000000e+00 0.000000e+00 -1.000000e+00
 outer loop
  vertex -3.511779e-01 1.122292e-01 1.628969e+00
  vertex -8.511779e-01 1.122292e-01 1.628969e+00
  vertex -8.511779e-01 5.561146e-01 1.628969e+00
 endloop
endfacet
facet normal -0.000000e+00 1.000000e+00 0.000000e+00
 outer loop
  vertex -8.511779e-01 1.122292e-01 1.628969e+00
  vertex -3.511779e-01 1.122292e-01 1.628969e+00
  vertex -5.109773e-01 1.122292e-01 1.328316e+00
 endloop
endfacet
facet normal 1.000000e+00 0.000000e+00 0.000000e+00
 outer loop
  vertex -8.511779e-01 1.122292e-01 1.628969e+00
  vertex -8.511779e-01 1.122292e-01 1.314484e+00
  vertex -8.511779e-01 4.455751e-01 1.314484e+00
 endloop
endfacet
facet normal 0.000000e+00 1.000000e+00 0.000000e+00
 outer loop
  vertex -8.511779e-01 1.122292e-01 1.314484e+00
  vertex -8.511779e-01 1.122292e-01 1.628969e+00
  vertex -5.109773e-01 1.122292e-01 1.328316e+00
 endloop
endfacet
facet normal 1.000000e+00 0.000000e+00 0.000000e+00
 outer loop
  vertex -8.511779e-01 5.561146e-01 1.628969e+00
  vertex -8.511779e-01 1.122292e-01 1.628969e+00
  vertex -8.511779e-01 4.455751e-01 1.314484e+00
 endloop
endfacet
facet normal 0.000000e+00 -1.000000e+00 0.000000e+00
 outer loop
  vertex -8.511779e-01 2.112229e+00 6.289688e-01
  vertex -8.511779e-01 2.112229e+00 -3.710312e-01
  vertex -3.511779e-01 2.112229e+00 2.539688e-01
 endloop
endfacet
facet normal 1.000000e+00 0.000000e+00 -0.000000e+00
 outer loop
  vertex -8.511779e-01 2.112229e+00 -3.710312e-01
  vertex -8.511779e-01 2.112229e+00 6.289688e-01
  vertex -8.511779e-01 1.619232e+00 2.484999e-01
 endloop
endfacet
facet normal 0.000000e+00 0.000000e+00 1.000000e+00
 outer loop
  vertex -3.511779e-01 2.112229e+00 -3.710312e-01
  vertex -8.511779e-01 2.112229e+00 -3.710312e-01
  vertex -8.511779e-01 1.556115e+00 -3.710312e-01
 endloop
endfacet
facet normal 0.000000e+00 -1.000000e+00 0.000000e+00
 outer loop
  vertex -8.511779e-01 2.112229e+00 -3.710312e-01
  vertex -3.511779e-01 2.112229e+00 -3.710312e-01
  vertex -3.511779e-01 2.112229e+00 2.539688e-01
 endloop
endfacet
facet normal 1.000000e+00 0.000000e+00 0.000000e+00
 outer loop
  vertex -8.511779e-01 2.112229e+00 -3.710312e-01
  vertex -8.511779e-01 1.619232e+00 2.484999e-01
  vertex -8.511779e-01 1.556115e+00 -3.710312e-01
 endloop
endfacet
facet normal 0.000000e+00 0.000000e+00 -1.000000e+00
 outer loop
  vertex -8.511779e-01 2.112229e+00 1.628969e+00
  vertex 1.488221e-01 2.112229e+00 1.628969e+00
  vertex -2.290648e-01 1.614589e+00 1.628969e+00
 endloop
endfacet
facet normal -0.000000e+00 -1.000000e+00 0.000000e+00
 outer loop
  vertex 1.488221e-01 2.112229e+00 1.628969e+00
  vertex -8.511779e-01 2.112229e+00 1.628969e+00
  vertex -2.261779e-01 2.112229e+00 1.128969e+00
 endloop
endfacet
facet normal 1.000000e+00 0.000000e+00 -0.000000e+00
 outer loop
  vertex -8.511779e-01 2.112229e+00 1.128969e+00
  vertex -8.511779e-01 2.112229e+00 1.628969e+00
  vertex -8.511779e-01 1.556115e+00 1.628969e+00
 endloop
endfacet
facet normal 0.000000e+00 -1.000000e+00 0.000000e+00
 outer loop
  vertex -8.511779e-01 2.112229e+00 1.628969e+00
  vertex -8.511779e-01 2.112229e+00 1.128969e+00
  vertex -2.261779e-01 2.112229e+00 1.128969e+00
 endloop
endfacet
facet normal 0.000000e+00 0.000000e+00 -1.000000e+00
 outer loop
  vertex -8.511779e-01 2.112229e+00 1.628969e+00
  vertex -2.290648e-01 1.614589e+00 1.628969e+00
  vertex -8.511779e-01 1.556115e+00 1.628969e+00
 endloop
endfacet
facet normal 0.000000e+00 0.000000e+00 1.000000e+00
 outer loop
  vertex 1.148822e+00 1.122292e-01 -3.710312e-01
  vertex 1.000000e+00 3.341719e-01 -3.710312e-01
  vertex 1.000000e+00 1.122292e-01 -3.710312e-01
 endloop
endfacet
facet normal 0.000000e+00 1.000000e+00 0.000000e+00
 outer loop
  vertex 1.000000e+00 1.122292e-01 -1.996523e-01
  vertex 1.148822e+00 1.122292e-01 -3.710312e-01
  vertex 1.000000e+00 1.122292e-01 -3.710312e-01
 endloop
endfacet
facet normal -0.000000e+00 0.000000e+00 1.000000e+00
 outer loop
  vertex 1.000000e+00 3.341719e-01 -3.710312e-01
  vertex 1.148822e+00 1.122292e-01 -3.710312e-01
  vertex 1.148822e+00 3.341719e-01 -3.710312e-01
 endloop
endfacet
facet normal -1.000000e+00 0.000000e+00 0.000000e+00
 outer loop
  vertex 1.148822e+00 1.122292e-01 -3.710312e-01
  vertex 1.148822e+00 1.122292e-01 -1.996523e-01
  vertex 1.148822e+00 3.341719e-01 -3.710312e-01
 endloop
endfacet
facet normal 0.000000e+00 1.000000e+00 -0.000000e+00
 outer loop
  vertex 1.148822e+00 1.122292e-01 -3.710312e-01
  vertex 1.000000e+00 1.122292e-01 -1.996523e-01
  vertex 1.148822e+00 1.122292e-01 -1.996523e-01
 endloop
endfacet
facet normal -1.000000e+00 0.000000e+00 0.000000e+00
 outer loop
  vertex 1.148822e+00 1.122292e-01 1.628969e+00
  vertex 1.148822e+00 5.561146e-01 1.628969e+00
  vertex 1.148822e+00 4.690942e-01 1.281288e+00
 endloop
endfacet
facet normal 0.000000e+00 -0.000000e+00 -1.000000e+00
 outer loop
  vertex 1.148822e+00 5.561146e-01 1.628969e+00
  vertex 1.148822e+00 1.122292e-01 1.628969e+00
  vertex 6.488221e-01 1.122292e-01 1.628969e+00
 endloop
endfacet
facet normal -1.000000e+00 0.000000e+00 0.000000e+00
 outer loop
  vertex 1.148822e+00 1.122292e-01 1.314484e+00
  vertex 1.148822e+00 1.122292e-01 1.628969e+00
  vertex 1.148822e+00 4.690942e-01 1.281288e+00
 endloop
endfacet
facet normal 0.000000e+00 1.000000e+00 0.000000e+00
 outer loop
  vertex 1.148822e+00 1.122292e-01 1.628969e+00
  vertex 1.148822e+00 1.122292e-01 1.314484e+00
  vertex 8.130768e-01 1.122292e-01 1.335400e+00
 endloop
endfacet
facet normal 0.000000e+00 1.000000e+00 0.000000e+00
 outer loop
  vertex 1.148822e+00 1.122292e-01 1.628969e+00
  vertex 8.130768e-01 1.122292e-01 1.335400e+00
  vertex 6.488221e-01 1.122292e-01 1.628969e+00
 endloop
endfacet
facet normal -1.000000e+00 0.000000e+00 -0.000000e+00
 outer loop
  vertex 1.148822e+00 2.112229e+00 1.289688e-01
  vertex 1.148822e+00 2.112229e+00 -3.710312e-01
  vertex 1.148822e+00 1.751830e+00 2.076045e-03
 endloop
endfacet
facet normal 0.000000e+00 -1.000000e+00 0.000000e+00
 outer loop
  vertex 1.148822e+00 2.112229e+00 -3.710312e-01
  vertex 1.148822e+00 2.112229e+00 1.289688e-01
  vertex 6.488221e-01 2.112229e+00 -3.710312e-01
 endloop
endfacet
facet normal -1.000000e+00 0.000000e+00 0.000000e+00
 outer loop
  vertex 1.148822e+00 2.112229e+00 -3.710312e-01
  vertex 1.148822e+00 1.834172e+00 -3.710312e-01
  vertex 1.148822e+00 1.751830e+00 2.076045e-03
 endloop
endfacet
facet normal 0.000000e+00 -0.000000e+00 1.000000e+00
 outer loop
  vertex 1.148822e+00 1.834172e+00 -3.710312e-01
  vertex 1.148822e+00 2.112229e+00 -3.710312e-01
  vertex 6.488221e-01 2.112229e+00 -3.710312e-01
 endloop
endfacet
facet normal -0.000000e+00 -0.000000e+00 -1.000000e+00
 outer loop
  vertex 1.148822e+00 2.112229e+00 1.628969e+00
  vertex 1.148822e+00 1.556115e+00 1.628969e+00
  vertex 6.488221e-01 2.112229e+00 1.628969e+00
 endloop
endfacet
facet normal -1.000000e+00 0.000000e+00 0.000000e+00
 outer loop
  vertex 1.148822e+00 1.556115e+00 1.628969e+00
  vertex 1.148822e+00 2.112229e+00 1.628969e+00
  vertex 1.148822e+00 1.718655e+00 1.089257e+00
 endloop
endfacet
facet normal -0.000000e+00 -1.000000e+00 -0.000000e+00
 outer loop
  vertex 1.148822e+00 2.112229e+00 1.628969e+00
  vertex 6.488221e-01 2.112229e+00 1.628969e+00
  vertex 1.148822e+00 2.112229e+00 1.128969e+00
 endloop
endfacet
facet normal -1.000000e+00 0.000000e+00 -0.000000e+00
 outer loop
  vertex 1.148822e+00 2.112229e+00 1.628969e+00
  vertex 1.148822e+00 2.112229e+00 1.128969e+00
  vertex 1.148822e+00 1.718655e+00 1.089257e+00
 endloop
endfacet
facet normal 1.000000e+00 0.000000e+00 0.000000e+00
 outer loop
  vertex 1.000000e+00 1.000000e+00 1.000000e+00
  vertex 1.000000e+00 7.780573e-01 1.000000e+00
  vertex 1.000000e+00 1.000000e+00 8.286211e-01
 endloop
endfacet
facet normal 0.000000e+00 -0.000000e+00 1.000000e+00
 outer loop
  vertex 1.000000e+00 7.780573e-01 1.000000e+00
  vertex 1.000000e+00 1.000000e+00 1.000000e+00
  vertex 7.872055e-01 1.000000e+00 1.000000e+00
 endloop
endfacet
facet normal 0.000000e+00 1.000000e+00 0.000000e+00
 outer loop
  vertex 1.000000e+00 1.000000e+00 1.000000e+00
  vertex 1.000000e+00 1.000000e+00 8.286211e-01
  vertex 7.872055e-01 1.000000e+00 1.000000e+00
 endloop
endfacet
facet normal -0.000000e+00 0.000000e+00 1.000000e+00
 outer loop
  vertex -8.511779e-01 1.000000e+00 1.000000e+00
  vertex -8.511779e-01 7.780573e-01 1.000000e+00
  vertex -6.011779e-01 1.000000e+00 1.000000e+00
 endloop
endfacet
facet normal 1.000000e+00 0.000000e+00 0.000000e+00
 outer loop
  vertex -8.511779e-01 7.780573e-01 1.000000e+00
  vertex -8.511779e-01 1.000000e+00 1.000000e+00
  vertex -8.511779e-01 7.926984e-01 1.348476e+00
 endloop
endfacet
facet normal 0.000000e+00 1.000000e+00 0.000000e+00
 outer loop
  vertex -8.511779e-01 1.000000e+00 8.286211e-01
  vertex -8.511779e-01 1.000000e+00 1.000000e+00
  vertex -6.011779e-01 1.000000e+00 1.000000e+00
 endloop
endfacet
facet normal 1.000000e+00 0.000000e+00 0.000000e+00
 outer loop
  vertex -8.511779e-01 1.000000e+00 1.000000e+00
  vertex -8.511779e-01 1.000000e+00 8.286211e-01
  vertex -8.511779e-01 1.294621e+00 9.543489e-01
 endloop
endfacet
facet normal 1.000000e+00 -0.000000e+00 0.000000e+00
 outer loop
  vertex -8.511779e-01 1.000000e+00 1.000000e+00
  vertex -8.511779e-01 1.294621e+00 9.543489e-01
  vertex -8.511779e-01 1.355216e+00 1.246263e+00
 endloop
endfacet
facet normal 1.000000e+00 0.000000e+00 -0.000000e+00
 outer loop
  vertex -8.511779e-01 1.000000e+00 1.000000e+00
  vertex -8.511779e-01 1.355216e+00 1.246263e+00
  vertex -8.511779e-01 7.926984e-01 1.348476e+00
 endloop
endfacet
facet normal 0.000000e+00 0.000000e+00 1.000000e+00
 outer loop
  vertex -8.511779e-01 3.341719e-01 1.000000e+00
  vertex -8.511779e-01 1.122292e-01 1.000000e+00
  vertex -6.011779e-01 1.122292e-01 1.000000e+00
 endloop
endfacet
facet normal 1.000000e+00 0.000000e+00 0.000000e+00
 outer loop
  vertex -8.511779e-01 1.122292e-01 1.000000e+00
  vertex -8.511779e-01 3.341719e-01 1.000000e+00
  vertex -8.511779e-01 1.122292e-01 1.314484e+00
 endloop
endfacet
facet normal 0.000000e+00 1.000000e+00 0.000000e+00
 outer loop
  vertex -8.511779e-01 1.122292e-01 1.000000e+00
  vertex -8.511779e-01 1.122292e-01 1.314484e+00
  vertex -6.011779e-01 1.122292e-01 1.000000e+00
 endloop
endfacet
facet normal 0.000000e+00 1.000000e+00 0.000000e+00
 outer loop
  vertex -8.511779e-01 1.000000e+00 -3.710312e-01
  vertex -8.511779e-01 1.000000e+00 -2.827337e-02
  vertex -3.883834e-01 1.000000e+00 -3.710312e-01
 endloop
endfacet
facet normal 1.000000e+00 0.000000e+00 0.000000e+00
 outer loop
  vertex -8.511779e-01 1.000000e+00 -2.827337e-02
  vertex -8.511779e-01 1.000000e+00 -3.710312e-01
  vertex -8.511779e-01 1.556115e+00 -3.710312e-01
 endloop
endfacet
facet normal 0.000000e+00 0.000000e+00 1.000000e+00
 outer loop
  vertex -8.511779e-01 1.000000e+00 -3.710312e-01
  vertex -3.883834e-01 1.000000e+00 -3.710312e-01
  vertex -4.261430e-01 1.439201e+00 -3.710312e-01
 endloop
endfacet
facet normal 0.000000e+00 0.000000e+00 1.000000e+00
 outer loop
  vertex -8.511779e-01 1.000000e+00 -3.710312e-01
  vertex -4.261430e-01 1.439201e+00 -3.710312e-01
  vertex -8.511779e-01 1.556115e+00 -3.710312e-01
 endloop
endfacet
facet normal 0.000000e+00 1.000000e+00 -0.000000e+00
 outer loop
  vertex 1.148822e+00 1.122292e-01 1.000000e+00
  vertex 1.000000e+00 1.122292e-01 1.000000e+00
  vertex 1.148822e+00 1.122292e-01 1.314484e+00
 endloop
endfacet
facet normal 0.000000e+00 1.000000e+00 -0.000000e+00
 outer loop
  vertex 1.148822e+00 1.122292e-01 8.286211e-01
  vertex 1.000000e+00 1.122292e-01 1.000000e+00
  vertex 1.148822e+00 1.122292e-01 1.000000e+00
 endloop
endfacet
facet normal 0.000000e+00 1.000000e+00 0.000000e+00
 outer loop
  vertex 1.148822e+00 1.122292e-01 1.314484e+00
  vertex 1.000000e+00 1.122292e-01 1.000000e+00
  vertex 8.130768e-01 1.122292e-01 1.335400e+00
 endloop
endfacet
facet normal 1.000000e+00 0.000000e+00 0.000000e+00
 outer loop
  vertex 1.000000e+00 3.341719e-01 1.000000e+00
  vertex 1.000000e+00 1.122292e-01 1.000000e+00
  vertex 1.000000e+00 2.805872e-01 8.399925e-01
 endloop
endfacet
facet normal 0.000000e+00 -0.000000e+00 1.000000e+00
 outer loop
  vertex 1.000000e+00 1.122292e-01 1.000000e+00
  vertex 1.000000e+00 3.341719e-01 1.000000e+00
  vertex 7.872055e-01 1.122292e-01 1.000000e+00
 endloop
endfacet
facet normal 0.000000e+00 1.000000e+00 0.000000e+00
 outer loop
  vertex 1.000000e+00 1.122292e-01 1.000000e+00
  vertex 1.148822e+00 1.122292e-01 8.286211e-01
  vertex 1.000000e+00 1.122292e-01 8.286211e-01
 endloop
endfacet
facet normal 1.000000e+00 0.000000e+00 0.000000e+00
 outer loop
  vertex 1.000000e+00 1.122292e-01 1.000000e+00
  vertex 1.000000e+00 1.122292e-01 8.286211e-01
  vertex 1.000000e+00 2.805872e-01 8.399925e-01
 endloop
endfacet
facet normal 0.000000e+00 1.000000e+00 0.000000e+00
 outer loop
  vertex 1.000000e+00 1.122292e-01 1.000000e+00
  vertex 7.872055e-01 1.122292e-01 1.000000e+00
  vertex 8.130768e-01 1.122292e-01 1.335400e+00
 endloop
endfacet
facet normal 1.000000e+00 0.000000e+00 0.000000e+00
 outer loop
  vertex 1.000000e+00 1.122292e-01 -1.996523e-01
  vertex 1.000000e+00 1.122292e-01 -3.710312e-01
  vertex 1.000000e+00 3.341719e-01 -3.710312e-01
 endloop
endfacet
facet normal -0.000000e+00 0.000000e+00 1.000000e+00
 outer loop
  vertex 1.000000e+00 1.000000e+00 -3.710312e-01
  vertex 1.148822e+00 7.780573e-01 -3.710312e-01
  vertex 1.148822e+00 1.000000e+00 -3.710312e-01
 endloop
endfacet
facet normal 0.000000e+00 0.000000e+00 1.000000e+00
 outer loop
  vertex 1.000000e+00 1.000000e+00 -3.710312e-01
  vertex 1.148822e+00 1.000000e+00 -3.710312e-01
  vertex 1.148822e+00 1.278057e+00 -3.710312e-01
 endloop
endfacet
facet normal 0.000000e+00 0.000000e+00 1.000000e+00
 outer loop
  vertex 1.148822e+00 7.780573e-01 -3.710312e-01
  vertex 1.000000e+00 1.000000e+00 -3.710312e-01
  vertex 1.000000e+00 7.780573e-01 -3.710312e-01
 endloop
endfacet
facet normal 1.000000e+00 0.000000e+00 0.000000e+00
 outer loop
  vertex 1.000000e+00 1.000000e+00 -3.710312e-01
  vertex 1.000000e+00 8.332755e-01 -1.829184e-01
  vertex 1.000000e+00 7.780573e-01 -3.710312e-01
 endloop
endfacet
facet normal 1.000000e+00 0.000000e+00 -0.000000e+00
 outer loop
  vertex 1.000000e+00 1.000000e+00 -3.710312e-01
  vertex 1.000000e+00 1.000000e+00 -1.996523e-01
  vertex 1.000000e+00 8.332755e-01 -1.829184e-01
 endloop
endfacet
facet normal 0.000000e+00 1.000000e+00 0.000000e+00
 outer loop
  vertex 1.000000e+00 1.000000e+00 -1.996523e-01
  vertex 1.000000e+00 1.000000e+00 -3.710312e-01
  vertex 7.686028e-01 1.000000e+00 -3.710312e-01
 endloop
endfacet
facet normal 0.000000e+00 -0.000000e+00 1.000000e+00
 outer loop
  vertex 1.000000e+00 1.000000e+00 -3.710312e-01
  vertex 1.148822e+00 1.278057e+00 -3.710312e-01
  vertex 8.297850e-01 1.224882e+00 -3.710312e-01
 endloop
endfacet
facet normal 0.000000e+00 0.000000e+00 1.000000e+00
 outer loop
  vertex 1.000000e+00 1.000000e+00 -3.710312e-01
  vertex 8.297850e-01 1.224882e+00 -3.710312e-01
  vertex 7.686028e-01 1.000000e+00 -3.710312e-01
 endloop
endfacet
facet normal -1.000000e+00 0.000000e+00 0.000000e+00
 outer loop
  vertex 1.148822e+00 1.000000e+00 -3.710312e-01
  vertex 1.148822e+00 7.780573e-01 -3.710312e-01
  vertex 1.148822e+00 9.960044e-01 -1.529204e-01
 endloop
endfacet
facet normal -1.000000e+00 0.000000e+00 0.000000e+00
 outer loop
  vertex 1.148822e+00 1.000000e+00 -3.710312e-01
  vertex 1.148822e+00 9.960044e-01 -1.529204e-01
  vertex 1.148822e+00 1.236988e+00 -1.327146e-01
 endloop
endfacet
facet normal -1.000000e+00 0.000000e+00 0.000000e+00
 outer loop
  vertex 1.148822e+00 1.000000e+00 -3.710312e-01
  vertex 1.148822e+00 1.236988e+00 -1.327146e-01
  vertex 1.148822e+00 1.278057e+00 -3.710312e-01
 endloop
endfacet
facet normal -1.000000e+00 0.000000e+00 0.000000e+00
 outer loop
  vertex 1.148822e+00 1.000000e+00 1.628969e+00
  vertex 1.148822e+00 1.556115e+00 1.628969e+00
  vertex 1.148822e+00 1.043598e+00 1.254294e+00
 endloop
endfacet
facet normal 0.000000e+00 -0.000000e+00 -1.000000e+00
 outer loop
  vertex 1.148822e+00 1.556115e+00 1.628969e+00
  vertex 1.148822e+00 1.000000e+00 1.628969e+00
  vertex 6.513916e-01 1.107388e+00 1.628969e+00
 endloop
endfacet
facet normal 0.000000e+00 -0.000000e+00 -1.000000e+00
 outer loop
  vertex 1.148822e+00 1.000000e+00 1.628969e+00
  vertex 1.148822e+00 5.561146e-01 1.628969e+00
  vertex 5.243379e-01 6.146140e-01 1.628969e+00
 endloop
endfacet
facet normal -1.000000e+00 0.000000e+00 0.000000e+00
 outer loop
  vertex 1.148822e+00 5.561146e-01 1.628969e+00
  vertex 1.148822e+00 1.000000e+00 1.628969e+00
  vertex 1.148822e+00 7.449852e-01 1.396966e+00
 endloop
endfacet
facet normal -1.000000e+00 0.000000e+00 -0.000000e+00
 outer loop
  vertex 1.148822e+00 1.000000e+00 1.628969e+00
  vertex 1.148822e+00 1.043598e+00 1.254294e+00
  vertex 1.148822e+00 7.449852e-01 1.396966e+00
 endloop
endfacet
facet normal -0.000000e+00 0.000000e+00 -1.000000e+00
 outer loop
  vertex 1.148822e+00 1.000000e+00 1.628969e+00
  vertex 5.243379e-01 6.146140e-01 1.628969e+00
  vertex 6.513916e-01 1.107388e+00 1.628969e+00
 endloop
endfacet
facet normal 1.000000e+00 0.000000e+00 0.000000e+00
 outer loop
  vertex -8.511779e-01 1.556115e+00 1.628969e+00
  vertex -8.511779e-01 1.000000e+00 1.628969e+00
  vertex -8.511779e-01 1.355216e+00 1.246263e+00
 endloop
endfacet
facet normal 0.000000e+00 0.000000e+00 -1.000000e+00
 outer loop
  vertex -8.511779e-01 1.000000e+00 1.628969e+00
  vertex -8.511779e-01 1.556115e+00 1.628969e+00
  vertex -4.137031e-01 1.179329e+00 1.628969e+00
 endloop
endfacet
facet normal 1.000000e+00 0.000000e+00 0.000000e+00
 outer loop
  vertex -8.511779e-01 1.355216e+00 1.246263e+00
  vertex -8.511779e-01 1.000000e+00 1.628969e+00
  vertex -8.511779e-01 7.926984e-01 1.348476e+00
 endloop
endfacet
facet normal 0.000000e+00 0.000000e+00 -1.000000e+00
 outer loop
  vertex -8.511779e-01 1.000000e+00 1.628969e+00
  vertex -4.137031e-01 1.179329e+00 1.628969e+00
  vertex -5.576863e-01 9.073004e-01 1.628969e+00
 endloop
endfacet
facet normal 0.000000e+00 0.000000e+00 -1.000000e+00
 outer loop
  vertex -8.511779e-01 1.000000e+00 1.628969e+00
  vertex -5.576863e-01 9.073004e-01 1.628969e+00
  vertex -8.511779e-01 5.561146e-01 1.628969e+00
 endloop
endfacet
facet normal 1.000000e+00 0.000000e+00 0.000000e+00
 outer loop
  vertex -8.511779e-01 1.000000e+00 1.628969e+00
  vertex -8.511779e-01 5.561146e-01 1.628969e+00
  vertex -8.511779e-01 7.926984e-01 1.348476e+00
 endloop
endfacet
facet normal -1.000000e+00 0.000000e+00 0.000000e+00
 outer loop
  vertex 1.148822e+00 1.122292e-01 1.000000e+00
  vertex 1.148822e+00 1.122292e-01 1.314484e+00
  vertex 1.148822e+00 2.775786e-01 1.157242e+00
 endloop
endfacet
facet normal -1.000000e+00 0.000000e+00 0.000000e+00
 outer loop
  vertex 1.148822e+00 1.122292e-01 8.286211e-01
  vertex 1.148822e+00 1.122292e-01 1.000000e+00
  vertex 1.148822e+00 2.777235e-01 9.915314e-01
 endloop
endfacet
facet normal -1.000000e+00 0.000000e+00 0.000000e+00
 outer loop
  vertex 1.148822e+00 1.122292e-01 1.000000e+00
  vertex 1.148822e+00 2.775786e-01 1.157242e+00
  vertex 1.148822e+00 2.777235e-01 9.915314e-01
 endloop
endfacet
facet normal -1.000000e+00 0.000000e+00 0.000000e+00
 outer loop
  vertex 1.148822e+00 1.609398e+00 7.090719e-01
  vertex 1.148822e+00 2.112229e+00 6.289688e-01
  vertex 1.148822e+00 1.814607e+00 3.789688e-01
 endloop
endfacet
facet normal -1.000000e+00 0.000000e+00 0.000000e+00
 outer loop
  vertex 1.148822e+00 2.112229e+00 6.289688e-01
  vertex 1.148822e+00 1.609398e+00 7.090719e-01
  vertex 1.148822e+00 1.718655e+00 1.089257e+00
 endloop
endfacet
facet normal 0.000000e+00 -1.000000e+00 0.000000e+00
 outer loop
  vertex 1.148822e+00 2.112229e+00 1.289688e-01
  vertex 1.148822e+00 2.112229e+00 6.289688e-01
  vertex 5.238221e-01 2.112229e+00 1.289688e-01
 endloop
endfacet
facet normal -1.000000e+00 0.000000e+00 -0.000000e+00
 outer loop
  vertex 1.148822e+00 2.112229e+00 6.289688e-01
  vertex 1.148822e+00 2.112229e+00 1.289688e-01
  vertex 1.148822e+00 1.814607e+00 3.789688e-01
 endloop
endfacet
facet normal -0.000000e+00 -1.000000e+00 0.000000e+00
 outer loop
  vertex 1.148822e+00 2.112229e+00 6.289688e-01
  vertex 5.654887e-01 2.112229e+00 1.045636e+00
  vertex 5.238221e-01 2.112229e+00 1.289688e-01
 endloop
endfacet
facet normal -1.000000e+00 0.000000e+00 -0.000000e+00
 outer loop
  vertex 1.148822e+00 2.112229e+00 1.128969e+00
  vertex 1.148822e+00 2.112229e+00 6.289688e-01
  vertex 1.148822e+00 1.718655e+00 1.089257e+00
 endloop
endfacet
facet normal 0.000000e+00 -1.000000e+00 0.000000e+00
 outer loop
  vertex 1.148822e+00 2.112229e+00 6.289688e-01
  vertex 1.148822e+00 2.112229e+00 1.128969e+00
  vertex 5.654887e-01 2.112229e+00 1.045636e+00
 endloop
endfacet
facet normal 1.000000e+00 0.000000e+00 -0.000000e+00
 outer loop
  vertex 1.000000e+00 1.000000e+00 3.144844e-01
  vertex 1.000000e+00 1.000000e+00 6.572422e-01
  vertex 1.000000e+00 7.842808e-01 5.445400e-01
 endloop
endfacet
facet normal 0.000000e+00 1.000000e+00 0.000000e+00
 outer loop
  vertex 1.000000e+00 1.000000e+00 6.572422e-01
  vertex 1.000000e+00 1.000000e+00 3.144844e-01
  vertex 7.055166e-01 1.000000e+00 3.160065e-01
 endloop
endfacet
facet normal 1.000000e+00 0.000000e+00 -0.000000e+00
 outer loop
  vertex 1.000000e+00 1.000000e+00 1.431055e-01
  vertex 1.000000e+00 1.000000e+00 3.144844e-01
  vertex 1.000000e+00 7.776741e-01 3.221790e-01
 endloop
endfacet
facet normal 0.000000e+00 1.000000e+00 0.000000e+00
 outer loop
  vertex 1.000000e+00 1.000000e+00 3.144844e-01
  vertex 1.000000e+00 1.000000e+00 1.431055e-01
  vertex 7.055166e-01 1.000000e+00 3.160065e-01
 endloop
endfacet
facet normal 1.000000e+00 0.000000e+00 0.000000e+00
 outer loop
  vertex 1.000000e+00 1.000000e+00 3.144844e-01
  vertex 1.000000e+00 7.842808e-01 5.445400e-01
  vertex 1.000000e+00 7.776741e-01 3.221790e-01
 endloop
endfacet
facet normal 1.000000e+00 0.000000e+00 -0.000000e+00
 outer loop
  vertex 1.000000e+00 1.000000e+00 6.572422e-01
  vertex 1.000000e+00 1.000000e+00 8.286211e-01
  vertex 1.000000e+00 8.442365e-01 7.429317e-01
 endloop
endfacet
facet normal 0.000000e+00 1.000000e+00 0.000000e+00
 outer loop
  vertex 1.000000e+00 1.000000e+00 8.286211e-01
  vertex 1.000000e+00 1.000000e+00 6.572422e-01
  vertex 6.685090e-01 1.000000e+00 6.812402e-01
 endloop
endfacet
facet normal 1.000000e+00 0.000000e+00 0.000000e+00
 outer loop
  vertex 1.000000e+00 7.842808e-01 5.445400e-01
  vertex 1.000000e+00 1.000000e+00 6.572422e-01
  vertex 1.000000e+00 8.442365e-01 7.429317e-01
 endloop
endfacet
facet normal 0.000000e+00 1.000000e+00 0.000000e+00
 outer loop
  vertex 1.000000e+00 1.000000e+00 6.572422e-01
  vertex 7.055166e-01 1.000000e+00 3.160065e-01
  vertex 6.685090e-01 1.000000e+00 6.812402e-01
 endloop
endfacet
facet normal 0.000000e+00 1.000000e+00 0.000000e+00
 outer loop
  vertex 1.148822e+00 1.122292e-01 3.144844e-01
  vertex 1.000000e+00 1.122292e-01 -2.827337e-02
  vertex 1.000000e+00 1.122292e-01 3.144844e-01
 endloop
endfacet
facet normal 0.000000e+00 1.000000e+00 -0.000000e+00
 outer loop
  vertex 1.148822e+00 1.122292e-01 3.144844e-01
  vertex 1.000000e+00 1.122292e-01 3.144844e-01
  vertex 1.148822e+00 1.122292e-01 4.858633e-01
 endloop
endfacet
facet normal 0.000000e+00 1.000000e+00 0.000000e+00
 outer loop
  vertex 1.000000e+00 1.122292e-01 -2.827337e-02
  vertex 1.148822e+00 1.122292e-01 3.144844e-01
  vertex 1.148822e+00 1.122292e-01 -2.827337e-02
 endloop
endfacet
facet normal -1.000000e+00 0.000000e+00 0.000000e+00
 outer loop
  vertex 1.148822e+00 1.122292e-01 3.144844e-01
  vertex 1.148822e+00 2.930460e-01 1.431055e-01
  vertex 1.148822e+00 1.122292e-01 -2.827337e-02
 endloop
endfacet
facet normal -1.000000e+00 0.000000e+00 0.000000e+00
 outer loop
  vertex 1.148822e+00 1.122292e-01 3.144844e-01
  vertex 1.148822e+00 3.744190e-01 4.100364e-01
  vertex 1.148822e+00 2.930460e-01 1.431055e-01
 endloop
endfacet
facet normal -1.000000e+00 -0.000000e+00 0.000000e+00
 outer loop
  vertex 1.148822e+00 3.744190e-01 4.100364e-01
  vertex 1.148822e+00 1.122292e-01 3.144844e-01
  vertex 1.148822e+00 1.122292e-01 4.858633e-01
 endloop
endfacet
facet normal 1.000000e+00 0.000000e+00 0.000000e+00
 outer loop
  vertex 1.000000e+00 1.122292e-01 3.144844e-01
  vertex 1.000000e+00 1.122292e-01 -2.827337e-02
  vertex 1.000000e+00 3.514292e-01 1.431055e-01
 endloop
endfacet
facet normal 1.000000e+00 -0.000000e+00 0.000000e+00
 outer loop
  vertex 1.000000e+00 1.122292e-01 3.144844e-01
  vertex 1.000000e+00 3.514292e-01 1.431055e-01
  vertex 1.000000e+00 4.434774e-01 3.345206e-01
 endloop
endfacet
facet normal 1.000000e+00 0.000000e+00 0.000000e+00
 outer loop
  vertex 1.000000e+00 1.122292e-01 3.144844e-01
  vertex 1.000000e+00 4.434774e-01 3.345206e-01
  vertex 1.000000e+00 2.944540e-01 4.858633e-01
 endloop
endfacet
facet normal 1.000000e+00 0.000000e+00 0.000000e+00
 outer loop
  vertex 1.000000e+00 1.122292e-01 3.144844e-01
  vertex 1.000000e+00 2.944540e-01 4.858633e-01
  vertex 1.000000e+00 1.122292e-01 4.858633e-01
 endloop
endfacet
facet normal 0.000000e+00 1.000000e+00 0.000000e+00
 outer loop
  vertex 1.000000e+00 1.122292e-01 3.144844e-01
  vertex 1.000000e+00 1.122292e-01 4.858633e-01
  vertex 1.148822e+00 1.122292e-01 4.858633e-01
 endloop
endfacet
facet normal -1.000000e+00 0.000000e+00 0.000000e+00
 outer loop
  vertex 1.148822e+00 1.556115e+00 -3.710312e-01
  vertex 1.148822e+00 1.278057e+00 -3.710312e-01
  vertex 1.148822e+00 1.236988e+00 -1.327146e-01
 endloop
endfacet
facet normal 0.000000e+00 -0.000000e+00 1.000000e+00
 outer loop
  vertex 1.148822e+00 1.278057e+00 -3.710312e-01
  vertex 1.148822e+00 1.556115e+00 -3.710312e-01
  vertex 9.615915e-01 1.417086e+00 -3.710312e-01
 endloop
endfacet
facet normal -1.000000e+00 0.000000e+00 0.000000e+00
 outer loop
  vertex 1.148822e+00 1.556115e+00 -3.710312e-01
  vertex 1.148822e+00 1.236988e+00 -1.327146e-01
  vertex 1.148822e+00 1.751830e+00 2.076045e-03
 endloop
endfacet
facet normal -1.000000e+00 0.000000e+00 0.000000e+00
 outer loop
  vertex 1.148822e+00 1.834172e+00 -3.710312e-01
  vertex 1.148822e+00 1.556115e+00 -3.710312e-01
  vertex 1.148822e+00 1.751830e+00 2.076045e-03
 endloop
endfacet
facet normal 0.000000e+00 -0.000000e+00 1.000000e+00
 outer loop
  vertex 1.148822e+00 1.556115e+00 -3.710312e-01
  vertex 1.148822e+00 1.834172e+00 -3.710312e-01
  vertex 9.615915e-01 1.417086e+00 -3.710312e-01
 endloop
endfacet
facet normal -1.000000e+00 0.000000e+00 -0.000000e+00
 outer loop
  vertex 1.148822e+00 1.106567e+00 6.289688e-01
  vertex 1.148822e+00 1.160084e+00 3.656866e-01
  vertex 1.148822e+00 9.352384e-01 5.982693e-01
 endloop
endfacet
facet normal -1.000000e+00 0.000000e+00 0.000000e+00
 outer loop
  vertex 1.148822e+00 1.160084e+00 3.656866e-01
  vertex 1.148822e+00 1.106567e+00 6.289688e-01
  vertex 1.148822e+00 1.377430e+00 5.469460e-01
 endloop
endfacet
facet normal -1.000000e+00 -0.000000e+00 0.000000e+00
 outer loop
  vertex 1.148822e+00 1.106567e+00 6.289688e-01
  vertex 1.148822e+00 9.352384e-01 5.982693e-01
  vertex 1.148822e+00 1.031830e+00 7.808650e-01
 endloop
endfacet
facet normal -1.000000e+00 0.000000e+00 0.000000e+00
 outer loop
  vertex 1.148822e+00 1.106567e+00 6.289688e-01
  vertex 1.148822e+00 1.031830e+00 7.808650e-01
  vertex 1.148822e+00 1.337567e+00 8.331120e-01
 endloop
endfacet
facet normal -1.000000e+00 0.000000e+00 0.000000e+00
 outer loop
  vertex 1.148822e+00 1.106567e+00 6.289688e-01
  vertex 1.148822e+00 1.337567e+00 8.331120e-01
  vertex 1.148822e+00 1.377430e+00 5.469460e-01
 endloop
endfacet
facet normal -1.000000e+00 0.000000e+00 0.000000e+00
 outer loop
  vertex 1.148822e+00 7.061024e-01 1.659669e-01
  vertex 1.148822e+00 5.897563e-01 -1.818480e-01
  vertex 1.148822e+00 4.485410e-01 -5.153960e-02
 endloop
endfacet
facet normal -1.000000e+00 -0.000000e+00 0.000000e+00
 outer loop
  vertex 1.148822e+00 7.061024e-01 1.659669e-01
  vertex 1.148822e+00 4.485410e-01 -5.153960e-02
  vertex 1.148822e+00 4.955502e-01 2.272414e-01
 endloop
endfacet
facet normal -1.000000e+00 0.000000e+00 0.000000e+00
 outer loop
  vertex 1.148822e+00 7.061024e-01 1.659669e-01
  vertex 1.148822e+00 9.036147e-01 2.856540e-01
  vertex 1.148822e+00 7.997947e-01 2.461157e-02
 endloop
endfacet
facet normal -1.000000e+00 -0.000000e+00 0.000000e+00
 outer loop
  vertex 1.148822e+00 9.036147e-01 2.856540e-01
  vertex 1.148822e+00 7.061024e-01 1.659669e-01
  vertex 1.148822e+00 7.406527e-01 3.317654e-01
 endloop
endfacet
facet normal -1.000000e+00 -0.000000e+00 0.000000e+00
 outer loop
  vertex 1.148822e+00 7.997947e-01 2.461157e-02
  vertex 1.148822e+00 5.897563e-01 -1.818480e-01
  vertex 1.148822e+00 7.061024e-01 1.659669e-01
 endloop
endfacet
facet normal -1.000000e+00 0.000000e+00 0.000000e+00
 outer loop
  vertex 1.148822e+00 7.061024e-01 1.659669e-01
  vertex 1.148822e+00 4.955502e-01 2.272414e-01
  vertex 1.148822e+00 7.406527e-01 3.317654e-01
 endloop
endfacet
facet normal -1.000000e+00 0.000000e+00 0.000000e+00
 outer loop
  vertex 1.148822e+00 1.556115e+00 1.628969e+00
  vertex 1.148822e+00 1.325361e+00 1.131657e+00
  vertex 1.148822e+00 1.043598e+00 1.254294e+00
 endloop
endfacet
facet normal -1.000000e+00 0.000000e+00 0.000000e+00
 outer loop
  vertex 1.148822e+00 1.325361e+00 1.131657e+00
  vertex 1.148822e+00 1.556115e+00 1.628969e+00
  vertex 1.148822e+00 1.718655e+00 1.089257e+00
 endloop
endfacet
facet normal -0.000000e+00 0.000000e+00 -1.000000e+00
 outer loop
  vertex 1.148822e+00 1.556115e+00 1.628969e+00
  vertex 6.513916e-01 1.107388e+00 1.628969e+00
  vertex 4.017085e-01 1.609174e+00 1.628969e+00
 endloop
endfacet
facet normal 0.000000e+00 -0.000000e+00 -1.000000e+00
 outer loop
  vertex 6.488221e-01 2.112229e+00 1.628969e+00
  vertex 1.148822e+00 1.556115e+00 1.628969e+00
  vertex 4.017085e-01 1.609174e+00 1.628969e+00
 endloop
endfacet
facet normal 1.000000e+00 0.000000e+00 0.000000e+00
 outer loop
  vertex 1.000000e+00 7.780573e-01 1.000000e+00
  vertex 1.000000e+00 5.561146e-01 1.000000e+00
  vertex 1.000000e+00 6.670860e-01 7.578518e-01
 endloop
endfacet
facet normal 0.000000e+00 -0.000000e+00 1.000000e+00
 outer loop
  vertex 1.000000e+00 5.561146e-01 1.000000e+00
  vertex 1.000000e+00 7.780573e-01 1.000000e+00
  vertex 6.034204e-01 7.131446e-01 1.000000e+00
 endloop
endfacet
facet normal 1.000000e+00 0.000000e+00 0.000000e+00
 outer loop
  vertex 1.000000e+00 6.670860e-01 7.578518e-01
  vertex 1.000000e+00 5.561146e-01 1.000000e+00
  vertex 1.000000e+00 4.451433e-01 8.026422e-01
 endloop
endfacet
facet normal 1.000000e+00 0.000000e+00 0.000000e+00
 outer loop
  vertex 1.000000e+00 5.561146e-01 1.000000e+00
  vertex 1.000000e+00 3.341719e-01 1.000000e+00
  vertex 1.000000e+00 4.451433e-01 8.026422e-01
 endloop
endfacet
facet normal 0.000000e+00 -0.000000e+00 1.000000e+00
 outer loop
  vertex 1.000000e+00 3.341719e-01 1.000000e+00
  vertex 1.000000e+00 5.561146e-01 1.000000e+00
  vertex 6.770703e-01 4.343917e-01 1.000000e+00
 endloop
endfacet
facet normal 0.000000e+00 -0.000000e+00 1.000000e+00
 outer loop
  vertex 6.770703e-01 4.343917e-01 1.000000e+00
  vertex 1.000000e+00 5.561146e-01 1.000000e+00
  vertex 6.034204e-01 7.131446e-01 1.000000e+00
 endloop
endfacet
facet normal 0.000000e+00 1.000000e+00 0.000000e+00
 outer loop
  vertex -8.511779e-01 1.000000e+00 -2.827337e-02
  vertex -8.511779e-01 1.000000e+00 3.144844e-01
  vertex -4.849525e-01 1.000000e+00 1.431055e-01
 endloop
endfacet
facet normal 1.000000e+00 0.000000e+00 0.000000e+00
 outer loop
  vertex -8.511779e-01 1.000000e+00 3.144844e-01
  vertex -8.511779e-01 1.000000e+00 -2.827337e-02
  vertex -8.511779e-01 1.619232e+00 2.484999e-01
 endloop
endfacet
facet normal 1.000000e+00 -0.000000e+00 0.000000e+00
 outer loop
  vertex -8.511779e-01 1.000000e+00 4.858633e-01
  vertex -8.511779e-01 1.000000e+00 3.144844e-01
  vertex -8.511779e-01 1.180943e+00 5.715528e-01
 endloop
endfacet
facet normal 0.000000e+00 1.000000e+00 0.000000e+00
 outer loop
  vertex -8.511779e-01 1.000000e+00 3.144844e-01
  vertex -8.511779e-01 1.000000e+00 4.858633e-01
  vertex -5.963259e-01 1.000000e+00 3.820971e-01
 endloop
endfacet
facet normal 0.000000e+00 1.000000e+00 0.000000e+00
 outer loop
  vertex -4.849525e-01 1.000000e+00 1.431055e-01
  vertex -8.511779e-01 1.000000e+00 3.144844e-01
  vertex -5.963259e-01 1.000000e+00 3.820971e-01
 endloop
endfacet
facet normal 1.000000e+00 -0.000000e+00 0.000000e+00
 outer loop
  vertex -8.511779e-01 1.000000e+00 3.144844e-01
  vertex -8.511779e-01 1.619232e+00 2.484999e-01
  vertex -8.511779e-01 1.380099e+00 5.510559e-01
 endloop
endfacet
facet normal 1.000000e+00 0.000000e+00 0.000000e+00
 outer loop
  vertex -8.511779e-01 1.000000e+00 3.144844e-01
  vertex -8.511779e-01 1.380099e+00 5.510559e-01
  vertex -8.511779e-01 1.180943e+00 5.715528e-01
 endloop
endfacet
facet normal 1.000000e+00 0.000000e+00 -0.000000e+00
 outer loop
  vertex 1.000000e+00 1.000000e+00 -2.827337e-02
  vertex 1.000000e+00 1.000000e+00 1.431055e-01
  vertex 1.000000e+00 7.840706e-01 -2.274364e-02
 endloop
endfacet
facet normal 0.000000e+00 1.000000e+00 0.000000e+00
 outer loop
  vertex 1.000000e+00 1.000000e+00 1.431055e-01
  vertex 1.000000e+00 1.000000e+00 -2.827337e-02
  vertex 5.860410e-01 1.000000e+00 4.684422e-02
 endloop
endfacet
facet normal 1.000000e+00 0.000000e+00 -0.000000e+00
 outer loop
  vertex 1.000000e+00 1.000000e+00 -1.996523e-01
  vertex 1.000000e+00 1.000000e+00 -2.827337e-02
  vertex 1.000000e+00 8.332755e-01 -1.829184e-01
 endloop
endfacet
facet normal 0.000000e+00 1.000000e+00 0.000000e+00
 outer loop
  vertex 1.000000e+00 1.000000e+00 -2.827337e-02
  vertex 1.000000e+00 1.000000e+00 -1.996523e-01
  vertex 6.529041e-01 1.000000e+00 -1.727611e-01
 endloop
endfacet
facet normal 1.000000e+00 0.000000e+00 0.000000e+00
 outer loop
  vertex 1.000000e+00 1.000000e+00 -2.827337e-02
  vertex 1.000000e+00 7.840706e-01 -2.274364e-02
  vertex 1.000000e+00 8.332755e-01 -1.829184e-01
 endloop
endfacet
facet normal 0.000000e+00 1.000000e+00 0.000000e+00
 outer loop
  vertex 5.860410e-01 1.000000e+00 4.684422e-02
  vertex 1.000000e+00 1.000000e+00 -2.827337e-02
  vertex 6.529041e-01 1.000000e+00 -1.727611e-01
 endloop
endfacet
facet normal 1.000000e+00 0.000000e+00 0.000000e+00
 outer loop
  vertex 1.000000e+00 7.780573e-01 1.000000e+00
  vertex 1.000000e+00 6.670860e-01 7.578518e-01
  vertex 1.000000e+00 8.442365e-01 7.429317e-01
 endloop
endfacet
facet normal 1.000000e+00 0.000000e+00 0.000000e+00
 outer loop
  vertex 1.000000e+00 1.000000e+00 8.286211e-01
  vertex 1.000000e+00 7.780573e-01 1.000000e+00
  vertex 1.000000e+00 8.442365e-01 7.429317e-01
 endloop
endfacet
facet normal 0.000000e+00 0.000000e+00 1.000000e+00
 outer loop
  vertex 6.034204e-01 7.131446e-01 1.000000e+00
  vertex 1.000000e+00 7.780573e-01 1.000000e+00
  vertex 7.872055e-01 1.000000e+00 1.000000e+00
 endloop
endfacet
facet normal 1.000000e+00 0.000000e+00 0.000000e+00
 outer loop
  vertex 1.000000e+00 6.670860e-01 7.578518e-01
  vertex 1.000000e+00 5.418724e-01 5.227519e-01
  vertex 1.000000e+00 7.842808e-01 5.445400e-01
 endloop
endfacet
facet normal 1.000000e+00 0.000000e+00 -0.000000e+00
 outer loop
  vertex 1.000000e+00 5.418724e-01 5.227519e-01
  vertex 1.000000e+00 6.670860e-01 7.578518e-01
  vertex 1.000000e+00 3.993974e-01 6.301728e-01
 endloop
endfacet
facet normal 1.000000e+00 0.000000e+00 0.000000e+00
 outer loop
  vertex 1.000000e+00 7.842808e-01 5.445400e-01
  vertex 1.000000e+00 5.418724e-01 5.227519e-01
  vertex 1.000000e+00 7.776741e-01 3.221790e-01
 endloop
endfacet
facet normal 1.000000e+00 0.000000e+00 0.000000e+00
 outer loop
  vertex 1.000000e+00 5.418724e-01 5.227519e-01
  vertex 1.000000e+00 2.944540e-01 4.858633e-01
  vertex 1.000000e+00 4.434774e-01 3.345206e-01
 endloop
endfacet
facet normal 1.000000e+00 0.000000e+00 0.000000e+00
 outer loop
  vertex 1.000000e+00 5.418724e-01 5.227519e-01
  vertex 1.000000e+00 3.993974e-01 6.301728e-01
  vertex 1.000000e+00 2.944540e-01 4.858633e-01
 endloop
endfacet
facet normal 1.000000e+00 0.000000e+00 0.000000e+00
 outer loop
  vertex 1.000000e+00 5.418724e-01 5.227519e-01
  vertex 1.000000e+00 4.434774e-01 3.345206e-01
  vertex 1.000000e+00 7.776741e-01 3.221790e-01
 endloop
endfacet
facet normal 0.000000e+00 1.000000e+00 0.000000e+00
 outer loop
  vertex -3.511779e-01 1.122292e-01 1.000000e+00
  vertex 1.488221e-01 1.122292e-01 1.628969e+00
  vertex 1.488221e-01 1.122292e-01 1.000000e+00
 endloop
endfacet
facet normal 0.000000e+00 1.000000e+00 0.000000e+00
 outer loop
  vertex 1.488221e-01 1.122292e-01 1.000000e+00
  vertex 1.488221e-01 1.122292e-01 1.628969e+00
  vertex 5.744110e-01 1.122292e-01 1.000000e+00
 endloop
endfacet
facet normal 0.000000e+00 1.000000e+00 0.000000e+00
 outer loop
  vertex 1.488221e-01 1.122292e-01 1.628969e+00
  vertex -3.511779e-01 1.122292e-01 1.000000e+00
  vertex -3.511779e-01 1.122292e-01 1.628969e+00
 endloop
endfacet
facet normal 0.000000e+00 0.000000e+00 -1.000000e+00
 outer loop
  vertex 1.488221e-01 1.122292e-01 1.628969e+00
  vertex -3.511779e-01 1.122292e-01 1.628969e+00
  vertex -3.159966e-01 7.167312e-01 1.628969e+00
 endloop
endfacet
facet normal -0.000000e+00 1.000000e+00 0.000000e+00
 outer loop
  vertex 1.488221e-01 1.122292e-01 1.628969e+00
  vertex 6.488221e-01 1.122292e-01 1.628969e+00
  vertex 5.744110e-01 1.122292e-01 1.000000e+00
 endloop
endfacet
facet normal 0.000000e+00 0.000000e+00 -1.000000e+00
 outer loop
  vertex 1.488221e-01 1.122292e-01 1.628969e+00
  vertex 5.243379e-01 6.146140e-01 1.628969e+00
  vertex 6.488221e-01 1.122292e-01 1.628969e+00
 endloop
endfacet
facet normal -0.000000e+00 0.000000e+00 -1.000000e+00
 outer loop
  vertex 5.243379e-01 6.146140e-01 1.628969e+00
  vertex 1.488221e-01 1.122292e-01 1.628969e+00
  vertex -3.159966e-01 7.167312e-01 1.628969e+00
 endloop
endfacet
facet normal 0.000000e+00 0.000000e+00 1.000000e+00
 outer loop
  vertex -3.511779e-01 1.122292e-01 1.000000e+00
  vertex 1.488221e-01 1.122292e-01 1.000000e+00
  vertex -8.519020e-02 4.973610e-01 1.000000e+00
 endloop
endfacet
facet normal 0.000000e+00 0.000000e+00 1.000000e+00
 outer loop
  vertex 1.488221e-01 1.122292e-01 1.000000e+00
  vertex 5.744110e-01 1.122292e-01 1.000000e+00
  vertex 3.616166e-01 5.561146e-01 1.000000e+00
 endloop
endfacet
facet normal 0.000000e+00 -0.000000e+00 1.000000e+00
 outer loop
  vertex 1.488221e-01 1.122292e-01 1.000000e+00
  vertex 3.616166e-01 5.561146e-01 1.000000e+00
  vertex -8.519020e-02 4.973610e-01 1.000000e+00
 endloop
endfacet
facet normal 0.000000e+00 1.000000e+00 0.000000e+00
 outer loop
  vertex -1.250162e-01 1.000000e+00 3.273274e-01
  vertex 1.488221e-01 1.000000e+00 1.000000e+00
  vertex 4.388627e-01 1.000000e+00 4.409803e-01
 endloop
endfacet
facet normal 0.000000e+00 1.000000e+00 0.000000e+00
 outer loop
  vertex 1.488221e-01 1.000000e+00 1.000000e+00
  vertex -1.250162e-01 1.000000e+00 3.273274e-01
  vertex -4.412698e-01 1.000000e+00 5.953542e-01
 endloop
endfacet
facet normal 0.000000e+00 -0.000000e+00 1.000000e+00
 outer loop
  vertex 3.616166e-01 5.561146e-01 1.000000e+00
  vertex 5.744110e-01 1.000000e+00 1.000000e+00
  vertex 1.488221e-01 1.000000e+00 1.000000e+00
 endloop
endfacet
facet normal 0.000000e+00 1.000000e+00 0.000000e+00
 outer loop
  vertex 5.744110e-01 1.000000e+00 1.000000e+00
  vertex 4.388627e-01 1.000000e+00 4.409803e-01
  vertex 1.488221e-01 1.000000e+00 1.000000e+00
 endloop
endfacet
facet normal 0.000000e+00 0.000000e+00 1.000000e+00
 outer loop
  vertex 3.616166e-01 5.561146e-01 1.000000e+00
  vertex 1.488221e-01 1.000000e+00 1.000000e+00
  vertex -8.519020e-02 4.973610e-01 1.000000e+00
 endloop
endfacet
facet normal -0.000000e+00 1.000000e+00 0.000000e+00
 outer loop
  vertex -3.511779e-01 1.000000e+00 1.000000e+00
  vertex 1.488221e-01 1.000000e+00 1.000000e+00
  vertex -4.412698e-01 1.000000e+00 5.953542e-01
 endloop
endfacet
facet normal 0.000000e+00 0.000000e+00 1.000000e+00
 outer loop
  vertex 1.488221e-01 1.000000e+00 1.000000e+00
  vertex -3.511779e-01 1.000000e+00 1.000000e+00
  vertex -8.519020e-02 4.973610e-01 1.000000e+00
 endloop
endfacet
facet normal -1.000000e+00 0.000000e+00 0.000000e+00
 outer loop
  vertex 1.148822e+00 4.690942e-01 1.281288e+00
  vertex 1.148822e+00 5.561146e-01 1.628969e+00
  vertex 1.148822e+00 7.449852e-01 1.396966e+00
 endloop
endfacet
facet normal 0.000000e+00 0.000000e+00 -1.000000e+00
 outer loop
  vertex 5.243379e-01 6.146140e-01 1.628969e+00
  vertex 1.148822e+00 5.561146e-01 1.628969e+00
  vertex 6.488221e-01 1.122292e-01 1.628969e+00
 endloop
endfacet
facet normal 0.000000e+00 0.000000e+00 -1.000000e+00
 outer loop
  vertex -2.290648e-01 1.614589e+00 1.628969e+00
  vertex 1.488221e-01 2.112229e+00 1.628969e+00
  vertex 4.017085e-01 1.609174e+00 1.628969e+00
 endloop
endfacet
facet normal 0.000000e+00 0.000000e+00 -1.000000e+00
 outer loop
  vertex 1.488221e-01 2.112229e+00 1.628969e+00
  vertex 6.488221e-01 2.112229e+00 1.628969e+00
  vertex 4.017085e-01 1.609174e+00 1.628969e+00
 endloop
endfacet
facet normal -0.000000e+00 -1.000000e+00 0.000000e+00
 outer loop
  vertex 6.488221e-01 2.112229e+00 1.628969e+00
  vertex 1.488221e-01 2.112229e+00 1.628969e+00
  vertex 5.654887e-01 2.112229e+00 1.045636e+00
 endloop
endfacet
facet normal 0.000000e+00 -1.000000e+00 -0.000000e+00
 outer loop
  vertex 1.488221e-01 2.112229e+00 1.628969e+00
  vertex -2.261779e-01 2.112229e+00 1.128969e+00
  vertex 5.654887e-01 2.112229e+00 1.045636e+00
 endloop
endfacet
facet normal 0.000000e+00 0.000000e+00 1.000000e+00
 outer loop
  vertex 1.148822e+00 7.780573e-01 -3.710312e-01
  vertex 1.000000e+00 5.561146e-01 -3.710312e-01
  vertex 1.148822e+00 5.561146e-01 -3.710312e-01
 endloop
endfacet
facet normal -0.000000e+00 0.000000e+00 1.000000e+00
 outer loop
  vertex 1.000000e+00 5.561146e-01 -3.710312e-01
  vertex 1.148822e+00 3.341719e-01 -3.710312e-01
  vertex 1.148822e+00 5.561146e-01 -3.710312e-01
 endloop
endfacet
facet normal 0.000000e+00 0.000000e+00 1.000000e+00
 outer loop
  vertex 1.000000e+00 5.561146e-01 -3.710312e-01
  vertex 1.148822e+00 7.780573e-01 -3.710312e-01
  vertex 1.000000e+00 7.780573e-01 -3.710312e-01
 endloop
endfacet
facet normal 1.000000e+00 0.000000e+00 0.000000e+00
 outer loop
  vertex 1.000000e+00 5.561146e-01 -3.710312e-01
  vertex 1.000000e+00 7.780573e-01 -3.710312e-01
  vertex 1.000000e+00 6.670860e-01 -2.043220e-01
 endloop
endfacet
facet normal 0.000000e+00 0.000000e+00 1.000000e+00
 outer loop
  vertex 1.148822e+00 3.341719e-01 -3.710312e-01
  vertex 1.000000e+00 5.561146e-01 -3.710312e-01
  vertex 1.000000e+00 3.341719e-01 -3.710312e-01
 endloop
endfacet
facet normal 1.000000e+00 0.000000e+00 0.000000e+00
 outer loop
  vertex 1.000000e+00 3.341719e-01 -3.710312e-01
  vertex 1.000000e+00 5.561146e-01 -3.710312e-01
  vertex 1.000000e+00 4.985579e-01 -9.613287e-02
 endloop
endfacet
facet normal 1.000000e+00 0.000000e+00 0.000000e+00
 outer loop
  vertex 1.000000e+00 4.985579e-01 -9.613287e-02
  vertex 1.000000e+00 5.561146e-01 -3.710312e-01
  vertex 1.000000e+00 6.670860e-01 -2.043220e-01
 endloop
endfacet
facet normal -1.000000e+00 0.000000e+00 0.000000e+00
 outer loop
  vertex 1.148822e+00 7.780573e-01 -3.710312e-01
  vertex 1.148822e+00 5.561146e-01 -3.710312e-01
  vertex 1.148822e+00 5.897563e-01 -1.818480e-01
 endloop
endfacet
facet normal -1.000000e+00 0.000000e+00 0.000000e+00
 outer loop
  vertex 1.148822e+00 3.341719e-01 -3.710312e-01
  vertex 1.148822e+00 5.897563e-01 -1.818480e-01
  vertex 1.148822e+00 5.561146e-01 -3.710312e-01
 endloop
endfacet
facet normal 1.000000e+00 -0.000000e+00 0.000000e+00
 outer loop
  vertex 1.000000e+00 6.456865e-01 1.431055e-01
  vertex 1.000000e+00 7.840706e-01 -2.274364e-02
  vertex 1.000000e+00 1.000000e+00 1.431055e-01
 endloop
endfacet
facet normal 1.000000e+00 0.000000e+00 0.000000e+00
 outer loop
  vertex 1.000000e+00 6.456865e-01 1.431055e-01
  vertex 1.000000e+00 1.000000e+00 1.431055e-01
  vertex 1.000000e+00 7.776741e-01 3.221790e-01
 endloop
endfacet
facet normal 1.000000e+00 0.000000e+00 0.000000e+00
 outer loop
  vertex 1.000000e+00 7.840706e-01 -2.274364e-02
  vertex 1.000000e+00 6.456865e-01 1.431055e-01
  vertex 1.000000e+00 4.985579e-01 -9.613287e-02
 endloop
endfacet
facet normal 1.000000e+00 0.000000e+00 0.000000e+00
 outer loop
  vertex 1.000000e+00 6.456865e-01 1.431055e-01
  vertex 1.000000e+00 4.985579e-01 1.901936e-01
  vertex 1.000000e+00 4.985579e-01 -9.613287e-02
 endloop
endfacet
facet normal 1.000000e+00 0.000000e+00 -0.000000e+00
 outer loop
  vertex 1.000000e+00 6.456865e-01 1.431055e-01
  vertex 1.000000e+00 7.776741e-01 3.221790e-01
  vertex 1.000000e+00 4.985579e-01 1.901936e-01
 endloop
endfacet
facet normal -1.000000e+00 0.000000e+00 0.000000e+00
 outer loop
  vertex 1.148822e+00 7.780573e-01 1.099639e+00
  vertex 1.148822e+00 1.043598e+00 1.254294e+00
  vertex 1.148822e+00 1.061545e+00 9.475235e-01
 endloop
endfacet
facet normal -1.000000e+00 0.000000e+00 -0.000000e+00
 outer loop
  vertex 1.148822e+00 7.780573e-01 1.099639e+00
  vertex 1.148822e+00 1.061545e+00 9.475235e-01
  vertex 1.148822e+00 7.544829e-01 9.116397e-01
 endloop
endfacet
facet normal -1.000000e+00 -0.000000e+00 0.000000e+00
 outer loop
  vertex 1.148822e+00 1.043598e+00 1.254294e+00
  vertex 1.148822e+00 7.780573e-01 1.099639e+00
  vertex 1.148822e+00 7.449852e-01 1.396966e+00
 endloop
endfacet
facet normal -1.000000e+00 -0.000000e+00 0.000000e+00
 outer loop
  vertex 1.148822e+00 7.780573e-01 1.099639e+00
  vertex 1.148822e+00 7.544829e-01 9.116397e-01
  vertex 1.148822e+00 5.827143e-01 1.120963e+00
 endloop
endfacet
facet normal -1.000000e+00 0.000000e+00 0.000000e+00
 outer loop
  vertex 1.148822e+00 7.780573e-01 1.099639e+00
  vertex 1.148822e+00 5.827143e-01 1.120963e+00
  vertex 1.148822e+00 7.449852e-01 1.396966e+00
 endloop
endfacet
facet normal 0.000000e+00 1.000000e+00 0.000000e+00
 outer loop
  vertex -3.883834e-01 1.000000e+00 -3.710312e-01
  vertex -8.511779e-01 1.000000e+00 -2.827337e-02
  vertex -4.849525e-01 1.000000e+00 1.431055e-01
 endloop
endfacet
facet normal 1.000000e+00 -0.000000e+00 0.000000e+00
 outer loop
  vertex -8.511779e-01 1.000000e+00 -2.827337e-02
  vertex -8.511779e-01 1.556115e+00 -3.710312e-01
  vertex -8.511779e-01 1.619232e+00 2.484999e-01
 endloop
endfacet
facet normal 0.000000e+00 1.000000e+00 0.000000e+00
 outer loop
  vertex 1.000000e+00 1.000000e+00 1.431055e-01
  vertex 5.860410e-01 1.000000e+00 4.684422e-02
  vertex 7.055166e-01 1.000000e+00 3.160065e-01
 endloop
endfacet
facet normal 0.000000e+00 0.000000e+00 1.000000e+00
 outer loop
  vertex -8.511779e-01 5.561146e-01 1.000000e+00
  vertex -8.511779e-01 3.341719e-01 1.000000e+00
  vertex -5.747962e-01 3.937195e-01 1.000000e+00
 endloop
endfacet
facet normal 1.000000e+00 0.000000e+00 0.000000e+00
 outer loop
  vertex -8.511779e-01 3.341719e-01 1.000000e+00
  vertex -8.511779e-01 5.561146e-01 1.000000e+00
  vertex -8.511779e-01 4.455751e-01 1.314484e+00
 endloop
endfacet
facet normal 0.000000e+00 0.000000e+00 1.000000e+00
 outer loop
  vertex -8.511779e-01 7.780573e-01 1.000000e+00
  vertex -8.511779e-01 5.561146e-01 1.000000e+00
  vertex -5.026608e-01 6.670860e-01 1.000000e+00
 endloop
endfacet
facet normal 1.000000e+00 0.000000e+00 0.000000e+00
 outer loop
  vertex -8.511779e-01 5.561146e-01 1.000000e+00
  vertex -8.511779e-01 7.780573e-01 1.000000e+00
  vertex -8.511779e-01 7.926984e-01 1.348476e+00
 endloop
endfacet
facet normal 0.000000e+00 0.000000e+00 1.000000e+00
 outer loop
  vertex -5.026608e-01 6.670860e-01 1.000000e+00
  vertex -8.511779e-01 5.561146e-01 1.000000e+00
  vertex -5.747962e-01 3.937195e-01 1.000000e+00
 endloop
endfacet
facet normal 1.000000e+00 0.000000e+00 -0.000000e+00
 outer loop
  vertex -8.511779e-01 5.561146e-01 1.000000e+00
  vertex -8.511779e-01 7.926984e-01 1.348476e+00
  vertex -8.511779e-01 4.455751e-01 1.314484e+00
 endloop
endfacet
facet normal -1.000000e+00 -0.000000e+00 0.000000e+00
 outer loop
  vertex 1.148822e+00 1.239736e+00 1.090992e-01
  vertex 1.148822e+00 9.649772e-01 6.300910e-02
  vertex 1.148822e+00 1.083055e+00 2.011179e-01
 endloop
endfacet
facet normal -1.000000e+00 0.000000e+00 0.000000e+00
 outer loop
  vertex 1.148822e+00 1.239736e+00 1.090992e-01
  vertex 1.148822e+00 1.236988e+00 -1.327146e-01
  vertex 1.148822e+00 9.649772e-01 6.300910e-02
 endloop
endfacet
facet normal -1.000000e+00 0.000000e+00 -0.000000e+00
 outer loop
  vertex 1.148822e+00 1.160084e+00 3.656866e-01
  vertex 1.148822e+00 1.239736e+00 1.090992e-01
  vertex 1.148822e+00 1.083055e+00 2.011179e-01
 endloop
endfacet
facet normal -1.000000e+00 0.000000e+00 0.000000e+00
 outer loop
  vertex 1.148822e+00 1.239736e+00 1.090992e-01
  vertex 1.148822e+00 1.160084e+00 3.656866e-01
  vertex 1.148822e+00 1.377430e+00 5.469460e-01
 endloop
endfacet
facet normal -1.000000e+00 0.000000e+00 0.000000e+00
 outer loop
  vertex 1.148822e+00 1.239736e+00 1.090992e-01
  vertex 1.148822e+00 1.377430e+00 5.469460e-01
  vertex 1.148822e+00 1.814607e+00 3.789688e-01
 endloop
endfacet
facet normal -1.000000e+00 0.000000e+00 0.000000e+00
 outer loop
  vertex 1.148822e+00 1.236988e+00 -1.327146e-01
  vertex 1.148822e+00 1.239736e+00 1.090992e-01
  vertex 1.148822e+00 1.751830e+00 2.076045e-03
 endloop
endfacet
facet normal -1.000000e+00 0.000000e+00 0.000000e+00
 outer loop
  vertex 1.148822e+00 1.239736e+00 1.090992e-01
  vertex 1.148822e+00 1.814607e+00 3.789688e-01
  vertex 1.148822e+00 1.751830e+00 2.076045e-03
 endloop
endfacet
facet normal 0.000000e+00 0.000000e+00 -1.000000e+00
 outer loop
  vertex 5.243379e-01 6.146140e-01 1.628969e+00
  vertex 1.425244e-01 1.112229e+00 1.628969e+00
  vertex 6.513916e-01 1.107388e+00 1.628969e+00
 endloop
endfacet
facet normal 0.000000e+00 -0.000000e+00 -1.000000e+00
 outer loop
  vertex 1.425244e-01 1.112229e+00 1.628969e+00
  vertex 5.243379e-01 6.146140e-01 1.628969e+00
  vertex -3.159966e-01 7.167312e-01 1.628969e+00
 endloop
endfacet
facet normal 0.000000e+00 0.000000e+00 -1.000000e+00
 outer loop
  vertex 6.513916e-01 1.107388e+00 1.628969e+00
  vertex 1.425244e-01 1.112229e+00 1.628969e+00
  vertex 4.017085e-01 1.609174e+00 1.628969e+00
 endloop
endfacet
facet normal -0.000000e+00 0.000000e+00 -1.000000e+00
 outer loop
  vertex 1.425244e-01 1.112229e+00 1.628969e+00
  vertex -3.159966e-01 7.167312e-01 1.628969e+00
  vertex -4.137031e-01 1.179329e+00 1.628969e+00
 endloop
endfacet
facet normal 0.000000e+00 -0.000000e+00 -1.000000e+00
 outer loop
  vertex -2.290648e-01 1.614589e+00 1.628969e+00
  vertex 1.425244e-01 1.112229e+00 1.628969e+00
  vertex -4.137031e-01 1.179329e+00 1.628969e+00
 endloop
endfacet
facet normal 0.000000e+00 0.000000e+00 -1.000000e+00
 outer loop
  vertex 1.425244e-01 1.112229e+00 1.628969e+00
  vertex -2.290648e-01 1.614589e+00 1.628969e+00
  vertex 4.017085e-01 1.609174e+00 1.628969e+00
 endloop
endfacet
facet normal 0.000000e+00 1.000000e+00 0.000000e+00
 outer loop
  vertex 1.148822e+00 1.122292e-01 -2.827337e-02
  vertex 1.000000e+00 1.122292e-01 -1.996523e-01
  vertex 1.000000e+00 1.122292e-01 -2.827337e-02
 endloop
endfacet
facet normal -1.000000e+00 0.000000e+00 0.000000e+00
 outer loop
  vertex 1.148822e+00 1.122292e-01 -2.827337e-02
  vertex 1.148822e+00 2.930460e-01 1.431055e-01
  vertex 1.148822e+00 4.485410e-01 -5.153960e-02
 endloop
endfacet
facet normal -1.000000e+00 0.000000e+00 0.000000e+00
 outer loop
  vertex 1.148822e+00 1.122292e-01 -2.827337e-02
  vertex 1.148822e+00 4.485410e-01 -5.153960e-02
  vertex 1.148822e+00 1.122292e-01 -1.996523e-01
 endloop
endfacet
facet normal 0.000000e+00 1.000000e+00 0.000000e+00
 outer loop
  vertex 1.000000e+00 1.122292e-01 -1.996523e-01
  vertex 1.148822e+00 1.122292e-01 -2.827337e-02
  vertex 1.148822e+00 1.122292e-01 -1.996523e-01
 endloop
endfacet
facet normal 1.000000e+00 -0.000000e+00 0.000000e+00
 outer loop
  vertex 1.000000e+00 1.122292e-01 -2.827337e-02
  vertex 1.000000e+00 4.985579e-01 -9.613287e-02
  vertex 1.000000e+00 3.514292e-01 1.431055e-01
 endloop
endfacet
facet normal 1.000000e+00 0.000000e+00 0.000000e+00
 outer loop
  vertex 1.000000e+00 1.122292e-01 -2.827337e-02
  vertex 1.000000e+00 1.122292e-01 -1.996523e-01
  vertex 1.000000e+00 4.985579e-01 -9.613287e-02
 endloop
endfacet
facet normal -1.000000e+00 0.000000e+00 -0.000000e+00
 outer loop
  vertex 1.148822e+00 5.038910e-01 6.572422e-01
  vertex 1.148822e+00 5.849753e-01 4.572671e-01
  vertex 1.148822e+00 3.744190e-01 4.100364e-01
 endloop
endfacet
facet normal -1.000000e+00 0.000000e+00 0.000000e+00
 outer loop
  vertex 1.148822e+00 5.038910e-01 6.572422e-01
  vertex 1.148822e+00 3.744190e-01 4.100364e-01
  vertex 1.148822e+00 3.080601e-01 6.022992e-01
 endloop
endfacet
facet normal -1.000000e+00 0.000000e+00 0.000000e+00
 outer loop
  vertex 1.148822e+00 5.038910e-01 6.572422e-01
  vertex 1.148822e+00 6.979098e-01 6.572356e-01
  vertex 1.148822e+00 5.849753e-01 4.572671e-01
 endloop
endfacet
facet normal -1.000000e+00 0.000000e+00 0.000000e+00
 outer loop
  vertex 1.148822e+00 5.038910e-01 6.572422e-01
  vertex 1.148822e+00 4.627225e-01 8.077752e-01
  vertex 1.148822e+00 6.979098e-01 6.572356e-01
 endloop
endfacet
facet normal -1.000000e+00 -0.000000e+00 0.000000e+00
 outer loop
  vertex 1.148822e+00 5.038910e-01 6.572422e-01
  vertex 1.148822e+00 3.080601e-01 6.022992e-01
  vertex 1.148822e+00 4.627225e-01 8.077752e-01
 endloop
endfacet
facet normal -1.000000e+00 0.000000e+00 0.000000e+00
 outer loop
  vertex 1.148822e+00 4.485410e-01 -5.153960e-02
  vertex 1.148822e+00 2.930460e-01 1.431055e-01
  vertex 1.148822e+00 4.955502e-01 2.272414e-01
 endloop
endfacet
facet normal -1.000000e+00 0.000000e+00 0.000000e+00
 outer loop
  vertex 1.148822e+00 3.341719e-01 -3.710312e-01
  vertex 1.148822e+00 4.485410e-01 -5.153960e-02
  vertex 1.148822e+00 5.897563e-01 -1.818480e-01
 endloop
endfacet
facet normal -1.000000e+00 0.000000e+00 0.000000e+00
 outer loop
  vertex 1.148822e+00 4.485410e-01 -5.153960e-02
  vertex 1.148822e+00 3.341719e-01 -3.710312e-01
  vertex 1.148822e+00 1.122292e-01 -1.996523e-01
 endloop
endfacet
facet normal 1.000000e+00 -0.000000e+00 0.000000e+00
 outer loop
  vertex 1.000000e+00 3.514292e-01 1.431055e-01
  vertex 1.000000e+00 4.985579e-01 -9.613287e-02
  vertex 1.000000e+00 4.985579e-01 1.901936e-01
 endloop
endfacet
facet normal 1.000000e+00 0.000000e+00 0.000000e+00
 outer loop
  vertex 1.000000e+00 4.434774e-01 3.345206e-01
  vertex 1.000000e+00 3.514292e-01 1.431055e-01
  vertex 1.000000e+00 4.985579e-01 1.901936e-01
 endloop
endfacet
facet normal -1.000000e+00 0.000000e+00 0.000000e+00
 outer loop
  vertex 1.148822e+00 7.780573e-01 -3.710312e-01
  vertex 1.148822e+00 7.780573e-01 -1.435761e-01
  vertex 1.148822e+00 9.960044e-01 -1.529204e-01
 endloop
endfacet
facet normal -1.000000e+00 0.000000e+00 -0.000000e+00
 outer loop
  vertex 1.148822e+00 7.780573e-01 -1.435761e-01
  vertex 1.148822e+00 7.780573e-01 -3.710312e-01
  vertex 1.148822e+00 5.897563e-01 -1.818480e-01
 endloop
endfacet
facet normal -1.000000e+00 0.000000e+00 0.000000e+00
 outer loop
  vertex 1.148822e+00 9.960044e-01 -1.529204e-01
  vertex 1.148822e+00 7.780573e-01 -1.435761e-01
  vertex 1.148822e+00 7.997947e-01 2.461157e-02
 endloop
endfacet
facet normal -1.000000e+00 -0.000000e+00 0.000000e+00
 outer loop
  vertex 1.148822e+00 7.780573e-01 -1.435761e-01
  vertex 1.148822e+00 5.897563e-01 -1.818480e-01
  vertex 1.148822e+00 7.997947e-01 2.461157e-02
 endloop
endfacet
facet normal -1.000000e+00 -0.000000e+00 0.000000e+00
 outer loop
  vertex 1.148822e+00 1.325361e+00 1.131657e+00
  vertex 1.148822e+00 1.061545e+00 9.475235e-01
  vertex 1.148822e+00 1.043598e+00 1.254294e+00
 endloop
endfacet
facet normal -1.000000e+00 0.000000e+00 0.000000e+00
 outer loop
  vertex 1.148822e+00 1.061545e+00 9.475235e-01
  vertex 1.148822e+00 1.325361e+00 1.131657e+00
  vertex 1.148822e+00 1.337567e+00 8.331120e-01
 endloop
endfacet
facet normal -1.000000e+00 0.000000e+00 0.000000e+00
 outer loop
  vertex 1.148822e+00 1.337567e+00 8.331120e-01
  vertex 1.148822e+00 1.325361e+00 1.131657e+00
  vertex 1.148822e+00 1.718655e+00 1.089257e+00
 endloop
endfacet
facet normal -1.000000e+00 0.000000e+00 0.000000e+00
 outer loop
  vertex 1.148822e+00 1.122292e-01 1.314484e+00
  vertex 1.148822e+00 4.690942e-01 1.281288e+00
  vertex 1.148822e+00 2.775786e-01 1.157242e+00
 endloop
endfacet
facet normal 1.000000e+00 0.000000e+00 -0.000000e+00
 outer loop
  vertex 1.000000e+00 7.780573e-01 -3.710312e-01
  vertex 1.000000e+00 8.332755e-01 -1.829184e-01
  vertex 1.000000e+00 6.670860e-01 -2.043220e-01
 endloop
endfacet
facet normal -1.000000e+00 0.000000e+00 -0.000000e+00
 outer loop
  vertex 1.148822e+00 3.744190e-01 4.100364e-01
  vertex 1.148822e+00 4.955502e-01 2.272414e-01
  vertex 1.148822e+00 2.930460e-01 1.431055e-01
 endloop
endfacet
facet normal -1.000000e+00 0.000000e+00 0.000000e+00
 outer loop
  vertex 1.148822e+00 8.642093e-01 7.571745e-01
  vertex 1.148822e+00 1.061545e+00 9.475235e-01
  vertex 1.148822e+00 1.031830e+00 7.808650e-01
 endloop
endfacet
facet normal -1.000000e+00 0.000000e+00 0.000000e+00
 outer loop
  vertex 1.148822e+00 1.061545e+00 9.475235e-01
  vertex 1.148822e+00 8.642093e-01 7.571745e-01
  vertex 1.148822e+00 7.544829e-01 9.116397e-01
 endloop
endfacet
facet normal -1.000000e+00 0.000000e+00 -0.000000e+00
 outer loop
  vertex 1.148822e+00 1.061545e+00 9.475235e-01
  vertex 1.148822e+00 1.337567e+00 8.331120e-01
  vertex 1.148822e+00 1.031830e+00 7.808650e-01
 endloop
endfacet
facet normal 1.000000e+00 0.000000e+00 0.000000e+00
 outer loop
  vertex 1.000000e+00 6.670860e-01 7.578518e-01
  vertex 1.000000e+00 7.842808e-01 5.445400e-01
  vertex 1.000000e+00 8.442365e-01 7.429317e-01
 endloop
endfacet
facet normal 1.000000e+00 0.000000e+00 0.000000e+00
 outer loop
  vertex 1.000000e+00 6.670860e-01 7.578518e-01
  vertex 1.000000e+00 4.451433e-01 8.026422e-01
  vertex 1.000000e+00 3.993974e-01 6.301728e-01
 endloop
endfacet
facet normal 1.000000e+00 0.000000e+00 0.000000e+00
 outer loop
  vertex 1.000000e+00 4.451433e-01 8.026422e-01
  vertex 1.000000e+00 3.341719e-01 1.000000e+00
  vertex 1.000000e+00 2.805872e-01 8.399925e-01
 endloop
endfacet
facet normal 0.000000e+00 0.000000e+00 1.000000e+00
 outer loop
  vertex 1.000000e+00 3.341719e-01 1.000000e+00
  vertex 6.770703e-01 4.343917e-01 1.000000e+00
  vertex 7.872055e-01 1.122292e-01 1.000000e+00
 endloop
endfacet
facet normal -1.000000e+00 0.000000e+00 0.000000e+00
 outer loop
  vertex 1.148822e+00 7.980974e-01 4.910858e-01
  vertex 1.148822e+00 9.352384e-01 5.982693e-01
  vertex 1.148822e+00 9.036147e-01 2.856540e-01
 endloop
endfacet
facet normal -1.000000e+00 0.000000e+00 -0.000000e+00
 outer loop
  vertex 1.148822e+00 7.980974e-01 4.910858e-01
  vertex 1.148822e+00 9.036147e-01 2.856540e-01
  vertex 1.148822e+00 7.406527e-01 3.317654e-01
 endloop
endfacet
facet normal -1.000000e+00 0.000000e+00 0.000000e+00
 outer loop
  vertex 1.148822e+00 7.980974e-01 4.910858e-01
  vertex 1.148822e+00 6.979098e-01 6.572356e-01
  vertex 1.148822e+00 9.352384e-01 5.982693e-01
 endloop
endfacet
facet normal -1.000000e+00 -0.000000e+00 0.000000e+00
 outer loop
  vertex 1.148822e+00 7.980974e-01 4.910858e-01
  vertex 1.148822e+00 5.849753e-01 4.572671e-01
  vertex 1.148822e+00 6.979098e-01 6.572356e-01
 endloop
endfacet
facet normal -1.000000e+00 0.000000e+00 0.000000e+00
 outer loop
  vertex 1.148822e+00 7.980974e-01 4.910858e-01
  vertex 1.148822e+00 7.406527e-01 3.317654e-01
  vertex 1.148822e+00 5.849753e-01 4.572671e-01
 endloop
endfacet
facet normal -0.000000e+00 0.000000e+00 1.000000e+00
 outer loop
  vertex -8.511779e-01 3.341719e-01 1.000000e+00
  vertex -6.011779e-01 1.122292e-01 1.000000e+00
  vertex -5.747962e-01 3.937195e-01 1.000000e+00
 endloop
endfacet
facet normal 1.000000e+00 -0.000000e+00 0.000000e+00
 outer loop
  vertex -8.511779e-01 1.122292e-01 1.314484e+00
  vertex -8.511779e-01 3.341719e-01 1.000000e+00
  vertex -8.511779e-01 4.455751e-01 1.314484e+00
 endloop
endfacet
facet normal -1.000000e+00 0.000000e+00 0.000000e+00
 outer loop
  vertex 1.148822e+00 6.979098e-01 6.572356e-01
  vertex 1.148822e+00 8.642093e-01 7.571745e-01
  vertex 1.148822e+00 9.352384e-01 5.982693e-01
 endloop
endfacet
facet normal -1.000000e+00 -0.000000e+00 0.000000e+00
 outer loop
  vertex 1.148822e+00 8.642093e-01 7.571745e-01
  vertex 1.148822e+00 6.979098e-01 6.572356e-01
  vertex 1.148822e+00 7.544829e-01 9.116397e-01
 endloop
endfacet
facet normal -1.000000e+00 0.000000e+00 0.000000e+00
 outer loop
  vertex 1.148822e+00 8.642093e-01 7.571745e-01
  vertex 1.148822e+00 1.031830e+00 7.808650e-01
  vertex 1.148822e+00 9.352384e-01 5.982693e-01
 endloop
endfacet
facet normal 0.000000e+00 1.000000e+00 0.000000e+00
 outer loop
  vertex 7.872055e-01 1.000000e+00 1.000000e+00
  vertex 1.000000e+00 1.000000e+00 8.286211e-01
  vertex 6.685090e-01 1.000000e+00 6.812402e-01
 endloop
endfacet
facet normal 0.000000e+00 1.000000e+00 0.000000e+00
 outer loop
  vertex 1.000000e+00 1.122292e-01 6.572422e-01
  vertex 1.148822e+00 1.122292e-01 8.286211e-01
  vertex 1.148822e+00 1.122292e-01 6.572422e-01
 endloop
endfacet
facet normal -0.000000e+00 1.000000e+00 0.000000e+00
 outer loop
  vertex 1.000000e+00 1.122292e-01 6.572422e-01
  vertex 1.148822e+00 1.122292e-01 6.572422e-01
  vertex 1.148822e+00 1.122292e-01 4.858633e-01
 endloop
endfacet
facet normal 0.000000e+00 1.000000e+00 0.000000e+00
 outer loop
  vertex 1.148822e+00 1.122292e-01 8.286211e-01
  vertex 1.000000e+00 1.122292e-01 6.572422e-01
  vertex 1.000000e+00 1.122292e-01 8.286211e-01
 endloop
endfacet
facet normal 1.000000e+00 0.000000e+00 0.000000e+00
 outer loop
  vertex 1.000000e+00 1.122292e-01 6.572422e-01
  vertex 1.000000e+00 2.805872e-01 8.399925e-01
  vertex 1.000000e+00 1.122292e-01 8.286211e-01
 endloop
endfacet
facet normal 1.000000e+00 0.000000e+00 0.000000e+00
 outer loop
  vertex 1.000000e+00 2.944540e-01 4.858633e-01
  vertex 1.000000e+00 1.122292e-01 6.572422e-01
  vertex 1.000000e+00 1.122292e-01 4.858633e-01
 endloop
endfacet
facet normal 1.000000e+00 0.000000e+00 0.000000e+00
 outer loop
  vertex 1.000000e+00 1.122292e-01 6.572422e-01
  vertex 1.000000e+00 2.944540e-01 4.858633e-01
  vertex 1.000000e+00 3.993974e-01 6.301728e-01
 endloop
endfacet
facet normal 0.000000e+00 1.000000e+00 0.000000e+00
 outer loop
  vertex 1.000000e+00 1.122292e-01 6.572422e-01
  vertex 1.148822e+00 1.122292e-01 4.858633e-01
  vertex 1.000000e+00 1.122292e-01 4.858633e-01
 endloop
endfacet
facet normal 1.000000e+00 -0.000000e+00 0.000000e+00
 outer loop
  vertex 1.000000e+00 1.122292e-01 6.572422e-01
  vertex 1.000000e+00 3.993974e-01 6.301728e-01
  vertex 1.000000e+00 2.805872e-01 8.399925e-01
 endloop
endfacet
facet normal -1.000000e+00 -0.000000e+00 0.000000e+00
 outer loop
  vertex 1.148822e+00 3.080601e-01 8.286211e-01
  vertex 1.148822e+00 1.122292e-01 6.572422e-01
  vertex 1.148822e+00 1.122292e-01 8.286211e-01
 endloop
endfacet
facet normal -1.000000e+00 0.000000e+00 0.000000e+00
 outer loop
  vertex 1.148822e+00 1.122292e-01 6.572422e-01
  vertex 1.148822e+00 3.080601e-01 8.286211e-01
  vertex 1.148822e+00 3.080601e-01 6.022992e-01
 endloop
endfacet
facet normal -1.000000e+00 0.000000e+00 0.000000e+00
 outer loop
  vertex 1.148822e+00 1.122292e-01 6.572422e-01
  vertex 1.148822e+00 3.080601e-01 6.022992e-01
  vertex 1.148822e+00 1.122292e-01 4.858633e-01
 endloop
endfacet
facet normal 1.000000e+00 0.000000e+00 -0.000000e+00
 outer loop
  vertex 1.000000e+00 3.341719e-01 -3.710312e-01
  vertex 1.000000e+00 4.985579e-01 -9.613287e-02
  vertex 1.000000e+00 1.122292e-01 -1.996523e-01
 endloop
endfacet
facet normal -1.000000e+00 0.000000e+00 0.000000e+00
 outer loop
  vertex 1.148822e+00 9.649772e-01 6.300910e-02
  vertex 1.148822e+00 9.036147e-01 2.856540e-01
  vertex 1.148822e+00 1.083055e+00 2.011179e-01
 endloop
endfacet
facet normal -1.000000e+00 -0.000000e+00 0.000000e+00
 outer loop
  vertex 1.148822e+00 9.649772e-01 6.300910e-02
  vertex 1.148822e+00 7.997947e-01 2.461157e-02
  vertex 1.148822e+00 9.036147e-01 2.856540e-01
 endloop
endfacet
facet normal -1.000000e+00 0.000000e+00 -0.000000e+00
 outer loop
  vertex 1.148822e+00 9.649772e-01 6.300910e-02
  vertex 1.148822e+00 9.960044e-01 -1.529204e-01
  vertex 1.148822e+00 7.997947e-01 2.461157e-02
 endloop
endfacet
facet normal -1.000000e+00 0.000000e+00 0.000000e+00
 outer loop
  vertex 1.148822e+00 9.649772e-01 6.300910e-02
  vertex 1.148822e+00 1.236988e+00 -1.327146e-01
  vertex 1.148822e+00 9.960044e-01 -1.529204e-01
 endloop
endfacet
facet normal -1.000000e+00 0.000000e+00 0.000000e+00
 outer loop
  vertex 1.148822e+00 9.036147e-01 2.856540e-01
  vertex 1.148822e+00 1.160084e+00 3.656866e-01
  vertex 1.148822e+00 1.083055e+00 2.011179e-01
 endloop
endfacet
facet normal -1.000000e+00 0.000000e+00 0.000000e+00
 outer loop
  vertex 1.148822e+00 9.036147e-01 2.856540e-01
  vertex 1.148822e+00 9.352384e-01 5.982693e-01
  vertex 1.148822e+00 1.160084e+00 3.656866e-01
 endloop
endfacet
facet normal 1.000000e+00 -0.000000e+00 0.000000e+00
 outer loop
  vertex 1.000000e+00 4.985579e-01 -9.613287e-02
  vertex 1.000000e+00 6.670860e-01 -2.043220e-01
  vertex 1.000000e+00 7.840706e-01 -2.274364e-02
 endloop
endfacet
facet normal -1.000000e+00 0.000000e+00 -0.000000e+00
 outer loop
  vertex 1.148822e+00 4.690942e-01 1.281288e+00
  vertex 1.148822e+00 5.827143e-01 1.120963e+00
  vertex 1.148822e+00 2.775786e-01 1.157242e+00
 endloop
endfacet
facet normal -1.000000e+00 0.000000e+00 0.000000e+00
 outer loop
  vertex 1.148822e+00 5.827143e-01 1.120963e+00
  vertex 1.148822e+00 4.690942e-01 1.281288e+00
  vertex 1.148822e+00 7.449852e-01 1.396966e+00
 endloop
endfacet
facet normal 0.000000e+00 1.000000e+00 0.000000e+00
 outer loop
  vertex 1.000000e+00 1.000000e+00 -1.996523e-01
  vertex 7.686028e-01 1.000000e+00 -3.710312e-01
  vertex 6.529041e-01 1.000000e+00 -1.727611e-01
 endloop
endfacet
facet normal -1.000000e+00 0.000000e+00 0.000000e+00
 outer loop
  vertex 1.148822e+00 3.744190e-01 4.100364e-01
  vertex 1.148822e+00 5.849753e-01 4.572671e-01
  vertex 1.148822e+00 4.955502e-01 2.272414e-01
 endloop
endfacet
facet normal -1.000000e+00 0.000000e+00 0.000000e+00
 outer loop
  vertex 1.148822e+00 3.744190e-01 4.100364e-01
  vertex 1.148822e+00 1.122292e-01 4.858633e-01
  vertex 1.148822e+00 3.080601e-01 6.022992e-01
 endloop
endfacet
facet normal 1.000000e+00 0.000000e+00 0.000000e+00
 outer loop
  vertex 1.000000e+00 4.451433e-01 8.026422e-01
  vertex 1.000000e+00 2.805872e-01 8.399925e-01
  vertex 1.000000e+00 3.993974e-01 6.301728e-01
 endloop
endfacet
facet normal 1.000000e+00 0.000000e+00 0.000000e+00
 outer loop
  vertex 1.000000e+00 6.670860e-01 -2.043220e-01
  vertex 1.000000e+00 8.332755e-01 -1.829184e-01
  vertex 1.000000e+00 7.840706e-01 -2.274364e-02
 endloop
endfacet
facet normal -1.000000e+00 0.000000e+00 0.000000e+00
 outer loop
  vertex 1.148822e+00 3.080601e-01 8.286211e-01
  vertex 1.148822e+00 1.122292e-01 8.286211e-01
  vertex 1.148822e+00 2.777235e-01 9.915314e-01
 endloop
endfacet
facet normal -1.000000e+00 0.000000e+00 0.000000e+00
 outer loop
  vertex 1.148822e+00 3.080601e-01 6.022992e-01
  vertex 1.148822e+00 3.080601e-01 8.286211e-01
  vertex 1.148822e+00 4.627225e-01 8.077752e-01
 endloop
endfacet
facet normal -1.000000e+00 0.000000e+00 0.000000e+00
 outer loop
  vertex 1.148822e+00 3.080601e-01 8.286211e-01
  vertex 1.148822e+00 2.777235e-01 9.915314e-01
  vertex 1.148822e+00 4.627225e-01 8.077752e-01
 endloop
endfacet
facet normal -1.000000e+00 0.000000e+00 0.000000e+00
 outer loop
  vertex 1.148822e+00 6.979098e-01 6.572356e-01
  vertex 1.148822e+00 4.627225e-01 8.077752e-01
  vertex 1.148822e+00 5.654985e-01 9.252150e-01
 endloop
endfacet
facet normal -1.000000e+00 0.000000e+00 0.000000e+00
 outer loop
  vertex 1.148822e+00 6.979098e-01 6.572356e-01
  vertex 1.148822e+00 5.654985e-01 9.252150e-01
  vertex 1.148822e+00 7.544829e-01 9.116397e-01
 endloop
endfacet
facet normal 1.000000e+00 0.000000e+00 0.000000e+00
 outer loop
  vertex 1.000000e+00 7.776741e-01 3.221790e-01
  vertex 1.000000e+00 4.434774e-01 3.345206e-01
  vertex 1.000000e+00 4.985579e-01 1.901936e-01
 endloop
endfacet
facet normal -1.000000e+00 0.000000e+00 -0.000000e+00
 outer loop
  vertex 1.148822e+00 5.849753e-01 4.572671e-01
  vertex 1.148822e+00 7.406527e-01 3.317654e-01
  vertex 1.148822e+00 4.955502e-01 2.272414e-01
 endloop
endfacet
facet normal -1.000000e+00 0.000000e+00 0.000000e+00
 outer loop
  vertex 1.148822e+00 2.775786e-01 1.157242e+00
  vertex 1.148822e+00 5.827143e-01 1.120963e+00
  vertex 1.148822e+00 2.777235e-01 9.915314e-01
 endloop
endfacet
facet normal 1.000000e+00 0.000000e+00 0.000000e+00
 outer loop
  vertex -8.511779e-01 1.000000e+00 6.572422e-01
  vertex -8.511779e-01 1.000000e+00 4.858633e-01
  vertex -8.511779e-01 1.180943e+00 5.715528e-01
 endloop
endfacet
facet normal 0.000000e+00 1.000000e+00 0.000000e+00
 outer loop
  vertex -8.511779e-01 1.000000e+00 4.858633e-01
  vertex -8.511779e-01 1.000000e+00 6.572422e-01
  vertex -6.286145e-01 1.000000e+00 7.429317e-01
 endloop
endfacet
facet normal 1.000000e+00 0.000000e+00 0.000000e+00
 outer loop
  vertex -8.511779e-01 1.000000e+00 8.286211e-01
  vertex -8.511779e-01 1.000000e+00 6.572422e-01
  vertex -8.511779e-01 1.180943e+00 5.715528e-01
 endloop
endfacet
facet normal 0.000000e+00 1.000000e+00 0.000000e+00
 outer loop
  vertex -8.511779e-01 1.000000e+00 6.572422e-01
  vertex -8.511779e-01 1.000000e+00 8.286211e-01
  vertex -6.286145e-01 1.000000e+00 7.429317e-01
 endloop
endfacet
facet normal -1.000000e+00 0.000000e+00 0.000000e+00
 outer loop
  vertex 1.148822e+00 2.777235e-01 9.915314e-01
  vertex 1.148822e+00 5.654985e-01 9.252150e-01
  vertex 1.148822e+00 4.627225e-01 8.077752e-01
 endloop
endfacet
facet normal -1.000000e+00 0.000000e+00 0.000000e+00
 outer loop
  vertex 1.148822e+00 2.777235e-01 9.915314e-01
  vertex 1.148822e+00 5.827143e-01 1.120963e+00
  vertex 1.148822e+00 5.654985e-01 9.252150e-01
 endloop
endfacet
facet normal -1.000000e+00 0.000000e+00 0.000000e+00
 outer loop
  vertex 1.148822e+00 5.654985e-01 9.252150e-01
  vertex 1.148822e+00 5.827143e-01 1.120963e+00
  vertex 1.148822e+00 7.544829e-01 9.116397e-01
 endloop
endfacet
facet normal -0.000000e+00 0.000000e+00 1.000000e+00
 outer loop
  vertex -8.511779e-01 7.780573e-01 1.000000e+00
  vertex -5.026608e-01 6.670860e-01 1.000000e+00
  vertex -6.011779e-01 1.000000e+00 1.000000e+00
 endloop
endfacet
facet normal -0.000000e+00 1.000000e+00 0.000000e+00
 outer loop
  vertex -8.511779e-01 1.000000e+00 4.858633e-01
  vertex -6.286145e-01 1.000000e+00 7.429317e-01
  vertex -5.963259e-01 1.000000e+00 3.820971e-01
 endloop
endfacet
facet normal 0.000000e+00 0.000000e+00 1.000000e+00
 outer loop
  vertex 3.058083e-01 1.543123e+00 -3.710312e-01
  vertex 1.488221e-01 2.112229e+00 -3.710312e-01
  vertex -1.011779e-01 1.737062e+00 -3.710312e-01
 endloop
endfacet
facet normal -0.000000e+00 0.000000e+00 1.000000e+00
 outer loop
  vertex 1.488221e-01 2.112229e+00 -3.710312e-01
  vertex 3.058083e-01 1.543123e+00 -3.710312e-01
  vertex 6.488221e-01 2.112229e+00 -3.710312e-01
 endloop
endfacet
facet normal 0.000000e+00 -1.000000e+00 0.000000e+00
 outer loop
  vertex -3.511779e-01 2.112229e+00 -3.710312e-01
  vertex 1.488221e-01 2.112229e+00 -3.710312e-01
  vertex -3.511779e-01 2.112229e+00 2.539688e-01
 endloop
endfacet
facet normal 0.000000e+00 0.000000e+00 1.000000e+00
 outer loop
  vertex 1.488221e-01 2.112229e+00 -3.710312e-01
  vertex -3.511779e-01 2.112229e+00 -3.710312e-01
  vertex -1.011779e-01 1.737062e+00 -3.710312e-01
 endloop
endfacet
facet normal 0.000000e+00 -1.000000e+00 0.000000e+00
 outer loop
  vertex -3.511779e-01 2.112229e+00 2.539688e-01
  vertex 1.488221e-01 2.112229e+00 -3.710312e-01
  vertex 5.238221e-01 2.112229e+00 1.289688e-01
 endloop
endfacet
facet normal 0.000000e+00 -1.000000e+00 0.000000e+00
 outer loop
  vertex 1.488221e-01 2.112229e+00 -3.710312e-01
  vertex 6.488221e-01 2.112229e+00 -3.710312e-01
  vertex 5.238221e-01 2.112229e+00 1.289688e-01
 endloop
endfacet
facet normal 0.000000e+00 1.000000e+00 0.000000e+00
 outer loop
  vertex 7.441103e-02 1.000000e+00 -3.710312e-01
  vertex -3.883834e-01 1.000000e+00 -3.710312e-01
  vertex -1.545252e-01 1.000000e+00 -5.875346e-02
 endloop
endfacet
facet normal 0.000000e+00 -0.000000e+00 1.000000e+00
 outer loop
  vertex -3.883834e-01 1.000000e+00 -3.710312e-01
  vertex 7.441103e-02 1.000000e+00 -3.710312e-01
  vertex -4.261430e-01 1.439201e+00 -3.710312e-01
 endloop
endfacet
facet normal 0.000000e+00 0.000000e+00 1.000000e+00
 outer loop
  vertex 7.441103e-02 1.000000e+00 -3.710312e-01
  vertex 5.372055e-01 1.000000e+00 -3.710312e-01
  vertex 3.058083e-01 1.543123e+00 -3.710312e-01
 endloop
endfacet
facet normal 0.000000e+00 1.000000e+00 -0.000000e+00
 outer loop
  vertex 5.372055e-01 1.000000e+00 -3.710312e-01
  vertex 7.441103e-02 1.000000e+00 -3.710312e-01
  vertex 5.860410e-01 1.000000e+00 4.684422e-02
 endloop
endfacet
facet normal 0.000000e+00 -0.000000e+00 1.000000e+00
 outer loop
  vertex 7.441103e-02 1.000000e+00 -3.710312e-01
  vertex 3.058083e-01 1.543123e+00 -3.710312e-01
  vertex -1.011779e-01 1.737062e+00 -3.710312e-01
 endloop
endfacet
facet normal 0.000000e+00 1.000000e+00 0.000000e+00
 outer loop
  vertex 5.860410e-01 1.000000e+00 4.684422e-02
  vertex 7.441103e-02 1.000000e+00 -3.710312e-01
  vertex -1.545252e-01 1.000000e+00 -5.875346e-02
 endloop
endfacet
facet normal 0.000000e+00 0.000000e+00 1.000000e+00
 outer loop
  vertex 7.441103e-02 1.000000e+00 -3.710312e-01
  vertex -1.011779e-01 1.737062e+00 -3.710312e-01
  vertex -4.261430e-01 1.439201e+00 -3.710312e-01
 endloop
endfacet
facet normal 0.000000e+00 1.000000e+00 -0.000000e+00
 outer loop
  vertex -3.883834e-01 1.000000e+00 -3.710312e-01
  vertex -4.849525e-01 1.000000e+00 1.431055e-01
  vertex -1.545252e-01 1.000000e+00 -5.875346e-02
 endloop
endfacet
facet normal 0.000000e+00 0.000000e+00 1.000000e+00
 outer loop
  vertex 3.058083e-01 1.543123e+00 -3.710312e-01
  vertex 5.372055e-01 1.000000e+00 -3.710312e-01
  vertex 7.290807e-01 1.435058e+00 -3.710312e-01
 endloop
endfacet
facet normal 0.000000e+00 1.000000e+00 0.000000e+00
 outer loop
  vertex 5.372055e-01 1.000000e+00 -3.710312e-01
  vertex 5.860410e-01 1.000000e+00 4.684422e-02
  vertex 6.529041e-01 1.000000e+00 -1.727611e-01
 endloop
endfacet
facet normal 0.000000e+00 1.000000e+00 0.000000e+00
 outer loop
  vertex 7.686028e-01 1.000000e+00 -3.710312e-01
  vertex 5.372055e-01 1.000000e+00 -3.710312e-01
  vertex 6.529041e-01 1.000000e+00 -1.727611e-01
 endloop
endfacet
facet normal 0.000000e+00 0.000000e+00 1.000000e+00
 outer loop
  vertex 5.372055e-01 1.000000e+00 -3.710312e-01
  vertex 7.686028e-01 1.000000e+00 -3.710312e-01
  vertex 8.297850e-01 1.224882e+00 -3.710312e-01
 endloop
endfacet
facet normal 0.000000e+00 0.000000e+00 1.000000e+00
 outer loop
  vertex 7.290807e-01 1.435058e+00 -3.710312e-01
  vertex 5.372055e-01 1.000000e+00 -3.710312e-01
  vertex 8.297850e-01 1.224882e+00 -3.710312e-01
 endloop
endfacet
facet normal -0.000000e+00 1.000000e+00 0.000000e+00
 outer loop
  vertex -1.250162e-01 1.000000e+00 3.273274e-01
  vertex 4.388627e-01 1.000000e+00 4.409803e-01
  vertex 5.860410e-01 1.000000e+00 4.684422e-02
 endloop
endfacet
facet normal 0.000000e+00 1.000000e+00 0.000000e+00
 outer loop
  vertex -1.250162e-01 1.000000e+00 3.273274e-01
  vertex 5.860410e-01 1.000000e+00 4.684422e-02
  vertex -1.545252e-01 1.000000e+00 -5.875346e-02
 endloop
endfacet
facet normal -0.000000e+00 1.000000e+00 0.000000e+00
 outer loop
  vertex -4.849525e-01 1.000000e+00 1.431055e-01
  vertex -1.250162e-01 1.000000e+00 3.273274e-01
  vertex -1.545252e-01 1.000000e+00 -5.875346e-02
 endloop
endfacet
facet normal 0.000000e+00 1.000000e+00 0.000000e+00
 outer loop
  vertex -1.250162e-01 1.000000e+00 3.273274e-01
  vertex -4.849525e-01 1.000000e+00 1.431055e-01
  vertex -5.963259e-01 1.000000e+00 3.820971e-01
 endloop
endfacet
facet normal 0.000000e+00 1.000000e+00 0.000000e+00
 outer loop
  vertex -4.412698e-01 1.000000e+00 5.953542e-01
  vertex -1.250162e-01 1.000000e+00 3.273274e-01
  vertex -5.963259e-01 1.000000e+00 3.820971e-01
 endloop
endfacet
facet normal 0.000000e+00 1.000000e+00 0.000000e+00
 outer loop
  vertex -3.511779e-01 1.122292e-01 1.628969e+00
  vertex -3.511779e-01 1.122292e-01 1.000000e+00
  vertex -5.109773e-01 1.122292e-01 1.328316e+00
 endloop
endfacet
facet normal 0.000000e+00 0.000000e+00 -1.000000e+00
 outer loop
  vertex -3.159966e-01 7.167312e-01 1.628969e+00
  vertex -3.511779e-01 1.122292e-01 1.628969e+00
  vertex -8.511779e-01 5.561146e-01 1.628969e+00
 endloop
endfacet
facet normal -0.000000e+00 0.000000e+00 1.000000e+00
 outer loop
  vertex 3.058083e-01 1.543123e+00 -3.710312e-01
  vertex 7.290807e-01 1.435058e+00 -3.710312e-01
  vertex 6.488221e-01 2.112229e+00 -3.710312e-01
 endloop
endfacet
facet normal -1.000000e+00 0.000000e+00 0.000000e+00
 outer loop
  vertex 1.148822e+00 1.337567e+00 8.331120e-01
  vertex 1.148822e+00 1.609398e+00 7.090719e-01
  vertex 1.148822e+00 1.377430e+00 5.469460e-01
 endloop
endfacet
facet normal -1.000000e+00 0.000000e+00 0.000000e+00
 outer loop
  vertex 1.148822e+00 1.609398e+00 7.090719e-01
  vertex 1.148822e+00 1.337567e+00 8.331120e-01
  vertex 1.148822e+00 1.718655e+00 1.089257e+00
 endloop
endfacet
facet normal -1.000000e+00 0.000000e+00 -0.000000e+00
 outer loop
  vertex 1.148822e+00 1.609398e+00 7.090719e-01
  vertex 1.148822e+00 1.814607e+00 3.789688e-01
  vertex 1.148822e+00 1.377430e+00 5.469460e-01
 endloop
endfacet
facet normal 0.000000e+00 0.000000e+00 1.000000e+00
 outer loop
  vertex -6.011779e-01 1.122292e-01 1.000000e+00
  vertex -3.511779e-01 1.122292e-01 1.000000e+00
  vertex -5.747962e-01 3.937195e-01 1.000000e+00
 endloop
endfacet
facet normal 0.000000e+00 1.000000e+00 0.000000e+00
 outer loop
  vertex -3.511779e-01 1.122292e-01 1.000000e+00
  vertex -6.011779e-01 1.122292e-01 1.000000e+00
  vertex -5.109773e-01 1.122292e-01 1.328316e+00
 endloop
endfacet
facet normal -0.000000e+00 0.000000e+00 1.000000e+00
 outer loop
  vertex -5.747962e-01 3.937195e-01 1.000000e+00
  vertex -3.511779e-01 1.122292e-01 1.000000e+00
  vertex -8.519020e-02 4.973610e-01 1.000000e+00
 endloop
endfacet
facet normal 0.000000e+00 0.000000e+00 1.000000e+00
 outer loop
  vertex 5.744110e-01 1.000000e+00 1.000000e+00
  vertex 3.616166e-01 5.561146e-01 1.000000e+00
  vertex 6.034204e-01 7.131446e-01 1.000000e+00
 endloop
endfacet
facet normal 0.000000e+00 1.000000e+00 0.000000e+00
 outer loop
  vertex 4.388627e-01 1.000000e+00 4.409803e-01
  vertex 5.744110e-01 1.000000e+00 1.000000e+00
  vertex 6.685090e-01 1.000000e+00 6.812402e-01
 endloop
endfacet
facet normal -0.000000e+00 0.000000e+00 1.000000e+00
 outer loop
  vertex 5.744110e-01 1.000000e+00 1.000000e+00
  vertex 6.034204e-01 7.131446e-01 1.000000e+00
  vertex 7.872055e-01 1.000000e+00 1.000000e+00
 endloop
endfacet
facet normal -0.000000e+00 1.000000e+00 0.000000e+00
 outer loop
  vertex 5.744110e-01 1.000000e+00 1.000000e+00
  vertex 7.872055e-01 1.000000e+00 1.000000e+00
  vertex 6.685090e-01 1.000000e+00 6.812402e-01
 endloop
endfacet
facet normal 0.000000e+00 0.000000e+00 1.000000e+00
 outer loop
  vertex 3.616166e-01 5.561146e-01 1.000000e+00
  vertex 5.744110e-01 1.122292e-01 1.000000e+00
  vertex 6.770703e-01 4.343917e-01 1.000000e+00
 endloop
endfacet
facet normal -0.000000e+00 0.000000e+00 1.000000e+00
 outer loop
  vertex 3.616166e-01 5.561146e-01 1.000000e+00
  vertex 6.770703e-01 4.343917e-01 1.000000e+00
  vertex 6.034204e-01 7.131446e-01 1.000000e+00
 endloop
endfacet
facet normal 0.000000e+00 0.000000e+00 1.000000e+00
 outer loop
  vertex 1.148822e+00 1.278057e+00 -3.710312e-01
  vertex 9.615915e-01 1.417086e+00 -3.710312e-01
  vertex 8.297850e-01 1.224882e+00 -3.710312e-01
 endloop
endfacet
facet normal 0.000000e+00 0.000000e+00 1.000000e+00
 outer loop
  vertex 6.770703e-01 4.343917e-01 1.000000e+00
  vertex 5.744110e-01 1.122292e-01 1.000000e+00
  vertex 7.872055e-01 1.122292e-01 1.000000e+00
 endloop
endfacet
facet normal 0.000000e+00 1.000000e+00 0.000000e+00
 outer loop
  vertex 5.744110e-01 1.122292e-01 1.000000e+00
  vertex 8.130768e-01 1.122292e-01 1.335400e+00
  vertex 7.872055e-01 1.122292e-01 1.000000e+00
 endloop
endfacet
facet normal 0.000000e+00 1.000000e+00 0.000000e+00
 outer loop
  vertex 5.744110e-01 1.122292e-01 1.000000e+00
  vertex 6.488221e-01 1.122292e-01 1.628969e+00
  vertex 8.130768e-01 1.122292e-01 1.335400e+00
 endloop
endfacet
facet normal 0.000000e+00 1.000000e+00 -0.000000e+00
 outer loop
  vertex 5.860410e-01 1.000000e+00 4.684422e-02
  vertex 4.388627e-01 1.000000e+00 4.409803e-01
  vertex 7.055166e-01 1.000000e+00 3.160065e-01
 endloop
endfacet
facet normal -0.000000e+00 1.000000e+00 0.000000e+00
 outer loop
  vertex 4.388627e-01 1.000000e+00 4.409803e-01
  vertex 6.685090e-01 1.000000e+00 6.812402e-01
  vertex 7.055166e-01 1.000000e+00 3.160065e-01
 endloop
endfacet
facet normal 0.000000e+00 1.000000e+00 -0.000000e+00
 outer loop
  vertex -6.011779e-01 1.122292e-01 1.000000e+00
  vertex -8.511779e-01 1.122292e-01 1.314484e+00
  vertex -5.109773e-01 1.122292e-01 1.328316e+00
 endloop
endfacet
facet normal 0.000000e+00 1.000000e+00 0.000000e+00
 outer loop
  vertex -3.511779e-01 1.000000e+00 1.000000e+00
  vertex -4.412698e-01 1.000000e+00 5.953542e-01
  vertex -6.286145e-01 1.000000e+00 7.429317e-01
 endloop
endfacet
facet normal 0.000000e+00 -0.000000e+00 1.000000e+00
 outer loop
  vertex -5.026608e-01 6.670860e-01 1.000000e+00
  vertex -3.511779e-01 1.000000e+00 1.000000e+00
  vertex -6.011779e-01 1.000000e+00 1.000000e+00
 endloop
endfacet
facet normal 0.000000e+00 0.000000e+00 1.000000e+00
 outer loop
  vertex -3.511779e-01 1.000000e+00 1.000000e+00
  vertex -5.026608e-01 6.670860e-01 1.000000e+00
  vertex -8.519020e-02 4.973610e-01 1.000000e+00
 endloop
endfacet
facet normal -0.000000e+00 1.000000e+00 0.000000e+00
 outer loop
  vertex -6.011779e-01 1.000000e+00 1.000000e+00
  vertex -3.511779e-01 1.000000e+00 1.000000e+00
  vertex -6.286145e-01 1.000000e+00 7.429317e-01
 endloop
endfacet
facet normal 0.000000e+00 -1.000000e+00 -0.000000e+00
 outer loop
  vertex 1.488221e-01 2.112229e+00 6.289688e-01
  vertex -3.511779e-01 2.112229e+00 2.539688e-01
  vertex 5.238221e-01 2.112229e+00 1.289688e-01
 endloop
endfacet
facet normal 0.000000e+00 -1.000000e+00 0.000000e+00
 outer loop
  vertex -3.511779e-01 2.112229e+00 2.539688e-01
  vertex 1.488221e-01 2.112229e+00 6.289688e-01
  vertex -2.261779e-01 2.112229e+00 1.128969e+00
 endloop
endfacet
facet normal 0.000000e+00 -1.000000e+00 0.000000e+00
 outer loop
  vertex 1.488221e-01 2.112229e+00 6.289688e-01
  vertex 5.238221e-01 2.112229e+00 1.289688e-01
  vertex 5.654887e-01 2.112229e+00 1.045636e+00
 endloop
endfacet
facet normal 0.000000e+00 -1.000000e+00 0.000000e+00
 outer loop
  vertex 1.488221e-01 2.112229e+00 6.289688e-01
  vertex 5.654887e-01 2.112229e+00 1.045636e+00
  vertex -2.261779e-01 2.112229e+00 1.128969e+00
 endloop
endfacet
facet normal 0.000000e+00 1.000000e+00 0.000000e+00
 outer loop
  vertex -4.412698e-01 1.000000e+00 5.953542e-01
  vertex -5.963259e-01 1.000000e+00 3.820971e-01
  vertex -6.286145e-01 1.000000e+00 7.429317e-01
 endloop
endfacet
facet normal 0.000000e+00 0.000000e+00 1.000000e+00
 outer loop
  vertex -5.026608e-01 6.670860e-01 1.000000e+00
  vertex -5.747962e-01 3.937195e-01 1.000000e+00
  vertex -8.519020e-02 4.973610e-01 1.000000e+00
 endloop
endfacet
facet normal 1.000000e+00 0.000000e+00 -0.000000e+00
 outer loop
  vertex -8.511779e-01 2.112229e+00 6.289688e-01
  vertex -8.511779e-01 2.112229e+00 1.128969e+00
  vertex -8.511779e-01 1.583072e+00 8.789688e-01
 endloop
endfacet
facet normal 0.000000e+00 -1.000000e+00 0.000000e+00
 outer loop
  vertex -8.511779e-01 2.112229e+00 1.128969e+00
  vertex -8.511779e-01 2.112229e+00 6.289688e-01
  vertex -2.261779e-01 2.112229e+00 1.128969e+00
 endloop
endfacet
facet normal 0.000000e+00 -1.000000e+00 0.000000e+00
 outer loop
  vertex -8.511779e-01 2.112229e+00 6.289688e-01
  vertex -3.511779e-01 2.112229e+00 2.539688e-01
  vertex -2.261779e-01 2.112229e+00 1.128969e+00
 endloop
endfacet
facet normal 1.000000e+00 0.000000e+00 0.000000e+00
 outer loop
  vertex -8.511779e-01 2.112229e+00 6.289688e-01
  vertex -8.511779e-01 1.583072e+00 8.789688e-01
  vertex -8.511779e-01 1.619232e+00 2.484999e-01
 endloop
endfacet
facet normal 1.000000e+00 0.000000e+00 -0.000000e+00
 outer loop
  vertex -8.511779e-01 1.583072e+00 8.789688e-01
  vertex -8.511779e-01 2.112229e+00 1.128969e+00
  vertex -8.511779e-01 1.355216e+00 1.246263e+00
 endloop
endfacet
facet normal 1.000000e+00 0.000000e+00 0.000000e+00
 outer loop
  vertex -8.511779e-01 2.112229e+00 1.128969e+00
  vertex -8.511779e-01 1.556115e+00 1.628969e+00
  vertex -8.511779e-01 1.355216e+00 1.246263e+00
 endloop
endfacet
facet normal -0.000000e+00 -1.000000e+00 0.000000e+00
 outer loop
  vertex 1.148822e+00 2.112229e+00 1.289688e-01
  vertex 5.238221e-01 2.112229e+00 1.289688e-01
  vertex 6.488221e-01 2.112229e+00 -3.710312e-01
 endloop
endfacet
facet normal -1.000000e+00 -0.000000e+00 0.000000e+00
 outer loop
  vertex 1.148822e+00 2.112229e+00 1.289688e-01
  vertex 1.148822e+00 1.751830e+00 2.076045e-03
  vertex 1.148822e+00 1.814607e+00 3.789688e-01
 endloop
endfacet
facet normal 0.000000e+00 0.000000e+00 1.000000e+00
 outer loop
  vertex -3.511779e-01 2.112229e+00 -3.710312e-01
  vertex -8.511779e-01 1.556115e+00 -3.710312e-01
  vertex -4.261430e-01 1.439201e+00 -3.710312e-01
 endloop
endfacet
facet normal 0.000000e+00 0.000000e+00 1.000000e+00
 outer loop
  vertex -3.511779e-01 2.112229e+00 -3.710312e-01
  vertex -4.261430e-01 1.439201e+00 -3.710312e-01
  vertex -1.011779e-01 1.737062e+00 -3.710312e-01
 endloop
endfacet
facet normal -0.000000e+00 1.000000e+00 0.000000e+00
 outer loop
  vertex -8.511779e-01 1.000000e+00 8.286211e-01
  vertex -6.011779e-01 1.000000e+00 1.000000e+00
  vertex -6.286145e-01 1.000000e+00 7.429317e-01
 endloop
endfacet
facet normal 1.000000e+00 0.000000e+00 0.000000e+00
 outer loop
  vertex -8.511779e-01 1.294621e+00 9.543489e-01
  vertex -8.511779e-01 1.000000e+00 8.286211e-01
  vertex -8.511779e-01 1.180943e+00 5.715528e-01
 endloop
endfacet
facet normal 1.000000e+00 0.000000e+00 0.000000e+00
 outer loop
  vertex -8.511779e-01 1.583072e+00 8.789688e-01
  vertex -8.511779e-01 1.380099e+00 5.510559e-01
  vertex -8.511779e-01 1.619232e+00 2.484999e-01
 endloop
endfacet
facet normal 1.000000e+00 0.000000e+00 0.000000e+00
 outer loop
  vertex -8.511779e-01 1.583072e+00 8.789688e-01
  vertex -8.511779e-01 1.355216e+00 1.246263e+00
  vertex -8.511779e-01 1.294621e+00 9.543489e-01
 endloop
endfacet
facet normal 1.000000e+00 0.000000e+00 0.000000e+00
 outer loop
  vertex -8.511779e-01 1.583072e+00 8.789688e-01
  vertex -8.511779e-01 1.294621e+00 9.543489e-01
  vertex -8.511779e-01 1.380099e+00 5.510559e-01
 endloop
endfacet
facet normal 0.000000e+00 0.000000e+00 -1.000000e+00
 outer loop
  vertex -3.159966e-01 7.167312e-01 1.628969e+00
  vertex -5.576863e-01 9.073004e-01 1.628969e+00
  vertex -4.137031e-01 1.179329e+00 1.628969e+00
 endloop
endfacet
facet normal 0.000000e+00 -0.000000e+00 -1.000000e+00
 outer loop
  vertex -5.576863e-01 9.073004e-01 1.628969e+00
  vertex -3.159966e-01 7.167312e-01 1.628969e+00
  vertex -8.511779e-01 5.561146e-01 1.628969e+00
 endloop
endfacet
facet normal 0.000000e+00 0.000000e+00 -1.000000e+00
 outer loop
  vertex -8.511779e-01 1.556115e+00 1.628969e+00
  vertex -2.290648e-01 1.614589e+00 1.628969e+00
  vertex -4.137031e-01 1.179329e+00 1.628969e+00
 endloop
endfacet
facet normal 0.000000e+00 0.000000e+00 1.000000e+00
 outer loop
  vertex 1.148822e+00 1.834172e+00 -3.710312e-01
  vertex 7.290807e-01 1.435058e+00 -3.710312e-01
  vertex 9.615915e-01 1.417086e+00 -3.710312e-01
 endloop
endfacet
facet normal 0.000000e+00 -0.000000e+00 1.000000e+00
 outer loop
  vertex 7.290807e-01 1.435058e+00 -3.710312e-01
  vertex 1.148822e+00 1.834172e+00 -3.710312e-01
  vertex 6.488221e-01 2.112229e+00 -3.710312e-01
 endloop
endfacet
facet normal 0.000000e+00 0.000000e+00 1.000000e+00
 outer loop
  vertex 9.615915e-01 1.417086e+00 -3.710312e-01
  vertex 7.290807e-01 1.435058e+00 -3.710312e-01
  vertex 8.297850e-01 1.224882e+00 -3.710312e-01
 endloop
endfacet
facet normal 1.000000e+00 0.000000e+00 0.000000e+00
 outer loop
  vertex -8.511779e-01 1.380099e+00 5.510559e-01
  vertex -8.511779e-01 1.294621e+00 9.543489e-01
  vertex -8.511779e-01 1.180943e+00 5.715528e-01
 endloop
endfacet
facet normal -0.000000e+00 -1.000000e+00 0.000000e+00
 outer loop
  vertex 1.148822e+00 2.112229e+00 1.128969e+00
  vertex 6.488221e-01 2.112229e+00 1.628969e+00
  vertex 5.654887e-01 2.112229e+00 1.045636e+00
 endloop
endfacet
facet normal 1.000000e+00 0.000000e+00 0.000000e+00
 outer loop
  vertex -8.511779e-01 5.561146e-01 1.628969e+00
  vertex -8.511779e-01 4.455751e-01 1.314484e+00
  vertex -8.511779e-01 7.926984e-01 1.348476e+00
 endloop
endfacet
endsolid 
