solid 
facet normal 0.000000e+00 0.000000e+00 1.000000e+00
 outer loop
  vertex -1.721744e+00 4.578195e-01 -1.716909e-01
  vertex -1.360872e+00 4.578195e-01 -1.716909e-01
  vertex -1.721744e+00 7.078195e-01 -1.716909e-01
 endloop
endfacet
facet normal 0.000000e+00 1.000000e+00 0.000000e+00
 outer loop
  vertex -1.360872e+00 4.578195e-01 -1.716909e-01
  vertex -1.721744e+00 4.578195e-01 -1.716909e-01
  vertex -1.721744e+00 4.578195e-01 7.830906e-02
 endloop
endfacet
facet normal 1.000000e+00 0.000000e+00 0.000000e+00
 outer loop
  vertex -1.721744e+00 4.578195e-01 -1.716909e-01
  vertex -1.721744e+00 7.078195e-01 -1.716909e-01
  vertex -1.721744e+00 4.578195e-01 7.830906e-02
 endloop
endfacet
facet normal 1.000000e+00 -0.000000e+00 0.000000e+00
 outer loop
  vertex -1.721744e+00 4.578195e-01 1.828309e+00
  vertex -1.721744e+00 4.578195e-01 1.578309e+00
  vertex -1.721744e+00 7.078195e-01 1.828309e+00
 endloop
endfacet
facet normal 0.000000e+00 1.000000e+00 0.000000e+00
 outer loop
  vertex -1.721744e+00 4.578195e-01 1.578309e+00
  vertex -1.721744e+00 4.578195e-01 1.828309e+00
  vertex -1.471744e+00 4.578195e-01 1.828309e+00
 endloop
endfacet
facet normal 0.000000e+00 0.000000e+00 -1.000000e+00
 outer loop
  vertex -1.721744e+00 4.578195e-01 1.828309e+00
  vertex -1.721744e+00 7.078195e-01 1.828309e+00
  vertex -1.471744e+00 4.578195e-01 1.828309e+00
 endloop
endfacet
facet normal 0.000000e+00 0.000000e+00 1.000000e+00
 outer loop
  vertex -1.471744e+00 2.457819e+00 -1.716909e-01
  vertex -1.721744e+00 2.457819e+00 -1.716909e-01
  vertex -1.721744e+00 2.207819e+00 -1.716909e-01
 endloop
endfacet
facet normal 0.000000e+00 -1.000000e+00 0.000000e+00
 outer loop
  vertex -1.721744e+00 2.457819e+00 -1.716909e-01
  vertex -1.471744e+00 2.457819e+00 -1.716909e-01
  vertex -1.721744e+00 2.457819e+00 7.830906e-02
 endloop
endfacet
facet normal 1.000000e+00 0.000000e+00 -0.000000e+00
 outer loop
  vertex -1.721744e+00 2.457819e+00 -1.716909e-01
  vertex -1.721744e+00 2.457819e+00 7.830906e-02
  vertex -1.721744e+00 2.207819e+00 -1.716909e-01
 endloop
endfacet
facet normal 0.000000e+00 -1.000000e+00 0.000000e+00
 outer loop
  vertex -1.721744e+00 2.457819e+00 1.828309e+00
  vertex -1.721744e+00 2.457819e+00 1.578309e+00
  vertex -1.471744e+00 2.457819e+00 1.828309e+00
 endloop
endfacet
facet normal 1.000000e+00 0.000000e+00 -0.000000e+00
 outer loop
  vertex -1.721744e+00 2.457819e+00 1.578309e+00
  vertex -1.721744e+00 2.457819e+00 1.828309e+00
  vertex -1.721744e+00 2.207819e+00 1.828309e+00
 endloop
endfacet
facet normal 0.000000e+00 0.000000e+00 -1.000000e+00
 outer loop
  vertex -1.721744e+00 2.457819e+00 1.828309e+00
  vertex -1.471744e+00 2.457819e+00 1.828309e+00
  vertex -1.721744e+00 2.207819e+00 1.828309e+00
 endloop
endfacet
facet normal 0.000000e+00 1.000000e+00 0.000000e+00
 outer loop
  vertex 2.782564e-01 4.578195e-01 1.828309e+00
  vertex 2.782564e-01 4.578195e-01 1.414155e+00
  vertex 2.825642e-02 4.578195e-01 1.828309e+00
 endloop
endfacet
facet normal -1.000000e+00 0.000000e+00 0.000000e+00
 outer loop
  vertex 2.782564e-01 4.578195e-01 1.414155e+00
  vertex 2.782564e-01 4.578195e-01 1.828309e+00
  vertex 2.782564e-01 7.078195e-01 1.828309e+00
 endloop
endfacet
facet normal 0.000000e+00 0.000000e+00 -1.000000e+00
 outer loop
  vertex 2.782564e-01 4.578195e-01 1.828309e+00
  vertex 2.825642e-02 4.578195e-01 1.828309e+00
  vertex 2.782564e-01 7.078195e-01 1.828309e+00
 endloop
endfacet
facet normal -1.000000e+00 0.000000e+00 -0.000000e+00
 outer loop
  vertex 2.782564e-01 2.457819e+00 7.830906e-02
  vertex 2.782564e-01 2.457819e+00 -1.716909e-01
  vertex 2.782564e-01 2.093365e+00 -1.716909e-01
 endloop
endfacet
facet normal 0.000000e+00 -1.000000e+00 0.000000e+00
 outer loop
  vertex 2.782564e-01 2.457819e+00 -1.716909e-01
  vertex 2.782564e-01 2.457819e+00 7.830906e-02
  vertex 2.825642e-02 2.457819e+00 -1.716909e-01
 endloop
endfacet
facet normal 0.000000e+00 0.000000e+00 1.000000e+00
 outer loop
  vertex 2.782564e-01 2.457819e+00 -1.716909e-01
  vertex 2.825642e-02 2.457819e+00 -1.716909e-01
  vertex 2.782564e-01 2.093365e+00 -1.716909e-01
 endloop
endfacet
facet normal -0.000000e+00 -0.000000e+00 -1.000000e+00
 outer loop
  vertex 2.782564e-01 2.457819e+00 1.828309e+00
  vertex 2.782564e-01 2.207819e+00 1.828309e+00
  vertex 2.825642e-02 2.457819e+00 1.828309e+00
 endloop
endfacet
facet normal -1.000000e+00 0.000000e+00 0.000000e+00
 outer loop
  vertex 2.782564e-01 2.207819e+00 1.828309e+00
  vertex 2.782564e-01 2.457819e+00 1.828309e+00
  vertex 2.782564e-01 2.457819e+00 1.578309e+00
 endloop
endfacet
facet normal -0.000000e+00 -1.000000e+00 -0.000000e+00
 outer loop
  vertex 2.782564e-01 2.457819e+00 1.828309e+00
  vertex 2.825642e-02 2.457819e+00 1.828309e+00
  vertex 2.782564e-01 2.457819e+00 1.578309e+00
 endloop
endfacet
facet normal -1.000000e+00 0.000000e+00 0.000000e+00
 outer loop
  vertex -1.000000e+00 7.289097e-01 1.000000e+00
  vertex -1.000000e+00 1.000000e+00 1.000000e+00
  vertex -1.000000e+00 1.000000e+00 7.070773e-01
 endloop
endfacet
facet normal 0.000000e+00 0.000000e+00 1.000000e+00
 outer loop
  vertex -6.804359e-01 1.000000e+00 1.000000e+00
  vertex -1.000000e+00 1.000000e+00 1.000000e+00
  vertex -1.000000e+00 7.289097e-01 1.000000e+00
 endloop
endfacet
facet normal 0.000000e+00 1.000000e+00 0.000000e+00
 outer loop
  vertex -1.000000e+00 1.000000e+00 7.070773e-01
  vertex -1.000000e+00 1.000000e+00 1.000000e+00
  vertex -6.804359e-01 1.000000e+00 1.000000e+00
 endloop
endfacet
facet normal 0.000000e+00 -0.000000e+00 1.000000e+00
 outer loop
  vertex 2.782564e-01 7.289097e-01 1.000000e+00
  vertex 2.782564e-01 1.000000e+00 1.000000e+00
  vertex -4.130769e-02 1.000000e+00 1.000000e+00
 endloop
endfacet
facet normal -1.000000e+00 0.000000e+00 0.000000e+00
 outer loop
  vertex 2.782564e-01 1.000000e+00 1.000000e+00
  vertex 2.782564e-01 7.289097e-01 1.000000e+00
  vertex 2.782564e-01 8.833732e-01 1.409289e+00
 endloop
endfacet
facet normal -0.000000e+00 1.000000e+00 0.000000e+00
 outer loop
  vertex -4.130769e-02 1.000000e+00 1.000000e+00
  vertex 2.782564e-01 1.000000e+00 1.000000e+00
  vertex 2.782564e-01 1.000000e+00 7.070773e-01
 endloop
endfacet
facet normal -1.000000e+00 0.000000e+00 0.000000e+00
 outer loop
  vertex 2.782564e-01 1.000000e+00 1.000000e+00
  vertex 2.782564e-01 1.399937e+00 8.325337e-01
  vertex 2.782564e-01 1.000000e+00 7.070773e-01
 endloop
endfacet
facet normal -1.000000e+00 0.000000e+00 0.000000e+00
 outer loop
  vertex 2.782564e-01 1.000000e+00 1.000000e+00
  vertex 2.782564e-01 8.833732e-01 1.409289e+00
  vertex 2.782564e-01 1.285389e+00 1.433128e+00
 endloop
endfacet
facet normal -1.000000e+00 0.000000e+00 0.000000e+00
 outer loop
  vertex 2.782564e-01 1.000000e+00 1.000000e+00
  vertex 2.782564e-01 1.285389e+00 1.433128e+00
  vertex 2.782564e-01 1.399937e+00 8.325337e-01
 endloop
endfacet
facet normal -1.000000e+00 0.000000e+00 0.000000e+00
 outer loop
  vertex 2.782564e-01 1.364455e+00 -1.716909e-01
  vertex 2.782564e-01 1.000000e+00 -1.716909e-01
  vertex 2.782564e-01 1.000000e+00 1.212318e-01
 endloop
endfacet
facet normal 0.000000e+00 -0.000000e+00 1.000000e+00
 outer loop
  vertex 2.782564e-01 1.000000e+00 -1.716909e-01
  vertex 2.782564e-01 1.364455e+00 -1.716909e-01
  vertex -4.130769e-02 1.000000e+00 -1.716909e-01
 endloop
endfacet
facet normal 0.000000e+00 1.000000e+00 -0.000000e+00
 outer loop
  vertex 2.782564e-01 1.000000e+00 -1.716909e-01
  vertex -4.130769e-02 1.000000e+00 -1.716909e-01
  vertex 2.782564e-01 1.000000e+00 1.212318e-01
 endloop
endfacet
facet normal -1.000000e+00 0.000000e+00 0.000000e+00
 outer loop
  vertex 2.782564e-01 4.578195e-01 1.000000e+00
  vertex 2.782564e-01 4.578195e-01 1.414155e+00
  vertex 2.782564e-01 7.289097e-01 1.000000e+00
 endloop
endfacet
facet normal 0.000000e+00 1.000000e+00 0.000000e+00
 outer loop
  vertex 2.782564e-01 4.578195e-01 1.414155e+00
  vertex 2.782564e-01 4.578195e-01 1.000000e+00
  vertex -4.130769e-02 4.578195e-01 1.000000e+00
 endloop
endfacet
facet normal 0.000000e+00 -0.000000e+00 1.000000e+00
 outer loop
  vertex 2.782564e-01 4.578195e-01 1.000000e+00
  vertex 2.782564e-01 7.289097e-01 1.000000e+00
  vertex -4.130769e-02 4.578195e-01 1.000000e+00
 endloop
endfacet
facet normal 0.000000e+00 0.000000e+00 1.000000e+00
 outer loop
  vertex -1.360872e+00 4.578195e-01 -1.716909e-01
  vertex -1.000000e+00 4.578195e-01 -1.716909e-01
  vertex -1.000000e+00 7.289097e-01 -1.716909e-01
 endloop
endfacet
facet normal 0.000000e+00 1.000000e+00 -0.000000e+00
 outer loop
  vertex -1.000000e+00 4.578195e-01 -1.716909e-01
  vertex -1.360872e+00 4.578195e-01 -1.716909e-01
  vertex -1.000000e+00 4.578195e-01 1.212318e-01
 endloop
endfacet
facet normal -1.000000e+00 0.000000e+00 0.000000e+00
 outer loop
  vertex -1.000000e+00 4.578195e-01 -1.716909e-01
  vertex -1.000000e+00 4.578195e-01 1.212318e-01
  vertex -1.000000e+00 7.289097e-01 -1.716909e-01
 endloop
endfacet
facet normal -1.000000e+00 0.000000e+00 0.000000e+00
 outer loop
  vertex -1.000000e+00 4.578195e-01 1.000000e+00
  vertex -1.000000e+00 7.289097e-01 1.000000e+00
  vertex -1.000000e+00 4.578195e-01 7.070773e-01
 endloop
endfacet
facet normal 0.000000e+00 0.000000e+00 1.000000e+00
 outer loop
  vertex -1.000000e+00 7.289097e-01 1.000000e+00
  vertex -1.000000e+00 4.578195e-01 1.000000e+00
  vertex -6.804359e-01 4.578195e-01 1.000000e+00
 endloop
endfacet
facet normal 0.000000e+00 1.000000e+00 0.000000e+00
 outer loop
  vertex -1.000000e+00 4.578195e-01 1.000000e+00
  vertex -1.000000e+00 4.578195e-01 7.070773e-01
  vertex -1.370186e+00 4.578195e-01 9.533091e-01
 endloop
endfacet
facet normal 0.000000e+00 1.000000e+00 0.000000e+00
 outer loop
  vertex -1.000000e+00 4.578195e-01 1.000000e+00
  vertex -8.324343e-01 4.578195e-01 1.407604e+00
  vertex -6.804359e-01 4.578195e-01 1.000000e+00
 endloop
endfacet
facet normal 0.000000e+00 1.000000e+00 -0.000000e+00
 outer loop
  vertex -1.000000e+00 4.578195e-01 1.000000e+00
  vertex -1.266048e+00 4.578195e-01 1.372613e+00
  vertex -8.324343e-01 4.578195e-01 1.407604e+00
 endloop
endfacet
facet normal 0.000000e+00 1.000000e+00 0.000000e+00
 outer loop
  vertex -1.000000e+00 4.578195e-01 1.000000e+00
  vertex -1.370186e+00 4.578195e-01 9.533091e-01
  vertex -1.266048e+00 4.578195e-01 1.372613e+00
 endloop
endfacet
facet normal -1.000000e+00 0.000000e+00 0.000000e+00
 outer loop
  vertex -1.000000e+00 1.000000e+00 -1.716909e-01
  vertex -1.000000e+00 7.289097e-01 -1.716909e-01
  vertex -1.000000e+00 1.000000e+00 1.212318e-01
 endloop
endfacet
facet normal 0.000000e+00 -0.000000e+00 1.000000e+00
 outer loop
  vertex -1.000000e+00 7.289097e-01 -1.716909e-01
  vertex -1.000000e+00 1.000000e+00 -1.716909e-01
  vertex -1.368116e+00 8.328195e-01 -1.716909e-01
 endloop
endfacet
facet normal 0.000000e+00 1.000000e+00 0.000000e+00
 outer loop
  vertex -6.804359e-01 1.000000e+00 -1.716909e-01
  vertex -1.000000e+00 1.000000e+00 -1.716909e-01
  vertex -1.000000e+00 1.000000e+00 1.212318e-01
 endloop
endfacet
facet normal 0.000000e+00 0.000000e+00 1.000000e+00
 outer loop
  vertex -1.000000e+00 1.000000e+00 -1.716909e-01
  vertex -6.804359e-01 1.000000e+00 -1.716909e-01
  vertex -8.402179e-01 1.724967e+00 -1.716909e-01
 endloop
endfacet
facet normal 0.000000e+00 -0.000000e+00 1.000000e+00
 outer loop
  vertex -1.000000e+00 1.000000e+00 -1.716909e-01
  vertex -8.402179e-01 1.724967e+00 -1.716909e-01
  vertex -1.232473e+00 1.431328e+00 -1.716909e-01
 endloop
endfacet
facet normal 0.000000e+00 0.000000e+00 1.000000e+00
 outer loop
  vertex -1.000000e+00 1.000000e+00 -1.716909e-01
  vertex -1.232473e+00 1.431328e+00 -1.716909e-01
  vertex -1.368116e+00 8.328195e-01 -1.716909e-01
 endloop
endfacet
facet normal 1.000000e+00 0.000000e+00 -0.000000e+00
 outer loop
  vertex -1.721744e+00 1.457819e+00 -1.716909e-01
  vertex -1.721744e+00 1.707819e+00 -1.716909e-01
  vertex -1.721744e+00 1.457819e+00 2.687852e-01
 endloop
endfacet
facet normal 0.000000e+00 0.000000e+00 1.000000e+00
 outer loop
  vertex -1.721744e+00 1.707819e+00 -1.716909e-01
  vertex -1.721744e+00 1.457819e+00 -1.716909e-01
  vertex -1.402092e+00 1.702320e+00 -1.716909e-01
 endloop
endfacet
facet normal 1.000000e+00 0.000000e+00 0.000000e+00
 outer loop
  vertex -1.721744e+00 1.457819e+00 2.687852e-01
  vertex -1.721744e+00 1.207819e+00 -1.716909e-01
  vertex -1.721744e+00 1.457819e+00 -1.716909e-01
 endloop
endfacet
facet normal 0.000000e+00 0.000000e+00 1.000000e+00
 outer loop
  vertex -1.721744e+00 1.207819e+00 -1.716909e-01
  vertex -1.232473e+00 1.431328e+00 -1.716909e-01
  vertex -1.721744e+00 1.457819e+00 -1.716909e-01
 endloop
endfacet
facet normal 0.000000e+00 0.000000e+00 1.000000e+00
 outer loop
  vertex -1.232473e+00 1.431328e+00 -1.716909e-01
  vertex -1.402092e+00 1.702320e+00 -1.716909e-01
  vertex -1.721744e+00 1.457819e+00 -1.716909e-01
 endloop
endfacet
facet normal 1.000000e+00 0.000000e+00 0.000000e+00
 outer loop
  vertex -1.721744e+00 4.578195e-01 1.078309e+00
  vertex -1.721744e+00 4.578195e-01 8.283091e-01
  vertex -1.721744e+00 8.982957e-01 8.283091e-01
 endloop
endfacet
facet normal 0.000000e+00 1.000000e+00 0.000000e+00
 outer loop
  vertex -1.721744e+00 4.578195e-01 8.283091e-01
  vertex -1.721744e+00 4.578195e-01 1.078309e+00
  vertex -1.370186e+00 4.578195e-01 9.533091e-01
 endloop
endfacet
facet normal 1.000000e+00 0.000000e+00 0.000000e+00
 outer loop
  vertex -1.721744e+00 4.578195e-01 8.283091e-01
  vertex -1.721744e+00 4.578195e-01 5.783091e-01
  vertex -1.721744e+00 7.651616e-01 5.498400e-01
 endloop
endfacet
facet normal 0.000000e+00 1.000000e+00 0.000000e+00
 outer loop
  vertex -1.721744e+00 4.578195e-01 5.783091e-01
  vertex -1.721744e+00 4.578195e-01 8.283091e-01
  vertex -1.370186e+00 4.578195e-01 9.533091e-01
 endloop
endfacet
facet normal 1.000000e+00 0.000000e+00 0.000000e+00
 outer loop
  vertex -1.721744e+00 8.982957e-01 8.283091e-01
  vertex -1.721744e+00 4.578195e-01 8.283091e-01
  vertex -1.721744e+00 7.651616e-01 5.498400e-01
 endloop
endfacet
facet normal 0.000000e+00 0.000000e+00 1.000000e+00
 outer loop
  vertex -7.217436e-01 2.457819e+00 -1.716909e-01
  vertex -9.717436e-01 2.457819e+00 -1.716909e-01
  vertex -5.814047e-01 2.053897e+00 -1.716909e-01
 endloop
endfacet
facet normal 0.000000e+00 -1.000000e+00 0.000000e+00
 outer loop
  vertex -9.717436e-01 2.457819e+00 -1.716909e-01
  vertex -7.217436e-01 2.457819e+00 -1.716909e-01
  vertex -1.000213e+00 2.457819e+00 1.356512e-01
 endloop
endfacet
facet normal 0.000000e+00 -1.000000e+00 0.000000e+00
 outer loop
  vertex -7.217436e-01 2.457819e+00 -1.716909e-01
  vertex -4.717436e-01 2.457819e+00 -1.716909e-01
  vertex -4.432745e-01 2.457819e+00 1.356512e-01
 endloop
endfacet
facet normal 0.000000e+00 0.000000e+00 1.000000e+00
 outer loop
  vertex -4.717436e-01 2.457819e+00 -1.716909e-01
  vertex -7.217436e-01 2.457819e+00 -1.716909e-01
  vertex -5.814047e-01 2.053897e+00 -1.716909e-01
 endloop
endfacet
facet normal 0.000000e+00 -1.000000e+00 -0.000000e+00
 outer loop
  vertex -7.217436e-01 2.457819e+00 2.687852e-01
  vertex -7.217436e-01 2.457819e+00 -1.716909e-01
  vertex -4.432745e-01 2.457819e+00 1.356512e-01
 endloop
endfacet
facet normal 0.000000e+00 -1.000000e+00 0.000000e+00
 outer loop
  vertex -7.217436e-01 2.457819e+00 -1.716909e-01
  vertex -7.217436e-01 2.457819e+00 2.687852e-01
  vertex -1.000213e+00 2.457819e+00 1.356512e-01
 endloop
endfacet
facet normal 1.000000e+00 0.000000e+00 -0.000000e+00
 outer loop
  vertex -1.721744e+00 2.457819e+00 8.283091e-01
  vertex -1.721744e+00 2.457819e+00 1.078309e+00
  vertex -1.721744e+00 2.017343e+00 8.283091e-01
 endloop
endfacet
facet normal 0.000000e+00 -1.000000e+00 0.000000e+00
 outer loop
  vertex -1.721744e+00 2.457819e+00 1.078309e+00
  vertex -1.721744e+00 2.457819e+00 8.283091e-01
  vertex -1.414401e+00 2.457819e+00 1.106778e+00
 endloop
endfacet
facet normal 0.000000e+00 -1.000000e+00 0.000000e+00
 outer loop
  vertex -1.721744e+00 2.457819e+00 8.283091e-01
  vertex -1.721744e+00 2.457819e+00 5.783091e-01
  vertex -1.281267e+00 2.457819e+00 8.283091e-01
 endloop
endfacet
facet normal 1.000000e+00 0.000000e+00 -0.000000e+00
 outer loop
  vertex -1.721744e+00 2.457819e+00 5.783091e-01
  vertex -1.721744e+00 2.457819e+00 8.283091e-01
  vertex -1.721744e+00 2.150477e+00 5.498400e-01
 endloop
endfacet
facet normal 0.000000e+00 -1.000000e+00 0.000000e+00
 outer loop
  vertex -1.721744e+00 2.457819e+00 8.283091e-01
  vertex -1.281267e+00 2.457819e+00 8.283091e-01
  vertex -1.414401e+00 2.457819e+00 1.106778e+00
 endloop
endfacet
facet normal 1.000000e+00 0.000000e+00 0.000000e+00
 outer loop
  vertex -1.721744e+00 2.457819e+00 8.283091e-01
  vertex -1.721744e+00 2.017343e+00 8.283091e-01
  vertex -1.721744e+00 2.150477e+00 5.498400e-01
 endloop
endfacet
facet normal 0.000000e+00 -0.000000e+00 -1.000000e+00
 outer loop
  vertex 2.782564e-01 1.707819e+00 1.828309e+00
  vertex 2.782564e-01 1.457819e+00 1.828309e+00
  vertex -1.622198e-01 1.457819e+00 1.828309e+00
 endloop
endfacet
facet normal -1.000000e+00 0.000000e+00 0.000000e+00
 outer loop
  vertex 2.782564e-01 1.457819e+00 1.828309e+00
  vertex 2.782564e-01 1.707819e+00 1.828309e+00
  vertex 2.782564e-01 1.712164e+00 1.503520e+00
 endloop
endfacet
facet normal 0.000000e+00 -0.000000e+00 -1.000000e+00
 outer loop
  vertex 2.782564e-01 1.457819e+00 1.828309e+00
  vertex 2.782564e-01 1.207819e+00 1.828309e+00
  vertex -2.908575e-02 1.179350e+00 1.828309e+00
 endloop
endfacet
facet normal -1.000000e+00 0.000000e+00 0.000000e+00
 outer loop
  vertex 2.782564e-01 1.207819e+00 1.828309e+00
  vertex 2.782564e-01 1.457819e+00 1.828309e+00
  vertex 2.782564e-01 1.285389e+00 1.433128e+00
 endloop
endfacet
facet normal 0.000000e+00 0.000000e+00 -1.000000e+00
 outer loop
  vertex -1.622198e-01 1.457819e+00 1.828309e+00
  vertex 2.782564e-01 1.457819e+00 1.828309e+00
  vertex -2.908575e-02 1.179350e+00 1.828309e+00
 endloop
endfacet
facet normal -1.000000e+00 0.000000e+00 -0.000000e+00
 outer loop
  vertex 2.782564e-01 1.457819e+00 1.828309e+00
  vertex 2.782564e-01 1.712164e+00 1.503520e+00
  vertex 2.782564e-01 1.285389e+00 1.433128e+00
 endloop
endfacet
facet normal -0.000000e+00 -1.000000e+00 -0.000000e+00
 outer loop
  vertex -7.217436e-01 2.457819e+00 1.828309e+00
  vertex -9.717436e-01 2.457819e+00 1.828309e+00
  vertex -7.217436e-01 2.457819e+00 1.387833e+00
 endloop
endfacet
facet normal 0.000000e+00 -0.000000e+00 -1.000000e+00
 outer loop
  vertex -9.717436e-01 2.457819e+00 1.828309e+00
  vertex -7.217436e-01 2.457819e+00 1.828309e+00
  vertex -1.000213e+00 2.150477e+00 1.828309e+00
 endloop
endfacet
facet normal 0.000000e+00 -0.000000e+00 -1.000000e+00
 outer loop
  vertex -7.217436e-01 2.457819e+00 1.828309e+00
  vertex -4.717436e-01 2.457819e+00 1.828309e+00
  vertex -7.217436e-01 2.017343e+00 1.828309e+00
 endloop
endfacet
facet normal -0.000000e+00 -1.000000e+00 -0.000000e+00
 outer loop
  vertex -4.717436e-01 2.457819e+00 1.828309e+00
  vertex -7.217436e-01 2.457819e+00 1.828309e+00
  vertex -4.432745e-01 2.457819e+00 1.520967e+00
 endloop
endfacet
facet normal 0.000000e+00 0.000000e+00 -1.000000e+00
 outer loop
  vertex -7.217436e-01 2.457819e+00 1.828309e+00
  vertex -7.217436e-01 2.017343e+00 1.828309e+00
  vertex -1.000213e+00 2.150477e+00 1.828309e+00
 endloop
endfacet
facet normal 0.000000e+00 -1.000000e+00 0.000000e+00
 outer loop
  vertex -7.217436e-01 2.457819e+00 1.828309e+00
  vertex -7.217436e-01 2.457819e+00 1.387833e+00
  vertex -4.432745e-01 2.457819e+00 1.520967e+00
 endloop
endfacet
facet normal 1.000000e+00 0.000000e+00 0.000000e+00
 outer loop
  vertex -1.721744e+00 1.457819e+00 1.828309e+00
  vertex -1.721744e+00 1.207819e+00 1.828309e+00
  vertex -1.721744e+00 1.457819e+00 1.387833e+00
 endloop
endfacet
facet normal 0.000000e+00 0.000000e+00 -1.000000e+00
 outer loop
  vertex -1.721744e+00 1.207819e+00 1.828309e+00
  vertex -1.721744e+00 1.457819e+00 1.828309e+00
  vertex -1.414401e+00 1.179350e+00 1.828309e+00
 endloop
endfacet
facet normal 0.000000e+00 0.000000e+00 -1.000000e+00
 outer loop
  vertex -1.721744e+00 1.457819e+00 1.828309e+00
  vertex -1.721744e+00 1.707819e+00 1.828309e+00
  vertex -1.281267e+00 1.457819e+00 1.828309e+00
 endloop
endfacet
facet normal 1.000000e+00 0.000000e+00 0.000000e+00
 outer loop
  vertex -1.721744e+00 1.707819e+00 1.828309e+00
  vertex -1.721744e+00 1.457819e+00 1.828309e+00
  vertex -1.721744e+00 1.736289e+00 1.520967e+00
 endloop
endfacet
facet normal 0.000000e+00 0.000000e+00 -1.000000e+00
 outer loop
  vertex -1.721744e+00 1.457819e+00 1.828309e+00
  vertex -1.281267e+00 1.457819e+00 1.828309e+00
  vertex -1.414401e+00 1.179350e+00 1.828309e+00
 endloop
endfacet
facet normal 1.000000e+00 0.000000e+00 0.000000e+00
 outer loop
  vertex -1.721744e+00 1.457819e+00 1.828309e+00
  vertex -1.721744e+00 1.457819e+00 1.387833e+00
  vertex -1.721744e+00 1.736289e+00 1.520967e+00
 endloop
endfacet
facet normal 0.000000e+00 0.000000e+00 -1.000000e+00
 outer loop
  vertex -4.717436e-01 4.578195e-01 1.828309e+00
  vertex -7.217436e-01 4.578195e-01 1.828309e+00
  vertex -7.217436e-01 8.982957e-01 1.828309e+00
 endloop
endfacet
facet normal -0.000000e+00 1.000000e+00 0.000000e+00
 outer loop
  vertex -7.217436e-01 4.578195e-01 1.828309e+00
  vertex -4.717436e-01 4.578195e-01 1.828309e+00
  vertex -5.945896e-01 4.578195e-01 1.568660e+00
 endloop
endfacet
facet normal -0.000000e+00 1.000000e+00 0.000000e+00
 outer loop
  vertex -9.717436e-01 4.578195e-01 1.828309e+00
  vertex -7.217436e-01 4.578195e-01 1.828309e+00
  vertex -8.324343e-01 4.578195e-01 1.407604e+00
 endloop
endfacet
facet normal 0.000000e+00 0.000000e+00 -1.000000e+00
 outer loop
  vertex -7.217436e-01 4.578195e-01 1.828309e+00
  vertex -9.717436e-01 4.578195e-01 1.828309e+00
  vertex -7.217436e-01 8.982957e-01 1.828309e+00
 endloop
endfacet
facet normal 0.000000e+00 1.000000e+00 0.000000e+00
 outer loop
  vertex -8.324343e-01 4.578195e-01 1.407604e+00
  vertex -7.217436e-01 4.578195e-01 1.828309e+00
  vertex -5.945896e-01 4.578195e-01 1.568660e+00
 endloop
endfacet
facet normal -1.000000e+00 -0.000000e+00 -0.000000e+00
 outer loop
  vertex 2.782564e-01 2.457819e+00 8.283091e-01
  vertex 2.782564e-01 2.457819e+00 5.783091e-01
  vertex 2.782564e-01 2.007844e+00 9.249412e-01
 endloop
endfacet
facet normal -0.000000e+00 -1.000000e+00 0.000000e+00
 outer loop
  vertex 2.782564e-01 2.457819e+00 5.783091e-01
  vertex 2.782564e-01 2.457819e+00 8.283091e-01
  vertex -2.908575e-02 2.457819e+00 5.498400e-01
 endloop
endfacet
facet normal -1.000000e+00 0.000000e+00 -0.000000e+00
 outer loop
  vertex 2.782564e-01 2.457819e+00 1.078309e+00
  vertex 2.782564e-01 2.457819e+00 8.283091e-01
  vertex 2.782564e-01 2.007844e+00 9.249412e-01
 endloop
endfacet
facet normal 0.000000e+00 -1.000000e+00 0.000000e+00
 outer loop
  vertex 2.782564e-01 2.457819e+00 8.283091e-01
  vertex 2.782564e-01 2.457819e+00 1.078309e+00
  vertex -2.908575e-02 2.457819e+00 1.106778e+00
 endloop
endfacet
facet normal 0.000000e+00 -1.000000e+00 0.000000e+00
 outer loop
  vertex 2.782564e-01 2.457819e+00 8.283091e-01
  vertex -1.622198e-01 2.457819e+00 8.283091e-01
  vertex -2.908575e-02 2.457819e+00 5.498400e-01
 endloop
endfacet
facet normal 0.000000e+00 -1.000000e+00 0.000000e+00
 outer loop
  vertex -1.622198e-01 2.457819e+00 8.283091e-01
  vertex 2.782564e-01 2.457819e+00 8.283091e-01
  vertex -2.908575e-02 2.457819e+00 1.106778e+00
 endloop
endfacet
facet normal -1.000000e+00 0.000000e+00 0.000000e+00
 outer loop
  vertex 2.782564e-01 7.289097e-01 1.000000e+00
  vertex 2.782564e-01 4.578195e-01 1.414155e+00
  vertex 2.782564e-01 8.833732e-01 1.409289e+00
 endloop
endfacet
facet normal 0.000000e+00 1.000000e+00 0.000000e+00
 outer loop
  vertex 2.782564e-01 4.578195e-01 1.414155e+00
  vertex -4.130769e-02 4.578195e-01 1.000000e+00
  vertex -3.467436e-01 4.578195e-01 1.423466e+00
 endloop
endfacet
facet normal 0.000000e+00 1.000000e+00 0.000000e+00
 outer loop
  vertex 2.825642e-02 4.578195e-01 1.828309e+00
  vertex 2.782564e-01 4.578195e-01 1.414155e+00
  vertex -3.467436e-01 4.578195e-01 1.423466e+00
 endloop
endfacet
facet normal -1.000000e+00 0.000000e+00 0.000000e+00
 outer loop
  vertex 2.782564e-01 4.578195e-01 1.414155e+00
  vertex 2.782564e-01 7.078195e-01 1.828309e+00
  vertex 2.782564e-01 8.833732e-01 1.409289e+00
 endloop
endfacet
facet normal 0.000000e+00 0.000000e+00 1.000000e+00
 outer loop
  vertex -4.130769e-02 4.578195e-01 1.000000e+00
  vertex 2.782564e-01 7.289097e-01 1.000000e+00
  vertex -4.130769e-02 1.000000e+00 1.000000e+00
 endloop
endfacet
facet normal -1.000000e+00 0.000000e+00 0.000000e+00
 outer loop
  vertex -1.000000e+00 1.000000e+00 1.212318e-01
  vertex -1.000000e+00 4.578195e-01 4.141545e-01
  vertex -1.000000e+00 1.000000e+00 4.141545e-01
 endloop
endfacet
facet normal -1.000000e+00 0.000000e+00 0.000000e+00
 outer loop
  vertex -1.000000e+00 4.578195e-01 4.141545e-01
  vertex -1.000000e+00 1.000000e+00 7.070773e-01
  vertex -1.000000e+00 1.000000e+00 4.141545e-01
 endloop
endfacet
facet normal -1.000000e+00 0.000000e+00 0.000000e+00
 outer loop
  vertex -1.000000e+00 4.578195e-01 4.141545e-01
  vertex -1.000000e+00 1.000000e+00 1.212318e-01
  vertex -1.000000e+00 4.578195e-01 1.212318e-01
 endloop
endfacet
facet normal 0.000000e+00 1.000000e+00 0.000000e+00
 outer loop
  vertex -1.000000e+00 4.578195e-01 4.141545e-01
  vertex -1.000000e+00 4.578195e-01 1.212318e-01
  vertex -1.348557e+00 4.578195e-01 2.676932e-01
 endloop
endfacet
facet normal -1.000000e+00 -0.000000e+00 0.000000e+00
 outer loop
  vertex -1.000000e+00 1.000000e+00 7.070773e-01
  vertex -1.000000e+00 4.578195e-01 4.141545e-01
  vertex -1.000000e+00 4.578195e-01 7.070773e-01
 endloop
endfacet
facet normal 0.000000e+00 1.000000e+00 0.000000e+00
 outer loop
  vertex -1.000000e+00 4.578195e-01 7.070773e-01
  vertex -1.000000e+00 4.578195e-01 4.141545e-01
  vertex -1.348557e+00 4.578195e-01 2.676932e-01
 endloop
endfacet
facet normal 0.000000e+00 -0.000000e+00 1.000000e+00
 outer loop
  vertex 2.782564e-01 1.364455e+00 -1.716909e-01
  vertex 2.782564e-01 1.728910e+00 -1.716909e-01
  vertex -2.804422e-01 1.574135e+00 -1.716909e-01
 endloop
endfacet
facet normal -1.000000e+00 0.000000e+00 0.000000e+00
 outer loop
  vertex 2.782564e-01 1.728910e+00 -1.716909e-01
  vertex 2.782564e-01 1.364455e+00 -1.716909e-01
  vertex 2.782564e-01 1.407041e+00 2.676932e-01
 endloop
endfacet
facet normal 0.000000e+00 -0.000000e+00 1.000000e+00
 outer loop
  vertex 2.782564e-01 1.728910e+00 -1.716909e-01
  vertex 2.782564e-01 2.093365e+00 -1.716909e-01
  vertex -1.651411e-01 2.010268e+00 -1.716909e-01
 endloop
endfacet
facet normal -1.000000e+00 0.000000e+00 0.000000e+00
 outer loop
  vertex 2.782564e-01 2.093365e+00 -1.716909e-01
  vertex 2.782564e-01 1.728910e+00 -1.716909e-01
  vertex 2.782564e-01 2.029443e+00 2.577293e-01
 endloop
endfacet
facet normal 0.000000e+00 0.000000e+00 1.000000e+00
 outer loop
  vertex -2.804422e-01 1.574135e+00 -1.716909e-01
  vertex 2.782564e-01 1.728910e+00 -1.716909e-01
  vertex -1.651411e-01 2.010268e+00 -1.716909e-01
 endloop
endfacet
facet normal -1.000000e+00 0.000000e+00 0.000000e+00
 outer loop
  vertex 2.782564e-01 1.728910e+00 -1.716909e-01
  vertex 2.782564e-01 1.407041e+00 2.676932e-01
  vertex 2.782564e-01 2.029443e+00 2.577293e-01
 endloop
endfacet
facet normal 0.000000e+00 0.000000e+00 1.000000e+00
 outer loop
  vertex -6.804359e-01 1.000000e+00 -1.716909e-01
  vertex -3.608718e-01 1.000000e+00 -1.716909e-01
  vertex -2.804422e-01 1.574135e+00 -1.716909e-01
 endloop
endfacet
facet normal 0.000000e+00 1.000000e+00 0.000000e+00
 outer loop
  vertex -3.608718e-01 1.000000e+00 -1.716909e-01
  vertex -6.804359e-01 1.000000e+00 -1.716909e-01
  vertex -7.059667e-01 1.000000e+00 2.676932e-01
 endloop
endfacet
facet normal 0.000000e+00 1.000000e+00 0.000000e+00
 outer loop
  vertex -4.130769e-02 1.000000e+00 -1.716909e-01
  vertex -3.608718e-01 1.000000e+00 -1.716909e-01
  vertex -4.119335e-01 1.000000e+00 4.141545e-01
 endloop
endfacet
facet normal 0.000000e+00 0.000000e+00 1.000000e+00
 outer loop
  vertex -3.608718e-01 1.000000e+00 -1.716909e-01
  vertex -4.130769e-02 1.000000e+00 -1.716909e-01
  vertex -2.804422e-01 1.574135e+00 -1.716909e-01
 endloop
endfacet
facet normal 0.000000e+00 1.000000e+00 0.000000e+00
 outer loop
  vertex -4.119335e-01 1.000000e+00 4.141545e-01
  vertex -3.608718e-01 1.000000e+00 -1.716909e-01
  vertex -7.059667e-01 1.000000e+00 2.676932e-01
 endloop
endfacet
facet normal -1.000000e+00 0.000000e+00 0.000000e+00
 outer loop
  vertex -1.000000e+00 4.578195e-01 7.070773e-01
  vertex -1.000000e+00 7.289097e-01 1.000000e+00
  vertex -1.000000e+00 1.000000e+00 7.070773e-01
 endloop
endfacet
facet normal -0.000000e+00 0.000000e+00 1.000000e+00
 outer loop
  vertex -1.000000e+00 7.289097e-01 1.000000e+00
  vertex -6.804359e-01 4.578195e-01 1.000000e+00
  vertex -6.804359e-01 1.000000e+00 1.000000e+00
 endloop
endfacet
facet normal 0.000000e+00 1.000000e+00 0.000000e+00
 outer loop
  vertex -1.000000e+00 1.000000e+00 1.212318e-01
  vertex -1.000000e+00 1.000000e+00 4.141545e-01
  vertex -7.059667e-01 1.000000e+00 2.676932e-01
 endloop
endfacet
facet normal -0.000000e+00 1.000000e+00 0.000000e+00
 outer loop
  vertex -1.000000e+00 1.000000e+00 4.141545e-01
  vertex -1.000000e+00 1.000000e+00 7.070773e-01
  vertex -7.059667e-01 1.000000e+00 2.676932e-01
 endloop
endfacet
facet normal 0.000000e+00 0.000000e+00 1.000000e+00
 outer loop
  vertex -3.608718e-01 4.578195e-01 1.000000e+00
  vertex -4.130769e-02 1.000000e+00 1.000000e+00
  vertex -3.608718e-01 1.000000e+00 1.000000e+00
 endloop
endfacet
facet normal -0.000000e+00 0.000000e+00 1.000000e+00
 outer loop
  vertex -6.804359e-01 1.000000e+00 1.000000e+00
  vertex -3.608718e-01 4.578195e-01 1.000000e+00
  vertex -3.608718e-01 1.000000e+00 1.000000e+00
 endloop
endfacet
facet normal 0.000000e+00 0.000000e+00 1.000000e+00
 outer loop
  vertex -4.130769e-02 1.000000e+00 1.000000e+00
  vertex -3.608718e-01 4.578195e-01 1.000000e+00
  vertex -4.130769e-02 4.578195e-01 1.000000e+00
 endloop
endfacet
facet normal 0.000000e+00 1.000000e+00 0.000000e+00
 outer loop
  vertex -4.130769e-02 4.578195e-01 1.000000e+00
  vertex -3.608718e-01 4.578195e-01 1.000000e+00
  vertex -3.467436e-01 4.578195e-01 1.423466e+00
 endloop
endfacet
facet normal 0.000000e+00 0.000000e+00 1.000000e+00
 outer loop
  vertex -3.608718e-01 4.578195e-01 1.000000e+00
  vertex -6.804359e-01 1.000000e+00 1.000000e+00
  vertex -6.804359e-01 4.578195e-01 1.000000e+00
 endloop
endfacet
facet normal 0.000000e+00 1.000000e+00 -0.000000e+00
 outer loop
  vertex -3.608718e-01 4.578195e-01 1.000000e+00
  vertex -6.804359e-01 4.578195e-01 1.000000e+00
  vertex -3.467436e-01 4.578195e-01 1.423466e+00
 endloop
endfacet
facet normal -1.000000e+00 0.000000e+00 0.000000e+00
 outer loop
  vertex 2.782564e-01 1.000000e+00 1.212318e-01
  vertex 2.782564e-01 1.000000e+00 4.141545e-01
  vertex 2.782564e-01 1.407041e+00 2.676932e-01
 endloop
endfacet
facet normal 0.000000e+00 1.000000e+00 0.000000e+00
 outer loop
  vertex 2.782564e-01 1.000000e+00 4.141545e-01
  vertex 2.782564e-01 1.000000e+00 1.212318e-01
  vertex -6.683854e-02 1.000000e+00 5.606159e-01
 endloop
endfacet
facet normal -1.000000e+00 0.000000e+00 0.000000e+00
 outer loop
  vertex 2.782564e-01 1.000000e+00 4.141545e-01
  vertex 2.782564e-01 1.000000e+00 7.070773e-01
  vertex 2.782564e-01 1.399937e+00 8.325337e-01
 endloop
endfacet
facet normal 0.000000e+00 1.000000e+00 0.000000e+00
 outer loop
  vertex 2.782564e-01 1.000000e+00 7.070773e-01
  vertex 2.782564e-01 1.000000e+00 4.141545e-01
  vertex -6.683854e-02 1.000000e+00 5.606159e-01
 endloop
endfacet
facet normal -1.000000e+00 0.000000e+00 0.000000e+00
 outer loop
  vertex 2.782564e-01 1.000000e+00 4.141545e-01
  vertex 2.782564e-01 1.399937e+00 8.325337e-01
  vertex 2.782564e-01 1.407041e+00 2.676932e-01
 endloop
endfacet
facet normal 0.000000e+00 -0.000000e+00 1.000000e+00
 outer loop
  vertex -1.360872e+00 4.578195e-01 -1.716909e-01
  vertex -1.000000e+00 7.289097e-01 -1.716909e-01
  vertex -1.368116e+00 8.328195e-01 -1.716909e-01
 endloop
endfacet
facet normal 0.000000e+00 1.000000e+00 0.000000e+00
 outer loop
  vertex -1.000000e+00 4.578195e-01 1.212318e-01
  vertex -1.360872e+00 4.578195e-01 -1.716909e-01
  vertex -1.348557e+00 4.578195e-01 2.676932e-01
 endloop
endfacet
facet normal -0.000000e+00 0.000000e+00 1.000000e+00
 outer loop
  vertex -1.721744e+00 7.078195e-01 -1.716909e-01
  vertex -1.360872e+00 4.578195e-01 -1.716909e-01
  vertex -1.368116e+00 8.328195e-01 -1.716909e-01
 endloop
endfacet
facet normal 0.000000e+00 1.000000e+00 -0.000000e+00
 outer loop
  vertex -1.360872e+00 4.578195e-01 -1.716909e-01
  vertex -1.721744e+00 4.578195e-01 7.830906e-02
  vertex -1.348557e+00 4.578195e-01 2.676932e-01
 endloop
endfacet
facet normal -1.000000e+00 0.000000e+00 0.000000e+00
 outer loop
  vertex -1.000000e+00 7.289097e-01 -1.716909e-01
  vertex -1.000000e+00 4.578195e-01 1.212318e-01
  vertex -1.000000e+00 1.000000e+00 1.212318e-01
 endloop
endfacet
facet normal -0.000000e+00 1.000000e+00 0.000000e+00
 outer loop
  vertex -3.608718e-01 1.000000e+00 1.000000e+00
  vertex -4.130769e-02 1.000000e+00 1.000000e+00
  vertex -6.683854e-02 1.000000e+00 5.606159e-01
 endloop
endfacet
facet normal -0.000000e+00 1.000000e+00 0.000000e+00
 outer loop
  vertex -6.804359e-01 1.000000e+00 1.000000e+00
  vertex -3.608718e-01 1.000000e+00 1.000000e+00
  vertex -4.119335e-01 1.000000e+00 4.141545e-01
 endloop
endfacet
facet normal 0.000000e+00 1.000000e+00 0.000000e+00
 outer loop
  vertex -4.119335e-01 1.000000e+00 4.141545e-01
  vertex -3.608718e-01 1.000000e+00 1.000000e+00
  vertex -6.683854e-02 1.000000e+00 5.606159e-01
 endloop
endfacet
facet normal 0.000000e+00 0.000000e+00 1.000000e+00
 outer loop
  vertex -1.721744e+00 1.957819e+00 -1.716909e-01
  vertex -1.721744e+00 1.707819e+00 -1.716909e-01
  vertex -1.402092e+00 1.702320e+00 -1.716909e-01
 endloop
endfacet
facet normal 1.000000e+00 0.000000e+00 0.000000e+00
 outer loop
  vertex -1.721744e+00 1.707819e+00 -1.716909e-01
  vertex -1.721744e+00 1.957819e+00 -1.716909e-01
  vertex -1.721744e+00 2.082819e+00 1.437852e-01
 endloop
endfacet
facet normal 0.000000e+00 0.000000e+00 1.000000e+00
 outer loop
  vertex -1.721744e+00 2.207819e+00 -1.716909e-01
  vertex -1.721744e+00 1.957819e+00 -1.716909e-01
  vertex -1.244276e+00 1.980351e+00 -1.716909e-01
 endloop
endfacet
facet normal 1.000000e+00 0.000000e+00 0.000000e+00
 outer loop
  vertex -1.721744e+00 1.957819e+00 -1.716909e-01
  vertex -1.721744e+00 2.207819e+00 -1.716909e-01
  vertex -1.721744e+00 2.082819e+00 1.437852e-01
 endloop
endfacet
facet normal 0.000000e+00 0.000000e+00 1.000000e+00
 outer loop
  vertex -1.244276e+00 1.980351e+00 -1.716909e-01
  vertex -1.721744e+00 1.957819e+00 -1.716909e-01
  vertex -1.402092e+00 1.702320e+00 -1.716909e-01
 endloop
endfacet
facet normal 0.000000e+00 0.000000e+00 1.000000e+00
 outer loop
  vertex -1.721744e+00 9.578195e-01 -1.716909e-01
  vertex -1.721744e+00 7.078195e-01 -1.716909e-01
  vertex -1.368116e+00 8.328195e-01 -1.716909e-01
 endloop
endfacet
facet normal 1.000000e+00 0.000000e+00 0.000000e+00
 outer loop
  vertex -1.721744e+00 7.078195e-01 -1.716909e-01
  vertex -1.721744e+00 9.578195e-01 -1.716909e-01
  vertex -1.721744e+00 1.082819e+00 1.080710e-01
 endloop
endfacet
facet normal 0.000000e+00 0.000000e+00 1.000000e+00
 outer loop
  vertex -1.721744e+00 1.207819e+00 -1.716909e-01
  vertex -1.721744e+00 9.578195e-01 -1.716909e-01
  vertex -1.368116e+00 8.328195e-01 -1.716909e-01
 endloop
endfacet
facet normal 1.000000e+00 0.000000e+00 0.000000e+00
 outer loop
  vertex -1.721744e+00 9.578195e-01 -1.716909e-01
  vertex -1.721744e+00 1.207819e+00 -1.716909e-01
  vertex -1.721744e+00 1.082819e+00 1.080710e-01
 endloop
endfacet
facet normal 0.000000e+00 1.000000e+00 0.000000e+00
 outer loop
  vertex -1.721744e+00 4.578195e-01 1.328309e+00
  vertex -1.721744e+00 4.578195e-01 1.578309e+00
  vertex -1.266048e+00 4.578195e-01 1.372613e+00
 endloop
endfacet
facet normal 1.000000e+00 0.000000e+00 0.000000e+00
 outer loop
  vertex -1.721744e+00 4.578195e-01 1.578309e+00
  vertex -1.721744e+00 4.578195e-01 1.328309e+00
  vertex -1.721744e+00 8.328195e-01 1.512833e+00
 endloop
endfacet
facet normal 0.000000e+00 1.000000e+00 0.000000e+00
 outer loop
  vertex -1.721744e+00 4.578195e-01 1.078309e+00
  vertex -1.721744e+00 4.578195e-01 1.328309e+00
  vertex -1.266048e+00 4.578195e-01 1.372613e+00
 endloop
endfacet
facet normal 1.000000e+00 0.000000e+00 0.000000e+00
 outer loop
  vertex -1.721744e+00 4.578195e-01 1.328309e+00
  vertex -1.721744e+00 4.578195e-01 1.078309e+00
  vertex -1.721744e+00 1.041153e+00 1.244976e+00
 endloop
endfacet
facet normal 1.000000e+00 -0.000000e+00 0.000000e+00
 outer loop
  vertex -1.721744e+00 4.578195e-01 1.328309e+00
  vertex -1.721744e+00 1.041153e+00 1.244976e+00
  vertex -1.721744e+00 8.328195e-01 1.512833e+00
 endloop
endfacet
facet normal 0.000000e+00 0.000000e+00 1.000000e+00
 outer loop
  vertex -1.221744e+00 2.457819e+00 -1.716909e-01
  vertex -1.471744e+00 2.457819e+00 -1.716909e-01
  vertex -1.244276e+00 1.980351e+00 -1.716909e-01
 endloop
endfacet
facet normal 0.000000e+00 -1.000000e+00 0.000000e+00
 outer loop
  vertex -1.471744e+00 2.457819e+00 -1.716909e-01
  vertex -1.221744e+00 2.457819e+00 -1.716909e-01
  vertex -1.406267e+00 2.457819e+00 2.033091e-01
 endloop
endfacet
facet normal 0.000000e+00 0.000000e+00 1.000000e+00
 outer loop
  vertex -9.717436e-01 2.457819e+00 -1.716909e-01
  vertex -1.221744e+00 2.457819e+00 -1.716909e-01
  vertex -1.244276e+00 1.980351e+00 -1.716909e-01
 endloop
endfacet
facet normal 0.000000e+00 -1.000000e+00 0.000000e+00
 outer loop
  vertex -1.221744e+00 2.457819e+00 -1.716909e-01
  vertex -9.717436e-01 2.457819e+00 -1.716909e-01
  vertex -1.000213e+00 2.457819e+00 1.356512e-01
 endloop
endfacet
facet normal 0.000000e+00 -1.000000e+00 0.000000e+00
 outer loop
  vertex -1.221744e+00 2.457819e+00 -1.716909e-01
  vertex -1.000213e+00 2.457819e+00 1.356512e-01
  vertex -1.406267e+00 2.457819e+00 2.033091e-01
 endloop
endfacet
facet normal 1.000000e+00 0.000000e+00 -0.000000e+00
 outer loop
  vertex -1.721744e+00 2.457819e+00 1.328309e+00
  vertex -1.721744e+00 2.457819e+00 1.578309e+00
  vertex -1.721744e+00 2.120698e+00 1.491188e+00
 endloop
endfacet
facet normal 0.000000e+00 -1.000000e+00 0.000000e+00
 outer loop
  vertex -1.721744e+00 2.457819e+00 1.578309e+00
  vertex -1.721744e+00 2.457819e+00 1.328309e+00
  vertex -1.346744e+00 2.457819e+00 1.512833e+00
 endloop
endfacet
facet normal 0.000000e+00 -1.000000e+00 0.000000e+00
 outer loop
  vertex -1.721744e+00 2.457819e+00 1.328309e+00
  vertex -1.721744e+00 2.457819e+00 1.078309e+00
  vertex -1.414401e+00 2.457819e+00 1.106778e+00
 endloop
endfacet
facet normal 1.000000e+00 0.000000e+00 -0.000000e+00
 outer loop
  vertex -1.721744e+00 2.457819e+00 1.078309e+00
  vertex -1.721744e+00 2.457819e+00 1.328309e+00
  vertex -1.721744e+00 2.120698e+00 1.491188e+00
 endloop
endfacet
facet normal 0.000000e+00 -1.000000e+00 0.000000e+00
 outer loop
  vertex -1.721744e+00 2.457819e+00 1.328309e+00
  vertex -1.414401e+00 2.457819e+00 1.106778e+00
  vertex -1.346744e+00 2.457819e+00 1.512833e+00
 endloop
endfacet
facet normal -1.000000e+00 0.000000e+00 0.000000e+00
 outer loop
  vertex 2.782564e-01 1.957819e+00 1.828309e+00
  vertex 2.782564e-01 2.207819e+00 1.828309e+00
  vertex 2.782564e-01 2.014636e+00 1.385126e+00
 endloop
endfacet
facet normal 0.000000e+00 -0.000000e+00 -1.000000e+00
 outer loop
  vertex 2.782564e-01 2.207819e+00 1.828309e+00
  vertex 2.782564e-01 1.957819e+00 1.828309e+00
  vertex -5.886480e-02 2.120698e+00 1.828309e+00
 endloop
endfacet
facet normal -1.000000e+00 0.000000e+00 0.000000e+00
 outer loop
  vertex 2.782564e-01 1.707819e+00 1.828309e+00
  vertex 2.782564e-01 1.957819e+00 1.828309e+00
  vertex 2.782564e-01 1.712164e+00 1.503520e+00
 endloop
endfacet
facet normal -0.000000e+00 -0.000000e+00 -1.000000e+00
 outer loop
  vertex 2.782564e-01 1.957819e+00 1.828309e+00
  vertex 2.782564e-01 1.707819e+00 1.828309e+00
  vertex -5.886480e-02 2.120698e+00 1.828309e+00
 endloop
endfacet
facet normal -1.000000e+00 0.000000e+00 -0.000000e+00
 outer loop
  vertex 2.782564e-01 1.957819e+00 1.828309e+00
  vertex 2.782564e-01 2.014636e+00 1.385126e+00
  vertex 2.782564e-01 1.712164e+00 1.503520e+00
 endloop
endfacet
facet normal -0.000000e+00 -1.000000e+00 0.000000e+00
 outer loop
  vertex -1.221744e+00 2.457819e+00 1.828309e+00
  vertex -1.471744e+00 2.457819e+00 1.828309e+00
  vertex -1.346744e+00 2.457819e+00 1.512833e+00
 endloop
endfacet
facet normal 0.000000e+00 0.000000e+00 -1.000000e+00
 outer loop
  vertex -1.471744e+00 2.457819e+00 1.828309e+00
  vertex -1.221744e+00 2.457819e+00 1.828309e+00
  vertex -1.384622e+00 2.120698e+00 1.828309e+00
 endloop
endfacet
facet normal 0.000000e+00 0.000000e+00 -1.000000e+00
 outer loop
  vertex -1.221744e+00 2.457819e+00 1.828309e+00
  vertex -9.717436e-01 2.457819e+00 1.828309e+00
  vertex -1.000213e+00 2.150477e+00 1.828309e+00
 endloop
endfacet
facet normal -0.000000e+00 -1.000000e+00 0.000000e+00
 outer loop
  vertex -9.717436e-01 2.457819e+00 1.828309e+00
  vertex -1.221744e+00 2.457819e+00 1.828309e+00
  vertex -1.346744e+00 2.457819e+00 1.512833e+00
 endloop
endfacet
facet normal 0.000000e+00 -0.000000e+00 -1.000000e+00
 outer loop
  vertex -1.221744e+00 2.457819e+00 1.828309e+00
  vertex -1.000213e+00 2.150477e+00 1.828309e+00
  vertex -1.384622e+00 2.120698e+00 1.828309e+00
 endloop
endfacet
facet normal 1.000000e+00 0.000000e+00 0.000000e+00
 outer loop
  vertex -1.721744e+00 9.578195e-01 1.828309e+00
  vertex -1.721744e+00 7.078195e-01 1.828309e+00
  vertex -1.721744e+00 8.328195e-01 1.512833e+00
 endloop
endfacet
facet normal 0.000000e+00 0.000000e+00 -1.000000e+00
 outer loop
  vertex -1.721744e+00 7.078195e-01 1.828309e+00
  vertex -1.721744e+00 9.578195e-01 1.828309e+00
  vertex -1.384622e+00 7.949407e-01 1.828309e+00
 endloop
endfacet
facet normal 1.000000e+00 0.000000e+00 0.000000e+00
 outer loop
  vertex -1.721744e+00 1.207819e+00 1.828309e+00
  vertex -1.721744e+00 9.578195e-01 1.828309e+00
  vertex -1.721744e+00 8.328195e-01 1.512833e+00
 endloop
endfacet
facet normal 0.000000e+00 0.000000e+00 -1.000000e+00
 outer loop
  vertex -1.721744e+00 9.578195e-01 1.828309e+00
  vertex -1.721744e+00 1.207819e+00 1.828309e+00
  vertex -1.414401e+00 1.179350e+00 1.828309e+00
 endloop
endfacet
facet normal 0.000000e+00 0.000000e+00 -1.000000e+00
 outer loop
  vertex -1.721744e+00 9.578195e-01 1.828309e+00
  vertex -1.414401e+00 1.179350e+00 1.828309e+00
  vertex -1.384622e+00 7.949407e-01 1.828309e+00
 endloop
endfacet
facet normal -0.000000e+00 1.000000e+00 0.000000e+00
 outer loop
  vertex -2.217436e-01 4.578195e-01 1.828309e+00
  vertex 2.825642e-02 4.578195e-01 1.828309e+00
  vertex -3.467436e-01 4.578195e-01 1.423466e+00
 endloop
endfacet
facet normal 0.000000e+00 0.000000e+00 -1.000000e+00
 outer loop
  vertex -2.217436e-01 4.578195e-01 1.828309e+00
  vertex -5.886480e-02 7.949407e-01 1.828309e+00
  vertex 2.825642e-02 4.578195e-01 1.828309e+00
 endloop
endfacet
facet normal -0.000000e+00 1.000000e+00 0.000000e+00
 outer loop
  vertex -4.717436e-01 4.578195e-01 1.828309e+00
  vertex -2.217436e-01 4.578195e-01 1.828309e+00
  vertex -3.467436e-01 4.578195e-01 1.423466e+00
 endloop
endfacet
facet normal 0.000000e+00 0.000000e+00 -1.000000e+00
 outer loop
  vertex -2.217436e-01 4.578195e-01 1.828309e+00
  vertex -4.717436e-01 4.578195e-01 1.828309e+00
  vertex -5.886480e-02 7.949407e-01 1.828309e+00
 endloop
endfacet
facet normal -1.000000e+00 0.000000e+00 -0.000000e+00
 outer loop
  vertex 2.782564e-01 2.457819e+00 3.283091e-01
  vertex 2.782564e-01 2.457819e+00 7.830906e-02
  vertex 2.782564e-01 2.029443e+00 2.577293e-01
 endloop
endfacet
facet normal 0.000000e+00 -1.000000e+00 0.000000e+00
 outer loop
  vertex 2.782564e-01 2.457819e+00 7.830906e-02
  vertex 2.782564e-01 2.457819e+00 3.283091e-01
  vertex -5.886480e-02 2.457819e+00 1.654303e-01
 endloop
endfacet
facet normal -1.000000e+00 0.000000e+00 -0.000000e+00
 outer loop
  vertex 2.782564e-01 2.457819e+00 5.783091e-01
  vertex 2.782564e-01 2.457819e+00 3.283091e-01
  vertex 2.782564e-01 2.029443e+00 2.577293e-01
 endloop
endfacet
facet normal 0.000000e+00 -1.000000e+00 0.000000e+00
 outer loop
  vertex 2.782564e-01 2.457819e+00 3.283091e-01
  vertex 2.782564e-01 2.457819e+00 5.783091e-01
  vertex -2.908575e-02 2.457819e+00 5.498400e-01
 endloop
endfacet
facet normal -0.000000e+00 -1.000000e+00 0.000000e+00
 outer loop
  vertex 2.782564e-01 2.457819e+00 3.283091e-01
  vertex -2.908575e-02 2.457819e+00 5.498400e-01
  vertex -5.886480e-02 2.457819e+00 1.654303e-01
 endloop
endfacet
facet normal -1.000000e+00 0.000000e+00 0.000000e+00
 outer loop
  vertex 2.782564e-01 1.364455e+00 -1.716909e-01
  vertex 2.782564e-01 1.000000e+00 1.212318e-01
  vertex 2.782564e-01 1.407041e+00 2.676932e-01
 endloop
endfacet
facet normal 0.000000e+00 -0.000000e+00 1.000000e+00
 outer loop
  vertex -4.130769e-02 1.000000e+00 -1.716909e-01
  vertex 2.782564e-01 1.364455e+00 -1.716909e-01
  vertex -2.804422e-01 1.574135e+00 -1.716909e-01
 endloop
endfacet
facet normal 0.000000e+00 1.000000e+00 0.000000e+00
 outer loop
  vertex -6.804359e-01 1.000000e+00 -1.716909e-01
  vertex -1.000000e+00 1.000000e+00 1.212318e-01
  vertex -7.059667e-01 1.000000e+00 2.676932e-01
 endloop
endfacet
facet normal 0.000000e+00 0.000000e+00 1.000000e+00
 outer loop
  vertex -8.402179e-01 1.724967e+00 -1.716909e-01
  vertex -6.804359e-01 1.000000e+00 -1.716909e-01
  vertex -2.804422e-01 1.574135e+00 -1.716909e-01
 endloop
endfacet
facet normal 0.000000e+00 1.000000e+00 0.000000e+00
 outer loop
  vertex 2.782564e-01 1.000000e+00 1.212318e-01
  vertex -4.130769e-02 1.000000e+00 -1.716909e-01
  vertex -6.683854e-02 1.000000e+00 5.606159e-01
 endloop
endfacet
facet normal 0.000000e+00 1.000000e+00 0.000000e+00
 outer loop
  vertex -4.130769e-02 1.000000e+00 1.000000e+00
  vertex 2.782564e-01 1.000000e+00 7.070773e-01
  vertex -6.683854e-02 1.000000e+00 5.606159e-01
 endloop
endfacet
facet normal 1.000000e+00 0.000000e+00 -0.000000e+00
 outer loop
  vertex -1.721744e+00 1.707819e+00 -1.716909e-01
  vertex -1.721744e+00 1.874486e+00 4.116424e-01
  vertex -1.721744e+00 1.457819e+00 2.687852e-01
 endloop
endfacet
facet normal 1.000000e+00 0.000000e+00 0.000000e+00
 outer loop
  vertex -1.721744e+00 1.874486e+00 4.116424e-01
  vertex -1.721744e+00 1.707819e+00 -1.716909e-01
  vertex -1.721744e+00 2.082819e+00 1.437852e-01
 endloop
endfacet
facet normal 1.000000e+00 -0.000000e+00 0.000000e+00
 outer loop
  vertex -1.721744e+00 4.578195e-01 7.830906e-02
  vertex -1.721744e+00 7.078195e-01 -1.716909e-01
  vertex -1.721744e+00 1.082819e+00 1.080710e-01
 endloop
endfacet
facet normal 1.000000e+00 0.000000e+00 0.000000e+00
 outer loop
  vertex -1.721744e+00 7.078195e-01 1.828309e+00
  vertex -1.721744e+00 4.578195e-01 1.578309e+00
  vertex -1.721744e+00 8.328195e-01 1.512833e+00
 endloop
endfacet
facet normal -0.000000e+00 1.000000e+00 0.000000e+00
 outer loop
  vertex -1.721744e+00 4.578195e-01 1.578309e+00
  vertex -1.471744e+00 4.578195e-01 1.828309e+00
  vertex -1.266048e+00 4.578195e-01 1.372613e+00
 endloop
endfacet
facet normal 0.000000e+00 0.000000e+00 1.000000e+00
 outer loop
  vertex -1.471744e+00 2.457819e+00 -1.716909e-01
  vertex -1.721744e+00 2.207819e+00 -1.716909e-01
  vertex -1.244276e+00 1.980351e+00 -1.716909e-01
 endloop
endfacet
facet normal 0.000000e+00 -1.000000e+00 0.000000e+00
 outer loop
  vertex -1.721744e+00 2.457819e+00 7.830906e-02
  vertex -1.471744e+00 2.457819e+00 -1.716909e-01
  vertex -1.406267e+00 2.457819e+00 2.033091e-01
 endloop
endfacet
facet normal 0.000000e+00 -1.000000e+00 -0.000000e+00
 outer loop
  vertex -1.471744e+00 2.457819e+00 1.828309e+00
  vertex -1.721744e+00 2.457819e+00 1.578309e+00
  vertex -1.346744e+00 2.457819e+00 1.512833e+00
 endloop
endfacet
facet normal 1.000000e+00 0.000000e+00 0.000000e+00
 outer loop
  vertex -1.721744e+00 2.457819e+00 1.578309e+00
  vertex -1.721744e+00 2.207819e+00 1.828309e+00
  vertex -1.721744e+00 2.120698e+00 1.491188e+00
 endloop
endfacet
facet normal 0.000000e+00 -0.000000e+00 -1.000000e+00
 outer loop
  vertex 2.825642e-02 2.457819e+00 1.828309e+00
  vertex 2.782564e-01 2.207819e+00 1.828309e+00
  vertex -5.886480e-02 2.120698e+00 1.828309e+00
 endloop
endfacet
facet normal -1.000000e+00 0.000000e+00 -0.000000e+00
 outer loop
  vertex 2.782564e-01 2.207819e+00 1.828309e+00
  vertex 2.782564e-01 2.457819e+00 1.578309e+00
  vertex 2.782564e-01 2.014636e+00 1.385126e+00
 endloop
endfacet
facet normal 0.000000e+00 -0.000000e+00 -1.000000e+00
 outer loop
  vertex -1.471744e+00 2.457819e+00 1.828309e+00
  vertex -1.384622e+00 2.120698e+00 1.828309e+00
  vertex -1.721744e+00 2.207819e+00 1.828309e+00
 endloop
endfacet
facet normal 0.000000e+00 0.000000e+00 -1.000000e+00
 outer loop
  vertex -1.721744e+00 7.078195e-01 1.828309e+00
  vertex -1.384622e+00 7.949407e-01 1.828309e+00
  vertex -1.471744e+00 4.578195e-01 1.828309e+00
 endloop
endfacet
facet normal 0.000000e+00 0.000000e+00 -1.000000e+00
 outer loop
  vertex 2.825642e-02 4.578195e-01 1.828309e+00
  vertex -5.886480e-02 7.949407e-01 1.828309e+00
  vertex 2.782564e-01 7.078195e-01 1.828309e+00
 endloop
endfacet
facet normal -1.000000e+00 -0.000000e+00 0.000000e+00
 outer loop
  vertex 2.782564e-01 2.457819e+00 7.830906e-02
  vertex 2.782564e-01 2.093365e+00 -1.716909e-01
  vertex 2.782564e-01 2.029443e+00 2.577293e-01
 endloop
endfacet
facet normal -0.000000e+00 -1.000000e+00 0.000000e+00
 outer loop
  vertex 2.782564e-01 2.457819e+00 7.830906e-02
  vertex -5.886480e-02 2.457819e+00 1.654303e-01
  vertex 2.825642e-02 2.457819e+00 -1.716909e-01
 endloop
endfacet
facet normal -0.000000e+00 1.000000e+00 0.000000e+00
 outer loop
  vertex -1.721744e+00 4.578195e-01 3.283091e-01
  vertex -1.721744e+00 4.578195e-01 5.783091e-01
  vertex -1.348557e+00 4.578195e-01 2.676932e-01
 endloop
endfacet
facet normal 1.000000e+00 0.000000e+00 0.000000e+00
 outer loop
  vertex -1.721744e+00 4.578195e-01 5.783091e-01
  vertex -1.721744e+00 4.578195e-01 3.283091e-01
  vertex -1.721744e+00 7.651616e-01 5.498400e-01
 endloop
endfacet
facet normal 0.000000e+00 1.000000e+00 0.000000e+00
 outer loop
  vertex -1.721744e+00 4.578195e-01 7.830906e-02
  vertex -1.721744e+00 4.578195e-01 3.283091e-01
  vertex -1.348557e+00 4.578195e-01 2.676932e-01
 endloop
endfacet
facet normal 1.000000e+00 0.000000e+00 0.000000e+00
 outer loop
  vertex -1.721744e+00 4.578195e-01 3.283091e-01
  vertex -1.721744e+00 4.578195e-01 7.830906e-02
  vertex -1.721744e+00 1.082819e+00 1.080710e-01
 endloop
endfacet
facet normal 1.000000e+00 -0.000000e+00 0.000000e+00
 outer loop
  vertex -1.721744e+00 4.578195e-01 3.283091e-01
  vertex -1.721744e+00 1.082819e+00 1.080710e-01
  vertex -1.721744e+00 7.651616e-01 5.498400e-01
 endloop
endfacet
facet normal 0.000000e+00 0.000000e+00 1.000000e+00
 outer loop
  vertex -2.217436e-01 2.457819e+00 -1.716909e-01
  vertex -4.717436e-01 2.457819e+00 -1.716909e-01
  vertex -1.651411e-01 2.010268e+00 -1.716909e-01
 endloop
endfacet
facet normal 0.000000e+00 -1.000000e+00 0.000000e+00
 outer loop
  vertex -4.717436e-01 2.457819e+00 -1.716909e-01
  vertex -2.217436e-01 2.457819e+00 -1.716909e-01
  vertex -4.432745e-01 2.457819e+00 1.356512e-01
 endloop
endfacet
facet normal 0.000000e+00 0.000000e+00 1.000000e+00
 outer loop
  vertex 2.825642e-02 2.457819e+00 -1.716909e-01
  vertex -2.217436e-01 2.457819e+00 -1.716909e-01
  vertex -1.651411e-01 2.010268e+00 -1.716909e-01
 endloop
endfacet
facet normal 0.000000e+00 -1.000000e+00 0.000000e+00
 outer loop
  vertex -2.217436e-01 2.457819e+00 -1.716909e-01
  vertex 2.825642e-02 2.457819e+00 -1.716909e-01
  vertex -5.886480e-02 2.457819e+00 1.654303e-01
 endloop
endfacet
facet normal 0.000000e+00 -1.000000e+00 0.000000e+00
 outer loop
  vertex -2.217436e-01 2.457819e+00 -1.716909e-01
  vertex -5.886480e-02 2.457819e+00 1.654303e-01
  vertex -4.432745e-01 2.457819e+00 1.356512e-01
 endloop
endfacet
facet normal 1.000000e+00 0.000000e+00 -0.000000e+00
 outer loop
  vertex -1.721744e+00 2.457819e+00 3.283091e-01
  vertex -1.721744e+00 2.457819e+00 5.783091e-01
  vertex -1.721744e+00 2.150477e+00 5.498400e-01
 endloop
endfacet
facet normal 0.000000e+00 -1.000000e+00 0.000000e+00
 outer loop
  vertex -1.721744e+00 2.457819e+00 5.783091e-01
  vertex -1.721744e+00 2.457819e+00 3.283091e-01
  vertex -1.406267e+00 2.457819e+00 2.033091e-01
 endloop
endfacet
facet normal 0.000000e+00 -1.000000e+00 0.000000e+00
 outer loop
  vertex -1.721744e+00 2.457819e+00 3.283091e-01
  vertex -1.721744e+00 2.457819e+00 7.830906e-02
  vertex -1.406267e+00 2.457819e+00 2.033091e-01
 endloop
endfacet
facet normal 1.000000e+00 0.000000e+00 -0.000000e+00
 outer loop
  vertex -1.721744e+00 2.457819e+00 7.830906e-02
  vertex -1.721744e+00 2.457819e+00 3.283091e-01
  vertex -1.721744e+00 2.082819e+00 1.437852e-01
 endloop
endfacet
facet normal 1.000000e+00 0.000000e+00 0.000000e+00
 outer loop
  vertex -1.721744e+00 2.457819e+00 3.283091e-01
  vertex -1.721744e+00 2.150477e+00 5.498400e-01
  vertex -1.721744e+00 2.082819e+00 1.437852e-01
 endloop
endfacet
facet normal 0.000000e+00 -0.000000e+00 -1.000000e+00
 outer loop
  vertex 2.782564e-01 1.207819e+00 1.828309e+00
  vertex 2.782564e-01 9.578195e-01 1.828309e+00
  vertex -2.908575e-02 1.179350e+00 1.828309e+00
 endloop
endfacet
facet normal -1.000000e+00 0.000000e+00 0.000000e+00
 outer loop
  vertex 2.782564e-01 9.578195e-01 1.828309e+00
  vertex 2.782564e-01 1.207819e+00 1.828309e+00
  vertex 2.782564e-01 1.285389e+00 1.433128e+00
 endloop
endfacet
facet normal -1.000000e+00 0.000000e+00 0.000000e+00
 outer loop
  vertex 2.782564e-01 7.078195e-01 1.828309e+00
  vertex 2.782564e-01 9.578195e-01 1.828309e+00
  vertex 2.782564e-01 8.833732e-01 1.409289e+00
 endloop
endfacet
facet normal 0.000000e+00 -0.000000e+00 -1.000000e+00
 outer loop
  vertex 2.782564e-01 9.578195e-01 1.828309e+00
  vertex 2.782564e-01 7.078195e-01 1.828309e+00
  vertex -5.886480e-02 7.949407e-01 1.828309e+00
 endloop
endfacet
facet normal -1.000000e+00 0.000000e+00 0.000000e+00
 outer loop
  vertex 2.782564e-01 8.833732e-01 1.409289e+00
  vertex 2.782564e-01 9.578195e-01 1.828309e+00
  vertex 2.782564e-01 1.285389e+00 1.433128e+00
 endloop
endfacet
facet normal -0.000000e+00 0.000000e+00 -1.000000e+00
 outer loop
  vertex 2.782564e-01 9.578195e-01 1.828309e+00
  vertex -5.886480e-02 7.949407e-01 1.828309e+00
  vertex -2.908575e-02 1.179350e+00 1.828309e+00
 endloop
endfacet
facet normal -0.000000e+00 -1.000000e+00 0.000000e+00
 outer loop
  vertex -2.217436e-01 2.457819e+00 1.828309e+00
  vertex -4.717436e-01 2.457819e+00 1.828309e+00
  vertex -4.432745e-01 2.457819e+00 1.520967e+00
 endloop
endfacet
facet normal 0.000000e+00 0.000000e+00 -1.000000e+00
 outer loop
  vertex -4.717436e-01 2.457819e+00 1.828309e+00
  vertex -2.217436e-01 2.457819e+00 1.828309e+00
  vertex -5.886480e-02 2.120698e+00 1.828309e+00
 endloop
endfacet
facet normal 0.000000e+00 0.000000e+00 -1.000000e+00
 outer loop
  vertex -2.217436e-01 2.457819e+00 1.828309e+00
  vertex 2.825642e-02 2.457819e+00 1.828309e+00
  vertex -5.886480e-02 2.120698e+00 1.828309e+00
 endloop
endfacet
facet normal -0.000000e+00 -1.000000e+00 0.000000e+00
 outer loop
  vertex 2.825642e-02 2.457819e+00 1.828309e+00
  vertex -2.217436e-01 2.457819e+00 1.828309e+00
  vertex -5.886480e-02 2.457819e+00 1.491188e+00
 endloop
endfacet
facet normal 0.000000e+00 -1.000000e+00 -0.000000e+00
 outer loop
  vertex -2.217436e-01 2.457819e+00 1.828309e+00
  vertex -4.432745e-01 2.457819e+00 1.520967e+00
  vertex -5.886480e-02 2.457819e+00 1.491188e+00
 endloop
endfacet
facet normal 1.000000e+00 0.000000e+00 0.000000e+00
 outer loop
  vertex -1.721744e+00 2.207819e+00 1.828309e+00
  vertex -1.721744e+00 1.957819e+00 1.828309e+00
  vertex -1.721744e+00 2.120698e+00 1.491188e+00
 endloop
endfacet
facet normal 0.000000e+00 0.000000e+00 -1.000000e+00
 outer loop
  vertex -1.721744e+00 1.957819e+00 1.828309e+00
  vertex -1.721744e+00 2.207819e+00 1.828309e+00
  vertex -1.384622e+00 2.120698e+00 1.828309e+00
 endloop
endfacet
facet normal 0.000000e+00 0.000000e+00 -1.000000e+00
 outer loop
  vertex -1.721744e+00 1.707819e+00 1.828309e+00
  vertex -1.721744e+00 1.957819e+00 1.828309e+00
  vertex -1.384622e+00 2.120698e+00 1.828309e+00
 endloop
endfacet
facet normal 1.000000e+00 0.000000e+00 0.000000e+00
 outer loop
  vertex -1.721744e+00 1.957819e+00 1.828309e+00
  vertex -1.721744e+00 1.707819e+00 1.828309e+00
  vertex -1.721744e+00 1.736289e+00 1.520967e+00
 endloop
endfacet
facet normal 1.000000e+00 0.000000e+00 0.000000e+00
 outer loop
  vertex -1.721744e+00 2.120698e+00 1.491188e+00
  vertex -1.721744e+00 1.957819e+00 1.828309e+00
  vertex -1.721744e+00 1.736289e+00 1.520967e+00
 endloop
endfacet
facet normal -0.000000e+00 1.000000e+00 0.000000e+00
 outer loop
  vertex -1.471744e+00 4.578195e-01 1.828309e+00
  vertex -1.221744e+00 4.578195e-01 1.828309e+00
  vertex -1.266048e+00 4.578195e-01 1.372613e+00
 endloop
endfacet
facet normal 0.000000e+00 0.000000e+00 -1.000000e+00
 outer loop
  vertex -1.221744e+00 4.578195e-01 1.828309e+00
  vertex -1.471744e+00 4.578195e-01 1.828309e+00
  vertex -1.384622e+00 7.949407e-01 1.828309e+00
 endloop
endfacet
facet normal -0.000000e+00 1.000000e+00 0.000000e+00
 outer loop
  vertex -1.221744e+00 4.578195e-01 1.828309e+00
  vertex -9.717436e-01 4.578195e-01 1.828309e+00
  vertex -1.266048e+00 4.578195e-01 1.372613e+00
 endloop
endfacet
facet normal 0.000000e+00 0.000000e+00 -1.000000e+00
 outer loop
  vertex -9.717436e-01 4.578195e-01 1.828309e+00
  vertex -1.221744e+00 4.578195e-01 1.828309e+00
  vertex -1.384622e+00 7.949407e-01 1.828309e+00
 endloop
endfacet
facet normal -1.000000e+00 -0.000000e+00 -0.000000e+00
 outer loop
  vertex 2.782564e-01 2.457819e+00 1.328309e+00
  vertex 2.782564e-01 2.457819e+00 1.078309e+00
  vertex 2.782564e-01 2.014636e+00 1.385126e+00
 endloop
endfacet
facet normal 0.000000e+00 -1.000000e+00 0.000000e+00
 outer loop
  vertex 2.782564e-01 2.457819e+00 1.078309e+00
  vertex 2.782564e-01 2.457819e+00 1.328309e+00
  vertex -2.908575e-02 2.457819e+00 1.106778e+00
 endloop
endfacet
facet normal -1.000000e+00 0.000000e+00 -0.000000e+00
 outer loop
  vertex 2.782564e-01 2.457819e+00 1.578309e+00
  vertex 2.782564e-01 2.457819e+00 1.328309e+00
  vertex 2.782564e-01 2.014636e+00 1.385126e+00
 endloop
endfacet
facet normal 0.000000e+00 -1.000000e+00 0.000000e+00
 outer loop
  vertex 2.782564e-01 2.457819e+00 1.328309e+00
  vertex 2.782564e-01 2.457819e+00 1.578309e+00
  vertex -5.886480e-02 2.457819e+00 1.491188e+00
 endloop
endfacet
facet normal -0.000000e+00 -1.000000e+00 0.000000e+00
 outer loop
  vertex 2.782564e-01 2.457819e+00 1.328309e+00
  vertex -5.886480e-02 2.457819e+00 1.491188e+00
  vertex -2.908575e-02 2.457819e+00 1.106778e+00
 endloop
endfacet
facet normal 0.000000e+00 1.000000e+00 0.000000e+00
 outer loop
  vertex -1.000000e+00 4.578195e-01 7.070773e-01
  vertex -1.348557e+00 4.578195e-01 2.676932e-01
  vertex -1.370186e+00 4.578195e-01 9.533091e-01
 endloop
endfacet
facet normal 0.000000e+00 0.000000e+00 1.000000e+00
 outer loop
  vertex 2.782564e-01 2.093365e+00 -1.716909e-01
  vertex 2.825642e-02 2.457819e+00 -1.716909e-01
  vertex -1.651411e-01 2.010268e+00 -1.716909e-01
 endloop
endfacet
facet normal 0.000000e+00 1.000000e+00 0.000000e+00
 outer loop
  vertex -4.130769e-02 1.000000e+00 -1.716909e-01
  vertex -4.119335e-01 1.000000e+00 4.141545e-01
  vertex -6.683854e-02 1.000000e+00 5.606159e-01
 endloop
endfacet
facet normal -0.000000e+00 1.000000e+00 0.000000e+00
 outer loop
  vertex -1.000000e+00 1.000000e+00 7.070773e-01
  vertex -6.804359e-01 1.000000e+00 1.000000e+00
  vertex -4.119335e-01 1.000000e+00 4.141545e-01
 endloop
endfacet
facet normal 0.000000e+00 1.000000e+00 0.000000e+00
 outer loop
  vertex -1.000000e+00 1.000000e+00 7.070773e-01
  vertex -4.119335e-01 1.000000e+00 4.141545e-01
  vertex -7.059667e-01 1.000000e+00 2.676932e-01
 endloop
endfacet
facet normal 0.000000e+00 1.000000e+00 -0.000000e+00
 outer loop
  vertex -6.804359e-01 4.578195e-01 1.000000e+00
  vertex -8.324343e-01 4.578195e-01 1.407604e+00
  vertex -3.467436e-01 4.578195e-01 1.423466e+00
 endloop
endfacet
facet normal 1.000000e+00 0.000000e+00 -0.000000e+00
 outer loop
  vertex -1.721744e+00 2.207819e+00 -1.716909e-01
  vertex -1.721744e+00 2.457819e+00 7.830906e-02
  vertex -1.721744e+00 2.082819e+00 1.437852e-01
 endloop
endfacet
facet normal 1.000000e+00 -0.000000e+00 0.000000e+00
 outer loop
  vertex -1.721744e+00 1.082819e+00 1.080710e-01
  vertex -1.721744e+00 1.207819e+00 -1.716909e-01
  vertex -1.721744e+00 1.457819e+00 2.687852e-01
 endloop
endfacet
facet normal 0.000000e+00 0.000000e+00 1.000000e+00
 outer loop
  vertex -1.232473e+00 1.431328e+00 -1.716909e-01
  vertex -1.721744e+00 1.207819e+00 -1.716909e-01
  vertex -1.368116e+00 8.328195e-01 -1.716909e-01
 endloop
endfacet
facet normal -0.000000e+00 1.000000e+00 0.000000e+00
 outer loop
  vertex -1.721744e+00 4.578195e-01 1.078309e+00
  vertex -1.266048e+00 4.578195e-01 1.372613e+00
  vertex -1.370186e+00 4.578195e-01 9.533091e-01
 endloop
endfacet
facet normal 1.000000e+00 0.000000e+00 0.000000e+00
 outer loop
  vertex -1.721744e+00 1.041153e+00 1.244976e+00
  vertex -1.721744e+00 4.578195e-01 1.078309e+00
  vertex -1.721744e+00 8.982957e-01 8.283091e-01
 endloop
endfacet
facet normal 0.000000e+00 0.000000e+00 1.000000e+00
 outer loop
  vertex -9.717436e-01 2.457819e+00 -1.716909e-01
  vertex -1.244276e+00 1.980351e+00 -1.716909e-01
  vertex -5.814047e-01 2.053897e+00 -1.716909e-01
 endloop
endfacet
facet normal 1.000000e+00 0.000000e+00 0.000000e+00
 outer loop
  vertex -1.721744e+00 2.457819e+00 1.078309e+00
  vertex -1.721744e+00 1.874486e+00 1.244976e+00
  vertex -1.721744e+00 2.017343e+00 8.283091e-01
 endloop
endfacet
facet normal 1.000000e+00 -0.000000e+00 0.000000e+00
 outer loop
  vertex -1.721744e+00 1.874486e+00 1.244976e+00
  vertex -1.721744e+00 2.457819e+00 1.078309e+00
  vertex -1.721744e+00 2.120698e+00 1.491188e+00
 endloop
endfacet
facet normal 0.000000e+00 0.000000e+00 -1.000000e+00
 outer loop
  vertex -3.050769e-01 1.874486e+00 1.828309e+00
  vertex 2.782564e-01 1.707819e+00 1.828309e+00
  vertex -1.622198e-01 1.457819e+00 1.828309e+00
 endloop
endfacet
facet normal 0.000000e+00 0.000000e+00 -1.000000e+00
 outer loop
  vertex 2.782564e-01 1.707819e+00 1.828309e+00
  vertex -3.050769e-01 1.874486e+00 1.828309e+00
  vertex -5.886480e-02 2.120698e+00 1.828309e+00
 endloop
endfacet
facet normal 0.000000e+00 -1.000000e+00 -0.000000e+00
 outer loop
  vertex -9.717436e-01 2.457819e+00 1.828309e+00
  vertex -1.138410e+00 2.457819e+00 1.244976e+00
  vertex -7.217436e-01 2.457819e+00 1.387833e+00
 endloop
endfacet
facet normal 0.000000e+00 -1.000000e+00 0.000000e+00
 outer loop
  vertex -1.138410e+00 2.457819e+00 1.244976e+00
  vertex -9.717436e-01 2.457819e+00 1.828309e+00
  vertex -1.346744e+00 2.457819e+00 1.512833e+00
 endloop
endfacet
facet normal 1.000000e+00 0.000000e+00 0.000000e+00
 outer loop
  vertex -1.721744e+00 1.207819e+00 1.828309e+00
  vertex -1.721744e+00 1.041153e+00 1.244976e+00
  vertex -1.721744e+00 1.457819e+00 1.387833e+00
 endloop
endfacet
facet normal 1.000000e+00 0.000000e+00 -0.000000e+00
 outer loop
  vertex -1.721744e+00 1.041153e+00 1.244976e+00
  vertex -1.721744e+00 1.207819e+00 1.828309e+00
  vertex -1.721744e+00 8.328195e-01 1.512833e+00
 endloop
endfacet
facet normal 0.000000e+00 0.000000e+00 -1.000000e+00
 outer loop
  vertex -3.050769e-01 1.041153e+00 1.828309e+00
  vertex -4.717436e-01 4.578195e-01 1.828309e+00
  vertex -7.217436e-01 8.982957e-01 1.828309e+00
 endloop
endfacet
facet normal 0.000000e+00 0.000000e+00 -1.000000e+00
 outer loop
  vertex -4.717436e-01 4.578195e-01 1.828309e+00
  vertex -3.050769e-01 1.041153e+00 1.828309e+00
  vertex -5.886480e-02 7.949407e-01 1.828309e+00
 endloop
endfacet
facet normal 0.000000e+00 1.000000e+00 0.000000e+00
 outer loop
  vertex -4.717436e-01 4.578195e-01 1.828309e+00
  vertex -3.467436e-01 4.578195e-01 1.423466e+00
  vertex -5.945896e-01 4.578195e-01 1.568660e+00
 endloop
endfacet
facet normal -1.000000e+00 -0.000000e+00 0.000000e+00
 outer loop
  vertex 2.782564e-01 2.457819e+00 5.783091e-01
  vertex 2.782564e-01 2.029443e+00 2.577293e-01
  vertex 2.782564e-01 2.007844e+00 9.249412e-01
 endloop
endfacet
facet normal 0.000000e+00 -0.000000e+00 -1.000000e+00
 outer loop
  vertex -4.717436e-01 2.457819e+00 1.828309e+00
  vertex -3.050769e-01 1.874486e+00 1.828309e+00
  vertex -7.217436e-01 2.017343e+00 1.828309e+00
 endloop
endfacet
facet normal 0.000000e+00 0.000000e+00 -1.000000e+00
 outer loop
  vertex -3.050769e-01 1.874486e+00 1.828309e+00
  vertex -4.717436e-01 2.457819e+00 1.828309e+00
  vertex -5.886480e-02 2.120698e+00 1.828309e+00
 endloop
endfacet
facet normal -0.000000e+00 -1.000000e+00 0.000000e+00
 outer loop
  vertex 2.782564e-01 2.457819e+00 1.578309e+00
  vertex 2.825642e-02 2.457819e+00 1.828309e+00
  vertex -5.886480e-02 2.457819e+00 1.491188e+00
 endloop
endfacet
facet normal 0.000000e+00 -1.000000e+00 0.000000e+00
 outer loop
  vertex -1.721744e+00 2.457819e+00 5.783091e-01
  vertex -1.138410e+00 2.457819e+00 4.116424e-01
  vertex -1.281267e+00 2.457819e+00 8.283091e-01
 endloop
endfacet
facet normal -0.000000e+00 -1.000000e+00 0.000000e+00
 outer loop
  vertex -1.138410e+00 2.457819e+00 4.116424e-01
  vertex -1.721744e+00 2.457819e+00 5.783091e-01
  vertex -1.406267e+00 2.457819e+00 2.033091e-01
 endloop
endfacet
facet normal 0.000000e+00 0.000000e+00 1.000000e+00
 outer loop
  vertex -1.651411e-01 2.010268e+00 -1.716909e-01
  vertex -4.717436e-01 2.457819e+00 -1.716909e-01
  vertex -5.814047e-01 2.053897e+00 -1.716909e-01
 endloop
endfacet
facet normal 0.000000e+00 1.000000e+00 0.000000e+00
 outer loop
  vertex -1.348557e+00 4.578195e-01 2.676932e-01
  vertex -1.721744e+00 4.578195e-01 5.783091e-01
  vertex -1.370186e+00 4.578195e-01 9.533091e-01
 endloop
endfacet
facet normal 0.000000e+00 0.000000e+00 -1.000000e+00
 outer loop
  vertex -1.721744e+00 1.707819e+00 1.828309e+00
  vertex -1.138410e+00 1.874486e+00 1.828309e+00
  vertex -1.281267e+00 1.457819e+00 1.828309e+00
 endloop
endfacet
facet normal -0.000000e+00 0.000000e+00 -1.000000e+00
 outer loop
  vertex -1.138410e+00 1.874486e+00 1.828309e+00
  vertex -1.721744e+00 1.707819e+00 1.828309e+00
  vertex -1.384622e+00 2.120698e+00 1.828309e+00
 endloop
endfacet
facet normal 0.000000e+00 1.000000e+00 0.000000e+00
 outer loop
  vertex -1.266048e+00 4.578195e-01 1.372613e+00
  vertex -9.717436e-01 4.578195e-01 1.828309e+00
  vertex -8.324343e-01 4.578195e-01 1.407604e+00
 endloop
endfacet
facet normal 0.000000e+00 0.000000e+00 -1.000000e+00
 outer loop
  vertex -9.717436e-01 4.578195e-01 1.828309e+00
  vertex -1.138410e+00 1.041153e+00 1.828309e+00
  vertex -7.217436e-01 8.982957e-01 1.828309e+00
 endloop
endfacet
facet normal 0.000000e+00 -0.000000e+00 -1.000000e+00
 outer loop
  vertex -1.138410e+00 1.041153e+00 1.828309e+00
  vertex -9.717436e-01 4.578195e-01 1.828309e+00
  vertex -1.384622e+00 7.949407e-01 1.828309e+00
 endloop
endfacet
facet normal -1.000000e+00 0.000000e+00 -0.000000e+00
 outer loop
  vertex 2.782564e-01 2.014636e+00 1.385126e+00
  vertex 2.782564e-01 2.457819e+00 1.078309e+00
  vertex 2.782564e-01 2.007844e+00 9.249412e-01
 endloop
endfacet
facet normal 0.000000e+00 0.000000e+00 -1.000000e+00
 outer loop
  vertex -7.217436e-01 1.457819e+00 1.828309e+00
  vertex -1.138410e+00 1.874486e+00 1.828309e+00
  vertex -7.217436e-01 2.017343e+00 1.828309e+00
 endloop
endfacet
facet normal 0.000000e+00 -0.000000e+00 -1.000000e+00
 outer loop
  vertex -1.138410e+00 1.874486e+00 1.828309e+00
  vertex -7.217436e-01 1.457819e+00 1.828309e+00
  vertex -1.281267e+00 1.457819e+00 1.828309e+00
 endloop
endfacet
facet normal 0.000000e+00 -0.000000e+00 -1.000000e+00
 outer loop
  vertex -7.217436e-01 1.457819e+00 1.828309e+00
  vertex -7.217436e-01 8.982957e-01 1.828309e+00
  vertex -1.138410e+00 1.041153e+00 1.828309e+00
 endloop
endfacet
facet normal -0.000000e+00 0.000000e+00 -1.000000e+00
 outer loop
  vertex -7.217436e-01 1.457819e+00 1.828309e+00
  vertex -1.138410e+00 1.041153e+00 1.828309e+00
  vertex -1.281267e+00 1.457819e+00 1.828309e+00
 endloop
endfacet
facet normal 0.000000e+00 0.000000e+00 -1.000000e+00
 outer loop
  vertex -7.217436e-01 1.457819e+00 1.828309e+00
  vertex -3.050769e-01 1.874486e+00 1.828309e+00
  vertex -1.622198e-01 1.457819e+00 1.828309e+00
 endloop
endfacet
facet normal -0.000000e+00 0.000000e+00 -1.000000e+00
 outer loop
  vertex -3.050769e-01 1.874486e+00 1.828309e+00
  vertex -7.217436e-01 1.457819e+00 1.828309e+00
  vertex -7.217436e-01 2.017343e+00 1.828309e+00
 endloop
endfacet
facet normal 0.000000e+00 0.000000e+00 -1.000000e+00
 outer loop
  vertex -7.217436e-01 1.457819e+00 1.828309e+00
  vertex -3.050769e-01 1.041153e+00 1.828309e+00
  vertex -7.217436e-01 8.982957e-01 1.828309e+00
 endloop
endfacet
facet normal 0.000000e+00 0.000000e+00 -1.000000e+00
 outer loop
  vertex -3.050769e-01 1.041153e+00 1.828309e+00
  vertex -7.217436e-01 1.457819e+00 1.828309e+00
  vertex -1.622198e-01 1.457819e+00 1.828309e+00
 endloop
endfacet
facet normal 1.000000e+00 0.000000e+00 0.000000e+00
 outer loop
  vertex -1.721744e+00 1.457819e+00 8.283091e-01
  vertex -1.721744e+00 1.041153e+00 4.116424e-01
  vertex -1.721744e+00 1.457819e+00 2.687852e-01
 endloop
endfacet
facet normal 1.000000e+00 0.000000e+00 0.000000e+00
 outer loop
  vertex -1.721744e+00 1.457819e+00 8.283091e-01
  vertex -1.721744e+00 8.982957e-01 8.283091e-01
  vertex -1.721744e+00 1.041153e+00 4.116424e-01
 endloop
endfacet
facet normal 1.000000e+00 0.000000e+00 0.000000e+00
 outer loop
  vertex -1.721744e+00 1.874486e+00 4.116424e-01
  vertex -1.721744e+00 1.457819e+00 8.283091e-01
  vertex -1.721744e+00 1.457819e+00 2.687852e-01
 endloop
endfacet
facet normal 1.000000e+00 0.000000e+00 0.000000e+00
 outer loop
  vertex -1.721744e+00 1.457819e+00 8.283091e-01
  vertex -1.721744e+00 1.874486e+00 4.116424e-01
  vertex -1.721744e+00 2.017343e+00 8.283091e-01
 endloop
endfacet
facet normal 1.000000e+00 0.000000e+00 0.000000e+00
 outer loop
  vertex -1.721744e+00 1.457819e+00 8.283091e-01
  vertex -1.721744e+00 1.874486e+00 1.244976e+00
  vertex -1.721744e+00 1.457819e+00 1.387833e+00
 endloop
endfacet
facet normal 1.000000e+00 0.000000e+00 0.000000e+00
 outer loop
  vertex -1.721744e+00 1.874486e+00 1.244976e+00
  vertex -1.721744e+00 1.457819e+00 8.283091e-01
  vertex -1.721744e+00 2.017343e+00 8.283091e-01
 endloop
endfacet
facet normal 1.000000e+00 0.000000e+00 0.000000e+00
 outer loop
  vertex -1.721744e+00 1.457819e+00 8.283091e-01
  vertex -1.721744e+00 1.041153e+00 1.244976e+00
  vertex -1.721744e+00 8.982957e-01 8.283091e-01
 endloop
endfacet
facet normal 1.000000e+00 -0.000000e+00 0.000000e+00
 outer loop
  vertex -1.721744e+00 1.041153e+00 1.244976e+00
  vertex -1.721744e+00 1.457819e+00 8.283091e-01
  vertex -1.721744e+00 1.457819e+00 1.387833e+00
 endloop
endfacet
facet normal 1.000000e+00 0.000000e+00 0.000000e+00
 outer loop
  vertex -1.721744e+00 1.457819e+00 2.687852e-01
  vertex -1.721744e+00 1.041153e+00 4.116424e-01
  vertex -1.721744e+00 1.082819e+00 1.080710e-01
 endloop
endfacet
facet normal 1.000000e+00 0.000000e+00 0.000000e+00
 outer loop
  vertex -1.721744e+00 1.041153e+00 4.116424e-01
  vertex -1.721744e+00 8.982957e-01 8.283091e-01
  vertex -1.721744e+00 7.651616e-01 5.498400e-01
 endloop
endfacet
facet normal 1.000000e+00 0.000000e+00 0.000000e+00
 outer loop
  vertex -1.721744e+00 1.082819e+00 1.080710e-01
  vertex -1.721744e+00 1.041153e+00 4.116424e-01
  vertex -1.721744e+00 7.651616e-01 5.498400e-01
 endloop
endfacet
facet normal 0.000000e+00 -1.000000e+00 -0.000000e+00
 outer loop
  vertex -3.050769e-01 2.457819e+00 1.244976e+00
  vertex -7.217436e-01 2.457819e+00 8.283091e-01
  vertex -1.622198e-01 2.457819e+00 8.283091e-01
 endloop
endfacet
facet normal 0.000000e+00 -1.000000e+00 0.000000e+00
 outer loop
  vertex -7.217436e-01 2.457819e+00 8.283091e-01
  vertex -3.050769e-01 2.457819e+00 1.244976e+00
  vertex -7.217436e-01 2.457819e+00 1.387833e+00
 endloop
endfacet
facet normal 0.000000e+00 -1.000000e+00 0.000000e+00
 outer loop
  vertex -7.217436e-01 2.457819e+00 8.283091e-01
  vertex -3.050769e-01 2.457819e+00 4.116424e-01
  vertex -1.622198e-01 2.457819e+00 8.283091e-01
 endloop
endfacet
facet normal -0.000000e+00 -1.000000e+00 0.000000e+00
 outer loop
  vertex -3.050769e-01 2.457819e+00 4.116424e-01
  vertex -7.217436e-01 2.457819e+00 8.283091e-01
  vertex -7.217436e-01 2.457819e+00 2.687852e-01
 endloop
endfacet
facet normal 0.000000e+00 -1.000000e+00 0.000000e+00
 outer loop
  vertex -1.138410e+00 2.457819e+00 4.116424e-01
  vertex -7.217436e-01 2.457819e+00 8.283091e-01
  vertex -1.281267e+00 2.457819e+00 8.283091e-01
 endloop
endfacet
facet normal 0.000000e+00 -1.000000e+00 -0.000000e+00
 outer loop
  vertex -7.217436e-01 2.457819e+00 8.283091e-01
  vertex -1.138410e+00 2.457819e+00 4.116424e-01
  vertex -7.217436e-01 2.457819e+00 2.687852e-01
 endloop
endfacet
facet normal 0.000000e+00 -1.000000e+00 0.000000e+00
 outer loop
  vertex -7.217436e-01 2.457819e+00 8.283091e-01
  vertex -1.138410e+00 2.457819e+00 1.244976e+00
  vertex -1.281267e+00 2.457819e+00 8.283091e-01
 endloop
endfacet
facet normal 0.000000e+00 -1.000000e+00 0.000000e+00
 outer loop
  vertex -1.138410e+00 2.457819e+00 1.244976e+00
  vertex -7.217436e-01 2.457819e+00 8.283091e-01
  vertex -7.217436e-01 2.457819e+00 1.387833e+00
 endloop
endfacet
facet normal 0.000000e+00 -1.000000e+00 0.000000e+00
 outer loop
  vertex -3.050769e-01 2.457819e+00 1.244976e+00
  vertex -1.622198e-01 2.457819e+00 8.283091e-01
  vertex -2.908575e-02 2.457819e+00 1.106778e+00
 endloop
endfacet
facet normal 0.000000e+00 -1.000000e+00 0.000000e+00
 outer loop
  vertex -7.217436e-01 2.457819e+00 1.387833e+00
  vertex -3.050769e-01 2.457819e+00 1.244976e+00
  vertex -4.432745e-01 2.457819e+00 1.520967e+00
 endloop
endfacet
facet normal 0.000000e+00 -1.000000e+00 0.000000e+00
 outer loop
  vertex -4.432745e-01 2.457819e+00 1.520967e+00
  vertex -3.050769e-01 2.457819e+00 1.244976e+00
  vertex -5.886480e-02 2.457819e+00 1.491188e+00
 endloop
endfacet
facet normal 0.000000e+00 -1.000000e+00 0.000000e+00
 outer loop
  vertex -3.050769e-01 2.457819e+00 1.244976e+00
  vertex -2.908575e-02 2.457819e+00 1.106778e+00
  vertex -5.886480e-02 2.457819e+00 1.491188e+00
 endloop
endfacet
facet normal 1.000000e+00 0.000000e+00 0.000000e+00
 outer loop
  vertex -1.721744e+00 2.017343e+00 8.283091e-01
  vertex -1.721744e+00 1.874486e+00 4.116424e-01
  vertex -1.721744e+00 2.150477e+00 5.498400e-01
 endloop
endfacet
facet normal 1.000000e+00 0.000000e+00 0.000000e+00
 outer loop
  vertex -1.721744e+00 2.150477e+00 5.498400e-01
  vertex -1.721744e+00 1.874486e+00 4.116424e-01
  vertex -1.721744e+00 2.082819e+00 1.437852e-01
 endloop
endfacet
facet normal -0.000000e+00 0.000000e+00 1.000000e+00
 outer loop
  vertex -8.402179e-01 1.724967e+00 -1.716909e-01
  vertex -2.804422e-01 1.574135e+00 -1.716909e-01
  vertex -5.814047e-01 2.053897e+00 -1.716909e-01
 endloop
endfacet
facet normal 0.000000e+00 -0.000000e+00 1.000000e+00
 outer loop
  vertex -1.232473e+00 1.431328e+00 -1.716909e-01
  vertex -8.402179e-01 1.724967e+00 -1.716909e-01
  vertex -1.402092e+00 1.702320e+00 -1.716909e-01
 endloop
endfacet
facet normal 0.000000e+00 0.000000e+00 1.000000e+00
 outer loop
  vertex -8.402179e-01 1.724967e+00 -1.716909e-01
  vertex -1.244276e+00 1.980351e+00 -1.716909e-01
  vertex -1.402092e+00 1.702320e+00 -1.716909e-01
 endloop
endfacet
facet normal -0.000000e+00 0.000000e+00 1.000000e+00
 outer loop
  vertex -1.244276e+00 1.980351e+00 -1.716909e-01
  vertex -8.402179e-01 1.724967e+00 -1.716909e-01
  vertex -5.814047e-01 2.053897e+00 -1.716909e-01
 endloop
endfacet
facet normal 0.000000e+00 -1.000000e+00 -0.000000e+00
 outer loop
  vertex -1.622198e-01 2.457819e+00 8.283091e-01
  vertex -3.050769e-01 2.457819e+00 4.116424e-01
  vertex -2.908575e-02 2.457819e+00 5.498400e-01
 endloop
endfacet
facet normal 0.000000e+00 -1.000000e+00 0.000000e+00
 outer loop
  vertex -3.050769e-01 2.457819e+00 4.116424e-01
  vertex -7.217436e-01 2.457819e+00 2.687852e-01
  vertex -4.432745e-01 2.457819e+00 1.356512e-01
 endloop
endfacet
facet normal 0.000000e+00 -1.000000e+00 0.000000e+00
 outer loop
  vertex -2.908575e-02 2.457819e+00 5.498400e-01
  vertex -3.050769e-01 2.457819e+00 4.116424e-01
  vertex -5.886480e-02 2.457819e+00 1.654303e-01
 endloop
endfacet
facet normal 0.000000e+00 -1.000000e+00 -0.000000e+00
 outer loop
  vertex -3.050769e-01 2.457819e+00 4.116424e-01
  vertex -4.432745e-01 2.457819e+00 1.356512e-01
  vertex -5.886480e-02 2.457819e+00 1.654303e-01
 endloop
endfacet
facet normal 0.000000e+00 -0.000000e+00 1.000000e+00
 outer loop
  vertex -2.804422e-01 1.574135e+00 -1.716909e-01
  vertex -1.651411e-01 2.010268e+00 -1.716909e-01
  vertex -5.814047e-01 2.053897e+00 -1.716909e-01
 endloop
endfacet
facet normal -1.000000e+00 0.000000e+00 0.000000e+00
 outer loop
  vertex 2.782564e-01 2.029443e+00 2.577293e-01
  vertex 2.782564e-01 1.721981e+00 5.642494e-01
  vertex 2.782564e-01 2.007844e+00 9.249412e-01
 endloop
endfacet
facet normal -1.000000e+00 0.000000e+00 -0.000000e+00
 outer loop
  vertex 2.782564e-01 1.721981e+00 5.642494e-01
  vertex 2.782564e-01 2.029443e+00 2.577293e-01
  vertex 2.782564e-01 1.407041e+00 2.676932e-01
 endloop
endfacet
facet normal -1.000000e+00 0.000000e+00 0.000000e+00
 outer loop
  vertex 2.782564e-01 1.721981e+00 5.642494e-01
  vertex 2.782564e-01 1.399937e+00 8.325337e-01
  vertex 2.782564e-01 2.007844e+00 9.249412e-01
 endloop
endfacet
facet normal -1.000000e+00 0.000000e+00 0.000000e+00
 outer loop
  vertex 2.782564e-01 1.399937e+00 8.325337e-01
  vertex 2.782564e-01 1.721981e+00 5.642494e-01
  vertex 2.782564e-01 1.407041e+00 2.676932e-01
 endloop
endfacet
facet normal -0.000000e+00 0.000000e+00 -1.000000e+00
 outer loop
  vertex -7.217436e-01 2.017343e+00 1.828309e+00
  vertex -1.138410e+00 1.874486e+00 1.828309e+00
  vertex -1.000213e+00 2.150477e+00 1.828309e+00
 endloop
endfacet
facet normal 0.000000e+00 0.000000e+00 -1.000000e+00
 outer loop
  vertex -1.000213e+00 2.150477e+00 1.828309e+00
  vertex -1.138410e+00 1.874486e+00 1.828309e+00
  vertex -1.384622e+00 2.120698e+00 1.828309e+00
 endloop
endfacet
facet normal 0.000000e+00 -0.000000e+00 -1.000000e+00
 outer loop
  vertex -1.281267e+00 1.457819e+00 1.828309e+00
  vertex -1.138410e+00 1.041153e+00 1.828309e+00
  vertex -1.414401e+00 1.179350e+00 1.828309e+00
 endloop
endfacet
facet normal -0.000000e+00 0.000000e+00 -1.000000e+00
 outer loop
  vertex -1.138410e+00 1.041153e+00 1.828309e+00
  vertex -1.384622e+00 7.949407e-01 1.828309e+00
  vertex -1.414401e+00 1.179350e+00 1.828309e+00
 endloop
endfacet
facet normal 0.000000e+00 0.000000e+00 -1.000000e+00
 outer loop
  vertex -3.050769e-01 1.041153e+00 1.828309e+00
  vertex -1.622198e-01 1.457819e+00 1.828309e+00
  vertex -2.908575e-02 1.179350e+00 1.828309e+00
 endloop
endfacet
facet normal 0.000000e+00 0.000000e+00 -1.000000e+00
 outer loop
  vertex -3.050769e-01 1.041153e+00 1.828309e+00
  vertex -2.908575e-02 1.179350e+00 1.828309e+00
  vertex -5.886480e-02 7.949407e-01 1.828309e+00
 endloop
endfacet
facet normal -0.000000e+00 -1.000000e+00 0.000000e+00
 outer loop
  vertex -7.217436e-01 2.457819e+00 2.687852e-01
  vertex -1.138410e+00 2.457819e+00 4.116424e-01
  vertex -1.000213e+00 2.457819e+00 1.356512e-01
 endloop
endfacet
facet normal 0.000000e+00 -1.000000e+00 -0.000000e+00
 outer loop
  vertex -1.138410e+00 2.457819e+00 4.116424e-01
  vertex -1.406267e+00 2.457819e+00 2.033091e-01
  vertex -1.000213e+00 2.457819e+00 1.356512e-01
 endloop
endfacet
facet normal 0.000000e+00 -1.000000e+00 0.000000e+00
 outer loop
  vertex -1.281267e+00 2.457819e+00 8.283091e-01
  vertex -1.138410e+00 2.457819e+00 1.244976e+00
  vertex -1.414401e+00 2.457819e+00 1.106778e+00
 endloop
endfacet
facet normal 0.000000e+00 -1.000000e+00 0.000000e+00
 outer loop
  vertex -1.414401e+00 2.457819e+00 1.106778e+00
  vertex -1.138410e+00 2.457819e+00 1.244976e+00
  vertex -1.346744e+00 2.457819e+00 1.512833e+00
 endloop
endfacet
facet normal 1.000000e+00 -0.000000e+00 0.000000e+00
 outer loop
  vertex -1.721744e+00 1.457819e+00 1.387833e+00
  vertex -1.721744e+00 1.874486e+00 1.244976e+00
  vertex -1.721744e+00 1.736289e+00 1.520967e+00
 endloop
endfacet
facet normal 1.000000e+00 0.000000e+00 -0.000000e+00
 outer loop
  vertex -1.721744e+00 1.874486e+00 1.244976e+00
  vertex -1.721744e+00 2.120698e+00 1.491188e+00
  vertex -1.721744e+00 1.736289e+00 1.520967e+00
 endloop
endfacet
facet normal 0.000000e+00 1.000000e+00 0.000000e+00
 outer loop
  vertex -3.467436e-01 4.578195e-01 1.423466e+00
  vertex -8.324343e-01 4.578195e-01 1.407604e+00
  vertex -5.945896e-01 4.578195e-01 1.568660e+00
 endloop
endfacet
facet normal -1.000000e+00 0.000000e+00 0.000000e+00
 outer loop
  vertex 2.782564e-01 1.610245e+00 1.195107e+00
  vertex 2.782564e-01 2.014636e+00 1.385126e+00
  vertex 2.782564e-01 2.007844e+00 9.249412e-01
 endloop
endfacet
facet normal -1.000000e+00 -0.000000e+00 0.000000e+00
 outer loop
  vertex 2.782564e-01 2.014636e+00 1.385126e+00
  vertex 2.782564e-01 1.610245e+00 1.195107e+00
  vertex 2.782564e-01 1.712164e+00 1.503520e+00
 endloop
endfacet
facet normal -1.000000e+00 0.000000e+00 0.000000e+00
 outer loop
  vertex 2.782564e-01 1.399937e+00 8.325337e-01
  vertex 2.782564e-01 1.610245e+00 1.195107e+00
  vertex 2.782564e-01 2.007844e+00 9.249412e-01
 endloop
endfacet
facet normal -1.000000e+00 -0.000000e+00 0.000000e+00
 outer loop
  vertex 2.782564e-01 1.610245e+00 1.195107e+00
  vertex 2.782564e-01 1.399937e+00 8.325337e-01
  vertex 2.782564e-01 1.285389e+00 1.433128e+00
 endloop
endfacet
facet normal -1.000000e+00 0.000000e+00 0.000000e+00
 outer loop
  vertex 2.782564e-01 1.712164e+00 1.503520e+00
  vertex 2.782564e-01 1.610245e+00 1.195107e+00
  vertex 2.782564e-01 1.285389e+00 1.433128e+00
 endloop
endfacet
endsolid 
