solid 
facet normal 1.000000e+00 -0.000000e+00 0.000000e+00
 outer loop
  vertex -1.000000e+00 -1.000000e+00 4.200000e-01
  vertex -1.000000e+00 -1.000000e+00 0.000000e+00
  vertex -1.000000e+00 -5.000000e-01 4.200000e-01
 endloop
endfacet
facet normal 0.000000e+00 1.000000e+00 0.000000e+00
 outer loop
  vertex -1.000000e+00 -1.000000e+00 0.000000e+00
  vertex -1.000000e+00 -1.000000e+00 4.200000e-01
  vertex -7.500000e-01 -1.000000e+00 4.200000e-01
 endloop
endfacet
facet normal 1.000000e+00 0.000000e+00 0.000000e+00
 outer loop
  vertex -1.000000e+00 -5.000000e-01 4.200000e-01
  vertex -1.000000e+00 -1.000000e+00 0.000000e+00
  vertex -1.000000e+00 -5.000000e-01 0.000000e+00
 endloop
endfacet
facet normal 0.000000e+00 0.000000e+00 1.000000e+00
 outer loop
  vertex -1.000000e+00 -1.000000e+00 0.000000e+00
  vertex -7.276786e-01 -7.276786e-01 0.000000e+00
  vertex -1.000000e+00 -5.000000e-01 0.000000e+00
 endloop
endfacet
facet normal 0.000000e+00 0.000000e+00 1.000000e+00
 outer loop
  vertex -7.276786e-01 -7.276786e-01 0.000000e+00
  vertex -1.000000e+00 -1.000000e+00 0.000000e+00
  vertex -7.500000e-01 -1.000000e+00 0.000000e+00
 endloop
endfacet
facet normal 0.000000e+00 1.000000e+00 0.000000e+00
 outer loop
  vertex -1.000000e+00 -1.000000e+00 0.000000e+00
  vertex -7.500000e-01 -1.000000e+00 4.200000e-01
  vertex -7.500000e-01 -1.000000e+00 0.000000e+00
 endloop
endfacet
facet normal -1.000000e+00 -0.000000e+00 0.000000e+00
 outer loop
  vertex 1.000000e+00 -5.000000e-01 4.200000e-01
  vertex 1.000000e+00 -1.000000e+00 0.000000e+00
  vertex 1.000000e+00 -1.000000e+00 4.200000e-01
 endloop
endfacet
facet normal 0.000000e+00 1.000000e+00 -0.000000e+00
 outer loop
  vertex 1.000000e+00 -1.000000e+00 0.000000e+00
  vertex 5.000000e-01 -1.000000e+00 4.200000e-01
  vertex 1.000000e+00 -1.000000e+00 4.200000e-01
 endloop
endfacet
facet normal -1.000000e+00 0.000000e+00 0.000000e+00
 outer loop
  vertex 1.000000e+00 -1.000000e+00 0.000000e+00
  vertex 1.000000e+00 -5.000000e-01 4.200000e-01
  vertex 1.000000e+00 -5.000000e-01 0.000000e+00
 endloop
endfacet
facet normal 0.000000e+00 -0.000000e+00 1.000000e+00
 outer loop
  vertex 1.000000e+00 -1.000000e+00 0.000000e+00
  vertex 1.000000e+00 -5.000000e-01 0.000000e+00
  vertex 6.250000e-01 -6.250000e-01 0.000000e+00
 endloop
endfacet
facet normal 0.000000e+00 1.000000e+00 0.000000e+00
 outer loop
  vertex 5.000000e-01 -1.000000e+00 4.200000e-01
  vertex 1.000000e+00 -1.000000e+00 0.000000e+00
  vertex 5.000000e-01 -1.000000e+00 0.000000e+00
 endloop
endfacet
facet normal 0.000000e+00 0.000000e+00 1.000000e+00
 outer loop
  vertex 1.000000e+00 -1.000000e+00 0.000000e+00
  vertex 6.250000e-01 -6.250000e-01 0.000000e+00
  vertex 5.000000e-01 -1.000000e+00 0.000000e+00
 endloop
endfacet
facet normal 1.000000e+00 -0.000000e+00 0.000000e+00
 outer loop
  vertex -1.000000e+00 5.000000e-01 4.200000e-01
  vertex -1.000000e+00 1.000000e+00 0.000000e+00
  vertex -1.000000e+00 1.000000e+00 4.200000e-01
 endloop
endfacet
facet normal 0.000000e+00 -1.000000e+00 0.000000e+00
 outer loop
  vertex -1.000000e+00 1.000000e+00 0.000000e+00
  vertex -5.000000e-01 1.000000e+00 4.200000e-01
  vertex -1.000000e+00 1.000000e+00 4.200000e-01
 endloop
endfacet
facet normal 1.000000e+00 0.000000e+00 0.000000e+00
 outer loop
  vertex -1.000000e+00 1.000000e+00 0.000000e+00
  vertex -1.000000e+00 5.000000e-01 4.200000e-01
  vertex -1.000000e+00 5.000000e-01 0.000000e+00
 endloop
endfacet
facet normal 0.000000e+00 0.000000e+00 1.000000e+00
 outer loop
  vertex -1.000000e+00 1.000000e+00 0.000000e+00
  vertex -1.000000e+00 5.000000e-01 0.000000e+00
  vertex -6.375000e-01 6.375000e-01 0.000000e+00
 endloop
endfacet
facet normal 0.000000e+00 -1.000000e+00 -0.000000e+00
 outer loop
  vertex -5.000000e-01 1.000000e+00 4.200000e-01
  vertex -1.000000e+00 1.000000e+00 0.000000e+00
  vertex -5.000000e-01 1.000000e+00 0.000000e+00
 endloop
endfacet
facet normal -0.000000e+00 0.000000e+00 1.000000e+00
 outer loop
  vertex -1.000000e+00 1.000000e+00 0.000000e+00
  vertex -6.375000e-01 6.375000e-01 0.000000e+00
  vertex -5.000000e-01 1.000000e+00 0.000000e+00
 endloop
endfacet
facet normal 0.000000e+00 -1.000000e+00 0.000000e+00
 outer loop
  vertex 5.000000e-01 1.000000e+00 4.200000e-01
  vertex 1.000000e+00 1.000000e+00 0.000000e+00
  vertex 1.000000e+00 1.000000e+00 4.200000e-01
 endloop
endfacet
facet normal -1.000000e+00 0.000000e+00 0.000000e+00
 outer loop
  vertex 1.000000e+00 1.000000e+00 0.000000e+00
  vertex 1.000000e+00 5.000000e-01 4.200000e-01
  vertex 1.000000e+00 1.000000e+00 4.200000e-01
 endloop
endfacet
facet normal 0.000000e+00 -1.000000e+00 0.000000e+00
 outer loop
  vertex 1.000000e+00 1.000000e+00 0.000000e+00
  vertex 5.000000e-01 1.000000e+00 4.200000e-01
  vertex 5.000000e-01 1.000000e+00 0.000000e+00
 endloop
endfacet
facet normal 0.000000e+00 0.000000e+00 1.000000e+00
 outer loop
  vertex 1.000000e+00 1.000000e+00 0.000000e+00
  vertex 5.000000e-01 1.000000e+00 0.000000e+00
  vertex 6.875000e-01 6.875000e-01 0.000000e+00
 endloop
endfacet
facet normal -1.000000e+00 0.000000e+00 0.000000e+00
 outer loop
  vertex 1.000000e+00 5.000000e-01 4.200000e-01
  vertex 1.000000e+00 1.000000e+00 0.000000e+00
  vertex 1.000000e+00 5.000000e-01 0.000000e+00
 endloop
endfacet
facet normal 0.000000e+00 0.000000e+00 1.000000e+00
 outer loop
  vertex 1.000000e+00 1.000000e+00 0.000000e+00
  vertex 6.875000e-01 6.875000e-01 0.000000e+00
  vertex 1.000000e+00 5.000000e-01 0.000000e+00
 endloop
endfacet
facet normal 0.000000e+00 0.000000e+00 -1.000000e+00
 outer loop
  vertex -1.000000e+00 -1.000000e+00 4.200000e-01
  vertex -1.000000e+00 -5.000000e-01 4.200000e-01
  vertex -7.221841e-01 -7.221841e-01 4.200000e-01
 endloop
endfacet
facet normal 0.000000e+00 0.000000e+00 -1.000000e+00
 outer loop
  vertex -1.000000e+00 -1.000000e+00 4.200000e-01
  vertex -7.221841e-01 -7.221841e-01 4.200000e-01
  vertex -7.500000e-01 -1.000000e+00 4.200000e-01
 endloop
endfacet
facet normal 0.000000e+00 -0.000000e+00 -1.000000e+00
 outer loop
  vertex 1.000000e+00 -5.000000e-01 4.200000e-01
  vertex 1.000000e+00 -1.000000e+00 4.200000e-01
  vertex 5.839800e-01 -5.839800e-01 4.200000e-01
 endloop
endfacet
facet normal 0.000000e+00 0.000000e+00 -1.000000e+00
 outer loop
  vertex 1.000000e+00 -1.000000e+00 4.200000e-01
  vertex 5.000000e-01 -1.000000e+00 4.200000e-01
  vertex 5.839800e-01 -5.839800e-01 4.200000e-01
 endloop
endfacet
facet normal 0.000000e+00 0.000000e+00 -1.000000e+00
 outer loop
  vertex -1.000000e+00 5.000000e-01 4.200000e-01
  vertex -1.000000e+00 1.000000e+00 4.200000e-01
  vertex -5.625000e-01 5.625000e-01 4.200000e-01
 endloop
endfacet
facet normal 0.000000e+00 0.000000e+00 -1.000000e+00
 outer loop
  vertex -1.000000e+00 1.000000e+00 4.200000e-01
  vertex -5.000000e-01 1.000000e+00 4.200000e-01
  vertex -5.625000e-01 5.625000e-01 4.200000e-01
 endloop
endfacet
facet normal 0.000000e+00 0.000000e+00 -1.000000e+00
 outer loop
  vertex 5.000000e-01 1.000000e+00 4.200000e-01
  vertex 1.000000e+00 1.000000e+00 4.200000e-01
  vertex 1.000000e+00 5.000000e-01 4.200000e-01
 endloop
endfacet
facet normal 0.000000e+00 1.000000e+00 0.000000e+00
 outer loop
  vertex 0.000000e+00 -1.000000e+00 0.000000e+00
  vertex 0.000000e+00 -1.000000e+00 4.200000e-01
  vertex 2.500000e-01 -1.000000e+00 0.000000e+00
 endloop
endfacet
facet normal 0.000000e+00 1.000000e+00 0.000000e+00
 outer loop
  vertex 0.000000e+00 -1.000000e+00 4.200000e-01
  vertex 0.000000e+00 -1.000000e+00 0.000000e+00
  vertex -1.250000e-01 -1.000000e+00 2.100000e-01
 endloop
endfacet
facet normal 0.000000e+00 0.000000e+00 1.000000e+00
 outer loop
  vertex -2.500000e-01 -1.000000e+00 0.000000e+00
  vertex 0.000000e+00 -1.000000e+00 0.000000e+00
  vertex -1.120906e-01 -7.532587e-01 0.000000e+00
 endloop
endfacet
facet normal 0.000000e+00 1.000000e+00 0.000000e+00
 outer loop
  vertex 0.000000e+00 -1.000000e+00 0.000000e+00
  vertex -2.500000e-01 -1.000000e+00 0.000000e+00
  vertex -1.250000e-01 -1.000000e+00 2.100000e-01
 endloop
endfacet
facet normal 0.000000e+00 0.000000e+00 1.000000e+00
 outer loop
  vertex -1.120906e-01 -7.532587e-01 0.000000e+00
  vertex 0.000000e+00 -1.000000e+00 0.000000e+00
  vertex 1.316752e-01 -7.845876e-01 0.000000e+00
 endloop
endfacet
facet normal 0.000000e+00 0.000000e+00 1.000000e+00
 outer loop
  vertex 0.000000e+00 -1.000000e+00 0.000000e+00
  vertex 2.500000e-01 -1.000000e+00 0.000000e+00
  vertex 1.316752e-01 -7.845876e-01 0.000000e+00
 endloop
endfacet
facet normal 0.000000e+00 -1.000000e+00 0.000000e+00
 outer loop
  vertex -2.500000e-01 1.000000e+00 4.200000e-01
  vertex 0.000000e+00 1.000000e+00 0.000000e+00
  vertex 0.000000e+00 1.000000e+00 4.200000e-01
 endloop
endfacet
facet normal 0.000000e+00 -1.000000e+00 0.000000e+00
 outer loop
  vertex 0.000000e+00 1.000000e+00 0.000000e+00
  vertex 2.500000e-01 1.000000e+00 4.200000e-01
  vertex 0.000000e+00 1.000000e+00 4.200000e-01
 endloop
endfacet
facet normal 0.000000e+00 0.000000e+00 1.000000e+00
 outer loop
  vertex 0.000000e+00 1.000000e+00 0.000000e+00
  vertex -2.500000e-01 1.000000e+00 0.000000e+00
  vertex -1.250000e-01 8.188232e-01 0.000000e+00
 endloop
endfacet
facet normal 0.000000e+00 -1.000000e+00 0.000000e+00
 outer loop
  vertex 0.000000e+00 1.000000e+00 0.000000e+00
  vertex -2.500000e-01 1.000000e+00 4.200000e-01
  vertex -2.500000e-01 1.000000e+00 0.000000e+00
 endloop
endfacet
facet normal -0.000000e+00 0.000000e+00 1.000000e+00
 outer loop
  vertex 0.000000e+00 1.000000e+00 0.000000e+00
  vertex 1.250000e-01 8.281038e-01 0.000000e+00
  vertex 2.500000e-01 1.000000e+00 0.000000e+00
 endloop
endfacet
facet normal 0.000000e+00 -1.000000e+00 -0.000000e+00
 outer loop
  vertex 2.500000e-01 1.000000e+00 4.200000e-01
  vertex 0.000000e+00 1.000000e+00 0.000000e+00
  vertex 2.500000e-01 1.000000e+00 0.000000e+00
 endloop
endfacet
facet normal 0.000000e+00 0.000000e+00 1.000000e+00
 outer loop
  vertex 0.000000e+00 1.000000e+00 0.000000e+00
  vertex -1.250000e-01 8.188232e-01 0.000000e+00
  vertex 1.250000e-01 8.281038e-01 0.000000e+00
 endloop
endfacet
facet normal -0.000000e+00 -0.000000e+00 -1.000000e+00
 outer loop
  vertex 0.000000e+00 1.000000e+00 4.200000e-01
  vertex 5.701865e-02 5.643271e-01 4.200000e-01
  vertex -2.500000e-01 1.000000e+00 4.200000e-01
 endloop
endfacet
facet normal 0.000000e+00 0.000000e+00 -1.000000e+00
 outer loop
  vertex 5.701865e-02 5.643271e-01 4.200000e-01
  vertex 0.000000e+00 1.000000e+00 4.200000e-01
  vertex 2.500000e-01 1.000000e+00 4.200000e-01
 endloop
endfacet
facet normal -0.000000e+00 1.000000e+00 0.000000e+00
 outer loop
  vertex 0.000000e+00 -1.000000e+00 4.200000e-01
  vertex 5.000000e-01 -1.000000e+00 4.200000e-01
  vertex 2.500000e-01 -1.000000e+00 0.000000e+00
 endloop
endfacet
facet normal 0.000000e+00 0.000000e+00 -1.000000e+00
 outer loop
  vertex 5.000000e-01 -1.000000e+00 4.200000e-01
  vertex 0.000000e+00 -1.000000e+00 4.200000e-01
  vertex 2.093445e-01 -6.759779e-01 4.200000e-01
 endloop
endfacet
facet normal 0.000000e+00 0.000000e+00 -1.000000e+00
 outer loop
  vertex 0.000000e+00 -1.000000e+00 4.200000e-01
  vertex -8.817487e-02 -7.307383e-01 4.200000e-01
  vertex 2.093445e-01 -6.759779e-01 4.200000e-01
 endloop
endfacet
facet normal 0.000000e+00 -0.000000e+00 -1.000000e+00
 outer loop
  vertex -8.817487e-02 -7.307383e-01 4.200000e-01
  vertex 0.000000e+00 -1.000000e+00 4.200000e-01
  vertex -2.500000e-01 -1.000000e+00 4.200000e-01
 endloop
endfacet
facet normal 0.000000e+00 1.000000e+00 0.000000e+00
 outer loop
  vertex 0.000000e+00 -1.000000e+00 4.200000e-01
  vertex -1.250000e-01 -1.000000e+00 2.100000e-01
  vertex -2.500000e-01 -1.000000e+00 4.200000e-01
 endloop
endfacet
facet normal -1.000000e+00 -0.000000e+00 0.000000e+00
 outer loop
  vertex 1.000000e+00 5.000000e-01 4.200000e-01
  vertex 1.000000e+00 1.015889e-08 0.000000e+00
  vertex 1.000000e+00 1.015889e-08 4.200000e-01
 endloop
endfacet
facet normal -1.000000e+00 -0.000000e+00 -0.000000e+00
 outer loop
  vertex 1.000000e+00 1.015889e-08 4.200000e-01
  vertex 1.000000e+00 1.015889e-08 0.000000e+00
  vertex 1.000000e+00 -2.500000e-01 4.200000e-01
 endloop
endfacet
facet normal -1.000000e+00 0.000000e+00 0.000000e+00
 outer loop
  vertex 1.000000e+00 1.015889e-08 0.000000e+00
  vertex 1.000000e+00 5.000000e-01 4.200000e-01
  vertex 1.000000e+00 5.000000e-01 0.000000e+00
 endloop
endfacet
facet normal 0.000000e+00 -0.000000e+00 1.000000e+00
 outer loop
  vertex 1.000000e+00 1.015889e-08 0.000000e+00
  vertex 1.000000e+00 5.000000e-01 0.000000e+00
  vertex 7.191083e-01 1.463111e-01 0.000000e+00
 endloop
endfacet
facet normal -1.000000e+00 0.000000e+00 0.000000e+00
 outer loop
  vertex 1.000000e+00 -2.500000e-01 4.200000e-01
  vertex 1.000000e+00 1.015889e-08 0.000000e+00
  vertex 1.000000e+00 -2.500000e-01 0.000000e+00
 endloop
endfacet
facet normal 0.000000e+00 -0.000000e+00 1.000000e+00
 outer loop
  vertex 1.000000e+00 -2.500000e-01 0.000000e+00
  vertex 1.000000e+00 1.015889e-08 0.000000e+00
  vertex 7.555081e-01 -3.750000e-01 0.000000e+00
 endloop
endfacet
facet normal 0.000000e+00 0.000000e+00 1.000000e+00
 outer loop
  vertex 1.000000e+00 1.015889e-08 0.000000e+00
  vertex 7.191083e-01 1.463111e-01 0.000000e+00
  vertex 7.555081e-01 -3.750000e-01 0.000000e+00
 endloop
endfacet
facet normal 1.000000e+00 0.000000e+00 -0.000000e+00
 outer loop
  vertex -1.000000e+00 -1.571627e-08 0.000000e+00
  vertex -1.000000e+00 -1.571627e-08 4.200000e-01
  vertex -1.000000e+00 -5.000000e-01 4.200000e-01
 endloop
endfacet
facet normal 1.000000e+00 0.000000e+00 0.000000e+00
 outer loop
  vertex -1.000000e+00 -1.571627e-08 4.200000e-01
  vertex -1.000000e+00 -1.571627e-08 0.000000e+00
  vertex -1.000000e+00 2.500000e-01 0.000000e+00
 endloop
endfacet
facet normal 1.000000e+00 0.000000e+00 0.000000e+00
 outer loop
  vertex -1.000000e+00 -1.571627e-08 0.000000e+00
  vertex -1.000000e+00 -5.000000e-01 4.200000e-01
  vertex -1.000000e+00 -5.000000e-01 0.000000e+00
 endloop
endfacet
facet normal 0.000000e+00 0.000000e+00 1.000000e+00
 outer loop
  vertex -1.000000e+00 -1.571627e-08 0.000000e+00
  vertex -1.000000e+00 -5.000000e-01 0.000000e+00
  vertex -6.775568e-01 -9.090910e-02 0.000000e+00
 endloop
endfacet
facet normal -0.000000e+00 0.000000e+00 1.000000e+00
 outer loop
  vertex -1.000000e+00 -1.571627e-08 0.000000e+00
  vertex -6.775568e-01 -9.090910e-02 0.000000e+00
  vertex -1.000000e+00 2.500000e-01 0.000000e+00
 endloop
endfacet
facet normal 0.000000e+00 -0.000000e+00 -1.000000e+00
 outer loop
  vertex 1.000000e+00 5.000000e-01 4.200000e-01
  vertex 1.000000e+00 1.015889e-08 4.200000e-01
  vertex 5.912873e-01 -3.677005e-02 4.200000e-01
 endloop
endfacet
facet normal 0.000000e+00 -0.000000e+00 -1.000000e+00
 outer loop
  vertex 1.000000e+00 1.015889e-08 4.200000e-01
  vertex 1.000000e+00 -2.500000e-01 4.200000e-01
  vertex 5.912873e-01 -3.677005e-02 4.200000e-01
 endloop
endfacet
facet normal 0.000000e+00 0.000000e+00 -1.000000e+00
 outer loop
  vertex -1.000000e+00 -1.571627e-08 4.200000e-01
  vertex -1.000000e+00 5.000000e-01 4.200000e-01
  vertex -5.625000e-01 5.625000e-01 4.200000e-01
 endloop
endfacet
facet normal 1.000000e+00 0.000000e+00 0.000000e+00
 outer loop
  vertex -1.000000e+00 5.000000e-01 4.200000e-01
  vertex -1.000000e+00 -1.571627e-08 4.200000e-01
  vertex -1.000000e+00 2.500000e-01 0.000000e+00
 endloop
endfacet
facet normal 0.000000e+00 0.000000e+00 -1.000000e+00
 outer loop
  vertex -1.000000e+00 -5.000000e-01 4.200000e-01
  vertex -1.000000e+00 -1.571627e-08 4.200000e-01
  vertex -5.419721e-01 -1.240836e-01 4.200000e-01
 endloop
endfacet
facet normal 0.000000e+00 0.000000e+00 -1.000000e+00
 outer loop
  vertex -5.419721e-01 -1.240836e-01 4.200000e-01
  vertex -1.000000e+00 -1.571627e-08 4.200000e-01
  vertex -5.625000e-01 5.625000e-01 4.200000e-01
 endloop
endfacet
facet normal 1.000000e+00 0.000000e+00 -0.000000e+00
 outer loop
  vertex -1.000000e+00 5.000000e-01 0.000000e+00
  vertex -1.000000e+00 5.000000e-01 4.200000e-01
  vertex -1.000000e+00 2.500000e-01 0.000000e+00
 endloop
endfacet
facet normal -0.000000e+00 0.000000e+00 1.000000e+00
 outer loop
  vertex -1.000000e+00 5.000000e-01 0.000000e+00
  vertex -7.473039e-01 3.803922e-01 0.000000e+00
  vertex -6.375000e-01 6.375000e-01 0.000000e+00
 endloop
endfacet
facet normal 0.000000e+00 0.000000e+00 1.000000e+00
 outer loop
  vertex -1.000000e+00 5.000000e-01 0.000000e+00
  vertex -1.000000e+00 2.500000e-01 0.000000e+00
  vertex -7.473039e-01 3.803922e-01 0.000000e+00
 endloop
endfacet
facet normal 0.000000e+00 0.000000e+00 1.000000e+00
 outer loop
  vertex -3.437500e-01 -6.250000e-02 0.000000e+00
  vertex -1.110223e-16 0.000000e+00 0.000000e+00
  vertex -2.135417e-01 1.979167e-01 0.000000e+00
 endloop
endfacet
facet normal 0.000000e+00 0.000000e+00 1.000000e+00
 outer loop
  vertex -1.110223e-16 0.000000e+00 0.000000e+00
  vertex -3.437500e-01 -6.250000e-02 0.000000e+00
  vertex -2.265625e-01 -3.164063e-01 0.000000e+00
 endloop
endfacet
facet normal -0.000000e+00 0.000000e+00 1.000000e+00
 outer loop
  vertex -2.135417e-01 1.979167e-01 0.000000e+00
  vertex -1.110223e-16 0.000000e+00 0.000000e+00
  vertex -9.795823e-03 2.035893e-01 0.000000e+00
 endloop
endfacet
facet normal 0.000000e+00 0.000000e+00 1.000000e+00
 outer loop
  vertex -9.795823e-03 2.035893e-01 0.000000e+00
  vertex -1.110223e-16 0.000000e+00 0.000000e+00
  vertex 2.033121e-01 5.462144e-02 0.000000e+00
 endloop
endfacet
facet normal 0.000000e+00 0.000000e+00 1.000000e+00
 outer loop
  vertex -1.110223e-16 0.000000e+00 0.000000e+00
  vertex -2.265625e-01 -3.164063e-01 0.000000e+00
  vertex 1.595512e-02 -2.507427e-01 0.000000e+00
 endloop
endfacet
facet normal 0.000000e+00 0.000000e+00 1.000000e+00
 outer loop
  vertex -1.110223e-16 0.000000e+00 0.000000e+00
  vertex 1.595512e-02 -2.507427e-01 0.000000e+00
  vertex 1.029726e-01 -1.193267e-01 0.000000e+00
 endloop
endfacet
facet normal 0.000000e+00 0.000000e+00 1.000000e+00
 outer loop
  vertex 2.033121e-01 5.462144e-02 0.000000e+00
  vertex -1.110223e-16 0.000000e+00 0.000000e+00
  vertex 1.029726e-01 -1.193267e-01 0.000000e+00
 endloop
endfacet
facet normal 0.000000e+00 -1.000000e+00 0.000000e+00
 outer loop
  vertex 2.500000e-01 1.000000e+00 4.200000e-01
  vertex 5.000000e-01 1.000000e+00 0.000000e+00
  vertex 5.000000e-01 1.000000e+00 4.200000e-01
 endloop
endfacet
facet normal 0.000000e+00 0.000000e+00 1.000000e+00
 outer loop
  vertex 5.000000e-01 1.000000e+00 0.000000e+00
  vertex 4.152768e-01 7.366661e-01 0.000000e+00
  vertex 6.875000e-01 6.875000e-01 0.000000e+00
 endloop
endfacet
facet normal 0.000000e+00 0.000000e+00 1.000000e+00
 outer loop
  vertex 5.000000e-01 1.000000e+00 0.000000e+00
  vertex 2.500000e-01 1.000000e+00 0.000000e+00
  vertex 4.152768e-01 7.366661e-01 0.000000e+00
 endloop
endfacet
facet normal 0.000000e+00 -1.000000e+00 0.000000e+00
 outer loop
  vertex 5.000000e-01 1.000000e+00 0.000000e+00
  vertex 2.500000e-01 1.000000e+00 4.200000e-01
  vertex 2.500000e-01 1.000000e+00 0.000000e+00
 endloop
endfacet
facet normal 0.000000e+00 -0.000000e+00 -1.000000e+00
 outer loop
  vertex 5.000000e-01 1.000000e+00 4.200000e-01
  vertex 1.000000e+00 5.000000e-01 4.200000e-01
  vertex 3.750000e-01 6.840542e-01 4.200000e-01
 endloop
endfacet
facet normal 0.000000e+00 0.000000e+00 -1.000000e+00
 outer loop
  vertex 2.500000e-01 1.000000e+00 4.200000e-01
  vertex 5.000000e-01 1.000000e+00 4.200000e-01
  vertex 3.750000e-01 6.840542e-01 4.200000e-01
 endloop
endfacet
facet normal 0.000000e+00 0.000000e+00 -1.000000e+00
 outer loop
  vertex 5.701865e-02 5.643271e-01 4.200000e-01
  vertex -2.500000e-01 2.500000e-01 4.200000e-01
  vertex -5.625000e-01 5.625000e-01 4.200000e-01
 endloop
endfacet
facet normal 0.000000e+00 0.000000e+00 -1.000000e+00
 outer loop
  vertex -2.500000e-01 2.500000e-01 4.200000e-01
  vertex 5.701865e-02 5.643271e-01 4.200000e-01
  vertex 1.002901e-03 3.119368e-01 4.200000e-01
 endloop
endfacet
facet normal -0.000000e+00 0.000000e+00 -1.000000e+00
 outer loop
  vertex -2.500000e-01 2.500000e-01 4.200000e-01
  vertex -5.419721e-01 -1.240836e-01 4.200000e-01
  vertex -5.625000e-01 5.625000e-01 4.200000e-01
 endloop
endfacet
facet normal 0.000000e+00 0.000000e+00 -1.000000e+00
 outer loop
  vertex -6.160328e-02 -2.086538e-01 4.200000e-01
  vertex -5.419721e-01 -1.240836e-01 4.200000e-01
  vertex -2.500000e-01 2.500000e-01 4.200000e-01
 endloop
endfacet
facet normal 0.000000e+00 0.000000e+00 -1.000000e+00
 outer loop
  vertex -2.500000e-01 2.500000e-01 4.200000e-01
  vertex 1.223930e-01 8.367587e-02 4.200000e-01
  vertex -6.160328e-02 -2.086538e-01 4.200000e-01
 endloop
endfacet
facet normal 0.000000e+00 0.000000e+00 -1.000000e+00
 outer loop
  vertex 1.223930e-01 8.367587e-02 4.200000e-01
  vertex -2.500000e-01 2.500000e-01 4.200000e-01
  vertex 1.002901e-03 3.119368e-01 4.200000e-01
 endloop
endfacet
facet normal 0.000000e+00 1.000000e+00 0.000000e+00
 outer loop
  vertex -5.000000e-01 -1.000000e+00 4.200000e-01
  vertex -5.000000e-01 -1.000000e+00 0.000000e+00
  vertex -7.500000e-01 -1.000000e+00 4.200000e-01
 endloop
endfacet
facet normal 0.000000e+00 1.000000e+00 0.000000e+00
 outer loop
  vertex -5.000000e-01 -1.000000e+00 0.000000e+00
  vertex -5.000000e-01 -1.000000e+00 4.200000e-01
  vertex -3.750000e-01 -1.000000e+00 2.100000e-01
 endloop
endfacet
facet normal 0.000000e+00 0.000000e+00 1.000000e+00
 outer loop
  vertex -5.000000e-01 -1.000000e+00 0.000000e+00
  vertex -2.500000e-01 -1.000000e+00 0.000000e+00
  vertex -2.701674e-01 -8.268169e-01 0.000000e+00
 endloop
endfacet
facet normal 0.000000e+00 1.000000e+00 0.000000e+00
 outer loop
  vertex -2.500000e-01 -1.000000e+00 0.000000e+00
  vertex -5.000000e-01 -1.000000e+00 0.000000e+00
  vertex -3.750000e-01 -1.000000e+00 2.100000e-01
 endloop
endfacet
facet normal 0.000000e+00 0.000000e+00 1.000000e+00
 outer loop
  vertex -5.405220e-01 -8.025412e-01 0.000000e+00
  vertex -5.000000e-01 -1.000000e+00 0.000000e+00
  vertex -2.701674e-01 -8.268169e-01 0.000000e+00
 endloop
endfacet
facet normal 0.000000e+00 0.000000e+00 1.000000e+00
 outer loop
  vertex -5.000000e-01 -1.000000e+00 0.000000e+00
  vertex -5.405220e-01 -8.025412e-01 0.000000e+00
  vertex -7.500000e-01 -1.000000e+00 0.000000e+00
 endloop
endfacet
facet normal 0.000000e+00 1.000000e+00 0.000000e+00
 outer loop
  vertex -5.000000e-01 -1.000000e+00 0.000000e+00
  vertex -7.500000e-01 -1.000000e+00 0.000000e+00
  vertex -7.500000e-01 -1.000000e+00 4.200000e-01
 endloop
endfacet
facet normal 0.000000e+00 0.000000e+00 -1.000000e+00
 outer loop
  vertex -5.000000e-01 -1.000000e+00 4.200000e-01
  vertex -3.677595e-01 -7.526906e-01 4.200000e-01
  vertex -2.500000e-01 -1.000000e+00 4.200000e-01
 endloop
endfacet
facet normal 0.000000e+00 0.000000e+00 -1.000000e+00
 outer loop
  vertex -5.000000e-01 -1.000000e+00 4.200000e-01
  vertex -7.221841e-01 -7.221841e-01 4.200000e-01
  vertex -3.677595e-01 -7.526906e-01 4.200000e-01
 endloop
endfacet
facet normal -0.000000e+00 1.000000e+00 0.000000e+00
 outer loop
  vertex -5.000000e-01 -1.000000e+00 4.200000e-01
  vertex -2.500000e-01 -1.000000e+00 4.200000e-01
  vertex -3.750000e-01 -1.000000e+00 2.100000e-01
 endloop
endfacet
facet normal 0.000000e+00 0.000000e+00 -1.000000e+00
 outer loop
  vertex -5.000000e-01 -1.000000e+00 4.200000e-01
  vertex -7.500000e-01 -1.000000e+00 4.200000e-01
  vertex -7.221841e-01 -7.221841e-01 4.200000e-01
 endloop
endfacet
facet normal 0.000000e+00 -1.000000e+00 0.000000e+00
 outer loop
  vertex -5.000000e-01 1.000000e+00 0.000000e+00
  vertex -2.500000e-01 1.000000e+00 4.200000e-01
  vertex -5.000000e-01 1.000000e+00 4.200000e-01
 endloop
endfacet
facet normal -0.000000e+00 0.000000e+00 1.000000e+00
 outer loop
  vertex -5.000000e-01 1.000000e+00 0.000000e+00
  vertex -4.392857e-01 7.696429e-01 0.000000e+00
  vertex -2.500000e-01 1.000000e+00 0.000000e+00
 endloop
endfacet
facet normal 0.000000e+00 -1.000000e+00 -0.000000e+00
 outer loop
  vertex -2.500000e-01 1.000000e+00 4.200000e-01
  vertex -5.000000e-01 1.000000e+00 0.000000e+00
  vertex -2.500000e-01 1.000000e+00 0.000000e+00
 endloop
endfacet
facet normal 0.000000e+00 0.000000e+00 1.000000e+00
 outer loop
  vertex -5.000000e-01 1.000000e+00 0.000000e+00
  vertex -6.375000e-01 6.375000e-01 0.000000e+00
  vertex -4.392857e-01 7.696429e-01 0.000000e+00
 endloop
endfacet
facet normal 0.000000e+00 0.000000e+00 -1.000000e+00
 outer loop
  vertex -5.625000e-01 5.625000e-01 4.200000e-01
  vertex -5.000000e-01 1.000000e+00 4.200000e-01
  vertex -2.500000e-01 1.000000e+00 4.200000e-01
 endloop
endfacet
facet normal -1.000000e+00 0.000000e+00 0.000000e+00
 outer loop
  vertex 1.000000e+00 -5.000000e-01 0.000000e+00
  vertex 1.000000e+00 -5.000000e-01 4.200000e-01
  vertex 1.000000e+00 -2.500000e-01 4.200000e-01
 endloop
endfacet
facet normal 0.000000e+00 0.000000e+00 1.000000e+00
 outer loop
  vertex 1.000000e+00 -5.000000e-01 0.000000e+00
  vertex 7.555081e-01 -3.750000e-01 0.000000e+00
  vertex 6.250000e-01 -6.250000e-01 0.000000e+00
 endloop
endfacet
facet normal -1.000000e+00 0.000000e+00 0.000000e+00
 outer loop
  vertex 1.000000e+00 -5.000000e-01 0.000000e+00
  vertex 1.000000e+00 -2.500000e-01 4.200000e-01
  vertex 1.000000e+00 -2.500000e-01 0.000000e+00
 endloop
endfacet
facet normal 0.000000e+00 -0.000000e+00 1.000000e+00
 outer loop
  vertex 1.000000e+00 -5.000000e-01 0.000000e+00
  vertex 1.000000e+00 -2.500000e-01 0.000000e+00
  vertex 7.555081e-01 -3.750000e-01 0.000000e+00
 endloop
endfacet
facet normal -0.000000e+00 0.000000e+00 -1.000000e+00
 outer loop
  vertex 1.000000e+00 -5.000000e-01 4.200000e-01
  vertex 5.839800e-01 -5.839800e-01 4.200000e-01
  vertex 1.000000e+00 -2.500000e-01 4.200000e-01
 endloop
endfacet
facet normal 0.000000e+00 0.000000e+00 1.000000e+00
 outer loop
  vertex -5.000000e-01 2.500000e-01 0.000000e+00
  vertex -3.437500e-01 -6.250000e-02 0.000000e+00
  vertex -2.135417e-01 1.979167e-01 0.000000e+00
 endloop
endfacet
facet normal 0.000000e+00 0.000000e+00 1.000000e+00
 outer loop
  vertex -3.437500e-01 -6.250000e-02 0.000000e+00
  vertex -5.000000e-01 2.500000e-01 0.000000e+00
  vertex -6.775568e-01 -9.090910e-02 0.000000e+00
 endloop
endfacet
facet normal -0.000000e+00 0.000000e+00 1.000000e+00
 outer loop
  vertex -5.000000e-01 2.500000e-01 0.000000e+00
  vertex -2.135417e-01 1.979167e-01 0.000000e+00
  vertex -3.458403e-01 4.180602e-01 0.000000e+00
 endloop
endfacet
facet normal 0.000000e+00 0.000000e+00 1.000000e+00
 outer loop
  vertex -5.000000e-01 2.500000e-01 0.000000e+00
  vertex -7.473039e-01 3.803922e-01 0.000000e+00
  vertex -6.775568e-01 -9.090910e-02 0.000000e+00
 endloop
endfacet
facet normal 0.000000e+00 0.000000e+00 1.000000e+00
 outer loop
  vertex -6.375000e-01 6.375000e-01 0.000000e+00
  vertex -5.000000e-01 2.500000e-01 0.000000e+00
  vertex -3.458403e-01 4.180602e-01 0.000000e+00
 endloop
endfacet
facet normal 0.000000e+00 0.000000e+00 1.000000e+00
 outer loop
  vertex -5.000000e-01 2.500000e-01 0.000000e+00
  vertex -6.375000e-01 6.375000e-01 0.000000e+00
  vertex -7.473039e-01 3.803922e-01 0.000000e+00
 endloop
endfacet
facet normal 0.000000e+00 -0.000000e+00 -1.000000e+00
 outer loop
  vertex 2.727273e-01 -2.954546e-01 4.200000e-01
  vertex 5.839800e-01 -5.839800e-01 4.200000e-01
  vertex 2.093445e-01 -6.759779e-01 4.200000e-01
 endloop
endfacet
facet normal 0.000000e+00 0.000000e+00 -1.000000e+00
 outer loop
  vertex 2.727273e-01 -2.954546e-01 4.200000e-01
  vertex 5.912873e-01 -3.677005e-02 4.200000e-01
  vertex 5.839800e-01 -5.839800e-01 4.200000e-01
 endloop
endfacet
facet normal 0.000000e+00 0.000000e+00 -1.000000e+00
 outer loop
  vertex 2.727273e-01 -2.954546e-01 4.200000e-01
  vertex 2.093445e-01 -6.759779e-01 4.200000e-01
  vertex 2.466334e-02 -4.708455e-01 4.200000e-01
 endloop
endfacet
facet normal 0.000000e+00 -0.000000e+00 -1.000000e+00
 outer loop
  vertex 1.373072e-01 -1.297811e-01 4.200000e-01
  vertex 2.727273e-01 -2.954546e-01 4.200000e-01
  vertex 2.466334e-02 -4.708455e-01 4.200000e-01
 endloop
endfacet
facet normal 0.000000e+00 0.000000e+00 -1.000000e+00
 outer loop
  vertex 2.727273e-01 -2.954546e-01 4.200000e-01
  vertex 1.373072e-01 -1.297811e-01 4.200000e-01
  vertex 5.912873e-01 -3.677005e-02 4.200000e-01
 endloop
endfacet
facet normal 0.000000e+00 0.000000e+00 1.000000e+00
 outer loop
  vertex 1.000000e+00 5.000000e-01 0.000000e+00
  vertex 6.875000e-01 6.875000e-01 0.000000e+00
  vertex 5.000000e-01 3.750000e-01 0.000000e+00
 endloop
endfacet
facet normal 0.000000e+00 0.000000e+00 1.000000e+00
 outer loop
  vertex 1.000000e+00 5.000000e-01 0.000000e+00
  vertex 5.000000e-01 3.750000e-01 0.000000e+00
  vertex 7.191083e-01 1.463111e-01 0.000000e+00
 endloop
endfacet
facet normal 0.000000e+00 -0.000000e+00 1.000000e+00
 outer loop
  vertex 5.000000e-01 3.750000e-01 0.000000e+00
  vertex 6.875000e-01 6.875000e-01 0.000000e+00
  vertex 3.581657e-01 5.325307e-01 0.000000e+00
 endloop
endfacet
facet normal 0.000000e+00 0.000000e+00 1.000000e+00
 outer loop
  vertex 5.000000e-01 3.750000e-01 0.000000e+00
  vertex 1.773248e-01 2.844002e-01 0.000000e+00
  vertex 4.136861e-01 6.250000e-02 0.000000e+00
 endloop
endfacet
facet normal 0.000000e+00 0.000000e+00 1.000000e+00
 outer loop
  vertex 5.000000e-01 3.750000e-01 0.000000e+00
  vertex 3.581657e-01 5.325307e-01 0.000000e+00
  vertex 1.773248e-01 2.844002e-01 0.000000e+00
 endloop
endfacet
facet normal 0.000000e+00 0.000000e+00 1.000000e+00
 outer loop
  vertex 5.000000e-01 3.750000e-01 0.000000e+00
  vertex 4.136861e-01 6.250000e-02 0.000000e+00
  vertex 7.191083e-01 1.463111e-01 0.000000e+00
 endloop
endfacet
facet normal 0.000000e+00 0.000000e+00 1.000000e+00
 outer loop
  vertex -5.000000e-01 -3.750000e-01 0.000000e+00
  vertex -6.775568e-01 -9.090910e-02 0.000000e+00
  vertex -1.000000e+00 -5.000000e-01 0.000000e+00
 endloop
endfacet
facet normal 0.000000e+00 0.000000e+00 1.000000e+00
 outer loop
  vertex -5.000000e-01 -3.750000e-01 0.000000e+00
  vertex -1.000000e+00 -5.000000e-01 0.000000e+00
  vertex -7.276786e-01 -7.276786e-01 0.000000e+00
 endloop
endfacet
facet normal 0.000000e+00 0.000000e+00 1.000000e+00
 outer loop
  vertex -3.437500e-01 -6.250000e-02 0.000000e+00
  vertex -5.000000e-01 -3.750000e-01 0.000000e+00
  vertex -2.265625e-01 -3.164063e-01 0.000000e+00
 endloop
endfacet
facet normal 0.000000e+00 -0.000000e+00 1.000000e+00
 outer loop
  vertex -5.000000e-01 -3.750000e-01 0.000000e+00
  vertex -3.437500e-01 -6.250000e-02 0.000000e+00
  vertex -6.775568e-01 -9.090910e-02 0.000000e+00
 endloop
endfacet
facet normal 0.000000e+00 0.000000e+00 1.000000e+00
 outer loop
  vertex -3.750000e-01 -6.875000e-01 0.000000e+00
  vertex -5.000000e-01 -3.750000e-01 0.000000e+00
  vertex -7.276786e-01 -7.276786e-01 0.000000e+00
 endloop
endfacet
facet normal 0.000000e+00 0.000000e+00 1.000000e+00
 outer loop
  vertex -5.000000e-01 -3.750000e-01 0.000000e+00
  vertex -3.750000e-01 -6.875000e-01 0.000000e+00
  vertex -2.065065e-01 -5.722948e-01 0.000000e+00
 endloop
endfacet
facet normal -0.000000e+00 0.000000e+00 1.000000e+00
 outer loop
  vertex -5.000000e-01 -3.750000e-01 0.000000e+00
  vertex -2.065065e-01 -5.722948e-01 0.000000e+00
  vertex -2.265625e-01 -3.164063e-01 0.000000e+00
 endloop
endfacet
facet normal 0.000000e+00 0.000000e+00 -1.000000e+00
 outer loop
  vertex 4.368359e-01 3.434179e-01 4.200000e-01
  vertex 5.701865e-02 5.643271e-01 4.200000e-01
  vertex 3.750000e-01 6.840542e-01 4.200000e-01
 endloop
endfacet
facet normal 0.000000e+00 -0.000000e+00 -1.000000e+00
 outer loop
  vertex 5.701865e-02 5.643271e-01 4.200000e-01
  vertex 4.368359e-01 3.434179e-01 4.200000e-01
  vertex 1.002901e-03 3.119368e-01 4.200000e-01
 endloop
endfacet
facet normal -0.000000e+00 0.000000e+00 -1.000000e+00
 outer loop
  vertex 1.000000e+00 5.000000e-01 4.200000e-01
  vertex 4.368359e-01 3.434179e-01 4.200000e-01
  vertex 3.750000e-01 6.840542e-01 4.200000e-01
 endloop
endfacet
facet normal 0.000000e+00 0.000000e+00 -1.000000e+00
 outer loop
  vertex 4.368359e-01 3.434179e-01 4.200000e-01
  vertex 1.000000e+00 5.000000e-01 4.200000e-01
  vertex 5.912873e-01 -3.677005e-02 4.200000e-01
 endloop
endfacet
facet normal 0.000000e+00 0.000000e+00 -1.000000e+00
 outer loop
  vertex 4.368359e-01 3.434179e-01 4.200000e-01
  vertex 1.223930e-01 8.367587e-02 4.200000e-01
  vertex 1.002901e-03 3.119368e-01 4.200000e-01
 endloop
endfacet
facet normal 0.000000e+00 0.000000e+00 -1.000000e+00
 outer loop
  vertex 1.223930e-01 8.367587e-02 4.200000e-01
  vertex 4.368359e-01 3.434179e-01 4.200000e-01
  vertex 5.912873e-01 -3.677005e-02 4.200000e-01
 endloop
endfacet
facet normal 0.000000e+00 0.000000e+00 1.000000e+00
 outer loop
  vertex 5.000000e-01 -2.500000e-01 0.000000e+00
  vertex 4.136861e-01 6.250000e-02 0.000000e+00
  vertex 2.578216e-01 -1.487206e-01 0.000000e+00
 endloop
endfacet
facet normal -0.000000e+00 0.000000e+00 1.000000e+00
 outer loop
  vertex 4.136861e-01 6.250000e-02 0.000000e+00
  vertex 5.000000e-01 -2.500000e-01 0.000000e+00
  vertex 7.191083e-01 1.463111e-01 0.000000e+00
 endloop
endfacet
facet normal 0.000000e+00 -0.000000e+00 1.000000e+00
 outer loop
  vertex 2.842134e-01 -4.616783e-01 0.000000e+00
  vertex 5.000000e-01 -2.500000e-01 0.000000e+00
  vertex 2.578216e-01 -1.487206e-01 0.000000e+00
 endloop
endfacet
facet normal 0.000000e+00 0.000000e+00 1.000000e+00
 outer loop
  vertex 5.000000e-01 -2.500000e-01 0.000000e+00
  vertex 2.842134e-01 -4.616783e-01 0.000000e+00
  vertex 4.944608e-01 -4.601797e-01 0.000000e+00
 endloop
endfacet
facet normal 0.000000e+00 0.000000e+00 1.000000e+00
 outer loop
  vertex 5.000000e-01 -2.500000e-01 0.000000e+00
  vertex 4.944608e-01 -4.601797e-01 0.000000e+00
  vertex 7.555081e-01 -3.750000e-01 0.000000e+00
 endloop
endfacet
facet normal -0.000000e+00 0.000000e+00 1.000000e+00
 outer loop
  vertex 5.000000e-01 -2.500000e-01 0.000000e+00
  vertex 7.555081e-01 -3.750000e-01 0.000000e+00
  vertex 7.191083e-01 1.463111e-01 0.000000e+00
 endloop
endfacet
facet normal 0.000000e+00 0.000000e+00 1.000000e+00
 outer loop
  vertex -2.500000e-01 6.250000e-01 0.000000e+00
  vertex -1.178060e-01 4.211870e-01 0.000000e+00
  vertex -4.271626e-02 6.146679e-01 0.000000e+00
 endloop
endfacet
facet normal 0.000000e+00 0.000000e+00 1.000000e+00
 outer loop
  vertex -1.178060e-01 4.211870e-01 0.000000e+00
  vertex -2.500000e-01 6.250000e-01 0.000000e+00
  vertex -3.458403e-01 4.180602e-01 0.000000e+00
 endloop
endfacet
facet normal -0.000000e+00 0.000000e+00 1.000000e+00
 outer loop
  vertex -2.500000e-01 6.250000e-01 0.000000e+00
  vertex -4.271626e-02 6.146679e-01 0.000000e+00
  vertex -1.250000e-01 8.188232e-01 0.000000e+00
 endloop
endfacet
facet normal 0.000000e+00 -0.000000e+00 1.000000e+00
 outer loop
  vertex -2.500000e-01 6.250000e-01 0.000000e+00
  vertex -1.250000e-01 8.188232e-01 0.000000e+00
  vertex -4.392857e-01 7.696429e-01 0.000000e+00
 endloop
endfacet
facet normal 0.000000e+00 0.000000e+00 1.000000e+00
 outer loop
  vertex -2.500000e-01 6.250000e-01 0.000000e+00
  vertex -4.392857e-01 7.696429e-01 0.000000e+00
  vertex -3.458403e-01 4.180602e-01 0.000000e+00
 endloop
endfacet
facet normal 0.000000e+00 0.000000e+00 -1.000000e+00
 outer loop
  vertex -2.500000e-01 -4.981672e-01 4.200000e-01
  vertex -5.419721e-01 -1.240836e-01 4.200000e-01
  vertex -6.160328e-02 -2.086538e-01 4.200000e-01
 endloop
endfacet
facet normal -0.000000e+00 0.000000e+00 -1.000000e+00
 outer loop
  vertex -2.500000e-01 -4.981672e-01 4.200000e-01
  vertex -5.266583e-01 -5.246700e-01 4.200000e-01
  vertex -5.419721e-01 -1.240836e-01 4.200000e-01
 endloop
endfacet
facet normal 0.000000e+00 0.000000e+00 -1.000000e+00
 outer loop
  vertex -2.500000e-01 -4.981672e-01 4.200000e-01
  vertex -6.160328e-02 -2.086538e-01 4.200000e-01
  vertex 2.466334e-02 -4.708455e-01 4.200000e-01
 endloop
endfacet
facet normal 0.000000e+00 0.000000e+00 -1.000000e+00
 outer loop
  vertex -8.817487e-02 -7.307383e-01 4.200000e-01
  vertex -2.500000e-01 -4.981672e-01 4.200000e-01
  vertex 2.466334e-02 -4.708455e-01 4.200000e-01
 endloop
endfacet
facet normal 0.000000e+00 -0.000000e+00 -1.000000e+00
 outer loop
  vertex -2.500000e-01 -4.981672e-01 4.200000e-01
  vertex -8.817487e-02 -7.307383e-01 4.200000e-01
  vertex -3.677595e-01 -7.526906e-01 4.200000e-01
 endloop
endfacet
facet normal 0.000000e+00 0.000000e+00 -1.000000e+00
 outer loop
  vertex -2.500000e-01 -4.981672e-01 4.200000e-01
  vertex -3.677595e-01 -7.526906e-01 4.200000e-01
  vertex -5.266583e-01 -5.246700e-01 4.200000e-01
 endloop
endfacet
facet normal 0.000000e+00 0.000000e+00 -1.000000e+00
 outer loop
  vertex -1.000000e+00 -5.000000e-01 4.200000e-01
  vertex -5.419721e-01 -1.240836e-01 4.200000e-01
  vertex -5.266583e-01 -5.246700e-01 4.200000e-01
 endloop
endfacet
facet normal 0.000000e+00 0.000000e+00 -1.000000e+00
 outer loop
  vertex -1.000000e+00 -5.000000e-01 4.200000e-01
  vertex -5.266583e-01 -5.246700e-01 4.200000e-01
  vertex -7.221841e-01 -7.221841e-01 4.200000e-01
 endloop
endfacet
facet normal 0.000000e+00 -0.000000e+00 1.000000e+00
 outer loop
  vertex -1.120906e-01 -7.532587e-01 0.000000e+00
  vertex -1.562499e-02 -5.000000e-01 0.000000e+00
  vertex -2.065065e-01 -5.722948e-01 0.000000e+00
 endloop
endfacet
facet normal 0.000000e+00 0.000000e+00 1.000000e+00
 outer loop
  vertex -1.562499e-02 -5.000000e-01 0.000000e+00
  vertex -1.120906e-01 -7.532587e-01 0.000000e+00
  vertex 1.489167e-01 -5.952491e-01 0.000000e+00
 endloop
endfacet
facet normal -0.000000e+00 0.000000e+00 1.000000e+00
 outer loop
  vertex -2.265625e-01 -3.164063e-01 0.000000e+00
  vertex -1.562499e-02 -5.000000e-01 0.000000e+00
  vertex 1.595512e-02 -2.507427e-01 0.000000e+00
 endloop
endfacet
facet normal 0.000000e+00 0.000000e+00 1.000000e+00
 outer loop
  vertex -1.562499e-02 -5.000000e-01 0.000000e+00
  vertex -2.265625e-01 -3.164063e-01 0.000000e+00
  vertex -2.065065e-01 -5.722948e-01 0.000000e+00
 endloop
endfacet
facet normal 0.000000e+00 0.000000e+00 1.000000e+00
 outer loop
  vertex 1.595512e-02 -2.507427e-01 0.000000e+00
  vertex -1.562499e-02 -5.000000e-01 0.000000e+00
  vertex 8.737993e-02 -3.864212e-01 0.000000e+00
 endloop
endfacet
facet normal 0.000000e+00 0.000000e+00 1.000000e+00
 outer loop
  vertex 8.737993e-02 -3.864212e-01 0.000000e+00
  vertex -1.562499e-02 -5.000000e-01 0.000000e+00
  vertex 1.489167e-01 -5.952491e-01 0.000000e+00
 endloop
endfacet
facet normal 0.000000e+00 0.000000e+00 1.000000e+00
 outer loop
  vertex 1.773248e-01 2.844002e-01 0.000000e+00
  vertex 1.647727e-01 6.193182e-01 0.000000e+00
  vertex 3.339262e-02 3.606326e-01 0.000000e+00
 endloop
endfacet
facet normal 0.000000e+00 0.000000e+00 1.000000e+00
 outer loop
  vertex 1.647727e-01 6.193182e-01 0.000000e+00
  vertex 1.773248e-01 2.844002e-01 0.000000e+00
  vertex 3.581657e-01 5.325307e-01 0.000000e+00
 endloop
endfacet
facet normal 0.000000e+00 -0.000000e+00 1.000000e+00
 outer loop
  vertex 1.647727e-01 6.193182e-01 0.000000e+00
  vertex 4.152768e-01 7.366661e-01 0.000000e+00
  vertex 1.250000e-01 8.281038e-01 0.000000e+00
 endloop
endfacet
facet normal 0.000000e+00 0.000000e+00 1.000000e+00
 outer loop
  vertex 4.152768e-01 7.366661e-01 0.000000e+00
  vertex 1.647727e-01 6.193182e-01 0.000000e+00
  vertex 3.581657e-01 5.325307e-01 0.000000e+00
 endloop
endfacet
facet normal 0.000000e+00 0.000000e+00 1.000000e+00
 outer loop
  vertex 1.647727e-01 6.193182e-01 0.000000e+00
  vertex 1.250000e-01 8.281038e-01 0.000000e+00
  vertex -4.271626e-02 6.146679e-01 0.000000e+00
 endloop
endfacet
facet normal 0.000000e+00 0.000000e+00 1.000000e+00
 outer loop
  vertex 1.647727e-01 6.193182e-01 0.000000e+00
  vertex -4.271626e-02 6.146679e-01 0.000000e+00
  vertex 3.339262e-02 3.606326e-01 0.000000e+00
 endloop
endfacet
facet normal -0.000000e+00 0.000000e+00 -1.000000e+00
 outer loop
  vertex 5.701865e-02 5.643271e-01 4.200000e-01
  vertex -5.625000e-01 5.625000e-01 4.200000e-01
  vertex -2.500000e-01 1.000000e+00 4.200000e-01
 endloop
endfacet
facet normal 0.000000e+00 0.000000e+00 -1.000000e+00
 outer loop
  vertex 5.701865e-02 5.643271e-01 4.200000e-01
  vertex 2.500000e-01 1.000000e+00 4.200000e-01
  vertex 3.750000e-01 6.840542e-01 4.200000e-01
 endloop
endfacet
facet normal 0.000000e+00 1.000000e+00 0.000000e+00
 outer loop
  vertex 5.000000e-01 -1.000000e+00 4.200000e-01
  vertex 5.000000e-01 -1.000000e+00 0.000000e+00
  vertex 2.500000e-01 -1.000000e+00 0.000000e+00
 endloop
endfacet
facet normal 0.000000e+00 0.000000e+00 1.000000e+00
 outer loop
  vertex 5.000000e-01 -1.000000e+00 0.000000e+00
  vertex 3.750000e-01 -7.500000e-01 0.000000e+00
  vertex 2.500000e-01 -1.000000e+00 0.000000e+00
 endloop
endfacet
facet normal 0.000000e+00 -0.000000e+00 1.000000e+00
 outer loop
  vertex 5.000000e-01 -1.000000e+00 0.000000e+00
  vertex 6.250000e-01 -6.250000e-01 0.000000e+00
  vertex 3.750000e-01 -7.500000e-01 0.000000e+00
 endloop
endfacet
facet normal 0.000000e+00 0.000000e+00 -1.000000e+00
 outer loop
  vertex 5.839800e-01 -5.839800e-01 4.200000e-01
  vertex 5.000000e-01 -1.000000e+00 4.200000e-01
  vertex 2.093445e-01 -6.759779e-01 4.200000e-01
 endloop
endfacet
facet normal 0.000000e+00 -0.000000e+00 1.000000e+00
 outer loop
  vertex -2.500000e-01 -1.000000e+00 0.000000e+00
  vertex -1.120906e-01 -7.532587e-01 0.000000e+00
  vertex -2.701674e-01 -8.268169e-01 0.000000e+00
 endloop
endfacet
facet normal 0.000000e+00 1.000000e+00 -0.000000e+00
 outer loop
  vertex -2.500000e-01 -1.000000e+00 0.000000e+00
  vertex -3.750000e-01 -1.000000e+00 2.100000e-01
  vertex -1.250000e-01 -1.000000e+00 2.100000e-01
 endloop
endfacet
facet normal 0.000000e+00 0.000000e+00 1.000000e+00
 outer loop
  vertex -2.135417e-01 1.979167e-01 0.000000e+00
  vertex -9.795823e-03 2.035893e-01 0.000000e+00
  vertex -1.178060e-01 4.211870e-01 0.000000e+00
 endloop
endfacet
facet normal 0.000000e+00 -0.000000e+00 1.000000e+00
 outer loop
  vertex -2.135417e-01 1.979167e-01 0.000000e+00
  vertex -1.178060e-01 4.211870e-01 0.000000e+00
  vertex -3.458403e-01 4.180602e-01 0.000000e+00
 endloop
endfacet
facet normal 0.000000e+00 0.000000e+00 1.000000e+00
 outer loop
  vertex 6.875000e-01 6.875000e-01 0.000000e+00
  vertex 4.152768e-01 7.366661e-01 0.000000e+00
  vertex 3.581657e-01 5.325307e-01 0.000000e+00
 endloop
endfacet
facet normal 0.000000e+00 0.000000e+00 1.000000e+00
 outer loop
  vertex 1.773248e-01 2.844002e-01 0.000000e+00
  vertex -9.795823e-03 2.035893e-01 0.000000e+00
  vertex 2.033121e-01 5.462144e-02 0.000000e+00
 endloop
endfacet
facet normal 0.000000e+00 0.000000e+00 1.000000e+00
 outer loop
  vertex -9.795823e-03 2.035893e-01 0.000000e+00
  vertex 1.773248e-01 2.844002e-01 0.000000e+00
  vertex 3.339262e-02 3.606326e-01 0.000000e+00
 endloop
endfacet
facet normal 0.000000e+00 0.000000e+00 1.000000e+00
 outer loop
  vertex 4.136861e-01 6.250000e-02 0.000000e+00
  vertex 1.773248e-01 2.844002e-01 0.000000e+00
  vertex 2.033121e-01 5.462144e-02 0.000000e+00
 endloop
endfacet
facet normal 0.000000e+00 0.000000e+00 1.000000e+00
 outer loop
  vertex -3.750000e-01 -6.875000e-01 0.000000e+00
  vertex -7.276786e-01 -7.276786e-01 0.000000e+00
  vertex -5.405220e-01 -8.025412e-01 0.000000e+00
 endloop
endfacet
facet normal 0.000000e+00 0.000000e+00 1.000000e+00
 outer loop
  vertex -2.065065e-01 -5.722948e-01 0.000000e+00
  vertex -3.750000e-01 -6.875000e-01 0.000000e+00
  vertex -2.701674e-01 -8.268169e-01 0.000000e+00
 endloop
endfacet
facet normal 0.000000e+00 0.000000e+00 1.000000e+00
 outer loop
  vertex -3.750000e-01 -6.875000e-01 0.000000e+00
  vertex -5.405220e-01 -8.025412e-01 0.000000e+00
  vertex -2.701674e-01 -8.268169e-01 0.000000e+00
 endloop
endfacet
facet normal -0.000000e+00 0.000000e+00 1.000000e+00
 outer loop
  vertex -1.120906e-01 -7.532587e-01 0.000000e+00
  vertex 1.316752e-01 -7.845876e-01 0.000000e+00
  vertex 1.489167e-01 -5.952491e-01 0.000000e+00
 endloop
endfacet
facet normal 0.000000e+00 0.000000e+00 1.000000e+00
 outer loop
  vertex -1.120906e-01 -7.532587e-01 0.000000e+00
  vertex -2.065065e-01 -5.722948e-01 0.000000e+00
  vertex -2.701674e-01 -8.268169e-01 0.000000e+00
 endloop
endfacet
facet normal 0.000000e+00 0.000000e+00 1.000000e+00
 outer loop
  vertex -1.250000e-01 8.188232e-01 0.000000e+00
  vertex -2.500000e-01 1.000000e+00 0.000000e+00
  vertex -4.392857e-01 7.696429e-01 0.000000e+00
 endloop
endfacet
facet normal 0.000000e+00 0.000000e+00 1.000000e+00
 outer loop
  vertex 4.152768e-01 7.366661e-01 0.000000e+00
  vertex 2.500000e-01 1.000000e+00 0.000000e+00
  vertex 1.250000e-01 8.281038e-01 0.000000e+00
 endloop
endfacet
facet normal 0.000000e+00 0.000000e+00 1.000000e+00
 outer loop
  vertex -1.178060e-01 4.211870e-01 0.000000e+00
  vertex -9.795823e-03 2.035893e-01 0.000000e+00
  vertex 3.339262e-02 3.606326e-01 0.000000e+00
 endloop
endfacet
facet normal 0.000000e+00 -0.000000e+00 1.000000e+00
 outer loop
  vertex 2.578216e-01 -1.487206e-01 0.000000e+00
  vertex 4.136861e-01 6.250000e-02 0.000000e+00
  vertex 2.033121e-01 5.462144e-02 0.000000e+00
 endloop
endfacet
facet normal 0.000000e+00 0.000000e+00 1.000000e+00
 outer loop
  vertex -4.271626e-02 6.146679e-01 0.000000e+00
  vertex -1.178060e-01 4.211870e-01 0.000000e+00
  vertex 3.339262e-02 3.606326e-01 0.000000e+00
 endloop
endfacet
facet normal 0.000000e+00 -0.000000e+00 1.000000e+00
 outer loop
  vertex -4.271626e-02 6.146679e-01 0.000000e+00
  vertex 1.250000e-01 8.281038e-01 0.000000e+00
  vertex -1.250000e-01 8.188232e-01 0.000000e+00
 endloop
endfacet
facet normal 0.000000e+00 -0.000000e+00 1.000000e+00
 outer loop
  vertex 2.500000e-01 -1.000000e+00 0.000000e+00
  vertex 3.750000e-01 -7.500000e-01 0.000000e+00
  vertex 1.316752e-01 -7.845876e-01 0.000000e+00
 endloop
endfacet
facet normal 0.000000e+00 0.000000e+00 1.000000e+00
 outer loop
  vertex -6.775568e-01 -9.090910e-02 0.000000e+00
  vertex -7.473039e-01 3.803922e-01 0.000000e+00
  vertex -1.000000e+00 2.500000e-01 0.000000e+00
 endloop
endfacet
facet normal 0.000000e+00 0.000000e+00 1.000000e+00
 outer loop
  vertex 6.250000e-01 -6.250000e-01 0.000000e+00
  vertex 4.944608e-01 -4.601797e-01 0.000000e+00
  vertex 3.750000e-01 -7.500000e-01 0.000000e+00
 endloop
endfacet
facet normal 0.000000e+00 -0.000000e+00 1.000000e+00
 outer loop
  vertex 6.250000e-01 -6.250000e-01 0.000000e+00
  vertex 7.555081e-01 -3.750000e-01 0.000000e+00
  vertex 4.944608e-01 -4.601797e-01 0.000000e+00
 endloop
endfacet
facet normal -0.000000e+00 0.000000e+00 -1.000000e+00
 outer loop
  vertex 1.000000e+00 -2.500000e-01 4.200000e-01
  vertex 5.839800e-01 -5.839800e-01 4.200000e-01
  vertex 5.912873e-01 -3.677005e-02 4.200000e-01
 endloop
endfacet
facet normal 0.000000e+00 -0.000000e+00 1.000000e+00
 outer loop
  vertex 3.750000e-01 -7.500000e-01 0.000000e+00
  vertex 4.944608e-01 -4.601797e-01 0.000000e+00
  vertex 2.842134e-01 -4.616783e-01 0.000000e+00
 endloop
endfacet
facet normal 0.000000e+00 0.000000e+00 1.000000e+00
 outer loop
  vertex 3.750000e-01 -7.500000e-01 0.000000e+00
  vertex 2.842134e-01 -4.616783e-01 0.000000e+00
  vertex 1.489167e-01 -5.952491e-01 0.000000e+00
 endloop
endfacet
facet normal 0.000000e+00 0.000000e+00 1.000000e+00
 outer loop
  vertex 1.316752e-01 -7.845876e-01 0.000000e+00
  vertex 3.750000e-01 -7.500000e-01 0.000000e+00
  vertex 1.489167e-01 -5.952491e-01 0.000000e+00
 endloop
endfacet
facet normal 0.000000e+00 0.000000e+00 1.000000e+00
 outer loop
  vertex 2.842134e-01 -4.616783e-01 0.000000e+00
  vertex 2.578216e-01 -1.487206e-01 0.000000e+00
  vertex 1.582921e-01 -2.504741e-01 0.000000e+00
 endloop
endfacet
facet normal 0.000000e+00 0.000000e+00 1.000000e+00
 outer loop
  vertex 2.842134e-01 -4.616783e-01 0.000000e+00
  vertex 1.582921e-01 -2.504741e-01 0.000000e+00
  vertex 8.737993e-02 -3.864212e-01 0.000000e+00
 endloop
endfacet
facet normal 0.000000e+00 0.000000e+00 1.000000e+00
 outer loop
  vertex 2.842134e-01 -4.616783e-01 0.000000e+00
  vertex 8.737993e-02 -3.864212e-01 0.000000e+00
  vertex 1.489167e-01 -5.952491e-01 0.000000e+00
 endloop
endfacet
facet normal 0.000000e+00 0.000000e+00 1.000000e+00
 outer loop
  vertex 1.029726e-01 -1.193267e-01 0.000000e+00
  vertex 1.595512e-02 -2.507427e-01 0.000000e+00
  vertex 1.582921e-01 -2.504741e-01 0.000000e+00
 endloop
endfacet
facet normal 0.000000e+00 0.000000e+00 1.000000e+00
 outer loop
  vertex 1.582921e-01 -2.504741e-01 0.000000e+00
  vertex 1.595512e-02 -2.507427e-01 0.000000e+00
  vertex 8.737993e-02 -3.864212e-01 0.000000e+00
 endloop
endfacet
facet normal 0.000000e+00 0.000000e+00 1.000000e+00
 outer loop
  vertex -5.405220e-01 -8.025412e-01 0.000000e+00
  vertex -7.276786e-01 -7.276786e-01 0.000000e+00
  vertex -7.500000e-01 -1.000000e+00 0.000000e+00
 endloop
endfacet
facet normal -0.000000e+00 0.000000e+00 1.000000e+00
 outer loop
  vertex -6.375000e-01 6.375000e-01 0.000000e+00
  vertex -3.458403e-01 4.180602e-01 0.000000e+00
  vertex -4.392857e-01 7.696429e-01 0.000000e+00
 endloop
endfacet
facet normal 0.000000e+00 0.000000e+00 1.000000e+00
 outer loop
  vertex 2.578216e-01 -1.487206e-01 0.000000e+00
  vertex 2.033121e-01 5.462144e-02 0.000000e+00
  vertex 1.029726e-01 -1.193267e-01 0.000000e+00
 endloop
endfacet
facet normal 0.000000e+00 0.000000e+00 1.000000e+00
 outer loop
  vertex 2.578216e-01 -1.487206e-01 0.000000e+00
  vertex 1.029726e-01 -1.193267e-01 0.000000e+00
  vertex 1.582921e-01 -2.504741e-01 0.000000e+00
 endloop
endfacet
facet normal 0.000000e+00 -0.000000e+00 -1.000000e+00
 outer loop
  vertex 2.466334e-02 -4.708455e-01 4.200000e-01
  vertex 2.093445e-01 -6.759779e-01 4.200000e-01
  vertex -8.817487e-02 -7.307383e-01 4.200000e-01
 endloop
endfacet
facet normal 0.000000e+00 0.000000e+00 -1.000000e+00
 outer loop
  vertex -6.160328e-02 -2.086538e-01 4.200000e-01
  vertex 1.223930e-01 8.367587e-02 4.200000e-01
  vertex 1.373072e-01 -1.297811e-01 4.200000e-01
 endloop
endfacet
facet normal 0.000000e+00 0.000000e+00 -1.000000e+00
 outer loop
  vertex 1.373072e-01 -1.297811e-01 4.200000e-01
  vertex 1.223930e-01 8.367587e-02 4.200000e-01
  vertex 5.912873e-01 -3.677005e-02 4.200000e-01
 endloop
endfacet
facet normal 0.000000e+00 0.000000e+00 -1.000000e+00
 outer loop
  vertex -6.160328e-02 -2.086538e-01 4.200000e-01
  vertex 1.373072e-01 -1.297811e-01 4.200000e-01
  vertex 2.466334e-02 -4.708455e-01 4.200000e-01
 endloop
endfacet
facet normal 0.000000e+00 0.000000e+00 -1.000000e+00
 outer loop
  vertex -3.677595e-01 -7.526906e-01 4.200000e-01
  vertex -8.817487e-02 -7.307383e-01 4.200000e-01
  vertex -2.500000e-01 -1.000000e+00 4.200000e-01
 endloop
endfacet
facet normal 0.000000e+00 0.000000e+00 -1.000000e+00
 outer loop
  vertex -3.677595e-01 -7.526906e-01 4.200000e-01
  vertex -7.221841e-01 -7.221841e-01 4.200000e-01
  vertex -5.266583e-01 -5.246700e-01 4.200000e-01
 endloop
endfacet
facet normal 0.000000e+00 1.000000e+00 0.000000e+00
 outer loop
  vertex -2.500000e-01 -1.000000e+00 4.200000e-01
  vertex -1.250000e-01 -1.000000e+00 2.100000e-01
  vertex -3.750000e-01 -1.000000e+00 2.100000e-01
 endloop
endfacet
endsolid 
