solid 
facet normal -1.000000e+00 0.000000e+00 0.000000e+00
 outer loop
  vertex 2.782564e-01 7.289097e-01 -1.716909e-01
  vertex 2.782564e-01 4.578195e-01 -1.716909e-01
  vertex 2.782564e-01 4.578195e-01 1.212318e-01
 endloop
endfacet
facet normal 0.000000e+00 -0.000000e+00 1.000000e+00
 outer loop
  vertex 2.782564e-01 4.578195e-01 -1.716909e-01
  vertex 2.782564e-01 7.289097e-01 -1.716909e-01
  vertex -4.130769e-02 4.578195e-01 -1.716909e-01
 endloop
endfacet
facet normal 0.000000e+00 1.000000e+00 -0.000000e+00
 outer loop
  vertex 2.782564e-01 4.578195e-01 -1.716909e-01
  vertex -4.130769e-02 4.578195e-01 -1.716909e-01
  vertex 2.782564e-01 4.578195e-01 1.212318e-01
 endloop
endfacet
facet normal 1.000000e+00 0.000000e+00 0.000000e+00
 outer loop
  vertex -1.000000e+00 1.000000e+00 1.000000e+00
  vertex -1.000000e+00 7.289097e-01 1.000000e+00
  vertex -1.000000e+00 1.000000e+00 7.070773e-01
 endloop
endfacet
facet normal 0.000000e+00 0.000000e+00 -1.000000e+00
 outer loop
  vertex -1.000000e+00 7.289097e-01 1.000000e+00
  vertex -1.000000e+00 1.000000e+00 1.000000e+00
  vertex -6.804359e-01 1.000000e+00 1.000000e+00
 endloop
endfacet
facet normal 0.000000e+00 -1.000000e+00 0.000000e+00
 outer loop
  vertex -1.000000e+00 1.000000e+00 1.000000e+00
  vertex -1.000000e+00 1.000000e+00 7.070773e-01
  vertex -6.804359e-01 1.000000e+00 1.000000e+00
 endloop
endfacet
facet normal -0.000000e+00 -0.000000e+00 -1.000000e+00
 outer loop
  vertex 2.782564e-01 1.000000e+00 1.000000e+00
  vertex 2.782564e-01 7.289097e-01 1.000000e+00
  vertex -4.130769e-02 1.000000e+00 1.000000e+00
 endloop
endfacet
facet normal -1.000000e+00 0.000000e+00 0.000000e+00
 outer loop
  vertex 2.782564e-01 7.289097e-01 1.000000e+00
  vertex 2.782564e-01 1.000000e+00 1.000000e+00
  vertex 2.782564e-01 1.000000e+00 7.070773e-01
 endloop
endfacet
facet normal -0.000000e+00 -1.000000e+00 -0.000000e+00
 outer loop
  vertex 2.782564e-01 1.000000e+00 1.000000e+00
  vertex -4.130769e-02 1.000000e+00 1.000000e+00
  vertex 2.782564e-01 1.000000e+00 7.070773e-01
 endloop
endfacet
facet normal -1.000000e+00 0.000000e+00 0.000000e+00
 outer loop
  vertex 2.782564e-01 1.000000e+00 -1.716909e-01
  vertex 2.782564e-01 7.289097e-01 -1.716909e-01
  vertex 2.782564e-01 1.000000e+00 1.212318e-01
 endloop
endfacet
facet normal 0.000000e+00 -0.000000e+00 1.000000e+00
 outer loop
  vertex 2.782564e-01 7.289097e-01 -1.716909e-01
  vertex 2.782564e-01 1.000000e+00 -1.716909e-01
  vertex -4.130769e-02 1.000000e+00 -1.716909e-01
 endloop
endfacet
facet normal 0.000000e+00 -1.000000e+00 0.000000e+00
 outer loop
  vertex 2.782564e-01 1.000000e+00 -1.716909e-01
  vertex 2.782564e-01 1.000000e+00 1.212318e-01
  vertex -4.130769e-02 1.000000e+00 -1.716909e-01
 endloop
endfacet
facet normal 0.000000e+00 -0.000000e+00 -1.000000e+00
 outer loop
  vertex 2.782564e-01 7.289097e-01 1.000000e+00
  vertex 2.782564e-01 4.578195e-01 1.000000e+00
  vertex -4.130769e-02 4.578195e-01 1.000000e+00
 endloop
endfacet
facet normal -1.000000e+00 0.000000e+00 0.000000e+00
 outer loop
  vertex 2.782564e-01 4.578195e-01 1.000000e+00
  vertex 2.782564e-01 7.289097e-01 1.000000e+00
  vertex 2.782564e-01 4.578195e-01 7.070773e-01
 endloop
endfacet
facet normal 0.000000e+00 1.000000e+00 0.000000e+00
 outer loop
  vertex 2.782564e-01 4.578195e-01 1.000000e+00
  vertex 2.782564e-01 4.578195e-01 7.070773e-01
  vertex -4.130769e-02 4.578195e-01 1.000000e+00
 endloop
endfacet
facet normal 1.000000e+00 0.000000e+00 0.000000e+00
 outer loop
  vertex -1.000000e+00 4.578195e-01 -1.716909e-01
  vertex -1.000000e+00 7.289097e-01 -1.716909e-01
  vertex -1.000000e+00 4.578195e-01 1.212318e-01
 endloop
endfacet
facet normal 0.000000e+00 0.000000e+00 1.000000e+00
 outer loop
  vertex -1.000000e+00 7.289097e-01 -1.716909e-01
  vertex -1.000000e+00 4.578195e-01 -1.716909e-01
  vertex -6.804359e-01 4.578195e-01 -1.716909e-01
 endloop
endfacet
facet normal 0.000000e+00 1.000000e+00 0.000000e+00
 outer loop
  vertex -1.000000e+00 4.578195e-01 -1.716909e-01
  vertex -1.000000e+00 4.578195e-01 1.212318e-01
  vertex -6.804359e-01 4.578195e-01 -1.716909e-01
 endloop
endfacet
facet normal 1.000000e+00 0.000000e+00 0.000000e+00
 outer loop
  vertex -1.000000e+00 7.289097e-01 1.000000e+00
  vertex -1.000000e+00 4.578195e-01 1.000000e+00
  vertex -1.000000e+00 4.578195e-01 7.070773e-01
 endloop
endfacet
facet normal 0.000000e+00 0.000000e+00 -1.000000e+00
 outer loop
  vertex -1.000000e+00 4.578195e-01 1.000000e+00
  vertex -1.000000e+00 7.289097e-01 1.000000e+00
  vertex -6.804359e-01 4.578195e-01 1.000000e+00
 endloop
endfacet
facet normal -0.000000e+00 1.000000e+00 0.000000e+00
 outer loop
  vertex -1.000000e+00 4.578195e-01 1.000000e+00
  vertex -6.804359e-01 4.578195e-01 1.000000e+00
  vertex -1.000000e+00 4.578195e-01 7.070773e-01
 endloop
endfacet
facet normal -0.000000e+00 0.000000e+00 1.000000e+00
 outer loop
  vertex -1.000000e+00 1.000000e+00 -1.716909e-01
  vertex -1.000000e+00 7.289097e-01 -1.716909e-01
  vertex -6.804359e-01 1.000000e+00 -1.716909e-01
 endloop
endfacet
facet normal 1.000000e+00 0.000000e+00 0.000000e+00
 outer loop
  vertex -1.000000e+00 7.289097e-01 -1.716909e-01
  vertex -1.000000e+00 1.000000e+00 -1.716909e-01
  vertex -1.000000e+00 1.000000e+00 1.212318e-01
 endloop
endfacet
facet normal 0.000000e+00 -1.000000e+00 0.000000e+00
 outer loop
  vertex -1.000000e+00 1.000000e+00 -1.716909e-01
  vertex -6.804359e-01 1.000000e+00 -1.716909e-01
  vertex -1.000000e+00 1.000000e+00 1.212318e-01
 endloop
endfacet
facet normal 0.000000e+00 0.000000e+00 -1.000000e+00
 outer loop
  vertex -4.130769e-02 1.000000e+00 1.000000e+00
  vertex 2.782564e-01 7.289097e-01 1.000000e+00
  vertex -4.130769e-02 4.578195e-01 1.000000e+00
 endloop
endfacet
facet normal -1.000000e+00 0.000000e+00 0.000000e+00
 outer loop
  vertex 2.782564e-01 4.578195e-01 7.070773e-01
  vertex 2.782564e-01 7.289097e-01 1.000000e+00
  vertex 2.782564e-01 1.000000e+00 7.070773e-01
 endloop
endfacet
facet normal -1.000000e+00 0.000000e+00 0.000000e+00
 outer loop
  vertex 2.782564e-01 1.000000e+00 1.212318e-01
  vertex 2.782564e-01 4.578195e-01 4.141545e-01
  vertex 2.782564e-01 1.000000e+00 4.141545e-01
 endloop
endfacet
facet normal -1.000000e+00 0.000000e+00 0.000000e+00
 outer loop
  vertex 2.782564e-01 4.578195e-01 4.141545e-01
  vertex 2.782564e-01 1.000000e+00 7.070773e-01
  vertex 2.782564e-01 1.000000e+00 4.141545e-01
 endloop
endfacet
facet normal -1.000000e+00 0.000000e+00 0.000000e+00
 outer loop
  vertex 2.782564e-01 4.578195e-01 4.141545e-01
  vertex 2.782564e-01 1.000000e+00 1.212318e-01
  vertex 2.782564e-01 4.578195e-01 1.212318e-01
 endloop
endfacet
facet normal 0.000000e+00 1.000000e+00 0.000000e+00
 outer loop
  vertex 2.782564e-01 4.578195e-01 4.141545e-01
  vertex 2.782564e-01 4.578195e-01 1.212318e-01
  vertex -2.010897e-01 4.578195e-01 1.373835e-01
 endloop
endfacet
facet normal -1.000000e+00 -0.000000e+00 0.000000e+00
 outer loop
  vertex 2.782564e-01 1.000000e+00 7.070773e-01
  vertex 2.782564e-01 4.578195e-01 4.141545e-01
  vertex 2.782564e-01 4.578195e-01 7.070773e-01
 endloop
endfacet
facet normal 0.000000e+00 1.000000e+00 0.000000e+00
 outer loop
  vertex 2.782564e-01 4.578195e-01 7.070773e-01
  vertex 2.782564e-01 4.578195e-01 4.141545e-01
  vertex -6.683854e-02 4.578195e-01 5.606159e-01
 endloop
endfacet
facet normal 0.000000e+00 1.000000e+00 0.000000e+00
 outer loop
  vertex -6.683854e-02 4.578195e-01 5.606159e-01
  vertex 2.782564e-01 4.578195e-01 4.141545e-01
  vertex -2.010897e-01 4.578195e-01 1.373835e-01
 endloop
endfacet
facet normal 1.000000e+00 -0.000000e+00 0.000000e+00
 outer loop
  vertex -1.000000e+00 4.578195e-01 4.141545e-01
  vertex -1.000000e+00 1.000000e+00 1.212318e-01
  vertex -1.000000e+00 1.000000e+00 4.141545e-01
 endloop
endfacet
facet normal 1.000000e+00 0.000000e+00 0.000000e+00
 outer loop
  vertex -1.000000e+00 1.000000e+00 7.070773e-01
  vertex -1.000000e+00 4.578195e-01 4.141545e-01
  vertex -1.000000e+00 1.000000e+00 4.141545e-01
 endloop
endfacet
facet normal 1.000000e+00 0.000000e+00 0.000000e+00
 outer loop
  vertex -1.000000e+00 1.000000e+00 1.212318e-01
  vertex -1.000000e+00 4.578195e-01 4.141545e-01
  vertex -1.000000e+00 4.578195e-01 1.212318e-01
 endloop
endfacet
facet normal 0.000000e+00 1.000000e+00 0.000000e+00
 outer loop
  vertex -1.000000e+00 4.578195e-01 1.212318e-01
  vertex -1.000000e+00 4.578195e-01 4.141545e-01
  vertex -4.119335e-01 4.578195e-01 4.141545e-01
 endloop
endfacet
facet normal 1.000000e+00 0.000000e+00 0.000000e+00
 outer loop
  vertex -1.000000e+00 4.578195e-01 4.141545e-01
  vertex -1.000000e+00 1.000000e+00 7.070773e-01
  vertex -1.000000e+00 4.578195e-01 7.070773e-01
 endloop
endfacet
facet normal 0.000000e+00 1.000000e+00 0.000000e+00
 outer loop
  vertex -1.000000e+00 4.578195e-01 4.141545e-01
  vertex -1.000000e+00 4.578195e-01 7.070773e-01
  vertex -4.119335e-01 4.578195e-01 4.141545e-01
 endloop
endfacet
facet normal 0.000000e+00 -0.000000e+00 1.000000e+00
 outer loop
  vertex -3.608718e-01 4.578195e-01 -1.716909e-01
  vertex -3.608718e-01 1.000000e+00 -1.716909e-01
  vertex -6.804359e-01 1.000000e+00 -1.716909e-01
 endloop
endfacet
facet normal 0.000000e+00 0.000000e+00 1.000000e+00
 outer loop
  vertex -3.608718e-01 4.578195e-01 -1.716909e-01
  vertex -4.130769e-02 1.000000e+00 -1.716909e-01
  vertex -3.608718e-01 1.000000e+00 -1.716909e-01
 endloop
endfacet
facet normal 0.000000e+00 0.000000e+00 1.000000e+00
 outer loop
  vertex -4.130769e-02 1.000000e+00 -1.716909e-01
  vertex -3.608718e-01 4.578195e-01 -1.716909e-01
  vertex -4.130769e-02 4.578195e-01 -1.716909e-01
 endloop
endfacet
facet normal 0.000000e+00 1.000000e+00 0.000000e+00
 outer loop
  vertex -3.608718e-01 4.578195e-01 -1.716909e-01
  vertex -2.010897e-01 4.578195e-01 1.373835e-01
  vertex -4.130769e-02 4.578195e-01 -1.716909e-01
 endloop
endfacet
facet normal 0.000000e+00 0.000000e+00 1.000000e+00
 outer loop
  vertex -3.608718e-01 4.578195e-01 -1.716909e-01
  vertex -6.804359e-01 1.000000e+00 -1.716909e-01
  vertex -6.804359e-01 4.578195e-01 -1.716909e-01
 endloop
endfacet
facet normal 0.000000e+00 1.000000e+00 -0.000000e+00
 outer loop
  vertex -3.608718e-01 4.578195e-01 -1.716909e-01
  vertex -6.804359e-01 4.578195e-01 -1.716909e-01
  vertex -2.010897e-01 4.578195e-01 1.373835e-01
 endloop
endfacet
facet normal -1.000000e+00 0.000000e+00 0.000000e+00
 outer loop
  vertex 2.782564e-01 7.289097e-01 -1.716909e-01
  vertex 2.782564e-01 4.578195e-01 1.212318e-01
  vertex 2.782564e-01 1.000000e+00 1.212318e-01
 endloop
endfacet
facet normal 0.000000e+00 0.000000e+00 1.000000e+00
 outer loop
  vertex -4.130769e-02 4.578195e-01 -1.716909e-01
  vertex 2.782564e-01 7.289097e-01 -1.716909e-01
  vertex -4.130769e-02 1.000000e+00 -1.716909e-01
 endloop
endfacet
facet normal 0.000000e+00 -1.000000e+00 0.000000e+00
 outer loop
  vertex -3.608718e-01 1.000000e+00 -1.716909e-01
  vertex -7.059667e-01 1.000000e+00 2.676932e-01
  vertex -6.804359e-01 1.000000e+00 -1.716909e-01
 endloop
endfacet
facet normal 0.000000e+00 -1.000000e+00 0.000000e+00
 outer loop
  vertex -3.608718e-01 1.000000e+00 -1.716909e-01
  vertex -4.130769e-02 1.000000e+00 -1.716909e-01
  vertex -4.119335e-01 1.000000e+00 4.141545e-01
 endloop
endfacet
facet normal 0.000000e+00 -1.000000e+00 0.000000e+00
 outer loop
  vertex -3.608718e-01 1.000000e+00 -1.716909e-01
  vertex -4.119335e-01 1.000000e+00 4.141545e-01
  vertex -7.059667e-01 1.000000e+00 2.676932e-01
 endloop
endfacet
facet normal 1.000000e+00 0.000000e+00 0.000000e+00
 outer loop
  vertex -1.000000e+00 7.289097e-01 1.000000e+00
  vertex -1.000000e+00 4.578195e-01 7.070773e-01
  vertex -1.000000e+00 1.000000e+00 7.070773e-01
 endloop
endfacet
facet normal 0.000000e+00 0.000000e+00 -1.000000e+00
 outer loop
  vertex -1.000000e+00 7.289097e-01 1.000000e+00
  vertex -6.804359e-01 1.000000e+00 1.000000e+00
  vertex -6.804359e-01 4.578195e-01 1.000000e+00
 endloop
endfacet
facet normal 0.000000e+00 -1.000000e+00 0.000000e+00
 outer loop
  vertex -1.000000e+00 1.000000e+00 1.212318e-01
  vertex -7.059667e-01 1.000000e+00 2.676932e-01
  vertex -1.000000e+00 1.000000e+00 4.141545e-01
 endloop
endfacet
facet normal 0.000000e+00 -1.000000e+00 0.000000e+00
 outer loop
  vertex -1.000000e+00 1.000000e+00 7.070773e-01
  vertex -1.000000e+00 1.000000e+00 4.141545e-01
  vertex -7.059667e-01 1.000000e+00 2.676932e-01
 endloop
endfacet
facet normal -0.000000e+00 0.000000e+00 -1.000000e+00
 outer loop
  vertex -4.130769e-02 1.000000e+00 1.000000e+00
  vertex -3.608718e-01 4.578195e-01 1.000000e+00
  vertex -3.608718e-01 1.000000e+00 1.000000e+00
 endloop
endfacet
facet normal 0.000000e+00 0.000000e+00 -1.000000e+00
 outer loop
  vertex -3.608718e-01 4.578195e-01 1.000000e+00
  vertex -6.804359e-01 1.000000e+00 1.000000e+00
  vertex -3.608718e-01 1.000000e+00 1.000000e+00
 endloop
endfacet
facet normal 0.000000e+00 0.000000e+00 -1.000000e+00
 outer loop
  vertex -3.608718e-01 4.578195e-01 1.000000e+00
  vertex -4.130769e-02 1.000000e+00 1.000000e+00
  vertex -4.130769e-02 4.578195e-01 1.000000e+00
 endloop
endfacet
facet normal -0.000000e+00 1.000000e+00 0.000000e+00
 outer loop
  vertex -3.608718e-01 4.578195e-01 1.000000e+00
  vertex -4.130769e-02 4.578195e-01 1.000000e+00
  vertex -6.683854e-02 4.578195e-01 5.606159e-01
 endloop
endfacet
facet normal 0.000000e+00 0.000000e+00 -1.000000e+00
 outer loop
  vertex -6.804359e-01 1.000000e+00 1.000000e+00
  vertex -3.608718e-01 4.578195e-01 1.000000e+00
  vertex -6.804359e-01 4.578195e-01 1.000000e+00
 endloop
endfacet
facet normal 0.000000e+00 1.000000e+00 0.000000e+00
 outer loop
  vertex -3.608718e-01 4.578195e-01 1.000000e+00
  vertex -4.119335e-01 4.578195e-01 4.141545e-01
  vertex -6.804359e-01 4.578195e-01 1.000000e+00
 endloop
endfacet
facet normal 0.000000e+00 1.000000e+00 0.000000e+00
 outer loop
  vertex -3.608718e-01 4.578195e-01 1.000000e+00
  vertex -6.683854e-02 4.578195e-01 5.606159e-01
  vertex -4.119335e-01 4.578195e-01 4.141545e-01
 endloop
endfacet
facet normal 0.000000e+00 -1.000000e+00 0.000000e+00
 outer loop
  vertex 2.782564e-01 1.000000e+00 1.212318e-01
  vertex 2.782564e-01 1.000000e+00 4.141545e-01
  vertex -6.683854e-02 1.000000e+00 5.606159e-01
 endloop
endfacet
facet normal 0.000000e+00 -1.000000e+00 -0.000000e+00
 outer loop
  vertex 2.782564e-01 1.000000e+00 7.070773e-01
  vertex -6.683854e-02 1.000000e+00 5.606159e-01
  vertex 2.782564e-01 1.000000e+00 4.141545e-01
 endloop
endfacet
facet normal 1.000000e+00 -0.000000e+00 0.000000e+00
 outer loop
  vertex -1.000000e+00 4.578195e-01 1.212318e-01
  vertex -1.000000e+00 7.289097e-01 -1.716909e-01
  vertex -1.000000e+00 1.000000e+00 1.212318e-01
 endloop
endfacet
facet normal 0.000000e+00 0.000000e+00 1.000000e+00
 outer loop
  vertex -6.804359e-01 1.000000e+00 -1.716909e-01
  vertex -1.000000e+00 7.289097e-01 -1.716909e-01
  vertex -6.804359e-01 4.578195e-01 -1.716909e-01
 endloop
endfacet
facet normal -0.000000e+00 -1.000000e+00 0.000000e+00
 outer loop
  vertex -4.130769e-02 1.000000e+00 1.000000e+00
  vertex -3.608718e-01 1.000000e+00 1.000000e+00
  vertex -6.683854e-02 1.000000e+00 5.606159e-01
 endloop
endfacet
facet normal 0.000000e+00 -1.000000e+00 0.000000e+00
 outer loop
  vertex -4.119335e-01 1.000000e+00 4.141545e-01
  vertex -3.608718e-01 1.000000e+00 1.000000e+00
  vertex -6.804359e-01 1.000000e+00 1.000000e+00
 endloop
endfacet
facet normal 0.000000e+00 -1.000000e+00 -0.000000e+00
 outer loop
  vertex -3.608718e-01 1.000000e+00 1.000000e+00
  vertex -4.119335e-01 1.000000e+00 4.141545e-01
  vertex -6.683854e-02 1.000000e+00 5.606159e-01
 endloop
endfacet
facet normal 0.000000e+00 1.000000e+00 0.000000e+00
 outer loop
  vertex 2.782564e-01 4.578195e-01 1.212318e-01
  vertex -4.130769e-02 4.578195e-01 -1.716909e-01
  vertex -2.010897e-01 4.578195e-01 1.373835e-01
 endloop
endfacet
facet normal 0.000000e+00 1.000000e+00 -0.000000e+00
 outer loop
  vertex -6.804359e-01 4.578195e-01 -1.716909e-01
  vertex -1.000000e+00 4.578195e-01 1.212318e-01
  vertex -4.119335e-01 4.578195e-01 4.141545e-01
 endloop
endfacet
facet normal 0.000000e+00 -1.000000e+00 0.000000e+00
 outer loop
  vertex -6.804359e-01 1.000000e+00 -1.716909e-01
  vertex -7.059667e-01 1.000000e+00 2.676932e-01
  vertex -1.000000e+00 1.000000e+00 1.212318e-01
 endloop
endfacet
facet normal 0.000000e+00 1.000000e+00 0.000000e+00
 outer loop
  vertex -4.130769e-02 4.578195e-01 1.000000e+00
  vertex 2.782564e-01 4.578195e-01 7.070773e-01
  vertex -6.683854e-02 4.578195e-01 5.606159e-01
 endloop
endfacet
facet normal 0.000000e+00 -1.000000e+00 0.000000e+00
 outer loop
  vertex -4.130769e-02 1.000000e+00 -1.716909e-01
  vertex 2.782564e-01 1.000000e+00 1.212318e-01
  vertex -6.683854e-02 1.000000e+00 5.606159e-01
 endloop
endfacet
facet normal 0.000000e+00 -1.000000e+00 -0.000000e+00
 outer loop
  vertex -4.130769e-02 1.000000e+00 1.000000e+00
  vertex -6.683854e-02 1.000000e+00 5.606159e-01
  vertex 2.782564e-01 1.000000e+00 7.070773e-01
 endloop
endfacet
facet normal -0.000000e+00 1.000000e+00 0.000000e+00
 outer loop
  vertex -1.000000e+00 4.578195e-01 7.070773e-01
  vertex -6.804359e-01 4.578195e-01 1.000000e+00
  vertex -4.119335e-01 4.578195e-01 4.141545e-01
 endloop
endfacet
facet normal 0.000000e+00 1.000000e+00 0.000000e+00
 outer loop
  vertex -6.804359e-01 4.578195e-01 -1.716909e-01
  vertex -4.119335e-01 4.578195e-01 4.141545e-01
  vertex -2.010897e-01 4.578195e-01 1.373835e-01
 endloop
endfacet
facet normal 0.000000e+00 -1.000000e+00 0.000000e+00
 outer loop
  vertex -4.119335e-01 1.000000e+00 4.141545e-01
  vertex -4.130769e-02 1.000000e+00 -1.716909e-01
  vertex -6.683854e-02 1.000000e+00 5.606159e-01
 endloop
endfacet
facet normal 0.000000e+00 -1.000000e+00 -0.000000e+00
 outer loop
  vertex -6.804359e-01 1.000000e+00 1.000000e+00
  vertex -1.000000e+00 1.000000e+00 7.070773e-01
  vertex -4.119335e-01 1.000000e+00 4.141545e-01
 endloop
endfacet
facet normal -0.000000e+00 -1.000000e+00 0.000000e+00
 outer loop
  vertex -4.119335e-01 1.000000e+00 4.141545e-01
  vertex -1.000000e+00 1.000000e+00 7.070773e-01
  vertex -7.059667e-01 1.000000e+00 2.676932e-01
 endloop
endfacet
facet normal -0.000000e+00 1.000000e+00 0.000000e+00
 outer loop
  vertex -4.119335e-01 4.578195e-01 4.141545e-01
  vertex -6.683854e-02 4.578195e-01 5.606159e-01
  vertex -2.010897e-01 4.578195e-01 1.373835e-01
 endloop
endfacet
endsolid 
