solid 
facet normal 1.000000e+00 0.000000e+00 0.000000e+00
 outer loop
  vertex -8.511779e-01 1.122292e-01 -3.710312e-01
  vertex -8.511779e-01 3.341719e-01 -3.710312e-01
  vertex -8.511779e-01 3.054269e-01 -1.788553e-01
 endloop
endfacet
facet normal 0.000000e+00 0.000000e+00 1.000000e+00
 outer loop
  vertex -8.511779e-01 3.341719e-01 -3.710312e-01
  vertex -8.511779e-01 1.122292e-01 -3.710312e-01
  vertex -6.197807e-01 1.122292e-01 -3.710312e-01
 endloop
endfacet
facet normal 1.000000e+00 -0.000000e+00 0.000000e+00
 outer loop
  vertex -8.511779e-01 1.122292e-01 -1.996523e-01
  vertex -8.511779e-01 1.122292e-01 -3.710312e-01
  vertex -8.511779e-01 3.054269e-01 -1.788553e-01
 endloop
endfacet
facet normal 0.000000e+00 1.000000e+00 0.000000e+00
 outer loop
  vertex -8.511779e-01 1.122292e-01 -3.710312e-01
  vertex -8.511779e-01 1.122292e-01 -1.996523e-01
  vertex -6.197807e-01 1.122292e-01 -3.710312e-01
 endloop
endfacet
facet normal -1.000000e+00 0.000000e+00 0.000000e+00
 outer loop
  vertex 1.000000e+00 7.780573e-01 1.000000e+00
  vertex 1.000000e+00 1.000000e+00 1.000000e+00
  vertex 1.000000e+00 1.000000e+00 8.286211e-01
 endloop
endfacet
facet normal -0.000000e+00 -0.000000e+00 -1.000000e+00
 outer loop
  vertex 1.000000e+00 1.000000e+00 1.000000e+00
  vertex 1.000000e+00 7.780573e-01 1.000000e+00
  vertex 7.872055e-01 1.000000e+00 1.000000e+00
 endloop
endfacet
facet normal -0.000000e+00 -1.000000e+00 -0.000000e+00
 outer loop
  vertex 1.000000e+00 1.000000e+00 1.000000e+00
  vertex 7.872055e-01 1.000000e+00 1.000000e+00
  vertex 1.000000e+00 1.000000e+00 8.286211e-01
 endloop
endfacet
facet normal 1.000000e+00 0.000000e+00 -0.000000e+00
 outer loop
  vertex -8.511779e-01 1.000000e+00 8.286211e-01
  vertex -8.511779e-01 1.000000e+00 1.000000e+00
  vertex -8.511779e-01 7.780573e-01 1.000000e+00
 endloop
endfacet
facet normal 0.000000e+00 0.000000e+00 -1.000000e+00
 outer loop
  vertex -8.511779e-01 1.000000e+00 1.000000e+00
  vertex -6.011779e-01 1.000000e+00 1.000000e+00
  vertex -8.511779e-01 7.780573e-01 1.000000e+00
 endloop
endfacet
facet normal 0.000000e+00 -1.000000e+00 0.000000e+00
 outer loop
  vertex -8.511779e-01 1.000000e+00 1.000000e+00
  vertex -8.511779e-01 1.000000e+00 8.286211e-01
  vertex -6.011779e-01 1.000000e+00 1.000000e+00
 endloop
endfacet
facet normal 1.000000e+00 0.000000e+00 0.000000e+00
 outer loop
  vertex -8.511779e-01 3.341719e-01 1.000000e+00
  vertex -8.511779e-01 1.122292e-01 1.000000e+00
  vertex -8.511779e-01 1.122292e-01 8.286211e-01
 endloop
endfacet
facet normal 0.000000e+00 0.000000e+00 -1.000000e+00
 outer loop
  vertex -8.511779e-01 1.122292e-01 1.000000e+00
  vertex -8.511779e-01 3.341719e-01 1.000000e+00
  vertex -6.011779e-01 1.122292e-01 1.000000e+00
 endloop
endfacet
facet normal -0.000000e+00 1.000000e+00 0.000000e+00
 outer loop
  vertex -8.511779e-01 1.122292e-01 1.000000e+00
  vertex -6.011779e-01 1.122292e-01 1.000000e+00
  vertex -8.511779e-01 1.122292e-01 8.286211e-01
 endloop
endfacet
facet normal 1.000000e+00 0.000000e+00 -0.000000e+00
 outer loop
  vertex -8.511779e-01 1.000000e+00 -3.710312e-01
  vertex -8.511779e-01 1.000000e+00 -2.827337e-02
  vertex -8.511779e-01 7.332533e-01 -1.416293e-01
 endloop
endfacet
facet normal 0.000000e+00 -1.000000e+00 0.000000e+00
 outer loop
  vertex -8.511779e-01 1.000000e+00 -2.827337e-02
  vertex -8.511779e-01 1.000000e+00 -3.710312e-01
  vertex -3.883834e-01 1.000000e+00 -3.710312e-01
 endloop
endfacet
facet normal 1.000000e+00 0.000000e+00 0.000000e+00
 outer loop
  vertex -8.511779e-01 1.000000e+00 -3.710312e-01
  vertex -8.511779e-01 7.332533e-01 -1.416293e-01
  vertex -8.511779e-01 7.780573e-01 -3.710312e-01
 endloop
endfacet
facet normal -0.000000e+00 0.000000e+00 1.000000e+00
 outer loop
  vertex -8.511779e-01 1.000000e+00 -3.710312e-01
  vertex -6.304513e-01 6.670860e-01 -3.710312e-01
  vertex -3.883834e-01 1.000000e+00 -3.710312e-01
 endloop
endfacet
facet normal 0.000000e+00 0.000000e+00 1.000000e+00
 outer loop
  vertex -8.511779e-01 1.000000e+00 -3.710312e-01
  vertex -8.511779e-01 7.780573e-01 -3.710312e-01
  vertex -6.304513e-01 6.670860e-01 -3.710312e-01
 endloop
endfacet
facet normal -1.000000e+00 0.000000e+00 0.000000e+00
 outer loop
  vertex 1.000000e+00 1.122292e-01 1.000000e+00
  vertex 1.000000e+00 3.341719e-01 1.000000e+00
  vertex 1.000000e+00 2.805872e-01 8.399925e-01
 endloop
endfacet
facet normal 0.000000e+00 -0.000000e+00 -1.000000e+00
 outer loop
  vertex 1.000000e+00 3.341719e-01 1.000000e+00
  vertex 1.000000e+00 1.122292e-01 1.000000e+00
  vertex 7.872055e-01 1.122292e-01 1.000000e+00
 endloop
endfacet
facet normal -1.000000e+00 0.000000e+00 0.000000e+00
 outer loop
  vertex 1.000000e+00 1.122292e-01 8.286211e-01
  vertex 1.000000e+00 1.122292e-01 1.000000e+00
  vertex 1.000000e+00 2.805872e-01 8.399925e-01
 endloop
endfacet
facet normal 0.000000e+00 1.000000e+00 0.000000e+00
 outer loop
  vertex 1.000000e+00 1.122292e-01 1.000000e+00
  vertex 1.000000e+00 1.122292e-01 8.286211e-01
  vertex 7.872055e-01 1.122292e-01 1.000000e+00
 endloop
endfacet
facet normal -1.000000e+00 0.000000e+00 0.000000e+00
 outer loop
  vertex 1.000000e+00 1.122292e-01 -1.996523e-01
  vertex 1.000000e+00 3.341719e-01 -3.710312e-01
  vertex 1.000000e+00 1.122292e-01 -3.710312e-01
 endloop
endfacet
facet normal 0.000000e+00 -0.000000e+00 1.000000e+00
 outer loop
  vertex 1.000000e+00 1.122292e-01 -3.710312e-01
  vertex 1.000000e+00 3.341719e-01 -3.710312e-01
  vertex 7.686028e-01 1.122292e-01 -3.710312e-01
 endloop
endfacet
facet normal 0.000000e+00 1.000000e+00 0.000000e+00
 outer loop
  vertex 1.000000e+00 1.122292e-01 -1.996523e-01
  vertex 1.000000e+00 1.122292e-01 -3.710312e-01
  vertex 7.990031e-01 1.122292e-01 -1.701713e-01
 endloop
endfacet
facet normal 0.000000e+00 1.000000e+00 0.000000e+00
 outer loop
  vertex 1.000000e+00 1.122292e-01 -3.710312e-01
  vertex 7.686028e-01 1.122292e-01 -3.710312e-01
  vertex 7.990031e-01 1.122292e-01 -1.701713e-01
 endloop
endfacet
facet normal -1.000000e+00 0.000000e+00 0.000000e+00
 outer loop
  vertex 1.000000e+00 1.000000e+00 -3.710312e-01
  vertex 1.000000e+00 7.780573e-01 -3.710312e-01
  vertex 1.000000e+00 8.332755e-01 -1.829184e-01
 endloop
endfacet
facet normal 0.000000e+00 -0.000000e+00 1.000000e+00
 outer loop
  vertex 1.000000e+00 7.780573e-01 -3.710312e-01
  vertex 1.000000e+00 1.000000e+00 -3.710312e-01
  vertex 7.686028e-01 1.000000e+00 -3.710312e-01
 endloop
endfacet
facet normal -1.000000e+00 -0.000000e+00 -0.000000e+00
 outer loop
  vertex 1.000000e+00 1.000000e+00 -1.996523e-01
  vertex 1.000000e+00 1.000000e+00 -3.710312e-01
  vertex 1.000000e+00 8.332755e-01 -1.829184e-01
 endloop
endfacet
facet normal 0.000000e+00 -1.000000e+00 0.000000e+00
 outer loop
  vertex 1.000000e+00 1.000000e+00 -3.710312e-01
  vertex 1.000000e+00 1.000000e+00 -1.996523e-01
  vertex 7.686028e-01 1.000000e+00 -3.710312e-01
 endloop
endfacet
facet normal 1.000000e+00 0.000000e+00 0.000000e+00
 outer loop
  vertex -8.511779e-01 1.122292e-01 3.144844e-01
  vertex -8.511779e-01 1.122292e-01 -2.827337e-02
  vertex -8.511779e-01 3.045370e-01 1.431055e-01
 endloop
endfacet
facet normal 0.000000e+00 1.000000e+00 0.000000e+00
 outer loop
  vertex -8.511779e-01 1.122292e-01 -2.827337e-02
  vertex -8.511779e-01 1.122292e-01 3.144844e-01
  vertex -4.741867e-01 1.122292e-01 1.909484e-01
 endloop
endfacet
facet normal 1.000000e+00 0.000000e+00 0.000000e+00
 outer loop
  vertex -8.511779e-01 1.122292e-01 4.858633e-01
  vertex -8.511779e-01 1.122292e-01 3.144844e-01
  vertex -8.511779e-01 3.611108e-01 4.001739e-01
 endloop
endfacet
facet normal 0.000000e+00 1.000000e+00 0.000000e+00
 outer loop
  vertex -8.511779e-01 1.122292e-01 3.144844e-01
  vertex -8.511779e-01 1.122292e-01 4.858633e-01
  vertex -6.113390e-01 1.122292e-01 4.040382e-01
 endloop
endfacet
facet normal 1.000000e+00 -0.000000e+00 0.000000e+00
 outer loop
  vertex -8.511779e-01 1.122292e-01 3.144844e-01
  vertex -8.511779e-01 3.045370e-01 1.431055e-01
  vertex -8.511779e-01 3.611108e-01 4.001739e-01
 endloop
endfacet
facet normal -0.000000e+00 1.000000e+00 0.000000e+00
 outer loop
  vertex -8.511779e-01 1.122292e-01 3.144844e-01
  vertex -6.113390e-01 1.122292e-01 4.040382e-01
  vertex -4.741867e-01 1.122292e-01 1.909484e-01
 endloop
endfacet
facet normal -1.000000e+00 0.000000e+00 -0.000000e+00
 outer loop
  vertex 1.000000e+00 1.000000e+00 6.572422e-01
  vertex 1.000000e+00 1.000000e+00 3.144844e-01
  vertex 1.000000e+00 7.842808e-01 5.445400e-01
 endloop
endfacet
facet normal 0.000000e+00 -1.000000e+00 0.000000e+00
 outer loop
  vertex 1.000000e+00 1.000000e+00 3.144844e-01
  vertex 1.000000e+00 1.000000e+00 6.572422e-01
  vertex 7.055166e-01 1.000000e+00 3.160065e-01
 endloop
endfacet
facet normal -1.000000e+00 -0.000000e+00 -0.000000e+00
 outer loop
  vertex 1.000000e+00 1.000000e+00 3.144844e-01
  vertex 1.000000e+00 1.000000e+00 1.431055e-01
  vertex 1.000000e+00 7.776741e-01 3.221790e-01
 endloop
endfacet
facet normal 0.000000e+00 -1.000000e+00 0.000000e+00
 outer loop
  vertex 1.000000e+00 1.000000e+00 1.431055e-01
  vertex 1.000000e+00 1.000000e+00 3.144844e-01
  vertex 7.055166e-01 1.000000e+00 3.160065e-01
 endloop
endfacet
facet normal -1.000000e+00 0.000000e+00 -0.000000e+00
 outer loop
  vertex 1.000000e+00 7.842808e-01 5.445400e-01
  vertex 1.000000e+00 1.000000e+00 3.144844e-01
  vertex 1.000000e+00 7.776741e-01 3.221790e-01
 endloop
endfacet
facet normal 1.000000e+00 0.000000e+00 0.000000e+00
 outer loop
  vertex -8.511779e-01 1.122292e-01 -2.827337e-02
  vertex -8.511779e-01 1.122292e-01 -1.996523e-01
  vertex -8.511779e-01 3.054269e-01 -1.788553e-01
 endloop
endfacet
facet normal 0.000000e+00 1.000000e+00 0.000000e+00
 outer loop
  vertex -8.511779e-01 1.122292e-01 -1.996523e-01
  vertex -8.511779e-01 1.122292e-01 -2.827337e-02
  vertex -5.658701e-01 1.122292e-01 -8.514840e-02
 endloop
endfacet
facet normal 1.000000e+00 0.000000e+00 0.000000e+00
 outer loop
  vertex -8.511779e-01 3.045370e-01 1.431055e-01
  vertex -8.511779e-01 1.122292e-01 -2.827337e-02
  vertex -8.511779e-01 4.059247e-01 4.496706e-03
 endloop
endfacet
facet normal 1.000000e+00 -0.000000e+00 0.000000e+00
 outer loop
  vertex -8.511779e-01 1.122292e-01 -2.827337e-02
  vertex -8.511779e-01 3.054269e-01 -1.788553e-01
  vertex -8.511779e-01 4.059247e-01 4.496706e-03
 endloop
endfacet
facet normal -0.000000e+00 1.000000e+00 0.000000e+00
 outer loop
  vertex -8.511779e-01 1.122292e-01 -2.827337e-02
  vertex -4.741867e-01 1.122292e-01 1.909484e-01
  vertex -5.658701e-01 1.122292e-01 -8.514840e-02
 endloop
endfacet
facet normal -1.000000e+00 0.000000e+00 -0.000000e+00
 outer loop
  vertex 1.000000e+00 1.000000e+00 8.286211e-01
  vertex 1.000000e+00 1.000000e+00 6.572422e-01
  vertex 1.000000e+00 8.442365e-01 7.429317e-01
 endloop
endfacet
facet normal 0.000000e+00 -1.000000e+00 0.000000e+00
 outer loop
  vertex 1.000000e+00 1.000000e+00 6.572422e-01
  vertex 1.000000e+00 1.000000e+00 8.286211e-01
  vertex 6.685090e-01 1.000000e+00 6.812402e-01
 endloop
endfacet
facet normal -1.000000e+00 -0.000000e+00 0.000000e+00
 outer loop
  vertex 1.000000e+00 1.000000e+00 6.572422e-01
  vertex 1.000000e+00 7.842808e-01 5.445400e-01
  vertex 1.000000e+00 8.442365e-01 7.429317e-01
 endloop
endfacet
facet normal -0.000000e+00 -1.000000e+00 0.000000e+00
 outer loop
  vertex 1.000000e+00 1.000000e+00 6.572422e-01
  vertex 6.685090e-01 1.000000e+00 6.812402e-01
  vertex 7.055166e-01 1.000000e+00 3.160065e-01
 endloop
endfacet
facet normal -1.000000e+00 0.000000e+00 0.000000e+00
 outer loop
  vertex 1.000000e+00 1.122292e-01 -2.827337e-02
  vertex 1.000000e+00 1.122292e-01 3.144844e-01
  vertex 1.000000e+00 3.514292e-01 1.431055e-01
 endloop
endfacet
facet normal 0.000000e+00 1.000000e+00 0.000000e+00
 outer loop
  vertex 1.000000e+00 1.122292e-01 3.144844e-01
  vertex 1.000000e+00 1.122292e-01 -2.827337e-02
  vertex 7.673150e-01 1.122292e-01 3.555646e-01
 endloop
endfacet
facet normal -1.000000e+00 0.000000e+00 0.000000e+00
 outer loop
  vertex 1.000000e+00 3.514292e-01 1.431055e-01
  vertex 1.000000e+00 1.122292e-01 3.144844e-01
  vertex 1.000000e+00 4.434774e-01 3.345206e-01
 endloop
endfacet
facet normal -1.000000e+00 0.000000e+00 0.000000e+00
 outer loop
  vertex 1.000000e+00 1.122292e-01 3.144844e-01
  vertex 1.000000e+00 2.944540e-01 4.858633e-01
  vertex 1.000000e+00 4.434774e-01 3.345206e-01
 endloop
endfacet
facet normal -1.000000e+00 -0.000000e+00 0.000000e+00
 outer loop
  vertex 1.000000e+00 2.944540e-01 4.858633e-01
  vertex 1.000000e+00 1.122292e-01 3.144844e-01
  vertex 1.000000e+00 1.122292e-01 4.858633e-01
 endloop
endfacet
facet normal 0.000000e+00 1.000000e+00 -0.000000e+00
 outer loop
  vertex 1.000000e+00 1.122292e-01 3.144844e-01
  vertex 7.673150e-01 1.122292e-01 3.555646e-01
  vertex 1.000000e+00 1.122292e-01 4.858633e-01
 endloop
endfacet
facet normal 1.000000e+00 0.000000e+00 0.000000e+00
 outer loop
  vertex -8.511779e-01 3.341719e-01 -3.710312e-01
  vertex -8.511779e-01 5.561146e-01 -3.710312e-01
  vertex -8.511779e-01 4.961415e-01 -1.416293e-01
 endloop
endfacet
facet normal 0.000000e+00 0.000000e+00 1.000000e+00
 outer loop
  vertex -8.511779e-01 5.561146e-01 -3.710312e-01
  vertex -8.511779e-01 3.341719e-01 -3.710312e-01
  vertex -5.040821e-01 4.547992e-01 -3.710312e-01
 endloop
endfacet
facet normal 1.000000e+00 0.000000e+00 -0.000000e+00
 outer loop
  vertex -8.511779e-01 5.561146e-01 -3.710312e-01
  vertex -8.511779e-01 7.332533e-01 -1.416293e-01
  vertex -8.511779e-01 4.961415e-01 -1.416293e-01
 endloop
endfacet
facet normal 1.000000e+00 0.000000e+00 0.000000e+00
 outer loop
  vertex -8.511779e-01 7.332533e-01 -1.416293e-01
  vertex -8.511779e-01 5.561146e-01 -3.710312e-01
  vertex -8.511779e-01 7.780573e-01 -3.710312e-01
 endloop
endfacet
facet normal 0.000000e+00 0.000000e+00 1.000000e+00
 outer loop
  vertex -8.511779e-01 5.561146e-01 -3.710312e-01
  vertex -6.304513e-01 6.670860e-01 -3.710312e-01
  vertex -8.511779e-01 7.780573e-01 -3.710312e-01
 endloop
endfacet
facet normal -0.000000e+00 0.000000e+00 1.000000e+00
 outer loop
  vertex -8.511779e-01 5.561146e-01 -3.710312e-01
  vertex -5.040821e-01 4.547992e-01 -3.710312e-01
  vertex -6.304513e-01 6.670860e-01 -3.710312e-01
 endloop
endfacet
facet normal -1.000000e+00 0.000000e+00 0.000000e+00
 outer loop
  vertex 1.000000e+00 5.561146e-01 1.000000e+00
  vertex 1.000000e+00 7.780573e-01 1.000000e+00
  vertex 1.000000e+00 6.670860e-01 7.578518e-01
 endloop
endfacet
facet normal 0.000000e+00 -0.000000e+00 -1.000000e+00
 outer loop
  vertex 1.000000e+00 7.780573e-01 1.000000e+00
  vertex 1.000000e+00 5.561146e-01 1.000000e+00
  vertex 6.034204e-01 7.131446e-01 1.000000e+00
 endloop
endfacet
facet normal -1.000000e+00 0.000000e+00 -0.000000e+00
 outer loop
  vertex 1.000000e+00 5.561146e-01 1.000000e+00
  vertex 1.000000e+00 6.670860e-01 7.578518e-01
  vertex 1.000000e+00 4.451433e-01 8.026422e-01
 endloop
endfacet
facet normal -1.000000e+00 0.000000e+00 0.000000e+00
 outer loop
  vertex 1.000000e+00 3.341719e-01 1.000000e+00
  vertex 1.000000e+00 5.561146e-01 1.000000e+00
  vertex 1.000000e+00 4.451433e-01 8.026422e-01
 endloop
endfacet
facet normal 0.000000e+00 -0.000000e+00 -1.000000e+00
 outer loop
  vertex 1.000000e+00 5.561146e-01 1.000000e+00
  vertex 1.000000e+00 3.341719e-01 1.000000e+00
  vertex 6.770703e-01 4.343917e-01 1.000000e+00
 endloop
endfacet
facet normal -0.000000e+00 0.000000e+00 -1.000000e+00
 outer loop
  vertex 1.000000e+00 5.561146e-01 1.000000e+00
  vertex 6.770703e-01 4.343917e-01 1.000000e+00
  vertex 6.034204e-01 7.131446e-01 1.000000e+00
 endloop
endfacet
facet normal 1.000000e+00 0.000000e+00 -0.000000e+00
 outer loop
  vertex -8.511779e-01 1.000000e+00 -2.827337e-02
  vertex -8.511779e-01 1.000000e+00 3.144844e-01
  vertex -8.511779e-01 8.076922e-01 1.431055e-01
 endloop
endfacet
facet normal 0.000000e+00 -1.000000e+00 0.000000e+00
 outer loop
  vertex -8.511779e-01 1.000000e+00 3.144844e-01
  vertex -8.511779e-01 1.000000e+00 -2.827337e-02
  vertex -4.849525e-01 1.000000e+00 1.431055e-01
 endloop
endfacet
facet normal 1.000000e+00 0.000000e+00 -0.000000e+00
 outer loop
  vertex -8.511779e-01 8.076922e-01 1.431055e-01
  vertex -8.511779e-01 1.000000e+00 3.144844e-01
  vertex -8.511779e-01 6.947808e-01 4.633915e-01
 endloop
endfacet
facet normal 1.000000e+00 -0.000000e+00 0.000000e+00
 outer loop
  vertex -8.511779e-01 6.947808e-01 4.633915e-01
  vertex -8.511779e-01 1.000000e+00 3.144844e-01
  vertex -8.511779e-01 1.000000e+00 4.858633e-01
 endloop
endfacet
facet normal 0.000000e+00 -1.000000e+00 0.000000e+00
 outer loop
  vertex -8.511779e-01 1.000000e+00 3.144844e-01
  vertex -5.963259e-01 1.000000e+00 3.820971e-01
  vertex -8.511779e-01 1.000000e+00 4.858633e-01
 endloop
endfacet
facet normal 0.000000e+00 -1.000000e+00 0.000000e+00
 outer loop
  vertex -8.511779e-01 1.000000e+00 3.144844e-01
  vertex -4.849525e-01 1.000000e+00 1.431055e-01
  vertex -5.963259e-01 1.000000e+00 3.820971e-01
 endloop
endfacet
facet normal -1.000000e+00 0.000000e+00 -0.000000e+00
 outer loop
  vertex 1.000000e+00 1.000000e+00 1.431055e-01
  vertex 1.000000e+00 1.000000e+00 -2.827337e-02
  vertex 1.000000e+00 7.840706e-01 -2.274364e-02
 endloop
endfacet
facet normal 0.000000e+00 -1.000000e+00 0.000000e+00
 outer loop
  vertex 1.000000e+00 1.000000e+00 -2.827337e-02
  vertex 1.000000e+00 1.000000e+00 1.431055e-01
  vertex 5.860410e-01 1.000000e+00 4.684422e-02
 endloop
endfacet
facet normal -1.000000e+00 0.000000e+00 -0.000000e+00
 outer loop
  vertex 1.000000e+00 1.000000e+00 -2.827337e-02
  vertex 1.000000e+00 1.000000e+00 -1.996523e-01
  vertex 1.000000e+00 8.332755e-01 -1.829184e-01
 endloop
endfacet
facet normal 0.000000e+00 -1.000000e+00 0.000000e+00
 outer loop
  vertex 1.000000e+00 1.000000e+00 -1.996523e-01
  vertex 1.000000e+00 1.000000e+00 -2.827337e-02
  vertex 6.529041e-01 1.000000e+00 -1.727611e-01
 endloop
endfacet
facet normal -1.000000e+00 0.000000e+00 0.000000e+00
 outer loop
  vertex 1.000000e+00 7.840706e-01 -2.274364e-02
  vertex 1.000000e+00 1.000000e+00 -2.827337e-02
  vertex 1.000000e+00 8.332755e-01 -1.829184e-01
 endloop
endfacet
facet normal -0.000000e+00 -1.000000e+00 0.000000e+00
 outer loop
  vertex 1.000000e+00 1.000000e+00 -2.827337e-02
  vertex 5.860410e-01 1.000000e+00 4.684422e-02
  vertex 6.529041e-01 1.000000e+00 -1.727611e-01
 endloop
endfacet
facet normal -1.000000e+00 0.000000e+00 0.000000e+00
 outer loop
  vertex 1.000000e+00 6.670860e-01 7.578518e-01
  vertex 1.000000e+00 7.780573e-01 1.000000e+00
  vertex 1.000000e+00 8.442365e-01 7.429317e-01
 endloop
endfacet
facet normal -1.000000e+00 0.000000e+00 0.000000e+00
 outer loop
  vertex 1.000000e+00 7.780573e-01 1.000000e+00
  vertex 1.000000e+00 1.000000e+00 8.286211e-01
  vertex 1.000000e+00 8.442365e-01 7.429317e-01
 endloop
endfacet
facet normal -0.000000e+00 0.000000e+00 -1.000000e+00
 outer loop
  vertex 1.000000e+00 7.780573e-01 1.000000e+00
  vertex 6.034204e-01 7.131446e-01 1.000000e+00
  vertex 7.872055e-01 1.000000e+00 1.000000e+00
 endloop
endfacet
facet normal -1.000000e+00 0.000000e+00 -0.000000e+00
 outer loop
  vertex 1.000000e+00 6.670860e-01 7.578518e-01
  vertex 1.000000e+00 7.842808e-01 5.445400e-01
  vertex 1.000000e+00 5.418724e-01 5.227519e-01
 endloop
endfacet
facet normal -1.000000e+00 0.000000e+00 0.000000e+00
 outer loop
  vertex 1.000000e+00 6.670860e-01 7.578518e-01
  vertex 1.000000e+00 5.418724e-01 5.227519e-01
  vertex 1.000000e+00 3.993974e-01 6.301728e-01
 endloop
endfacet
facet normal -1.000000e+00 0.000000e+00 0.000000e+00
 outer loop
  vertex 1.000000e+00 5.418724e-01 5.227519e-01
  vertex 1.000000e+00 7.842808e-01 5.445400e-01
  vertex 1.000000e+00 7.776741e-01 3.221790e-01
 endloop
endfacet
facet normal -1.000000e+00 0.000000e+00 0.000000e+00
 outer loop
  vertex 1.000000e+00 2.944540e-01 4.858633e-01
  vertex 1.000000e+00 5.418724e-01 5.227519e-01
  vertex 1.000000e+00 4.434774e-01 3.345206e-01
 endloop
endfacet
facet normal -1.000000e+00 -0.000000e+00 0.000000e+00
 outer loop
  vertex 1.000000e+00 5.418724e-01 5.227519e-01
  vertex 1.000000e+00 2.944540e-01 4.858633e-01
  vertex 1.000000e+00 3.993974e-01 6.301728e-01
 endloop
endfacet
facet normal -1.000000e+00 0.000000e+00 0.000000e+00
 outer loop
  vertex 1.000000e+00 4.434774e-01 3.345206e-01
  vertex 1.000000e+00 5.418724e-01 5.227519e-01
  vertex 1.000000e+00 7.776741e-01 3.221790e-01
 endloop
endfacet
facet normal -0.000000e+00 1.000000e+00 0.000000e+00
 outer loop
  vertex -3.511779e-01 1.122292e-01 1.000000e+00
  vertex 1.488221e-01 1.122292e-01 1.000000e+00
  vertex -4.346440e-01 1.122292e-01 5.856887e-01
 endloop
endfacet
facet normal 0.000000e+00 0.000000e+00 -1.000000e+00
 outer loop
  vertex 1.488221e-01 1.122292e-01 1.000000e+00
  vertex -3.511779e-01 1.122292e-01 1.000000e+00
  vertex -8.519020e-02 4.973610e-01 1.000000e+00
 endloop
endfacet
facet normal 0.000000e+00 1.000000e+00 0.000000e+00
 outer loop
  vertex -1.011779e-01 1.122292e-01 3.260336e-01
  vertex 1.488221e-01 1.122292e-01 1.000000e+00
  vertex 3.616166e-01 1.122292e-01 5.377159e-01
 endloop
endfacet
facet normal 0.000000e+00 1.000000e+00 0.000000e+00
 outer loop
  vertex 1.488221e-01 1.122292e-01 1.000000e+00
  vertex -1.011779e-01 1.122292e-01 3.260336e-01
  vertex -4.346440e-01 1.122292e-01 5.856887e-01
 endloop
endfacet
facet normal 0.000000e+00 0.000000e+00 -1.000000e+00
 outer loop
  vertex 1.488221e-01 1.122292e-01 1.000000e+00
  vertex 3.616166e-01 5.561146e-01 1.000000e+00
  vertex 5.744110e-01 1.122292e-01 1.000000e+00
 endloop
endfacet
facet normal 0.000000e+00 0.000000e+00 -1.000000e+00
 outer loop
  vertex 3.616166e-01 5.561146e-01 1.000000e+00
  vertex 1.488221e-01 1.122292e-01 1.000000e+00
  vertex -8.519020e-02 4.973610e-01 1.000000e+00
 endloop
endfacet
facet normal -0.000000e+00 1.000000e+00 0.000000e+00
 outer loop
  vertex 1.488221e-01 1.122292e-01 1.000000e+00
  vertex 5.744110e-01 1.122292e-01 1.000000e+00
  vertex 3.616166e-01 1.122292e-01 5.377159e-01
 endloop
endfacet
facet normal 0.000000e+00 -1.000000e+00 -0.000000e+00
 outer loop
  vertex 1.488221e-01 1.000000e+00 1.000000e+00
  vertex -1.250162e-01 1.000000e+00 3.273274e-01
  vertex 4.388627e-01 1.000000e+00 4.409803e-01
 endloop
endfacet
facet normal 0.000000e+00 -1.000000e+00 0.000000e+00
 outer loop
  vertex -1.250162e-01 1.000000e+00 3.273274e-01
  vertex 1.488221e-01 1.000000e+00 1.000000e+00
  vertex -4.412698e-01 1.000000e+00 5.953542e-01
 endloop
endfacet
facet normal 0.000000e+00 0.000000e+00 -1.000000e+00
 outer loop
  vertex 3.616166e-01 5.561146e-01 1.000000e+00
  vertex 1.488221e-01 1.000000e+00 1.000000e+00
  vertex 5.744110e-01 1.000000e+00 1.000000e+00
 endloop
endfacet
facet normal 0.000000e+00 -1.000000e+00 0.000000e+00
 outer loop
  vertex 4.388627e-01 1.000000e+00 4.409803e-01
  vertex 5.744110e-01 1.000000e+00 1.000000e+00
  vertex 1.488221e-01 1.000000e+00 1.000000e+00
 endloop
endfacet
facet normal 0.000000e+00 -0.000000e+00 -1.000000e+00
 outer loop
  vertex 1.488221e-01 1.000000e+00 1.000000e+00
  vertex 3.616166e-01 5.561146e-01 1.000000e+00
  vertex -8.519020e-02 4.973610e-01 1.000000e+00
 endloop
endfacet
facet normal -0.000000e+00 -1.000000e+00 0.000000e+00
 outer loop
  vertex 1.488221e-01 1.000000e+00 1.000000e+00
  vertex -3.511779e-01 1.000000e+00 1.000000e+00
  vertex -4.412698e-01 1.000000e+00 5.953542e-01
 endloop
endfacet
facet normal 0.000000e+00 0.000000e+00 -1.000000e+00
 outer loop
  vertex -3.511779e-01 1.000000e+00 1.000000e+00
  vertex 1.488221e-01 1.000000e+00 1.000000e+00
  vertex -8.519020e-02 4.973610e-01 1.000000e+00
 endloop
endfacet
facet normal -1.000000e+00 0.000000e+00 0.000000e+00
 outer loop
  vertex 1.000000e+00 7.780573e-01 -3.710312e-01
  vertex 1.000000e+00 5.561146e-01 -3.710312e-01
  vertex 1.000000e+00 6.670860e-01 -2.043220e-01
 endloop
endfacet
facet normal 0.000000e+00 -0.000000e+00 1.000000e+00
 outer loop
  vertex 1.000000e+00 5.561146e-01 -3.710312e-01
  vertex 1.000000e+00 7.780573e-01 -3.710312e-01
  vertex 7.214862e-01 7.192777e-01 -3.710312e-01
 endloop
endfacet
facet normal -1.000000e+00 0.000000e+00 0.000000e+00
 outer loop
  vertex 1.000000e+00 5.561146e-01 -3.710312e-01
  vertex 1.000000e+00 3.341719e-01 -3.710312e-01
  vertex 1.000000e+00 4.985579e-01 -9.613287e-02
 endloop
endfacet
facet normal 0.000000e+00 -0.000000e+00 1.000000e+00
 outer loop
  vertex 1.000000e+00 3.341719e-01 -3.710312e-01
  vertex 1.000000e+00 5.561146e-01 -3.710312e-01
  vertex 6.644383e-01 4.404041e-01 -3.710312e-01
 endloop
endfacet
facet normal -1.000000e+00 0.000000e+00 0.000000e+00
 outer loop
  vertex 1.000000e+00 5.561146e-01 -3.710312e-01
  vertex 1.000000e+00 4.985579e-01 -9.613287e-02
  vertex 1.000000e+00 6.670860e-01 -2.043220e-01
 endloop
endfacet
facet normal 0.000000e+00 0.000000e+00 1.000000e+00
 outer loop
  vertex 1.000000e+00 5.561146e-01 -3.710312e-01
  vertex 7.214862e-01 7.192777e-01 -3.710312e-01
  vertex 6.644383e-01 4.404041e-01 -3.710312e-01
 endloop
endfacet
facet normal -1.000000e+00 0.000000e+00 0.000000e+00
 outer loop
  vertex 1.000000e+00 6.456865e-01 1.431055e-01
  vertex 1.000000e+00 1.000000e+00 1.431055e-01
  vertex 1.000000e+00 7.840706e-01 -2.274364e-02
 endloop
endfacet
facet normal -1.000000e+00 0.000000e+00 0.000000e+00
 outer loop
  vertex 1.000000e+00 1.000000e+00 1.431055e-01
  vertex 1.000000e+00 6.456865e-01 1.431055e-01
  vertex 1.000000e+00 7.776741e-01 3.221790e-01
 endloop
endfacet
facet normal -1.000000e+00 0.000000e+00 0.000000e+00
 outer loop
  vertex 1.000000e+00 4.985579e-01 -9.613287e-02
  vertex 1.000000e+00 6.456865e-01 1.431055e-01
  vertex 1.000000e+00 7.840706e-01 -2.274364e-02
 endloop
endfacet
facet normal -1.000000e+00 -0.000000e+00 0.000000e+00
 outer loop
  vertex 1.000000e+00 6.456865e-01 1.431055e-01
  vertex 1.000000e+00 4.985579e-01 -9.613287e-02
  vertex 1.000000e+00 4.985579e-01 1.901936e-01
 endloop
endfacet
facet normal -1.000000e+00 0.000000e+00 0.000000e+00
 outer loop
  vertex 1.000000e+00 7.776741e-01 3.221790e-01
  vertex 1.000000e+00 6.456865e-01 1.431055e-01
  vertex 1.000000e+00 4.985579e-01 1.901936e-01
 endloop
endfacet
facet normal 1.000000e+00 -0.000000e+00 0.000000e+00
 outer loop
  vertex -8.511779e-01 1.122292e-01 6.572422e-01
  vertex -8.511779e-01 1.122292e-01 4.858633e-01
  vertex -8.511779e-01 2.885629e-01 7.429317e-01
 endloop
endfacet
facet normal -0.000000e+00 1.000000e+00 0.000000e+00
 outer loop
  vertex -8.511779e-01 1.122292e-01 4.858633e-01
  vertex -8.511779e-01 1.122292e-01 6.572422e-01
  vertex -6.113390e-01 1.122292e-01 4.040382e-01
 endloop
endfacet
facet normal 1.000000e+00 0.000000e+00 0.000000e+00
 outer loop
  vertex -8.511779e-01 1.122292e-01 8.286211e-01
  vertex -8.511779e-01 1.122292e-01 6.572422e-01
  vertex -8.511779e-01 2.885629e-01 7.429317e-01
 endloop
endfacet
facet normal 0.000000e+00 1.000000e+00 0.000000e+00
 outer loop
  vertex -8.511779e-01 1.122292e-01 6.572422e-01
  vertex -8.511779e-01 1.122292e-01 8.286211e-01
  vertex -6.159083e-01 1.122292e-01 7.534540e-01
 endloop
endfacet
facet normal 0.000000e+00 1.000000e+00 0.000000e+00
 outer loop
  vertex -6.113390e-01 1.122292e-01 4.040382e-01
  vertex -8.511779e-01 1.122292e-01 6.572422e-01
  vertex -6.159083e-01 1.122292e-01 7.534540e-01
 endloop
endfacet
facet normal 1.000000e+00 0.000000e+00 0.000000e+00
 outer loop
  vertex -8.511779e-01 7.332533e-01 -1.416293e-01
  vertex -8.511779e-01 1.000000e+00 -2.827337e-02
  vertex -8.511779e-01 8.076922e-01 1.431055e-01
 endloop
endfacet
facet normal 0.000000e+00 -1.000000e+00 0.000000e+00
 outer loop
  vertex -8.511779e-01 1.000000e+00 -2.827337e-02
  vertex -3.883834e-01 1.000000e+00 -3.710312e-01
  vertex -4.849525e-01 1.000000e+00 1.431055e-01
 endloop
endfacet
facet normal 0.000000e+00 -1.000000e+00 0.000000e+00
 outer loop
  vertex 5.860410e-01 1.000000e+00 4.684422e-02
  vertex 1.000000e+00 1.000000e+00 1.431055e-01
  vertex 7.055166e-01 1.000000e+00 3.160065e-01
 endloop
endfacet
facet normal 1.000000e+00 -0.000000e+00 0.000000e+00
 outer loop
  vertex -8.511779e-01 1.122292e-01 4.858633e-01
  vertex -8.511779e-01 3.611108e-01 4.001739e-01
  vertex -8.511779e-01 2.885629e-01 7.429317e-01
 endloop
endfacet
facet normal 1.000000e+00 0.000000e+00 -0.000000e+00
 outer loop
  vertex -8.511779e-01 3.341719e-01 -3.710312e-01
  vertex -8.511779e-01 4.961415e-01 -1.416293e-01
  vertex -8.511779e-01 3.054269e-01 -1.788553e-01
 endloop
endfacet
facet normal -0.000000e+00 0.000000e+00 1.000000e+00
 outer loop
  vertex -8.511779e-01 3.341719e-01 -3.710312e-01
  vertex -6.197807e-01 1.122292e-01 -3.710312e-01
  vertex -5.040821e-01 4.547992e-01 -3.710312e-01
 endloop
endfacet
facet normal -0.000000e+00 1.000000e+00 0.000000e+00
 outer loop
  vertex -8.511779e-01 1.122292e-01 -1.996523e-01
  vertex -5.658701e-01 1.122292e-01 -8.514840e-02
  vertex -6.197807e-01 1.122292e-01 -3.710312e-01
 endloop
endfacet
facet normal 1.000000e+00 0.000000e+00 0.000000e+00
 outer loop
  vertex -8.511779e-01 7.332533e-01 -1.416293e-01
  vertex -8.511779e-01 5.561146e-01 8.777261e-02
  vertex -8.511779e-01 4.961415e-01 -1.416293e-01
 endloop
endfacet
facet normal 1.000000e+00 -0.000000e+00 0.000000e+00
 outer loop
  vertex -8.511779e-01 5.561146e-01 8.777261e-02
  vertex -8.511779e-01 7.332533e-01 -1.416293e-01
  vertex -8.511779e-01 8.076922e-01 1.431055e-01
 endloop
endfacet
facet normal 1.000000e+00 0.000000e+00 -0.000000e+00
 outer loop
  vertex -8.511779e-01 4.961415e-01 -1.416293e-01
  vertex -8.511779e-01 5.561146e-01 8.777261e-02
  vertex -8.511779e-01 4.059247e-01 4.496706e-03
 endloop
endfacet
facet normal 1.000000e+00 0.000000e+00 -0.000000e+00
 outer loop
  vertex -8.511779e-01 5.561146e-01 8.777261e-02
  vertex -8.511779e-01 8.076922e-01 1.431055e-01
  vertex -8.511779e-01 4.585935e-01 2.439612e-01
 endloop
endfacet
facet normal 1.000000e+00 0.000000e+00 0.000000e+00
 outer loop
  vertex -8.511779e-01 5.561146e-01 8.777261e-02
  vertex -8.511779e-01 4.585935e-01 2.439612e-01
  vertex -8.511779e-01 4.059247e-01 4.496706e-03
 endloop
endfacet
facet normal 1.000000e+00 0.000000e+00 0.000000e+00
 outer loop
  vertex -8.511779e-01 3.054269e-01 -1.788553e-01
  vertex -8.511779e-01 4.961415e-01 -1.416293e-01
  vertex -8.511779e-01 4.059247e-01 4.496706e-03
 endloop
endfacet
facet normal 1.000000e+00 0.000000e+00 0.000000e+00
 outer loop
  vertex -8.511779e-01 8.076922e-01 1.431055e-01
  vertex -8.511779e-01 6.947808e-01 4.633915e-01
  vertex -8.511779e-01 4.585935e-01 2.439612e-01
 endloop
endfacet
facet normal 1.000000e+00 0.000000e+00 0.000000e+00
 outer loop
  vertex -8.511779e-01 3.611108e-01 4.001739e-01
  vertex -8.511779e-01 3.045370e-01 1.431055e-01
  vertex -8.511779e-01 4.585935e-01 2.439612e-01
 endloop
endfacet
facet normal 1.000000e+00 0.000000e+00 0.000000e+00
 outer loop
  vertex -8.511779e-01 4.585935e-01 2.439612e-01
  vertex -8.511779e-01 3.045370e-01 1.431055e-01
  vertex -8.511779e-01 4.059247e-01 4.496706e-03
 endloop
endfacet
facet normal 1.000000e+00 0.000000e+00 0.000000e+00
 outer loop
  vertex -8.511779e-01 5.561146e-01 1.000000e+00
  vertex -8.511779e-01 3.341719e-01 1.000000e+00
  vertex -8.511779e-01 4.451433e-01 8.651424e-01
 endloop
endfacet
facet normal 0.000000e+00 0.000000e+00 -1.000000e+00
 outer loop
  vertex -8.511779e-01 3.341719e-01 1.000000e+00
  vertex -8.511779e-01 5.561146e-01 1.000000e+00
  vertex -5.747962e-01 3.937195e-01 1.000000e+00
 endloop
endfacet
facet normal 1.000000e+00 0.000000e+00 0.000000e+00
 outer loop
  vertex -8.511779e-01 5.561146e-01 1.000000e+00
  vertex -8.511779e-01 4.451433e-01 8.651424e-01
  vertex -8.511779e-01 6.439120e-01 8.146668e-01
 endloop
endfacet
facet normal 1.000000e+00 0.000000e+00 0.000000e+00
 outer loop
  vertex -8.511779e-01 7.780573e-01 1.000000e+00
  vertex -8.511779e-01 5.561146e-01 1.000000e+00
  vertex -8.511779e-01 6.439120e-01 8.146668e-01
 endloop
endfacet
facet normal 0.000000e+00 0.000000e+00 -1.000000e+00
 outer loop
  vertex -8.511779e-01 5.561146e-01 1.000000e+00
  vertex -8.511779e-01 7.780573e-01 1.000000e+00
  vertex -5.026608e-01 6.670860e-01 1.000000e+00
 endloop
endfacet
facet normal 0.000000e+00 0.000000e+00 -1.000000e+00
 outer loop
  vertex -8.511779e-01 5.561146e-01 1.000000e+00
  vertex -5.026608e-01 6.670860e-01 1.000000e+00
  vertex -5.747962e-01 3.937195e-01 1.000000e+00
 endloop
endfacet
facet normal 1.000000e+00 -0.000000e+00 0.000000e+00
 outer loop
  vertex -8.511779e-01 3.611108e-01 4.001739e-01
  vertex -8.511779e-01 4.585935e-01 2.439612e-01
  vertex -8.511779e-01 5.132041e-01 5.095909e-01
 endloop
endfacet
facet normal 1.000000e+00 0.000000e+00 0.000000e+00
 outer loop
  vertex -8.511779e-01 4.783267e-01 6.936779e-01
  vertex -8.511779e-01 3.611108e-01 4.001739e-01
  vertex -8.511779e-01 5.132041e-01 5.095909e-01
 endloop
endfacet
facet normal 1.000000e+00 0.000000e+00 -0.000000e+00
 outer loop
  vertex -8.511779e-01 3.611108e-01 4.001739e-01
  vertex -8.511779e-01 4.783267e-01 6.936779e-01
  vertex -8.511779e-01 2.885629e-01 7.429317e-01
 endloop
endfacet
facet normal 1.000000e+00 0.000000e+00 0.000000e+00
 outer loop
  vertex -8.511779e-01 4.585935e-01 2.439612e-01
  vertex -8.511779e-01 6.947808e-01 4.633915e-01
  vertex -8.511779e-01 5.132041e-01 5.095909e-01
 endloop
endfacet
facet normal 1.000000e+00 -0.000000e+00 0.000000e+00
 outer loop
  vertex -8.511779e-01 5.132041e-01 5.095909e-01
  vertex -8.511779e-01 6.947808e-01 4.633915e-01
  vertex -8.511779e-01 7.866133e-01 6.560108e-01
 endloop
endfacet
facet normal 1.000000e+00 0.000000e+00 0.000000e+00
 outer loop
  vertex -8.511779e-01 7.866133e-01 6.560108e-01
  vertex -8.511779e-01 6.947808e-01 4.633915e-01
  vertex -8.511779e-01 1.000000e+00 4.858633e-01
 endloop
endfacet
facet normal -1.000000e+00 0.000000e+00 0.000000e+00
 outer loop
  vertex 1.000000e+00 1.122292e-01 -2.827337e-02
  vertex 1.000000e+00 3.514292e-01 1.431055e-01
  vertex 1.000000e+00 4.985579e-01 -9.613287e-02
 endloop
endfacet
facet normal -1.000000e+00 0.000000e+00 0.000000e+00
 outer loop
  vertex 1.000000e+00 1.122292e-01 -2.827337e-02
  vertex 1.000000e+00 4.985579e-01 -9.613287e-02
  vertex 1.000000e+00 1.122292e-01 -1.996523e-01
 endloop
endfacet
facet normal 0.000000e+00 1.000000e+00 0.000000e+00
 outer loop
  vertex 1.000000e+00 1.122292e-01 -2.827337e-02
  vertex 1.000000e+00 1.122292e-01 -1.996523e-01
  vertex 7.990031e-01 1.122292e-01 -1.701713e-01
 endloop
endfacet
facet normal 0.000000e+00 1.000000e+00 0.000000e+00
 outer loop
  vertex 1.000000e+00 1.122292e-01 -2.827337e-02
  vertex 7.990031e-01 1.122292e-01 -1.701713e-01
  vertex 6.469735e-01 1.122292e-01 -3.542745e-02
 endloop
endfacet
facet normal 0.000000e+00 1.000000e+00 0.000000e+00
 outer loop
  vertex 1.000000e+00 1.122292e-01 -2.827337e-02
  vertex 6.469735e-01 1.122292e-01 -3.542745e-02
  vertex 7.673150e-01 1.122292e-01 3.555646e-01
 endloop
endfacet
facet normal -1.000000e+00 0.000000e+00 0.000000e+00
 outer loop
  vertex 1.000000e+00 4.985579e-01 -9.613287e-02
  vertex 1.000000e+00 3.514292e-01 1.431055e-01
  vertex 1.000000e+00 4.985579e-01 1.901936e-01
 endloop
endfacet
facet normal -1.000000e+00 0.000000e+00 0.000000e+00
 outer loop
  vertex 1.000000e+00 3.514292e-01 1.431055e-01
  vertex 1.000000e+00 4.434774e-01 3.345206e-01
  vertex 1.000000e+00 4.985579e-01 1.901936e-01
 endloop
endfacet
facet normal -1.000000e+00 0.000000e+00 0.000000e+00
 outer loop
  vertex 1.000000e+00 7.780573e-01 -3.710312e-01
  vertex 1.000000e+00 6.670860e-01 -2.043220e-01
  vertex 1.000000e+00 8.332755e-01 -1.829184e-01
 endloop
endfacet
facet normal 0.000000e+00 0.000000e+00 1.000000e+00
 outer loop
  vertex 1.000000e+00 7.780573e-01 -3.710312e-01
  vertex 7.686028e-01 1.000000e+00 -3.710312e-01
  vertex 7.214862e-01 7.192777e-01 -3.710312e-01
 endloop
endfacet
facet normal -1.000000e+00 0.000000e+00 0.000000e+00
 outer loop
  vertex 1.000000e+00 7.842808e-01 5.445400e-01
  vertex 1.000000e+00 6.670860e-01 7.578518e-01
  vertex 1.000000e+00 8.442365e-01 7.429317e-01
 endloop
endfacet
facet normal -1.000000e+00 0.000000e+00 -0.000000e+00
 outer loop
  vertex 1.000000e+00 4.451433e-01 8.026422e-01
  vertex 1.000000e+00 6.670860e-01 7.578518e-01
  vertex 1.000000e+00 3.993974e-01 6.301728e-01
 endloop
endfacet
facet normal -1.000000e+00 0.000000e+00 -0.000000e+00
 outer loop
  vertex 1.000000e+00 3.341719e-01 1.000000e+00
  vertex 1.000000e+00 4.451433e-01 8.026422e-01
  vertex 1.000000e+00 2.805872e-01 8.399925e-01
 endloop
endfacet
facet normal 0.000000e+00 0.000000e+00 -1.000000e+00
 outer loop
  vertex 6.770703e-01 4.343917e-01 1.000000e+00
  vertex 1.000000e+00 3.341719e-01 1.000000e+00
  vertex 7.872055e-01 1.122292e-01 1.000000e+00
 endloop
endfacet
facet normal 1.000000e+00 0.000000e+00 0.000000e+00
 outer loop
  vertex -8.511779e-01 3.341719e-01 1.000000e+00
  vertex -8.511779e-01 1.122292e-01 8.286211e-01
  vertex -8.511779e-01 2.885629e-01 7.429317e-01
 endloop
endfacet
facet normal 1.000000e+00 0.000000e+00 0.000000e+00
 outer loop
  vertex -8.511779e-01 4.451433e-01 8.651424e-01
  vertex -8.511779e-01 3.341719e-01 1.000000e+00
  vertex -8.511779e-01 2.885629e-01 7.429317e-01
 endloop
endfacet
facet normal 0.000000e+00 0.000000e+00 -1.000000e+00
 outer loop
  vertex -6.011779e-01 1.122292e-01 1.000000e+00
  vertex -8.511779e-01 3.341719e-01 1.000000e+00
  vertex -5.747962e-01 3.937195e-01 1.000000e+00
 endloop
endfacet
facet normal 1.000000e+00 0.000000e+00 0.000000e+00
 outer loop
  vertex -8.511779e-01 4.783267e-01 6.936779e-01
  vertex -8.511779e-01 5.132041e-01 5.095909e-01
  vertex -8.511779e-01 7.866133e-01 6.560108e-01
 endloop
endfacet
facet normal 1.000000e+00 0.000000e+00 0.000000e+00
 outer loop
  vertex -8.511779e-01 4.783267e-01 6.936779e-01
  vertex -8.511779e-01 4.451433e-01 8.651424e-01
  vertex -8.511779e-01 2.885629e-01 7.429317e-01
 endloop
endfacet
facet normal 1.000000e+00 0.000000e+00 0.000000e+00
 outer loop
  vertex -8.511779e-01 4.451433e-01 8.651424e-01
  vertex -8.511779e-01 4.783267e-01 6.936779e-01
  vertex -8.511779e-01 6.439120e-01 8.146668e-01
 endloop
endfacet
facet normal 1.000000e+00 0.000000e+00 0.000000e+00
 outer loop
  vertex -8.511779e-01 6.439120e-01 8.146668e-01
  vertex -8.511779e-01 4.783267e-01 6.936779e-01
  vertex -8.511779e-01 7.866133e-01 6.560108e-01
 endloop
endfacet
facet normal -0.000000e+00 -1.000000e+00 0.000000e+00
 outer loop
  vertex 1.000000e+00 1.000000e+00 8.286211e-01
  vertex 7.872055e-01 1.000000e+00 1.000000e+00
  vertex 6.685090e-01 1.000000e+00 6.812402e-01
 endloop
endfacet
facet normal -1.000000e+00 0.000000e+00 0.000000e+00
 outer loop
  vertex 1.000000e+00 1.122292e-01 6.572422e-01
  vertex 1.000000e+00 1.122292e-01 8.286211e-01
  vertex 1.000000e+00 2.805872e-01 8.399925e-01
 endloop
endfacet
facet normal 0.000000e+00 1.000000e+00 0.000000e+00
 outer loop
  vertex 1.000000e+00 1.122292e-01 8.286211e-01
  vertex 1.000000e+00 1.122292e-01 6.572422e-01
  vertex 6.657637e-01 1.122292e-01 6.778315e-01
 endloop
endfacet
facet normal -1.000000e+00 0.000000e+00 0.000000e+00
 outer loop
  vertex 1.000000e+00 1.122292e-01 6.572422e-01
  vertex 1.000000e+00 2.944540e-01 4.858633e-01
  vertex 1.000000e+00 1.122292e-01 4.858633e-01
 endloop
endfacet
facet normal -1.000000e+00 0.000000e+00 0.000000e+00
 outer loop
  vertex 1.000000e+00 2.944540e-01 4.858633e-01
  vertex 1.000000e+00 1.122292e-01 6.572422e-01
  vertex 1.000000e+00 3.993974e-01 6.301728e-01
 endloop
endfacet
facet normal 0.000000e+00 1.000000e+00 0.000000e+00
 outer loop
  vertex 1.000000e+00 1.122292e-01 6.572422e-01
  vertex 1.000000e+00 1.122292e-01 4.858633e-01
  vertex 8.129041e-01 1.122292e-01 5.470641e-01
 endloop
endfacet
facet normal -1.000000e+00 0.000000e+00 0.000000e+00
 outer loop
  vertex 1.000000e+00 3.993974e-01 6.301728e-01
  vertex 1.000000e+00 1.122292e-01 6.572422e-01
  vertex 1.000000e+00 2.805872e-01 8.399925e-01
 endloop
endfacet
facet normal 0.000000e+00 1.000000e+00 0.000000e+00
 outer loop
  vertex 6.657637e-01 1.122292e-01 6.778315e-01
  vertex 1.000000e+00 1.122292e-01 6.572422e-01
  vertex 8.129041e-01 1.122292e-01 5.470641e-01
 endloop
endfacet
facet normal -1.000000e+00 0.000000e+00 0.000000e+00
 outer loop
  vertex 1.000000e+00 4.985579e-01 -9.613287e-02
  vertex 1.000000e+00 3.341719e-01 -3.710312e-01
  vertex 1.000000e+00 1.122292e-01 -1.996523e-01
 endloop
endfacet
facet normal 0.000000e+00 0.000000e+00 1.000000e+00
 outer loop
  vertex 1.000000e+00 3.341719e-01 -3.710312e-01
  vertex 6.644383e-01 4.404041e-01 -3.710312e-01
  vertex 7.686028e-01 1.122292e-01 -3.710312e-01
 endloop
endfacet
facet normal -1.000000e+00 0.000000e+00 0.000000e+00
 outer loop
  vertex 1.000000e+00 6.670860e-01 -2.043220e-01
  vertex 1.000000e+00 4.985579e-01 -9.613287e-02
  vertex 1.000000e+00 7.840706e-01 -2.274364e-02
 endloop
endfacet
facet normal 0.000000e+00 -1.000000e+00 0.000000e+00
 outer loop
  vertex 7.686028e-01 1.000000e+00 -3.710312e-01
  vertex 1.000000e+00 1.000000e+00 -1.996523e-01
  vertex 6.529041e-01 1.000000e+00 -1.727611e-01
 endloop
endfacet
facet normal -1.000000e+00 -0.000000e+00 0.000000e+00
 outer loop
  vertex 1.000000e+00 4.451433e-01 8.026422e-01
  vertex 1.000000e+00 3.993974e-01 6.301728e-01
  vertex 1.000000e+00 2.805872e-01 8.399925e-01
 endloop
endfacet
facet normal -1.000000e+00 0.000000e+00 0.000000e+00
 outer loop
  vertex 1.000000e+00 6.670860e-01 -2.043220e-01
  vertex 1.000000e+00 7.840706e-01 -2.274364e-02
  vertex 1.000000e+00 8.332755e-01 -1.829184e-01
 endloop
endfacet
facet normal -0.000000e+00 1.000000e+00 0.000000e+00
 outer loop
  vertex -8.511779e-01 1.122292e-01 8.286211e-01
  vertex -6.011779e-01 1.122292e-01 1.000000e+00
  vertex -6.159083e-01 1.122292e-01 7.534540e-01
 endloop
endfacet
facet normal 0.000000e+00 1.000000e+00 0.000000e+00
 outer loop
  vertex 7.872055e-01 1.122292e-01 1.000000e+00
  vertex 1.000000e+00 1.122292e-01 8.286211e-01
  vertex 6.657637e-01 1.122292e-01 6.778315e-01
 endloop
endfacet
facet normal -1.000000e+00 0.000000e+00 0.000000e+00
 outer loop
  vertex 1.000000e+00 4.434774e-01 3.345206e-01
  vertex 1.000000e+00 7.776741e-01 3.221790e-01
  vertex 1.000000e+00 4.985579e-01 1.901936e-01
 endloop
endfacet
facet normal 0.000000e+00 1.000000e+00 0.000000e+00
 outer loop
  vertex 1.000000e+00 1.122292e-01 4.858633e-01
  vertex 7.673150e-01 1.122292e-01 3.555646e-01
  vertex 8.129041e-01 1.122292e-01 5.470641e-01
 endloop
endfacet
facet normal 1.000000e+00 0.000000e+00 0.000000e+00
 outer loop
  vertex -8.511779e-01 1.000000e+00 6.572422e-01
  vertex -8.511779e-01 7.866133e-01 6.560108e-01
  vertex -8.511779e-01 1.000000e+00 4.858633e-01
 endloop
endfacet
facet normal 1.000000e+00 0.000000e+00 0.000000e+00
 outer loop
  vertex -8.511779e-01 1.000000e+00 8.286211e-01
  vertex -8.511779e-01 7.866133e-01 6.560108e-01
  vertex -8.511779e-01 1.000000e+00 6.572422e-01
 endloop
endfacet
facet normal 0.000000e+00 -1.000000e+00 0.000000e+00
 outer loop
  vertex -8.511779e-01 1.000000e+00 6.572422e-01
  vertex -8.511779e-01 1.000000e+00 4.858633e-01
  vertex -6.286145e-01 1.000000e+00 7.429317e-01
 endloop
endfacet
facet normal 0.000000e+00 -1.000000e+00 0.000000e+00
 outer loop
  vertex -8.511779e-01 1.000000e+00 8.286211e-01
  vertex -8.511779e-01 1.000000e+00 6.572422e-01
  vertex -6.286145e-01 1.000000e+00 7.429317e-01
 endloop
endfacet
facet normal 1.000000e+00 0.000000e+00 0.000000e+00
 outer loop
  vertex -8.511779e-01 7.780573e-01 1.000000e+00
  vertex -8.511779e-01 6.439120e-01 8.146668e-01
  vertex -8.511779e-01 7.866133e-01 6.560108e-01
 endloop
endfacet
facet normal 1.000000e+00 0.000000e+00 0.000000e+00
 outer loop
  vertex -8.511779e-01 7.780573e-01 1.000000e+00
  vertex -8.511779e-01 7.866133e-01 6.560108e-01
  vertex -8.511779e-01 1.000000e+00 8.286211e-01
 endloop
endfacet
facet normal 0.000000e+00 0.000000e+00 -1.000000e+00
 outer loop
  vertex -5.026608e-01 6.670860e-01 1.000000e+00
  vertex -8.511779e-01 7.780573e-01 1.000000e+00
  vertex -6.011779e-01 1.000000e+00 1.000000e+00
 endloop
endfacet
facet normal 0.000000e+00 -1.000000e+00 0.000000e+00
 outer loop
  vertex -8.511779e-01 1.000000e+00 4.858633e-01
  vertex -5.963259e-01 1.000000e+00 3.820971e-01
  vertex -6.286145e-01 1.000000e+00 7.429317e-01
 endloop
endfacet
facet normal 0.000000e+00 0.000000e+00 1.000000e+00
 outer loop
  vertex -3.883834e-01 1.122292e-01 -3.710312e-01
  vertex 7.441103e-02 1.122292e-01 -3.710312e-01
  vertex -1.569862e-01 5.561146e-01 -3.710312e-01
 endloop
endfacet
facet normal 0.000000e+00 1.000000e+00 0.000000e+00
 outer loop
  vertex 7.441103e-02 1.122292e-01 -3.710312e-01
  vertex -3.883834e-01 1.122292e-01 -3.710312e-01
  vertex -4.466543e-02 1.122292e-01 -3.037865e-02
 endloop
endfacet
facet normal -0.000000e+00 0.000000e+00 1.000000e+00
 outer loop
  vertex -1.569862e-01 5.561146e-01 -3.710312e-01
  vertex 7.441103e-02 1.122292e-01 -3.710312e-01
  vertex 3.320260e-01 5.561146e-01 -3.710312e-01
 endloop
endfacet
facet normal 0.000000e+00 1.000000e+00 0.000000e+00
 outer loop
  vertex 5.372055e-01 1.122292e-01 -3.710312e-01
  vertex 7.441103e-02 1.122292e-01 -3.710312e-01
  vertex 3.058083e-01 1.122292e-01 5.559528e-02
 endloop
endfacet
facet normal 0.000000e+00 0.000000e+00 1.000000e+00
 outer loop
  vertex 7.441103e-02 1.122292e-01 -3.710312e-01
  vertex 5.372055e-01 1.122292e-01 -3.710312e-01
  vertex 3.320260e-01 5.561146e-01 -3.710312e-01
 endloop
endfacet
facet normal 0.000000e+00 1.000000e+00 0.000000e+00
 outer loop
  vertex 3.058083e-01 1.122292e-01 5.559528e-02
  vertex 7.441103e-02 1.122292e-01 -3.710312e-01
  vertex -4.466543e-02 1.122292e-01 -3.037865e-02
 endloop
endfacet
facet normal 0.000000e+00 0.000000e+00 1.000000e+00
 outer loop
  vertex 7.441103e-02 1.000000e+00 -3.710312e-01
  vertex -3.883834e-01 1.000000e+00 -3.710312e-01
  vertex -3.661206e-01 7.293493e-01 -3.710312e-01
 endloop
endfacet
facet normal 0.000000e+00 -1.000000e+00 0.000000e+00
 outer loop
  vertex -3.883834e-01 1.000000e+00 -3.710312e-01
  vertex 7.441103e-02 1.000000e+00 -3.710312e-01
  vertex -1.545252e-01 1.000000e+00 -5.875346e-02
 endloop
endfacet
facet normal 0.000000e+00 -1.000000e+00 0.000000e+00
 outer loop
  vertex 7.441103e-02 1.000000e+00 -3.710312e-01
  vertex 5.372055e-01 1.000000e+00 -3.710312e-01
  vertex 5.860410e-01 1.000000e+00 4.684422e-02
 endloop
endfacet
facet normal 0.000000e+00 0.000000e+00 1.000000e+00
 outer loop
  vertex 5.372055e-01 1.000000e+00 -3.710312e-01
  vertex 7.441103e-02 1.000000e+00 -3.710312e-01
  vertex 3.320260e-01 5.561146e-01 -3.710312e-01
 endloop
endfacet
facet normal 0.000000e+00 0.000000e+00 1.000000e+00
 outer loop
  vertex 7.441103e-02 1.000000e+00 -3.710312e-01
  vertex -1.569862e-01 5.561146e-01 -3.710312e-01
  vertex 3.320260e-01 5.561146e-01 -3.710312e-01
 endloop
endfacet
facet normal 0.000000e+00 -0.000000e+00 1.000000e+00
 outer loop
  vertex -1.569862e-01 5.561146e-01 -3.710312e-01
  vertex 7.441103e-02 1.000000e+00 -3.710312e-01
  vertex -3.661206e-01 7.293493e-01 -3.710312e-01
 endloop
endfacet
facet normal 0.000000e+00 -1.000000e+00 0.000000e+00
 outer loop
  vertex 7.441103e-02 1.000000e+00 -3.710312e-01
  vertex 5.860410e-01 1.000000e+00 4.684422e-02
  vertex -1.545252e-01 1.000000e+00 -5.875346e-02
 endloop
endfacet
facet normal 0.000000e+00 -0.000000e+00 1.000000e+00
 outer loop
  vertex -3.883834e-01 1.122292e-01 -3.710312e-01
  vertex -1.569862e-01 5.561146e-01 -3.710312e-01
  vertex -5.040821e-01 4.547992e-01 -3.710312e-01
 endloop
endfacet
facet normal 0.000000e+00 0.000000e+00 1.000000e+00
 outer loop
  vertex -6.197807e-01 1.122292e-01 -3.710312e-01
  vertex -3.883834e-01 1.122292e-01 -3.710312e-01
  vertex -5.040821e-01 4.547992e-01 -3.710312e-01
 endloop
endfacet
facet normal 0.000000e+00 1.000000e+00 0.000000e+00
 outer loop
  vertex -3.883834e-01 1.122292e-01 -3.710312e-01
  vertex -6.197807e-01 1.122292e-01 -3.710312e-01
  vertex -5.658701e-01 1.122292e-01 -8.514840e-02
 endloop
endfacet
facet normal 0.000000e+00 1.000000e+00 -0.000000e+00
 outer loop
  vertex -3.883834e-01 1.122292e-01 -3.710312e-01
  vertex -5.658701e-01 1.122292e-01 -8.514840e-02
  vertex -4.466543e-02 1.122292e-01 -3.037865e-02
 endloop
endfacet
facet normal 0.000000e+00 -1.000000e+00 0.000000e+00
 outer loop
  vertex -4.849525e-01 1.000000e+00 1.431055e-01
  vertex -3.883834e-01 1.000000e+00 -3.710312e-01
  vertex -1.545252e-01 1.000000e+00 -5.875346e-02
 endloop
endfacet
facet normal 0.000000e+00 0.000000e+00 1.000000e+00
 outer loop
  vertex -3.883834e-01 1.000000e+00 -3.710312e-01
  vertex -6.304513e-01 6.670860e-01 -3.710312e-01
  vertex -3.661206e-01 7.293493e-01 -3.710312e-01
 endloop
endfacet
facet normal 0.000000e+00 -1.000000e+00 -0.000000e+00
 outer loop
  vertex 5.860410e-01 1.000000e+00 4.684422e-02
  vertex 5.372055e-01 1.000000e+00 -3.710312e-01
  vertex 6.529041e-01 1.000000e+00 -1.727611e-01
 endloop
endfacet
facet normal 0.000000e+00 0.000000e+00 1.000000e+00
 outer loop
  vertex 5.372055e-01 1.000000e+00 -3.710312e-01
  vertex 3.320260e-01 5.561146e-01 -3.710312e-01
  vertex 7.214862e-01 7.192777e-01 -3.710312e-01
 endloop
endfacet
facet normal 0.000000e+00 -1.000000e+00 0.000000e+00
 outer loop
  vertex 5.372055e-01 1.000000e+00 -3.710312e-01
  vertex 7.686028e-01 1.000000e+00 -3.710312e-01
  vertex 6.529041e-01 1.000000e+00 -1.727611e-01
 endloop
endfacet
facet normal 0.000000e+00 0.000000e+00 1.000000e+00
 outer loop
  vertex 7.686028e-01 1.000000e+00 -3.710312e-01
  vertex 5.372055e-01 1.000000e+00 -3.710312e-01
  vertex 7.214862e-01 7.192777e-01 -3.710312e-01
 endloop
endfacet
facet normal 0.000000e+00 -1.000000e+00 -0.000000e+00
 outer loop
  vertex 4.388627e-01 1.000000e+00 4.409803e-01
  vertex -1.250162e-01 1.000000e+00 3.273274e-01
  vertex 5.860410e-01 1.000000e+00 4.684422e-02
 endloop
endfacet
facet normal -0.000000e+00 -1.000000e+00 0.000000e+00
 outer loop
  vertex 5.860410e-01 1.000000e+00 4.684422e-02
  vertex -1.250162e-01 1.000000e+00 3.273274e-01
  vertex -1.545252e-01 1.000000e+00 -5.875346e-02
 endloop
endfacet
facet normal 0.000000e+00 -1.000000e+00 0.000000e+00
 outer loop
  vertex -1.250162e-01 1.000000e+00 3.273274e-01
  vertex -4.849525e-01 1.000000e+00 1.431055e-01
  vertex -1.545252e-01 1.000000e+00 -5.875346e-02
 endloop
endfacet
facet normal 0.000000e+00 -1.000000e+00 0.000000e+00
 outer loop
  vertex -4.849525e-01 1.000000e+00 1.431055e-01
  vertex -1.250162e-01 1.000000e+00 3.273274e-01
  vertex -5.963259e-01 1.000000e+00 3.820971e-01
 endloop
endfacet
facet normal 0.000000e+00 -1.000000e+00 0.000000e+00
 outer loop
  vertex -1.250162e-01 1.000000e+00 3.273274e-01
  vertex -4.412698e-01 1.000000e+00 5.953542e-01
  vertex -5.963259e-01 1.000000e+00 3.820971e-01
 endloop
endfacet
facet normal 0.000000e+00 1.000000e+00 0.000000e+00
 outer loop
  vertex -3.511779e-01 1.122292e-01 1.000000e+00
  vertex -4.346440e-01 1.122292e-01 5.856887e-01
  vertex -6.159083e-01 1.122292e-01 7.534540e-01
 endloop
endfacet
facet normal -0.000000e+00 1.000000e+00 0.000000e+00
 outer loop
  vertex -6.011779e-01 1.122292e-01 1.000000e+00
  vertex -3.511779e-01 1.122292e-01 1.000000e+00
  vertex -6.159083e-01 1.122292e-01 7.534540e-01
 endloop
endfacet
facet normal 0.000000e+00 0.000000e+00 -1.000000e+00
 outer loop
  vertex -3.511779e-01 1.122292e-01 1.000000e+00
  vertex -6.011779e-01 1.122292e-01 1.000000e+00
  vertex -5.747962e-01 3.937195e-01 1.000000e+00
 endloop
endfacet
facet normal 0.000000e+00 0.000000e+00 -1.000000e+00
 outer loop
  vertex -3.511779e-01 1.122292e-01 1.000000e+00
  vertex -5.747962e-01 3.937195e-01 1.000000e+00
  vertex -8.519020e-02 4.973610e-01 1.000000e+00
 endloop
endfacet
facet normal -0.000000e+00 1.000000e+00 0.000000e+00
 outer loop
  vertex -1.011779e-01 1.122292e-01 3.260336e-01
  vertex 3.616166e-01 1.122292e-01 5.377159e-01
  vertex 3.058083e-01 1.122292e-01 5.559528e-02
 endloop
endfacet
facet normal 0.000000e+00 1.000000e+00 0.000000e+00
 outer loop
  vertex -4.346440e-01 1.122292e-01 5.856887e-01
  vertex -1.011779e-01 1.122292e-01 3.260336e-01
  vertex -4.741867e-01 1.122292e-01 1.909484e-01
 endloop
endfacet
facet normal -0.000000e+00 1.000000e+00 0.000000e+00
 outer loop
  vertex -4.741867e-01 1.122292e-01 1.909484e-01
  vertex -1.011779e-01 1.122292e-01 3.260336e-01
  vertex -4.466543e-02 1.122292e-01 -3.037865e-02
 endloop
endfacet
facet normal 0.000000e+00 1.000000e+00 0.000000e+00
 outer loop
  vertex -1.011779e-01 1.122292e-01 3.260336e-01
  vertex 3.058083e-01 1.122292e-01 5.559528e-02
  vertex -4.466543e-02 1.122292e-01 -3.037865e-02
 endloop
endfacet
facet normal 0.000000e+00 -0.000000e+00 -1.000000e+00
 outer loop
  vertex 5.744110e-01 1.000000e+00 1.000000e+00
  vertex 6.034204e-01 7.131446e-01 1.000000e+00
  vertex 3.616166e-01 5.561146e-01 1.000000e+00
 endloop
endfacet
facet normal 0.000000e+00 -1.000000e+00 0.000000e+00
 outer loop
  vertex 4.388627e-01 1.000000e+00 4.409803e-01
  vertex 6.685090e-01 1.000000e+00 6.812402e-01
  vertex 5.744110e-01 1.000000e+00 1.000000e+00
 endloop
endfacet
facet normal 0.000000e+00 0.000000e+00 -1.000000e+00
 outer loop
  vertex 6.034204e-01 7.131446e-01 1.000000e+00
  vertex 5.744110e-01 1.000000e+00 1.000000e+00
  vertex 7.872055e-01 1.000000e+00 1.000000e+00
 endloop
endfacet
facet normal -0.000000e+00 -1.000000e+00 0.000000e+00
 outer loop
  vertex 7.872055e-01 1.000000e+00 1.000000e+00
  vertex 5.744110e-01 1.000000e+00 1.000000e+00
  vertex 6.685090e-01 1.000000e+00 6.812402e-01
 endloop
endfacet
facet normal 0.000000e+00 0.000000e+00 -1.000000e+00
 outer loop
  vertex 5.744110e-01 1.122292e-01 1.000000e+00
  vertex 3.616166e-01 5.561146e-01 1.000000e+00
  vertex 6.770703e-01 4.343917e-01 1.000000e+00
 endloop
endfacet
facet normal 0.000000e+00 0.000000e+00 -1.000000e+00
 outer loop
  vertex 6.770703e-01 4.343917e-01 1.000000e+00
  vertex 3.616166e-01 5.561146e-01 1.000000e+00
  vertex 6.034204e-01 7.131446e-01 1.000000e+00
 endloop
endfacet
facet normal 0.000000e+00 0.000000e+00 1.000000e+00
 outer loop
  vertex -5.040821e-01 4.547992e-01 -3.710312e-01
  vertex -1.569862e-01 5.561146e-01 -3.710312e-01
  vertex -3.661206e-01 7.293493e-01 -3.710312e-01
 endloop
endfacet
facet normal 0.000000e+00 1.000000e+00 0.000000e+00
 outer loop
  vertex 5.744110e-01 1.122292e-01 1.000000e+00
  vertex 6.657637e-01 1.122292e-01 6.778315e-01
  vertex 3.616166e-01 1.122292e-01 5.377159e-01
 endloop
endfacet
facet normal 0.000000e+00 0.000000e+00 -1.000000e+00
 outer loop
  vertex 5.744110e-01 1.122292e-01 1.000000e+00
  vertex 6.770703e-01 4.343917e-01 1.000000e+00
  vertex 7.872055e-01 1.122292e-01 1.000000e+00
 endloop
endfacet
facet normal -0.000000e+00 1.000000e+00 0.000000e+00
 outer loop
  vertex 5.744110e-01 1.122292e-01 1.000000e+00
  vertex 7.872055e-01 1.122292e-01 1.000000e+00
  vertex 6.657637e-01 1.122292e-01 6.778315e-01
 endloop
endfacet
facet normal 0.000000e+00 1.000000e+00 0.000000e+00
 outer loop
  vertex 3.058083e-01 1.122292e-01 5.559528e-02
  vertex 3.616166e-01 1.122292e-01 5.377159e-01
  vertex 5.462831e-01 1.122292e-01 2.720493e-01
 endloop
endfacet
facet normal 0.000000e+00 1.000000e+00 -0.000000e+00
 outer loop
  vertex 5.462831e-01 1.122292e-01 2.720493e-01
  vertex 3.616166e-01 1.122292e-01 5.377159e-01
  vertex 5.699975e-01 1.122292e-01 4.855480e-01
 endloop
endfacet
facet normal -0.000000e+00 1.000000e+00 0.000000e+00
 outer loop
  vertex 3.616166e-01 1.122292e-01 5.377159e-01
  vertex 6.657637e-01 1.122292e-01 6.778315e-01
  vertex 5.699975e-01 1.122292e-01 4.855480e-01
 endloop
endfacet
facet normal 0.000000e+00 -1.000000e+00 0.000000e+00
 outer loop
  vertex 4.388627e-01 1.000000e+00 4.409803e-01
  vertex 5.860410e-01 1.000000e+00 4.684422e-02
  vertex 7.055166e-01 1.000000e+00 3.160065e-01
 endloop
endfacet
facet normal 0.000000e+00 -1.000000e+00 0.000000e+00
 outer loop
  vertex 4.388627e-01 1.000000e+00 4.409803e-01
  vertex 7.055166e-01 1.000000e+00 3.160065e-01
  vertex 6.685090e-01 1.000000e+00 6.812402e-01
 endloop
endfacet
facet normal 0.000000e+00 1.000000e+00 -0.000000e+00
 outer loop
  vertex 5.372055e-01 1.122292e-01 -3.710312e-01
  vertex 3.058083e-01 1.122292e-01 5.559528e-02
  vertex 6.469735e-01 1.122292e-01 -3.542745e-02
 endloop
endfacet
facet normal 0.000000e+00 1.000000e+00 0.000000e+00
 outer loop
  vertex 5.372055e-01 1.122292e-01 -3.710312e-01
  vertex 6.469735e-01 1.122292e-01 -3.542745e-02
  vertex 7.990031e-01 1.122292e-01 -1.701713e-01
 endloop
endfacet
facet normal 0.000000e+00 -0.000000e+00 1.000000e+00
 outer loop
  vertex 5.372055e-01 1.122292e-01 -3.710312e-01
  vertex 6.644383e-01 4.404041e-01 -3.710312e-01
  vertex 3.320260e-01 5.561146e-01 -3.710312e-01
 endloop
endfacet
facet normal 0.000000e+00 0.000000e+00 1.000000e+00
 outer loop
  vertex 6.644383e-01 4.404041e-01 -3.710312e-01
  vertex 5.372055e-01 1.122292e-01 -3.710312e-01
  vertex 7.686028e-01 1.122292e-01 -3.710312e-01
 endloop
endfacet
facet normal 0.000000e+00 1.000000e+00 0.000000e+00
 outer loop
  vertex 5.372055e-01 1.122292e-01 -3.710312e-01
  vertex 7.990031e-01 1.122292e-01 -1.701713e-01
  vertex 7.686028e-01 1.122292e-01 -3.710312e-01
 endloop
endfacet
facet normal 0.000000e+00 1.000000e+00 0.000000e+00
 outer loop
  vertex -4.346440e-01 1.122292e-01 5.856887e-01
  vertex -4.741867e-01 1.122292e-01 1.909484e-01
  vertex -6.113390e-01 1.122292e-01 4.040382e-01
 endloop
endfacet
facet normal 0.000000e+00 1.000000e+00 0.000000e+00
 outer loop
  vertex -4.346440e-01 1.122292e-01 5.856887e-01
  vertex -6.113390e-01 1.122292e-01 4.040382e-01
  vertex -6.159083e-01 1.122292e-01 7.534540e-01
 endloop
endfacet
facet normal 0.000000e+00 1.000000e+00 0.000000e+00
 outer loop
  vertex -4.741867e-01 1.122292e-01 1.909484e-01
  vertex -4.466543e-02 1.122292e-01 -3.037865e-02
  vertex -5.658701e-01 1.122292e-01 -8.514840e-02
 endloop
endfacet
facet normal 0.000000e+00 1.000000e+00 0.000000e+00
 outer loop
  vertex 6.469735e-01 1.122292e-01 -3.542745e-02
  vertex 3.058083e-01 1.122292e-01 5.559528e-02
  vertex 5.462831e-01 1.122292e-01 2.720493e-01
 endloop
endfacet
facet normal 0.000000e+00 -1.000000e+00 0.000000e+00
 outer loop
  vertex -4.412698e-01 1.000000e+00 5.953542e-01
  vertex -3.511779e-01 1.000000e+00 1.000000e+00
  vertex -6.286145e-01 1.000000e+00 7.429317e-01
 endloop
endfacet
facet normal -0.000000e+00 0.000000e+00 -1.000000e+00
 outer loop
  vertex -3.511779e-01 1.000000e+00 1.000000e+00
  vertex -5.026608e-01 6.670860e-01 1.000000e+00
  vertex -6.011779e-01 1.000000e+00 1.000000e+00
 endloop
endfacet
facet normal 0.000000e+00 -0.000000e+00 -1.000000e+00
 outer loop
  vertex -3.511779e-01 1.000000e+00 1.000000e+00
  vertex -8.519020e-02 4.973610e-01 1.000000e+00
  vertex -5.026608e-01 6.670860e-01 1.000000e+00
 endloop
endfacet
facet normal -0.000000e+00 -1.000000e+00 0.000000e+00
 outer loop
  vertex -3.511779e-01 1.000000e+00 1.000000e+00
  vertex -6.011779e-01 1.000000e+00 1.000000e+00
  vertex -6.286145e-01 1.000000e+00 7.429317e-01
 endloop
endfacet
facet normal 0.000000e+00 1.000000e+00 -0.000000e+00
 outer loop
  vertex 6.469735e-01 1.122292e-01 -3.542745e-02
  vertex 5.462831e-01 1.122292e-01 2.720493e-01
  vertex 7.673150e-01 1.122292e-01 3.555646e-01
 endloop
endfacet
facet normal -0.000000e+00 -1.000000e+00 0.000000e+00
 outer loop
  vertex -4.412698e-01 1.000000e+00 5.953542e-01
  vertex -6.286145e-01 1.000000e+00 7.429317e-01
  vertex -5.963259e-01 1.000000e+00 3.820971e-01
 endloop
endfacet
facet normal -0.000000e+00 0.000000e+00 1.000000e+00
 outer loop
  vertex 3.320260e-01 5.561146e-01 -3.710312e-01
  vertex 6.644383e-01 4.404041e-01 -3.710312e-01
  vertex 7.214862e-01 7.192777e-01 -3.710312e-01
 endloop
endfacet
facet normal -0.000000e+00 0.000000e+00 1.000000e+00
 outer loop
  vertex -6.304513e-01 6.670860e-01 -3.710312e-01
  vertex -5.040821e-01 4.547992e-01 -3.710312e-01
  vertex -3.661206e-01 7.293493e-01 -3.710312e-01
 endloop
endfacet
facet normal 0.000000e+00 0.000000e+00 -1.000000e+00
 outer loop
  vertex -5.747962e-01 3.937195e-01 1.000000e+00
  vertex -5.026608e-01 6.670860e-01 1.000000e+00
  vertex -8.519020e-02 4.973610e-01 1.000000e+00
 endloop
endfacet
facet normal 0.000000e+00 1.000000e+00 0.000000e+00
 outer loop
  vertex 5.462831e-01 1.122292e-01 2.720493e-01
  vertex 5.699975e-01 1.122292e-01 4.855480e-01
  vertex 7.673150e-01 1.122292e-01 3.555646e-01
 endloop
endfacet
facet normal 0.000000e+00 1.000000e+00 0.000000e+00
 outer loop
  vertex 5.699975e-01 1.122292e-01 4.855480e-01
  vertex 6.657637e-01 1.122292e-01 6.778315e-01
  vertex 8.129041e-01 1.122292e-01 5.470641e-01
 endloop
endfacet
facet normal 0.000000e+00 -1.000000e+00 0.000000e+00
 outer loop
  vertex -8.511779e-01 1.000000e+00 8.286211e-01
  vertex -6.286145e-01 1.000000e+00 7.429317e-01
  vertex -6.011779e-01 1.000000e+00 1.000000e+00
 endloop
endfacet
facet normal 0.000000e+00 1.000000e+00 -0.000000e+00
 outer loop
  vertex 7.673150e-01 1.122292e-01 3.555646e-01
  vertex 5.699975e-01 1.122292e-01 4.855480e-01
  vertex 8.129041e-01 1.122292e-01 5.470641e-01
 endloop
endfacet
endsolid 
