solid 
facet normal 8.796615e-02 -9.878248e-01 -1.283126e-01
 outer loop
  vertex 7.382452e+01 2.681928e+02 8.044715e+01
  vertex 7.345676e+01 2.679449e+02 8.210351e+01
  vertex 7.212609e+01 2.680206e+02 8.060821e+01
 endloop
endfacet
facet normal 9.748638e-01 -9.278466e-02 2.025627e-01
 outer loop
  vertex 7.345676e+01 2.679449e+02 8.210351e+01
  vertex 7.382452e+01 2.681928e+02 8.044715e+01
  vertex 7.363860e+01 2.698196e+02 8.208707e+01
 endloop
endfacet
facet normal -2.895396e-01 9.453091e-01 1.501917e-01
 outer loop
  vertex 7.382452e+01 2.681928e+02 8.044715e+01
  vertex 7.401280e+01 2.686028e+02 7.822929e+01
  vertex 7.200829e+01 2.679478e+02 7.848808e+01
 endloop
endfacet
facet normal -7.228996e-01 6.878133e-01 6.579607e-02
 outer loop
  vertex 7.401280e+01 2.686028e+02 7.822929e+01
  vertex 7.382452e+01 2.681928e+02 8.044715e+01
  vertex 7.537961e+01 2.699862e+02 7.878489e+01
 endloop
endfacet
facet normal -1.034783e-01 9.942255e-01 -2.842182e-02
 outer loop
  vertex 7.382452e+01 2.681928e+02 8.044715e+01
  vertex 7.200829e+01 2.679478e+02 7.848808e+01
  vertex 7.212609e+01 2.680206e+02 8.060821e+01
 endloop
endfacet
facet normal -8.151471e-01 5.712733e-01 9.582291e-02
 outer loop
  vertex 7.382452e+01 2.681928e+02 8.044715e+01
  vertex 7.466244e+01 2.691230e+02 8.202920e+01
  vertex 7.481142e+01 2.695304e+02 8.086790e+01
 endloop
endfacet
facet normal 4.195496e-01 6.677729e-01 -6.148637e-01
 outer loop
  vertex 7.466244e+01 2.691230e+02 8.202920e+01
  vertex 7.382452e+01 2.681928e+02 8.044715e+01
  vertex 7.363860e+01 2.698196e+02 8.208707e+01
 endloop
endfacet
facet normal -7.894314e-01 6.083065e-01 -8.222698e-02
 outer loop
  vertex 7.382452e+01 2.681928e+02 8.044715e+01
  vertex 7.481142e+01 2.695304e+02 8.086790e+01
  vertex 7.537961e+01 2.699862e+02 7.878489e+01
 endloop
endfacet
facet normal 1.714831e-01 9.797903e-01 -1.029781e-01
 outer loop
  vertex 7.345676e+01 2.679449e+02 8.210351e+01
  vertex 7.212609e+01 2.680206e+02 8.060821e+01
  vertex 7.159920e+01 2.682562e+02 8.197268e+01
 endloop
endfacet
facet normal 1.505423e-01 5.541103e-01 -8.187178e-01
 outer loop
  vertex 7.345676e+01 2.679449e+02 8.210351e+01
  vertex 7.159920e+01 2.682562e+02 8.197268e+01
  vertex 7.216953e+01 2.691819e+02 8.270404e+01
 endloop
endfacet
facet normal 3.982895e-01 -3.059087e-02 9.167495e-01
 outer loop
  vertex 7.345676e+01 2.679449e+02 8.210351e+01
  vertex 7.363860e+01 2.698196e+02 8.208707e+01
  vertex 7.216953e+01 2.691819e+02 8.270404e+01
 endloop
endfacet
facet normal 1.178545e-01 -6.553580e-01 -7.460671e-01
 outer loop
  vertex 7.401280e+01 2.686028e+02 7.822929e+01
  vertex 7.200829e+01 2.679478e+02 7.848808e+01
  vertex 7.147734e+01 2.694511e+02 7.708368e+01
 endloop
endfacet
facet normal 6.983892e-01 -7.133562e-01 5.809874e-02
 outer loop
  vertex 7.401280e+01 2.686028e+02 7.822929e+01
  vertex 7.498496e+01 2.694815e+02 7.733128e+01
  vertex 7.537961e+01 2.699862e+02 7.878489e+01
 endloop
endfacet
facet normal 1.040867e-01 -7.648884e-01 -6.356978e-01
 outer loop
  vertex 7.498496e+01 2.694815e+02 7.733128e+01
  vertex 7.401280e+01 2.686028e+02 7.822929e+01
  vertex 7.359024e+01 2.699859e+02 7.649598e+01
 endloop
endfacet
facet normal -2.274270e-02 7.787473e-01 6.269254e-01
 outer loop
  vertex 7.401280e+01 2.686028e+02 7.822929e+01
  vertex 7.359024e+01 2.699859e+02 7.649598e+01
  vertex 7.147734e+01 2.694511e+02 7.708368e+01
 endloop
endfacet
facet normal -3.895539e-03 -9.993948e-01 3.456550e-02
 outer loop
  vertex 7.200829e+01 2.679478e+02 7.848808e+01
  vertex 7.212609e+01 2.680206e+02 8.060821e+01
  vertex 7.074314e+01 2.679709e+02 7.901541e+01
 endloop
endfacet
facet normal -1.424848e-01 -9.431095e-01 -3.004040e-01
 outer loop
  vertex 7.200829e+01 2.679478e+02 7.848808e+01
  vertex 7.074314e+01 2.679709e+02 7.901541e+01
  vertex 6.991645e+01 2.684376e+02 7.794248e+01
 endloop
endfacet
facet normal 3.376662e-02 -6.758769e-01 -7.362406e-01
 outer loop
  vertex 7.200829e+01 2.679478e+02 7.848808e+01
  vertex 6.991645e+01 2.684376e+02 7.794248e+01
  vertex 7.147734e+01 2.694511e+02 7.708368e+01
 endloop
endfacet
facet normal 1.215933e-02 9.990549e-01 -4.172992e-02
 outer loop
  vertex 7.212609e+01 2.680206e+02 8.060821e+01
  vertex 7.074314e+01 2.679709e+02 7.901541e+01
  vertex 7.006144e+01 2.680288e+02 8.020332e+01
 endloop
endfacet
facet normal -8.544376e-02 9.757559e-01 -2.014938e-01
 outer loop
  vertex 7.159920e+01 2.682562e+02 8.197268e+01
  vertex 7.212609e+01 2.680206e+02 8.060821e+01
  vertex 6.994080e+01 2.679976e+02 8.142343e+01
 endloop
endfacet
facet normal -1.020374e-03 9.996746e-01 2.549007e-02
 outer loop
  vertex 7.212609e+01 2.680206e+02 8.060821e+01
  vertex 7.006144e+01 2.680288e+02 8.020332e+01
  vertex 6.994080e+01 2.679976e+02 8.142343e+01
 endloop
endfacet
facet normal -5.421730e-01 -7.687471e-01 -3.392290e-01
 outer loop
  vertex 7.466244e+01 2.691230e+02 8.202920e+01
  vertex 7.363860e+01 2.698196e+02 8.208707e+01
  vertex 7.481142e+01 2.695304e+02 8.086790e+01
 endloop
endfacet
facet normal 9.528046e-01 -2.503275e-01 -1.717541e-01
 outer loop
  vertex 7.537961e+01 2.699862e+02 7.878489e+01
  vertex 7.498496e+01 2.694815e+02 7.733128e+01
  vertex 7.539607e+01 2.710152e+02 7.737643e+01
 endloop
endfacet
facet normal 4.830991e-01 -1.038942e-01 -8.693798e-01
 outer loop
  vertex 7.498496e+01 2.694815e+02 7.733128e+01
  vertex 7.359024e+01 2.699859e+02 7.649598e+01
  vertex 7.539607e+01 2.710152e+02 7.737643e+01
 endloop
endfacet
facet normal 8.127385e-01 -5.746747e-01 9.594366e-02
 outer loop
  vertex 7.481142e+01 2.695304e+02 8.086790e+01
  vertex 7.537961e+01 2.699862e+02 7.878489e+01
  vertex 7.589738e+01 2.709458e+02 8.014652e+01
 endloop
endfacet
facet normal -6.497291e-01 6.758514e-01 3.479613e-01
 outer loop
  vertex 7.481142e+01 2.695304e+02 8.086790e+01
  vertex 7.589482e+01 2.703494e+02 8.130013e+01
  vertex 7.589738e+01 2.709458e+02 8.014652e+01
 endloop
endfacet
facet normal -6.069316e-02 5.275032e-01 -8.473823e-01
 outer loop
  vertex 7.589482e+01 2.703494e+02 8.130013e+01
  vertex 7.481142e+01 2.695304e+02 8.086790e+01
  vertex 7.486091e+01 2.709812e+02 8.176747e+01
 endloop
endfacet
facet normal -5.933727e-01 4.387028e-01 -6.748694e-01
 outer loop
  vertex 7.481142e+01 2.695304e+02 8.086790e+01
  vertex 7.363860e+01 2.698196e+02 8.208707e+01
  vertex 7.486091e+01 2.709812e+02 8.176747e+01
 endloop
endfacet
facet normal 1.354718e-02 -9.983137e-01 5.644585e-02
 outer loop
  vertex 7.074314e+01 2.679709e+02 7.901541e+01
  vertex 7.006144e+01 2.680288e+02 8.020332e+01
  vertex 6.938273e+01 2.679620e+02 7.918398e+01
 endloop
endfacet
facet normal -4.005915e-02 -9.272052e-01 -3.724053e-01
 outer loop
  vertex 7.074314e+01 2.679709e+02 7.901541e+01
  vertex 6.938273e+01 2.679620e+02 7.918398e+01
  vertex 6.991645e+01 2.684376e+02 7.794248e+01
 endloop
endfacet
facet normal 1.956256e-01 -9.715985e-01 -1.331423e-01
 outer loop
  vertex 7.159920e+01 2.682562e+02 8.197268e+01
  vertex 7.067092e+01 2.679498e+02 8.284524e+01
  vertex 6.994080e+01 2.679976e+02 8.142343e+01
 endloop
endfacet
facet normal 3.027631e-01 7.515658e-01 5.860745e-01
 outer loop
  vertex 7.067092e+01 2.679498e+02 8.284524e+01
  vertex 7.159920e+01 2.682562e+02 8.197268e+01
  vertex 6.994683e+01 2.687358e+02 8.221131e+01
 endloop
endfacet
facet normal -3.983998e-02 -6.042242e-01 7.958178e-01
 outer loop
  vertex 7.159920e+01 2.682562e+02 8.197268e+01
  vertex 7.216953e+01 2.691819e+02 8.270404e+01
  vertex 7.097031e+01 2.691868e+02 8.264769e+01
 endloop
endfacet
facet normal -6.469149e-02 -6.142362e-01 7.864661e-01
 outer loop
  vertex 7.159920e+01 2.682562e+02 8.197268e+01
  vertex 7.097031e+01 2.691868e+02 8.264769e+01
  vertex 6.994683e+01 2.687358e+02 8.221131e+01
 endloop
endfacet
facet normal 6.551496e-01 -7.120025e-01 2.526488e-01
 outer loop
  vertex 7.537961e+01 2.699862e+02 7.878489e+01
  vertex 7.669033e+01 2.711182e+02 7.857606e+01
  vertex 7.589738e+01 2.709458e+02 8.014652e+01
 endloop
endfacet
facet normal 5.188795e-01 -6.931289e-01 -5.003363e-01
 outer loop
  vertex 7.669033e+01 2.711182e+02 7.857606e+01
  vertex 7.537961e+01 2.699862e+02 7.878489e+01
  vertex 7.539607e+01 2.710152e+02 7.737643e+01
 endloop
endfacet
facet normal -8.117407e-01 -4.230681e-01 4.026046e-01
 outer loop
  vertex 7.067092e+01 2.679498e+02 8.284524e+01
  vertex 6.994683e+01 2.687358e+02 8.221131e+01
  vertex 6.994080e+01 2.679976e+02 8.142343e+01
 endloop
endfacet
facet normal -6.002917e-01 -7.099093e-01 -3.683458e-01
 outer loop
  vertex 7.589482e+01 2.703494e+02 8.130013e+01
  vertex 7.486091e+01 2.709812e+02 8.176747e+01
  vertex 7.589738e+01 2.709458e+02 8.014652e+01
 endloop
endfacet
facet normal 1.795038e-02 -9.995553e-01 -2.381305e-02
 outer loop
  vertex 7.006144e+01 2.680288e+02 8.020332e+01
  vertex 6.994080e+01 2.679976e+02 8.142343e+01
  vertex 6.905558e+01 2.679941e+02 8.090419e+01
 endloop
endfacet
facet normal -5.471319e-02 9.980803e-01 -2.902105e-02
 outer loop
  vertex 7.006144e+01 2.680288e+02 8.020332e+01
  vertex 6.938273e+01 2.679620e+02 7.918398e+01
  vertex 6.905558e+01 2.679941e+02 8.090419e+01
 endloop
endfacet
facet normal 1.173007e-01 9.713731e-01 -2.065789e-01
 outer loop
  vertex 6.994080e+01 2.679976e+02 8.142343e+01
  vertex 6.905558e+01 2.679941e+02 8.090419e+01
  vertex 6.914301e+01 2.681673e+02 8.176817e+01
 endloop
endfacet
facet normal -1.385647e-01 7.232265e-01 -6.765673e-01
 outer loop
  vertex 6.994080e+01 2.679976e+02 8.142343e+01
  vertex 6.914301e+01 2.681673e+02 8.176817e+01
  vertex 6.994683e+01 2.687358e+02 8.221131e+01
 endloop
endfacet
facet normal 1.463519e-01 9.011256e-01 4.081101e-01
 outer loop
  vertex 6.938273e+01 2.679620e+02 7.918398e+01
  vertex 6.991645e+01 2.684376e+02 7.794248e+01
  vertex 6.805980e+01 2.688305e+02 7.774071e+01
 endloop
endfacet
facet normal -2.056711e-01 -9.783987e-01 -2.086643e-02
 outer loop
  vertex 6.938273e+01 2.679620e+02 7.918398e+01
  vertex 6.905558e+01 2.679941e+02 8.090419e+01
  vertex 6.809062e+01 2.682029e+02 8.062404e+01
 endloop
endfacet
facet normal 2.802081e-02 -9.815121e-01 1.893380e-01
 outer loop
  vertex 6.938273e+01 2.679620e+02 7.918398e+01
  vertex 6.809062e+01 2.682029e+02 8.062404e+01
  vertex 6.750853e+01 2.679295e+02 7.929312e+01
 endloop
endfacet
facet normal -1.451613e-02 -8.625599e-01 -5.057466e-01
 outer loop
  vertex 6.938273e+01 2.679620e+02 7.918398e+01
  vertex 6.750853e+01 2.679295e+02 7.929312e+01
  vertex 6.805980e+01 2.688305e+02 7.774071e+01
 endloop
endfacet
facet normal -4.862699e-01 3.424638e-01 -8.039030e-01
 outer loop
  vertex 7.363860e+01 2.698196e+02 8.208707e+01
  vertex 7.216953e+01 2.691819e+02 8.270404e+01
  vertex 7.378368e+01 2.719430e+02 8.290390e+01
 endloop
endfacet
facet normal 5.244344e-01 -3.366698e-01 7.820626e-01
 outer loop
  vertex 7.363860e+01 2.698196e+02 8.208707e+01
  vertex 7.486091e+01 2.709812e+02 8.176747e+01
  vertex 7.378368e+01 2.719430e+02 8.290390e+01
 endloop
endfacet
facet normal 3.667622e-02 6.920549e-01 -7.209125e-01
 outer loop
  vertex 7.216953e+01 2.691819e+02 8.270404e+01
  vertex 7.097031e+01 2.691868e+02 8.264769e+01
  vertex 7.113031e+01 2.703942e+02 8.381498e+01
 endloop
endfacet
facet normal -4.756471e-01 3.368810e-01 -8.125706e-01
 outer loop
  vertex 7.216953e+01 2.691819e+02 8.270404e+01
  vertex 7.113031e+01 2.703942e+02 8.381498e+01
  vertex 7.378368e+01 2.719430e+02 8.290390e+01
 endloop
endfacet
facet normal -2.811398e-02 -6.869147e-01 -7.261940e-01
 outer loop
  vertex 7.359024e+01 2.699859e+02 7.649598e+01
  vertex 7.147734e+01 2.694511e+02 7.708368e+01
  vertex 7.204567e+01 2.706742e+02 7.590469e+01
 endloop
endfacet
facet normal -5.990054e-01 5.685945e-01 5.638199e-01
 outer loop
  vertex 7.359024e+01 2.699859e+02 7.649598e+01
  vertex 7.539607e+01 2.710152e+02 7.737643e+01
  vertex 7.531546e+01 2.723125e+02 7.598251e+01
 endloop
endfacet
facet normal 2.830054e-01 -1.750221e-01 -9.430139e-01
 outer loop
  vertex 7.359024e+01 2.699859e+02 7.649598e+01
  vertex 7.204567e+01 2.706742e+02 7.590469e+01
  vertex 7.308373e+01 2.721336e+02 7.594535e+01
 endloop
endfacet
facet normal -3.541881e-02 2.403415e-01 9.700420e-01
 outer loop
  vertex 7.359024e+01 2.699859e+02 7.649598e+01
  vertex 7.531546e+01 2.723125e+02 7.598251e+01
  vertex 7.308373e+01 2.721336e+02 7.594535e+01
 endloop
endfacet
facet normal 8.219235e-01 -4.354284e-01 3.672110e-01
 outer loop
  vertex 7.589738e+01 2.709458e+02 8.014652e+01
  vertex 7.669033e+01 2.711182e+02 7.857606e+01
  vertex 7.693389e+01 2.724926e+02 7.966068e+01
 endloop
endfacet
facet normal 6.472805e-01 -3.696532e-01 -6.666216e-01
 outer loop
  vertex 7.669033e+01 2.711182e+02 7.857606e+01
  vertex 7.539607e+01 2.710152e+02 7.737643e+01
  vertex 7.636584e+01 2.736355e+02 7.686508e+01
 endloop
endfacet
facet normal -9.896632e-01 1.329547e-01 5.375581e-02
 outer loop
  vertex 7.669033e+01 2.711182e+02 7.857606e+01
  vertex 7.693389e+01 2.724926e+02 7.966068e+01
  vertex 7.705312e+01 2.739638e+02 7.821693e+01
 endloop
endfacet
facet normal 8.947274e-01 -1.663738e-01 -4.144667e-01
 outer loop
  vertex 7.669033e+01 2.711182e+02 7.857606e+01
  vertex 7.636584e+01 2.736355e+02 7.686508e+01
  vertex 7.705312e+01 2.739638e+02 7.821693e+01
 endloop
endfacet
facet normal -5.386723e-02 6.925371e-01 7.193682e-01
 outer loop
  vertex 6.991645e+01 2.684376e+02 7.794248e+01
  vertex 7.147734e+01 2.694511e+02 7.708368e+01
  vertex 6.954792e+01 2.694210e+02 7.696811e+01
 endloop
endfacet
facet normal 7.612132e-02 7.160257e-01 6.939111e-01
 outer loop
  vertex 6.991645e+01 2.684376e+02 7.794248e+01
  vertex 6.954792e+01 2.694210e+02 7.696811e+01
  vertex 6.805980e+01 2.688305e+02 7.774071e+01
 endloop
endfacet
facet normal -7.702233e-01 3.945204e-01 -5.011084e-01
 outer loop
  vertex 7.589738e+01 2.709458e+02 8.014652e+01
  vertex 7.486091e+01 2.709812e+02 8.176747e+01
  vertex 7.606787e+01 2.722749e+02 8.093086e+01
 endloop
endfacet
facet normal 7.927356e-01 -3.820095e-01 4.750148e-01
 outer loop
  vertex 7.589738e+01 2.709458e+02 8.014652e+01
  vertex 7.693389e+01 2.724926e+02 7.966068e+01
  vertex 7.606787e+01 2.722749e+02 8.093086e+01
 endloop
endfacet
facet normal 7.758290e-01 5.988868e-01 -1.985546e-01
 outer loop
  vertex 6.905558e+01 2.679941e+02 8.090419e+01
  vertex 6.855248e+01 2.687846e+02 8.132277e+01
  vertex 6.914301e+01 2.681673e+02 8.176817e+01
 endloop
endfacet
facet normal -1.499600e-01 -9.673129e-01 -2.044940e-01
 outer loop
  vertex 6.905558e+01 2.679941e+02 8.090419e+01
  vertex 6.838726e+01 2.680065e+02 8.133562e+01
  vertex 6.809062e+01 2.682029e+02 8.062404e+01
 endloop
endfacet
facet normal 5.382927e-01 -1.004812e-01 8.367464e-01
 outer loop
  vertex 6.838726e+01 2.680065e+02 8.133562e+01
  vertex 6.905558e+01 2.679941e+02 8.090419e+01
  vertex 6.855248e+01 2.687846e+02 8.132277e+01
 endloop
endfacet
facet normal -3.624502e-02 6.457137e-01 -7.627189e-01
 outer loop
  vertex 6.994683e+01 2.687358e+02 8.221131e+01
  vertex 6.914301e+01 2.681673e+02 8.176817e+01
  vertex 6.842699e+01 2.690649e+02 8.256216e+01
 endloop
endfacet
facet normal 7.467399e-01 6.609979e-01 -7.390061e-02
 outer loop
  vertex 6.914301e+01 2.681673e+02 8.176817e+01
  vertex 6.855248e+01 2.687846e+02 8.132277e+01
  vertex 6.842699e+01 2.690649e+02 8.256216e+01
 endloop
endfacet
facet normal 6.024252e-02 -4.586077e-01 -8.865945e-01
 outer loop
  vertex 7.147734e+01 2.694511e+02 7.708368e+01
  vertex 6.954792e+01 2.694210e+02 7.696811e+01
  vertex 6.999571e+01 2.709613e+02 7.620180e+01
 endloop
endfacet
facet normal 1.971253e-01 6.313532e-01 7.500232e-01
 outer loop
  vertex 7.147734e+01 2.694511e+02 7.708368e+01
  vertex 7.204567e+01 2.706742e+02 7.590469e+01
  vertex 6.999571e+01 2.709613e+02 7.620180e+01
 endloop
endfacet
facet normal 8.279428e-01 -3.858478e-01 -4.069793e-01
 outer loop
  vertex 7.539607e+01 2.710152e+02 7.737643e+01
  vertex 7.531546e+01 2.723125e+02 7.598251e+01
  vertex 7.636584e+01 2.736355e+02 7.686508e+01
 endloop
endfacet
facet normal 8.346288e-03 6.855338e-01 -7.279930e-01
 outer loop
  vertex 7.097031e+01 2.691868e+02 8.264769e+01
  vertex 6.994683e+01 2.687358e+02 8.221131e+01
  vertex 6.985671e+01 2.695196e+02 8.294837e+01
 endloop
endfacet
facet normal 1.311876e-02 6.940799e-01 -7.197784e-01
 outer loop
  vertex 7.097031e+01 2.691868e+02 8.264769e+01
  vertex 6.985671e+01 2.695196e+02 8.294837e+01
  vertex 7.113031e+01 2.703942e+02 8.381498e+01
 endloop
endfacet
facet normal 2.036176e-02 -6.836632e-01 7.295136e-01
 outer loop
  vertex 6.994683e+01 2.687358e+02 8.221131e+01
  vertex 6.985671e+01 2.695196e+02 8.294837e+01
  vertex 6.842699e+01 2.690649e+02 8.256216e+01
 endloop
endfacet
facet normal -8.850391e-01 1.948948e-01 4.227550e-01
 outer loop
  vertex 6.838726e+01 2.680065e+02 8.133562e+01
  vertex 6.855248e+01 2.687846e+02 8.132277e+01
  vertex 6.809062e+01 2.682029e+02 8.062404e+01
 endloop
endfacet
facet normal 6.588496e-01 -1.362373e-01 7.398355e-01
 outer loop
  vertex 7.486091e+01 2.709812e+02 8.176747e+01
  vertex 7.606787e+01 2.722749e+02 8.093086e+01
  vertex 7.378368e+01 2.719430e+02 8.290390e+01
 endloop
endfacet
facet normal -7.520660e-01 -4.983860e-01 4.312865e-01
 outer loop
  vertex 6.809062e+01 2.682029e+02 8.062404e+01
  vertex 6.747994e+01 2.690085e+02 8.049013e+01
  vertex 6.750853e+01 2.679295e+02 7.929312e+01
 endloop
endfacet
facet normal 6.187041e-01 3.522663e-01 -7.022205e-01
 outer loop
  vertex 6.809062e+01 2.682029e+02 8.062404e+01
  vertex 6.747994e+01 2.690085e+02 8.049013e+01
  vertex 6.855248e+01 2.687846e+02 8.132277e+01
 endloop
endfacet
facet normal -8.878453e-01 -1.836962e-01 -4.218843e-01
 outer loop
  vertex 6.750853e+01 2.679295e+02 7.929312e+01
  vertex 6.707780e+01 2.697537e+02 7.940531e+01
  vertex 6.805980e+01 2.688305e+02 7.774071e+01
 endloop
endfacet
facet normal 9.527101e-01 2.366821e-01 -1.905913e-01
 outer loop
  vertex 6.750853e+01 2.679295e+02 7.929312e+01
  vertex 6.707780e+01 2.697537e+02 7.940531e+01
  vertex 6.747994e+01 2.690085e+02 8.049013e+01
 endloop
endfacet
facet normal -3.381443e-01 -9.246960e-01 1.749163e-01
 outer loop
  vertex 6.855248e+01 2.687846e+02 8.132277e+01
  vertex 6.842699e+01 2.690649e+02 8.256216e+01
  vertex 6.745577e+01 2.692620e+02 8.172666e+01
 endloop
endfacet
facet normal 3.350102e-01 9.242842e-01 -1.829399e-01
 outer loop
  vertex 6.855248e+01 2.687846e+02 8.132277e+01
  vertex 6.747994e+01 2.690085e+02 8.049013e+01
  vertex 6.745577e+01 2.692620e+02 8.172666e+01
 endloop
endfacet
facet normal 3.716908e-01 2.375033e-01 8.974621e-01
 outer loop
  vertex 6.954792e+01 2.694210e+02 7.696811e+01
  vertex 6.845379e+01 2.708196e+02 7.705113e+01
  vertex 6.805980e+01 2.688305e+02 7.774071e+01
 endloop
endfacet
facet normal -4.402713e-01 -2.940690e-01 -8.483423e-01
 outer loop
  vertex 6.999571e+01 2.709613e+02 7.620180e+01
  vertex 6.954792e+01 2.694210e+02 7.696811e+01
  vertex 6.845379e+01 2.708196e+02 7.705113e+01
 endloop
endfacet
facet normal -2.356492e-01 -8.158516e-02 9.684076e-01
 outer loop
  vertex 6.985671e+01 2.695196e+02 8.294837e+01
  vertex 6.798237e+01 2.702621e+02 8.255483e+01
  vertex 6.842699e+01 2.690649e+02 8.256216e+01
 endloop
endfacet
facet normal -5.308679e-01 8.443892e-01 -7.201453e-02
 outer loop
  vertex 6.985671e+01 2.695196e+02 8.294837e+01
  vertex 6.975368e+01 2.695625e+02 8.421040e+01
  vertex 7.113031e+01 2.703942e+02 8.381498e+01
 endloop
endfacet
facet normal 9.690900e-01 2.362403e-01 7.109977e-02
 outer loop
  vertex 6.975368e+01 2.695625e+02 8.421040e+01
  vertex 6.985671e+01 2.695196e+02 8.294837e+01
  vertex 6.931974e+01 2.714133e+02 8.397530e+01
 endloop
endfacet
facet normal 3.682555e-01 5.217345e-01 -7.695330e-01
 outer loop
  vertex 6.985671e+01 2.695196e+02 8.294837e+01
  vertex 6.798237e+01 2.702621e+02 8.255483e+01
  vertex 6.931974e+01 2.714133e+02 8.397530e+01
 endloop
endfacet
facet normal -1.865765e-01 1.054933e-01 9.767601e-01
 outer loop
  vertex 7.204567e+01 2.706742e+02 7.590469e+01
  vertex 7.308373e+01 2.721336e+02 7.594535e+01
  vertex 7.089506e+01 2.723135e+02 7.550785e+01
 endloop
endfacet
facet normal -1.822174e-01 -3.502983e-01 -9.187426e-01
 outer loop
  vertex 7.204567e+01 2.706742e+02 7.590469e+01
  vertex 6.999571e+01 2.709613e+02 7.620180e+01
  vertex 7.089506e+01 2.723135e+02 7.550785e+01
 endloop
endfacet
facet normal -8.624166e-01 -4.657466e-03 -5.061777e-01
 outer loop
  vertex 6.805980e+01 2.688305e+02 7.774071e+01
  vertex 6.707780e+01 2.697537e+02 7.940531e+01
  vertex 6.845379e+01 2.708196e+02 7.705113e+01
 endloop
endfacet
facet normal 8.128685e-01 1.069281e-01 5.725479e-01
 outer loop
  vertex 7.693389e+01 2.724926e+02 7.966068e+01
  vertex 7.626217e+01 2.737844e+02 8.037309e+01
  vertex 7.606787e+01 2.722749e+02 8.093086e+01
 endloop
endfacet
facet normal -9.908229e-01 -4.483508e-02 -1.275136e-01
 outer loop
  vertex 7.705312e+01 2.739638e+02 7.821693e+01
  vertex 7.693389e+01 2.724926e+02 7.966068e+01
  vertex 7.685051e+01 2.747481e+02 7.951555e+01
 endloop
endfacet
facet normal -7.849921e-01 -6.863914e-02 -6.156916e-01
 outer loop
  vertex 7.693389e+01 2.724926e+02 7.966068e+01
  vertex 7.626217e+01 2.737844e+02 8.037309e+01
  vertex 7.685051e+01 2.747481e+02 7.951555e+01
 endloop
endfacet
facet normal 6.356745e-01 1.391042e-01 7.593207e-01
 outer loop
  vertex 7.606787e+01 2.722749e+02 8.093086e+01
  vertex 7.511560e+01 2.744016e+02 8.133847e+01
  vertex 7.378368e+01 2.719430e+02 8.290390e+01
 endloop
endfacet
facet normal -6.870786e-01 -1.723714e-01 -7.058407e-01
 outer loop
  vertex 7.606787e+01 2.722749e+02 8.093086e+01
  vertex 7.511560e+01 2.744016e+02 8.133847e+01
  vertex 7.626217e+01 2.737844e+02 8.037309e+01
 endloop
endfacet
facet normal -6.605800e-01 -2.409740e-01 7.110314e-01
 outer loop
  vertex 6.842699e+01 2.690649e+02 8.256216e+01
  vertex 6.798237e+01 2.702621e+02 8.255483e+01
  vertex 6.745577e+01 2.692620e+02 8.172666e+01
 endloop
endfacet
facet normal -1.788263e-01 -1.651317e-01 -9.699241e-01
 outer loop
  vertex 6.975368e+01 2.695625e+02 8.421040e+01
  vertex 6.931974e+01 2.714133e+02 8.397530e+01
  vertex 7.113031e+01 2.703942e+02 8.381498e+01
 endloop
endfacet
facet normal -4.377885e-01 2.403875e-01 -8.663458e-01
 outer loop
  vertex 7.378368e+01 2.719430e+02 8.290390e+01
  vertex 7.113031e+01 2.703942e+02 8.381498e+01
  vertex 7.285251e+01 2.735434e+02 8.381850e+01
 endloop
endfacet
facet normal -5.656587e-02 5.631904e-02 -9.968091e-01
 outer loop
  vertex 7.113031e+01 2.703942e+02 8.381498e+01
  vertex 6.931974e+01 2.714133e+02 8.397530e+01
  vertex 7.080698e+01 2.737409e+02 8.402241e+01
 endloop
endfacet
facet normal 9.403066e-02 -5.253666e-02 9.941821e-01
 outer loop
  vertex 7.113031e+01 2.703942e+02 8.381498e+01
  vertex 7.285251e+01 2.735434e+02 8.381850e+01
  vertex 7.080698e+01 2.737409e+02 8.402241e+01
 endloop
endfacet
facet normal -1.521707e-02 -1.779521e-02 9.997258e-01
 outer loop
  vertex 7.531546e+01 2.723125e+02 7.598251e+01
  vertex 7.436876e+01 2.739666e+02 7.599754e+01
  vertex 7.308373e+01 2.721336e+02 7.594535e+01
 endloop
endfacet
facet normal 4.203034e-01 2.484854e-01 -8.726970e-01
 outer loop
  vertex 7.531546e+01 2.723125e+02 7.598251e+01
  vertex 7.436876e+01 2.739666e+02 7.599754e+01
  vertex 7.636584e+01 2.736355e+02 7.686508e+01
 endloop
endfacet
facet normal 9.256869e-01 3.737357e-01 -5.852689e-02
 outer loop
  vertex 6.747994e+01 2.690085e+02 8.049013e+01
  vertex 6.697849e+01 2.704229e+02 8.159059e+01
  vertex 6.745577e+01 2.692620e+02 8.172666e+01
 endloop
endfacet
facet normal 9.196200e-01 3.853449e-01 -7.621196e-02
 outer loop
  vertex 6.747994e+01 2.690085e+02 8.049013e+01
  vertex 6.707780e+01 2.697537e+02 7.940531e+01
  vertex 6.697849e+01 2.704229e+02 8.159059e+01
 endloop
endfacet
facet normal 7.321574e-01 3.643209e-02 6.801604e-01
 outer loop
  vertex 7.378368e+01 2.719430e+02 8.290390e+01
  vertex 7.511560e+01 2.744016e+02 8.133847e+01
  vertex 7.379311e+01 2.750241e+02 8.272871e+01
 endloop
endfacet
facet normal -7.314715e-01 -3.647599e-02 -6.808957e-01
 outer loop
  vertex 7.378368e+01 2.719430e+02 8.290390e+01
  vertex 7.285251e+01 2.735434e+02 8.381850e+01
  vertex 7.379311e+01 2.750241e+02 8.272871e+01
 endloop
endfacet
facet normal 6.948966e-01 2.049075e-01 -6.892979e-01
 outer loop
  vertex 6.745577e+01 2.692620e+02 8.172666e+01
  vertex 6.697849e+01 2.704229e+02 8.159059e+01
  vertex 6.798237e+01 2.702621e+02 8.255483e+01
 endloop
endfacet
facet normal -2.107396e-01 -3.060971e-01 9.283821e-01
 outer loop
  vertex 7.308373e+01 2.721336e+02 7.594535e+01
  vertex 7.142705e+01 2.734012e+02 7.598725e+01
  vertex 7.089506e+01 2.723135e+02 7.550785e+01
 endloop
endfacet
facet normal -4.607204e-02 6.068672e-02 -9.970930e-01
 outer loop
  vertex 7.308373e+01 2.721336e+02 7.594535e+01
  vertex 7.290579e+01 2.737469e+02 7.605176e+01
  vertex 7.436876e+01 2.739666e+02 7.599754e+01
 endloop
endfacet
facet normal -2.742840e-02 -6.880402e-02 9.972531e-01
 outer loop
  vertex 7.308373e+01 2.721336e+02 7.594535e+01
  vertex 7.290579e+01 2.737469e+02 7.605176e+01
  vertex 7.142705e+01 2.734012e+02 7.598725e+01
 endloop
endfacet
facet normal -4.849551e-01 2.446827e-01 -8.396124e-01
 outer loop
  vertex 6.999571e+01 2.709613e+02 7.620180e+01
  vertex 6.845379e+01 2.708196e+02 7.705113e+01
  vertex 6.924749e+01 2.727021e+02 7.714128e+01
 endloop
endfacet
facet normal -6.902772e-01 9.071169e-02 -7.178362e-01
 outer loop
  vertex 7.089506e+01 2.723135e+02 7.550785e+01
  vertex 6.999571e+01 2.709613e+02 7.620180e+01
  vertex 6.924749e+01 2.727021e+02 7.714128e+01
 endloop
endfacet
facet normal -8.820938e-01 1.605833e-01 -4.428583e-01
 outer loop
  vertex 6.707780e+01 2.697537e+02 7.940531e+01
  vertex 6.700130e+01 2.724530e+02 8.053648e+01
  vertex 6.845379e+01 2.708196e+02 7.705113e+01
 endloop
endfacet
facet normal 9.990549e-01 1.065487e-02 4.213939e-02
 outer loop
  vertex 6.707780e+01 2.697537e+02 7.940531e+01
  vertex 6.700130e+01 2.724530e+02 8.053648e+01
  vertex 6.697849e+01 2.704229e+02 8.159059e+01
 endloop
endfacet
facet normal -8.754768e-01 3.115620e-01 3.694178e-01
 outer loop
  vertex 7.636584e+01 2.736355e+02 7.686508e+01
  vertex 7.705312e+01 2.739638e+02 7.821693e+01
  vertex 7.694940e+01 2.750174e+02 7.708255e+01
 endloop
endfacet
facet normal -1.876069e-01 6.927994e-01 6.962992e-01
 outer loop
  vertex 7.636584e+01 2.736355e+02 7.686508e+01
  vertex 7.655768e+01 2.745154e+02 7.604129e+01
  vertex 7.436876e+01 2.739666e+02 7.599754e+01
 endloop
endfacet
facet normal 9.169893e-01 -3.602725e-01 -1.712726e-01
 outer loop
  vertex 7.636584e+01 2.736355e+02 7.686508e+01
  vertex 7.655768e+01 2.745154e+02 7.604129e+01
  vertex 7.694940e+01 2.750174e+02 7.708255e+01
 endloop
endfacet
facet normal -7.897381e-01 -5.718251e-01 2.221033e-01
 outer loop
  vertex 7.705312e+01 2.739638e+02 7.821693e+01
  vertex 7.685051e+01 2.747481e+02 7.951555e+01
  vertex 7.617543e+01 2.752345e+02 7.836760e+01
 endloop
endfacet
facet normal -7.796985e-01 -4.927460e-01 -3.863569e-01
 outer loop
  vertex 7.705312e+01 2.739638e+02 7.821693e+01
  vertex 7.617543e+01 2.752345e+02 7.836760e+01
  vertex 7.694940e+01 2.750174e+02 7.708255e+01
 endloop
endfacet
facet normal -5.148882e-01 -3.726617e-01 -7.720190e-01
 outer loop
  vertex 7.685051e+01 2.747481e+02 7.951555e+01
  vertex 7.626217e+01 2.737844e+02 8.037309e+01
  vertex 7.565605e+01 2.752961e+02 8.004764e+01
 endloop
endfacet
facet normal 7.065067e-01 4.078071e-01 5.783958e-01
 outer loop
  vertex 7.511560e+01 2.744016e+02 8.133847e+01
  vertex 7.626217e+01 2.737844e+02 8.037309e+01
  vertex 7.565605e+01 2.752961e+02 8.004764e+01
 endloop
endfacet
facet normal 6.964878e-01 1.745503e-01 -6.960151e-01
 outer loop
  vertex 6.798237e+01 2.702621e+02 8.255483e+01
  vertex 6.697849e+01 2.704229e+02 8.159059e+01
  vertex 6.805335e+01 2.716011e+02 8.296165e+01
 endloop
endfacet
facet normal 6.303657e-01 1.948944e-01 -7.514355e-01
 outer loop
  vertex 6.798237e+01 2.702621e+02 8.255483e+01
  vertex 6.805335e+01 2.716011e+02 8.296165e+01
  vertex 6.931974e+01 2.714133e+02 8.397530e+01
 endloop
endfacet
facet normal -6.847373e-01 3.200644e-01 -6.547470e-01
 outer loop
  vertex 6.845379e+01 2.708196e+02 7.705113e+01
  vertex 6.841943e+01 2.738879e+02 7.858692e+01
  vertex 6.924749e+01 2.727021e+02 7.714128e+01
 endloop
endfacet
facet normal 8.589079e-01 -2.215088e-01 4.617478e-01
 outer loop
  vertex 6.845379e+01 2.708196e+02 7.705113e+01
  vertex 6.841943e+01 2.738879e+02 7.858692e+01
  vertex 6.700130e+01 2.724530e+02 8.053648e+01
 endloop
endfacet
facet normal 2.524741e-01 9.386795e-01 2.348141e-01
 outer loop
  vertex 9.380240e+01 2.739852e+02 7.979761e+01
  vertex 9.495377e+01 2.740161e+02 7.843578e+01
  vertex 9.205619e+01 2.748486e+02 7.822333e+01
 endloop
endfacet
facet normal 3.246453e-01 -9.111643e-01 2.537421e-01
 outer loop
  vertex 9.380240e+01 2.739852e+02 7.979761e+01
  vertex 9.495377e+01 2.740161e+02 7.843578e+01
  vertex 9.602066e+01 2.747396e+02 7.966851e+01
 endloop
endfacet
facet normal 6.964324e-01 5.336605e-01 -4.797796e-01
 outer loop
  vertex 9.380240e+01 2.739852e+02 7.979761e+01
  vertex 9.205619e+01 2.748486e+02 7.822333e+01
  vertex 9.239470e+01 2.767324e+02 8.080999e+01
 endloop
endfacet
facet normal 1.212207e-01 -8.462994e-01 5.187319e-01
 outer loop
  vertex 9.342103e+01 2.750422e+02 8.161127e+01
  vertex 9.380240e+01 2.739852e+02 7.979761e+01
  vertex 9.547467e+01 2.755285e+02 8.192469e+01
 endloop
endfacet
facet normal 8.705706e-01 4.821911e-01 -9.797239e-02
 outer loop
  vertex 9.342103e+01 2.750422e+02 8.161127e+01
  vertex 9.380240e+01 2.739852e+02 7.979761e+01
  vertex 9.239470e+01 2.767324e+02 8.080999e+01
 endloop
endfacet
facet normal 3.175298e-01 -8.685431e-01 3.805361e-01
 outer loop
  vertex 9.380240e+01 2.739852e+02 7.979761e+01
  vertex 9.602066e+01 2.747396e+02 7.966851e+01
  vertex 9.547467e+01 2.755285e+02 8.192469e+01
 endloop
endfacet
facet normal -2.836395e-01 -9.434778e-01 1.714590e-01
 outer loop
  vertex 9.385321e+01 2.740285e+02 7.668340e+01
  vertex 9.495377e+01 2.740161e+02 7.843578e+01
  vertex 9.205619e+01 2.748486e+02 7.822333e+01
 endloop
endfacet
facet normal 1.361310e-02 9.999063e-01 -1.471074e-03
 outer loop
  vertex 9.385321e+01 2.740285e+02 7.668340e+01
  vertex 9.495377e+01 2.740161e+02 7.843578e+01
  vertex 9.603494e+01 2.739999e+02 7.740993e+01
 endloop
endfacet
facet normal -3.717376e-02 -9.992547e-01 -1.040063e-02
 outer loop
  vertex 9.385321e+01 2.740285e+02 7.668340e+01
  vertex 9.406271e+01 2.740387e+02 7.495981e+01
  vertex 9.510474e+01 2.739962e+02 7.531713e+01
 endloop
endfacet
facet normal -5.225973e-01 -8.498215e-01 -6.852401e-02
 outer loop
  vertex 9.406271e+01 2.740387e+02 7.495981e+01
  vertex 9.385321e+01 2.740285e+02 7.668340e+01
  vertex 9.266993e+01 2.748379e+02 7.566978e+01
 endloop
endfacet
facet normal -4.920768e-01 -8.629690e-01 -1.146514e-01
 outer loop
  vertex 9.385321e+01 2.740285e+02 7.668340e+01
  vertex 9.205619e+01 2.748486e+02 7.822333e+01
  vertex 9.266993e+01 2.748379e+02 7.566978e+01
 endloop
endfacet
facet normal -9.646531e-02 -9.932211e-01 -6.485525e-02
 outer loop
  vertex 9.385321e+01 2.740285e+02 7.668340e+01
  vertex 9.510474e+01 2.739962e+02 7.531713e+01
  vertex 9.577763e+01 2.738776e+02 7.613254e+01
 endloop
endfacet
facet normal -4.792254e-02 -9.933423e-01 1.047596e-01
 outer loop
  vertex 9.385321e+01 2.740285e+02 7.668340e+01
  vertex 9.577763e+01 2.738776e+02 7.613254e+01
  vertex 9.603494e+01 2.739999e+02 7.740993e+01
 endloop
endfacet
facet normal 5.301658e-01 7.837514e-01 -3.235088e-01
 outer loop
  vertex 9.595278e+01 2.733782e+02 7.520969e+01
  vertex 9.510474e+01 2.739962e+02 7.531713e+01
  vertex 9.577763e+01 2.738776e+02 7.613254e+01
 endloop
endfacet
facet normal -5.771470e-01 -7.274665e-01 -3.710712e-01
 outer loop
  vertex 9.595278e+01 2.733782e+02 7.520969e+01
  vertex 9.510474e+01 2.739962e+02 7.531713e+01
  vertex 9.570257e+01 2.739944e+02 7.439091e+01
 endloop
endfacet
facet normal -2.211720e-01 8.395134e-01 -4.962864e-01
 outer loop
  vertex 9.595278e+01 2.733782e+02 7.520969e+01
  vertex 9.577763e+01 2.738776e+02 7.613254e+01
  vertex 9.695453e+01 2.741507e+02 7.607005e+01
 endloop
endfacet
facet normal 3.260703e-01 -7.047983e-01 -6.300298e-01
 outer loop
  vertex 9.595278e+01 2.733782e+02 7.520969e+01
  vertex 9.570257e+01 2.739944e+02 7.439091e+01
  vertex 9.686166e+01 2.741411e+02 7.482660e+01
 endloop
endfacet
facet normal -6.321290e-01 7.737649e-01 4.124114e-02
 outer loop
  vertex 9.595278e+01 2.733782e+02 7.520969e+01
  vertex 9.695453e+01 2.741507e+02 7.607005e+01
  vertex 9.686166e+01 2.741411e+02 7.482660e+01
 endloop
endfacet
facet normal -5.221904e-01 5.446313e-01 -6.562728e-01
 outer loop
  vertex 7.089506e+01 2.723135e+02 7.550785e+01
  vertex 6.924749e+01 2.727021e+02 7.714128e+01
  vertex 7.142705e+01 2.734012e+02 7.598725e+01
 endloop
endfacet
facet normal 1.876151e-01 -9.588919e-01 2.129013e-01
 outer loop
  vertex 9.495377e+01 2.740161e+02 7.843578e+01
  vertex 9.603494e+01 2.739999e+02 7.740993e+01
  vertex 9.691081e+01 2.744196e+02 7.852846e+01
 endloop
endfacet
facet normal 1.686803e-01 -9.068610e-01 3.861994e-01
 outer loop
  vertex 9.495377e+01 2.740161e+02 7.843578e+01
  vertex 9.691081e+01 2.744196e+02 7.852846e+01
  vertex 9.602066e+01 2.747396e+02 7.966851e+01
 endloop
endfacet
facet normal 3.391579e-02 9.992266e-01 1.989841e-02
 outer loop
  vertex 9.406271e+01 2.740387e+02 7.495981e+01
  vertex 9.510474e+01 2.739962e+02 7.531713e+01
  vertex 9.570257e+01 2.739944e+02 7.439091e+01
 endloop
endfacet
facet normal -2.963948e-02 -9.995322e-01 -7.548264e-03
 outer loop
  vertex 9.406271e+01 2.740387e+02 7.495981e+01
  vertex 9.459953e+01 2.740352e+02 7.330858e+01
  vertex 9.570257e+01 2.739944e+02 7.439091e+01
 endloop
endfacet
facet normal 4.404284e-01 8.865935e-01 1.413319e-01
 outer loop
  vertex 9.406271e+01 2.740387e+02 7.495981e+01
  vertex 9.459953e+01 2.740352e+02 7.330858e+01
  vertex 9.260802e+01 2.749275e+02 7.391741e+01
 endloop
endfacet
facet normal -5.075210e-01 -8.612443e-01 -2.608917e-02
 outer loop
  vertex 9.406271e+01 2.740387e+02 7.495981e+01
  vertex 9.266993e+01 2.748379e+02 7.566978e+01
  vertex 9.260802e+01 2.749275e+02 7.391741e+01
 endloop
endfacet
facet normal 8.542598e-01 -2.470798e-01 -4.573748e-01
 outer loop
  vertex 6.697849e+01 2.704229e+02 8.159059e+01
  vertex 6.700130e+01 2.724530e+02 8.053648e+01
  vertex 6.805335e+01 2.716011e+02 8.296165e+01
 endloop
endfacet
facet normal -6.047721e-01 -4.174387e-01 6.782299e-01
 outer loop
  vertex 6.805335e+01 2.716011e+02 8.296165e+01
  vertex 6.931974e+01 2.714133e+02 8.397530e+01
  vertex 6.802645e+01 2.727782e+02 8.366218e+01
 endloop
endfacet
facet normal 3.707282e-02 -3.461649e-03 -9.993066e-01
 outer loop
  vertex 6.931974e+01 2.714133e+02 8.397530e+01
  vertex 6.920997e+01 2.730425e+02 8.396558e+01
  vertex 7.080698e+01 2.737409e+02 8.402241e+01
 endloop
endfacet
facet normal -2.460477e-01 -1.079808e-02 9.691976e-01
 outer loop
  vertex 6.931974e+01 2.714133e+02 8.397530e+01
  vertex 6.920997e+01 2.730425e+02 8.396558e+01
  vertex 6.802645e+01 2.727782e+02 8.366218e+01
 endloop
endfacet
facet normal -9.415862e-01 -2.503480e-01 -2.252581e-01
 outer loop
  vertex 9.205619e+01 2.748486e+02 7.822333e+01
  vertex 9.192032e+01 2.767845e+02 7.663986e+01
  vertex 9.266993e+01 2.748379e+02 7.566978e+01
 endloop
endfacet
facet normal -9.909169e-01 3.635186e-02 1.294693e-01
 outer loop
  vertex 9.205619e+01 2.748486e+02 7.822333e+01
  vertex 9.226369e+01 2.786761e+02 7.873679e+01
  vertex 9.192032e+01 2.767845e+02 7.663986e+01
 endloop
endfacet
facet normal 9.940985e-01 -4.038601e-02 -1.006833e-01
 outer loop
  vertex 9.205619e+01 2.748486e+02 7.822333e+01
  vertex 9.226369e+01 2.786761e+02 7.873679e+01
  vertex 9.239470e+01 2.767324e+02 8.080999e+01
 endloop
endfacet
facet normal 4.035733e-01 8.323686e-01 -3.798567e-01
 outer loop
  vertex 9.594571e+01 2.734544e+02 7.346613e+01
  vertex 9.459953e+01 2.740352e+02 7.330858e+01
  vertex 9.570257e+01 2.739944e+02 7.439091e+01
 endloop
endfacet
facet normal -2.617626e-02 2.047487e-01 9.784645e-01
 outer loop
  vertex 9.459953e+01 2.740352e+02 7.330858e+01
  vertex 9.594571e+01 2.734544e+02 7.346613e+01
  vertex 9.597666e+01 2.747292e+02 7.320021e+01
 endloop
endfacet
facet normal -6.225425e-01 5.934490e-01 -5.101560e-01
 outer loop
  vertex 9.594571e+01 2.734544e+02 7.346613e+01
  vertex 9.570257e+01 2.739944e+02 7.439091e+01
  vertex 9.650557e+01 2.744883e+02 7.398561e+01
 endloop
endfacet
facet normal -8.006138e-01 1.409237e-01 5.823728e-01
 outer loop
  vertex 9.594571e+01 2.734544e+02 7.346613e+01
  vertex 9.650557e+01 2.744883e+02 7.398561e+01
  vertex 9.597666e+01 2.747292e+02 7.320021e+01
 endloop
endfacet
facet normal -2.625283e-02 2.504843e-02 9.993415e-01
 outer loop
  vertex 7.655768e+01 2.745154e+02 7.604129e+01
  vertex 7.609118e+01 2.756425e+02 7.600078e+01
  vertex 7.436876e+01 2.739666e+02 7.599754e+01
 endloop
endfacet
facet normal 9.464641e-01 -1.722631e-01 -2.730038e-01
 outer loop
  vertex 7.694940e+01 2.750174e+02 7.708255e+01
  vertex 7.655768e+01 2.745154e+02 7.604129e+01
  vertex 7.697858e+01 2.759987e+02 7.656452e+01
 endloop
endfacet
facet normal 4.798158e-01 1.676384e-01 -8.612051e-01
 outer loop
  vertex 7.655768e+01 2.745154e+02 7.604129e+01
  vertex 7.609118e+01 2.756425e+02 7.600078e+01
  vertex 7.697858e+01 2.759987e+02 7.656452e+01
 endloop
endfacet
facet normal -2.281797e-01 9.724769e-01 -4.714571e-02
 outer loop
  vertex 9.577763e+01 2.738776e+02 7.613254e+01
  vertex 9.603494e+01 2.739999e+02 7.740993e+01
  vertex 9.695453e+01 2.741507e+02 7.607005e+01
 endloop
endfacet
facet normal -4.538747e-01 -8.845073e-01 -1.079101e-01
 outer loop
  vertex 7.685051e+01 2.747481e+02 7.951555e+01
  vertex 7.565605e+01 2.752961e+02 8.004764e+01
  vertex 7.617543e+01 2.752345e+02 7.836760e+01
 endloop
endfacet
facet normal -1.106115e-02 -1.694981e-01 -9.854684e-01
 outer loop
  vertex 7.436876e+01 2.739666e+02 7.599754e+01
  vertex 7.290579e+01 2.737469e+02 7.605176e+01
  vertex 7.293048e+01 2.752056e+02 7.580059e+01
 endloop
endfacet
facet normal 1.808419e-02 -2.051978e-02 9.996259e-01
 outer loop
  vertex 7.436876e+01 2.739666e+02 7.599754e+01
  vertex 7.609118e+01 2.756425e+02 7.600078e+01
  vertex 7.485545e+01 2.763191e+02 7.603703e+01
 endloop
endfacet
facet normal 1.274395e-01 -9.717852e-03 -9.917987e-01
 outer loop
  vertex 7.436876e+01 2.739666e+02 7.599754e+01
  vertex 7.293048e+01 2.752056e+02 7.580059e+01
  vertex 7.485545e+01 2.763191e+02 7.603703e+01
 endloop
endfacet
facet normal 3.131980e-01 -9.434391e-01 1.087644e-01
 outer loop
  vertex 9.603494e+01 2.739999e+02 7.740993e+01
  vertex 9.695453e+01 2.741507e+02 7.607005e+01
  vertex 9.691081e+01 2.744196e+02 7.852846e+01
 endloop
endfacet
facet normal -4.625986e-01 -8.409368e-01 -2.807631e-01
 outer loop
  vertex 9.459953e+01 2.740352e+02 7.330858e+01
  vertex 9.260802e+01 2.749275e+02 7.391741e+01
  vertex 9.338868e+01 2.750918e+02 7.213919e+01
 endloop
endfacet
facet normal -3.814549e-02 -7.608003e-01 -6.478641e-01
 outer loop
  vertex 9.459953e+01 2.740352e+02 7.330858e+01
  vertex 9.338868e+01 2.750918e+02 7.213919e+01
  vertex 9.476226e+01 2.750272e+02 7.213412e+01
 endloop
endfacet
facet normal -3.288034e-01 7.434578e-01 5.823734e-01
 outer loop
  vertex 9.459953e+01 2.740352e+02 7.330858e+01
  vertex 9.597666e+01 2.747292e+02 7.320021e+01
  vertex 9.476226e+01 2.750272e+02 7.213412e+01
 endloop
endfacet
facet normal -9.268570e-01 -3.751691e-01 1.357053e-02
 outer loop
  vertex 9.266993e+01 2.748379e+02 7.566978e+01
  vertex 9.204782e+01 2.763466e+02 7.488931e+01
  vertex 9.260802e+01 2.749275e+02 7.391741e+01
 endloop
endfacet
facet normal 9.286767e-01 3.700528e-01 -2.491117e-02
 outer loop
  vertex 9.266993e+01 2.748379e+02 7.566978e+01
  vertex 9.204782e+01 2.763466e+02 7.488931e+01
  vertex 9.192032e+01 2.767845e+02 7.663986e+01
 endloop
endfacet
facet normal 6.867458e-01 4.304003e-01 5.857780e-01
 outer loop
  vertex 7.511560e+01 2.744016e+02 8.133847e+01
  vertex 7.565605e+01 2.752961e+02 8.004764e+01
  vertex 7.440520e+01 2.759417e+02 8.103975e+01
 endloop
endfacet
facet normal -7.407240e-01 -4.401276e-01 -5.075585e-01
 outer loop
  vertex 7.511560e+01 2.744016e+02 8.133847e+01
  vertex 7.379311e+01 2.750241e+02 8.272871e+01
  vertex 7.440520e+01 2.759417e+02 8.103975e+01
 endloop
endfacet
facet normal 2.812436e-01 -8.391646e-01 -4.655155e-01
 outer loop
  vertex 9.570257e+01 2.739944e+02 7.439091e+01
  vertex 9.650557e+01 2.744883e+02 7.398561e+01
  vertex 9.686166e+01 2.741411e+02 7.482660e+01
 endloop
endfacet
facet normal 5.946030e-02 -6.850712e-02 -9.958771e-01
 outer loop
  vertex 7.290579e+01 2.737469e+02 7.605176e+01
  vertex 7.142705e+01 2.734012e+02 7.598725e+01
  vertex 7.213423e+01 2.744943e+02 7.595428e+01
 endloop
endfacet
facet normal -3.920378e-02 -1.689155e-01 -9.848506e-01
 outer loop
  vertex 7.290579e+01 2.737469e+02 7.605176e+01
  vertex 7.213423e+01 2.744943e+02 7.595428e+01
  vertex 7.293048e+01 2.752056e+02 7.580059e+01
 endloop
endfacet
facet normal 8.263379e-01 3.541889e-01 4.378538e-01
 outer loop
  vertex 7.617543e+01 2.752345e+02 7.836760e+01
  vertex 7.694940e+01 2.750174e+02 7.708255e+01
  vertex 7.625206e+01 2.763332e+02 7.733421e+01
 endloop
endfacet
facet normal 7.557203e-01 2.880161e-01 5.881611e-01
 outer loop
  vertex 7.694940e+01 2.750174e+02 7.708255e+01
  vertex 7.697858e+01 2.759987e+02 7.656452e+01
  vertex 7.625206e+01 2.763332e+02 7.733421e+01
 endloop
endfacet
facet normal 1.232452e-01 2.997250e-01 9.460315e-01
 outer loop
  vertex 7.080698e+01 2.737409e+02 8.402241e+01
  vertex 7.285251e+01 2.735434e+02 8.381850e+01
  vertex 7.266279e+01 2.766907e+02 8.284606e+01
 endloop
endfacet
facet normal 5.018651e-01 2.828066e-01 8.174055e-01
 outer loop
  vertex 7.285251e+01 2.735434e+02 8.381850e+01
  vertex 7.379311e+01 2.750241e+02 8.272871e+01
  vertex 7.266279e+01 2.766907e+02 8.284606e+01
 endloop
endfacet
facet normal -1.135630e-01 -9.835172e-01 -1.407033e-01
 outer loop
  vertex 9.260802e+01 2.749275e+02 7.391741e+01
  vertex 9.228053e+01 2.751359e+02 7.272484e+01
  vertex 9.338868e+01 2.750918e+02 7.213919e+01
 endloop
endfacet
facet normal -9.182046e-01 -3.467106e-01 1.915518e-01
 outer loop
  vertex 9.228053e+01 2.751359e+02 7.272484e+01
  vertex 9.260802e+01 2.749275e+02 7.391741e+01
  vertex 9.192664e+01 2.764408e+02 7.339026e+01
 endloop
endfacet
facet normal -9.170371e-01 -3.957459e-01 4.927654e-02
 outer loop
  vertex 9.260802e+01 2.749275e+02 7.391741e+01
  vertex 9.204782e+01 2.763466e+02 7.488931e+01
  vertex 9.192664e+01 2.764408e+02 7.339026e+01
 endloop
endfacet
facet normal -9.120854e-01 3.623972e-02 4.083954e-01
 outer loop
  vertex 6.805335e+01 2.716011e+02 8.296165e+01
  vertex 6.807252e+01 2.736993e+02 8.281828e+01
  vertex 6.700130e+01 2.724530e+02 8.053648e+01
 endloop
endfacet
facet normal -9.988226e-01 5.836432e-03 -4.815982e-02
 outer loop
  vertex 6.805335e+01 2.716011e+02 8.296165e+01
  vertex 6.802645e+01 2.727782e+02 8.366218e+01
  vertex 6.807252e+01 2.736993e+02 8.281828e+01
 endloop
endfacet
facet normal 1.418715e-01 3.838791e-02 -9.891405e-01
 outer loop
  vertex 9.547467e+01 2.755285e+02 8.192469e+01
  vertex 9.342103e+01 2.750422e+02 8.161127e+01
  vertex 9.516007e+01 2.784372e+02 8.199245e+01
 endloop
endfacet
facet normal 4.596205e-01 -1.369089e-01 -8.774992e-01
 outer loop
  vertex 9.342103e+01 2.750422e+02 8.161127e+01
  vertex 9.239470e+01 2.767324e+02 8.080999e+01
  vertex 9.516007e+01 2.784372e+02 8.199245e+01
 endloop
endfacet
facet normal -5.192971e-01 2.949325e-01 -8.020881e-01
 outer loop
  vertex 7.142705e+01 2.734012e+02 7.598725e+01
  vertex 6.924749e+01 2.727021e+02 7.714128e+01
  vertex 7.095129e+01 2.745064e+02 7.670164e+01
 endloop
endfacet
facet normal -5.067085e-01 3.034848e-01 -8.069346e-01
 outer loop
  vertex 7.142705e+01 2.734012e+02 7.598725e+01
  vertex 7.095129e+01 2.745064e+02 7.670164e+01
  vertex 7.213423e+01 2.744943e+02 7.595428e+01
 endloop
endfacet
facet normal 5.091122e-01 -8.601277e-01 -3.138646e-02
 outer loop
  vertex 9.695453e+01 2.741507e+02 7.607005e+01
  vertex 9.686166e+01 2.741411e+02 7.482660e+01
  vertex 9.835341e+01 2.750056e+02 7.533374e+01
 endloop
endfacet
facet normal 9.033015e-01 -4.244306e-01 6.249019e-02
 outer loop
  vertex 9.695453e+01 2.741507e+02 7.607005e+01
  vertex 9.754224e+01 2.757106e+02 7.816902e+01
  vertex 9.691081e+01 2.744196e+02 7.852846e+01
 endloop
endfacet
facet normal 6.158930e-01 -7.050628e-01 3.515142e-01
 outer loop
  vertex 9.695453e+01 2.741507e+02 7.607005e+01
  vertex 9.835341e+01 2.750056e+02 7.533374e+01
  vertex 9.754224e+01 2.757106e+02 7.816902e+01
 endloop
endfacet
facet normal -8.997431e-01 -3.463996e-01 -2.654613e-01
 outer loop
  vertex 7.617543e+01 2.752345e+02 7.836760e+01
  vertex 7.565605e+01 2.752961e+02 8.004764e+01
  vertex 7.541191e+01 2.768172e+02 7.889015e+01
 endloop
endfacet
facet normal 8.758135e-01 2.968541e-01 3.805633e-01
 outer loop
  vertex 7.617543e+01 2.752345e+02 7.836760e+01
  vertex 7.625206e+01 2.763332e+02 7.733421e+01
  vertex 7.541191e+01 2.768172e+02 7.889015e+01
 endloop
endfacet
facet normal -6.373799e-01 4.493532e-01 -6.259621e-01
 outer loop
  vertex 6.924749e+01 2.727021e+02 7.714128e+01
  vertex 6.997811e+01 2.745263e+02 7.770689e+01
  vertex 7.095129e+01 2.745064e+02 7.670164e+01
 endloop
endfacet
facet normal -5.714746e-01 4.430441e-01 -6.907450e-01
 outer loop
  vertex 6.924749e+01 2.727021e+02 7.714128e+01
  vertex 6.841943e+01 2.738879e+02 7.858692e+01
  vertex 6.997811e+01 2.745263e+02 7.770689e+01
 endloop
endfacet
facet normal 9.558684e-02 -9.051729e-01 -4.141559e-01
 outer loop
  vertex 9.686166e+01 2.741411e+02 7.482660e+01
  vertex 9.650557e+01 2.744883e+02 7.398561e+01
  vertex 9.726126e+01 2.748451e+02 7.338015e+01
 endloop
endfacet
facet normal 5.464814e-01 -8.024649e-01 -2.395999e-01
 outer loop
  vertex 9.686166e+01 2.741411e+02 7.482660e+01
  vertex 9.726126e+01 2.748451e+02 7.338015e+01
  vertex 9.835341e+01 2.750056e+02 7.533374e+01
 endloop
endfacet
facet normal -4.351331e-01 -4.302858e-01 -7.908940e-01
 outer loop
  vertex 9.338868e+01 2.750918e+02 7.213919e+01
  vertex 9.228053e+01 2.751359e+02 7.272484e+01
  vertex 9.252354e+01 2.761557e+02 7.203635e+01
 endloop
endfacet
facet normal -9.176483e-01 -4.768184e-02 -3.945226e-01
 outer loop
  vertex 9.228053e+01 2.751359e+02 7.272484e+01
  vertex 9.192664e+01 2.764408e+02 7.339026e+01
  vertex 9.252354e+01 2.761557e+02 7.203635e+01
 endloop
endfacet
facet normal -2.121305e-01 8.851936e-01 -4.140446e-01
 outer loop
  vertex 9.691081e+01 2.744196e+02 7.852846e+01
  vertex 9.602066e+01 2.747396e+02 7.966851e+01
  vertex 9.777587e+01 2.751693e+02 7.968793e+01
 endloop
endfacet
facet normal -8.215948e-01 4.851941e-01 2.992804e-01
 outer loop
  vertex 9.691081e+01 2.744196e+02 7.852846e+01
  vertex 9.777587e+01 2.751693e+02 7.968793e+01
  vertex 9.754224e+01 2.757106e+02 7.816902e+01
 endloop
endfacet
facet normal -1.723895e-01 -9.420809e-01 2.876897e-01
 outer loop
  vertex 9.602066e+01 2.747396e+02 7.966851e+01
  vertex 9.716674e+01 2.749941e+02 8.118892e+01
  vertex 9.547467e+01 2.755285e+02 8.192469e+01
 endloop
endfacet
facet normal -2.379384e-01 9.711359e-01 1.674743e-02
 outer loop
  vertex 9.602066e+01 2.747396e+02 7.966851e+01
  vertex 9.716674e+01 2.749941e+02 8.118892e+01
  vertex 9.777587e+01 2.751693e+02 7.968793e+01
 endloop
endfacet
facet normal -6.805465e-01 -5.097264e-01 -5.263416e-01
 outer loop
  vertex 7.565605e+01 2.752961e+02 8.004764e+01
  vertex 7.440520e+01 2.759417e+02 8.103975e+01
  vertex 7.541191e+01 2.768172e+02 7.889015e+01
 endloop
endfacet
facet normal 1.350586e-01 -9.181393e-01 -3.725312e-01
 outer loop
  vertex 9.650557e+01 2.744883e+02 7.398561e+01
  vertex 9.597666e+01 2.747292e+02 7.320021e+01
  vertex 9.726126e+01 2.748451e+02 7.338015e+01
 endloop
endfacet
facet normal 4.694188e-02 9.864469e-01 1.572225e-01
 outer loop
  vertex 9.338868e+01 2.750918e+02 7.213919e+01
  vertex 9.476226e+01 2.750272e+02 7.213412e+01
  vertex 9.299336e+01 2.753174e+02 7.084160e+01
 endloop
endfacet
facet normal 7.754566e-01 6.181310e-01 -1.287676e-01
 outer loop
  vertex 9.338868e+01 2.750918e+02 7.213919e+01
  vertex 9.299336e+01 2.753174e+02 7.084160e+01
  vertex 9.252354e+01 2.761557e+02 7.203635e+01
 endloop
endfacet
facet normal 4.847754e-01 1.547141e-01 -8.608463e-01
 outer loop
  vertex 7.697858e+01 2.759987e+02 7.656452e+01
  vertex 7.609118e+01 2.756425e+02 7.600078e+01
  vertex 7.616420e+01 2.767968e+02 7.624936e+01
 endloop
endfacet
facet normal 8.349183e-02 2.047334e-01 -9.752504e-01
 outer loop
  vertex 7.609118e+01 2.756425e+02 7.600078e+01
  vertex 7.485545e+01 2.763191e+02 7.603703e+01
  vertex 7.616420e+01 2.767968e+02 7.624936e+01
 endloop
endfacet
facet normal 2.315141e-02 -9.556727e-01 -2.935194e-01
 outer loop
  vertex 9.597666e+01 2.747292e+02 7.320021e+01
  vertex 9.476226e+01 2.750272e+02 7.213412e+01
  vertex 9.655623e+01 2.750844e+02 7.208937e+01
 endloop
endfacet
facet normal -1.210850e-01 9.620673e-01 2.444687e-01
 outer loop
  vertex 9.597666e+01 2.747292e+02 7.320021e+01
  vertex 9.726126e+01 2.748451e+02 7.338015e+01
  vertex 9.655623e+01 2.750844e+02 7.208937e+01
 endloop
endfacet
facet normal 4.720019e-01 -4.560669e-01 7.544648e-01
 outer loop
  vertex 7.213423e+01 2.744943e+02 7.595428e+01
  vertex 7.202746e+01 2.760787e+02 7.697880e+01
  vertex 7.095129e+01 2.745064e+02 7.670164e+01
 endloop
endfacet
facet normal -5.293459e-01 4.352515e-01 -7.282507e-01
 outer loop
  vertex 7.213423e+01 2.744943e+02 7.595428e+01
  vertex 7.202746e+01 2.760787e+02 7.697880e+01
  vertex 7.293048e+01 2.752056e+02 7.580059e+01
 endloop
endfacet
facet normal 6.206221e-01 7.379365e-01 2.650997e-01
 outer loop
  vertex 7.697858e+01 2.759987e+02 7.656452e+01
  vertex 7.616420e+01 2.767968e+02 7.624936e+01
  vertex 7.625206e+01 2.763332e+02 7.733421e+01
 endloop
endfacet
facet normal -6.875908e-02 7.629320e-02 9.947118e-01
 outer loop
  vertex 6.920997e+01 2.730425e+02 8.396558e+01
  vertex 7.080698e+01 2.737409e+02 8.402241e+01
  vertex 6.924128e+01 2.747813e+02 8.383439e+01
 endloop
endfacet
facet normal 2.977722e-01 5.845408e-01 7.547475e-01
 outer loop
  vertex 6.924128e+01 2.747813e+02 8.383439e+01
  vertex 7.080698e+01 2.737409e+02 8.402241e+01
  vertex 6.982529e+01 2.760829e+02 8.259590e+01
 endloop
endfacet
facet normal -1.749033e-01 4.576733e-01 8.717477e-01
 outer loop
  vertex 7.080698e+01 2.737409e+02 8.402241e+01
  vertex 7.266279e+01 2.766907e+02 8.284606e+01
  vertex 6.982529e+01 2.760829e+02 8.259590e+01
 endloop
endfacet
facet normal 7.272605e-01 4.571748e-01 5.119408e-01
 outer loop
  vertex 7.379311e+01 2.750241e+02 8.272871e+01
  vertex 7.440520e+01 2.759417e+02 8.103975e+01
  vertex 7.266279e+01 2.766907e+02 8.284606e+01
 endloop
endfacet
facet normal -1.920562e-01 -2.340680e-01 9.530617e-01
 outer loop
  vertex 6.802645e+01 2.727782e+02 8.366218e+01
  vertex 6.920997e+01 2.730425e+02 8.396558e+01
  vertex 6.834370e+01 2.739361e+02 8.401048e+01
 endloop
endfacet
facet normal -1.259458e-01 -7.238554e-02 -9.893927e-01
 outer loop
  vertex 6.920997e+01 2.730425e+02 8.396558e+01
  vertex 6.834370e+01 2.739361e+02 8.401048e+01
  vertex 6.924128e+01 2.747813e+02 8.383439e+01
 endloop
endfacet
facet normal -5.595983e-02 -9.878201e-01 -1.451891e-01
 outer loop
  vertex 9.476226e+01 2.750272e+02 7.213412e+01
  vertex 9.299336e+01 2.753174e+02 7.084160e+01
  vertex 9.508659e+01 2.753029e+02 7.013309e+01
 endloop
endfacet
facet normal -2.830345e-02 9.908523e-01 1.319491e-01
 outer loop
  vertex 9.476226e+01 2.750272e+02 7.213412e+01
  vertex 9.655623e+01 2.750844e+02 7.208937e+01
  vertex 9.508659e+01 2.753029e+02 7.013309e+01
 endloop
endfacet
facet normal 9.386968e-01 3.769610e-02 3.426766e-01
 outer loop
  vertex 9.299336e+01 2.753174e+02 7.084160e+01
  vertex 9.300870e+01 2.766161e+02 7.065669e+01
  vertex 9.252354e+01 2.761557e+02 7.203635e+01
 endloop
endfacet
facet normal -3.122320e-01 -2.466015e-01 -9.174415e-01
 outer loop
  vertex 9.299336e+01 2.753174e+02 7.084160e+01
  vertex 9.405716e+01 2.770665e+02 7.000939e+01
  vertex 9.508659e+01 2.753029e+02 7.013309e+01
 endloop
endfacet
facet normal 4.845838e-01 1.176830e-01 8.667925e-01
 outer loop
  vertex 9.299336e+01 2.753174e+02 7.084160e+01
  vertex 9.405716e+01 2.770665e+02 7.000939e+01
  vertex 9.300870e+01 2.766161e+02 7.065669e+01
 endloop
endfacet
facet normal 3.606089e-01 -1.298971e-01 9.236276e-01
 outer loop
  vertex 9.716674e+01 2.749941e+02 8.118892e+01
  vertex 9.801975e+01 2.767129e+02 8.109760e+01
  vertex 9.547467e+01 2.755285e+02 8.192469e+01
 endloop
endfacet
facet normal -8.604205e-01 4.110275e-01 -3.012190e-01
 outer loop
  vertex 9.716674e+01 2.749941e+02 8.118892e+01
  vertex 9.801975e+01 2.767129e+02 8.109760e+01
  vertex 9.777587e+01 2.751693e+02 7.968793e+01
 endloop
endfacet
facet normal -3.679661e-01 1.498569e-01 -9.176840e-01
 outer loop
  vertex 9.547467e+01 2.755285e+02 8.192469e+01
  vertex 9.695829e+01 2.780813e+02 8.174668e+01
  vertex 9.801975e+01 2.767129e+02 8.109760e+01
 endloop
endfacet
facet normal 1.337372e-01 -8.621229e-03 9.909793e-01
 outer loop
  vertex 9.547467e+01 2.755285e+02 8.192469e+01
  vertex 9.695829e+01 2.780813e+02 8.174668e+01
  vertex 9.516007e+01 2.784372e+02 8.199245e+01
 endloop
endfacet
facet normal -8.432680e-01 4.633802e-01 -2.723562e-01
 outer loop
  vertex 6.700130e+01 2.724530e+02 8.053648e+01
  vertex 6.838536e+01 2.748042e+02 8.025146e+01
  vertex 6.841943e+01 2.738879e+02 7.858692e+01
 endloop
endfacet
facet normal 8.993854e-01 -3.811749e-01 -2.140364e-01
 outer loop
  vertex 6.700130e+01 2.724530e+02 8.053648e+01
  vertex 6.823824e+01 2.747016e+02 8.172965e+01
  vertex 6.807252e+01 2.736993e+02 8.281828e+01
 endloop
endfacet
facet normal -8.633448e-01 5.020234e-01 -5.107151e-02
 outer loop
  vertex 6.700130e+01 2.724530e+02 8.053648e+01
  vertex 6.823824e+01 2.747016e+02 8.172965e+01
  vertex 6.838536e+01 2.748042e+02 8.025146e+01
 endloop
endfacet
facet normal -9.884125e-01 1.138015e-01 -1.004489e-01
 outer loop
  vertex 9.204782e+01 2.763466e+02 7.488931e+01
  vertex 9.192032e+01 2.767845e+02 7.663986e+01
  vertex 9.229166e+01 2.778627e+02 7.420742e+01
 endloop
endfacet
facet normal -9.759284e-01 1.980492e-01 9.132463e-02
 outer loop
  vertex 9.204782e+01 2.763466e+02 7.488931e+01
  vertex 9.229166e+01 2.778627e+02 7.420742e+01
  vertex 9.192664e+01 2.764408e+02 7.339026e+01
 endloop
endfacet
facet normal -9.615077e-01 2.102207e-01 1.769467e-01
 outer loop
  vertex 6.802645e+01 2.727782e+02 8.366218e+01
  vertex 6.834370e+01 2.739361e+02 8.401048e+01
  vertex 6.807252e+01 2.736993e+02 8.281828e+01
 endloop
endfacet
facet normal -6.078101e-01 5.215764e-01 -5.987696e-01
 outer loop
  vertex 7.095129e+01 2.745064e+02 7.670164e+01
  vertex 6.997811e+01 2.745263e+02 7.770689e+01
  vertex 7.202746e+01 2.760787e+02 7.697880e+01
 endloop
endfacet
facet normal -8.797655e-01 -3.439513e-02 4.741620e-01
 outer loop
  vertex 9.726126e+01 2.748451e+02 7.338015e+01
  vertex 9.698979e+01 2.766899e+02 7.301027e+01
  vertex 9.655623e+01 2.750844e+02 7.208937e+01
 endloop
endfacet
facet normal 8.458321e-01 2.105286e-01 -4.901486e-01
 outer loop
  vertex 9.726126e+01 2.748451e+02 7.338015e+01
  vertex 9.794146e+01 2.769217e+02 7.544586e+01
  vertex 9.835341e+01 2.750056e+02 7.533374e+01
 endloop
endfacet
facet normal -9.275583e-01 -6.263573e-02 3.683915e-01
 outer loop
  vertex 9.726126e+01 2.748451e+02 7.338015e+01
  vertex 9.794146e+01 2.769217e+02 7.544586e+01
  vertex 9.698979e+01 2.766899e+02 7.301027e+01
 endloop
endfacet
facet normal 2.351751e-01 -2.048034e-01 -9.501306e-01
 outer loop
  vertex 7.485545e+01 2.763191e+02 7.603703e+01
  vertex 7.293048e+01 2.752056e+02 7.580059e+01
  vertex 7.355523e+01 2.770225e+02 7.556358e+01
 endloop
endfacet
facet normal 7.223237e-01 -1.606244e-01 6.726427e-01
 outer loop
  vertex 7.202746e+01 2.760787e+02 7.697880e+01
  vertex 7.293048e+01 2.752056e+02 7.580059e+01
  vertex 7.355523e+01 2.770225e+02 7.556358e+01
 endloop
endfacet
facet normal 2.963760e-01 8.866732e-01 3.549252e-01
 outer loop
  vertex 7.625206e+01 2.763332e+02 7.733421e+01
  vertex 7.616420e+01 2.767968e+02 7.624936e+01
  vertex 7.450736e+01 2.769510e+02 7.724766e+01
 endloop
endfacet
facet normal 3.366145e-01 9.352904e-01 -1.091901e-01
 outer loop
  vertex 7.625206e+01 2.763332e+02 7.733421e+01
  vertex 7.450736e+01 2.769510e+02 7.724766e+01
  vertex 7.541191e+01 2.768172e+02 7.889015e+01
 endloop
endfacet
facet normal -9.625350e-01 1.722366e-01 2.094301e-01
 outer loop
  vertex 9.777587e+01 2.751693e+02 7.968793e+01
  vertex 9.804149e+01 2.777247e+02 7.880713e+01
  vertex 9.754224e+01 2.757106e+02 7.816902e+01
 endloop
endfacet
facet normal 9.921197e-01 -1.178187e-01 -4.263009e-02
 outer loop
  vertex 9.777587e+01 2.751693e+02 7.968793e+01
  vertex 9.804149e+01 2.777247e+02 7.880713e+01
  vertex 9.801975e+01 2.767129e+02 8.109760e+01
 endloop
endfacet
facet normal 9.901616e-01 -3.591598e-02 1.352405e-01
 outer loop
  vertex 9.192032e+01 2.767845e+02 7.663986e+01
  vertex 9.229166e+01 2.778627e+02 7.420742e+01
  vertex 9.195881e+01 2.786731e+02 7.685962e+01
 endloop
endfacet
facet normal 9.870654e-01 -1.464348e-03 -1.603115e-01
 outer loop
  vertex 9.192032e+01 2.767845e+02 7.663986e+01
  vertex 9.195881e+01 2.786731e+02 7.685962e+01
  vertex 9.226369e+01 2.786761e+02 7.873679e+01
 endloop
endfacet
facet normal 9.147197e-01 1.664280e-01 3.682249e-01
 outer loop
  vertex 9.192664e+01 2.764408e+02 7.339026e+01
  vertex 9.252354e+01 2.761557e+02 7.203635e+01
  vertex 9.212073e+01 2.775928e+02 7.238746e+01
 endloop
endfacet
facet normal 9.745807e-01 -2.159903e-01 -5.950375e-02
 outer loop
  vertex 9.192664e+01 2.764408e+02 7.339026e+01
  vertex 9.212073e+01 2.775928e+02 7.238746e+01
  vertex 9.229166e+01 2.778627e+02 7.420742e+01
 endloop
endfacet
facet normal -8.191476e-01 3.916998e-01 4.190089e-01
 outer loop
  vertex 9.239470e+01 2.767324e+02 8.080999e+01
  vertex 9.332969e+01 2.787826e+02 8.072122e+01
  vertex 9.226369e+01 2.786761e+02 7.873679e+01
 endloop
endfacet
facet normal -5.144069e-01 2.698282e-01 8.139891e-01
 outer loop
  vertex 9.239470e+01 2.767324e+02 8.080999e+01
  vertex 9.516007e+01 2.784372e+02 8.199245e+01
  vertex 9.332969e+01 2.787826e+02 8.072122e+01
 endloop
endfacet
facet normal -3.720176e-01 -7.856914e-01 -4.942590e-01
 outer loop
  vertex 7.440520e+01 2.759417e+02 8.103975e+01
  vertex 7.383102e+01 2.769922e+02 7.980189e+01
  vertex 7.541191e+01 2.768172e+02 7.889015e+01
 endloop
endfacet
facet normal 6.294252e-01 7.116607e-01 3.120303e-01
 outer loop
  vertex 7.440520e+01 2.759417e+02 8.103975e+01
  vertex 7.383102e+01 2.769922e+02 7.980189e+01
  vertex 7.266279e+01 2.766907e+02 8.284606e+01
 endloop
endfacet
facet normal 9.122076e-01 1.639469e-01 3.754979e-01
 outer loop
  vertex 9.252354e+01 2.761557e+02 7.203635e+01
  vertex 9.300870e+01 2.766161e+02 7.065669e+01
  vertex 9.212073e+01 2.775928e+02 7.238746e+01
 endloop
endfacet
facet normal -5.305903e-01 7.007562e-01 4.768802e-01
 outer loop
  vertex 9.655623e+01 2.750844e+02 7.208937e+01
  vertex 9.671876e+01 2.765364e+02 7.013660e+01
  vertex 9.508659e+01 2.753029e+02 7.013309e+01
 endloop
endfacet
facet normal 9.729296e-01 -2.167462e-01 -8.018141e-02
 outer loop
  vertex 9.655623e+01 2.750844e+02 7.208937e+01
  vertex 9.671876e+01 2.765364e+02 7.013660e+01
  vertex 9.698979e+01 2.766899e+02 7.301027e+01
 endloop
endfacet
facet normal 9.551118e-01 1.921494e-01 2.254773e-01
 outer loop
  vertex 9.835341e+01 2.750056e+02 7.533374e+01
  vertex 9.794146e+01 2.769217e+02 7.544586e+01
  vertex 9.754224e+01 2.757106e+02 7.816902e+01
 endloop
endfacet
facet normal 5.212641e-01 -7.724134e-01 3.628515e-01
 outer loop
  vertex 6.997811e+01 2.745263e+02 7.770689e+01
  vertex 6.968629e+01 2.750927e+02 7.933185e+01
  vertex 6.841943e+01 2.738879e+02 7.858692e+01
 endloop
endfacet
facet normal 6.759098e-01 -6.497234e-01 3.478583e-01
 outer loop
  vertex 6.997811e+01 2.745263e+02 7.770689e+01
  vertex 7.062548e+01 2.763235e+02 7.980569e+01
  vertex 6.968629e+01 2.750927e+02 7.933185e+01
 endloop
endfacet
facet normal -6.406846e-01 6.695879e-01 -3.757330e-01
 outer loop
  vertex 6.997811e+01 2.745263e+02 7.770689e+01
  vertex 7.062548e+01 2.763235e+02 7.980569e+01
  vertex 7.202746e+01 2.760787e+02 7.697880e+01
 endloop
endfacet
facet normal -4.752415e-01 7.666310e-01 -4.317667e-01
 outer loop
  vertex 6.841943e+01 2.738879e+02 7.858692e+01
  vertex 6.838536e+01 2.748042e+02 8.025146e+01
  vertex 6.968629e+01 2.750927e+02 7.933185e+01
 endloop
endfacet
facet normal -3.820080e-02 4.771145e-02 9.981304e-01
 outer loop
  vertex 9.508659e+01 2.753029e+02 7.013309e+01
  vertex 9.671876e+01 2.765364e+02 7.013660e+01
  vertex 9.405716e+01 2.770665e+02 7.000939e+01
 endloop
endfacet
facet normal 1.504369e-01 2.711047e-02 -9.882478e-01
 outer loop
  vertex 7.616420e+01 2.767968e+02 7.624936e+01
  vertex 7.485545e+01 2.763191e+02 7.603703e+01
  vertex 7.482428e+01 2.778045e+02 7.607303e+01
 endloop
endfacet
facet normal 5.318865e-01 8.037519e-01 -2.666076e-01
 outer loop
  vertex 7.485545e+01 2.763191e+02 7.603703e+01
  vertex 7.355523e+01 2.770225e+02 7.556358e+01
  vertex 7.450736e+01 2.769510e+02 7.724766e+01
 endloop
endfacet
facet normal -9.628444e-01 -1.366695e-02 -2.697106e-01
 outer loop
  vertex 7.485545e+01 2.763191e+02 7.603703e+01
  vertex 7.450736e+01 2.769510e+02 7.724766e+01
  vertex 7.482428e+01 2.778045e+02 7.607303e+01
 endloop
endfacet
facet normal 9.688751e-01 -2.453515e-01 3.292013e-02
 outer loop
  vertex 9.754224e+01 2.757106e+02 7.816902e+01
  vertex 9.794146e+01 2.769217e+02 7.544586e+01
  vertex 9.808933e+01 2.777180e+02 7.702925e+01
 endloop
endfacet
facet normal -9.682429e-01 2.485513e-01 -2.698100e-02
 outer loop
  vertex 9.754224e+01 2.757106e+02 7.816902e+01
  vertex 9.804149e+01 2.777247e+02 7.880713e+01
  vertex 9.808933e+01 2.777180e+02 7.702925e+01
 endloop
endfacet
facet normal 9.760021e-01 -4.478134e-02 -2.131067e-01
 outer loop
  vertex 6.834370e+01 2.739361e+02 8.401048e+01
  vertex 6.807252e+01 2.736993e+02 8.281828e+01
  vertex 6.821053e+01 2.748289e+02 8.321296e+01
 endloop
endfacet
facet normal 9.908730e-01 -1.314642e-01 2.979655e-02
 outer loop
  vertex 6.807252e+01 2.736993e+02 8.281828e+01
  vertex 6.823824e+01 2.747016e+02 8.172965e+01
  vertex 6.821053e+01 2.748289e+02 8.321296e+01
 endloop
endfacet
facet normal 4.266458e-01 6.730587e-01 6.041236e-01
 outer loop
  vertex 7.616420e+01 2.767968e+02 7.624936e+01
  vertex 7.482428e+01 2.778045e+02 7.607303e+01
  vertex 7.450736e+01 2.769510e+02 7.724766e+01
 endloop
endfacet
facet normal -1.187998e-01 -9.927980e-01 -1.544841e-02
 outer loop
  vertex 7.541191e+01 2.768172e+02 7.889015e+01
  vertex 7.383102e+01 2.769922e+02 7.980189e+01
  vertex 7.450736e+01 2.769510e+02 7.724766e+01
 endloop
endfacet
facet normal 4.024685e-01 -5.757270e-01 -7.117286e-01
 outer loop
  vertex 6.834370e+01 2.739361e+02 8.401048e+01
  vertex 6.821053e+01 2.748289e+02 8.321296e+01
  vertex 6.924128e+01 2.747813e+02 8.383439e+01
 endloop
endfacet
facet normal 4.541070e-01 -8.004378e-01 3.912623e-01
 outer loop
  vertex 6.838536e+01 2.748042e+02 8.025146e+01
  vertex 6.968629e+01 2.750927e+02 7.933185e+01
  vertex 6.927147e+01 2.757487e+02 8.115521e+01
 endloop
endfacet
facet normal -6.572859e-01 6.490507e-01 -3.830254e-01
 outer loop
  vertex 6.968629e+01 2.750927e+02 7.933185e+01
  vertex 6.927147e+01 2.757487e+02 8.115521e+01
  vertex 7.062548e+01 2.763235e+02 7.980569e+01
 endloop
endfacet
facet normal 8.308040e-01 -1.787110e-01 5.270930e-01
 outer loop
  vertex 9.300870e+01 2.766161e+02 7.065669e+01
  vertex 9.295352e+01 2.785807e+02 7.140977e+01
  vertex 9.212073e+01 2.775928e+02 7.238746e+01
 endloop
endfacet
facet normal 4.450452e-01 2.137772e-01 8.696172e-01
 outer loop
  vertex 9.300870e+01 2.766161e+02 7.065669e+01
  vertex 9.405716e+01 2.770665e+02 7.000939e+01
  vertex 9.307692e+01 2.778799e+02 7.031111e+01
 endloop
endfacet
facet normal 9.920913e-01 -1.965286e-02 1.239703e-01
 outer loop
  vertex 9.300870e+01 2.766161e+02 7.065669e+01
  vertex 9.307692e+01 2.778799e+02 7.031111e+01
  vertex 9.295352e+01 2.785807e+02 7.140977e+01
 endloop
endfacet
facet normal -3.205079e-01 9.419465e-01 -1.000578e-01
 outer loop
  vertex 7.202746e+01 2.760787e+02 7.697880e+01
  vertex 7.383102e+01 2.769922e+02 7.980189e+01
  vertex 7.450736e+01 2.769510e+02 7.724766e+01
 endloop
endfacet
facet normal 3.451035e-01 -9.090072e-01 -2.336869e-01
 outer loop
  vertex 7.202746e+01 2.760787e+02 7.697880e+01
  vertex 7.355523e+01 2.770225e+02 7.556358e+01
  vertex 7.450736e+01 2.769510e+02 7.724766e+01
 endloop
endfacet
facet normal -2.009828e-01 9.623461e-01 -1.830189e-01
 outer loop
  vertex 7.202746e+01 2.760787e+02 7.697880e+01
  vertex 7.062548e+01 2.763235e+02 7.980569e+01
  vertex 7.383102e+01 2.769922e+02 7.980189e+01
 endloop
endfacet
facet normal 3.311963e-01 -7.241618e-01 -6.048956e-01
 outer loop
  vertex 6.924128e+01 2.747813e+02 8.383439e+01
  vertex 6.821053e+01 2.748289e+02 8.321296e+01
  vertex 6.982529e+01 2.760829e+02 8.259590e+01
 endloop
endfacet
facet normal 7.179371e-01 -6.957230e-01 2.314978e-02
 outer loop
  vertex 6.838536e+01 2.748042e+02 8.025146e+01
  vertex 6.927147e+01 2.757487e+02 8.115521e+01
  vertex 6.823824e+01 2.747016e+02 8.172965e+01
 endloop
endfacet
facet normal 3.598338e-01 9.048049e-01 2.277010e-01
 outer loop
  vertex 7.266279e+01 2.766907e+02 8.284606e+01
  vertex 7.383102e+01 2.769922e+02 7.980189e+01
  vertex 7.107649e+01 2.776430e+02 8.156904e+01
 endloop
endfacet
facet normal -1.695208e-01 8.093822e-01 -5.622838e-01
 outer loop
  vertex 7.383102e+01 2.769922e+02 7.980189e+01
  vertex 7.062548e+01 2.763235e+02 7.980569e+01
  vertex 7.107649e+01 2.776430e+02 8.156904e+01
 endloop
endfacet
facet normal 6.299122e-01 -7.727292e-01 7.810308e-02
 outer loop
  vertex 6.823824e+01 2.747016e+02 8.172965e+01
  vertex 6.982529e+01 2.760829e+02 8.259590e+01
  vertex 6.821053e+01 2.748289e+02 8.321296e+01
 endloop
endfacet
facet normal -6.823415e-01 7.249461e-01 9.414487e-02
 outer loop
  vertex 6.823824e+01 2.747016e+02 8.172965e+01
  vertex 6.982529e+01 2.760829e+02 8.259590e+01
  vertex 6.927147e+01 2.757487e+02 8.115521e+01
 endloop
endfacet
facet normal 8.792653e-01 -4.761821e-01 -1.196396e-02
 outer loop
  vertex 9.212073e+01 2.775928e+02 7.238746e+01
  vertex 9.290881e+01 2.790284e+02 7.316671e+01
  vertex 9.229166e+01 2.778627e+02 7.420742e+01
 endloop
endfacet
facet normal -8.266578e-01 5.398893e-01 -1.586075e-01
 outer loop
  vertex 9.212073e+01 2.775928e+02 7.238746e+01
  vertex 9.290881e+01 2.790284e+02 7.316671e+01
  vertex 9.295352e+01 2.785807e+02 7.140977e+01
 endloop
endfacet
facet normal 8.583548e-01 -4.505625e-01 2.453988e-01
 outer loop
  vertex 9.229166e+01 2.778627e+02 7.420742e+01
  vertex 9.294302e+01 2.794916e+02 7.491986e+01
  vertex 9.195881e+01 2.786731e+02 7.685962e+01
 endloop
endfacet
facet normal 9.108751e-01 -4.030340e-01 8.871383e-02
 outer loop
  vertex 9.229166e+01 2.778627e+02 7.420742e+01
  vertex 9.290881e+01 2.790284e+02 7.316671e+01
  vertex 9.294302e+01 2.794916e+02 7.491986e+01
 endloop
endfacet
facet normal 2.033766e-01 -6.468717e-01 -7.349795e-01
 outer loop
  vertex 7.266279e+01 2.766907e+02 8.284606e+01
  vertex 6.982529e+01 2.760829e+02 8.259590e+01
  vertex 7.107649e+01 2.776430e+02 8.156904e+01
 endloop
endfacet
facet normal -8.839015e-01 -4.246335e-01 -1.959706e-01
 outer loop
  vertex 9.801975e+01 2.767129e+02 8.109760e+01
  vertex 9.707929e+01 2.790855e+02 8.019827e+01
  vertex 9.804149e+01 2.777247e+02 7.880713e+01
 endloop
endfacet
facet normal 8.120175e-01 4.586601e-01 3.609136e-01
 outer loop
  vertex 9.801975e+01 2.767129e+02 8.109760e+01
  vertex 9.707929e+01 2.790855e+02 8.019827e+01
  vertex 9.695829e+01 2.780813e+02 8.174668e+01
 endloop
endfacet
facet normal -9.107025e-01 -1.779290e-01 3.727764e-01
 outer loop
  vertex 9.698979e+01 2.766899e+02 7.301027e+01
  vertex 9.794146e+01 2.769217e+02 7.544586e+01
  vertex 9.703696e+01 2.783163e+02 7.390180e+01
 endloop
endfacet
facet normal -9.954103e-01 2.419837e-02 9.258902e-02
 outer loop
  vertex 9.698979e+01 2.766899e+02 7.301027e+01
  vertex 9.694844e+01 2.783722e+02 7.212612e+01
  vertex 9.671876e+01 2.765364e+02 7.013660e+01
 endloop
endfacet
facet normal -9.987560e-01 1.648342e-03 4.983792e-02
 outer loop
  vertex 9.698979e+01 2.766899e+02 7.301027e+01
  vertex 9.703696e+01 2.783163e+02 7.390180e+01
  vertex 9.694844e+01 2.783722e+02 7.212612e+01
 endloop
endfacet
facet normal 6.390589e-01 -6.852613e-01 3.493147e-01
 outer loop
  vertex 6.927147e+01 2.757487e+02 8.115521e+01
  vertex 7.062548e+01 2.763235e+02 7.980569e+01
  vertex 7.107649e+01 2.776430e+02 8.156904e+01
 endloop
endfacet
facet normal 7.317878e-01 -6.697942e-01 -1.259457e-01
 outer loop
  vertex 6.927147e+01 2.757487e+02 8.115521e+01
  vertex 7.107649e+01 2.776430e+02 8.156904e+01
  vertex 6.982529e+01 2.760829e+02 8.259590e+01
 endloop
endfacet
facet normal 4.799554e-02 1.288659e-03 -9.988467e-01
 outer loop
  vertex 9.671876e+01 2.765364e+02 7.013660e+01
  vertex 9.405716e+01 2.770665e+02 7.000939e+01
  vertex 9.563067e+01 2.790254e+02 7.008753e+01
 endloop
endfacet
facet normal 3.543229e-01 8.145413e-02 9.315688e-01
 outer loop
  vertex 9.307692e+01 2.778799e+02 7.031111e+01
  vertex 9.405716e+01 2.770665e+02 7.000939e+01
  vertex 9.362139e+01 2.790298e+02 7.000348e+01
 endloop
endfacet
facet normal 4.180872e-02 6.268877e-03 -9.991060e-01
 outer loop
  vertex 9.405716e+01 2.770665e+02 7.000939e+01
  vertex 9.362139e+01 2.790298e+02 7.000348e+01
  vertex 9.563067e+01 2.790254e+02 7.008753e+01
 endloop
endfacet
facet normal -8.283711e-01 -4.655746e-01 3.115151e-01
 outer loop
  vertex 9.794146e+01 2.769217e+02 7.544586e+01
  vertex 9.808933e+01 2.777180e+02 7.702925e+01
  vertex 9.718247e+01 2.784230e+02 7.567138e+01
 endloop
endfacet
facet normal -8.817908e-01 -4.608526e-01 1.002989e-01
 outer loop
  vertex 9.794146e+01 2.769217e+02 7.544586e+01
  vertex 9.718247e+01 2.784230e+02 7.567138e+01
  vertex 9.703696e+01 2.783163e+02 7.390180e+01
 endloop
endfacet
facet normal 6.754890e-01 -7.293398e-01 -1.085274e-01
 outer loop
  vertex 9.226369e+01 2.786761e+02 7.873679e+01
  vertex 9.195881e+01 2.786731e+02 7.685962e+01
  vertex 9.335179e+01 2.799030e+02 7.726415e+01
 endloop
endfacet
facet normal 6.589880e-01 -7.519598e-01 1.706465e-02
 outer loop
  vertex 9.195881e+01 2.786731e+02 7.685962e+01
  vertex 9.294302e+01 2.794916e+02 7.491986e+01
  vertex 9.335179e+01 2.799030e+02 7.726415e+01
 endloop
endfacet
facet normal -8.190544e-01 3.919634e-01 4.189447e-01
 outer loop
  vertex 9.226369e+01 2.786761e+02 7.873679e+01
  vertex 9.332969e+01 2.787826e+02 8.072122e+01
  vertex 9.318519e+01 2.798273e+02 7.946139e+01
 endloop
endfacet
facet normal -7.688855e-01 6.383563e-01 -3.628101e-02
 outer loop
  vertex 9.226369e+01 2.786761e+02 7.873679e+01
  vertex 9.318519e+01 2.798273e+02 7.946139e+01
  vertex 9.335179e+01 2.799030e+02 7.726415e+01
 endloop
endfacet
facet normal -9.833678e-01 1.751434e-01 -4.808831e-02
 outer loop
  vertex 9.671876e+01 2.765364e+02 7.013660e+01
  vertex 9.694844e+01 2.783722e+02 7.212612e+01
  vertex 9.698838e+01 2.781438e+02 7.047728e+01
 endloop
endfacet
facet normal -3.542859e-01 -1.366412e-01 9.251003e-01
 outer loop
  vertex 9.671876e+01 2.765364e+02 7.013660e+01
  vertex 9.698838e+01 2.781438e+02 7.047728e+01
  vertex 9.563067e+01 2.790254e+02 7.008753e+01
 endloop
endfacet
facet normal 8.877870e-01 -3.362897e-01 3.142348e-01
 outer loop
  vertex 9.307692e+01 2.778799e+02 7.031111e+01
  vertex 9.362139e+01 2.790298e+02 7.000348e+01
  vertex 9.295352e+01 2.785807e+02 7.140977e+01
 endloop
endfacet
facet normal 1.760030e-01 -8.560338e-01 -4.860341e-01
 outer loop
  vertex 9.516007e+01 2.784372e+02 8.199245e+01
  vertex 9.332969e+01 2.787826e+02 8.072122e+01
  vertex 9.473549e+01 2.800648e+02 7.897209e+01
 endloop
endfacet
facet normal 8.080124e-02 7.718120e-01 6.306959e-01
 outer loop
  vertex 9.332969e+01 2.787826e+02 8.072122e+01
  vertex 9.473549e+01 2.800648e+02 7.897209e+01
  vertex 9.318519e+01 2.798273e+02 7.946139e+01
 endloop
endfacet
facet normal -2.338248e-01 -8.072995e-01 -5.418427e-01
 outer loop
  vertex 9.516007e+01 2.784372e+02 8.199245e+01
  vertex 9.707929e+01 2.790855e+02 8.019827e+01
  vertex 9.695829e+01 2.780813e+02 8.174668e+01
 endloop
endfacet
facet normal -1.291359e-01 -8.804163e-01 -4.562796e-01
 outer loop
  vertex 9.516007e+01 2.784372e+02 8.199245e+01
  vertex 9.473549e+01 2.800648e+02 7.897209e+01
  vertex 9.707929e+01 2.790855e+02 8.019827e+01
 endloop
endfacet
facet normal -9.970799e-01 -7.159731e-02 -2.656113e-02
 outer loop
  vertex 9.808933e+01 2.777180e+02 7.702925e+01
  vertex 9.804149e+01 2.777247e+02 7.880713e+01
  vertex 9.800094e+01 2.786210e+02 7.791310e+01
 endloop
endfacet
facet normal 8.959269e-01 3.333548e-01 2.935807e-01
 outer loop
  vertex 9.804149e+01 2.777247e+02 7.880713e+01
  vertex 9.800094e+01 2.786210e+02 7.791310e+01
  vertex 9.707929e+01 2.790855e+02 8.019827e+01
 endloop
endfacet
facet normal -8.582274e-01 -1.737293e-01 4.829739e-01
 outer loop
  vertex 9.718247e+01 2.784230e+02 7.567138e+01
  vertex 9.808933e+01 2.777180e+02 7.702925e+01
  vertex 9.768400e+01 2.788081e+02 7.670110e+01
 endloop
endfacet
facet normal -9.364557e-01 -2.878690e-01 2.004550e-01
 outer loop
  vertex 9.808933e+01 2.777180e+02 7.702925e+01
  vertex 9.800094e+01 2.786210e+02 7.791310e+01
  vertex 9.768400e+01 2.788081e+02 7.670110e+01
 endloop
endfacet
facet normal 7.734553e-01 -6.092359e-01 1.749242e-01
 outer loop
  vertex 9.290881e+01 2.790284e+02 7.316671e+01
  vertex 9.295352e+01 2.785807e+02 7.140977e+01
  vertex 9.399162e+01 2.799908e+02 7.173081e+01
 endloop
endfacet
facet normal -9.103536e-01 1.637739e-01 -3.800454e-01
 outer loop
  vertex 9.362139e+01 2.790298e+02 7.000348e+01
  vertex 9.295352e+01 2.785807e+02 7.140977e+01
  vertex 9.349350e+01 2.799330e+02 7.069906e+01
 endloop
endfacet
facet normal -7.899641e-01 5.011214e-01 3.533187e-01
 outer loop
  vertex 9.295352e+01 2.785807e+02 7.140977e+01
  vertex 9.399162e+01 2.799908e+02 7.173081e+01
  vertex 9.349350e+01 2.799330e+02 7.069906e+01
 endloop
endfacet
facet normal 4.146869e-01 -8.817400e-01 2.248761e-01
 outer loop
  vertex 9.290881e+01 2.790284e+02 7.316671e+01
  vertex 9.491321e+01 2.800409e+02 7.344041e+01
  vertex 9.294302e+01 2.794916e+02 7.491986e+01
 endloop
endfacet
facet normal 4.636165e-01 -8.570401e-01 -2.248154e-01
 outer loop
  vertex 9.290881e+01 2.790284e+02 7.316671e+01
  vertex 9.399162e+01 2.799908e+02 7.173081e+01
  vertex 9.491321e+01 2.800409e+02 7.344041e+01
 endloop
endfacet
facet normal -6.817355e-01 -7.247647e-01 9.976387e-02
 outer loop
  vertex 9.703696e+01 2.783163e+02 7.390180e+01
  vertex 9.718247e+01 2.784230e+02 7.567138e+01
  vertex 9.603175e+01 2.793983e+02 7.489318e+01
 endloop
endfacet
facet normal -1.490571e-01 -9.001802e-01 4.092158e-01
 outer loop
  vertex 9.573707e+01 2.789784e+02 7.636659e+01
  vertex 9.718247e+01 2.784230e+02 7.567138e+01
  vertex 9.768400e+01 2.788081e+02 7.670110e+01
 endloop
endfacet
facet normal -4.720579e-01 -8.184169e-01 -3.276509e-01
 outer loop
  vertex 9.718247e+01 2.784230e+02 7.567138e+01
  vertex 9.573707e+01 2.789784e+02 7.636659e+01
  vertex 9.603175e+01 2.793983e+02 7.489318e+01
 endloop
endfacet
facet normal -8.066312e-01 -5.906602e-01 2.159881e-02
 outer loop
  vertex 9.694844e+01 2.783722e+02 7.212612e+01
  vertex 9.703696e+01 2.783163e+02 7.390180e+01
  vertex 9.585805e+01 2.798477e+02 7.175384e+01
 endloop
endfacet
facet normal 6.430779e-01 7.479708e-01 -1.642881e-01
 outer loop
  vertex 9.703696e+01 2.783163e+02 7.390180e+01
  vertex 9.491321e+01 2.800409e+02 7.344041e+01
  vertex 9.603175e+01 2.793983e+02 7.489318e+01
 endloop
endfacet
facet normal -5.810677e-01 -7.787867e-01 -2.363295e-01
 outer loop
  vertex 9.703696e+01 2.783163e+02 7.390180e+01
  vertex 9.491321e+01 2.800409e+02 7.344041e+01
  vertex 9.585805e+01 2.798477e+02 7.175384e+01
 endloop
endfacet
facet normal 2.423825e-01 -9.618916e-01 1.265512e-01
 outer loop
  vertex 9.294302e+01 2.794916e+02 7.491986e+01
  vertex 9.450914e+01 2.799729e+02 7.557842e+01
  vertex 9.335179e+01 2.799030e+02 7.726415e+01
 endloop
endfacet
facet normal -2.846948e-01 9.583343e-01 -2.332771e-02
 outer loop
  vertex 9.294302e+01 2.794916e+02 7.491986e+01
  vertex 9.450914e+01 2.799729e+02 7.557842e+01
  vertex 9.491321e+01 2.800409e+02 7.344041e+01
 endloop
endfacet
facet normal -9.706927e-02 -9.935206e-01 5.911310e-02
 outer loop
  vertex 9.573707e+01 2.789784e+02 7.636659e+01
  vertex 9.768400e+01 2.788081e+02 7.670110e+01
  vertex 9.679717e+01 2.789429e+02 7.751072e+01
 endloop
endfacet
facet normal 5.328225e-01 7.024358e-01 -4.718942e-01
 outer loop
  vertex 9.679717e+01 2.789429e+02 7.751072e+01
  vertex 9.573707e+01 2.789784e+02 7.636659e+01
  vertex 9.553347e+01 2.799444e+02 7.757467e+01
 endloop
endfacet
facet normal -4.589672e-01 -8.260094e-01 -3.271966e-01
 outer loop
  vertex 9.573707e+01 2.789784e+02 7.636659e+01
  vertex 9.450914e+01 2.799729e+02 7.557842e+01
  vertex 9.603175e+01 2.793983e+02 7.489318e+01
 endloop
endfacet
facet normal 7.156338e-01 5.993584e-01 -3.586611e-01
 outer loop
  vertex 9.573707e+01 2.789784e+02 7.636659e+01
  vertex 9.450914e+01 2.799729e+02 7.557842e+01
  vertex 9.553347e+01 2.799444e+02 7.757467e+01
 endloop
endfacet
facet normal -1.442584e-01 9.892685e-01 2.317986e-02
 outer loop
  vertex 9.318519e+01 2.798273e+02 7.946139e+01
  vertex 9.473549e+01 2.800648e+02 7.897209e+01
  vertex 9.335179e+01 2.799030e+02 7.726415e+01
 endloop
endfacet
facet normal -2.291914e-01 -9.692438e-01 -8.965344e-02
 outer loop
  vertex 9.679717e+01 2.789429e+02 7.751072e+01
  vertex 9.768400e+01 2.788081e+02 7.670110e+01
  vertex 9.800094e+01 2.786210e+02 7.791310e+01
 endloop
endfacet
facet normal 3.838977e-01 7.318006e-01 -5.631078e-01
 outer loop
  vertex 9.800094e+01 2.786210e+02 7.791310e+01
  vertex 9.679717e+01 2.789429e+02 7.751072e+01
  vertex 9.652094e+01 2.801107e+02 7.884009e+01
 endloop
endfacet
facet normal 5.227057e-01 6.913863e-01 -4.987623e-01
 outer loop
  vertex 9.679717e+01 2.789429e+02 7.751072e+01
  vertex 9.553347e+01 2.799444e+02 7.757467e+01
  vertex 9.652094e+01 2.801107e+02 7.884009e+01
 endloop
endfacet
facet normal -8.100319e-01 -5.831847e-01 6.118698e-02
 outer loop
  vertex 9.698838e+01 2.781438e+02 7.047728e+01
  vertex 9.694844e+01 2.783722e+02 7.212612e+01
  vertex 9.585805e+01 2.798477e+02 7.175384e+01
 endloop
endfacet
facet normal 7.504383e-01 6.378989e-01 1.729950e-01
 outer loop
  vertex 9.800094e+01 2.786210e+02 7.791310e+01
  vertex 9.652094e+01 2.801107e+02 7.884009e+01
  vertex 9.707929e+01 2.790855e+02 8.019827e+01
 endloop
endfacet
facet normal -2.263425e-02 9.994090e-01 2.587279e-02
 outer loop
  vertex 9.335179e+01 2.799030e+02 7.726415e+01
  vertex 9.553347e+01 2.799444e+02 7.757467e+01
  vertex 9.450914e+01 2.799729e+02 7.557842e+01
 endloop
endfacet
facet normal 6.172972e-03 -9.959832e-01 8.932732e-02
 outer loop
  vertex 9.335179e+01 2.799030e+02 7.726415e+01
  vertex 9.553347e+01 2.799444e+02 7.757467e+01
  vertex 9.473549e+01 2.800648e+02 7.897209e+01
 endloop
endfacet
facet normal -5.757053e-01 -6.993213e-01 4.236898e-01
 outer loop
  vertex 9.698838e+01 2.781438e+02 7.047728e+01
  vertex 9.585805e+01 2.798477e+02 7.175384e+01
  vertex 9.563067e+01 2.790254e+02 7.008753e+01
 endloop
endfacet
facet normal 2.342979e-02 8.025390e-01 5.961394e-01
 outer loop
  vertex 9.707929e+01 2.790855e+02 8.019827e+01
  vertex 9.652094e+01 2.801107e+02 7.884009e+01
  vertex 9.473549e+01 2.800648e+02 7.897209e+01
 endloop
endfacet
facet normal 3.931353e-02 3.921592e-01 -9.190569e-01
 outer loop
  vertex 9.563067e+01 2.790254e+02 7.008753e+01
  vertex 9.362139e+01 2.790298e+02 7.000348e+01
  vertex 9.461145e+01 2.799617e+02 7.044347e+01
 endloop
endfacet
facet normal -1.955692e-01 5.808441e-01 -7.901727e-01
 outer loop
  vertex 9.362139e+01 2.790298e+02 7.000348e+01
  vertex 9.349350e+01 2.799330e+02 7.069906e+01
  vertex 9.461145e+01 2.799617e+02 7.044347e+01
 endloop
endfacet
facet normal 3.914565e-01 9.144067e-01 1.030639e-01
 outer loop
  vertex 9.603175e+01 2.793983e+02 7.489318e+01
  vertex 9.491321e+01 2.800409e+02 7.344041e+01
  vertex 9.450914e+01 2.799729e+02 7.557842e+01
 endloop
endfacet
facet normal -3.330475e-02 9.939518e-01 -1.046455e-01
 outer loop
  vertex 9.473549e+01 2.800648e+02 7.897209e+01
  vertex 9.652094e+01 2.801107e+02 7.884009e+01
  vertex 9.553347e+01 2.799444e+02 7.757467e+01
 endloop
endfacet
facet normal -5.228513e-01 -7.339305e-01 4.335579e-01
 outer loop
  vertex 9.563067e+01 2.790254e+02 7.008753e+01
  vertex 9.585805e+01 2.798477e+02 7.175384e+01
  vertex 9.461145e+01 2.799617e+02 7.044347e+01
 endloop
endfacet
facet normal 7.711340e-02 9.945124e-01 -7.070046e-02
 outer loop
  vertex 9.491321e+01 2.800409e+02 7.344041e+01
  vertex 9.585805e+01 2.798477e+02 7.175384e+01
  vertex 9.399162e+01 2.799908e+02 7.173081e+01
 endloop
endfacet
facet normal -3.461731e-02 9.986304e-01 -3.922992e-02
 outer loop
  vertex 9.399162e+01 2.799908e+02 7.173081e+01
  vertex 9.461145e+01 2.799617e+02 7.044347e+01
  vertex 9.349350e+01 2.799330e+02 7.069906e+01
 endloop
endfacet
facet normal -7.625570e-02 -9.969873e-01 -1.419063e-02
 outer loop
  vertex 9.399162e+01 2.799908e+02 7.173081e+01
  vertex 9.461145e+01 2.799617e+02 7.044347e+01
  vertex 9.585805e+01 2.798477e+02 7.175384e+01
 endloop
endfacet
endsolid 
