solid 
facet normal 6.586073e-01 7.278015e-01 -1.911580e-01
 outer loop
  vertex 1.118762e+02 8.241513e+01 4.803615e+01
  vertex 1.127884e+02 8.196178e+01 4.945295e+01
  vertex 1.124201e+02 8.169631e+01 4.717337e+01
 endloop
endfacet
facet normal -7.937477e-01 1.990698e-01 5.747485e-01
 outer loop
  vertex 1.127884e+02 8.196178e+01 4.945295e+01
  vertex 1.118762e+02 8.241513e+01 4.803615e+01
  vertex 1.120129e+02 8.068163e+01 4.882534e+01
 endloop
endfacet
facet normal -8.987524e-01 -2.383957e-01 -3.679832e-01
 outer loop
  vertex 1.118762e+02 8.241513e+01 4.803615e+01
  vertex 1.124201e+02 8.169631e+01 4.717337e+01
  vertex 1.120129e+02 8.068163e+01 4.882534e+01
 endloop
endfacet
facet normal 7.524105e-02 -9.640479e-01 2.548538e-01
 outer loop
  vertex 7.740460e+01 7.899293e+01 5.508927e+01
  vertex 7.543616e+01 7.899048e+01 5.566114e+01
  vertex 7.437411e+01 7.846539e+01 5.398839e+01
 endloop
endfacet
facet normal -2.025549e-01 -6.846589e-01 -7.001526e-01
 outer loop
  vertex 7.543616e+01 7.899048e+01 5.566114e+01
  vertex 7.740460e+01 7.899293e+01 5.508927e+01
  vertex 7.616344e+01 7.751931e+01 5.688935e+01
 endloop
endfacet
facet normal -1.823076e-01 9.827555e-01 3.091258e-02
 outer loop
  vertex 7.740460e+01 7.899293e+01 5.508927e+01
  vertex 7.727371e+01 7.905147e+01 5.245645e+01
  vertex 7.437411e+01 7.846539e+01 5.398839e+01
 endloop
endfacet
facet normal -4.044898e-01 -9.145425e-01 -2.252052e-04
 outer loop
  vertex 7.740460e+01 7.899293e+01 5.508927e+01
  vertex 7.727371e+01 7.905147e+01 5.245645e+01
  vertex 7.949019e+01 7.807102e+01 5.301174e+01
 endloop
endfacet
facet normal -6.259013e-01 -7.152370e-01 -3.109399e-01
 outer loop
  vertex 7.740460e+01 7.899293e+01 5.508927e+01
  vertex 7.949019e+01 7.807102e+01 5.301174e+01
  vertex 7.932593e+01 7.720415e+01 5.533639e+01
 endloop
endfacet
facet normal 4.128426e-01 5.443195e-01 7.302584e-01
 outer loop
  vertex 7.740460e+01 7.899293e+01 5.508927e+01
  vertex 7.616344e+01 7.751931e+01 5.688935e+01
  vertex 7.932593e+01 7.720415e+01 5.533639e+01
 endloop
endfacet
facet normal -6.643567e-01 7.214370e-01 1.953431e-01
 outer loop
  vertex 7.543616e+01 7.899048e+01 5.566114e+01
  vertex 7.437411e+01 7.846539e+01 5.398839e+01
  vertex 7.446946e+01 7.785152e+01 5.657982e+01
 endloop
endfacet
facet normal -1.623316e-02 6.360475e-01 7.714791e-01
 outer loop
  vertex 7.543616e+01 7.899048e+01 5.566114e+01
  vertex 7.446946e+01 7.785152e+01 5.657982e+01
  vertex 7.616344e+01 7.751931e+01 5.688935e+01
 endloop
endfacet
facet normal 7.199452e-02 9.726882e-01 2.206683e-01
 outer loop
  vertex 1.127884e+02 8.196178e+01 4.945295e+01
  vertex 1.139327e+02 8.154012e+01 5.093825e+01
  vertex 1.143824e+02 8.199950e+01 4.876662e+01
 endloop
endfacet
facet normal 4.644855e-01 -6.909057e-01 -5.539878e-01
 outer loop
  vertex 1.127884e+02 8.196178e+01 4.945295e+01
  vertex 1.139327e+02 8.154012e+01 5.093825e+01
  vertex 1.122348e+02 8.076272e+01 5.048422e+01
 endloop
endfacet
facet normal 2.269080e-01 -8.471663e-01 4.804395e-01
 outer loop
  vertex 1.143824e+02 8.199950e+01 4.876662e+01
  vertex 1.127884e+02 8.196178e+01 4.945295e+01
  vertex 1.134196e+02 8.103441e+01 4.751961e+01
 endloop
endfacet
facet normal 5.865611e-01 7.881291e-01 -1.865439e-01
 outer loop
  vertex 1.124201e+02 8.169631e+01 4.717337e+01
  vertex 1.127884e+02 8.196178e+01 4.945295e+01
  vertex 1.134196e+02 8.103441e+01 4.751961e+01
 endloop
endfacet
facet normal 8.711401e-01 -4.821524e-01 -9.297353e-02
 outer loop
  vertex 1.127884e+02 8.196178e+01 4.945295e+01
  vertex 1.122348e+02 8.076272e+01 5.048422e+01
  vertex 1.120129e+02 8.068163e+01 4.882534e+01
 endloop
endfacet
facet normal 1.677747e-02 -9.860775e-01 1.654380e-01
 outer loop
  vertex 7.727371e+01 7.905147e+01 5.245645e+01
  vertex 7.512063e+01 7.893110e+01 5.195734e+01
  vertex 7.678131e+01 7.883851e+01 5.123709e+01
 endloop
endfacet
facet normal -9.821104e-02 9.772500e-01 1.879812e-01
 outer loop
  vertex 7.727371e+01 7.905147e+01 5.245645e+01
  vertex 7.512063e+01 7.893110e+01 5.195734e+01
  vertex 7.437411e+01 7.846539e+01 5.398839e+01
 endloop
endfacet
facet normal -4.424633e-01 -8.359517e-01 3.246705e-01
 outer loop
  vertex 7.727371e+01 7.905147e+01 5.245645e+01
  vertex 7.678131e+01 7.883851e+01 5.123709e+01
  vertex 7.837662e+01 7.794667e+01 5.111488e+01
 endloop
endfacet
facet normal 4.490582e-01 8.348641e-01 -3.183531e-01
 outer loop
  vertex 7.727371e+01 7.905147e+01 5.245645e+01
  vertex 7.949019e+01 7.807102e+01 5.301174e+01
  vertex 7.837662e+01 7.794667e+01 5.111488e+01
 endloop
endfacet
facet normal 2.184790e-01 -9.628933e-01 -1.584407e-01
 outer loop
  vertex 1.157138e+02 8.203127e+01 5.040947e+01
  vertex 1.139327e+02 8.154012e+01 5.093825e+01
  vertex 1.143824e+02 8.199950e+01 4.876662e+01
 endloop
endfacet
facet normal -1.636915e-02 -7.045100e-01 -7.095052e-01
 outer loop
  vertex 1.139327e+02 8.154012e+01 5.093825e+01
  vertex 1.157138e+02 8.203127e+01 5.040947e+01
  vertex 1.156350e+02 8.035322e+01 5.207752e+01
 endloop
endfacet
facet normal 2.776009e-02 -9.996096e-01 -3.166545e-03
 outer loop
  vertex 1.157138e+02 8.203127e+01 5.040947e+01
  vertex 1.143824e+02 8.199950e+01 4.876662e+01
  vertex 1.161520e+02 8.204905e+01 4.863897e+01
 endloop
endfacet
facet normal -7.583419e-02 -9.967052e-01 -2.877430e-02
 outer loop
  vertex 1.157138e+02 8.203127e+01 5.040947e+01
  vertex 1.161520e+02 8.204905e+01 4.863897e+01
  vertex 1.177941e+02 8.190158e+01 4.941909e+01
 endloop
endfacet
facet normal -3.099047e-01 -7.760063e-01 -5.493389e-01
 outer loop
  vertex 1.157138e+02 8.203127e+01 5.040947e+01
  vertex 1.177941e+02 8.190158e+01 4.941909e+01
  vertex 1.185560e+02 8.044853e+01 5.104187e+01
 endloop
endfacet
facet normal 2.246463e-01 6.816423e-01 6.963460e-01
 outer loop
  vertex 1.157138e+02 8.203127e+01 5.040947e+01
  vertex 1.156350e+02 8.035322e+01 5.207752e+01
  vertex 1.185560e+02 8.044853e+01 5.104187e+01
 endloop
endfacet
facet normal 4.471181e-01 -5.776740e-01 -6.829189e-01
 outer loop
  vertex 1.122348e+02 8.076272e+01 5.048422e+01
  vertex 1.139327e+02 8.154012e+01 5.093825e+01
  vertex 1.138118e+02 7.910132e+01 5.292207e+01
 endloop
endfacet
facet normal 7.615177e-02 -6.314679e-01 -7.716536e-01
 outer loop
  vertex 1.139327e+02 8.154012e+01 5.093825e+01
  vertex 1.156350e+02 8.035322e+01 5.207752e+01
  vertex 1.138118e+02 7.910132e+01 5.292207e+01
 endloop
endfacet
facet normal 1.701782e-02 -9.888544e-01 -1.479098e-01
 outer loop
  vertex 1.143824e+02 8.199950e+01 4.876662e+01
  vertex 1.147355e+02 8.225687e+01 4.708658e+01
  vertex 1.161520e+02 8.204905e+01 4.863897e+01
 endloop
endfacet
facet normal -6.860262e-01 7.268362e-01 -3.282074e-02
 outer loop
  vertex 1.143824e+02 8.199950e+01 4.876662e+01
  vertex 1.147355e+02 8.225687e+01 4.708658e+01
  vertex 1.134196e+02 8.103441e+01 4.751961e+01
 endloop
endfacet
facet normal -1.751462e-01 8.409767e-01 -5.119394e-01
 outer loop
  vertex 7.512063e+01 7.893110e+01 5.195734e+01
  vertex 7.678131e+01 7.883851e+01 5.123709e+01
  vertex 7.532199e+01 7.781567e+01 5.005611e+01
 endloop
endfacet
facet normal 6.867885e-01 -7.216362e-01 8.696410e-02
 outer loop
  vertex 7.512063e+01 7.893110e+01 5.195734e+01
  vertex 7.437411e+01 7.846539e+01 5.398839e+01
  vertex 7.298701e+01 7.696370e+01 5.248167e+01
 endloop
endfacet
facet normal -2.015477e-01 8.353517e-01 -5.114353e-01
 outer loop
  vertex 7.512063e+01 7.893110e+01 5.195734e+01
  vertex 7.532199e+01 7.781567e+01 5.005611e+01
  vertex 7.414200e+01 7.777555e+01 5.045559e+01
 endloop
endfacet
facet normal -8.828390e-01 3.673652e-01 2.926399e-01
 outer loop
  vertex 7.512063e+01 7.893110e+01 5.195734e+01
  vertex 7.414200e+01 7.777555e+01 5.045559e+01
  vertex 7.406794e+01 7.689631e+01 5.133594e+01
 endloop
endfacet
facet normal 6.135843e-01 -5.032572e-01 6.084788e-01
 outer loop
  vertex 7.512063e+01 7.893110e+01 5.195734e+01
  vertex 7.298701e+01 7.696370e+01 5.248167e+01
  vertex 7.406794e+01 7.689631e+01 5.133594e+01
 endloop
endfacet
facet normal -4.120539e-02 9.846819e-01 1.694216e-01
 outer loop
  vertex 1.147355e+02 8.225687e+01 4.708658e+01
  vertex 1.161520e+02 8.204905e+01 4.863897e+01
  vertex 1.164275e+02 8.234417e+01 4.699073e+01
 endloop
endfacet
facet normal -6.314027e-02 1.386362e-01 -9.883285e-01
 outer loop
  vertex 1.147355e+02 8.225687e+01 4.708658e+01
  vertex 1.164275e+02 8.234417e+01 4.699073e+01
  vertex 1.156152e+02 8.116434e+01 4.687713e+01
 endloop
endfacet
facet normal -6.263621e-01 4.483533e-01 -6.376911e-01
 outer loop
  vertex 1.134196e+02 8.103441e+01 4.751961e+01
  vertex 1.147355e+02 8.225687e+01 4.708658e+01
  vertex 1.146279e+02 8.060173e+01 4.602854e+01
 endloop
endfacet
facet normal 4.026038e-01 4.743036e-01 -7.829089e-01
 outer loop
  vertex 1.147355e+02 8.225687e+01 4.708658e+01
  vertex 1.156152e+02 8.116434e+01 4.687713e+01
  vertex 1.146279e+02 8.060173e+01 4.602854e+01
 endloop
endfacet
facet normal -4.683371e-01 -7.572863e-01 4.551679e-01
 outer loop
  vertex 7.678131e+01 7.883851e+01 5.123709e+01
  vertex 7.642537e+01 7.834609e+01 5.005157e+01
  vertex 7.749143e+01 7.796859e+01 5.052042e+01
 endloop
endfacet
facet normal 4.217100e-01 -8.752290e-01 2.369279e-01
 outer loop
  vertex 7.642537e+01 7.834609e+01 5.005157e+01
  vertex 7.678131e+01 7.883851e+01 5.123709e+01
  vertex 7.532199e+01 7.781567e+01 5.005611e+01
 endloop
endfacet
facet normal -3.796955e-01 -7.528566e-01 5.376227e-01
 outer loop
  vertex 7.678131e+01 7.883851e+01 5.123709e+01
  vertex 7.749143e+01 7.796859e+01 5.052042e+01
  vertex 7.837662e+01 7.794667e+01 5.111488e+01
 endloop
endfacet
facet normal -7.355961e-01 6.428825e-01 2.135427e-01
 outer loop
  vertex 1.120129e+02 8.068163e+01 4.882534e+01
  vertex 1.124201e+02 8.169631e+01 4.717337e+01
  vertex 1.116139e+02 8.074729e+01 4.725350e+01
 endloop
endfacet
facet normal 1.778043e-01 -2.317886e-01 -9.563784e-01
 outer loop
  vertex 1.124201e+02 8.169631e+01 4.717337e+01
  vertex 1.134196e+02 8.103441e+01 4.751961e+01
  vertex 1.116139e+02 8.074729e+01 4.725350e+01
 endloop
endfacet
facet normal -9.009184e-01 4.136980e-01 1.311489e-01
 outer loop
  vertex 7.446946e+01 7.785152e+01 5.657982e+01
  vertex 7.437411e+01 7.846539e+01 5.398839e+01
  vertex 7.370959e+01 7.631760e+01 5.619848e+01
 endloop
endfacet
facet normal -8.230288e-01 5.106268e-01 2.487646e-01
 outer loop
  vertex 7.437411e+01 7.846539e+01 5.398839e+01
  vertex 7.298701e+01 7.696370e+01 5.248167e+01
  vertex 7.370959e+01 7.631760e+01 5.619848e+01
 endloop
endfacet
facet normal -4.937560e-01 -8.379258e-01 -2.325624e-01
 outer loop
  vertex 1.161520e+02 8.204905e+01 4.863897e+01
  vertex 1.164275e+02 8.234417e+01 4.699073e+01
  vertex 1.171995e+02 8.164570e+01 4.786827e+01
 endloop
endfacet
facet normal 1.959167e-01 9.527045e-01 -2.323160e-01
 outer loop
  vertex 1.161520e+02 8.204905e+01 4.863897e+01
  vertex 1.177941e+02 8.190158e+01 4.941909e+01
  vertex 1.171995e+02 8.164570e+01 4.786827e+01
 endloop
endfacet
facet normal -8.150981e-01 -2.364259e-01 5.288837e-01
 outer loop
  vertex 1.171995e+02 8.164570e+01 4.786827e+01
  vertex 1.164275e+02 8.234417e+01 4.699073e+01
  vertex 1.166705e+02 8.131029e+01 4.690320e+01
 endloop
endfacet
facet normal -1.254367e-02 -8.728229e-02 9.961046e-01
 outer loop
  vertex 1.164275e+02 8.234417e+01 4.699073e+01
  vertex 1.156152e+02 8.116434e+01 4.687713e+01
  vertex 1.166705e+02 8.131029e+01 4.690320e+01
 endloop
endfacet
facet normal -1.168931e-01 2.891955e-01 9.501063e-01
 outer loop
  vertex 7.446946e+01 7.785152e+01 5.657982e+01
  vertex 7.501403e+01 7.645699e+01 5.707128e+01
  vertex 7.616344e+01 7.751931e+01 5.688935e+01
 endloop
endfacet
facet normal -5.599665e-01 7.221200e-02 8.253623e-01
 outer loop
  vertex 7.446946e+01 7.785152e+01 5.657982e+01
  vertex 7.370959e+01 7.631760e+01 5.619848e+01
  vertex 7.501403e+01 7.645699e+01 5.707128e+01
 endloop
endfacet
facet normal -7.981129e-01 5.974942e-01 7.756556e-02
 outer loop
  vertex 1.122348e+02 8.076272e+01 5.048422e+01
  vertex 1.120129e+02 8.068163e+01 4.882534e+01
  vertex 1.112668e+02 7.955236e+01 4.984728e+01
 endloop
endfacet
facet normal -7.650172e-01 3.167692e-01 5.607192e-01
 outer loop
  vertex 1.122348e+02 8.076272e+01 5.048422e+01
  vertex 1.112668e+02 7.955236e+01 4.984728e+01
  vertex 1.120694e+02 7.815105e+01 5.173401e+01
 endloop
endfacet
facet normal 6.516719e-01 -3.605972e-01 -6.673031e-01
 outer loop
  vertex 1.122348e+02 8.076272e+01 5.048422e+01
  vertex 1.138118e+02 7.910132e+01 5.292207e+01
  vertex 1.120694e+02 7.815105e+01 5.173401e+01
 endloop
endfacet
facet normal -3.009551e-01 -9.236604e-01 2.372289e-01
 outer loop
  vertex 7.949019e+01 7.807102e+01 5.301174e+01
  vertex 7.837662e+01 7.794667e+01 5.111488e+01
  vertex 7.996996e+01 7.753055e+01 5.151606e+01
 endloop
endfacet
facet normal -9.726462e-01 -1.866203e-01 -1.383196e-01
 outer loop
  vertex 7.949019e+01 7.807102e+01 5.301174e+01
  vertex 7.992124e+01 7.488675e+01 5.427681e+01
  vertex 7.932593e+01 7.720415e+01 5.533639e+01
 endloop
endfacet
facet normal -9.554924e-01 -3.887616e-02 -2.924431e-01
 outer loop
  vertex 7.949019e+01 7.807102e+01 5.301174e+01
  vertex 7.996996e+01 7.753055e+01 5.151606e+01
  vertex 7.992847e+01 7.590752e+01 5.186736e+01
 endloop
endfacet
facet normal 9.842660e-01 1.616152e-01 7.142048e-02
 outer loop
  vertex 7.949019e+01 7.807102e+01 5.301174e+01
  vertex 7.992124e+01 7.488675e+01 5.427681e+01
  vertex 7.992847e+01 7.590752e+01 5.186736e+01
 endloop
endfacet
facet normal 7.077108e-01 6.014934e-01 -3.706091e-01
 outer loop
  vertex 1.177941e+02 8.190158e+01 4.941909e+01
  vertex 1.182193e+02 8.037031e+01 4.774587e+01
  vertex 1.171995e+02 8.164570e+01 4.786827e+01
 endloop
endfacet
facet normal 7.364057e-01 6.378823e-01 2.254171e-01
 outer loop
  vertex 1.177941e+02 8.190158e+01 4.941909e+01
  vertex 1.185560e+02 8.044853e+01 5.104187e+01
  vertex 1.189628e+02 8.058354e+01 4.933099e+01
 endloop
endfacet
facet normal 6.725969e-01 6.230565e-01 -3.992669e-01
 outer loop
  vertex 1.177941e+02 8.190158e+01 4.941909e+01
  vertex 1.189628e+02 8.058354e+01 4.933099e+01
  vertex 1.182193e+02 8.037031e+01 4.774587e+01
 endloop
endfacet
facet normal 3.871535e-01 6.467221e-01 6.571626e-01
 outer loop
  vertex 7.932593e+01 7.720415e+01 5.533639e+01
  vertex 7.616344e+01 7.751931e+01 5.688935e+01
  vertex 7.860032e+01 7.594924e+01 5.699884e+01
 endloop
endfacet
facet normal 2.022420e-01 -3.738463e-01 -9.051724e-01
 outer loop
  vertex 7.501403e+01 7.645699e+01 5.707128e+01
  vertex 7.616344e+01 7.751931e+01 5.688935e+01
  vertex 7.705528e+01 7.547419e+01 5.793327e+01
 endloop
endfacet
facet normal -3.100752e-01 -5.360188e-01 -7.851988e-01
 outer loop
  vertex 7.616344e+01 7.751931e+01 5.688935e+01
  vertex 7.860032e+01 7.594924e+01 5.699884e+01
  vertex 7.705528e+01 7.547419e+01 5.793327e+01
 endloop
endfacet
facet normal -8.877235e-01 3.918487e-01 2.416642e-01
 outer loop
  vertex 1.120129e+02 8.068163e+01 4.882534e+01
  vertex 1.116139e+02 8.074729e+01 4.725350e+01
  vertex 1.112658e+02 7.944104e+01 4.809259e+01
 endloop
endfacet
facet normal 8.474200e-01 -5.298878e-01 3.313860e-02
 outer loop
  vertex 1.120129e+02 8.068163e+01 4.882534e+01
  vertex 1.112668e+02 7.955236e+01 4.984728e+01
  vertex 1.112658e+02 7.944104e+01 4.809259e+01
 endloop
endfacet
facet normal 4.792953e-01 3.586851e-01 -8.010125e-01
 outer loop
  vertex 7.642537e+01 7.834609e+01 5.005157e+01
  vertex 7.749143e+01 7.796859e+01 5.052042e+01
  vertex 7.761131e+01 7.677197e+01 5.005632e+01
 endloop
endfacet
facet normal 1.961332e-02 -3.224262e-02 9.992876e-01
 outer loop
  vertex 7.642537e+01 7.834609e+01 5.005157e+01
  vertex 7.532199e+01 7.781567e+01 5.005611e+01
  vertex 7.596339e+01 7.616687e+01 4.999032e+01
 endloop
endfacet
facet normal 3.221407e-02 2.125465e-02 -9.992550e-01
 outer loop
  vertex 7.642537e+01 7.834609e+01 5.005157e+01
  vertex 7.761131e+01 7.677197e+01 5.005632e+01
  vertex 7.596339e+01 7.616687e+01 4.999032e+01
 endloop
endfacet
facet normal 1.054509e-01 -9.463223e-01 3.055392e-01
 outer loop
  vertex 1.134196e+02 8.103441e+01 4.751961e+01
  vertex 1.116139e+02 8.074729e+01 4.725350e+01
  vertex 1.131405e+02 8.055605e+01 4.613434e+01
 endloop
endfacet
facet normal 5.161110e-02 -9.471319e-01 3.166660e-01
 outer loop
  vertex 1.134196e+02 8.103441e+01 4.751961e+01
  vertex 1.131405e+02 8.055605e+01 4.613434e+01
  vertex 1.146279e+02 8.060173e+01 4.602854e+01
 endloop
endfacet
facet normal 5.900068e-01 2.818675e-01 7.565994e-01
 outer loop
  vertex 1.116139e+02 8.074729e+01 4.725350e+01
  vertex 1.124714e+02 7.948461e+01 4.705523e+01
  vertex 1.131405e+02 8.055605e+01 4.613434e+01
 endloop
endfacet
facet normal -6.151365e-01 -3.034749e-01 -7.276744e-01
 outer loop
  vertex 1.116139e+02 8.074729e+01 4.725350e+01
  vertex 1.124714e+02 7.948461e+01 4.705523e+01
  vertex 1.112658e+02 7.944104e+01 4.809259e+01
 endloop
endfacet
facet normal -6.334817e-01 -5.543256e-01 5.398371e-01
 outer loop
  vertex 1.171995e+02 8.164570e+01 4.786827e+01
  vertex 1.166705e+02 8.131029e+01 4.690320e+01
  vertex 1.174267e+02 8.027390e+01 4.672630e+01
 endloop
endfacet
facet normal 6.300052e-01 5.558375e-01 -5.423451e-01
 outer loop
  vertex 1.171995e+02 8.164570e+01 4.786827e+01
  vertex 1.182193e+02 8.037031e+01 4.774587e+01
  vertex 1.174267e+02 8.027390e+01 4.672630e+01
 endloop
endfacet
facet normal -1.722751e-01 -9.599098e-01 2.211210e-01
 outer loop
  vertex 7.837662e+01 7.794667e+01 5.111488e+01
  vertex 7.749143e+01 7.796859e+01 5.052042e+01
  vertex 7.835524e+01 7.768513e+01 4.996285e+01
 endloop
endfacet
facet normal 3.267337e-01 8.472062e-01 -4.189114e-01
 outer loop
  vertex 7.837662e+01 7.794667e+01 5.111488e+01
  vertex 7.996996e+01 7.753055e+01 5.151606e+01
  vertex 7.934620e+01 7.704817e+01 5.005401e+01
 endloop
endfacet
facet normal -5.429302e-01 -8.167078e-01 1.954873e-01
 outer loop
  vertex 7.837662e+01 7.794667e+01 5.111488e+01
  vertex 7.835524e+01 7.768513e+01 4.996285e+01
  vertex 7.934620e+01 7.704817e+01 5.005401e+01
 endloop
endfacet
facet normal 7.877707e-01 2.748021e-01 5.512723e-01
 outer loop
  vertex 7.932593e+01 7.720415e+01 5.533639e+01
  vertex 7.860032e+01 7.594924e+01 5.699884e+01
  vertex 7.972811e+01 7.497850e+01 5.587112e+01
 endloop
endfacet
facet normal 9.736962e-01 2.015042e-01 1.063571e-01
 outer loop
  vertex 7.932593e+01 7.720415e+01 5.533639e+01
  vertex 7.972811e+01 7.497850e+01 5.587112e+01
  vertex 7.992124e+01 7.488675e+01 5.427681e+01
 endloop
endfacet
facet normal 4.530487e-01 -2.825456e-01 8.455264e-01
 outer loop
  vertex 7.749143e+01 7.796859e+01 5.052042e+01
  vertex 7.761131e+01 7.677197e+01 5.005632e+01
  vertex 7.835524e+01 7.768513e+01 4.996285e+01
 endloop
endfacet
facet normal -2.797898e-01 -4.772045e-01 -8.330628e-01
 outer loop
  vertex 1.156350e+02 8.035322e+01 5.207752e+01
  vertex 1.185560e+02 8.044853e+01 5.104187e+01
  vertex 1.169235e+02 7.832301e+01 5.280773e+01
 endloop
endfacet
facet normal 1.358095e-01 4.105076e-01 9.016869e-01
 outer loop
  vertex 1.156350e+02 8.035322e+01 5.207752e+01
  vertex 1.138118e+02 7.910132e+01 5.292207e+01
  vertex 1.169235e+02 7.832301e+01 5.280773e+01
 endloop
endfacet
facet normal 9.266969e-01 -1.019785e-01 -3.617087e-01
 outer loop
  vertex 7.996996e+01 7.753055e+01 5.151606e+01
  vertex 7.992847e+01 7.590752e+01 5.186736e+01
  vertex 7.934620e+01 7.704817e+01 5.005401e+01
 endloop
endfacet
facet normal -1.175876e-01 9.179494e-01 -3.788693e-01
 outer loop
  vertex 1.156152e+02 8.116434e+01 4.687713e+01
  vertex 1.166705e+02 8.131029e+01 4.690320e+01
  vertex 1.166285e+02 8.089944e+01 4.592081e+01
 endloop
endfacet
facet normal 1.557563e-01 -8.970696e-01 4.135289e-01
 outer loop
  vertex 1.156152e+02 8.116434e+01 4.687713e+01
  vertex 1.146279e+02 8.060173e+01 4.602854e+01
  vertex 1.166285e+02 8.089944e+01 4.592081e+01
 endloop
endfacet
facet normal 7.516404e-01 5.964486e-01 -2.815772e-01
 outer loop
  vertex 1.166705e+02 8.131029e+01 4.690320e+01
  vertex 1.174267e+02 8.027390e+01 4.672630e+01
  vertex 1.166285e+02 8.089944e+01 4.592081e+01
 endloop
endfacet
facet normal -1.707498e-02 1.155660e-01 9.931530e-01
 outer loop
  vertex 7.835524e+01 7.768513e+01 4.996285e+01
  vertex 7.761131e+01 7.677197e+01 5.005632e+01
  vertex 7.934620e+01 7.704817e+01 5.005401e+01
 endloop
endfacet
facet normal -3.165148e-01 2.776729e-01 -9.070370e-01
 outer loop
  vertex 7.414200e+01 7.777555e+01 5.045559e+01
  vertex 7.532199e+01 7.781567e+01 5.005611e+01
  vertex 7.466006e+01 7.664058e+01 4.992736e+01
 endloop
endfacet
facet normal -7.278912e-02 -6.801826e-02 9.950253e-01
 outer loop
  vertex 7.532199e+01 7.781567e+01 5.005611e+01
  vertex 7.466006e+01 7.664058e+01 4.992736e+01
  vertex 7.596339e+01 7.616687e+01 4.999032e+01
 endloop
endfacet
facet normal 7.371480e-01 -5.081091e-01 -4.454638e-01
 outer loop
  vertex 7.414200e+01 7.777555e+01 5.045559e+01
  vertex 7.406794e+01 7.689631e+01 5.133594e+01
  vertex 7.330516e+01 7.699618e+01 4.995977e+01
 endloop
endfacet
facet normal -9.867667e-02 -4.565607e-01 8.842032e-01
 outer loop
  vertex 7.414200e+01 7.777555e+01 5.045559e+01
  vertex 7.330516e+01 7.699618e+01 4.995977e+01
  vertex 7.466006e+01 7.664058e+01 4.992736e+01
 endloop
endfacet
facet normal 9.710253e-01 -2.385314e-01 1.458305e-02
 outer loop
  vertex 1.112668e+02 7.955236e+01 4.984728e+01
  vertex 1.109230e+02 7.810484e+01 4.905844e+01
  vertex 1.112658e+02 7.944104e+01 4.809259e+01
 endloop
endfacet
facet normal 9.191983e-01 -3.686038e-03 -3.937777e-01
 outer loop
  vertex 1.112668e+02 7.955236e+01 4.984728e+01
  vertex 1.120694e+02 7.815105e+01 5.173401e+01
  vertex 1.109230e+02 7.810484e+01 4.905844e+01
 endloop
endfacet
facet normal 7.522909e-02 -1.763875e-01 9.814418e-01
 outer loop
  vertex 1.131405e+02 8.055605e+01 4.613434e+01
  vertex 1.133605e+02 7.910679e+01 4.585701e+01
  vertex 1.146279e+02 8.060173e+01 4.602854e+01
 endloop
endfacet
facet normal -7.118370e-01 6.572703e-01 2.475559e-01
 outer loop
  vertex 1.131405e+02 8.055605e+01 4.613434e+01
  vertex 1.123453e+02 7.971926e+01 4.606965e+01
  vertex 1.124714e+02 7.948461e+01 4.705523e+01
 endloop
endfacet
facet normal -1.013981e-01 1.721090e-01 -9.798453e-01
 outer loop
  vertex 1.123453e+02 7.971926e+01 4.606965e+01
  vertex 1.131405e+02 8.055605e+01 4.613434e+01
  vertex 1.133605e+02 7.910679e+01 4.585701e+01
 endloop
endfacet
facet normal 5.442041e-01 1.127409e-01 -8.313431e-01
 outer loop
  vertex 7.370959e+01 7.631760e+01 5.619848e+01
  vertex 7.501403e+01 7.645699e+01 5.707128e+01
  vertex 7.528113e+01 7.409404e+01 5.692568e+01
 endloop
endfacet
facet normal 4.289073e-01 1.037765e-01 -8.973678e-01
 outer loop
  vertex 7.501403e+01 7.645699e+01 5.707128e+01
  vertex 7.705528e+01 7.547419e+01 5.793327e+01
  vertex 7.528113e+01 7.409404e+01 5.692568e+01
 endloop
endfacet
facet normal 9.727485e-01 -4.265967e-02 2.279047e-01
 outer loop
  vertex 1.189628e+02 8.058354e+01 4.933099e+01
  vertex 1.185560e+02 8.044853e+01 5.104187e+01
  vertex 1.190476e+02 7.853580e+01 4.858541e+01
 endloop
endfacet
facet normal -4.154740e-01 -3.709023e-01 -8.305497e-01
 outer loop
  vertex 1.185560e+02 8.044853e+01 5.104187e+01
  vertex 1.185783e+02 7.866178e+01 5.182862e+01
  vertex 1.169235e+02 7.832301e+01 5.280773e+01
 endloop
endfacet
facet normal -9.873824e-01 -7.398379e-02 -1.400085e-01
 outer loop
  vertex 1.185560e+02 8.044853e+01 5.104187e+01
  vertex 1.190476e+02 7.853580e+01 4.858541e+01
  vertex 1.185783e+02 7.866178e+01 5.182862e+01
 endloop
endfacet
facet normal 7.118348e-02 -1.200370e-01 9.902141e-01
 outer loop
  vertex 1.146279e+02 8.060173e+01 4.602854e+01
  vertex 1.157715e+02 7.918490e+01 4.577457e+01
  vertex 1.166285e+02 8.089944e+01 4.592081e+01
 endloop
endfacet
facet normal -5.881642e-01 5.650281e-01 -5.786244e-01
 outer loop
  vertex 1.146279e+02 8.060173e+01 4.602854e+01
  vertex 1.145285e+02 7.950296e+01 4.505662e+01
  vertex 1.133605e+02 7.910679e+01 4.585701e+01
 endloop
endfacet
facet normal 5.204573e-01 5.388470e-01 -6.623957e-01
 outer loop
  vertex 1.145285e+02 7.950296e+01 4.505662e+01
  vertex 1.146279e+02 8.060173e+01 4.602854e+01
  vertex 1.157715e+02 7.918490e+01 4.577457e+01
 endloop
endfacet
facet normal -5.633591e-01 -5.448690e-06 8.262122e-01
 outer loop
  vertex 1.138118e+02 7.910132e+01 5.292207e+01
  vertex 1.120694e+02 7.815105e+01 5.173401e+01
  vertex 1.124602e+02 7.588684e+01 5.200045e+01
 endloop
endfacet
facet normal 4.655080e-02 3.948169e-02 9.981354e-01
 outer loop
  vertex 1.169235e+02 7.832301e+01 5.280773e+01
  vertex 1.138118e+02 7.910132e+01 5.292207e+01
  vertex 1.142343e+02 7.482176e+01 5.307164e+01
 endloop
endfacet
facet normal -5.265137e-01 -2.228215e-02 8.498746e-01
 outer loop
  vertex 1.138118e+02 7.910132e+01 5.292207e+01
  vertex 1.124602e+02 7.588684e+01 5.200045e+01
  vertex 1.142343e+02 7.482176e+01 5.307164e+01
 endloop
endfacet
facet normal -5.950102e-01 2.317781e-01 7.695724e-01
 outer loop
  vertex 1.166285e+02 8.089944e+01 4.592081e+01
  vertex 1.157715e+02 7.918490e+01 4.577457e+01
  vertex 1.174267e+02 8.027390e+01 4.672630e+01
 endloop
endfacet
facet normal 6.007267e-01 -4.194871e-01 6.805571e-01
 outer loop
  vertex 1.124714e+02 7.948461e+01 4.705523e+01
  vertex 1.112658e+02 7.944104e+01 4.809259e+01
  vertex 1.110824e+02 7.802841e+01 4.738377e+01
 endloop
endfacet
facet normal 9.788280e-01 -1.778909e-01 1.012452e-01
 outer loop
  vertex 1.112658e+02 7.944104e+01 4.809259e+01
  vertex 1.109230e+02 7.810484e+01 4.905844e+01
  vertex 1.110824e+02 7.802841e+01 4.738377e+01
 endloop
endfacet
facet normal 2.078264e-02 -1.388290e-01 -9.900983e-01
 outer loop
  vertex 7.761131e+01 7.677197e+01 5.005632e+01
  vertex 7.934620e+01 7.704817e+01 5.005401e+01
  vertex 7.899329e+01 7.452907e+01 5.039982e+01
 endloop
endfacet
facet normal 8.975744e-01 -1.809349e-01 -4.020233e-01
 outer loop
  vertex 7.934620e+01 7.704817e+01 5.005401e+01
  vertex 7.992847e+01 7.590752e+01 5.186736e+01
  vertex 7.899329e+01 7.452907e+01 5.039982e+01
 endloop
endfacet
facet normal -9.691197e-01 1.281465e-01 2.106786e-01
 outer loop
  vertex 7.298701e+01 7.696370e+01 5.248167e+01
  vertex 7.301474e+01 7.485276e+01 5.389322e+01
  vertex 7.370959e+01 7.631760e+01 5.619848e+01
 endloop
endfacet
facet normal 6.919015e-01 -2.720701e-01 6.687677e-01
 outer loop
  vertex 7.406794e+01 7.689631e+01 5.133594e+01
  vertex 7.298701e+01 7.696370e+01 5.248167e+01
  vertex 7.307104e+01 7.464418e+01 5.145110e+01
 endloop
endfacet
facet normal 9.994206e-01 2.699310e-02 2.073412e-02
 outer loop
  vertex 7.298701e+01 7.696370e+01 5.248167e+01
  vertex 7.301474e+01 7.485276e+01 5.389322e+01
  vertex 7.307104e+01 7.464418e+01 5.145110e+01
 endloop
endfacet
facet normal 5.262433e-01 -4.084677e-02 8.493524e-01
 outer loop
  vertex 7.860032e+01 7.594924e+01 5.699884e+01
  vertex 7.705528e+01 7.547419e+01 5.793327e+01
  vertex 7.876216e+01 7.409884e+01 5.680958e+01
 endloop
endfacet
facet normal 7.021066e-01 -1.141539e-02 7.119804e-01
 outer loop
  vertex 7.972811e+01 7.497850e+01 5.587112e+01
  vertex 7.860032e+01 7.594924e+01 5.699884e+01
  vertex 7.876216e+01 7.409884e+01 5.680958e+01
 endloop
endfacet
facet normal 9.691256e-01 -1.350476e-01 -2.062952e-01
 outer loop
  vertex 7.301474e+01 7.485276e+01 5.389322e+01
  vertex 7.370959e+01 7.631760e+01 5.619848e+01
  vertex 7.322382e+01 7.339435e+01 5.583013e+01
 endloop
endfacet
facet normal 4.603626e-01 3.527259e-02 -8.870299e-01
 outer loop
  vertex 7.370959e+01 7.631760e+01 5.619848e+01
  vertex 7.528113e+01 7.409404e+01 5.692568e+01
  vertex 7.322382e+01 7.339435e+01 5.583013e+01
 endloop
endfacet
facet normal 8.774568e-01 1.958000e-01 -4.378721e-01
 outer loop
  vertex 1.189628e+02 8.058354e+01 4.933099e+01
  vertex 1.190476e+02 7.853580e+01 4.858541e+01
  vertex 1.182193e+02 8.037031e+01 4.774587e+01
 endloop
endfacet
facet normal 2.516877e-01 9.653134e-01 -6.944970e-02
 outer loop
  vertex 7.406794e+01 7.689631e+01 5.133594e+01
  vertex 7.466006e+01 7.664058e+01 4.992736e+01
  vertex 7.330516e+01 7.699618e+01 4.995977e+01
 endloop
endfacet
facet normal 8.507802e-01 -3.211853e-01 4.159484e-01
 outer loop
  vertex 7.466006e+01 7.664058e+01 4.992736e+01
  vertex 7.406794e+01 7.689631e+01 5.133594e+01
  vertex 7.400001e+01 7.558542e+01 5.046265e+01
 endloop
endfacet
facet normal 8.250939e-01 -3.422376e-01 4.495482e-01
 outer loop
  vertex 7.400001e+01 7.558542e+01 5.046265e+01
  vertex 7.406794e+01 7.689631e+01 5.133594e+01
  vertex 7.307104e+01 7.464418e+01 5.145110e+01
 endloop
endfacet
facet normal -9.914650e-01 1.233124e-02 1.297889e-01
 outer loop
  vertex 1.124714e+02 7.948461e+01 4.705523e+01
  vertex 1.123453e+02 7.971926e+01 4.606965e+01
  vertex 1.123528e+02 7.870992e+01 4.622301e+01
 endloop
endfacet
facet normal -2.864240e-01 -1.460084e-01 -9.469122e-01
 outer loop
  vertex 1.123453e+02 7.971926e+01 4.606965e+01
  vertex 1.133605e+02 7.910679e+01 4.585701e+01
  vertex 1.123528e+02 7.870992e+01 4.622301e+01
 endloop
endfacet
facet normal -2.826551e-02 -3.198993e-02 9.990884e-01
 outer loop
  vertex 7.761131e+01 7.677197e+01 5.005632e+01
  vertex 7.596339e+01 7.616687e+01 4.999032e+01
  vertex 7.616796e+01 7.440907e+01 4.993983e+01
 endloop
endfacet
facet normal 1.625874e-01 -5.073408e-02 -9.853889e-01
 outer loop
  vertex 7.761131e+01 7.677197e+01 5.005632e+01
  vertex 7.899329e+01 7.452907e+01 5.039982e+01
  vertex 7.616796e+01 7.440907e+01 4.993983e+01
 endloop
endfacet
facet normal -6.995218e-01 5.700377e-01 -4.309598e-01
 outer loop
  vertex 1.124714e+02 7.948461e+01 4.705523e+01
  vertex 1.123528e+02 7.870992e+01 4.622301e+01
  vertex 1.110824e+02 7.802841e+01 4.738377e+01
 endloop
endfacet
facet normal 6.338184e-01 5.491793e-01 -5.446800e-01
 outer loop
  vertex 1.174267e+02 8.027390e+01 4.672630e+01
  vertex 1.182193e+02 8.037031e+01 4.774587e+01
  vertex 1.188271e+02 7.874624e+01 4.681565e+01
 endloop
endfacet
facet normal 9.207005e-01 3.841135e-01 -6.904669e-02
 outer loop
  vertex 1.182193e+02 8.037031e+01 4.774587e+01
  vertex 1.190476e+02 7.853580e+01 4.858541e+01
  vertex 1.188271e+02 7.874624e+01 4.681565e+01
 endloop
endfacet
facet normal 2.720745e-02 -6.120008e-01 7.903890e-01
 outer loop
  vertex 7.705528e+01 7.547419e+01 5.793327e+01
  vertex 7.528113e+01 7.409404e+01 5.692568e+01
  vertex 7.876216e+01 7.409884e+01 5.680958e+01
 endloop
endfacet
facet normal -2.076789e-01 -4.454563e-01 8.708835e-01
 outer loop
  vertex 1.174267e+02 8.027390e+01 4.672630e+01
  vertex 1.157715e+02 7.918490e+01 4.577457e+01
  vertex 1.173331e+02 7.857351e+01 4.583424e+01
 endloop
endfacet
facet normal 4.741359e-01 3.884374e-01 -7.901339e-01
 outer loop
  vertex 1.174267e+02 8.027390e+01 4.672630e+01
  vertex 1.188271e+02 7.874624e+01 4.681565e+01
  vertex 1.173331e+02 7.857351e+01 4.583424e+01
 endloop
endfacet
facet normal -1.256083e-01 -2.169226e-01 9.680739e-01
 outer loop
  vertex 7.596339e+01 7.616687e+01 4.999032e+01
  vertex 7.466006e+01 7.664058e+01 4.992736e+01
  vertex 7.480086e+01 7.490409e+01 4.955652e+01
 endloop
endfacet
facet normal 7.111477e-01 -9.120791e-02 6.971012e-01
 outer loop
  vertex 7.466006e+01 7.664058e+01 4.992736e+01
  vertex 7.400001e+01 7.558542e+01 5.046265e+01
  vertex 7.480086e+01 7.490409e+01 4.955652e+01
 endloop
endfacet
facet normal 8.628835e-01 3.382169e-01 -3.755548e-01
 outer loop
  vertex 1.120694e+02 7.815105e+01 5.173401e+01
  vertex 1.118361e+02 7.673342e+01 4.992121e+01
  vertex 1.109230e+02 7.810484e+01 4.905844e+01
 endloop
endfacet
facet normal -9.626565e-01 -1.387907e-01 2.324428e-01
 outer loop
  vertex 1.120694e+02 7.815105e+01 5.173401e+01
  vertex 1.118361e+02 7.673342e+01 4.992121e+01
  vertex 1.124602e+02 7.588684e+01 5.200045e+01
 endloop
endfacet
facet normal -9.990005e-01 -4.000405e-02 -1.994371e-02
 outer loop
  vertex 7.992124e+01 7.488675e+01 5.427681e+01
  vertex 7.992847e+01 7.590752e+01 5.186736e+01
  vertex 8.001556e+01 7.369082e+01 5.195123e+01
 endloop
endfacet
facet normal -8.379924e-01 -1.228294e-02 5.455436e-01
 outer loop
  vertex 7.992847e+01 7.590752e+01 5.186736e+01
  vertex 7.899329e+01 7.452907e+01 5.039982e+01
  vertex 8.001556e+01 7.369082e+01 5.195123e+01
 endloop
endfacet
facet normal -2.899360e-01 -6.117929e-02 9.550886e-01
 outer loop
  vertex 7.596339e+01 7.616687e+01 4.999032e+01
  vertex 7.480086e+01 7.490409e+01 4.955652e+01
  vertex 7.616796e+01 7.440907e+01 4.993983e+01
 endloop
endfacet
facet normal 9.066917e-01 4.163967e-01 6.726079e-02
 outer loop
  vertex 1.110824e+02 7.802841e+01 4.738377e+01
  vertex 1.109230e+02 7.810484e+01 4.905844e+01
  vertex 1.120377e+02 7.589364e+01 4.772163e+01
 endloop
endfacet
facet normal -8.583001e-01 -5.006683e-01 1.124816e-01
 outer loop
  vertex 1.118361e+02 7.673342e+01 4.992121e+01
  vertex 1.109230e+02 7.810484e+01 4.905844e+01
  vertex 1.120377e+02 7.589364e+01 4.772163e+01
 endloop
endfacet
facet normal -5.784281e-01 6.206228e-02 -8.133691e-01
 outer loop
  vertex 1.133605e+02 7.910679e+01 4.585701e+01
  vertex 1.145285e+02 7.950296e+01 4.505662e+01
  vertex 1.144251e+02 7.783701e+01 4.500302e+01
 endloop
endfacet
facet normal 4.995430e-01 -3.123060e-03 -8.662835e-01
 outer loop
  vertex 1.145285e+02 7.950296e+01 4.505662e+01
  vertex 1.157715e+02 7.918490e+01 4.577457e+01
  vertex 1.144251e+02 7.783701e+01 4.500302e+01
 endloop
endfacet
facet normal 4.423265e-01 -8.444317e-01 3.021296e-01
 outer loop
  vertex 1.133605e+02 7.910679e+01 4.585701e+01
  vertex 1.123528e+02 7.870992e+01 4.622301e+01
  vertex 1.126728e+02 7.845502e+01 4.504218e+01
 endloop
endfacet
facet normal -2.181819e-01 -6.639620e-01 7.152281e-01
 outer loop
  vertex 1.133605e+02 7.910679e+01 4.585701e+01
  vertex 1.126728e+02 7.845502e+01 4.504218e+01
  vertex 1.144251e+02 7.783701e+01 4.500302e+01
 endloop
endfacet
facet normal 9.766651e-01 1.858596e-01 1.076170e-01
 outer loop
  vertex 7.992124e+01 7.488675e+01 5.427681e+01
  vertex 7.972811e+01 7.497850e+01 5.587112e+01
  vertex 8.005734e+01 7.343859e+01 5.554275e+01
 endloop
endfacet
facet normal 6.983712e-01 -3.315288e-03 7.157281e-01
 outer loop
  vertex 7.972811e+01 7.497850e+01 5.587112e+01
  vertex 7.876216e+01 7.409884e+01 5.680958e+01
  vertex 8.005734e+01 7.343859e+01 5.554275e+01
 endloop
endfacet
facet normal 4.775251e-01 -8.785916e-01 6.820949e-03
 outer loop
  vertex 1.123528e+02 7.870992e+01 4.622301e+01
  vertex 1.110824e+02 7.802841e+01 4.738377e+01
  vertex 1.112908e+02 7.813251e+01 4.619735e+01
 endloop
endfacet
facet normal -2.963130e-01 5.787564e-01 -7.597629e-01
 outer loop
  vertex 1.112908e+02 7.813251e+01 4.619735e+01
  vertex 1.123528e+02 7.870992e+01 4.622301e+01
  vertex 1.121650e+02 7.733156e+01 4.524629e+01
 endloop
endfacet
facet normal 8.852826e-01 -3.431048e-01 3.139329e-01
 outer loop
  vertex 1.123528e+02 7.870992e+01 4.622301e+01
  vertex 1.121650e+02 7.733156e+01 4.524629e+01
  vertex 1.126728e+02 7.845502e+01 4.504218e+01
 endloop
endfacet
facet normal 4.888010e-01 1.125665e-01 8.651025e-01
 outer loop
  vertex 1.185783e+02 7.866178e+01 5.182862e+01
  vertex 1.169235e+02 7.832301e+01 5.280773e+01
  vertex 1.179920e+02 7.638944e+01 5.245558e+01
 endloop
endfacet
facet normal 1.908656e-01 -7.280789e-02 9.789123e-01
 outer loop
  vertex 1.179920e+02 7.638944e+01 5.245558e+01
  vertex 1.169235e+02 7.832301e+01 5.280773e+01
  vertex 1.142343e+02 7.482176e+01 5.307164e+01
 endloop
endfacet
facet normal -9.800038e-01 -1.450782e-01 -1.361793e-01
 outer loop
  vertex 1.185783e+02 7.866178e+01 5.182862e+01
  vertex 1.190476e+02 7.853580e+01 4.858541e+01
  vertex 1.189661e+02 7.718879e+01 5.060718e+01
 endloop
endfacet
facet normal 8.984423e-01 -1.148940e-01 4.237934e-01
 outer loop
  vertex 1.185783e+02 7.866178e+01 5.182862e+01
  vertex 1.179920e+02 7.638944e+01 5.245558e+01
  vertex 1.189661e+02 7.718879e+01 5.060718e+01
 endloop
endfacet
facet normal 9.915610e-01 -1.892856e-02 -1.282514e-01
 outer loop
  vertex 7.992124e+01 7.488675e+01 5.427681e+01
  vertex 8.005734e+01 7.343859e+01 5.554275e+01
  vertex 7.985733e+01 7.207087e+01 5.419825e+01
 endloop
endfacet
facet normal -9.983081e-01 2.413537e-02 -5.289941e-02
 outer loop
  vertex 7.992124e+01 7.488675e+01 5.427681e+01
  vertex 8.001556e+01 7.369082e+01 5.195123e+01
  vertex 7.985733e+01 7.207087e+01 5.419825e+01
 endloop
endfacet
facet normal -3.606021e-01 -9.290816e-01 -8.230145e-02
 outer loop
  vertex 1.157715e+02 7.918490e+01 4.577457e+01
  vertex 1.167134e+02 7.895775e+01 4.421214e+01
  vertex 1.173331e+02 7.857351e+01 4.583424e+01
 endloop
endfacet
facet normal 8.564175e-01 -2.436281e-04 5.162838e-01
 outer loop
  vertex 1.167134e+02 7.895775e+01 4.421214e+01
  vertex 1.157715e+02 7.918490e+01 4.577457e+01
  vertex 1.162764e+02 7.762846e+01 4.493642e+01
 endloop
endfacet
facet normal 4.249439e-01 -7.304974e-01 5.345992e-01
 outer loop
  vertex 1.157715e+02 7.918490e+01 4.577457e+01
  vertex 1.144251e+02 7.783701e+01 4.500302e+01
  vertex 1.153360e+02 7.782687e+01 4.426512e+01
 endloop
endfacet
facet normal -5.649329e-01 -5.257170e-01 6.359815e-01
 outer loop
  vertex 1.157715e+02 7.918490e+01 4.577457e+01
  vertex 1.153360e+02 7.782687e+01 4.426512e+01
  vertex 1.162764e+02 7.762846e+01 4.493642e+01
 endloop
endfacet
facet normal 8.100971e-01 5.543152e-01 1.909904e-01
 outer loop
  vertex 1.110824e+02 7.802841e+01 4.738377e+01
  vertex 1.119149e+02 7.700453e+01 4.682413e+01
  vertex 1.112908e+02 7.813251e+01 4.619735e+01
 endloop
endfacet
facet normal 8.033384e-01 4.254503e-01 4.167006e-01
 outer loop
  vertex 1.110824e+02 7.802841e+01 4.738377e+01
  vertex 1.120377e+02 7.589364e+01 4.772163e+01
  vertex 1.119149e+02 7.700453e+01 4.682413e+01
 endloop
endfacet
facet normal -7.855177e-01 -5.693432e-01 -2.425083e-01
 outer loop
  vertex 1.112908e+02 7.813251e+01 4.619735e+01
  vertex 1.121650e+02 7.733156e+01 4.524629e+01
  vertex 1.119149e+02 7.700453e+01 4.682413e+01
 endloop
endfacet
facet normal 7.729875e-01 6.998999e-02 6.305488e-01
 outer loop
  vertex 7.480086e+01 7.490409e+01 4.955652e+01
  vertex 7.400001e+01 7.558542e+01 5.046265e+01
  vertex 7.463917e+01 7.356971e+01 4.990285e+01
 endloop
endfacet
facet normal -7.131221e-01 -3.162859e-02 -7.003260e-01
 outer loop
  vertex 7.307104e+01 7.464418e+01 5.145110e+01
  vertex 7.400001e+01 7.558542e+01 5.046265e+01
  vertex 7.463917e+01 7.356971e+01 4.990285e+01
 endloop
endfacet
facet normal 7.353693e-02 1.459983e-01 9.865479e-01
 outer loop
  vertex 1.126728e+02 7.845502e+01 4.504218e+01
  vertex 1.121650e+02 7.733156e+01 4.524629e+01
  vertex 1.144251e+02 7.783701e+01 4.500302e+01
 endloop
endfacet
facet normal -9.802355e-01 -1.977517e-01 -5.707448e-03
 outer loop
  vertex 7.301474e+01 7.485276e+01 5.389322e+01
  vertex 7.307104e+01 7.464418e+01 5.145110e+01
  vertex 7.355402e+01 7.218392e+01 5.374491e+01
 endloop
endfacet
facet normal -9.797887e-01 -1.956686e-01 -4.156923e-02
 outer loop
  vertex 7.322382e+01 7.339435e+01 5.583013e+01
  vertex 7.301474e+01 7.485276e+01 5.389322e+01
  vertex 7.355402e+01 7.218392e+01 5.374491e+01
 endloop
endfacet
facet normal -3.328999e-02 1.075723e-01 -9.936398e-01
 outer loop
  vertex 7.876216e+01 7.409884e+01 5.680958e+01
  vertex 7.701704e+01 7.202952e+01 5.664402e+01
  vertex 7.528113e+01 7.409404e+01 5.692568e+01
 endloop
endfacet
facet normal 4.845479e-01 -4.677736e-01 7.391896e-01
 outer loop
  vertex 7.876216e+01 7.409884e+01 5.680958e+01
  vertex 7.701704e+01 7.202952e+01 5.664402e+01
  vertex 8.005734e+01 7.343859e+01 5.554275e+01
 endloop
endfacet
facet normal -4.663424e-01 -1.372529e-02 8.844978e-01
 outer loop
  vertex 7.528113e+01 7.409404e+01 5.692568e+01
  vertex 7.322382e+01 7.339435e+01 5.583013e+01
  vertex 7.554764e+01 7.252101e+01 5.704179e+01
 endloop
endfacet
facet normal 2.966654e-01 1.201927e-01 9.473876e-01
 outer loop
  vertex 7.528113e+01 7.409404e+01 5.692568e+01
  vertex 7.554764e+01 7.252101e+01 5.704179e+01
  vertex 7.701704e+01 7.202952e+01 5.664402e+01
 endloop
endfacet
facet normal -7.763884e-01 4.786450e-01 4.100244e-01
 outer loop
  vertex 1.167134e+02 7.895775e+01 4.421214e+01
  vertex 1.162764e+02 7.762846e+01 4.493642e+01
  vertex 1.173331e+02 7.857351e+01 4.583424e+01
 endloop
endfacet
facet normal -9.859023e-01 -1.281288e-01 1.076093e-01
 outer loop
  vertex 1.190476e+02 7.853580e+01 4.858541e+01
  vertex 1.188271e+02 7.874624e+01 4.681565e+01
  vertex 1.190820e+02 7.698450e+01 4.705289e+01
 endloop
endfacet
facet normal 9.993920e-01 -1.067025e-02 3.319318e-02
 outer loop
  vertex 1.190476e+02 7.853580e+01 4.858541e+01
  vertex 1.189661e+02 7.718879e+01 5.060718e+01
  vertex 1.190820e+02 7.698450e+01 4.705289e+01
 endloop
endfacet
facet normal -4.446101e-01 -4.737292e-01 7.601990e-01
 outer loop
  vertex 1.188271e+02 7.874624e+01 4.681565e+01
  vertex 1.173331e+02 7.857351e+01 4.583424e+01
  vertex 1.177432e+02 7.709569e+01 4.515317e+01
 endloop
endfacet
facet normal -8.178651e-01 -4.102266e-02 5.739458e-01
 outer loop
  vertex 1.188271e+02 7.874624e+01 4.681565e+01
  vertex 1.177432e+02 7.709569e+01 4.515317e+01
  vertex 1.190820e+02 7.698450e+01 4.705289e+01
 endloop
endfacet
facet normal -2.926376e-01 -4.660192e-01 8.349787e-01
 outer loop
  vertex 1.173331e+02 7.857351e+01 4.583424e+01
  vertex 1.162764e+02 7.762846e+01 4.493642e+01
  vertex 1.177432e+02 7.709569e+01 4.515317e+01
 endloop
endfacet
facet normal 9.613402e-01 3.934416e-02 -2.725383e-01
 outer loop
  vertex 1.118361e+02 7.673342e+01 4.992121e+01
  vertex 1.124602e+02 7.588684e+01 5.200045e+01
  vertex 1.119429e+02 7.502468e+01 5.005145e+01
 endloop
endfacet
facet normal -9.955787e-01 -6.725449e-02 -6.557418e-02
 outer loop
  vertex 1.118361e+02 7.673342e+01 4.992121e+01
  vertex 1.120377e+02 7.589364e+01 4.772163e+01
  vertex 1.119429e+02 7.502468e+01 5.005145e+01
 endloop
endfacet
facet normal -1.694118e-01 2.667671e-01 9.487544e-01
 outer loop
  vertex 7.480086e+01 7.490409e+01 4.955652e+01
  vertex 7.463917e+01 7.356971e+01 4.990285e+01
  vertex 7.616796e+01 7.440907e+01 4.993983e+01
 endloop
endfacet
facet normal 1.504364e-01 1.825619e-01 -9.716172e-01
 outer loop
  vertex 7.616796e+01 7.440907e+01 4.993983e+01
  vertex 7.899329e+01 7.452907e+01 5.039982e+01
  vertex 7.841165e+01 7.262745e+01 4.995246e+01
 endloop
endfacet
facet normal 8.025380e-01 -1.074092e-01 -5.868527e-01
 outer loop
  vertex 7.899329e+01 7.452907e+01 5.039982e+01
  vertex 8.001556e+01 7.369082e+01 5.195123e+01
  vertex 7.841165e+01 7.262745e+01 4.995246e+01
 endloop
endfacet
facet normal -7.583866e-01 -2.257233e-01 -6.114726e-01
 outer loop
  vertex 7.307104e+01 7.464418e+01 5.145110e+01
  vertex 7.463917e+01 7.356971e+01 4.990285e+01
  vertex 7.403771e+01 7.242327e+01 5.107203e+01
 endloop
endfacet
facet normal -9.107656e-01 -3.627401e-01 -1.972959e-01
 outer loop
  vertex 7.307104e+01 7.464418e+01 5.145110e+01
  vertex 7.403771e+01 7.242327e+01 5.107203e+01
  vertex 7.355402e+01 7.218392e+01 5.374491e+01
 endloop
endfacet
facet normal -1.801635e-01 3.662096e-01 -9.129247e-01
 outer loop
  vertex 1.121650e+02 7.733156e+01 4.524629e+01
  vertex 1.144251e+02 7.783701e+01 4.500302e+01
  vertex 1.129719e+02 7.546634e+01 4.433883e+01
 endloop
endfacet
facet normal 5.140863e-01 5.857869e-01 6.265532e-01
 outer loop
  vertex 1.153360e+02 7.782687e+01 4.426512e+01
  vertex 1.144251e+02 7.783701e+01 4.500302e+01
  vertex 1.157197e+02 7.671902e+01 4.498608e+01
 endloop
endfacet
facet normal 1.376397e-02 7.919409e-04 9.999050e-01
 outer loop
  vertex 1.157197e+02 7.671902e+01 4.498608e+01
  vertex 1.144251e+02 7.783701e+01 4.500302e+01
  vertex 1.147950e+02 7.519582e+01 4.500002e+01
 endloop
endfacet
facet normal -3.470292e-01 -4.966562e-02 9.365383e-01
 outer loop
  vertex 1.144251e+02 7.783701e+01 4.500302e+01
  vertex 1.129719e+02 7.546634e+01 4.433883e+01
  vertex 1.147950e+02 7.519582e+01 4.500002e+01
 endloop
endfacet
facet normal -4.960070e-01 5.367888e-01 -6.825210e-01
 outer loop
  vertex 8.005734e+01 7.343859e+01 5.554275e+01
  vertex 7.809449e+01 7.094035e+01 5.500439e+01
  vertex 7.701704e+01 7.202952e+01 5.664402e+01
 endloop
endfacet
facet normal 6.171207e-01 -5.956636e-01 5.141467e-01
 outer loop
  vertex 8.005734e+01 7.343859e+01 5.554275e+01
  vertex 7.809449e+01 7.094035e+01 5.500439e+01
  vertex 7.985733e+01 7.207087e+01 5.419825e+01
 endloop
endfacet
facet normal 9.742795e-01 1.329140e-01 1.819708e-01
 outer loop
  vertex 1.119149e+02 7.700453e+01 4.682413e+01
  vertex 1.122210e+02 7.561147e+01 4.620263e+01
  vertex 1.121650e+02 7.733156e+01 4.524629e+01
 endloop
endfacet
facet normal -9.804355e-01 -1.773546e-01 -8.539081e-02
 outer loop
  vertex 1.120377e+02 7.589364e+01 4.772163e+01
  vertex 1.119149e+02 7.700453e+01 4.682413e+01
  vertex 1.122210e+02 7.561147e+01 4.620263e+01
 endloop
endfacet
facet normal -9.099419e-01 -2.237839e-01 -3.491797e-01
 outer loop
  vertex 1.121650e+02 7.733156e+01 4.524629e+01
  vertex 1.129719e+02 7.546634e+01 4.433883e+01
  vertex 1.122210e+02 7.561147e+01 4.620263e+01
 endloop
endfacet
facet normal 6.174995e-02 -6.860236e-02 -9.957312e-01
 outer loop
  vertex 7.463917e+01 7.356971e+01 4.990285e+01
  vertex 7.616796e+01 7.440907e+01 4.993983e+01
  vertex 7.586855e+01 7.234258e+01 5.006363e+01
 endloop
endfacet
facet normal -3.753162e-02 -5.434230e-02 -9.978168e-01
 outer loop
  vertex 7.616796e+01 7.440907e+01 4.993983e+01
  vertex 7.841165e+01 7.262745e+01 4.995246e+01
  vertex 7.586855e+01 7.234258e+01 5.006363e+01
 endloop
endfacet
facet normal 9.422049e-01 -3.164382e-01 -1.100763e-01
 outer loop
  vertex 1.124602e+02 7.588684e+01 5.200045e+01
  vertex 1.120383e+02 7.481805e+01 5.146147e+01
  vertex 1.119429e+02 7.502468e+01 5.005145e+01
 endloop
endfacet
facet normal -6.823877e-01 -9.605180e-02 7.246524e-01
 outer loop
  vertex 1.124602e+02 7.588684e+01 5.200045e+01
  vertex 1.120383e+02 7.481805e+01 5.146147e+01
  vertex 1.129305e+02 7.436387e+01 5.224149e+01
 endloop
endfacet
facet normal 5.295024e-01 2.934637e-02 -8.478007e-01
 outer loop
  vertex 1.124602e+02 7.588684e+01 5.200045e+01
  vertex 1.142343e+02 7.482176e+01 5.307164e+01
  vertex 1.129305e+02 7.436387e+01 5.224149e+01
 endloop
endfacet
facet normal 9.138305e-01 -3.572090e-01 -1.931723e-01
 outer loop
  vertex 8.001556e+01 7.369082e+01 5.195123e+01
  vertex 7.985733e+01 7.207087e+01 5.419825e+01
  vertex 7.900632e+01 7.110630e+01 5.195608e+01
 endloop
endfacet
facet normal -8.147814e-01 3.190759e-01 4.840681e-01
 outer loop
  vertex 8.001556e+01 7.369082e+01 5.195123e+01
  vertex 7.841165e+01 7.262745e+01 4.995246e+01
  vertex 7.900632e+01 7.110630e+01 5.195608e+01
 endloop
endfacet
facet normal -4.954065e-01 3.467412e-01 7.964565e-01
 outer loop
  vertex 1.153360e+02 7.782687e+01 4.426512e+01
  vertex 1.157197e+02 7.671902e+01 4.498608e+01
  vertex 1.162764e+02 7.762846e+01 4.493642e+01
 endloop
endfacet
facet normal -5.364723e-01 -5.890978e-01 6.042857e-01
 outer loop
  vertex 7.322382e+01 7.339435e+01 5.583013e+01
  vertex 7.473811e+01 7.196360e+01 5.577971e+01
  vertex 7.554764e+01 7.252101e+01 5.704179e+01
 endloop
endfacet
facet normal -6.493041e-01 -6.978746e-01 3.022832e-01
 outer loop
  vertex 7.322382e+01 7.339435e+01 5.583013e+01
  vertex 7.355402e+01 7.218392e+01 5.374491e+01
  vertex 7.473811e+01 7.196360e+01 5.577971e+01
 endloop
endfacet
facet normal -8.864873e-01 1.051145e-02 -4.626336e-01
 outer loop
  vertex 1.179920e+02 7.638944e+01 5.245558e+01
  vertex 1.189661e+02 7.718879e+01 5.060718e+01
  vertex 1.188744e+02 7.479196e+01 5.072835e+01
 endloop
endfacet
facet normal 9.985384e-01 -4.124977e-02 3.492302e-02
 outer loop
  vertex 1.190820e+02 7.698450e+01 4.705289e+01
  vertex 1.189661e+02 7.718879e+01 5.060718e+01
  vertex 1.189298e+02 7.440606e+01 4.835857e+01
 endloop
endfacet
facet normal 9.988958e-01 -3.671819e-02 2.930925e-02
 outer loop
  vertex 1.189661e+02 7.718879e+01 5.060718e+01
  vertex 1.188744e+02 7.479196e+01 5.072835e+01
  vertex 1.189298e+02 7.440606e+01 4.835857e+01
 endloop
endfacet
facet normal -1.588949e-01 -3.608319e-02 9.866359e-01
 outer loop
  vertex 1.177432e+02 7.709569e+01 4.515317e+01
  vertex 1.162764e+02 7.762846e+01 4.493642e+01
  vertex 1.165529e+02 7.605478e+01 4.492341e+01
 endloop
endfacet
facet normal -7.955146e-02 -5.739376e-03 -9.968142e-01
 outer loop
  vertex 1.157197e+02 7.671902e+01 4.498608e+01
  vertex 1.162764e+02 7.762846e+01 4.493642e+01
  vertex 1.165529e+02 7.605478e+01 4.492341e+01
 endloop
endfacet
facet normal 1.467893e-01 3.660494e-02 9.884903e-01
 outer loop
  vertex 1.179920e+02 7.638944e+01 5.245558e+01
  vertex 1.142343e+02 7.482176e+01 5.307164e+01
  vertex 1.169476e+02 7.442431e+01 5.268345e+01
 endloop
endfacet
facet normal 7.068282e-01 -3.014577e-01 6.399353e-01
 outer loop
  vertex 1.179920e+02 7.638944e+01 5.245558e+01
  vertex 1.169476e+02 7.442431e+01 5.268345e+01
  vertex 1.188744e+02 7.479196e+01 5.072835e+01
 endloop
endfacet
facet normal -1.578370e-01 -8.618915e-01 4.819030e-01
 outer loop
  vertex 7.554764e+01 7.252101e+01 5.704179e+01
  vertex 7.473811e+01 7.196360e+01 5.577971e+01
  vertex 7.701704e+01 7.202952e+01 5.664402e+01
 endloop
endfacet
facet normal -9.989871e-01 -9.177828e-03 -4.405175e-02
 outer loop
  vertex 1.119429e+02 7.502468e+01 5.005145e+01
  vertex 1.120377e+02 7.589364e+01 4.772163e+01
  vertex 1.120030e+02 7.425582e+01 4.884928e+01
 endloop
endfacet
facet normal -9.882816e-01 -1.174772e-01 -9.746080e-02
 outer loop
  vertex 1.120377e+02 7.589364e+01 4.772163e+01
  vertex 1.122210e+02 7.561147e+01 4.620263e+01
  vertex 1.122401e+02 7.463808e+01 4.718253e+01
 endloop
endfacet
facet normal -9.829799e-01 -8.960765e-02 -1.603774e-01
 outer loop
  vertex 1.120377e+02 7.589364e+01 4.772163e+01
  vertex 1.122401e+02 7.463808e+01 4.718253e+01
  vertex 1.120030e+02 7.425582e+01 4.884928e+01
 endloop
endfacet
facet normal -9.033046e-01 4.264712e-01 -4.650987e-02
 outer loop
  vertex 7.403771e+01 7.242327e+01 5.107203e+01
  vertex 7.463917e+01 7.356971e+01 4.990285e+01
  vertex 7.392193e+01 7.198248e+01 4.927888e+01
 endloop
endfacet
facet normal 3.314979e-01 2.116376e-01 -9.194121e-01
 outer loop
  vertex 7.463917e+01 7.356971e+01 4.990285e+01
  vertex 7.586855e+01 7.234258e+01 5.006363e+01
  vertex 7.392193e+01 7.198248e+01 4.927888e+01
 endloop
endfacet
facet normal -8.178714e-01 -2.733160e-02 5.747516e-01
 outer loop
  vertex 1.190820e+02 7.698450e+01 4.705289e+01
  vertex 1.177432e+02 7.709569e+01 4.515317e+01
  vertex 1.180081e+02 7.549998e+01 4.545418e+01
 endloop
endfacet
facet normal -2.958631e-01 1.294211e-01 9.464223e-01
 outer loop
  vertex 1.177432e+02 7.709569e+01 4.515317e+01
  vertex 1.165529e+02 7.605478e+01 4.492341e+01
  vertex 1.180081e+02 7.549998e+01 4.545418e+01
 endloop
endfacet
facet normal -8.945061e-01 2.428585e-01 3.753379e-01
 outer loop
  vertex 1.190820e+02 7.698450e+01 4.705289e+01
  vertex 1.180081e+02 7.549998e+01 4.545418e+01
  vertex 1.189298e+02 7.440606e+01 4.835857e+01
 endloop
endfacet
facet normal -5.549946e-02 2.455981e-02 -9.981566e-01
 outer loop
  vertex 1.157197e+02 7.671902e+01 4.498608e+01
  vertex 1.165529e+02 7.605478e+01 4.492341e+01
  vertex 1.147950e+02 7.519582e+01 4.500002e+01
 endloop
endfacet
facet normal 8.552957e-01 5.178255e-01 1.805387e-02
 outer loop
  vertex 1.120383e+02 7.481805e+01 5.146147e+01
  vertex 1.125849e+02 7.394093e+01 5.072478e+01
  vertex 1.119429e+02 7.502468e+01 5.005145e+01
 endloop
endfacet
facet normal -6.446111e-01 -6.856788e-01 3.381140e-01
 outer loop
  vertex 1.120383e+02 7.481805e+01 5.146147e+01
  vertex 1.125849e+02 7.394093e+01 5.072478e+01
  vertex 1.129305e+02 7.436387e+01 5.224149e+01
 endloop
endfacet
facet normal -8.928598e-01 -3.983085e-01 2.101230e-01
 outer loop
  vertex 1.119429e+02 7.502468e+01 5.005145e+01
  vertex 1.120030e+02 7.425582e+01 4.884928e+01
  vertex 1.125849e+02 7.394093e+01 5.072478e+01
 endloop
endfacet
facet normal 1.466774e-01 8.789591e-01 -4.537803e-01
 outer loop
  vertex 7.701704e+01 7.202952e+01 5.664402e+01
  vertex 7.594637e+01 7.102986e+01 5.436163e+01
  vertex 7.473811e+01 7.196360e+01 5.577971e+01
 endloop
endfacet
facet normal -1.746466e-01 -8.691845e-01 4.626196e-01
 outer loop
  vertex 7.701704e+01 7.202952e+01 5.664402e+01
  vertex 7.594637e+01 7.102986e+01 5.436163e+01
  vertex 7.809449e+01 7.094035e+01 5.500439e+01
 endloop
endfacet
facet normal -3.238781e-01 -5.157646e-01 7.931518e-01
 outer loop
  vertex 1.142343e+02 7.482176e+01 5.307164e+01
  vertex 1.129305e+02 7.436387e+01 5.224149e+01
  vertex 1.135599e+02 7.301079e+01 5.161864e+01
 endloop
endfacet
facet normal 2.466706e-02 -6.072471e-01 7.941300e-01
 outer loop
  vertex 1.142343e+02 7.482176e+01 5.307164e+01
  vertex 1.151767e+02 7.299700e+01 5.164703e+01
  vertex 1.169476e+02 7.442431e+01 5.268345e+01
 endloop
endfacet
facet normal -1.905620e-02 -6.213645e-01 7.832899e-01
 outer loop
  vertex 1.142343e+02 7.482176e+01 5.307164e+01
  vertex 1.135599e+02 7.301079e+01 5.161864e+01
  vertex 1.151767e+02 7.299700e+01 5.164703e+01
 endloop
endfacet
facet normal 7.571460e-01 5.999980e-01 2.583260e-01
 outer loop
  vertex 1.129719e+02 7.546634e+01 4.433883e+01
  vertex 1.122210e+02 7.561147e+01 4.620263e+01
  vertex 1.131864e+02 7.439138e+01 4.620699e+01
 endloop
endfacet
facet normal -6.708361e-01 -5.326260e-01 -5.160314e-01
 outer loop
  vertex 1.122210e+02 7.561147e+01 4.620263e+01
  vertex 1.131864e+02 7.439138e+01 4.620699e+01
  vertex 1.122401e+02 7.463808e+01 4.718253e+01
 endloop
endfacet
facet normal 5.763203e-01 -8.070651e-01 1.284557e-01
 outer loop
  vertex 7.985733e+01 7.207087e+01 5.419825e+01
  vertex 7.809449e+01 7.094035e+01 5.500439e+01
  vertex 7.900632e+01 7.110630e+01 5.195608e+01
 endloop
endfacet
facet normal 7.496773e-01 5.436542e-01 -3.773911e-01
 outer loop
  vertex 7.355402e+01 7.218392e+01 5.374491e+01
  vertex 7.473811e+01 7.196360e+01 5.577971e+01
  vertex 7.449619e+01 7.101881e+01 5.393810e+01
 endloop
endfacet
facet normal 1.294332e-01 8.752499e-01 -4.660307e-01
 outer loop
  vertex 7.473811e+01 7.196360e+01 5.577971e+01
  vertex 7.594637e+01 7.102986e+01 5.436163e+01
  vertex 7.449619e+01 7.101881e+01 5.393810e+01
 endloop
endfacet
facet normal 5.297244e-02 -7.361882e-01 -6.747006e-01
 outer loop
  vertex 7.841165e+01 7.262745e+01 4.995246e+01
  vertex 7.645297e+01 7.100860e+01 5.156507e+01
  vertex 7.586855e+01 7.234258e+01 5.006363e+01
 endloop
endfacet
facet normal -1.249748e-01 7.720083e-01 6.232050e-01
 outer loop
  vertex 7.841165e+01 7.262745e+01 4.995246e+01
  vertex 7.645297e+01 7.100860e+01 5.156507e+01
  vertex 7.900632e+01 7.110630e+01 5.195608e+01
 endloop
endfacet
facet normal -7.915329e-01 -5.176963e-01 3.247555e-01
 outer loop
  vertex 1.129305e+02 7.436387e+01 5.224149e+01
  vertex 1.125849e+02 7.394093e+01 5.072478e+01
  vertex 1.135599e+02 7.301079e+01 5.161864e+01
 endloop
endfacet
facet normal 8.444117e-01 4.979980e-01 1.974002e-01
 outer loop
  vertex 7.403771e+01 7.242327e+01 5.107203e+01
  vertex 7.355402e+01 7.218392e+01 5.374491e+01
  vertex 7.457933e+01 7.096640e+01 5.243051e+01
 endloop
endfacet
facet normal 7.757123e-01 6.307421e-01 2.085021e-02
 outer loop
  vertex 7.355402e+01 7.218392e+01 5.374491e+01
  vertex 7.449619e+01 7.101881e+01 5.393810e+01
  vertex 7.457933e+01 7.096640e+01 5.243051e+01
 endloop
endfacet
facet normal -7.432843e-01 -6.369333e-01 2.045593e-01
 outer loop
  vertex 7.403771e+01 7.242327e+01 5.107203e+01
  vertex 7.392193e+01 7.198248e+01 4.927888e+01
  vertex 7.498067e+01 7.132889e+01 5.109084e+01
 endloop
endfacet
facet normal 6.993120e-01 6.089932e-01 3.742860e-01
 outer loop
  vertex 7.498067e+01 7.132889e+01 5.109084e+01
  vertex 7.403771e+01 7.242327e+01 5.107203e+01
  vertex 7.457933e+01 7.096640e+01 5.243051e+01
 endloop
endfacet
facet normal 3.457238e-01 -7.999026e-01 -4.905415e-01
 outer loop
  vertex 7.586855e+01 7.234258e+01 5.006363e+01
  vertex 7.498067e+01 7.132889e+01 5.109084e+01
  vertex 7.392193e+01 7.198248e+01 4.927888e+01
 endloop
endfacet
facet normal 5.767770e-02 -7.350674e-01 -6.755362e-01
 outer loop
  vertex 7.586855e+01 7.234258e+01 5.006363e+01
  vertex 7.645297e+01 7.100860e+01 5.156507e+01
  vertex 7.498067e+01 7.132889e+01 5.109084e+01
 endloop
endfacet
facet normal 3.002383e-02 2.766790e-02 9.991662e-01
 outer loop
  vertex 1.165529e+02 7.605478e+01 4.492341e+01
  vertex 1.147950e+02 7.519582e+01 4.500002e+01
  vertex 1.170074e+02 7.482659e+01 4.494376e+01
 endloop
endfacet
facet normal -3.820355e-01 -1.261887e-01 9.154918e-01
 outer loop
  vertex 1.165529e+02 7.605478e+01 4.492341e+01
  vertex 1.170074e+02 7.482659e+01 4.494376e+01
  vertex 1.180081e+02 7.549998e+01 4.545418e+01
 endloop
endfacet
facet normal -5.428855e-02 8.627659e-01 5.026805e-01
 outer loop
  vertex 1.129719e+02 7.546634e+01 4.433883e+01
  vertex 1.131864e+02 7.439138e+01 4.620699e+01
  vertex 1.147950e+02 7.519582e+01 4.500002e+01
 endloop
endfacet
facet normal -7.176197e-01 -6.496070e-01 -2.510634e-01
 outer loop
  vertex 1.122401e+02 7.463808e+01 4.718253e+01
  vertex 1.133553e+02 7.311108e+01 4.794591e+01
  vertex 1.120030e+02 7.425582e+01 4.884928e+01
 endloop
endfacet
facet normal 6.142927e-01 6.627384e-01 4.282783e-01
 outer loop
  vertex 1.122401e+02 7.463808e+01 4.718253e+01
  vertex 1.133553e+02 7.311108e+01 4.794591e+01
  vertex 1.131864e+02 7.439138e+01 4.620699e+01
 endloop
endfacet
facet normal 9.531630e-01 1.274017e-01 -2.743158e-01
 outer loop
  vertex 1.120030e+02 7.425582e+01 4.884928e+01
  vertex 1.125849e+02 7.394093e+01 5.072478e+01
  vertex 1.123730e+02 7.308960e+01 4.959314e+01
 endloop
endfacet
facet normal -7.329353e-01 -5.155921e-01 -4.438137e-01
 outer loop
  vertex 1.123730e+02 7.308960e+01 4.959314e+01
  vertex 1.120030e+02 7.425582e+01 4.884928e+01
  vertex 1.133553e+02 7.311108e+01 4.794591e+01
 endloop
endfacet
facet normal 5.978650e-01 -6.517454e-01 4.666749e-01
 outer loop
  vertex 1.169476e+02 7.442431e+01 5.268345e+01
  vertex 1.172883e+02 7.303769e+01 5.031036e+01
  vertex 1.188744e+02 7.479196e+01 5.072835e+01
 endloop
endfacet
facet normal -3.383750e-01 7.905063e-01 -5.104922e-01
 outer loop
  vertex 1.169476e+02 7.442431e+01 5.268345e+01
  vertex 1.172883e+02 7.303769e+01 5.031036e+01
  vertex 1.151767e+02 7.299700e+01 5.164703e+01
 endloop
endfacet
facet normal -6.581561e-01 -7.502621e-01 -6.274803e-02
 outer loop
  vertex 1.135599e+02 7.301079e+01 5.161864e+01
  vertex 1.125849e+02 7.394093e+01 5.072478e+01
  vertex 1.137694e+02 7.297186e+01 4.988686e+01
 endloop
endfacet
facet normal 1.934809e-01 7.662739e-01 -6.126903e-01
 outer loop
  vertex 1.125849e+02 7.394093e+01 5.072478e+01
  vertex 1.137694e+02 7.297186e+01 4.988686e+01
  vertex 1.123730e+02 7.308960e+01 4.959314e+01
 endloop
endfacet
facet normal -2.913914e-01 -5.699817e-01 -7.682525e-01
 outer loop
  vertex 1.147950e+02 7.519582e+01 4.500002e+01
  vertex 1.152116e+02 7.309221e+01 4.640272e+01
  vertex 1.131864e+02 7.439138e+01 4.620699e+01
 endloop
endfacet
facet normal 1.015357e-01 4.752250e-01 8.739861e-01
 outer loop
  vertex 1.147950e+02 7.519582e+01 4.500002e+01
  vertex 1.159776e+02 7.397330e+01 4.552738e+01
  vertex 1.170074e+02 7.482659e+01 4.494376e+01
 endloop
endfacet
facet normal 2.402531e-01 5.710184e-01 7.849946e-01
 outer loop
  vertex 1.147950e+02 7.519582e+01 4.500002e+01
  vertex 1.152116e+02 7.309221e+01 4.640272e+01
  vertex 1.159776e+02 7.397330e+01 4.552738e+01
 endloop
endfacet
facet normal 4.165321e-02 9.991321e-01 -5.338112e-05
 outer loop
  vertex 7.809449e+01 7.094035e+01 5.500439e+01
  vertex 7.645297e+01 7.100860e+01 5.156507e+01
  vertex 7.594637e+01 7.102986e+01 5.436163e+01
 endloop
endfacet
facet normal 4.447751e-02 -9.981672e-01 -4.103579e-02
 outer loop
  vertex 7.809449e+01 7.094035e+01 5.500439e+01
  vertex 7.645297e+01 7.100860e+01 5.156507e+01
  vertex 7.900632e+01 7.110630e+01 5.195608e+01
 endloop
endfacet
facet normal 7.203365e-01 -6.817419e-01 1.278406e-01
 outer loop
  vertex 1.188744e+02 7.479196e+01 5.072835e+01
  vertex 1.172883e+02 7.303769e+01 5.031036e+01
  vertex 1.189298e+02 7.440606e+01 4.835857e+01
 endloop
endfacet
facet normal 2.487102e-03 9.993979e-01 -3.460751e-02
 outer loop
  vertex 7.594637e+01 7.102986e+01 5.436163e+01
  vertex 7.457933e+01 7.096640e+01 5.243051e+01
  vertex 7.449619e+01 7.101881e+01 5.393810e+01
 endloop
endfacet
facet normal 2.839993e-02 -9.995154e-01 1.274661e-02
 outer loop
  vertex 7.594637e+01 7.102986e+01 5.436163e+01
  vertex 7.457933e+01 7.096640e+01 5.243051e+01
  vertex 7.645297e+01 7.100860e+01 5.156507e+01
 endloop
endfacet
facet normal 6.336827e-01 -4.846917e-01 -6.029264e-01
 outer loop
  vertex 1.180081e+02 7.549998e+01 4.545418e+01
  vertex 1.173736e+02 7.406271e+01 4.594268e+01
  vertex 1.170074e+02 7.482659e+01 4.494376e+01
 endloop
endfacet
facet normal -7.659464e-01 4.825505e-01 4.248190e-01
 outer loop
  vertex 1.180081e+02 7.549998e+01 4.545418e+01
  vertex 1.173736e+02 7.406271e+01 4.594268e+01
  vertex 1.189298e+02 7.440606e+01 4.835857e+01
 endloop
endfacet
facet normal 9.168585e-01 3.587683e-01 1.750879e-01
 outer loop
  vertex 1.131864e+02 7.439138e+01 4.620699e+01
  vertex 1.133553e+02 7.311108e+01 4.794591e+01
  vertex 1.136916e+02 7.297484e+01 4.646395e+01
 endloop
endfacet
facet normal 2.511152e-02 1.871006e-01 9.820198e-01
 outer loop
  vertex 1.131864e+02 7.439138e+01 4.620699e+01
  vertex 1.136916e+02 7.297484e+01 4.646395e+01
  vertex 1.152116e+02 7.309221e+01 4.640272e+01
 endloop
endfacet
facet normal 1.129779e-01 9.500539e-01 2.909186e-01
 outer loop
  vertex 7.498067e+01 7.132889e+01 5.109084e+01
  vertex 7.457933e+01 7.096640e+01 5.243051e+01
  vertex 7.645297e+01 7.100860e+01 5.156507e+01
 endloop
endfacet
facet normal -8.903579e-03 -9.997313e-01 2.140102e-02
 outer loop
  vertex 1.135599e+02 7.301079e+01 5.161864e+01
  vertex 1.137694e+02 7.297186e+01 4.988686e+01
  vertex 1.151767e+02 7.299700e+01 5.164703e+01
 endloop
endfacet
facet normal 2.380477e-01 -7.274518e-01 -6.435426e-01
 outer loop
  vertex 1.170074e+02 7.482659e+01 4.494376e+01
  vertex 1.173736e+02 7.406271e+01 4.594268e+01
  vertex 1.159776e+02 7.397330e+01 4.552738e+01
 endloop
endfacet
facet normal -7.218159e-02 -9.958166e-01 -5.602767e-02
 outer loop
  vertex 1.123730e+02 7.308960e+01 4.959314e+01
  vertex 1.133553e+02 7.311108e+01 4.794591e+01
  vertex 1.137694e+02 7.297186e+01 4.988686e+01
 endloop
endfacet
facet normal 4.846482e-01 -8.536286e-01 -1.908777e-01
 outer loop
  vertex 1.189298e+02 7.440606e+01 4.835857e+01
  vertex 1.172883e+02 7.303769e+01 5.031036e+01
  vertex 1.173736e+02 7.406271e+01 4.594268e+01
 endloop
endfacet
facet normal 3.782099e-01 8.705432e-01 -3.148203e-01
 outer loop
  vertex 1.137694e+02 7.297186e+01 4.988686e+01
  vertex 1.151767e+02 7.299700e+01 5.164703e+01
  vertex 1.151941e+02 7.214489e+01 4.931170e+01
 endloop
endfacet
facet normal -2.297367e-01 9.137385e-01 -3.351163e-01
 outer loop
  vertex 1.151767e+02 7.299700e+01 5.164703e+01
  vertex 1.172883e+02 7.303769e+01 5.031036e+01
  vertex 1.151941e+02 7.214489e+01 4.931170e+01
 endloop
endfacet
facet normal 4.888907e-01 8.713424e-01 -4.181146e-02
 outer loop
  vertex 1.137694e+02 7.297186e+01 4.988686e+01
  vertex 1.151941e+02 7.214489e+01 4.931170e+01
  vertex 1.133553e+02 7.311108e+01 4.794591e+01
 endloop
endfacet
facet normal -8.090670e-02 9.906956e-01 -1.094365e-01
 outer loop
  vertex 1.133553e+02 7.311108e+01 4.794591e+01
  vertex 1.152116e+02 7.309221e+01 4.640272e+01
  vertex 1.136916e+02 7.297484e+01 4.646395e+01
 endloop
endfacet
facet normal 2.591261e-01 9.179145e-01 3.004773e-01
 outer loop
  vertex 1.133553e+02 7.311108e+01 4.794591e+01
  vertex 1.151941e+02 7.214489e+01 4.931170e+01
  vertex 1.152116e+02 7.309221e+01 4.640272e+01
 endloop
endfacet
facet normal -2.244000e-01 7.780344e-01 5.867769e-01
 outer loop
  vertex 1.159776e+02 7.397330e+01 4.552738e+01
  vertex 1.152116e+02 7.309221e+01 4.640272e+01
  vertex 1.173736e+02 7.406271e+01 4.594268e+01
 endloop
endfacet
facet normal -3.639097e-01 9.083516e-01 2.060756e-01
 outer loop
  vertex 1.173736e+02 7.406271e+01 4.594268e+01
  vertex 1.152116e+02 7.309221e+01 4.640272e+01
  vertex 1.172883e+02 7.303769e+01 5.031036e+01
 endloop
endfacet
facet normal 4.832692e-01 -8.332937e-01 -2.684632e-01
 outer loop
  vertex 1.172883e+02 7.303769e+01 5.031036e+01
  vertex 1.151941e+02 7.214489e+01 4.931170e+01
  vertex 1.152116e+02 7.309221e+01 4.640272e+01
 endloop
endfacet
endsolid 
